<svg xmlns="http://www.w3.org/2000/svg" xmlns:xlink="http://www.w3.org/1999/xlink" width="32" height="32" viewBox="0 0 32 32">
<defs><clipPath id="c"><rect width="32" height="32"/></clipPath></defs>
<g clip-path="url(#c)"><g data-fit="1" transform="translate(-1 0) translate(4 3) scale(1.0000) translate(-4 -3)">
<defs><g id="a"><path d="M4 3v21l5.6-5.2 3.9 8.3 3.8-1.8-3.9-8.2H21z"/></g></defs><use href="#a" xlink:href="#a" fill="#fff" stroke="#fff" stroke-width="4" stroke-linejoin="round"/><use href="#a" xlink:href="#a" fill="#43303f" stroke="#43303f" stroke-width="1.2" stroke-linejoin="round"/><use href="#a" xlink:href="#a" fill="#43303f"/><g transform="translate(16.6 14.4) scale(.48)"><g fill="#ffa45c" stroke="#43303f" stroke-width=".9"><ellipse cx="15.6" cy="29.4" rx="2" ry="1"/><ellipse cx="21" cy="29.4" rx="2" ry="1"/></g><defs><g id="d"><circle cx="13" cy="12.4" r="8"/><path d="M9.4 21.5C9.4 17.4 14 15.6 19 16.6C22.4 17.3 24.6 16.2 26.6 14C28.6 16.4 29.6 19 29 22C28.2 26.4 23.8 28.8 18.6 28.8C13 28.8 9.4 26.2 9.4 21.5Z"/><path d="M12.2 4.8C12 2.6 13.6 1.4 15.2 2.2C14.2 2.6 13.9 3.4 14.3 4.4Z"/><path d="M5.6 11.9C3.6 11.8 2.2 12.8 2.3 13.9C2.4 15 4.2 15.6 6.1 15.1Z"/></g></defs><use href="#d" xlink:href="#d" fill="#fff" stroke="#fff" stroke-width="5.2" stroke-linejoin="round"/><use href="#d" xlink:href="#d" fill="#43303f" stroke="#43303f" stroke-width="2.4" stroke-linejoin="round"/><use href="#d" xlink:href="#d" fill="#ffe36e"/><g fill="#ffa45c"><path d="M5.6 11.9C3.6 11.8 2.2 12.8 2.3 13.9C2.4 15 4.2 15.6 6.1 15.1Z"/></g><ellipse cx="9.8" cy="11.6" rx="1.6" ry="1.95" fill="#43303f"/><circle cx="10.41" cy="10.86" r="0.67" fill="#fff"/><circle cx="9.24" cy="12.48" r="0.32" fill="#fff"/><ellipse cx="12.4" cy="15.2" rx="1.5" ry="0.9" fill="#ff8fb1" opacity=".75"/><path d="M17.6 21.6C18.6 19.4 22.4 19.4 23.4 21.8C22 23.6 19 23.6 17.6 21.6Z" fill="#ffc93c"/></g>
</g></g>
</svg>
