<svg width="767" height="76" viewBox="0 0 767 76" fill="none" xmlns="http://www.w3.org/2000/svg">
<path fill-rule="evenodd" clip-rule="evenodd" d="M703.65 0.138341C702.798 1.24492 646.675 3.08586 634.959 2.39173C634.134 2.34311 620.27 2.53257 604.152 2.81424C579.571 3.24346 574.695 3.72801 573.908 5.81374C573.166 7.78211 572.967 7.82068 572.955 5.99985C572.944 4.27627 572.606 4.16226 571.611 5.54549C570.8 6.67386 569.146 6.89517 567.36 6.11386C565.752 5.40968 560.092 4.85975 554.78 4.88993C549.468 4.92178 545.357 4.31148 545.643 3.53519C545.929 2.75891 543.298 2.55772 539.795 3.08921C524.039 5.47842 466.558 6.65709 464.602 4.63171C464.049 4.05998 463.899 4.40873 464.268 5.40968C464.637 6.41063 464.481 7.70331 463.922 8.28343C463.363 8.86187 462.906 8.5366 462.906 7.5608C462.906 6.585 462.428 5.78524 461.846 5.78524C461.264 5.78524 461.065 6.53973 461.405 7.46188C461.745 8.38403 461.573 9.13852 461.023 9.13852C460.473 9.13852 459.745 8.38403 459.404 7.46188C459.064 6.53973 458.25 5.79698 457.595 5.81039C456.879 5.82716 457.003 6.48608 457.904 7.46188C459.626 9.3263 458.96 9.57779 453.403 9.16702C451.202 9.00438 448.974 8.1778 448.451 7.32775C447.019 5.00225 412.89 5.32753 412.89 7.66643C412.89 9.05133 412.535 9.05468 411.548 7.68151C410.809 6.65541 410.003 6.15243 409.757 6.56656C409.51 6.97901 404.492 7.43505 398.607 7.57924C391.863 7.74523 388.13 8.45444 388.514 9.49563C388.85 10.406 388.169 10.2937 387.003 9.2475C385.836 8.1996 384.882 7.93636 384.883 8.66067C384.885 10.0858 373.333 9.57109 370.877 8.03697C370.052 7.52057 359.023 7.36129 346.369 7.68488C333.715 8.00679 312.418 8.27672 299.043 8.2851C285.666 8.29349 275.763 8.79145 277.036 9.39001C278.341 10.0053 276.166 10.5536 272.037 10.6475C267.777 10.7447 264.967 11.4707 265.304 12.3845C265.659 13.3452 264.719 13.3938 262.876 12.5069C261.223 11.7122 259.633 11.7038 259.344 12.4868C259.055 13.2714 257.249 13.6688 255.329 13.3687C253.411 13.0702 251.84 13.3603 251.84 14.0142C251.84 14.6697 251.164 16.6683 250.338 18.4589C249.084 21.1717 248.936 21.2254 249.444 18.7792C249.85 16.8209 249.546 15.8451 248.529 15.8451C247.691 15.8451 246.817 14.9028 246.588 13.7493C245.699 9.27432 118.851 9.56941 99.0535 14.093C95.8836 14.8173 89.3845 15.5449 84.6101 15.7092C79.8356 15.8752 74.659 16.5878 73.1065 17.2937C71.554 17.9995 68.8212 18.4472 67.0326 18.2879C65.244 18.1303 63.7816 18.6467 63.7816 19.4381C63.7816 20.2278 63.2564 20.875 62.6142 20.875C61.973 20.875 61.745 20.377 62.1081 19.7684C62.4712 19.1598 61.891 17.6307 60.8197 16.3732C59.2812 14.5658 55.434 14.2824 42.57 15.0269C33.6052 15.5449 23.6631 16.5727 20.4771 17.3121C15.6637 18.4288 14.5333 18.2058 13.7921 15.9926C12.9958 13.6151 12.8268 13.6487 12.2156 16.3078C11.7474 18.3466 11.1643 18.7725 10.365 17.6609C9.63979 16.6532 8.64148 16.6264 7.73019 17.5921C6.92394 18.4472 6.71387 19.1698 7.26404 19.1983C7.81421 19.2268 7.62715 19.926 6.84691 20.7526C6.02865 21.6211 4.46018 21.6378 3.13176 20.7911C0.395914 19.0474 -0.531383 20.8498 0.286871 26.3157C0.849045 30.068 4.76327 32.5494 4.76327 29.1542C4.76327 28.2891 5.46549 27.5815 6.32276 27.5815C7.18002 27.5815 7.60415 26.827 7.26404 25.9049C6.92394 24.9827 7.34806 24.2282 8.20533 24.2282C10.0399 24.2282 10.1199 25.0129 8.72949 29.3688C7.85422 32.1084 8.02829 32.6114 9.85185 32.6114C11.7534 32.6114 11.8475 32.9484 10.6371 35.4483C9.85584 37.0646 9.77282 37.7738 10.446 37.0981C11.0952 36.4442 11.9095 36.6773 12.2556 37.6145C12.6007 38.5517 12.3226 39.318 11.6354 39.318C10.9312 39.318 11.3073 40.7532 12.4987 42.6142C13.66 44.4283 14.8984 47.4329 15.2505 49.2939C15.6997 51.6664 16.5459 52.4728 18.0794 51.9916C19.2838 51.6127 20.2681 51.1919 20.2681 51.0544C20.2681 50.9169 21.3844 50.4626 22.7499 50.0434C25.1516 49.3057 25.1676 49.361 23.25 51.7905C21.3144 54.2417 21.3254 54.3021 23.7101 54.354C26.0879 54.406 26.1009 54.4764 24.2103 57.0467C23.143 58.4987 22.8219 59.2179 23.4991 58.6462C24.1753 58.0728 26.6771 58.7133 29.0578 60.068C34.3535 63.0809 55.9992 62.5243 56.6284 59.3588C56.8805 58.0896 56.3063 57.7861 54.9809 58.492C53.8625 59.0872 52.6571 58.7887 52.303 57.8297C51.8839 56.6929 53.7955 56.0843 57.7797 56.0843C61.6049 56.0843 63.6676 55.4556 63.2814 54.4077C62.2051 51.4887 77.6749 52.3069 79.4385 55.2611C80.9539 57.8029 83.2837 57.1087 82.2894 54.4127C81.9973 53.6213 82.7215 52.4594 83.8978 51.834C85.9435 50.7459 88.1882 53.6448 87.2569 56.1715C87.0368 56.7684 88.9924 56.9143 91.6022 56.4934C94.5872 56.0122 97.7231 56.6913 100.05 58.3209C102.084 59.7461 103.993 60.2541 104.29 59.4493C104.586 58.6445 106.178 58.051 107.826 58.1298C109.476 58.2086 111.14 57.7425 111.526 57.0953C111.913 56.4481 109.768 56.0105 106.761 56.1212C103.754 56.2335 99.1496 55.7943 96.5288 55.1454C92.5345 54.1579 91.9573 53.5761 92.9576 51.5557C93.6209 50.2178 95.0493 49.5387 96.1696 50.03C97.28 50.5162 98.8605 50.0032 99.6828 48.8882C100.687 47.5268 100.952 47.4916 100.492 48.7809C99.9928 50.1775 103.383 50.7375 112.985 50.8448C123.232 50.9605 125.898 50.5464 124.965 48.9821C124.304 47.8755 122.535 46.8192 121.031 46.6331C119.529 46.4487 117.961 46.2358 117.548 46.1603C117.135 46.0865 116.798 45.3824 116.798 44.596C116.798 43.8097 120.511 43.4408 125.051 43.7744C129.59 44.1081 133.978 43.8935 134.804 43.2966C137.355 41.4523 141.324 42.0023 141.04 44.1601C140.894 45.2734 141.344 46.058 142.04 45.9055C145.01 45.2532 153.092 46.1083 152.549 47.0187C151.75 48.3584 134.223 48.1505 131.628 46.7706C130.149 45.9826 129.694 46.3146 130.021 47.9442C130.35 49.5823 132.088 50.0836 136.25 49.7433C139.654 49.465 142.612 50.0887 143.457 51.264C144.544 52.7763 145.173 52.788 146.049 51.3193C146.686 50.2513 148.356 49.4532 149.758 49.5454L152.309 49.7114L149.808 51.0544C146.583 52.7864 147.112 52.9155 160.812 53.7337C174.216 54.5368 174.849 54.8 174.326 59.3537C173.947 62.6483 174.381 62.7909 184.817 62.7909C190.805 62.7909 195.918 63.3676 196.177 64.0735C196.437 64.7777 199.952 65.2253 203.988 65.0677C208.025 64.9101 216.279 64.6301 222.331 64.444C228.383 64.2596 234.235 63.2972 235.335 62.3063C237.926 59.9741 241.837 59.2548 241.837 61.1125C241.837 63.2134 245.88 63.9645 249.231 62.4874C250.823 61.7849 252.585 61.6876 253.147 62.2711C254.789 63.9712 259.842 64.216 259.842 62.5964C259.842 61.7815 260.743 61.1142 261.843 61.1142C262.943 61.1142 263.844 60.3597 263.844 59.4376C263.844 58.5154 264.996 57.7609 266.404 57.7609C267.811 57.7609 268.731 58.3897 268.448 59.1576C268.165 59.9272 268.476 60.5676 269.139 60.581C269.803 60.5961 271.774 61.1461 273.52 61.805C276.383 62.8831 276.641 62.6617 276.154 59.5415C275.672 56.4548 274.795 56.0625 267.978 55.8747C261.155 55.687 260.819 55.5361 264.82 54.4546C267.283 53.7873 270.167 53.6247 271.228 54.0891C272.686 54.7279 272.952 54.3591 272.31 52.5768C271.601 50.6034 271.752 50.6101 273.231 52.6237C274.768 54.7145 275.133 54.7145 276.018 52.6237C276.857 50.6403 276.944 50.704 276.512 52.9842C275.702 57.2479 278.761 57.8112 296.264 56.6208C308.244 55.806 312.001 56.0206 311.46 57.4877C311.063 58.5607 311.168 59.4376 311.693 59.4376C312.217 59.4376 312.904 58.3059 313.221 56.9226C313.537 55.5394 314.373 54.4194 315.079 54.4328C315.987 54.4513 315.923 54.9761 314.86 56.2369C313.526 57.818 313.526 57.9353 314.86 57.2898C315.685 56.8891 316.303 55.3818 316.234 53.9399C316.15 52.1861 316.646 51.6563 317.734 52.3387C319.198 53.2558 319.21 53.0362 317.86 50.139C316.399 47.0037 316.429 46.9953 319.036 49.7818C320.797 51.6664 321.839 52.0084 322.082 50.7845C322.455 48.9083 328.136 48.8228 340.618 50.5078C347.279 51.4082 349.312 54.4077 343.261 54.4077C340.535 54.4077 339.788 54.9962 340.205 56.8187C340.528 58.2237 340.05 59.5231 339.062 59.9355C338.13 60.3245 339.617 60.2608 342.368 59.793C345.119 59.3252 347.913 58.9279 348.576 58.9111C349.239 58.8927 349.55 58.2505 349.267 57.481C348.984 56.7131 350.467 56.1598 352.562 56.252C355.785 56.3928 355.988 56.5974 353.882 57.5799C352.186 58.3712 351.787 59.1526 352.631 60.0278C353.314 60.7336 354.322 60.846 354.872 60.2759C355.422 59.7058 355.879 60.2273 355.887 61.4345C355.9 63.1832 356.077 63.1664 356.763 61.354C357.402 59.6656 357.81 59.5868 358.349 61.0488C358.749 62.1336 359.814 62.5444 360.715 61.9643C361.617 61.3858 364.572 60.5458 367.282 60.1015C369.992 59.6556 372.579 58.9078 373.032 58.44C373.485 57.9705 373.587 58.7569 373.26 60.1887C372.882 61.8385 373.221 62.7909 374.188 62.7909C375.026 62.7909 375.939 61.8486 376.217 60.6951C376.62 59.0184 376.737 59.0184 376.8 60.6951C376.843 61.8486 377.581 62.7909 378.438 62.7909C379.42 62.7909 379.72 62.0146 379.247 60.6951C378.663 59.0687 378.847 59.0771 380.068 60.7336C381.642 62.8713 391.449 63.2905 393.384 61.3037C393.934 60.7387 401.191 60.1921 409.511 60.0881C417.831 59.9858 425.215 59.3018 425.921 58.5724C426.72 57.7425 426.956 57.9118 426.548 59.0201C425.644 61.473 443.375 61.7044 446.081 59.275C447.215 58.2589 447.879 58.1415 447.556 59.0151C447.211 59.9523 449.524 60.6062 453.187 60.6079L459.404 60.6095L455.403 58.5221C450.921 56.1849 450.929 56.1514 456.184 55.2242C458.522 54.8134 459.733 55.194 459.353 56.2218C458.983 57.2278 460.156 57.7241 462.323 57.4793C464.294 57.258 465.906 56.5605 465.906 55.9317C465.906 55.303 476.485 54.8905 489.413 55.0163C502.342 55.1437 512.92 55.8563 512.92 56.6024C512.921 57.3485 512.502 57.5245 511.99 56.9947C511.478 56.4632 510.732 56.9159 510.333 57.9974C509.796 59.4527 510.855 59.679 514.405 58.8625C517.043 58.2572 520.516 57.7609 522.123 57.7609C524.193 57.7609 524.824 57.1507 524.292 55.6652C523.744 54.1377 523.982 54.1679 525.169 55.7808C526.345 57.3804 527.328 57.5178 528.709 56.2788C529.867 55.2393 530.982 55.1706 531.537 56.1011C532.716 58.0778 540.23 53.8779 539.188 51.824C538.771 51.0008 539.242 51.373 540.236 52.6506C541.777 54.6324 541.998 54.6323 541.736 52.6472C541.496 50.8213 542.886 50.3703 548.17 50.5598C551.876 50.6939 555.166 50.1038 555.481 49.252C555.795 48.3986 555.013 47.6894 553.743 47.676C551.884 47.6542 551.726 47.3323 552.934 46.0245C554.098 44.7637 553.762 44.3428 551.433 44.145C548.881 43.9287 548.786 43.7778 550.798 43.139C552.099 42.7249 553.653 43.2061 554.249 44.2054C555.612 46.4906 557.264 46.5979 556.435 44.3479C556.079 43.3855 556.988 42.6712 558.567 42.6712C561.119 42.6712 561.185 42.8339 559.476 44.9297C558.198 46.4956 557.986 47.5553 558.784 48.3818C559.418 49.0391 559.936 48.6887 559.936 47.6039C559.936 46.4588 560.773 46.001 561.935 46.509C563.035 46.9919 564.187 46.7019 564.495 45.8669C564.803 45.0319 564.241 44.2724 563.246 44.1802C561.964 44.0628 562.165 43.6219 563.937 42.6712C565.739 41.7038 564.506 41.283 559.519 41.1623C552.196 40.9845 551.24 40.0322 556.971 38.6255C558.876 38.1577 562.259 37.1182 564.487 36.3185C566.716 35.517 569.529 34.9839 570.739 35.1331C572.068 35.2974 572.94 34.4423 572.94 32.9736C572.94 31.2852 573.703 30.7889 575.44 31.3456C577.064 31.8653 577.941 31.3875 577.941 29.9808C577.941 28.7887 576.928 27.4658 575.691 27.0383C574.453 26.6124 575.465 26.2184 577.941 26.1664C580.417 26.1128 589.645 25.5528 598.448 24.924C607.25 24.2936 614.228 24.1913 613.952 24.696C613.261 25.9636 603.186 27.7156 592.611 28.4064C587.75 28.7233 583.512 29.4225 583.192 29.959C582.872 30.4955 583.585 30.9348 584.776 30.9348C585.969 30.9348 586.944 31.8066 586.944 32.8713C586.944 33.9695 587.81 33.4933 588.945 31.7731C590.045 30.1048 590.945 29.5046 590.945 30.4419C590.945 31.3791 592.183 31.7865 593.696 31.3472C596.365 30.571 596.388 30.6263 594.446 33.22C592.567 35.73 592.793 35.854 598.198 35.2639C601.362 34.9201 603.949 35.3141 603.949 36.139C603.949 36.9656 602.936 37.7017 601.699 37.7738C600.461 37.8459 600.011 38.2868 600.698 38.7513C602.976 40.2921 601.996 42.4516 598.775 42.9848C594.817 43.6386 593.663 47.7011 597.435 47.7011C598.896 47.7011 600.705 48.7306 601.456 49.9881C602.378 51.5339 604.489 52.0537 607.971 51.5943C610.804 51.2187 612.878 51.5742 612.58 52.384C612.277 53.2039 613.988 53.3581 616.454 52.731C618.883 52.1124 621.44 52.1979 622.136 52.9188C622.833 53.6398 623.639 53.5928 623.93 52.8115C624.341 51.7033 632.422 50.1323 641.27 49.4415C641.715 49.4063 641.761 48.4355 641.373 47.282C640.818 45.6322 640.947 45.6204 641.979 47.2233C643.018 48.8362 643.564 48.6618 644.595 46.385C645.483 44.4267 645.909 44.2137 645.93 45.7177C645.952 47.2015 646.661 47.5553 648.088 46.7958C649.518 46.0346 649.991 46.2726 649.529 47.5217C649.153 48.5428 649.336 49.3778 649.936 49.3778C650.536 49.3778 651.285 48.2511 651.6 46.8729C651.916 45.4947 652.624 44.8341 653.177 45.4058C653.844 46.0966 653.84 46.7941 653.166 47.4916C652.609 48.0683 657.85 48.2796 664.813 47.9627C671.775 47.6441 677.247 47.738 676.972 48.1706C676.697 48.6032 671.52 49.4784 665.468 50.1172C654.847 51.2388 648.702 54.1662 656.016 54.6223C662.637 55.0347 674.526 54.5737 681.974 53.6146C686.1 53.0831 690.825 52.4795 692.476 52.2716C694.125 52.0621 696.237 50.8214 697.167 49.5102C699.02 46.9014 703.839 45.9625 704.613 48.0599C704.88 48.7842 706.253 49.3778 707.663 49.3778C709.766 49.3778 710.015 49.807 709.047 51.7603C708.079 53.7169 708.239 53.9818 709.94 53.2357C711.081 52.7361 712.272 51.6261 712.588 50.7711C712.922 49.8623 713.749 50.0333 714.573 51.1785C716.488 53.8426 716.367 51.9363 714.413 48.6585C712.983 46.2643 713.216 46.0245 716.972 46.0245C719.352 46.0245 720.853 45.3438 720.512 44.4166C720.151 43.4425 721.407 43.1759 723.704 43.7409C725.784 44.254 728.163 44.6144 728.988 44.544C737.413 43.8214 746.546 44.8089 747.172 46.509C747.712 47.9711 748.276 47.6961 749.232 45.5031C750.152 43.3972 752.206 42.3007 756.025 41.8799C759.035 41.5479 760.71 41.6451 759.748 42.0961C757.739 43.0384 757.38 45.9558 759.248 46.1637C759.936 46.2408 761.511 46.4923 762.749 46.722C763.986 46.9517 764.999 46.4671 764.999 45.6456C764.999 44.8224 765.45 44.6161 766 45.1862C766.55 45.7562 767 45.0453 767 43.6085C767 42.1716 766.592 40.9946 766.094 40.9946C765.595 40.9946 765.423 39.4856 765.71 37.6413C766.188 34.5781 765.232 33.433 762.749 34.0902C762.336 34.1992 762.069 33.723 762.157 33.0306C762.508 30.2541 760.753 26.1681 759.544 26.9461C758.835 27.4004 757.988 26.6074 757.662 25.1822C757.336 23.7571 757.39 22.7712 757.783 22.9909C758.176 23.2105 758.722 22.6354 758.997 21.7133C759.273 20.7911 758.083 19.8069 756.355 19.5253C753.969 19.1363 753.318 18.3282 753.653 16.172C753.964 14.1634 752.981 12.4951 750.294 10.4815L746.494 7.63457L749.995 7.41493L753.496 7.19698L750.745 5.51362C749.231 4.58644 747.994 3.26191 747.994 2.56778C747.994 1.87366 745.181 1.07893 741.742 0.800607C735.355 0.284203 703.957 -0.262375 703.65 0.138341ZM377.692 6.93038C378.413 7.41493 379.277 7.35457 379.609 6.79793C379.941 6.24128 379.351 5.84561 378.296 5.9177C377.131 5.99818 376.894 6.39554 377.692 6.93038ZM579.211 6.88511C578.533 7.34451 577.183 7.37302 576.21 6.94715C575.236 6.52129 575.791 6.14572 577.441 6.11219C579.092 6.07865 579.888 6.42572 579.211 6.88511ZM637.744 7.0159C635.148 7.35961 630.647 7.36296 627.741 7.0226C624.834 6.68392 626.956 6.40224 632.458 6.39721C637.96 6.39386 640.339 6.67051 637.744 7.0159ZM247.839 13.1507C247.839 13.5129 248.514 14.2439 249.339 14.7754C250.164 15.3052 250.84 15.0084 250.84 14.1164C250.84 13.2228 250.164 12.4918 249.339 12.4918C248.514 12.4918 247.839 12.7885 247.839 13.1507ZM245.745 14.8827C244.883 16.3296 236.835 16.9718 236.835 15.5936C236.835 14.8106 238.936 14.1684 241.504 14.1684C244.071 14.1684 245.98 14.4903 245.745 14.8827ZM265.844 17.7967C265.844 18.5679 264.832 19.2553 263.594 19.3274C262.355 19.3979 260.553 19.708 259.587 20.0182C258.622 20.3267 258.086 19.8925 258.396 19.0508C258.706 18.2091 258.483 17.5217 257.901 17.5217C257.319 17.5217 256.842 18.2762 256.842 19.1983C256.842 21.829 255.12 21.16 254.459 18.2728C253.957 16.0764 254.799 15.7277 259.853 16.0328C263.148 16.2324 265.844 17.0254 265.844 17.7967ZM233.231 21.155C232.948 21.9229 231.618 22.5516 230.274 22.5516C228.931 22.5516 227.833 21.9229 227.833 21.155C227.833 20.3854 229.163 19.7566 230.789 19.7566C232.416 19.7566 233.514 20.3854 233.231 21.155ZM245.276 24.0522C245.017 24.4881 244.307 24.0086 243.698 22.9892C243.091 21.9715 241.861 21.5272 240.965 22.0017C239.638 22.7075 239.598 22.5549 240.748 21.1868C242.124 19.5471 246.363 22.2297 245.276 24.0522ZM577.941 19.8589C577.941 21.0946 571.97 21.943 570.921 20.8565C570.336 20.2496 571.675 19.6342 573.899 19.4884C576.122 19.3425 577.941 19.5085 577.941 19.8589ZM622.389 21.0527C621.718 22.8735 619.249 23.0311 618.609 21.2941C618.354 20.6033 619.225 19.9277 620.543 19.7952C621.863 19.6628 622.693 20.2295 622.389 21.0527ZM696.478 20.9236C693.047 22.56 664.964 23.8929 664.967 22.4191C664.967 21.886 667.546 21.274 670.697 21.0611C673.848 20.8465 676.514 20.5296 676.62 20.3535C676.726 20.1792 681.914 19.9142 688.147 19.765C695.835 19.5806 698.514 19.9528 696.478 20.9236ZM528.926 23.5693C528.926 23.9315 528.251 24.2282 527.426 24.2282C526.6 24.2282 525.925 23.4972 525.925 22.6036C525.925 21.7116 526.6 21.4148 527.426 21.9447C528.251 22.4762 528.926 23.2072 528.926 23.5693ZM612.681 21.8876C612.349 22.4443 611.486 22.5047 610.764 22.0201C609.966 21.4853 610.203 21.0879 611.369 21.0074C612.423 20.9353 613.013 21.331 612.681 21.8876ZM616.682 21.8876C616.35 22.4443 615.487 22.5047 614.766 22.0201C613.967 21.4853 614.205 21.0879 615.37 21.0074C616.424 20.9353 617.014 21.331 616.682 21.8876ZM431.241 25.1386C430.915 26.5621 430.433 27.3669 430.171 26.9276C429.909 26.4883 429.991 25.3231 430.354 24.3406C431.341 21.6647 431.917 22.1844 431.241 25.1386ZM511.801 25.1453C512.051 25.5628 510.405 25.9049 508.146 25.9049C505.885 25.9049 503.758 26.6594 503.418 27.5815C503.078 28.5037 502.264 29.2464 501.609 29.233C500.892 29.2162 501.016 28.5573 501.918 27.5815C503.037 26.3693 502.402 25.8864 499.417 25.6785L495.416 25.4019L499.917 24.3674C504.467 23.3245 510.968 23.7487 511.801 25.1453ZM516.172 23.6615C515.485 24.1276 514.36 24.1276 513.671 23.6615C512.984 23.1971 513.546 22.8165 514.922 22.8165C516.297 22.8165 516.86 23.1971 516.172 23.6615ZM214.328 25.9049C213.988 26.827 212.724 27.5061 211.518 27.4138C209.478 27.2596 209.5 27.154 211.828 25.9049C213.203 25.1672 214.467 24.4881 214.637 24.3959C214.807 24.3037 214.668 24.9827 214.328 25.9049ZM220.83 25.9049C220.83 26.827 220.38 27.5815 219.83 27.5815C219.28 27.5815 218.83 26.827 218.83 25.9049C218.83 24.9827 219.28 24.2282 219.83 24.2282C220.38 24.2282 220.83 24.9827 220.83 25.9049ZM569.014 25.7909C567.196 27.7207 556.801 27.6251 557.516 25.6852C557.811 24.8838 560.84 24.24 564.246 24.2534C568.313 24.2701 569.95 24.7983 569.014 25.7909ZM694.657 25.3264C693.63 27.045 674.445 27.4373 672.876 25.7707C672.01 24.8519 676.042 24.2701 683.391 24.2534C689.947 24.24 695.017 24.7228 694.657 25.3264ZM213.844 29.7427L218.33 30.4569L213.406 30.2775C209.943 30.1501 208.363 29.3504 208.078 27.5815C207.799 25.8428 207.934 25.6785 208.517 27.0467C208.981 28.1365 211.377 29.3487 213.844 29.7427ZM203.351 30.6112C203.044 31.1276 202.237 30.6129 201.557 29.466C200.577 27.8095 200.692 27.6184 202.118 28.5271C203.104 29.1576 203.659 30.0948 203.351 30.6112ZM207.22 30.2373C207.593 31.8687 207.37 32.6366 206.639 32.2275C205.143 31.3925 204.32 27.5815 205.636 27.5815C206.173 27.5815 206.885 28.7769 207.22 30.2373ZM494.677 28.7334C493.721 29.1525 491.921 29.1676 490.676 28.7669C489.432 28.3662 490.214 28.0225 492.415 28.004C494.615 27.9856 495.634 28.3142 494.677 28.7334ZM578.942 30.9348C578.942 31.8569 579.617 32.6114 580.442 32.6114C581.267 32.6114 581.943 31.8569 581.943 30.9348C581.943 30.0126 581.267 29.2581 580.442 29.2581C579.617 29.2581 578.942 30.0126 578.942 30.9348ZM183.083 32.1151C181.852 32.5125 179.602 32.5226 178.081 32.1386C176.561 31.753 177.567 31.4277 180.318 31.4143C183.069 31.4026 184.313 31.7178 183.083 32.1151ZM215.558 33.6241C215.226 34.1807 214.362 34.2411 213.641 33.7566C212.843 33.2217 213.08 32.8244 214.245 32.7439C215.3 32.6718 215.89 33.0675 215.558 33.6241ZM447.901 35.0274C447.901 35.4349 447.451 36.2329 446.901 36.803C446.35 37.3731 445.9 37.0394 445.9 36.0636C445.9 35.0878 446.35 34.2881 446.901 34.2881C447.451 34.2881 447.901 34.62 447.901 35.0274ZM574.753 35.4332C575.474 35.9177 576.338 35.8574 576.67 35.3007C577.002 34.7441 576.412 34.3484 575.357 34.4205C574.192 34.501 573.955 34.8983 574.753 35.4332ZM578.755 35.4332C579.476 35.9177 580.339 35.8574 580.671 35.3007C581.003 34.7441 580.413 34.3484 579.359 34.4205C578.193 34.501 577.956 34.8983 578.755 35.4332ZM436.293 37.7453C436.601 38.2633 434.051 38.7144 430.624 38.7479C426.717 38.7865 425.326 38.3857 426.894 37.6748C429.822 36.347 435.484 36.3889 436.293 37.7453ZM750.72 38.2969C751.054 38.8586 747.315 39.2643 742.409 39.2006C736.838 39.1268 734.241 38.5752 735.49 37.7302C737.704 36.2346 749.757 36.684 750.72 38.2969ZM417.62 38.654C417.288 39.2106 416.425 39.271 415.704 38.7865C414.906 38.2516 415.143 37.8543 416.308 37.7738C417.362 37.7017 417.953 38.0974 417.62 38.654ZM732.989 38.3807C732.989 40.1496 731.07 40.894 730.499 39.3448C730.154 38.4075 730.573 37.6413 731.43 37.6413C732.287 37.6413 732.989 37.9733 732.989 38.3807ZM153.452 41.8329C152.627 43.2161 151.384 44.3479 150.689 44.3479C149.98 44.3479 150.277 43.2681 151.368 41.8866C153.916 38.6557 155.37 38.6188 153.452 41.8329ZM568.938 40.9426C568.938 41.8346 569.614 42.1314 570.439 41.6015C571.264 41.07 571.939 40.339 571.939 39.9769C571.939 39.6147 571.264 39.318 570.439 39.318C569.614 39.318 568.938 40.049 568.938 40.9426ZM147.308 42.6712C149.08 43.9488 148.995 44.1249 146.557 44.2305C145.045 44.2942 143.806 43.5934 143.806 42.6712C143.806 40.7029 144.576 40.7029 147.308 42.6712ZM418.161 42.0945C417.483 42.5539 416.133 42.5824 415.16 42.1565C414.186 41.7306 414.741 41.3551 416.391 41.3215C418.042 41.288 418.838 41.6351 418.161 42.0945ZM433.146 42.2068C431.358 42.579 428.433 42.579 426.644 42.2068C424.856 41.8363 426.319 41.5311 429.895 41.5311C433.471 41.5311 434.935 41.8363 433.146 42.2068ZM494.644 42.0073C494.312 42.5639 493.449 42.6243 492.728 42.1397C491.93 41.6049 492.167 41.2075 493.332 41.1271C494.386 41.055 494.977 41.4506 494.644 42.0073ZM502.918 44.3143C501.306 46.0966 504.435 46.6633 512.421 46.0346C514.622 45.8619 516.081 46.2978 515.664 47.0037C515.247 47.7095 511.74 48.1739 507.868 48.0381C502.612 47.852 500.988 48.3081 501.451 49.8405C501.792 50.9689 501.168 50.1792 500.065 48.0851C498.723 45.5332 497.829 44.9028 497.36 46.1754C496.975 47.2216 497.219 48.6568 497.904 49.3644C498.599 50.0836 497.218 50.6336 494.781 50.6084C492.38 50.585 491.242 50.2295 492.256 49.8187C493.268 49.408 494.852 47.8068 495.777 46.2576C496.7 44.71 499.023 43.2664 500.937 43.0485C503.526 42.7567 504.033 43.0803 502.918 44.3143ZM667.719 43.8264C666.757 44.2489 665.18 44.2489 664.218 43.8264C663.256 43.4056 664.043 43.0602 665.969 43.0602C667.894 43.0602 668.681 43.4056 667.719 43.8264ZM673.7 43.6839C673.368 44.2406 672.505 44.3009 671.783 43.8164C670.985 43.2815 671.222 42.8842 672.388 42.8037C673.442 42.7316 674.032 43.1273 673.7 43.6839ZM116.275 46.7019L118.981 49.0542L115.246 48.8765C113.191 48.7792 112.028 48.4103 112.66 48.0566C113.292 47.7045 113.555 46.7253 113.244 45.882C112.469 43.7778 113.113 43.9522 116.275 46.7019ZM279.578 45.3605C279.246 45.9172 278.382 45.9776 277.661 45.493C276.863 44.9582 277.1 44.5608 278.265 44.4803C279.32 44.4082 279.91 44.8039 279.578 45.3605ZM284.1 45.4578C283.413 45.9239 282.287 45.9239 281.599 45.4578C280.912 44.9934 281.474 44.6128 282.85 44.6128C284.225 44.6128 284.788 44.9934 284.1 45.4578ZM493.415 46.0245C493.075 46.9466 491.81 47.6257 490.605 47.5335C488.564 47.3792 488.587 47.2736 490.914 46.0245C492.29 45.2868 493.554 44.6077 493.724 44.5155C493.894 44.4233 493.755 45.1024 493.415 46.0245ZM520.924 46.0245C520.924 46.9466 520.446 47.7011 519.864 47.7011C519.282 47.7011 519.083 46.9466 519.423 46.0245C519.763 45.1024 520.239 44.3479 520.482 44.3479C520.726 44.3479 520.924 45.1024 520.924 46.0245ZM531.097 45.5617C528.713 46.0597 527.921 46.9399 528.314 48.6551C529.075 51.9799 527.911 51.6613 526.367 48.1236C525.664 46.5107 524.727 45.7965 524.286 46.5375C523.843 47.2769 524.145 48.5847 524.954 49.4432C525.763 50.3016 525.918 51.0142 525.297 51.0293C524.677 51.0427 523.645 49.9964 523.005 48.7021C521.513 45.6892 522.518 45.0923 529.288 44.9632C532.314 44.9062 533.057 45.1526 531.097 45.5617ZM538.179 45.4578C537.492 45.9239 536.366 45.9239 535.678 45.4578C534.991 44.9934 535.553 44.6128 536.929 44.6128C538.304 44.6128 538.867 44.9934 538.179 45.4578ZM564.809 47.1361C563.653 49.4851 563.651 50.0434 564.8 50.6922C565.952 51.3411 565.952 51.6865 564.8 52.9088C563.891 53.8745 564.666 54.3641 567.129 54.3825C569.16 54.3959 571.065 53.7471 571.362 52.9389C571.66 52.1308 575.175 51.6362 579.174 51.8408C583.173 52.0436 587.794 51.663 589.445 50.9924C592.764 49.646 592.932 49.6779 575.952 48.3835C571.831 48.0683 568.305 47.0322 568.116 46.0798C567.615 43.5598 566.376 43.9555 564.809 47.1361ZM588.945 45.9474C589.77 46.8846 591.307 47.6609 592.363 47.676C594.922 47.7095 594.123 46.7505 590.445 45.3706C588.253 44.5491 587.849 44.705 588.945 45.9474ZM480.911 47.7011C480.911 48.6233 480.434 49.3778 479.852 49.3778C479.27 49.3778 479.071 48.6233 479.411 47.7011C479.751 46.779 480.227 46.0245 480.47 46.0245C480.713 46.0245 480.911 46.779 480.911 47.7011ZM122.529 48.7138C122.197 49.2705 121.333 49.3308 120.612 48.8463C119.814 48.3114 120.051 47.9141 121.216 47.8336C122.271 47.7615 122.861 48.1572 122.529 48.7138ZM126.801 49.3778C126.801 50.2999 127.251 51.0544 127.801 51.0544C128.352 51.0544 128.802 50.2999 128.802 49.3778C128.802 48.4556 128.352 47.7011 127.801 47.7011C127.251 47.7011 126.801 48.4556 126.801 49.3778ZM315.129 48.801C314.451 49.2604 313.101 49.2889 312.128 48.863C311.154 48.4372 311.709 48.0616 313.359 48.0281C315.01 47.9945 315.806 48.3416 315.129 48.801ZM561.436 49.3778C561.776 50.2999 562.252 51.0544 562.495 51.0544C562.739 51.0544 562.937 50.2999 562.937 49.3778C562.937 48.4556 562.459 47.7011 561.877 47.7011C561.295 47.7011 561.096 48.4556 561.436 49.3778ZM617.203 48.8848C615.966 49.2839 613.939 49.2839 612.702 48.8848C611.465 48.4841 612.477 48.1572 614.953 48.1572C617.429 48.1572 618.441 48.4841 617.203 48.8848ZM686.225 48.8848C684.988 49.2839 682.961 49.2839 681.723 48.8848C680.486 48.4841 681.498 48.1572 683.974 48.1572C686.45 48.1572 687.462 48.4841 686.225 48.8848ZM91.1541 51.8827C90.838 53.2609 90.1298 53.9215 89.5776 53.3497C88.9614 52.7109 89.0985 51.7569 89.9327 50.87C91.7543 48.9368 91.8163 48.9871 91.1541 51.8827ZM489.414 51.0544C489.074 51.9766 488.372 52.731 487.854 52.731C487.336 52.731 486.913 51.9766 486.913 51.0544C486.913 50.1323 487.615 49.3778 488.473 49.3778C489.33 49.3778 489.754 50.1323 489.414 51.0544ZM534.678 50.533C533.716 50.9555 532.139 50.9555 531.177 50.533C530.214 50.1121 531.002 49.7668 532.927 49.7668C534.853 49.7668 535.64 50.1121 534.678 50.533ZM288.613 52.2062C287.657 52.6254 285.857 52.6405 284.612 52.2398C283.368 51.8391 284.15 51.4954 286.351 51.4769C288.551 51.4585 289.57 51.7871 288.613 52.2062ZM452.311 53.4C451.261 54.6072 448.826 55.3935 446.901 55.1454C444.975 54.8989 442.135 54.6307 440.59 54.5519C439.044 54.4731 437.992 53.841 438.252 53.1502C438.512 52.4594 442.211 51.7385 446.472 51.549C453.127 51.2522 453.951 51.5138 452.311 53.4ZM556.935 52.731C556.935 53.6532 557.358 54.4077 557.876 54.4077C558.394 54.4077 559.095 53.6532 559.436 52.731C559.776 51.8089 559.352 51.0544 558.494 51.0544C557.637 51.0544 556.935 51.8089 556.935 52.731ZM697.791 52.1995C698.513 52.6841 699.376 52.6237 699.708 52.0671C700.04 51.5104 699.45 51.1148 698.396 51.1869C697.23 51.2673 696.993 51.6647 697.791 52.1995ZM762.999 52.731C762.999 53.6532 763.926 54.4077 765.058 54.4077C766.191 54.4077 766.84 53.6532 766.5 52.731C766.16 51.8089 765.233 51.0544 764.44 51.0544C763.647 51.0544 762.999 51.8089 762.999 52.731ZM84.2349 54.2652C84.546 55.1085 84.235 56.1363 83.5437 56.5504C82.8525 56.9629 82.6494 57.9487 83.0916 58.7401C83.5347 59.5315 84.315 59.0687 84.8271 57.7123C86.0595 54.4462 86.0255 52.731 84.7291 52.731C84.1469 52.731 83.9238 53.4218 84.2349 54.2652ZM128.578 53.9684C131.56 54.3171 133.601 55.2762 133.27 56.1732C132.948 57.0467 134.174 57.7878 135.995 57.8213C137.816 57.8548 146.115 58.3193 154.439 58.8558C164.545 59.508 170.194 59.2263 171.444 58.0091C172.852 56.6376 169.522 56.1732 158.002 56.1346C148.055 56.1028 142.905 55.4975 143.306 54.4077C143.705 53.3246 140.277 52.84 133.612 53.0412C127.911 53.2122 125.66 53.628 128.578 53.9684ZM352.6 53.7437C352.268 54.3004 351.405 54.3607 350.684 53.8762C349.885 53.3413 350.123 52.944 351.288 52.8635C352.342 52.7914 352.932 53.1871 352.6 53.7437ZM589.854 54.5368C588.829 55.6266 589.194 56.0407 591.195 56.0592C594.182 56.086 594.72 55.2644 592.605 53.9047C591.868 53.4302 590.629 53.7152 589.854 54.5368ZM604.95 54.3356C600.15 55.6132 602.468 57.2982 607.45 56.1547C609.651 55.6484 610.776 54.8235 609.951 54.3188C609.126 53.8158 606.875 53.8225 604.95 54.3356ZM638.46 54.2165L635.459 55.4053L638.354 56.3962C639.947 56.9427 642.543 56.7667 644.125 56.0055C645.874 55.1655 646.775 55.2376 646.423 56.1916C646.085 57.1071 648.268 57.6654 651.655 57.5329C654.851 57.4072 656.341 56.9578 654.965 56.5336C653.59 56.1095 652.014 55.2074 651.464 54.5284C650.147 52.9021 642.253 52.7126 638.46 54.2165ZM753.246 53.8862C754.208 54.3088 755.784 54.3088 756.747 53.8862C757.709 53.4654 756.922 53.12 754.996 53.12C753.071 53.12 752.283 53.4654 753.246 53.8862ZM67.5958 55.5528C68.317 56.0374 69.1803 55.977 69.5124 55.4204C69.8445 54.8637 69.2543 54.468 68.2 54.5401C67.0346 54.6206 66.7975 55.018 67.5958 55.5528ZM140.567 55.5595C139.611 55.9787 137.811 55.9938 136.566 55.5931C135.322 55.1923 136.104 54.8486 138.305 54.8302C140.505 54.8117 141.524 55.1404 140.567 55.5595ZM424.162 55.5075C423.485 55.9669 422.135 55.9955 421.162 55.5696C420.188 55.1437 420.742 54.7682 422.393 54.7346C424.043 54.7011 424.84 55.0481 424.162 55.5075ZM435.626 55.4204C435.294 55.977 434.431 56.0374 433.709 55.5528C432.911 55.018 433.148 54.6206 434.314 54.5401C435.368 54.468 435.958 54.8637 435.626 55.4204ZM574.194 56.3861C573.048 57.1305 573.653 57.5245 575.941 57.5245C577.866 57.5245 580.342 56.8992 581.442 56.1329C582.959 55.0767 582.536 54.8 579.696 54.9928C577.634 55.132 575.158 55.759 574.194 56.3861ZM712.733 55.5176C713.421 55.9837 714.547 55.9837 715.234 55.5176C715.922 55.0532 715.359 54.6726 713.984 54.6726C712.608 54.6726 712.046 55.0532 712.733 55.5176ZM50.1744 58.0409C49.8913 58.8088 48.984 59.4376 48.1587 59.4376C47.3335 59.4376 46.8904 58.8088 47.1734 58.0409C47.4565 57.2714 48.3638 56.6426 49.1891 56.6426C50.0143 56.6426 50.4575 57.2714 50.1744 58.0409ZM319.13 57.2462C320.103 57.6721 321.454 57.6436 322.131 57.1842C322.808 56.7248 322.012 56.3777 320.361 56.4113C318.711 56.4448 318.157 56.8204 319.13 57.2462ZM336.679 57.2295C337.401 57.714 338.264 57.6536 338.596 57.097C338.928 56.5404 338.338 56.1447 337.284 56.2168C336.118 56.2973 335.881 56.6946 336.679 57.2295ZM45.776 58.7803C45.776 60.1669 43.8334 60.9516 43.3883 59.7444C43.0992 58.9614 43.5183 58.3193 44.3196 58.3193C45.1208 58.3193 45.776 58.5272 45.776 58.7803ZM58.2799 59.4376C57.9398 60.3597 58.1388 61.1142 58.721 61.1142C59.3032 61.1142 59.7804 60.3597 59.7804 59.4376C59.7804 58.5154 59.5823 57.7609 59.3392 57.7609C59.0961 57.7609 58.62 58.5154 58.2799 59.4376ZM177.317 59.4376C177.657 60.3597 177.458 61.1142 176.876 61.1142C176.294 61.1142 175.816 60.3597 175.816 59.4376C175.816 58.5154 176.014 57.7609 176.258 57.7609C176.501 57.7609 176.977 58.5154 177.317 59.4376ZM390.133 58.9732C388.344 59.3454 385.419 59.3454 383.631 58.9732C381.842 58.6026 383.306 58.2975 386.882 58.2975C390.458 58.2975 391.921 58.6026 390.133 58.9732ZM670.97 59.2012C670.97 61.302 673.223 63.8974 674.721 63.5219C675.41 63.3508 676.76 63.0927 677.722 62.9501C679.202 62.7288 679.241 62.4723 677.972 61.2903C675.457 58.943 670.97 57.605 670.97 59.2012ZM679.973 61.1142C679.973 62.0364 680.423 62.7909 680.973 62.7909C681.523 62.7909 681.974 62.0364 681.974 61.1142C681.974 60.1921 681.523 59.4376 680.973 59.4376C680.423 59.4376 679.973 60.1921 679.973 61.1142ZM697.228 60.5928C698.191 61.0153 699.767 61.0153 700.729 60.5928C701.692 60.172 700.904 59.8266 698.979 59.8266C697.053 59.8266 696.266 60.172 697.228 60.5928ZM639.961 62.4773C639.961 63.2268 642.099 63.9964 644.712 64.1858C648.171 64.4373 649.055 64.0735 647.963 62.8479C646.164 60.8309 639.961 60.5442 639.961 62.4773ZM669.893 61.5334C669.101 65.8742 669.503 67.1635 671.746 67.4754C674.224 67.8191 674.241 67.747 672.473 64.4708C670.776 61.3305 670.076 60.5324 669.893 61.5334ZM68.5961 63.936C69.3173 64.4205 70.1806 64.3602 70.5127 63.8035C70.8448 63.2469 70.2546 62.8512 69.2003 62.9233C68.0349 63.0038 67.7978 63.4011 68.5961 63.936ZM73.0345 63.9461C73.9968 64.3686 75.5733 64.3686 76.5356 63.9461C77.4979 63.5252 76.7106 63.1798 74.785 63.1798C72.8594 63.1798 72.0722 63.5252 73.0345 63.9461ZM493.422 64.449C493.072 65.398 493.473 65.6797 494.363 65.108C496.096 63.993 496.413 62.7909 494.975 62.7909C494.456 62.7909 493.758 63.537 493.422 64.449ZM620.955 64.5664C620.955 65.5422 621.405 65.8759 621.955 65.3058C622.505 64.7358 622.955 63.9377 622.955 63.5303C622.955 63.1228 622.505 62.7909 621.955 62.7909C621.405 62.7909 620.955 63.5906 620.955 64.5664ZM738.201 64.7693C737.26 65.3963 740.504 65.9614 745.41 66.0268C750.316 66.0905 754.033 65.6478 753.671 65.0409C752.785 63.5537 740.351 63.3358 738.201 64.7693ZM757.497 64.4675L754.496 65.7468L757.688 65.9463C759.444 66.0553 761.158 65.3896 761.498 64.4675C762.182 62.6115 761.847 62.6115 757.497 64.4675ZM413.64 65.5774C414.328 66.0435 415.454 66.0435 416.141 65.5774C416.829 65.113 416.266 64.7324 414.891 64.7324C413.515 64.7324 412.953 65.113 413.64 65.5774ZM459.566 65.5925C459.083 66.4023 449.696 68.0186 442.422 68.5434C438.558 68.8217 432.696 69.2509 429.395 69.4974L423.393 69.9451L428.395 71.2512C435.779 73.1793 457.793 73.0368 462.405 71.0315C464.606 70.0742 466.927 69.2124 467.562 69.1151C468.197 69.0179 468.48 67.908 468.192 66.6471C467.849 65.1482 466.314 64.4893 463.756 64.7425C461.604 64.9554 459.719 65.3377 459.566 65.5925ZM609.451 66.0201C606.686 67.1233 606.825 67.2759 611.216 67.9532C615.077 68.5484 620.895 67.1618 618.954 66.1089C617.031 65.0644 611.96 65.0174 609.451 66.0201ZM634.772 65.6126C635.493 66.0972 636.356 66.0368 636.689 65.4802C637.021 64.9235 636.43 64.5279 635.376 64.5999C634.211 64.6804 633.974 65.0778 634.772 65.6126ZM382.13 67.2993C383.093 67.7218 384.669 67.7218 385.632 67.2993C386.594 66.8785 385.807 66.5331 383.881 66.5331C381.955 66.5331 381.168 66.8785 382.13 67.2993ZM554.934 67.8208C553.715 69.142 553.844 69.4505 555.625 69.4722C556.831 69.4857 558.095 68.7429 558.435 67.8208C559.222 65.6864 556.905 65.6864 554.934 67.8208ZM562.812 67.9851C561.887 68.9676 562.667 69.4538 565.187 69.4722C567.251 69.4857 568.938 68.9307 568.937 68.2399C568.936 66.4392 564.444 66.2531 562.812 67.9851ZM641.961 67.0126C641.961 68.369 644.828 68.9961 645.909 67.8744C646.72 67.0361 646.236 66.5633 644.569 66.5633C643.135 66.5633 641.961 66.7662 641.961 67.0126ZM190.09 68.9827C191.063 69.4085 192.414 69.38 193.091 68.9206C193.768 68.4612 192.972 68.1142 191.321 68.1477C189.671 68.1812 189.117 68.5568 190.09 68.9827ZM199.824 69.8092C197.898 70.6241 193.243 71.5865 189.479 71.9453C185.714 72.3058 182.405 72.9848 182.124 73.4559C180.797 75.6808 190.453 76.5225 204.666 75.4193C227.068 73.6806 235.645 73.5146 241.337 74.7067C244.088 75.2835 246.487 75.1074 246.669 74.3161C246.851 73.5213 247.748 73.5163 248.67 74.3026C249.588 75.0856 252.59 75.1812 255.341 74.5139L260.343 73.2983L254.841 73.0519C248.469 72.7652 244.657 71.345 245.334 69.5075C245.594 68.8016 241.464 68.1008 236.155 67.9499C229.205 67.7537 226.274 68.2835 225.683 69.8445C225.015 71.61 224.86 71.6049 224.847 69.8176C224.838 68.5082 224.334 68.1376 223.599 68.9005C221.948 70.6107 218.83 70.9225 218.83 69.3767C218.83 67.6632 204.102 67.9985 199.824 69.8092ZM256.591 69.0045C257.83 69.4035 259.854 69.4035 261.093 69.0045C262.331 68.6038 261.318 68.2768 258.842 68.2768C256.366 68.2768 255.353 68.6038 256.591 69.0045ZM512.171 68.976C513.133 69.3985 514.71 69.3985 515.672 68.976C516.634 68.5551 515.847 68.2097 513.921 68.2097C511.996 68.2097 511.209 68.5551 512.171 68.976ZM550.746 68.9659C551.467 69.4505 552.33 69.3901 552.662 68.8334C552.995 68.2768 552.404 67.8811 551.35 67.9532C550.185 68.0337 549.948 68.4311 550.746 68.9659ZM54.0286 70.6526C54.9919 71.0751 56.5664 71.0751 57.5297 70.6526C58.493 70.2318 57.7047 69.8864 55.7791 69.8864C53.8535 69.8864 53.0653 70.2318 54.0286 70.6526ZM237.836 71.2512C238.931 72.4935 238.527 72.6495 236.335 71.8279C232.657 70.448 231.859 69.489 234.418 69.5225C235.472 69.5376 237.01 70.3139 237.836 71.2512ZM380.88 71.4658C380.88 73.2615 399.767 73.0468 402.387 71.221C403.598 70.376 399.749 69.8763 392.634 69.9534C386.17 70.0239 380.88 70.7029 380.88 71.4658ZM420.705 70.6425C421.427 71.1271 422.29 71.0667 422.622 70.5101C422.954 69.9534 422.364 69.5578 421.31 69.6299C420.144 69.7103 419.907 70.1077 420.705 70.6425ZM104.294 72.8507C103.954 73.7728 104.603 74.5273 105.736 74.5273C106.868 74.5273 107.795 73.7728 107.795 72.8507C107.795 71.9285 107.147 71.174 106.354 71.174C105.561 71.174 104.634 71.9285 104.294 72.8507ZM117.35 72.7098C117.102 73.3822 114.996 73.6789 112.669 73.3704C110.341 73.0619 108.711 73.2665 109.045 73.8265C110.112 75.6154 123.076 76.6332 122.429 74.8777C121.641 72.7383 117.924 71.1522 117.35 72.7098ZM171.315 72.8926C168.912 73.8835 169.493 74.1702 174.233 74.3295C177.488 74.4385 179.964 74.2557 179.735 73.9254C178.644 72.3494 174.009 71.781 171.315 72.8926ZM95.0603 74.0126C96.0336 74.4384 97.384 74.4099 98.0613 73.9505C98.7385 73.4911 97.9422 73.1441 96.2917 73.1776C94.6412 73.2111 94.087 73.5867 95.0603 74.0126ZM52.5911 75.6724C53.3123 76.157 54.1756 76.0966 54.5077 75.54C54.8398 74.9833 54.2496 74.5877 53.1953 74.6598C52.03 74.7402 51.7929 75.1376 52.5911 75.6724ZM124.55 75.6372C125.239 76.1033 126.364 76.1033 127.051 75.6372C127.739 75.1728 127.176 74.7922 125.801 74.7922C124.425 74.7922 123.863 75.1728 124.55 75.6372Z" fill="#FBF333"/>
</svg>
