<svg width="445" height="98" viewBox="0 0 445 98" fill="none" xmlns="http://www.w3.org/2000/svg">
<path fill-rule="evenodd" clip-rule="evenodd" d="M428.936 23.6155C428.213 23.8598 427.546 23.7036 427.451 23.2691C427.356 22.8346 427.097 22.812 426.874 23.2185C426.338 24.1992 424.426 23.4467 424.63 22.334C424.717 21.8558 424.231 21.4383 423.551 21.4068C422.729 21.3685 422.383 21.6652 422.519 22.2915C422.639 22.8432 421.841 23.0878 420.592 22.8816C419.215 22.6537 418.582 22.1588 418.808 21.4864C419.232 20.2236 418.01 19.3885 417.392 20.5187C417.151 20.9593 417.109 21.6621 417.298 22.0812C417.568 22.6773 417.505 22.7857 417.005 22.5828C416.654 22.4397 416.553 21.7155 416.781 20.9726C417.019 20.1946 416.71 19.5987 416.053 19.5676C415.424 19.5383 414.844 19.8774 414.763 20.3215C414.536 21.5697 413.218 21.4168 410.896 19.8714C409.194 18.7397 408.623 18.7422 408.007 19.8834C407.405 20.9974 407.463 21.0995 408.272 20.3566C409.085 19.6101 409.191 19.7816 408.768 21.1616C408.472 22.1261 408.234 22.5476 408.238 22.0988C408.241 21.6501 407.445 21.7414 406.468 22.3016C405.491 22.8621 405.083 22.9413 405.562 22.4787C406.8 21.2834 407.506 18.614 406.701 18.1734C406.326 17.9686 405.944 18.2173 405.851 18.7253C405.759 19.2344 405.229 19.7046 404.674 19.7723C404.047 19.8483 403.982 19.6003 404.502 19.1159C405.05 18.604 404.786 18.4972 403.734 18.8051C401.995 19.3124 399.466 18.9057 397.421 17.7912C396.712 17.4043 395.951 17.4185 395.73 17.8215C395.51 18.2253 395.019 18.1183 394.64 17.583C394.261 17.0485 393.487 16.8344 392.921 17.1075C392.356 17.3795 390.935 16.9841 389.765 16.2274C388.432 15.3658 387.566 15.2398 387.447 15.8913C387.328 16.546 386.758 16.4465 385.907 15.6237C384.535 14.2951 378.665 13.3838 376.252 14.125C375.523 14.3488 374.65 14.0665 374.312 13.4979C373.974 12.9295 373.482 12.8581 373.219 13.3388C372.956 13.8204 372.31 13.748 371.785 13.1771C371.179 12.5184 370.606 12.5436 370.217 13.2458C369.794 14.0061 369.684 13.8642 369.865 12.7923C370.031 11.8057 369.911 11.6229 369.538 12.2943C369.214 12.8779 368.756 12.9557 368.52 12.468C368.285 11.9795 367.89 11.9499 367.643 12.4018C367.397 12.8528 364.69 12.7912 361.63 12.2636C358.57 11.736 355.933 11.5477 355.771 11.8449C355.608 12.1421 355.076 12.2382 354.588 12.059C354.101 11.8797 352.144 11.6514 350.241 11.5521C348.339 11.4519 346.601 10.9958 346.381 10.5393C346.16 10.0824 345.784 10.0673 345.543 10.507C345.071 11.3714 342.667 9.96085 342.383 8.6517C342.287 8.21191 341.93 8.11208 341.589 8.42969C341.248 8.74756 340.133 8.67709 339.11 8.27438C338.087 7.87079 336.742 7.66457 336.121 7.81649C335.5 7.96754 334.212 7.76294 333.26 7.36137C332.308 6.9598 329.224 6.58542 326.409 6.52884C323.594 6.47226 320.302 6.22815 319.095 5.98686C316.794 5.5256 311.8 5.32914 302.11 5.31614C300.604 5.3138 298.923 5.52975 298.374 5.79512C297.825 6.06025 297.299 5.92857 297.206 5.50188C297.114 5.07431 296.633 5.10228 296.139 5.56319C295.536 6.12505 295.574 6.2772 296.252 6.02465C296.964 5.76029 296.972 5.99287 296.279 6.81037C295.701 7.49145 295.558 8.11693 295.931 8.32119C296.282 8.51315 296.62 8.39937 296.683 8.06906C296.745 7.73964 297.65 7.85883 298.694 8.33664C299.738 8.81331 300.533 9.31353 300.459 9.44814C300.386 9.58187 297.564 9.60699 294.189 9.5029C290.813 9.39881 287.821 9.48514 287.539 9.69437C286.281 10.6281 283.134 8.57554 283.34 6.95767C283.533 5.43991 283.162 5.29936 279.48 5.4968C275.79 5.69529 274.768 5.60573 272.624 4.89307C272.253 4.7706 271.866 5.12892 271.763 5.69053C271.657 6.27497 271.388 6.31905 271.134 5.79289C270.546 4.57215 271.342 3.20208 272.327 3.74028C272.756 3.97504 273.11 3.86658 273.113 3.49921C273.116 3.13096 272.514 2.85137 271.774 2.87629C270.776 2.91058 270.23 3.44328 269.655 4.9431C268.929 6.8332 268.894 6.83997 269.109 5.03543C269.263 3.74985 269.056 3.3713 268.489 3.90013C267.872 4.47464 267.61 4.31216 267.536 3.30788C267.464 2.31202 267.284 2.19891 266.898 2.9043C266.603 3.44361 266.033 3.70511 265.631 3.48547C265.171 3.23406 264.809 3.56188 264.655 4.37101C264.502 5.17387 264.356 5.01592 264.267 3.94779C264.149 2.53895 263.946 2.40624 263.103 3.19285C262.54 3.71658 261.875 3.7193 261.624 3.19833C261.372 2.6771 260.984 2.58522 260.76 2.99429C260.239 3.9488 255.045 3.64994 254.828 2.65165C254.738 2.23641 254.443 2.30005 254.172 2.79479C253.902 3.28865 253.506 3.32719 253.29 2.88134C253.075 2.43549 252.327 2.42501 251.628 2.85922C249.85 3.9638 247.07 3.03839 248.394 1.78344C249.191 1.02824 249.128 0.980318 248.071 1.53764C247.349 1.91833 246.761 1.89553 246.765 1.48633C246.768 1.07714 246.574 1.10268 246.332 1.54296C246.091 1.98437 245.187 2.00914 244.323 1.59985C242.748 0.852532 239.233 0.686756 223.401 0.612853C218.725 0.591286 213.757 0.517946 212.361 0.449589C210.965 0.381232 209.743 0.763303 209.645 1.29809C209.547 1.83489 209.264 1.84929 209.015 1.33021C208.761 0.804311 207.739 0.878034 206.698 1.49606C205.673 2.1041 204.804 2.45798 204.768 2.28174C204.733 2.1055 204.52 1.92106 204.296 1.87028C204.073 1.8195 203.574 1.52308 203.189 1.21042C202.803 0.898381 202.13 0.976384 201.692 1.3844C201.206 1.83723 201.332 2.11128 202.014 2.08927C203.017 2.05641 202.991 2.12935 201.751 2.8093C200.991 3.22627 200.203 4.06711 199.999 4.67901C199.796 5.2909 199.244 5.93496 198.773 6.11012C198.289 6.2894 198.235 5.93648 198.65 5.29471C200.138 2.99171 200.931 1.03489 200.475 0.785776C200.217 0.644818 199.684 1.1195 199.29 1.84062C198.895 2.56174 198.207 2.94368 197.76 2.69014C197.065 2.29537 197.117 2.16028 198.113 1.76509C200.325 0.887397 198.197 0.610779 194.025 1.23301C191.782 1.56761 189.667 1.68829 189.325 1.5012C188.982 1.31386 188.507 1.51748 188.269 1.95278C188.031 2.38895 187.502 2.27496 187.095 1.70004C186.591 0.988414 186.284 1.03321 186.138 1.83765C185.997 2.60674 185.765 2.6968 185.475 2.09527C185.23 1.58554 184.45 1.48339 183.742 1.86725C183.034 2.25024 182.636 2.21767 182.857 1.7935C183.078 1.37045 182.532 1.6179 181.643 2.34347C180.754 3.07017 180.165 3.4121 180.333 3.10443C180.502 2.79675 179.517 2.72832 178.145 2.95152C176.774 3.17471 174.113 3.1561 172.233 2.90803C169.629 2.56622 168.64 2.81665 168.082 3.9593C167.552 5.0436 167.325 5.12807 167.261 4.26445C167.201 3.44723 166.82 3.29877 166.06 3.79487C165.447 4.19459 165.123 4.19799 165.339 3.80291C165.556 3.40695 165.149 3.40003 164.434 3.78734C163.72 4.17465 163.296 4.19833 163.492 3.83995C163.688 3.48158 163.281 3.49639 162.588 3.87238C161.895 4.24749 161.216 4.11202 161.078 3.57142C160.941 3.0297 160.809 3.01533 160.784 3.53784C160.76 4.06062 160.034 4.69462 159.171 4.94679C158.146 5.24583 157.67 5.71787 157.798 6.30924C157.907 6.80568 158.246 6.75397 158.552 6.19368C158.859 5.63339 159.293 5.55405 159.517 6.01921C159.741 6.48349 160.446 6.46474 161.083 5.97887C161.73 5.48545 162.565 5.54899 162.971 6.12202C163.436 6.7782 163.772 6.75207 163.9 6.05092C164.029 5.3469 164.367 5.32744 164.842 5.99831C165.38 6.7569 165.648 6.68796 165.82 5.7465C166.003 4.74486 166.153 4.77349 166.476 5.87229C166.761 6.84105 167.204 7.09567 167.861 6.66692C168.518 6.23816 168.682 6.50862 168.375 7.51104C168.051 8.56805 167.793 8.71548 167.463 8.03086C167.174 7.43374 166.927 7.49248 166.8 8.18823C166.669 8.90279 166.305 8.9398 165.778 8.29136C165.108 7.46779 164.989 7.53232 165.127 8.64432C165.26 9.70802 165.071 9.71377 164.261 8.67125C163.532 7.73097 163.162 7.68326 163.012 8.50826C162.874 9.26193 162.64 9.3521 162.355 8.7613C162.112 8.25573 161.681 8.26564 161.398 8.7831C161.116 9.29968 160.692 9.32336 160.456 8.83571C160.221 8.34693 159.768 8.42506 159.448 9.00895C159.12 9.60857 158.676 9.67071 158.426 9.15138C158.182 8.64668 157.918 8.58881 157.839 9.02344C157.759 9.45807 156.725 10.1347 155.541 10.526C154.053 11.017 153.451 10.8876 153.593 10.106C153.725 9.38002 153.88 9.3479 154.026 10.018C154.177 10.7128 154.326 10.6579 154.473 9.85147C154.594 9.18656 154.368 8.76421 153.97 8.91214C153.572 9.06007 153.175 9.57516 153.086 10.058C152.998 10.5403 152.153 10.8479 151.206 10.7426C150.261 10.6367 149.118 10.894 148.667 11.3147C148.12 11.8243 148.366 12.1122 149.406 12.1776C151.069 12.2821 150.711 14.0209 148.983 14.2298C148.445 14.2955 147.718 14.8733 147.367 15.5149C147.016 16.1565 146.332 16.8282 145.847 17.0081C145.252 17.2298 145.31 17.006 146.023 16.321C146.606 15.7619 146.158 15.8211 145.028 16.4523C143.805 17.1349 143.428 17.1588 144.095 16.51C145.083 15.551 145.033 15.5173 143.681 16.2334C142.836 16.6809 141.814 16.9679 141.409 16.8725C139.694 16.4649 130.223 17.3029 129.536 17.9229C129.077 18.3372 128.866 18.156 128.993 17.4571C129.108 16.8285 129.481 16.4591 129.823 16.6366C130.279 16.8724 130.39 16.612 130.243 15.6559C130.087 14.6513 130.223 14.6277 130.833 15.5506C131.333 16.3068 131.695 16.3617 131.816 15.6999C131.929 15.0792 132.271 15.0254 132.656 15.5688C133.446 16.6831 135.16 15.2826 134.551 14.0198C134.21 13.3132 134.371 12.9438 135.307 12.2893C136.599 11.3847 137.219 12.2436 136.056 13.3277C135.663 13.6942 135.577 14.123 135.865 14.2806C136.153 14.4382 135.99 14.9394 135.503 15.394C134.982 15.879 134.951 16.0957 135.427 15.9191C135.873 15.753 136.539 14.8192 136.907 13.8442C137.462 12.3743 138.108 12.0993 140.674 12.2399C143.319 12.3839 143.653 12.233 142.966 11.2057L142.162 10.0018L143.389 10.542C144.064 10.8393 145.157 10.8444 145.818 10.5532C147.436 9.84117 143.918 9.28147 140.831 9.7598C139.586 9.95334 138.569 9.86268 138.572 9.55887C138.574 9.25593 140.002 8.75702 141.746 8.45005C143.59 8.12646 144.999 7.43454 145.115 6.79645C145.252 6.04905 144.782 5.90718 143.647 6.34885C140.922 7.41054 136.362 7.80448 136.836 6.93739C137.078 6.49597 137.743 6.15687 138.314 6.18314C139.007 6.21589 138.977 5.99386 138.223 5.51455C137.602 5.1202 134.647 5.01236 131.656 5.27569C128.666 5.53903 125.627 5.71102 124.903 5.65772C124.178 5.60353 123.396 5.90796 123.164 6.33277C122.932 6.7567 122.622 6.94829 122.475 6.75766C122.047 6.20275 114.186 8.00698 112.283 9.09678C111.238 9.69493 110.967 9.68861 111.6 9.08098C112.318 8.39237 111.901 8.3326 110.286 8.89168C108.987 9.34136 107.754 10.0184 107.547 10.396C107.341 10.7727 106.961 10.9654 106.702 10.8237C106.442 10.682 104.659 10.9375 102.737 11.3925C100.582 11.9022 99.4538 11.8293 99.7918 11.2011C100.093 10.6414 99.5348 11.0209 98.5519 12.0446C97.5685 13.0681 96.556 13.7998 96.3018 13.6699C96.0477 13.5412 95.415 13.5994 94.895 13.801C94.3754 14.0018 93.0639 13.925 91.9798 13.6297C90.896 13.3346 89.3991 13.4289 88.6518 13.8401C87.5315 14.4572 81.4693 15.5093 80.5407 15.2479C79.7173 15.0156 71.5235 17.1935 63.8362 19.6868C54.2223 22.8049 47.697 25.9824 47.1339 27.8194C46.9375 28.4602 46.2156 29.2895 45.5304 29.6608C44.8442 30.0327 43.8795 31.0755 43.3863 31.9775C42.5121 33.5762 42.6908 33.9431 45.1092 35.5073C45.9353 36.0419 45.9689 36.7188 45.2357 38.0597C44.6865 39.064 44.1699 40.697 44.0865 41.6891C43.9492 43.332 43.4971 43.7479 42.7098 42.9574C42.5473 42.7948 42.1996 43.0554 41.9367 43.5362C41.3618 44.5877 41.8224 44.9043 43.1675 44.3851C43.714 44.1741 44.3819 43.2733 44.6566 42.3778C44.9464 41.4326 45.3831 40.8789 45.7009 41.0527C46.0013 41.2169 45.9257 41.6513 45.5329 42.0179C45.1396 42.3842 44.9024 43.0697 45.0049 43.5413C45.1256 44.0967 44.698 44.6293 43.7882 45.0549C42.792 45.5207 42.0595 46.4884 41.2619 48.3902C40.2008 50.921 39.8249 51.1719 34.457 52.9352C22.1162 56.9897 20.6354 57.6402 16.1714 60.9638C13.6291 62.8574 11.4838 64.1051 11.4035 63.7376C11.1208 62.4373 6.16121 67.4112 3.61329 71.5498C1.47523 75.0223 1.1924 75.7578 1.85561 76.1205C2.2901 76.3581 2.36972 76.8104 2.03194 77.1252C1.69415 77.4401 1.56357 78.3827 1.74128 79.2201C2.01824 80.5274 2.13848 80.5046 2.58909 79.0592C3.0281 77.6495 3.13336 77.6162 3.23718 78.8527C3.30492 79.6652 3.6125 80.165 3.92016 79.9642C5.18773 79.137 4.83657 81.3169 3.4817 82.6868C2.61438 83.5637 2.17339 84.3513 2.27913 84.8349C2.37033 85.2549 2.01021 86.1117 1.47921 86.7376C0.845511 87.4857 0.810341 88.0444 1.37691 88.3655C2.02689 88.7346 1.98602 88.9529 1.21052 89.2521C0.394877 89.5669 0.283248 89.8612 0.67398 90.671C1.33783 92.049 1.7565 91.6887 4.61501 87.2805C4.91397 86.8195 4.8473 87.4881 4.46774 88.7657C4.02914 90.2404 3.41164 91.3674 2.77634 91.8523C2.16851 92.3159 1.66636 93.212 1.49877 94.1309C1.26169 95.4307 1.46319 95.4864 2.92253 94.5256C4.52576 93.4698 4.55684 93.4141 3.47864 93.5364C2.61109 93.6354 2.58974 93.366 3.39077 92.4211C3.97169 91.7361 4.51697 91.4961 4.60227 91.889C4.68757 92.2809 4.94736 92.2923 5.1802 91.9144C6.42175 89.8932 7.76376 88.1404 8.33628 87.7915C8.99302 87.391 5.45867 92.807 3.74158 94.8315C3.05132 95.6463 3.18843 96.1516 4.25801 96.7364C5.25822 97.2833 5.94512 97.1105 6.45222 96.1831C7.20165 94.8125 8.64586 95.4705 8.44428 97.0918C8.38632 97.5586 8.95152 97.4725 9.70053 96.9011C10.8456 96.0273 10.9023 95.8823 10.0573 95.9846C8.76466 96.1418 9.15224 93.9398 10.5807 93.0075C11.4062 92.4688 11.6185 92.5951 11.4489 93.5254C11.2887 94.403 12.5688 94.2933 15.894 93.1447C20.2433 91.642 21.9601 90.5199 20.8422 89.9086C20.5844 89.7677 20.1403 90.0789 19.8559 90.599C19.571 91.12 19.1695 91.2285 18.9627 90.8407C18.5908 90.1412 14.5574 91.5395 12.9934 92.9098C12.5467 93.3014 12.1832 93.3172 12.1862 92.9442C12.1938 92.0229 20.8078 87.6189 21.6753 88.0933C22.0644 88.306 22.5437 87.8959 22.7706 87.1559C23.0501 86.2426 23.4751 86.0958 24.1591 86.6742C24.7005 87.1326 25.7612 87.0279 26.5155 86.4423C27.3129 85.8224 27.525 85.5046 27.0222 85.6827C26.5462 85.8516 26.3685 85.2992 26.6273 84.4563C27.305 82.2437 27.7901 81.5325 27.5041 83.1701C27.1514 85.1913 29.6736 84.8923 30.8307 82.7761C31.3961 81.7421 32.4291 80.9875 33.4413 80.8689C34.3626 80.7617 35.6777 80.3431 36.3636 79.9404C39.0947 78.3352 40.0866 77.8897 42.2552 77.2974C44.5961 76.6574 45.405 76.0733 44.1733 75.9119C43.4025 75.8117 41.2539 76.0755 40.0939 76.4131C39.6961 76.5283 40.4718 75.8613 41.8184 74.9296C43.1649 73.998 44.5466 73.3796 44.8889 73.5554C45.2419 73.7371 45.6057 73.3535 45.7308 72.6681C45.8802 71.8482 46.1086 71.7869 46.4405 72.4759C46.7484 73.1132 47.0042 73.0862 47.129 72.4016C47.2384 71.8017 47.5629 71.5579 47.8509 71.8585C48.7649 72.8147 51.6666 72.5074 52.2774 71.3903C53.0135 70.0443 56.3291 69.2594 55.903 70.532C55.4996 71.7363 61.4341 70.2284 62.1475 68.9449C62.5221 68.272 62.6513 68.3063 62.5449 69.0532C62.4415 69.7823 63.4798 69.8698 65.5912 69.311C67.3525 68.8457 68.4867 68.2747 68.1105 68.0441C67.5741 67.7145 67.7093 67.5284 68.7404 67.1793C69.4628 66.935 70.1223 67.0538 70.2072 67.4431C70.292 67.8313 71.1976 67.92 72.2206 67.638C74.0774 67.1272 74.0793 67.1249 73.5244 65.7212C73.0285 64.4668 73.0911 64.3001 74.1015 64.177C74.724 64.1018 74.9498 64.3047 74.603 64.6283C74.2562 64.9519 74.5954 65.5575 75.3575 65.9742C76.1196 66.3909 76.9222 66.404 77.1416 66.0028C77.7706 64.8525 78.9068 65.8678 78.5068 67.2228C78.3078 67.8951 78.747 67.3848 79.4822 66.0881C80.4027 64.4648 80.94 63.9843 81.2095 64.5438C81.4247 64.9896 82.077 64.7933 82.6593 64.1069C83.2674 63.3891 83.4007 62.976 82.9714 63.1353C82.5436 63.2942 82.6726 62.8845 83.2735 62.1764C84.3474 60.9094 85.3602 61.5268 84.5936 62.9811C84.3588 63.4261 84.0116 64.7259 83.821 65.8707C83.5546 67.469 83.6089 67.5646 84.0553 66.2827C84.7125 64.3961 85.663 64.4026 85.1057 66.2893C84.8442 67.1739 84.912 67.2291 85.3516 66.4885C85.6858 65.9253 85.8427 64.7098 85.7 63.7859C85.4251 62.0017 87.3166 59.4355 87.6791 61.1007C87.7867 61.5944 87.6351 62.2223 87.3419 62.4957C87.0492 62.7683 86.5654 64.1285 86.2659 65.5192C85.7828 67.7677 85.8306 67.8552 86.7024 66.3108C87.4295 65.0234 87.6195 64.9332 87.4407 65.9595C87.1414 67.6738 87.6433 68.0062 88.8417 66.889C89.4988 66.2764 89.6982 66.3582 89.5488 67.178C89.434 67.8067 89.1046 68.192 88.8163 68.0344C88.5281 67.8768 88.1943 68.2847 88.0745 68.9402C87.9389 69.687 87.7814 69.7814 87.6534 69.1936C87.4283 68.16 83.6305 68.6108 83.0101 69.7453C82.796 70.1369 82.5525 70.1468 82.4699 69.7667C82.2662 68.8288 77.1862 70.1079 77.178 71.0992C77.1727 71.8048 75.7417 71.6071 74.9537 70.7913C74.5779 70.4019 73.6919 74.1412 73.916 75.171C74.0045 75.5759 74.4362 75.5724 74.8756 75.1631C75.3153 74.753 75.3631 74.3874 74.9815 74.3502C74.6005 74.3133 74.4655 73.7229 74.6825 73.0376C74.9609 72.16 75.3699 72.11 76.0685 72.869C76.614 73.4613 77.2355 73.6252 77.4501 73.2327C77.9549 72.3097 83.622 71.774 84.9939 72.5196C85.5747 72.836 86.2249 72.7737 86.439 72.3821C86.6531 71.9905 87.5854 71.7543 88.5101 71.858C89.4349 71.9617 90.692 71.6647 91.3041 71.1978C91.9162 70.7308 94.1962 70.103 96.3709 69.8024C98.5452 69.5028 100.61 68.7355 100.959 68.0974C101.307 67.4602 101.674 67.3123 101.774 67.7697C101.873 68.2272 102.516 68.2963 103.203 67.9238C103.926 67.532 104.834 67.7672 105.358 68.4819C105.856 69.1617 106.333 69.3341 106.418 68.8664C106.504 68.3987 108.317 67.7952 110.449 67.5256C112.581 67.2571 114.497 66.721 114.708 66.3355C114.919 65.9501 115.571 65.6334 116.158 65.632C116.745 65.6294 119.233 65.4148 121.686 65.1543C124.14 64.8938 126.213 64.9851 126.294 65.3565C126.375 65.7288 126.682 65.5933 126.975 65.0558C127.269 64.5182 127.588 64.4369 127.683 64.875C127.778 65.3132 128.043 65.3297 128.272 64.911C128.501 64.4932 130.011 64.2224 131.629 64.3109C133.246 64.3993 135.495 63.9995 136.625 63.422C137.756 62.8445 138.788 62.4315 138.919 62.5032C139.051 62.575 140.641 62.3432 142.453 61.9887C144.265 61.6341 146.245 61.4379 146.852 61.5529C147.459 61.6679 148.587 61.6082 149.36 61.4199C150.132 61.2324 151.576 61.0023 152.568 60.9088C153.56 60.8147 154.436 60.3884 154.514 59.962C154.592 59.5346 155.133 59.3922 155.716 59.6441C156.746 60.0893 169.975 58.8966 175.343 57.8748C176.805 57.5971 178.087 56.9046 178.19 56.3379C178.304 55.7141 178.578 55.7219 178.885 56.3576C179.261 57.139 179.507 57.0315 179.841 55.9395C180.153 54.9221 181.006 54.3531 182.61 54.0914C183.885 53.8838 185.083 53.4316 185.272 53.0864C185.46 52.742 185.334 52.6425 184.992 52.8661C184.649 53.0898 184.324 52.6543 184.268 51.8996C184.212 51.1446 184.007 50.9083 183.81 51.3752C182.996 53.3075 182.501 53.6027 182.4 52.2152C182.311 51.0087 182.151 50.9995 181.516 52.1612C181.089 52.9409 180.412 53.399 180.01 53.1794C179.608 52.9598 179.602 52.4785 179.997 52.1099C180.74 51.4179 178.913 51.2592 175.47 51.7167C174.16 51.8916 173.53 51.5663 173.332 50.6159C173.105 49.5221 173.204 49.4898 173.853 50.4475C174.433 51.3041 174.716 51.284 174.882 50.3754C175.048 49.4648 175.306 49.4501 175.824 50.3228C176.278 51.0877 176.607 51.1417 176.729 50.4725C176.841 49.8572 177.862 49.6067 179.185 49.8684C180.431 50.1146 184.744 50.1206 188.771 49.881C192.796 49.642 196.139 49.4819 196.2 49.5242C197.606 50.5222 198.276 50.48 198.5 49.3808C198.643 48.6788 198.773 48.4902 198.79 48.9613C198.806 49.4332 199.409 49.5077 200.131 49.127C201.178 48.5754 201.251 48.6176 200.494 49.3356C199.971 49.8311 199.768 50.3579 200.041 50.5071C200.313 50.6563 200.765 50.3616 201.043 49.8528C201.321 49.3441 201.626 49.2777 201.719 49.7055C201.812 50.1333 203.046 50.5064 204.462 50.5344C205.878 50.5616 207.57 50.7331 208.223 50.915C208.876 51.0961 210.051 51.2016 210.834 51.1496C212.783 51.0196 212.589 51.0056 215.233 51.461C216.533 51.685 217.738 51.6115 217.911 51.2959C218.083 50.9812 218.775 51.092 219.45 51.5427C220.124 51.9942 221.49 52.3052 222.485 52.2349C223.862 52.1383 224.238 52.4534 224.06 53.5523C223.868 54.7349 224.119 54.7576 225.447 53.6796C226.612 52.7329 226.877 52.7184 226.387 53.6259C225.843 54.6362 225.909 54.7022 226.723 53.9551C227.283 53.4423 228.433 53.3535 229.278 53.7591C230.124 54.1649 231.114 54.2189 231.479 53.8791C231.842 53.5399 232.204 53.555 232.282 53.9133C232.36 54.2714 232.965 54.1514 233.625 53.6473C234.286 53.1435 235.108 53.127 235.451 53.6109C235.793 54.0946 236.773 54.0342 237.628 53.4763C238.483 52.9185 239.272 52.8792 239.383 53.3882C239.509 53.9633 239.666 53.8633 239.801 53.1219C239.921 52.4664 240.265 52.0641 240.566 52.2284C240.866 52.3927 241.299 51.9206 241.526 51.1786C241.822 50.2118 242.164 50.1046 242.732 50.8016C243.307 51.5051 243.477 51.4486 243.352 50.5964C243.22 49.7044 243.534 49.4764 244.65 49.6542C246.027 49.8733 246.018 49.9619 244.526 51.0248C242.508 52.4606 242.675 54.2641 244.726 53.1813C245.918 52.5515 245.969 52.5941 245.057 53.4577C244.213 54.2565 244.254 54.4372 245.248 54.2848C245.948 54.1788 247.06 54.1057 247.72 54.1236C248.38 54.1416 249.151 53.9832 249.434 53.7714C249.718 53.5586 251.512 53.2839 253.422 53.1588C259.66 52.7523 263.296 51.8043 264.062 50.3868C264.491 49.5908 264.457 49.3041 263.979 49.7025C262.77 50.7106 260.035 48.929 260.327 47.3253C260.466 46.5665 260.362 45.9093 260.097 45.8654C259.833 45.8206 259.776 45.3062 259.972 44.7227C260.168 44.1384 260.474 43.8174 260.652 44.008C261.712 45.1439 263.276 45.2079 263.474 44.1238C263.622 43.3113 263.85 43.2382 264.169 43.9008C264.43 44.4421 264.852 44.5038 265.106 44.0388C265.361 43.5729 265.793 43.3141 266.066 43.4632C266.339 43.6124 266.135 44.1401 265.613 44.6348C264.856 45.3527 264.929 45.395 265.975 44.8433C266.698 44.4626 267.301 44.5371 267.317 45.0091C267.333 45.4801 267.463 45.2912 267.607 44.5875C267.776 43.7569 268.5 43.2488 269.672 43.1381C272.755 42.8473 274.597 42.173 275.01 41.1827C275.229 40.6595 276.448 40.2327 277.719 40.234C278.991 40.2347 280.051 39.7993 280.075 39.2652C280.1 38.7314 280.222 38.6904 280.347 39.1755C280.472 39.6603 280.968 39.6297 281.45 39.1082C282.148 38.3512 282.259 38.4108 282 39.4023C281.822 40.0851 282.031 40.8307 282.464 41.0585C283.087 41.3855 283.206 41.2414 283.028 40.3731C282.871 39.6062 283.059 39.1788 283.648 38.9594C284.114 38.7869 284.348 38.9136 284.169 39.2405C283.99 39.5683 284.32 39.5911 284.902 39.2917C285.485 38.9916 286.877 39.3268 287.995 40.0372C289.138 40.7623 290.571 40.9823 291.265 40.5387C292.723 39.6081 294.247 40.1855 293.115 41.2404C292.686 41.6403 292.267 41.6592 292.185 41.2816C292.103 40.904 291.676 40.9307 291.237 41.3399C290.797 41.75 290.75 42.1157 291.131 42.1528C291.512 42.1897 291.652 42.7647 291.442 43.4297C291.111 44.4772 289.885 44.5666 288.933 43.6111C288.77 43.4484 288.408 43.7353 288.128 44.2484C287.835 44.7842 288.147 45.1637 288.858 45.1395C289.57 45.1152 289.882 45.4947 289.589 46.0305C289.308 46.5436 288.946 46.8305 288.784 46.6678C288.621 46.5043 288.278 46.3814 288.021 46.3926C286.804 46.4459 286.243 45.9552 286.379 44.957C286.469 44.3097 286.208 44.4454 285.741 45.2893C284.917 46.779 282.887 47.237 281.044 46.3473C280.448 46.06 279.764 46.1832 279.524 46.622C279.284 47.0608 278.899 47.0286 278.668 46.5517C278.438 46.0739 277.896 46.0124 277.463 46.4162C277.031 46.8192 276.497 46.7769 276.278 46.322C276.058 45.8659 275.703 45.8149 275.489 46.2073C275.274 46.5989 274.429 47.0515 273.609 47.212C272.281 47.4726 272.173 47.6167 272.614 48.5324C272.91 49.1449 273.185 49.1476 273.296 48.5395C273.398 47.9779 273.757 47.672 274.092 47.8609C274.427 48.0489 278.104 48.145 282.262 48.074C288.588 47.9665 289.925 47.6755 290.446 46.295C291.168 44.3837 291.736 44.4138 291.72 46.3637C291.711 47.4183 291.88 47.4081 292.477 46.3163C293 45.3583 293.456 45.21 293.909 45.8496C294.275 46.3653 295.596 46.7345 296.845 46.6706C298.095 46.6065 299.459 46.6348 299.877 46.7343C300.296 46.8335 300.934 46.7216 301.296 46.4859C302.276 45.8456 302.903 46.4085 302.073 47.1831C301.64 47.5866 302.019 47.8609 303.029 47.874C303.95 47.885 305.347 48.299 306.133 48.7926C306.92 49.2862 307.627 49.3413 307.704 48.9159C307.782 48.4895 308.197 48.3336 308.626 48.5683C309.1 48.8272 309.048 49.4188 308.495 50.0713C307.855 50.826 307.924 51.1625 308.726 51.2002C309.355 51.2295 310.071 50.8832 310.319 50.4296C310.567 49.9768 310.426 49.7339 310.005 49.8901C309.585 50.0463 309.456 49.7815 309.718 49.3025C309.98 48.8235 310.57 48.7115 311.03 49.0536C311.489 49.3957 311.623 49.9006 311.328 50.1752C311.034 50.4501 311.567 50.5088 312.514 50.3034C313.46 50.0988 314.41 49.6147 314.625 49.2267C314.84 48.8388 315.102 48.9199 315.208 49.4071C315.314 49.8941 315.812 49.9089 316.314 49.4408C316.817 48.9721 317.913 48.9171 318.749 49.3178C319.585 49.7191 320.464 49.6912 320.703 49.2551C320.941 48.8189 321.215 48.8267 321.312 49.2716C321.409 49.7173 321.167 50.381 320.774 50.7473C320.381 51.1138 320.292 51.5408 320.576 51.6964C320.86 51.8517 321.385 51.2973 321.742 50.465C322.099 49.6315 322.749 48.923 323.186 48.8884C323.624 48.8549 323.748 49.2533 323.463 49.7743C323.178 50.2952 323.179 50.8485 323.464 51.0046C323.75 51.1607 324.184 50.6319 324.43 49.8296C324.676 49.0275 325.104 48.4951 325.382 48.6471C325.687 48.8134 325.296 49.7264 324.398 50.9474C322.672 53.2951 322.626 53.2007 325.398 53.0284C327.882 52.8741 331.435 50.8213 330.296 50.1985C329.916 49.9907 328.865 49.9076 327.96 50.0135C327.055 50.1191 326.384 49.8281 326.468 49.3655C326.552 48.9041 327.734 48.5158 329.093 48.504C331.081 48.4853 331.591 48.7865 331.697 50.0426C331.809 51.3687 331.872 51.3714 332.117 50.0589C332.597 47.4897 333.207 46.5845 334.206 46.9612C334.728 47.1582 334.941 47.7118 334.679 48.1908C334.417 48.6698 334.097 48.6307 333.966 48.103C333.836 47.5755 333.664 48.2182 333.584 49.5304C333.422 52.1963 333.802 53.0827 334.011 50.5266C334.084 49.6299 334.351 48.9551 334.604 49.0275C334.857 49.0986 335.428 49.243 335.873 49.3478C336.319 49.4517 337.142 49.6989 337.704 49.8969C338.551 50.1956 338.626 49.8186 338.144 47.6728C337.404 44.3793 336.966 44.1241 337.18 47.1125C337.272 48.3903 337.076 49.3052 336.745 49.1455C336.414 48.9851 336.333 48.506 336.565 48.0821C336.797 47.6573 336.657 46.7858 336.254 46.1454L335.52 44.9822L337.22 44.6571C338.155 44.478 339.772 44.1516 340.813 43.9327C342.761 43.5217 342.827 44.2668 340.952 45.4907C340.368 45.8718 339.658 45.7926 339.374 45.3156C338.953 44.6089 338.891 44.6773 339.039 45.6834C339.241 47.0539 340.715 47.1733 341.424 45.8761C341.675 45.4181 341.958 45.4085 342.056 45.8533C342.152 46.299 341.91 46.9627 341.517 47.329C340.516 48.2631 341.853 48.8378 343.114 48.0149C343.685 47.6424 345.071 47.5864 346.196 47.8911C347.32 48.1949 348.636 48.1966 349.118 47.8951C349.602 47.593 350.389 47.5603 350.868 47.8222C351.347 48.0841 351.804 47.9499 351.881 47.5244C351.959 47.0981 352.561 46.9707 353.218 47.2404C353.876 47.5093 354.174 48.1695 353.88 48.7062C353.587 49.2428 354.153 48.9881 355.138 48.1393C356.124 47.2897 357.42 46.8628 358.018 47.1901C358.616 47.5171 360.186 47.6088 361.506 47.3939C364.73 46.8681 365.379 47.2911 363.538 48.7173C362.28 49.692 362.227 49.8254 363.138 49.7263C363.716 49.6629 365.317 49.8729 366.696 50.1922C368.076 50.5117 369.563 50.4391 370.001 50.0296C370.44 49.621 370.438 49.4202 369.997 49.5841C369.556 49.7483 369.396 49.2282 369.64 48.4287C369.886 47.6295 369.875 46.8606 369.617 46.7197C369.359 46.5787 368.947 47.1198 368.701 47.9219C368.123 49.8086 367.292 49.3542 367.465 47.2458C367.598 45.6079 368.209 45.4705 370.068 46.6606C370.378 46.8597 370.858 46.6069 371.136 46.099C371.413 45.5921 371.637 45.5115 371.634 45.9207C371.631 46.3299 372.152 46.3801 372.794 46.0324C373.435 45.6848 375.113 45.9178 376.523 46.5515C377.934 47.1842 379.965 47.5696 381.039 47.4071C382.731 47.1507 383.033 47.4485 383.315 49.6473C383.59 51.8032 383.754 51.9732 384.408 50.7765C385.026 49.6464 385.41 49.6543 386.363 50.8193C387.016 51.6167 387.463 52.7956 387.356 53.4402C387.25 54.0839 387.335 54.304 387.546 53.9287C387.756 53.5532 388.168 53.9352 388.461 54.7767C388.985 56.2826 388.992 56.2681 388.87 53.9047C388.803 52.5835 388.969 51.624 389.24 51.7721C389.511 51.9205 389.658 52.4507 389.567 52.9512C389.476 53.4512 389.834 54.3464 390.363 54.9399C390.892 55.5335 391.327 55.7499 391.33 55.4212C391.333 55.0922 392.054 54.6336 392.932 54.4019C394.225 54.0599 394.456 54.2746 394.146 55.5311C393.895 56.5442 394.142 56.2513 394.857 54.6861C395.907 52.3886 396.079 52.3268 398.99 53.2031C400.661 53.7058 402.349 53.8174 402.744 53.4494C403.166 53.0558 403.6 53.4318 403.802 54.3645C404.082 55.6595 404.356 55.754 405.309 54.8814C406.292 53.9805 406.339 54.0629 405.61 55.4106C404.822 56.866 404.878 56.9205 406.243 56.0303C407.065 55.4934 407.81 55.3831 407.898 55.7864C408.141 56.9036 407.614 57.525 407.331 56.455C407.132 55.7058 407.071 55.8177 407.025 57.0153C406.983 58.0939 407.254 58.3253 407.996 57.8415C408.737 57.3578 408.972 56.9266 408.836 56.3015C408.542 54.9522 411.304 52.4826 412.422 53.0941C412.944 53.3793 413.456 53.1482 413.559 52.5803C413.846 51.0099 414.206 51.5785 414.19 53.5738C414.182 54.5513 414.406 54.9292 414.688 54.4135C414.969 53.8986 416.043 53.9387 417.075 54.5025C418.106 55.0663 418.721 55.9446 418.443 56.4533C418.165 56.962 417.835 56.9395 417.71 56.4021C417.56 55.7558 417.426 56.0539 417.316 57.2823C417.146 59.1671 417.848 59.2126 418.849 57.3805C419.54 56.1175 421.285 56.3415 421.87 57.7672C422.768 59.9592 423.201 60.0311 423.643 58.0602C424.198 55.5887 424.889 55.4351 427.143 57.282C429.927 59.5616 431.56 59.4825 432.406 57.0281C432.833 55.7888 433.161 55.3344 433.269 55.8331C433.375 56.3193 434.09 55.4099 435.084 53.5257C436.64 50.5732 436.533 48.9943 434.689 47.7132C433.803 47.0983 434.593 45.8944 435.597 46.3298C436.634 46.7798 436.648 46.6716 435.704 45.4846C434.641 44.1461 434.662 44.1313 436.957 44.5865C438.24 44.841 439.491 44.6845 439.735 44.237C439.98 43.7894 439.681 43.3443 439.071 43.249C437.838 43.0554 437.843 41.4446 439.077 40.9864C439.511 40.8252 439.949 40.2403 440.05 39.6867C440.151 39.1333 440.809 38.2419 441.512 37.7046C442.539 36.9216 442.811 36.313 442.893 34.6152C442.992 32.5856 443.031 32.5422 443.853 33.5423C444.685 34.5536 444.705 34.5293 444.552 32.7098C444.374 30.5936 437.986 26.6417 434.175 26.2916C432.906 26.1749 432.179 25.7658 432.428 25.3095C433.008 24.2493 430.564 23.0641 428.936 23.6155ZM430.556 25.0909C430.242 25.2961 429.82 25.1063 429.621 24.669C429.399 24.1856 429.623 24.0392 430.192 24.2958C430.707 24.5283 430.871 24.8858 430.556 25.0909ZM420.173 20.9986C419.911 21.4794 419.919 21.995 420.192 22.1441C420.465 22.2933 420.773 21.9509 420.876 21.383C420.98 20.8152 420.972 20.2998 420.858 20.2375C420.744 20.1753 420.436 20.5179 420.173 20.9986ZM434.105 44.5124C433.842 44.9932 433.404 45.2643 433.131 45.1151C432.858 44.966 432.98 44.5216 433.402 44.128C433.824 43.7344 434.262 43.4631 434.376 43.5253C434.49 43.5876 434.368 44.0317 434.105 44.5124ZM389.741 28.7961C389.628 30.1798 389.529 30.2924 389.137 29.4798C388.88 28.9454 388.861 28.1572 389.096 27.728C389.711 26.604 389.895 26.9106 389.741 28.7961ZM410.861 48.1088C409.777 49.3924 408.775 49.9644 408.181 49.6395C407.659 49.354 407.07 49.4159 406.872 49.7778C406.674 50.1397 405.87 50.1041 405.085 49.6997C402.984 48.6179 405.511 47.1769 407.906 48.0905C408.917 48.4752 409.836 48.5858 409.948 48.3349C410.061 48.0843 410.704 47.264 411.376 46.5123C413.265 44.4022 412.815 45.7958 410.861 48.1088ZM387.31 34.334C387.16 34.6094 386.501 35.1835 385.845 35.6118C384.549 36.4576 383.602 35.5481 384.352 34.1776C384.608 33.7082 384.891 33.6582 384.98 34.0657C385.068 34.474 385.492 34.4797 385.921 34.0797C386.749 33.3075 387.77 33.494 387.31 34.334ZM387.795 36.4351C387.265 37.05 387.267 36.7821 387.801 35.7514C388.285 34.8191 388.677 34.3639 388.674 34.7392C388.671 35.1145 388.276 35.878 387.795 36.4351ZM381.993 33.735C381.679 33.9401 381.257 33.7504 381.057 33.313C380.836 32.8297 381.06 32.6833 381.629 32.9399C382.144 33.1724 382.308 33.5299 381.993 33.735ZM381.924 36.0291C381.581 36.2528 381.233 37.182 381.15 38.0948C381.029 39.4184 380.952 39.556 380.771 38.7769C380.647 38.2399 380.324 38.204 380.053 38.6987C379.783 39.1925 379.334 39.1366 379.055 38.5745C378.609 37.6752 378.529 37.7743 378.383 39.406C378.292 40.4246 377.944 41.4369 377.61 41.6558C377.275 41.8737 377.286 41.533 377.633 40.8975C378.113 40.0199 377.889 39.9621 376.698 40.6588C375.355 41.4437 375.141 41.3528 375.2 40.0154C375.293 37.8751 374.406 37.5777 372.005 38.942C369.782 40.205 369.156 40.294 370.355 39.1754C370.778 38.7817 370.899 38.3374 370.627 38.1882C370.354 38.0391 369.858 38.4071 369.526 39.0056C368.912 40.1098 369.126 37.5789 369.744 36.4125C370.061 35.8149 373.972 36.0694 374.879 36.7474C375.177 36.9692 375.636 36.7549 375.901 36.2715C376.165 35.7881 376.797 35.8599 377.306 36.43C377.885 37.0809 378.577 37.0581 379.161 36.3693C379.673 35.7659 380.165 35.6079 380.254 36.019C380.344 36.4301 380.768 36.4383 381.197 36.0384C381.626 35.6382 382.105 35.3812 382.262 35.4671C382.419 35.5527 382.266 35.8055 381.924 36.0291ZM403.729 47.7329C403.607 47.9558 402.855 48.3291 402.058 48.5621C401.184 48.817 400.791 48.6509 401.068 48.1448C401.321 47.6815 401.996 47.3258 402.567 47.3521C403.138 47.3792 403.683 47.3844 403.778 47.3638C403.873 47.3432 403.851 47.5091 403.729 47.7329ZM411.018 54.2369C411.217 54.6743 411.639 54.864 411.953 54.6589C412.268 54.4538 412.104 54.0963 411.589 53.8637C411.02 53.6071 410.796 53.7535 411.018 54.2369ZM414.336 57.4448C413.807 57.6415 412.559 57.1926 411.562 56.4478C409.979 55.2654 409.834 55.2873 410.419 56.6255C411.049 58.0679 414.083 59.4534 415.124 58.7735C415.987 58.211 415.317 57.0807 414.336 57.4448ZM376.306 38.6628C376.506 39.1002 376.927 39.2899 377.242 39.0848C377.556 38.8797 377.392 38.5222 376.877 38.2896C376.309 38.033 376.084 38.1794 376.306 38.6628ZM368.264 38.7314C367.746 39.6798 367.298 39.6918 366.555 38.7755C366.001 38.0924 364.587 37.5107 363.411 37.4811C361.869 37.4427 361.342 37.097 361.519 36.2366C361.654 35.5812 361.777 35.4158 361.794 35.8677C361.81 36.3204 362.761 36.5396 363.907 36.3558C365.054 36.1711 366.165 36.3302 366.376 36.71C366.588 37.0891 366.973 37.0093 367.233 36.5338C367.493 36.0583 367.99 36.0687 368.336 36.5578C368.684 37.0463 368.651 38.0252 368.264 38.7314ZM374.511 40.596C374.368 41.2988 374.237 41.5001 374.221 41.0451C374.205 40.5899 373.59 40.3932 372.854 40.6077C371.788 40.9192 371.72 40.7586 372.519 39.8166C373.73 38.3886 374.87 38.8339 374.511 40.596ZM395.919 54.2218C395.671 54.6745 395.546 55.3987 395.64 55.8318C395.738 56.2828 396.009 55.9754 396.274 55.11C396.79 53.4257 396.606 52.9648 395.919 54.2218ZM363.83 40.6227C363.656 40.8909 363.402 41.0707 363.266 41.0206C363.131 40.9714 361.82 41.0291 360.353 41.1491C357.707 41.3655 357.701 41.3575 359.485 40.0881C360.473 39.3841 361.348 39.1169 361.43 39.4931C361.512 39.8693 362.158 39.9933 362.867 39.769C364.133 39.3687 364.459 39.6572 363.83 40.6227ZM366.489 41.8041C366.486 42.1576 365.939 42.4215 365.273 42.3903C364.506 42.3549 364.293 41.9112 364.692 41.1822C365.3 40.0704 366.5 40.4861 366.489 41.8041ZM368.209 42.5436C367.946 43.0243 367.52 43.3023 367.263 43.1614C367.005 43.0204 367.009 42.5117 367.272 42.031C367.535 41.5502 367.961 41.2722 368.218 41.4132C368.476 41.5541 368.472 42.0628 368.209 42.5436ZM302.347 7.6657C301.925 8.05931 301.944 8.58053 302.388 8.82375C302.833 9.06696 302.931 9.43971 302.607 9.65162C301.679 10.2571 301.01 8.21886 301.873 7.4145C302.298 7.01791 302.751 6.75137 302.88 6.82185C303.009 6.89233 302.769 7.27209 302.347 7.6657ZM377.23 48.944C376.935 49.9022 376.931 50.5306 377.223 50.3403C377.514 50.1509 377.756 49.3669 377.76 48.5981C377.765 47.4882 377.657 47.5596 377.23 48.944ZM300.76 7.48348C300.445 7.68859 300.024 7.49888 299.824 7.06149C299.602 6.57814 299.827 6.43172 300.396 6.68834C300.91 6.92088 301.074 7.27837 300.76 7.48348ZM380.611 51.5959C380.508 52.1638 380.516 52.6791 380.63 52.7414C380.744 52.8037 381.052 52.4611 381.314 51.9803C381.577 51.4996 381.569 50.984 381.296 50.8348C381.023 50.6857 380.715 51.028 380.611 51.5959ZM384.19 53.193C384.39 53.6304 384.812 53.8201 385.126 53.615C385.441 53.4099 385.277 53.0524 384.762 52.8199C384.193 52.5633 383.969 52.7097 384.19 53.193ZM357.368 40.812C356.359 41.4699 355.024 40.951 355.819 40.2104C356.204 39.851 356.858 39.7431 357.273 39.9699C357.687 40.1964 357.73 40.5751 357.368 40.812ZM365.006 45.9937C364.983 46.4418 364.734 46.3682 364.453 45.8297C364.172 45.2912 363.612 45.1595 363.208 45.536C362.804 45.9124 361.947 45.9318 361.302 45.5794C360.658 45.227 360.062 45.3103 359.98 45.7646C359.897 46.2189 359.023 46.2725 358.037 45.8844C357.052 45.4956 355.661 45.3482 354.947 45.5573C354.233 45.7652 353.282 45.7358 352.834 45.4908C352.387 45.2461 351.279 45.4862 350.372 46.0238C349.386 46.6087 348.946 46.5961 349.276 45.9921C349.579 45.437 350.095 45.1207 350.421 45.2897C350.817 45.4936 350.935 45.1856 350.775 44.3647C350.643 43.6874 350.723 43.1637 350.954 43.2022C351.184 43.2408 351.637 43.2895 351.96 43.3099C352.284 43.3302 352.904 43.4786 353.339 43.6379C353.774 43.7972 354.202 43.5307 354.291 43.0444C354.379 42.559 354.871 42.6318 355.383 43.2071C355.95 43.8429 356.537 43.8471 356.881 43.2178C357.221 42.5963 357.689 42.591 358.055 43.2053C358.389 43.7683 359.035 43.8799 359.492 43.4541C359.949 43.0284 360.584 43.12 360.903 43.6578C361.222 44.1956 361.796 44.344 362.179 43.9876C362.964 43.2545 365.071 44.7495 365.006 45.9937ZM366.016 48.7823C365.833 49.1162 365.635 48.7264 365.576 47.9162C365.517 47.106 365.672 46.0703 365.921 45.614C366.171 45.1578 366.369 45.5475 366.361 46.4801C366.353 47.4127 366.198 48.4484 366.016 48.7823ZM292.467 6.80518C292.045 7.19879 292.041 7.70746 292.458 7.93556C292.875 8.16365 293.301 7.88564 293.405 7.31776C293.508 6.74987 293.512 6.2412 293.414 6.18738C293.316 6.13356 292.89 6.41157 292.467 6.80518ZM285.178 5.84745C284.021 6.6024 283.74 7.71125 284.608 8.0952C285.126 8.32389 285.329 8.17133 285.119 7.71047C284.929 7.28951 285.088 6.65125 285.475 6.29129C286.29 5.53026 286.099 5.24546 285.178 5.84745ZM286.635 7.79808C286.835 8.23548 287.257 8.42519 287.571 8.22008C287.886 8.01497 287.722 7.65747 287.207 7.42493C286.638 7.16832 286.414 7.31473 286.635 7.79808ZM295.705 13.7108C295.592 15.0944 295.492 15.2071 295.101 14.3945C294.844 13.86 294.825 13.0719 295.059 12.6427C295.674 11.5187 295.859 11.8252 295.705 13.7108ZM304.619 17.9787C304.512 18.5631 304.244 18.6072 303.99 18.0811C303.496 17.0559 303.69 16.3479 304.364 16.7165C304.607 16.8492 304.721 17.4171 304.619 17.9787ZM292.5 12.0962C292.065 12.1614 291.516 12.8423 291.281 13.6105C291.046 14.3778 290.642 14.8907 290.384 14.7497C290.127 14.6088 290.108 13.8652 290.343 13.0979C290.753 11.7639 291.819 11.1719 292.824 11.7211C293.081 11.862 292.936 12.0303 292.5 12.0962ZM364.601 51.9251C364.165 52.3317 363.742 52.3554 363.659 51.9778C363.577 51.6002 363.159 51.619 362.73 52.019C361.834 52.8542 362.664 53.3703 364.513 53.1278C365.323 53.0215 365.71 52.6417 365.587 52.0737C365.481 51.5853 365.037 51.5186 364.601 51.9251ZM289.207 13.6859C289.074 14.0365 288.543 14.2244 288.029 14.102C287.23 13.9127 287.323 13.6471 288.665 12.2903C290.088 10.851 290.188 11.1065 289.207 13.6859ZM346.661 46.0178C345.583 46.0131 344.245 46.4374 343.688 46.9617C342.855 47.7452 342.677 47.6238 342.689 46.2846C342.706 44.0824 343.243 43.2448 343.841 44.4859C344.11 45.0454 344.333 45.0936 344.336 44.5941C344.338 44.0935 345.387 43.6931 346.668 43.7029C348.367 43.7159 348.946 44.0322 348.809 44.8736C348.693 45.5894 347.879 46.0229 346.661 46.0178ZM287.132 12.2955C286.749 12.9956 286.286 13.1629 286.056 12.6838C285.723 11.9942 285.834 11.7753 286.681 11.4484C287.247 11.23 287.731 11.0553 287.757 11.0589C287.782 11.0637 287.501 11.6198 287.132 12.2955ZM355.797 50.0247C355.367 50.8114 355.448 51.3082 355.994 51.2413C356.502 51.1796 357.251 51.3123 357.659 51.5355C358.655 52.0801 358.56 51.3683 357.44 49.8976C356.761 49.0062 356.337 49.0387 355.797 50.0247ZM350.22 50.5356C349.855 50.7741 348.859 50.4667 348.008 49.8516C346.892 49.0462 346.396 49.0818 346.232 49.9799C346.078 50.8223 345.859 50.9227 345.554 50.2903C345.303 49.7691 344.713 49.8136 344.224 50.3909C343.741 50.961 342.339 51.4797 341.108 51.5428C339.879 51.6061 338.698 51.9766 338.484 52.3664C337.995 53.2606 345.246 53.7861 346.001 52.9112C346.308 52.5557 346.631 52.5949 346.719 52.9982C346.807 53.4017 347.34 53.189 347.903 52.5242C348.467 51.8594 348.99 51.5989 349.065 51.9455C349.14 52.2921 349.644 52.0533 350.185 51.4157C351.252 50.1574 351.264 49.8542 350.22 50.5356ZM270.734 9.76015C270.341 10.1267 269.785 10.2577 269.499 10.0523C269.126 9.78497 269.214 9.64361 269.809 9.55759C270.266 9.49082 270.73 8.93978 270.841 8.33278C270.961 7.67501 271.125 7.60544 271.245 8.16193C271.357 8.67487 271.127 9.39386 270.734 9.76015ZM259.339 15.616C259.207 15.8563 258.907 15.6536 258.672 15.1651C258.436 14.6775 258.082 14.5727 257.885 14.9337C257.688 15.2947 256.954 15.3831 256.255 15.1303C255.557 14.8767 255.21 14.258 255.486 13.7545C255.761 13.2501 256.051 13.0953 256.131 13.41C256.21 13.7239 256.855 13.922 257.564 13.85C258.814 13.7228 259.824 14.7279 259.339 15.616ZM307.818 41.6429C306.87 41.8455 305.718 42.3307 305.258 42.721C304.799 43.1122 304.608 43.0862 304.832 42.6652C305.058 42.2436 304.676 42.2059 303.982 42.5819C303.29 42.957 302.641 42.8907 302.542 42.4333C302.442 41.9759 302.12 42.0416 301.826 42.5791C301.532 43.1167 301.209 43.1738 301.107 42.7069C301.005 42.2394 300.355 42.3015 299.662 42.8444C298.327 43.8903 292.237 44.5174 292.244 43.6086C292.247 43.3139 292.653 43.0327 293.147 42.9826C293.64 42.9332 295.217 42.752 296.651 42.5798C299.091 42.287 299.145 42.2417 297.498 41.8656C296.53 41.6451 295.895 41.18 296.086 40.8315C296.551 39.9867 306.881 39.8205 308.369 40.6342L309.541 41.274L307.818 41.6429ZM253.56 15.0487C253.329 15.4708 252.761 15.5345 252.297 15.189C251.663 14.7174 251.729 14.3507 252.563 13.7143C253.699 12.8481 254.314 13.6702 253.56 15.0487ZM252.187 17.2579C251.873 17.4631 251.451 17.2733 251.251 16.836C251.03 16.3526 251.254 16.2062 251.823 16.4628C252.338 16.6953 252.502 17.0528 252.187 17.2579ZM295.513 40.7633C295.397 40.9757 294.958 41.2764 294.538 41.4326C294.118 41.5889 294.002 41.2996 294.28 40.7909C294.558 40.2822 294.997 39.9806 295.255 40.1215C295.513 40.2625 295.629 40.5509 295.513 40.7633ZM242.932 16.6481C242.205 17.2022 241.613 17.3621 241.616 17.0024C241.619 16.6429 242.132 16.1525 242.755 15.9123C244.388 15.2844 244.439 15.4988 242.932 16.6481ZM285.897 41.2425C285.652 42.0419 285.759 42.5817 286.135 42.4414C287.214 42.0411 287.789 40.5806 287.03 40.1659C286.612 39.9373 286.167 40.3605 285.897 41.2425ZM287.738 41.6212C287.49 42.074 287.365 42.7982 287.46 43.2313C287.558 43.6823 287.828 43.3748 288.093 42.5095C288.61 40.8251 288.425 40.3643 287.738 41.6212ZM235.801 15.5601C235.14 16.4478 234.401 17.0655 234.158 16.9325C233.915 16.7998 234.062 16.369 234.484 15.9754C235.678 14.8625 234.744 14.7824 233.385 15.88C232.72 16.4186 231.559 16.732 230.807 16.5754C230.055 16.4196 229.799 16.269 230.237 16.2406C230.675 16.2113 231.114 15.7507 231.211 15.2168C231.308 14.6828 230.993 14.3756 230.511 14.5344C230.029 14.693 229.983 14.5761 230.408 14.2749C231.472 13.5212 232.942 13.9467 232.073 14.7571C231.688 15.1164 231.714 15.5963 232.131 15.8244C232.548 16.0525 232.967 15.8138 233.062 15.2944C233.157 14.7751 234.032 14.2726 235.007 14.1768C235.982 14.082 236.83 13.9903 236.891 13.9748C236.951 13.9592 236.461 14.6721 235.801 15.5601ZM237.206 16.6021C236.525 16.8176 235.969 16.6933 235.972 16.3256C235.975 15.9574 236.236 15.7979 236.552 15.9707C236.868 16.1434 237.21 15.8254 237.313 15.2638C237.422 14.6648 237.694 14.649 237.973 15.2263C238.413 16.139 238.358 16.2373 237.206 16.6021ZM240.64 16.6869C240.185 16.7538 239.658 16.4655 239.468 16.0462C239.279 15.628 239.65 15.5736 240.295 15.926C240.939 16.2784 241.095 16.6211 240.64 16.6869ZM284.011 41.3534C283.765 42.1558 283.647 42.8576 283.748 42.9129C283.849 42.9683 284.255 42.4236 284.649 41.7025C285.043 40.9814 285.162 40.2796 284.912 40.143C284.662 40.0067 284.257 40.5513 284.011 41.3534ZM277.781 41.1805C276.695 41.1751 275.609 41.5337 275.366 41.9769C274.903 42.8239 276.339 42.9595 279.709 42.386C282.101 41.9795 280.848 41.1954 277.781 41.1805ZM228.368 15.4696C228.291 16.4097 228.033 16.9896 227.758 16.8395C227.497 16.6964 227.484 15.9229 227.729 15.1206C227.976 14.3185 228.25 13.7021 228.339 13.7507C228.428 13.7994 228.441 14.573 228.368 15.4696ZM222.783 14.0405C222.389 14.4068 222.148 15.0767 222.247 15.529C222.345 15.9814 222.099 16.6561 221.699 17.029C220.578 18.074 220.558 16.5436 221.671 14.9259C222.99 13.0095 222.936 13.0675 223.235 13.2308C223.379 13.3095 223.175 13.6739 222.783 14.0405ZM226.516 16.3738C226.102 16.8887 225.427 17.3284 225.017 17.3516C224.558 17.3775 224.672 16.92 225.312 16.1651C226.508 14.7549 227.658 14.9542 226.516 16.3738ZM224.139 15.9176C224.043 16.4464 223.615 17.0082 223.187 17.1673C222.76 17.3256 222.746 16.8423 223.156 16.0932C223.996 14.5574 224.4 14.4856 224.139 15.9176ZM202.088 5.0739C201.666 5.46751 201.109 5.67428 200.852 5.53332C200.594 5.39236 200.728 4.95494 201.151 4.56133C201.573 4.16772 202.129 3.96095 202.387 4.10191C202.645 4.24286 202.51 4.68029 202.088 5.0739ZM217.428 17.1418C216.037 17.5822 215.788 16.7289 216.983 15.6145C217.415 15.2125 217.971 15.3029 218.218 15.8162C218.62 16.6493 218.536 16.7916 217.428 17.1418ZM281.232 50.7362C280.214 50.76 279.102 50.4122 278.762 49.9618C278.422 49.5119 278.066 49.5651 277.973 50.0796C277.879 50.5947 277.578 50.8936 277.306 50.7445C277.033 50.5953 276.609 50.8393 276.365 51.286C275.866 52.1976 277.986 52.3428 281.646 51.6477C284.292 51.146 284.075 50.6686 281.232 50.7362ZM197.466 5.81562C196.75 6.48326 194.252 6.60018 194.607 5.94986C194.722 5.73921 195.486 5.47088 196.304 5.35261C198.242 5.074 198.256 5.07918 197.466 5.81562ZM215.358 16.9931C215.067 17.5254 214.652 17.5938 214.436 17.1451C214.22 16.6965 213.543 16.6558 212.933 17.0537C212.323 17.4521 211.657 17.7311 211.455 17.6735C211.251 17.6168 210.642 17.6279 210.101 17.6988C208.791 17.8711 204.596 17.9529 203.756 17.823C203.389 17.7664 201.583 17.7508 199.743 17.7892C195.799 17.8717 195.974 17.9246 196.578 16.8215C196.84 16.3407 197.452 16.1639 197.936 16.4287C198.42 16.6934 199.855 16.741 201.125 16.5339C202.395 16.3268 204.151 16.3072 205.028 16.4904C205.905 16.6736 206.693 16.8195 206.779 16.8155C206.865 16.8115 207.111 16.8611 207.327 16.9258C207.544 16.9906 208.264 16.7467 208.931 16.3832C212.109 14.649 216.416 15.0579 215.358 16.9931ZM193.465 6.55399C193.083 7.25414 192.703 7.52222 192.622 7.14992C192.541 6.77763 192.796 6.17332 193.189 5.80703C194.193 4.8708 194.271 5.08028 193.465 6.55399ZM270.001 50.7858C266.43 51.4358 267.282 52.2181 271.396 52.0671C274.256 51.9619 274.78 51.7527 273.7 51.1493C272.93 50.7194 271.265 50.5562 270.001 50.7858ZM227.09 27.8282C226.448 28.0827 225.712 28.1754 225.455 28.0345C225.197 27.8935 225.511 27.5701 226.152 27.3156C226.794 27.0612 227.529 26.9684 227.787 27.1094C228.045 27.2503 227.731 27.5738 227.09 27.8282ZM257.636 46.4228C256.339 47.4187 256.357 47.5374 257.813 47.6335C258.703 47.6917 259.256 48.0568 259.045 48.444C258.446 49.5384 256.446 48.4649 256.338 46.9902C256.259 45.9159 256.426 45.5998 257.242 45.2853C258.935 44.6306 259.153 45.2594 257.636 46.4228ZM266.208 51.4889C265.786 51.8825 265.664 52.3268 265.937 52.476C266.209 52.6251 266.648 52.3541 266.911 51.8733C267.174 51.3926 267.296 50.9485 267.182 50.8862C267.068 50.8239 266.63 51.0953 266.208 51.4889ZM255.409 48.9338C255.311 49.4728 254.512 50.0863 253.635 50.2966C252.171 50.6476 252.166 50.612 253.579 49.8698C254.736 49.2626 255.029 48.8643 254.757 48.2708C254.513 47.735 254.589 47.5563 254.992 47.7167C255.32 47.847 255.508 48.3938 255.409 48.9338ZM195.669 17.3702C195.245 18.1455 191.821 18.1834 191.791 17.4131C191.784 17.2056 191.053 17.4057 190.168 17.8585C188.676 18.622 188.668 18.595 190.06 17.488C190.885 16.831 191.559 16.5114 191.556 16.7779C191.554 17.0438 192.418 17.021 193.476 16.7266C195.728 16.1003 196.275 16.261 195.669 17.3702ZM252.124 49.9658C252.008 50.1782 251.57 50.4789 251.149 50.6351C250.729 50.7914 250.613 50.5021 250.891 49.9934C251.169 49.4847 251.608 49.183 251.866 49.324C252.124 49.465 252.24 49.7534 252.124 49.9658ZM248.801 49.9189C248.379 50.3125 247.692 50.4116 247.274 50.14C246.656 49.7359 246.765 49.6013 247.864 49.4063C249.668 49.0869 249.684 49.0959 248.801 49.9189ZM170.346 7.7057C170.032 7.91081 169.61 7.7211 169.41 7.28371C169.189 6.80036 169.413 6.65394 169.982 6.91056C170.497 7.1431 170.661 7.50059 170.346 7.7057ZM171.433 11.5879C171.038 12.3091 170.511 12.7873 170.262 12.6507C170.012 12.5144 170.252 11.879 170.794 11.2389C171.337 10.599 171.864 10.1207 171.965 10.1761C172.067 10.2314 171.827 10.8668 171.433 11.5879ZM173.837 11.6455C173.733 11.8343 173.193 12.0444 172.636 12.1122C172.056 12.1822 171.949 11.9325 172.383 11.5275C173.113 10.8467 174.224 10.9375 173.837 11.6455ZM226.308 40.3915C226.192 40.6039 225.754 40.9047 225.334 41.0609C224.913 41.2171 224.797 40.9278 225.076 40.4191C225.354 39.9104 225.793 39.6088 226.05 39.7498C226.308 39.8907 226.425 40.1791 226.308 40.3915ZM208.208 35.5755C206.905 35.8494 205.467 36.3828 205.015 36.7608C204.562 37.1389 204.357 37.1382 204.559 36.7583C204.762 36.3786 204.283 36.2563 203.495 36.4864C202.341 36.8229 202.25 36.6831 203.024 35.7701C203.553 35.1465 204.717 34.718 205.611 34.8183C206.505 34.9187 207.639 34.5251 208.131 33.9449C208.698 33.2762 209.312 33.2903 209.803 33.9826C210.527 35.0042 210.421 35.1107 208.208 35.5755ZM241.453 52.7803C241.174 53.289 241.29 53.5783 241.71 53.422C242.131 53.2658 242.569 52.9651 242.685 52.7527C242.801 52.5403 242.685 52.2519 242.427 52.1109C242.17 51.9699 241.731 52.2715 241.453 52.7803ZM148.432 6.32927C146.904 6.67536 145.861 7.11464 146.116 7.30406C146.371 7.4946 147.83 7.33177 149.358 6.94308C152.924 6.03633 152.11 5.49708 148.432 6.32927ZM230.148 51.185C225.795 51.5524 223.883 51.2544 224.847 50.3563C225.249 49.9813 225.652 50.0071 225.74 50.4154C225.829 50.8229 226.088 50.8157 226.316 50.3988C226.544 49.9819 227.851 49.7213 229.221 49.8185C233.366 50.1149 233.878 50.8699 230.148 51.185ZM140.694 4.39498C140.075 4.62443 140.167 4.99471 140.948 5.42194C142.312 6.16773 142.612 6.00554 142.044 4.8286C141.833 4.39235 141.226 4.19662 140.694 4.39498ZM223.525 51.0484C223.307 51.4487 222.693 51.5389 222.162 51.2488C221.632 50.9587 221.485 50.4528 221.837 50.125C222.189 49.7963 222.802 49.7061 223.2 49.9237C223.598 50.1413 223.745 50.6472 223.525 51.0484ZM205.073 43.0399C203.22 43.3676 202.48 42.963 203.901 42.3992C204.543 42.1447 205.372 42.1306 205.744 42.3691C206.191 42.654 205.962 42.8823 205.073 43.0399ZM186.326 33.8439C185.837 34.1568 184.672 34.3086 183.737 34.1803L182.038 33.9481L184.143 33.4391C186.631 32.838 187.615 33.0203 186.326 33.8439ZM149.316 16.4046C149.213 16.5934 148.673 16.8034 148.116 16.8713C147.536 16.9412 147.428 16.6916 147.863 16.2866C148.592 15.6058 149.703 15.6966 149.316 16.4046ZM151.674 19.1142C151.239 19.1794 150.668 19.9325 150.405 20.788C150.103 21.776 149.86 22.0235 149.738 21.4665C149.633 20.9845 149.191 20.922 148.755 21.3285C148.319 21.735 147.895 21.7587 147.813 21.3811C147.73 21.0035 147.312 21.0223 146.883 21.4223C146.454 21.8225 145.736 21.9487 145.287 21.7032C144.838 21.4577 143.938 21.6048 143.288 22.0293C142.636 22.4543 141.943 22.7461 141.745 22.6789C141.548 22.6109 140.289 22.5583 138.948 22.5618C135.945 22.5696 135.669 22.4345 136.307 21.2676C136.585 20.7588 136.884 20.6704 136.972 21.0714C137.163 21.9513 146.484 20.7274 146.492 19.8208C146.494 19.4715 146.762 19.36 147.086 19.5735C148.504 20.5058 149.535 20.5437 149.695 19.6682C149.864 18.7356 151.088 18.2419 151.997 18.7391C152.255 18.8801 152.11 19.0483 151.674 19.1142ZM193.432 52.6377C193.154 53.1464 193.27 53.4356 193.69 53.2794C194.11 53.1232 194.549 52.8224 194.665 52.61C194.781 52.3976 194.665 52.1092 194.407 51.9683C194.149 51.8273 193.71 52.1289 193.432 52.6377ZM128.118 17.3136C128.013 17.5068 127.068 17.7307 126.02 17.8105C123.814 17.9789 123.847 17.2206 126.06 16.9024C127.734 16.6617 128.402 16.7953 128.118 17.3136ZM191.364 53.2884C190.54 54.1025 190.226 54.1101 190.371 53.3131C190.716 51.4228 189.846 51.5626 189.109 53.5164C188.51 55.1011 188.668 55.3001 190.416 55.1669C191.509 55.0842 192.232 54.7124 192.023 54.3425C191.814 53.9726 191.959 53.375 192.345 53.015C192.731 52.655 192.94 52.3013 192.808 52.2296C192.677 52.1578 192.027 52.6345 191.364 53.2884ZM174.961 44.1068C174.845 44.3192 174.406 44.6199 173.986 44.7761C173.566 44.9324 173.45 44.6431 173.728 44.1344C174.006 43.6257 174.445 43.324 174.703 43.465C174.961 43.606 175.077 43.8943 174.961 44.1068ZM187.522 53.4075C186.82 54.678 186.658 54.7413 186.845 53.6728C187.016 52.6921 186.833 52.5068 186.24 53.0585C185.773 53.4945 185.556 53.9546 185.758 54.0809C185.959 54.2081 184.854 54.6293 183.303 55.0174C180.835 55.6348 180.695 55.7511 182.19 55.9394C183.129 56.0589 184.171 56.2835 184.503 56.4403C184.837 56.5965 185.311 56.3551 185.559 55.9023C185.806 55.4504 186.192 55.4616 186.416 55.9273C186.708 56.5319 187.055 56.2255 187.63 54.8562C188.724 52.2492 188.658 51.3521 187.522 53.4075ZM119.79 19.1829C119.512 19.6916 119.206 19.7503 119.111 19.3121C119.015 18.874 118.757 18.846 118.536 19.2499C118.033 20.1694 114.313 20.6424 114.32 19.7856C114.323 19.4377 115.493 18.8975 116.921 18.5836C120.05 17.8967 120.448 17.9802 119.79 19.1829ZM119.319 23.869C115.904 24.4971 114.146 24.1444 117.16 23.4366C118.697 23.0756 120.278 22.9399 120.674 23.1338C121.07 23.3287 120.46 23.6596 119.319 23.869ZM146.029 38.0049C145.766 38.4856 145.458 38.8282 145.344 38.766C145.23 38.7037 145.222 38.1883 145.326 37.6205C145.429 37.0526 145.738 36.7102 146.01 36.8594C146.283 37.0086 146.292 37.5241 146.029 38.0049ZM113.471 20.7188C113.102 21.3936 111.411 21.1729 111.539 20.4675C111.617 20.0422 112.118 19.86 112.654 20.0622C113.19 20.2645 113.558 20.5598 113.471 20.7188ZM142.954 39.7301C142.532 40.1238 141.939 40.3024 141.636 40.1275C141.305 39.9353 141.551 39.6235 142.251 39.3457C143.745 38.7524 143.908 38.8411 142.954 39.7301ZM111.982 24.5554C111.681 25.1061 107.253 25.9288 106.751 25.5274C106.569 25.3814 107.662 24.9946 109.18 24.6686C112.497 23.9558 112.305 23.9636 111.982 24.5554ZM140.648 40.0508C140.545 40.2396 140.02 40.4477 139.482 40.5133C138.944 40.5781 138.713 40.2504 138.967 39.7854C139.222 39.3195 139.746 39.1114 140.133 39.3228C140.52 39.5342 140.751 39.862 140.648 40.0508ZM135.602 39.6473C135.361 40.4322 134.907 41.1705 134.592 41.2878C134.278 41.4042 134.405 40.7243 134.875 39.7755C135.891 37.7234 136.209 37.6675 135.602 39.6473ZM106.127 25.2408C105.609 26.1883 101.231 27.5901 101.238 26.8068C101.239 26.5341 102.151 26.1662 103.263 25.9897C104.375 25.8141 105.473 25.3237 105.704 24.9015C105.935 24.4784 106.23 24.1908 106.359 24.2613C106.487 24.3318 106.384 24.7723 106.127 25.2408ZM115.401 32.9152C114.47 33.5186 114.471 33.3888 115.406 32.2822C116.054 31.5167 116.581 31.1748 116.578 31.523C116.576 31.8703 116.046 32.497 115.401 32.9152ZM99.7413 27.4555C99.319 27.8492 98.7258 28.0278 98.4226 27.8529C98.0918 27.6607 98.3377 27.3489 99.0382 27.0711C100.532 26.4778 100.694 26.5665 99.7413 27.4555ZM100.665 29.6637C100.27 30.3848 99.8239 30.8264 99.6723 30.6436C99.2402 30.1246 96.813 30.6697 95.8655 31.4983C95.3487 31.9503 95.3375 31.6399 95.8361 30.7169C96.4934 29.5015 98.8526 28.4695 101.225 28.3601C101.311 28.3559 101.059 28.9426 100.665 29.6637ZM107.285 33.145C107.186 33.326 106.44 33.8128 105.628 34.2262C104.291 34.9062 104.291 34.8667 105.632 33.7989C107.041 32.6777 107.678 32.4257 107.285 33.145ZM113.301 38.8442C110.863 39.6441 110.091 39.2463 112.142 38.2465C113.028 37.8137 114.069 37.6347 114.455 37.8479C114.862 38.0726 114.377 38.4911 113.301 38.8442ZM146.949 59.895C144.919 60.9049 139.563 61.0632 139.57 60.1125C139.573 59.8121 140.328 59.6265 141.247 59.7011C142.167 59.7748 143.396 59.5927 143.976 59.2959C144.558 58.9985 144.911 58.9773 144.764 59.2474C144.616 59.5183 145.383 59.493 146.469 59.1908C149.127 58.4515 149.31 58.72 146.949 59.895ZM106.718 40.2344C106.625 40.7435 106.125 41.2106 105.608 41.2728C104.98 41.3495 104.984 41.0134 105.62 40.2632C106.725 38.9601 106.951 38.9542 106.718 40.2344ZM93.0321 34.8574C92.8567 36.5623 92.8235 36.5839 92.6742 35.0909C92.5581 33.9249 92.3449 33.7447 91.9453 34.4755C91.6351 35.0428 91.2946 35.1109 91.1889 34.6262C91.0555 34.0117 91.3139 33.6227 92.044 33.3407C92.6198 33.1184 93.1207 32.9461 93.1583 32.9564C93.1949 32.9674 93.1385 33.8222 93.0321 34.8574ZM95.9212 35.5073C95.8251 36.0361 95.4539 36.5768 95.0969 36.7097C94.7399 36.8427 94.7607 36.3783 95.1435 35.6781C95.9493 34.2044 96.1677 34.1569 95.9212 35.5073ZM88.6729 35.6144C87.9455 35.9547 87.3473 36.5644 87.344 36.969C87.3378 37.7264 86.3151 37.577 85.3526 36.6783C85.0531 36.3987 84.7269 36.6167 84.6273 37.1629C84.2976 38.9707 82.5884 38.4176 82.7801 36.5649C82.9473 34.9521 82.9861 34.9233 83.1263 36.3137C83.2618 37.6526 83.4752 37.6376 84.6041 36.21C85.7263 34.7901 85.943 34.7723 86.0523 36.0901C86.1633 37.4225 86.2577 37.3946 86.7257 35.8918C87.0526 34.842 87.3387 34.4579 87.4412 34.9307C87.5356 35.3638 87.8049 35.3669 88.0391 34.9386C88.2737 34.5094 88.8104 34.3464 89.2308 34.5762C89.9343 34.9609 89.8899 35.0445 88.6729 35.6144ZM104.358 45.104C103.018 45.8155 96.6786 46.9748 96.9621 46.4565C97.1542 46.1051 98.8585 45.4758 100.749 45.0575C102.735 44.6186 104.288 43.8266 104.425 43.1828C104.555 42.5697 104.678 42.7069 104.697 43.4871C104.715 44.268 104.563 44.9948 104.358 45.104ZM115.538 51.2499C116.403 51.2188 116.381 51.3034 115.412 51.7388C114.768 52.0279 114.178 51.9792 114.102 51.6298C114.026 51.2804 113.746 51.3921 113.48 51.8789C113.214 52.3658 113.56 52.9685 114.25 53.2186C114.94 53.4685 115.242 54.0416 114.924 54.4919C114.289 55.3871 113.999 55.2294 112.591 53.2265C111.866 52.1967 111.481 52.1948 110.92 53.2201C110.519 53.9535 110.338 54.9116 110.517 55.349C110.697 55.7867 110.278 55.7279 109.587 55.2185C108.837 54.6666 107.97 54.7331 107.439 55.3828C106.83 56.1274 106.872 56.3672 107.57 56.1392C108.411 55.8654 108.367 55.9637 107.324 56.6888C106.243 57.441 106.095 57.3489 106.33 56.0659C106.652 54.2951 108.486 52.675 109.525 53.243C109.951 53.4759 110.395 53.0577 110.668 52.1648C111.07 50.8532 111.834 50.5749 112.674 51.435C112.841 51.6059 113.484 51.1497 114.102 50.4203C114.743 49.6642 115.068 49.5658 114.858 50.1914C114.656 50.795 114.962 51.2711 115.538 51.2499ZM133.265 61.9038C132.451 62.1674 131.397 62.7251 130.922 63.1434C130.326 63.6687 130.234 63.579 130.626 62.8506C131.214 61.7566 133.459 60.7225 134.276 61.1689C134.534 61.3099 134.079 61.6403 133.265 61.9038ZM81.2987 38.2154C81.8458 38.2114 81.3455 38.526 80.1866 38.9142C77.3002 39.8804 75.9733 39.5602 76.7767 38.0908C77.2408 37.2421 77.4692 37.2296 77.5298 38.0507C77.6141 39.1993 79.8334 38.1783 80.0624 36.8865C80.1157 36.583 80.1919 36.7598 80.2315 37.2787C80.271 37.7977 80.7511 38.2191 81.2987 38.2154ZM108.536 52.013C108.433 52.2018 107.893 52.4119 107.336 52.4797C106.756 52.5497 106.648 52.3001 107.083 51.895C107.812 51.2142 108.923 51.305 108.536 52.013ZM95.816 46.8824C95.3937 47.276 94.8005 47.4546 94.4973 47.2797C94.1665 47.0875 94.4124 46.7757 95.1129 46.4979C96.6069 45.9046 96.7691 45.9933 95.816 46.8824ZM119.33 61.5749C118.522 62.5284 118.361 62.4982 118.556 61.4306C118.746 60.3847 118.547 60.3814 117.669 61.418C117.046 62.1524 116.311 62.6307 116.036 62.4803C115.761 62.3298 116.556 61.503 117.803 60.643C120.189 58.9978 121.063 59.5316 119.33 61.5749ZM94.5158 48.9328C95.0435 48.7604 94.6269 49.1684 93.5894 49.841C91.6649 51.0879 90.2103 51.0101 90.9282 49.6972C91.1471 49.2969 91.6553 49.149 92.057 49.3687C92.4587 49.5883 92.8686 49.3242 92.9676 48.7811C93.0667 48.2381 92.6672 47.8118 92.0794 47.8345C91.1945 47.8684 91.214 47.7848 92.1936 47.3451C93.0054 46.9806 93.4048 47.1967 93.4667 48.031C93.5158 48.7005 93.988 49.1063 94.5158 48.9328ZM62.5714 34.7323C62.3625 35.1233 62.1137 35.0849 62.0185 34.6468C61.9232 34.2086 61.5813 34.3328 61.2592 34.9219C60.937 35.5111 60.6756 35.7587 60.6779 35.4727C60.6798 35.1865 61.301 34.1205 62.0574 33.1035C63.0876 31.7195 63.3724 31.6027 63.1921 32.6373C63.0597 33.3983 62.7799 34.341 62.5714 34.7323ZM90.782 48.1629C90.5165 49.0282 90.2461 49.3356 90.1481 48.8847C90.0537 48.4515 89.598 48.7894 89.1359 49.6347C88.5169 50.7666 88.2979 50.8398 88.3055 49.9095C88.3131 48.9792 88.6791 48.3834 89.695 47.6468C91.4089 46.404 91.332 46.3676 90.782 48.1629ZM61.3616 32.8684C60.8285 33.358 60.1981 34.1056 59.9601 34.5307C59.7231 34.9552 58.8849 35.1009 58.0973 34.8542C56.573 34.3761 57.3448 33.6071 60.4982 32.4632C62.4319 31.7618 62.5219 31.8042 61.3616 32.8684ZM99.0507 54.3282C98.6284 54.7218 98.0352 54.9004 97.732 54.7256C97.4012 54.5333 97.6471 54.2216 98.3476 53.9438C99.8416 53.3505 100.004 53.4392 99.0507 54.3282ZM104.035 58.7593C103.3 59.103 102.678 59.7893 102.654 60.2827C102.63 60.7758 102.508 60.7841 102.383 60.299C102.258 59.8142 101.804 59.8545 101.375 60.3886C100.946 60.9224 100.939 60.4486 101.359 59.3359C101.946 57.7824 102.225 57.5264 102.565 58.2311C102.854 58.8298 103.083 58.7337 103.226 57.9521C103.373 57.1468 103.603 57.0878 103.933 57.7713C104.291 58.5154 104.49 58.4207 104.673 57.4193C104.849 56.4528 104.988 56.3575 105.148 57.0922C105.328 57.9183 105.098 58.2619 104.035 58.7593ZM87.3703 49.5231C87.2671 49.7119 86.7423 49.92 86.2041 49.9857C85.6664 50.0504 85.4347 49.7227 85.6889 49.2577C85.9437 48.7918 86.4684 48.5837 86.8551 48.7952C87.2418 49.0066 87.4736 49.3343 87.3703 49.5231ZM100.401 60.1758C100.138 60.6566 100.041 60.3482 100.185 59.4904C100.33 58.6327 100.663 57.5376 100.926 57.0569C101.189 56.5761 101.286 56.8845 101.141 57.7423C100.997 58.6 100.663 59.6951 100.401 60.1758ZM98.3799 57.9355C98.1342 58.7378 98.1336 59.5039 98.3792 59.6382C98.6248 59.7725 98.9235 59.3454 99.0432 58.6899C99.1773 57.9514 99.3364 57.8476 99.4597 58.4181C99.57 58.9234 99.4926 59.6441 99.287 60.02C98.7331 61.033 95.1739 61.7154 94.3562 60.9651C93.9664 60.6066 93.4614 60.6529 93.2348 61.0672C92.6981 62.0488 88.2343 62.4659 88.2419 61.5345C88.2447 61.142 88.837 60.8482 89.5575 60.8823C90.278 60.9152 91.0575 60.5954 91.2897 60.1706C91.5216 59.7467 92.121 59.6225 92.6215 59.8962C93.1221 60.1699 93.9065 60.0436 94.3658 59.6158C94.8245 59.1876 95.4921 59.2495 95.8491 59.7524C96.3173 60.4126 96.7512 60.2037 97.4089 59.0009C98.4608 57.0771 98.3431 56.9139 96.2614 57.4072C94.7854 57.7572 94.7898 57.7403 96.3865 56.9079C98.4584 55.8279 98.9483 56.081 98.3799 57.9355ZM111.444 64.5109C111.181 64.9917 110.742 65.2628 110.469 65.1136C110.196 64.9645 110.318 64.5201 110.741 64.1265C111.163 63.7329 111.601 63.4615 111.715 63.5238C111.829 63.5861 111.706 64.0302 111.444 64.5109ZM55.5646 36.854C55.299 37.7193 55.0286 38.0268 54.9306 37.5758C54.8362 37.1427 54.9613 36.4185 55.2088 35.9657C55.8961 34.7088 56.0807 35.1697 55.5646 36.854ZM50.25 34.4567C49.8278 34.8503 49.2715 35.0571 49.0137 34.9161C48.7559 34.7751 48.8904 34.3377 49.3126 33.9441C49.7348 33.5505 50.2911 33.3437 50.5489 33.4847C50.8067 33.6257 50.6722 34.0631 50.25 34.4567ZM51.9911 39.6235C50.9398 40.0898 49.2728 40.9972 48.2864 41.641C47.3009 42.2841 46.4963 42.5174 46.4992 42.158C46.5065 41.2684 49.9843 38.8531 50.6972 39.2429C51.0122 39.4151 51.8645 39.1023 52.5913 38.5482C53.318 37.9941 53.9103 37.8184 53.9075 38.1586C53.9047 38.4988 53.0425 39.1583 51.9911 39.6235ZM82.518 56.6289C81.9018 57.0311 81.9054 56.588 82.5287 55.3301C83.2415 53.8918 83.472 53.7408 83.464 54.7197C83.457 55.5754 83.1343 56.2267 82.518 56.6289ZM79.49 57.9968C79.0197 58.8569 78.8359 58.8177 78.7639 57.8393C78.7114 57.1192 78.7136 56.4471 78.769 56.3457C78.8245 56.2443 79.1511 56.315 79.4947 56.5029C79.8387 56.691 79.8365 57.3631 79.49 57.9968ZM76.4234 57.8517C76.3199 58.4196 76.0116 58.7619 75.7388 58.6128C75.466 58.4636 75.4575 57.948 75.7204 57.4673C75.9833 56.9865 76.2911 56.6439 76.405 56.7062C76.5189 56.7685 76.527 57.2838 76.4234 57.8517ZM91.0403 69.3754C89.3764 70.0165 89.0421 69.4488 90.4519 68.3735C91.1621 67.8319 91.8205 67.7446 91.9149 68.18C92.0197 68.6608 91.6764 69.1294 91.0403 69.3754ZM70.855 59.2112C70.1386 59.8789 67.6406 59.9958 67.9961 59.3455C68.1113 59.1348 68.8743 58.8662 69.6926 58.7482C71.6313 58.4696 71.6449 58.4748 70.855 59.2112ZM67.0404 59.9799C66.9372 60.1687 66.3973 60.3788 65.8403 60.4466C65.2602 60.5166 65.1525 60.267 65.5871 59.8619C66.3167 59.1811 67.4275 59.2719 67.0404 59.9799ZM52.0197 55.2421C52.3994 55.1012 52.2918 55.4783 51.7817 56.0805C50.7068 57.3481 47.3071 58.5037 47.3145 57.5994C47.3173 57.2637 48.3572 56.2382 49.6255 55.3205C50.8933 54.4026 51.7958 54.0672 51.6301 54.575C51.465 55.083 51.64 55.3831 52.0197 55.2421ZM65.1885 63.0628C64.0075 63.666 62.6559 63.9409 62.1845 63.674C61.4839 63.2762 61.5314 63.1102 62.4481 62.7576C63.0644 62.5201 63.6219 62.5718 63.6868 62.8718C63.7517 63.1718 64.386 62.9737 65.0962 62.4321C65.8064 61.8905 66.6004 61.5639 66.8615 61.7067C67.1226 61.8494 66.3699 62.4598 65.1885 63.0628ZM72.1126 66.8489C71.6904 67.2425 71.0972 67.4211 70.794 67.2462C70.4632 67.054 70.7091 66.7423 71.4096 66.4644C72.9036 65.8712 73.0658 65.9598 72.1126 66.8489ZM48.8651 56.475C48.587 56.9837 48.7028 57.273 49.1231 57.1168C49.5433 56.9605 49.9818 56.6598 50.0979 56.4474C50.2141 56.235 50.0978 55.9466 49.84 55.8056C49.5822 55.6647 49.1433 55.9663 48.8651 56.475ZM44.0785 60.274C42.7901 61.0002 41.4913 61.4436 41.192 61.2595C40.8875 61.0725 41.2825 60.6152 42.0898 60.2187C42.883 59.8304 43.5354 59.1539 43.539 58.7164C43.5426 58.279 43.7867 58.4215 44.0816 59.0335C44.5307 59.9649 44.7471 59.8051 45.4088 58.0516C46.0868 56.2571 46.2161 56.171 46.3105 57.4558C46.4071 58.7723 46.135 59.1163 44.0785 60.274ZM66.4512 68.2949C66.029 68.6885 65.4357 68.8672 65.1326 68.6923C64.8017 68.5 65.0477 68.1883 65.7482 67.9105C67.2422 67.3172 67.4043 67.4059 66.4512 68.2949ZM57.7617 65.8144C56.2403 66.4177 55.2828 65.8941 55.8869 64.7892C56.1498 64.3085 56.9418 64.2386 57.6466 64.633C58.6453 65.1928 58.6705 65.454 57.7617 65.8144ZM39.3382 62.0341C38.7796 62.6927 38.325 62.9596 38.3277 62.6272C38.3309 62.2952 37.7342 62.3209 37.002 62.6846C36.1865 63.0903 36.4296 62.7804 37.6304 61.8838C39.8881 60.1979 40.8248 60.2809 39.3382 62.0341ZM53.0602 72.0432C51.7196 73.1109 51.7192 73.1505 53.0567 72.4705C53.8684 72.0571 54.6144 71.5703 54.7133 71.3893C55.1067 70.6699 54.4691 70.9219 53.0602 72.0432ZM34.816 63.9566C33.9504 65.4261 33.5701 65.6984 33.5104 64.8914C33.4595 64.1971 33.1485 64.0111 32.7144 64.4164C32.3225 64.7812 31.3994 65.0474 30.6629 65.0069C29.3604 64.9362 29.3813 64.9045 31.4212 63.8807C32.5752 63.3013 33.7879 62.963 34.1156 63.1286C34.4438 63.2944 34.9271 63.0364 35.19 62.5556C35.4528 62.0749 35.7509 61.7269 35.8526 61.7825C35.9543 61.8381 35.4882 62.8164 34.816 63.9566ZM50.4694 71.3566C50.3661 71.5454 49.8263 71.7555 49.2692 71.8233C48.6891 71.8933 48.5814 71.6437 49.016 71.2386C49.7457 70.5578 50.8565 70.6486 50.4694 71.3566ZM27.1251 66.138C25.3101 66.8363 24.9354 66.1931 26.6807 65.3762C27.5536 64.9679 28.2663 64.8738 28.2634 65.1675C28.261 65.4614 27.749 65.8978 27.1251 66.138ZM38.2714 77.3468C37.7128 78.0053 37.2579 78.3016 37.2603 78.0055C37.2628 77.7093 37.6334 77.1228 38.0836 76.7037C39.3086 75.5613 39.4304 75.9799 38.2714 77.3468ZM38.1438 82.0651C38.0007 82.8146 36.9605 84.1034 35.6739 85.1258C34.4518 86.0959 33.6789 86.4749 33.9571 85.9662C34.2352 85.4575 33.2995 85.7713 31.878 86.6631C30.4564 87.5548 28.6274 88.5202 27.8134 88.8075C26.3955 89.3084 26.3868 89.3343 27.5941 89.4324C28.2871 89.4889 29.7129 89.0104 30.7628 88.3696C31.8118 87.7294 32.5047 87.5167 32.3015 87.8984C32.0983 88.28 33.2248 87.6516 34.8053 86.5027C36.3858 85.3538 37.6771 84.6667 37.6746 84.9764C37.6721 85.2862 38.3328 85.0253 39.1426 84.3962C40.2115 83.567 40.347 83.3493 39.6373 83.6017C39.091 83.7968 38.6002 83.248 38.5251 82.3599C38.4277 81.203 38.3238 81.1224 38.1438 82.0651ZM21.9923 77.1962C20.9268 78.0192 18.7888 79.4719 17.2405 80.4249C15.6922 81.378 14.891 82.0106 15.4602 81.8302C16.156 81.61 16.1998 81.777 15.5949 82.341C15.1006 82.8019 14.636 82.9021 14.5625 82.5633C14.489 82.2256 12.9768 82.9225 11.202 84.1139C9.42721 85.3053 7.75647 86.1517 7.48892 85.9963C7.15015 85.7986 7.25866 85.599 7.84457 85.3392C8.30811 85.134 9.89708 83.9216 11.3759 82.6456C13.6438 80.6882 23.1427 75.2739 23.7389 75.5976C23.8439 75.6539 23.0579 76.3732 21.9923 77.1962ZM18.9859 86.6227C18.723 87.1035 18.2506 87.3561 17.9357 87.1839C17.6207 87.0117 14.8835 88.4523 11.8522 90.3862C8.82087 92.32 7.0527 93.1642 7.92209 92.2646C9.28057 90.8569 18.7285 85.3465 19.2726 85.6441C19.3776 85.7015 19.2488 86.142 18.9859 86.6227ZM22.1421 90.4298C21.7901 90.7584 21.7997 91.1895 22.1639 91.3887C22.5281 91.5878 22.8962 91.3633 22.9829 90.8895C23.0692 90.4167 23.0591 89.9854 22.9606 89.9315C22.8622 89.8777 22.4936 90.102 22.1421 90.4298Z" fill="#FBF333"/>
</svg>
