<svg width="620" height="417" viewBox="0 0 620 417" fill="none" xmlns="http://www.w3.org/2000/svg">
<path d="M620 0H0V417H620V0Z" fill="#FDF074"/>
<path d="M455.418 135.826C486.097 154.386 479.25 203.164 459.231 237.296C439.213 271.429 406.15 290.864 383.081 312.449C360.033 333.954 347.106 357.555 326.288 355.6C305.491 353.564 276.678 326.024 232.551 323.943C188.298 321.914 128.647 345.236 111.264 336.921C93.7751 328.579 118.554 288.599 106.64 245.129C94.725 201.659 45.9903 154.752 63.48 151.332C80.8644 147.886 164.578 187.955 213.2 193.496C261.717 199.01 275.121 170.076 315.955 149.661C356.685 129.218 424.825 117.373 455.418 135.826Z" fill="white"/>
<path fill-rule="evenodd" clip-rule="evenodd" d="M81.7778 65.6897C114.531 55.3813 132.775 59.2012 163.37 63.6391C185.172 66.8056 204.267 48.963 212.43 73.0257C253.43 19.447 383.557 77.7332 428.92 89.1765C476.772 101.242 525.546 118.009 545.252 161.827C551.089 174.802 552.494 189.653 559.388 202.207C564.583 211.665 575.464 219.186 577.73 230.052C580.336 242.657 570.742 253.797 571.836 266.105C572.273 270.979 579.079 278.755 577.995 283.184C566.826 328.455 546.692 369.317 495.745 390.702C451.371 409.332 396.452 412.53 354.138 396.711C316.6 382.683 286.872 352.662 267.848 321.61C264.55 316.241 262.537 302.059 258.621 297.902C252.923 291.838 247.965 293.382 241.946 288.956C225.986 277.216 200.732 253.452 208.939 231.818C176.814 250.097 129.382 196.144 110.338 182.178C96.0639 171.726 69.2361 168.853 58.2733 157.693C43.2364 142.389 72.2955 123.774 56.9821 114.754C48.7837 109.926 18.7821 125.284 16.0806 107.137C13.5965 90.3478 69.2687 69.622 81.7778 65.6897Z" fill="white"/>
<path fill-rule="evenodd" clip-rule="evenodd" d="M227.312 252.055C229.312 250.692 233.401 245.814 235.543 244.686C240.307 242.18 261.529 237.252 262.219 236.96C263.27 236.517 270.098 234.968 274.075 233.989C283.416 231.69 316.889 216.842 325.712 213.035C326.838 215.999 336.137 229.082 334.541 230.423C329.29 234.838 319.877 240.334 313.793 243.498C308.873 246.056 303.662 248.173 298.401 249.902C292.427 251.865 288.328 253.97 282.375 255.978C276.518 257.953 283.517 264.132 286.525 265.409C289.899 266.841 295.124 267.568 298.571 268.809C292.502 278.242 287.405 289.691 286.386 300.99C286.14 303.71 284.067 306.203 280.695 305.388C278.955 304.968 262.902 302.83 260.284 302.233C242.809 298.248 211.437 277.378 219.516 255.978C221.367 256.833 225.592 253.227 227.312 252.055Z" fill="#FF5678"/>
<path fill-rule="evenodd" clip-rule="evenodd" d="M237.089 138.513C238.394 138.403 241.77 135.795 239.999 134.476C238.212 133.145 236.928 137.605 237.089 138.513ZM169.083 148.515C169.424 148.455 169.275 146.587 168.738 146.348C167.042 145.596 166.899 148.425 166.858 149.182C166.806 150.138 166.686 152.83 168.748 152.092C169.919 151.673 169.193 149.231 169.083 148.515ZM269.197 157.239C269.151 158.906 272.519 162.111 273.774 160.189C274.83 158.573 269.284 153.921 269.197 157.239ZM150.133 119.645C151.109 122.134 155.934 118.742 156.114 116.916C156.482 113.177 150.083 117.157 150.133 119.645ZM190.392 130.376C192.639 130.191 195.596 127.334 197.763 126.267C199.23 125.544 203.22 124.684 203.654 123.044C204.031 121.619 197.261 124.669 196.683 124.94C194.027 126.184 191.632 127.603 190.392 130.376ZM359.093 110.675C360.884 109.29 363.061 108.396 365.358 108.455C366.504 108.484 368.896 109.201 368.986 107.218C369.132 103.994 359.006 107.926 357.424 108.559C357.98 109.264 358.537 109.969 359.093 110.675ZM247.354 236.328C246.04 234.146 243.677 232.885 241.899 231.023C242.551 234.08 241.082 236.798 240.073 239.589C242.5 238.502 244.927 237.415 247.354 236.328ZM475.547 282.846C476.272 280.422 476.997 278.012 477.844 275.626C478.791 272.953 479.262 272.722 476.994 270.854C475.113 274.411 473.23 277.968 471.348 281.526C472.688 282.095 474.086 282.65 475.547 282.846ZM280.76 107.404C278.269 104.596 266.59 104.419 268.035 110.619C268.539 112.783 271.411 110.484 273.209 109.979C274.994 109.478 280.049 109.411 280.76 107.404ZM280.332 147.171C280.03 146.454 279.427 143.867 278.532 143.663C277.66 143.464 274.219 146.178 273.572 146.592C270.346 148.659 267.201 150.883 264.057 153.075C265.261 153.075 266.354 152.646 267.551 152.637C268.972 152.625 269.992 153.209 271.379 152.876C274.357 152.16 277.814 148.86 280.332 147.171ZM283.56 83.0801C283.84 81.7954 298.441 85.652 300.196 86.3582C301.152 86.7423 306.084 89.3064 305.024 85.4419C304.421 83.2409 298.721 81.563 296.894 80.9598C292.25 79.427 287.354 78.3367 282.409 78.5895C281.449 78.6383 274.178 79.0579 277.214 81.9808C278.26 82.9874 282.011 82.6701 283.56 83.0801ZM286.756 259.595C289.477 260.934 292.254 261.957 295.098 263.004C296.361 263.469 298.328 264.686 299.722 264.381C300.863 264.13 301.229 262.392 301.828 261.228C304.02 256.972 306.638 253.538 309.884 250.029C308.377 248.93 300.727 253.778 298.834 254.494C296.939 255.211 295.151 255.932 293.296 256.788C291.55 257.594 288.104 258.315 286.756 259.595ZM334.923 223.314C338.888 221.52 342.646 218.338 345.897 215.49C349.631 212.219 352.977 208.792 355.711 204.56C354.066 204.644 350.435 209.934 350.394 204.174C350.373 201.236 354.4 198.342 355.649 195.617C352.541 193.862 349.691 204.349 346.124 201.807C342.688 199.357 348.11 190.936 349.155 188.279C347.139 186.938 335.656 201.948 333.994 203.868C332.954 205.071 330.496 206.671 329.909 208.073C329.56 208.908 329.51 211.557 329.679 212.325C330.03 213.931 331.811 215.854 332.605 217.349C333.609 219.242 334.483 221.209 334.923 223.314ZM498.825 277.429C495.396 272.589 498.938 270.479 501.726 266.462C503.955 263.249 506.007 259.708 507.42 256.12C510.954 247.146 514.144 238.803 515.89 229.31C513.487 230.407 511.985 234.58 510.783 236.78C509.167 239.736 507.746 242.84 505.95 245.705C502.588 251.065 499.288 256.784 495.013 261.43C493.076 263.536 491.435 265.905 489.201 267.802C488.179 268.669 486.226 269.381 485.474 270.464C484.763 271.487 485.558 272.142 485.288 273.364C485.011 274.618 483.743 275.955 483.198 277.162C482.483 278.748 481.818 280.338 481.02 281.889C480.149 283.58 479.912 284.464 479.677 286.117C479.421 287.925 480.207 288.112 478.629 289.778C481.489 291.039 484.349 292.3 487.209 293.561C488.173 293.987 489.139 294.412 490.104 294.838C490.307 294.456 490.511 294.075 490.715 293.694C491.5 292.93 492.223 291.048 492.673 290.039C494.552 285.832 496.674 281.607 498.825 277.429ZM222.651 257.114C214.53 278.494 243.066 296.495 260.632 300.477C263.066 301.028 265.44 301.75 267.862 302.342C270.503 302.987 272.848 302.859 275.484 303.129C277.581 303.343 278.58 304.964 280.556 305.41C283.859 306.156 283.657 303.675 283.893 301.016C284.896 289.741 290.65 278.863 296.74 269.455C293.958 268.46 291.202 267.374 288.455 266.284C286.105 265.351 282.507 262.73 279.981 262.591C278.112 262.489 275.266 264.084 273.451 264.784C270.429 265.951 267.398 266.944 264.248 267.739C258.74 269.13 252.611 271.025 246.912 271.169C245.269 271.211 240.762 271.976 239.58 270.961C237.325 269.024 240.454 267.41 242.342 266.719C253.591 262.6 265.534 260.848 276.815 256.625C282.62 254.451 288.365 252.024 294.206 249.883C299.242 248.038 304.516 246.403 309.382 244.133C315.808 241.136 322.262 237.402 327.827 233.004C328.941 232.123 331.274 230.816 332.038 229.54C332.71 228.418 332.626 229.537 332.487 228.176C332.386 227.198 331.19 225.872 330.697 224.948C328.864 221.504 327.206 217.965 325.813 214.32C316.936 218.127 308.491 223.31 299.745 227.378C290.942 231.474 281.012 234.363 271.595 236.667C267.587 237.648 262.979 237.958 259.303 239.896C257.741 240.719 256.197 241.672 254.524 242.148C254.03 243.096 253.543 243.282 253.064 242.705C252.764 242.368 252.376 242.226 251.9 242.278C250.877 242.452 249.833 242.935 248.876 243.306C244.033 245.184 239.395 247.535 234.796 249.934C232.617 251.071 230.382 252.19 228.296 253.488C227.178 254.184 226.176 254.886 225.261 255.841C224.164 256.987 224.425 257.929 222.651 257.114ZM405.383 130.174C407.435 130.208 409.306 129.096 411.446 129.158C414.811 129.255 417.475 131.864 419.428 134.381C423.293 139.359 422.307 145.365 420.366 150.937C419.437 153.599 418.162 156.155 416.568 158.486C415.157 160.549 412.635 162.501 411.651 164.799C410.027 168.587 413.303 166.976 415.309 166.167C417.831 165.149 420.195 163.883 422.336 162.178C431.877 154.58 439.135 144.017 441.566 131.888C442.752 125.97 442.661 119.051 438.538 114.221C434.769 109.804 428.263 108.361 422.701 109.18C416.689 110.066 411.241 112.612 406.345 115.89C404.924 116.842 403.622 117.882 402.286 118.947C400.535 120.345 399.485 120.381 399.924 122.572C400.249 124.2 401.136 125.887 401.707 127.45C402.777 130.376 402.387 131.133 405.383 130.174ZM411.926 180.627L411.511 181.336C414.373 181.473 417.039 178.948 419.478 177.715C422.647 176.113 425.46 173.927 428.237 171.72C433.133 167.827 438.094 163.441 441.738 158.331C449.908 146.875 457.33 132.351 455.1 117.827C452.697 102.174 439.006 96.1483 424.417 98.2205C417.842 99.1542 411.973 102.09 406.089 105.069C403.123 106.572 400.62 108.521 397.903 110.407C396.493 111.386 395.206 111.513 395.114 113.226C395.045 114.516 397.276 117.434 397.879 118.604C405.267 111.068 413.228 104.833 424.384 104.448C437.657 103.99 445.505 116.574 445.447 128.625C445.39 140.444 440.293 151.812 432.167 160.306C428.474 164.166 424.953 167.264 420.418 170.081C418.158 171.485 416.491 172.746 413.963 173.679C412.176 174.339 412.362 173.991 411.906 175.646C411.518 177.05 411.914 179.169 411.926 180.627ZM339.806 341.196C339.634 343.326 339.201 345.422 338.719 347.5C338.546 348.246 337.572 350.601 337.743 351.44C338.025 352.826 337.649 351.935 338.864 352.658C340.131 353.413 341.606 353.367 342.993 353.597C343.849 353.738 346.986 355.215 347.514 354.982C348.436 354.574 348.407 353.137 349.419 352.567C350.798 351.79 352.83 352.456 354.131 353.063C357.609 354.685 359.999 358.043 363.364 359.882C369.34 363.145 376.432 364.953 383.099 365.698C386.711 366.102 390.407 366.811 393.974 365.965C396.785 365.298 400.438 365.359 401.966 362.343C388.388 358.609 367.665 354.04 362.297 338.459C359.379 341.105 354.502 339.68 350.975 339.315C347.095 338.913 343.628 339.007 340.08 337.238C339.821 338.628 339.741 339.782 339.806 341.196ZM219.595 244.695C225.986 245.081 232.045 242.057 235.978 236.954C236.946 235.697 237.939 234.414 238.521 232.925C238.647 232.547 238.772 232.17 238.898 231.792C239.509 230.75 239.241 230.258 238.097 230.317C237.453 229.433 235.819 229.136 236.283 227.534C236.634 226.325 237.925 226.305 239.049 225.925C238.489 224.986 238.155 224.514 237.354 223.678C235.274 225.55 231.499 229.223 230.037 224.923C229.335 222.86 230.571 220.887 230.265 218.896C230.138 218.073 229.095 215.969 228.49 215.477C225.268 212.854 220.627 213.939 217.209 215.483C214.853 216.548 214.346 217.047 213.961 219.487C213.571 221.967 213.209 224.447 212.776 226.921C214.19 226.184 214.447 224.592 215.369 223.446C215.714 224.075 216.06 224.704 216.406 225.333C216.893 225.06 217.347 225.075 217.769 225.377C218.451 226.426 218.022 227.981 217.812 229.081C220.087 228.869 221.049 231.407 218.755 232.435C216.379 233.499 215.308 230.596 215.227 228.716C214.341 229.775 213.43 229.208 212.812 229.752C212.195 230.296 211.952 231.43 211.732 232.671C211.371 234.711 210.447 237.655 211.302 239.701C212.571 242.741 216.617 244.322 219.595 244.695ZM404.797 147.068C402.682 150.009 399.076 153.859 398.322 157.412C400.652 156.045 405.577 149.468 406.845 154.708C407.574 157.715 403.838 161.298 402.921 164.21C406.594 163.002 409.21 159.217 411.503 156.295C414.425 152.57 417.409 147.66 418.155 142.924C418.758 139.091 416.099 135.519 412.149 135.144C410.131 134.951 408.024 135.272 406.074 135.74C405.185 135.953 403.859 136.217 403.066 136.694C402.069 137.292 401.933 138.693 400.995 137.527C399.748 139.878 398.501 142.228 397.254 144.577C398.495 144.127 401.027 142.216 402.383 142.413C404.363 142.702 404.77 145.578 404.797 147.068ZM206.787 89.5362C201.243 89.6996 195.448 90.8802 190.199 92.6353C188.896 93.0715 183.397 94.6228 184.555 96.8717C185.32 98.3582 189.447 96.2577 190.695 95.9074C196.041 94.4059 201.546 93.4157 207.023 92.5121C208.349 92.2934 212.847 92.315 213.08 90.5768C213.364 88.4559 208.353 89.5338 206.787 89.5362ZM357.678 331.442C354.673 331.809 351.787 331.672 348.779 331.303C346.248 330.994 343.67 329.957 341.151 329.957C341.151 332.653 340.968 332.67 343.813 333.247C345.798 333.65 347.812 333.877 349.819 334.157C353.352 334.651 357.274 336.038 360.85 335.325C360.763 334.857 360.489 331.698 360.119 331.385C359.91 331.21 357.981 331.445 357.678 331.442ZM309.109 131.951C309.949 132.486 311.881 134.621 312.882 134.659C312.524 132.187 309.767 127.883 306.6 129.411C305.824 129.785 304.194 131.65 304.931 132.473C305.325 132.913 308.079 131.953 309.109 131.951ZM279.81 153.939C279.841 153.508 279.872 153.077 279.904 152.647C278.742 153.33 277.303 153.653 276.478 154.754C277.469 155.193 278.459 155.633 279.451 156.073C279.571 155.361 279.691 154.65 279.81 153.939ZM371.325 219.56C376.815 221.483 381.848 224.05 385.889 228.409C389.383 232.178 391.024 238.82 391.877 243.76C393.987 255.986 389.916 267.318 387.231 279.014C385.869 284.947 383.836 290.656 381.932 296.436C380.27 301.483 378.845 306.768 376.55 311.567C374.605 315.637 372.12 319.648 370.408 323.87C369.487 326.141 367.995 333.937 364.499 331.489C363.546 333.983 363.314 333.77 364.333 335.503C365.072 336.757 367.575 338.498 368.756 339.519C371.904 342.241 375.892 344.485 379.585 346.39C386.349 349.882 393.6 352.494 400.566 355.676C403.646 357.084 406.986 358.748 406.294 362.777C405.716 366.154 403.761 368.715 400.713 370.218C397.852 371.629 393.758 372.718 390.61 373.161C388.742 373.423 388.314 372.646 386.791 372.377C385.096 372.079 383.118 372.656 381.37 372.641C373.521 372.573 366.649 370.598 360.307 366.047C358.04 364.42 354.703 360.008 351.737 360.008C350.221 360.008 350.541 360.929 349.207 361.47C347.561 362.137 344.725 360.878 343.107 360.583C339.66 359.954 336.154 359.314 333.859 356.345C331.377 353.136 332.259 349.162 333.326 345.598C334.528 341.581 336.551 337.506 337.41 333.428C337.62 332.437 337.812 330.588 337.6 329.579C337.269 328.013 335.689 327.079 335.641 325.383C335.626 324.868 336.364 324.187 336.493 323.655C336.778 322.486 336.734 321.273 336.852 320.083C337.061 317.961 337.545 315.927 337.879 313.829C338.638 309.056 340.135 304.798 341.584 300.199C342.99 295.735 344.327 292.414 347.045 288.549C348.452 286.547 353.159 279.416 350.86 277.364C347.715 283.543 344.036 288.362 339.222 293.281C335.539 297.044 331.939 302.103 327.331 304.782C322.263 307.729 316.071 309.462 310.476 311.02C307.814 311.761 305.606 313.404 302.737 313.707C299.628 314.036 296.463 313.649 293.418 312.955C292.56 312.76 290.088 311.443 289.312 311.527C288.17 311.651 286.526 313.688 285.272 314.062C282.22 314.972 280.135 313.233 277.82 311.626C275.307 309.881 274.547 309.447 271.647 309.237C268.096 308.98 264.642 307.729 261.149 306.962C255.007 305.615 249.787 302.884 244.205 300.025C237.806 296.749 232.332 292.231 227.509 286.894C220.419 279.047 210.544 257.304 222.126 249.691C215.308 248.765 209.063 245.788 208.232 238.07C207.798 234.032 208.615 229.559 209.63 225.666C210.094 223.889 210.646 222.123 211.176 220.364C211.574 219.769 211.786 219.119 211.808 218.413C212.052 217.498 211.699 217.042 210.749 217.046C208.953 214.946 207.603 213.093 207.24 210.111C207.126 209.166 207.024 207.717 207.696 206.914C208.007 206.591 208.382 206.375 208.821 206.267C209.873 206.327 210.171 205.808 209.713 204.712C210.224 203.158 209.466 201.947 211.392 201.298C212.009 201.43 212.624 201.574 213.236 201.729C214.017 202.085 214.525 201.827 214.761 200.957C216.576 200.247 215.739 199.197 218.204 200.111C219.696 200.664 221.115 201.616 222.201 202.776C223.564 201.901 220.465 196.494 220.361 194.768C220.116 190.702 221.797 187.34 223.985 184C228.236 177.509 234.171 171.927 240.023 166.905C251.232 157.288 263.008 148.132 275.665 140.469C270.443 136.843 264.343 135.86 258.13 137.545C252.403 139.099 247.76 141.921 242.488 144.389C237.604 146.675 232.42 147.614 230.862 141.376C229.117 134.389 234.684 131.795 239.678 128.661C238.431 127.731 234.326 128.396 232.774 128.506C229.316 128.751 226.009 129.532 222.648 130.222C221.037 130.553 219.556 130.478 217.959 130.802C215.586 131.284 213.107 131.824 210.706 132.51C204.993 134.144 199.322 136.624 194.385 139.966C190.118 142.852 187.158 146.928 183.72 150.682C179.799 154.962 176.042 159.174 170.23 160.741C167.508 161.475 164.315 162.141 162.386 159.71C160.59 157.449 160.49 154.725 160.549 151.961C160.679 145.856 163.628 139.259 167.059 134.27C170.783 128.855 175.77 125.754 180.483 121.395C173.672 121.882 167.089 125.473 160.825 127.954C159.506 128.477 158.176 129.064 156.85 129.548C155.437 130.063 154.5 129.747 153.146 129.983C150.056 130.523 147.402 131.825 144.396 129.749C138.709 125.821 144.406 117.83 148.322 115.378C153.776 111.964 159.324 109.089 165.333 106.653C162.08 103.125 164.858 98.0896 167.856 95.5866C171.65 92.4194 176.48 90.6045 181.051 88.9091C184.666 87.5681 188.216 86.2807 191.972 85.4737C195.92 84.6257 200.536 83.3299 204.542 83.4542C208.298 83.5708 211.63 82.9089 215.435 82.803C218.601 82.715 221.774 82.7911 224.939 82.7091C233.456 82.4891 242.004 83.0635 250.328 83.676C243.733 64.3909 287.173 70.3465 296.441 72.8655C304.863 75.155 314.513 77.8108 321.588 83.2431C324.585 85.5439 327.431 88.1598 330.09 90.8441C334.013 94.8046 336.185 99.9913 338.26 105.111C343.524 102.532 348.556 99.7225 354.316 98.444C359.796 97.2279 365.409 95.5795 370.921 94.6607C375.112 93.962 381.195 93.488 384.722 96.4471C388.552 99.6613 390.548 104.663 392.835 108.946C403.816 98.5267 416.065 90.925 431.721 91.4305C447.042 91.9253 457.117 105.155 458.974 119.492C461.02 135.29 453.983 151.797 444.444 164.031C440.167 169.517 435.741 174.815 429.984 178.909C427.129 180.938 424.117 183.16 420.987 184.745C419.426 185.534 417.719 186.248 416.08 186.856C415.341 187.13 414.579 187.405 413.81 187.591C411.614 188.124 412.04 187.413 411.224 189.336C410.561 190.897 410.642 193.582 410.359 195.295C410.034 197.254 409.842 199.239 409.368 201.17C408.548 204.518 407.694 207.784 406.666 211.053C404.721 217.241 402.103 223.477 398.897 229.121C401.616 230.302 405.424 230.421 408.33 230.779C411.475 231.166 414.625 231.98 417.892 232.893C424.438 234.724 430.287 236.269 436.512 239.009C442.974 241.854 448.734 246.101 454.956 249.482C460.678 252.591 466.462 256.485 471.776 260.217C473.041 261.105 473.823 261.877 474.83 263.001C475.86 264.15 476.188 264.375 477.418 265.37C477.973 265.819 479.586 268.082 480.22 268.165C481.354 268.316 481.18 267.469 482.07 266.287C483.93 263.819 486.524 261.907 488.37 259.377C489.91 257.267 491.516 255.13 493.162 253.316C497.146 248.925 500.447 244.058 503.28 238.794C504.754 236.054 506.306 233.446 507.907 230.859C509.5 228.285 512.334 224.886 515.507 225.038C515.252 223.727 514.441 223.509 515.841 222.707C516.742 222.19 518.496 223.023 519.191 223.547C521.029 224.937 521.111 227.632 520.995 229.656C520.696 234.873 519.604 240.023 518.083 244.955C516.254 250.885 513.962 256.117 511.46 261.777C509.469 266.286 506.996 272.248 502.04 274.305C505.368 279.057 503.77 282.93 501.546 287.975C499.92 291.663 497.772 295.474 494.502 297.915C490.814 300.666 486.816 298.332 482.96 296.514C480.631 295.415 473.509 292.823 474.957 289.442C473.178 289.205 472.059 287.913 470.44 287.515C468.725 287.094 469.02 287.79 467.206 288.051C465.815 288.251 463.735 287.006 462.426 286.56C460.238 285.816 458.057 285.053 455.873 284.301C449.725 282.183 443.68 280.098 437.472 278.401C425.92 275.245 414.225 273.454 402.713 270.636C400.406 270.071 398.111 269.525 395.708 269.073C395.212 268.979 392.638 268.836 392.325 268.305C391.778 267.374 393.462 262.166 393.606 261.105C394.555 254.138 394.245 246.511 392.908 239.622C392.353 236.759 389.874 233.051 389.895 230.256C389.91 228.381 391.572 226.334 392.547 224.636C394.96 220.436 397.488 215.899 399.276 211.529C402.012 204.843 403.689 197.297 404.898 190.137C405.527 186.404 406.26 182.357 406.431 178.581C406.562 175.703 406.326 172.684 406.744 169.736C405.15 169.887 402.896 170.712 401.462 169.829C399.65 168.714 399.163 165.53 399.394 163.629C393.19 164.712 393.396 158.828 393.78 154.227C382.568 154.227 396.927 137.565 398.722 133.987C399.546 132.342 399.522 134.19 399.158 131.646C398.998 130.528 398.233 129.288 397.801 128.26C396.858 126.015 395.839 123.805 394.751 121.627C392.452 117.027 389.848 112.583 387.005 108.298C384.447 110.08 382.14 112.191 380.004 114.455C381.374 110.871 385.562 106.43 383.771 102.359C382.111 98.5861 376.566 98.8478 373.291 99.5376C364.393 101.414 355.859 104.146 347.382 107.31C350.007 108.816 354.028 107.652 356.637 106.501C359.868 105.075 363.342 103.579 366.823 102.824C369.86 102.165 373.848 102.39 372.971 106.48C372.259 109.794 369.018 112.985 366.879 115.463C362.167 120.923 356.258 125.149 350.454 129.372C344.214 133.912 338.203 138.844 331.884 143.252C320.463 151.22 308.183 158.146 296.383 165.584C290.251 169.449 283.303 172.559 276.653 175.423C269.338 178.574 262.324 181.948 254.735 184.437C250.52 185.819 246.343 186.957 242.201 188.53C239.605 189.515 235.085 191.49 233.37 188.564C229.886 182.62 242.492 174.803 245.947 171.169C248.33 173.483 236.578 182.108 237.498 185.478C238.22 188.126 241.016 184.707 242.365 183.985C244.547 182.818 247.13 182.232 249.323 180.901C253.819 178.171 259.151 175.022 260.177 169.379C259.463 168.625 259.472 167.929 260.204 167.291C260.53 166.903 260.789 166.478 260.979 166.013C261.299 165.127 261.428 164.016 261.599 163.076C262.105 160.296 260.835 157.694 262.022 154.974C255.092 160.225 248.431 166.156 241.853 171.84C235.952 176.939 229.795 183.615 227.627 191.224C227.349 192.198 226.887 193.304 226.938 194.333C227.037 196.353 227.238 195.917 228.865 196.567C230.493 197.216 232.862 197.16 234.612 197.229C235.61 197.268 240.065 196.212 239.179 198.401C238.669 199.663 235.58 199.615 234.474 199.732C231.699 200.025 230.194 199.724 231.509 202.732C232.098 204.08 233.292 204.994 234.229 206.037C236.836 208.941 238.252 213.393 240.302 216.804C242.639 220.69 245.207 224.385 247.936 228.004C249.062 229.498 250.567 232.304 252.128 233.37C253.586 234.364 251.87 234.282 254.292 233.878C255.347 233.703 256.304 233.016 257.313 232.77C263.349 231.299 269.553 229.642 275.795 227.827C283.779 225.506 292.158 223.526 299.775 220.183C306.599 217.187 313.372 213.621 320.268 210.587C322.281 209.701 324.292 209.114 325.858 207.484C327.747 205.518 329.311 202.943 331.053 200.829C334.016 197.233 336.747 193.575 339.937 190.167C342.311 187.631 346.519 182.917 349.869 181.905C356.233 179.983 352.827 189.677 352.004 192.127C353.5 192.466 354.286 190.547 356.042 191.099C358.145 191.761 358.362 194.557 358.625 196.309C358.695 196.775 358.063 197.648 358.255 198.064C358.321 198.206 359.693 199.017 359.957 199.393C360.918 200.759 360.729 202.42 360.365 203.893C358.481 211.523 351.787 217.094 346.863 222.722C349.066 222.305 350.699 221.05 352.778 220.428C354.73 219.844 356.691 219.874 358.659 219.707C360.718 219.532 362.697 218.761 364.804 218.722C367.015 218.681 369.132 219.31 371.325 219.56Z" fill="black"/>
<path fill-rule="evenodd" clip-rule="evenodd" d="M138.457 150.933C137.243 151.727 136.9 152.506 136.859 154.336C136.842 155.087 136.894 157.889 137.943 157.783C138.928 157.684 138.457 151.896 138.457 150.933ZM132.185 155.496C132.75 149.628 134.897 143.661 139.948 140.005C141.197 139.101 142.609 139.133 143.978 138.563C144.801 138.22 146.101 136.627 147.035 136.815C150.473 137.511 146.501 142.079 145.919 143.281C144.117 147.004 144.238 150.275 144.292 154.291C144.333 157.344 144.967 162.49 143.428 165.252C141.788 168.194 138.23 166.284 136.244 164.543C133.738 162.345 131.845 158.844 132.185 155.496Z" fill="black"/>
<path fill-rule="evenodd" clip-rule="evenodd" d="M192.538 172.837C192.538 176.111 195.196 173.894 195.101 171.565C194.962 168.136 192.414 170.248 192.538 172.837ZM206.667 154.735C203.758 157.351 201.514 158.818 200.954 162.841C200.529 165.888 200.951 168.906 200.969 171.975C201 177.119 196.845 182.528 192.375 176.63C189.114 172.329 190.284 165.565 192.943 161.243C194.338 158.975 196.33 156.731 198.631 155.317C200.362 154.254 205.231 152.161 206.667 154.735Z" fill="black"/>
<path fill-rule="evenodd" clip-rule="evenodd" d="M166.045 234.021C165.708 234.819 164.916 238.076 166.531 237.339C167.957 236.688 167.033 234.529 166.045 234.021ZM157.51 223.964C157.261 222.739 157.362 215.059 159.478 215.635C161.139 216.087 161.413 220.017 162.09 221.386C164.611 226.48 170.396 229.652 172.39 234.911C174.617 240.782 167.885 240.965 164.313 238.587C160.083 235.771 157.636 228.877 157.51 223.964Z" fill="black"/>
<path fill-rule="evenodd" clip-rule="evenodd" d="M152.325 192.478C153.243 191.238 153.336 190.576 152.812 189.48C152.143 190.207 152.262 191.247 152.325 192.478ZM152.989 198.022C148.204 198.558 147.964 189.739 148.784 186.711C149.436 184.299 150.839 181.708 152.284 179.743C152.575 179.346 155.342 175.783 155.885 175.775C157.966 175.742 157.394 178.094 157.169 178.969C156.462 181.727 156.182 184.032 156.372 187.09C156.577 190.362 158.126 198.13 152.989 198.022Z" fill="black"/>
<path fill-rule="evenodd" clip-rule="evenodd" d="M370.273 121.646C363.43 127.384 356.934 133.597 349.493 138.616C345.852 141.073 342.046 143.246 338.413 145.743C336.563 147.014 334.675 148.153 332.622 149.087C330.809 149.913 329.623 150.02 331.128 148.061C332.133 146.751 334.387 145.839 335.757 144.908C337.866 143.475 339.857 141.885 342.074 140.613C345.984 138.37 349.869 136.56 353.473 133.809C356.672 131.369 359.972 128.985 363.025 126.391C364.334 125.279 368.675 120.172 370.273 121.646Z" fill="black"/>
<path fill-rule="evenodd" clip-rule="evenodd" d="M370.411 142.368C373.488 145.001 365.789 152.212 364.033 153.846C362.181 155.57 360.142 157.108 358.128 158.635C357.42 159.172 353.552 162.771 352.571 162.481C350.634 161.908 353.177 159.573 353.838 158.964C355.976 156.992 358.16 155.078 360.251 153.054C362.137 151.229 364.179 149.539 366.003 147.656C367.48 146.13 368.721 143.544 370.411 142.368Z" fill="black"/>
<path fill-rule="evenodd" clip-rule="evenodd" d="M142.424 248.479C141.62 246.617 140.182 248.684 140.911 249.613C141.601 250.494 142.321 248.836 142.424 248.479ZM137.713 244.802C138.143 242.065 139.139 240.543 141.707 242.88C143.472 244.486 147.021 249.051 146.684 251.541C146.242 254.806 142.646 253.879 140.782 252.172C138.872 250.422 138.028 247.23 137.713 244.802Z" fill="black"/>
<path fill-rule="evenodd" clip-rule="evenodd" d="M143.341 298.682C140.195 298.442 137.511 296.027 136.174 293.196C135.05 290.816 133.986 286.979 137.936 288.23C140.51 289.046 150.432 299.065 143.341 298.682Z" fill="black"/>
<path fill-rule="evenodd" clip-rule="evenodd" d="M181.468 283.163C179.037 283.716 176.632 282.115 175.137 280.309C174.207 279.185 172.042 275.243 173.133 273.62C174.653 271.356 176.949 275.906 177.741 276.806C178.983 278.217 183.044 280.914 181.468 283.163Z" fill="black"/>
<path fill-rule="evenodd" clip-rule="evenodd" d="M183.658 221.601C181.753 220.717 179.983 219.652 179.217 217.54C178.729 216.194 178.32 212.16 180.484 212.179C182.988 212.201 188.721 221.197 183.658 221.601Z" fill="black"/>
<path fill-rule="evenodd" clip-rule="evenodd" d="M170.297 179.63C172.848 179.584 173.453 180.991 173.807 183.013C174.048 184.386 175.217 189.044 174.003 189.998C172.269 191.362 169.51 188.237 168.952 187.011C167.802 184.486 169.392 182.002 170.297 179.63Z" fill="black"/>
<path fill-rule="evenodd" clip-rule="evenodd" d="M214.144 319.309C215.387 319.874 218.213 321.128 217.133 323.073C216.004 325.107 212.761 323.13 211.55 322.241C211.043 321.869 207.821 319.433 207.956 318.616C208.24 316.88 212.681 319.146 214.144 319.309Z" fill="black"/>
<path fill-rule="evenodd" clip-rule="evenodd" d="M132.285 192.267C133.134 194.393 134.09 201.697 129.619 197.753C128.255 196.549 128.049 195.046 128.519 193.393C129.198 190.998 130.188 191.473 132.285 192.267Z" fill="black"/>
<path fill-rule="evenodd" clip-rule="evenodd" d="M369.218 165.066C368.228 163.044 370.672 161.739 371.978 160.435C372.831 159.584 376.417 154.966 377.593 155.226C380.011 155.763 370.407 164.164 369.218 165.066Z" fill="black"/>
<path fill-rule="evenodd" clip-rule="evenodd" d="M170.265 311.578C172.597 311.203 173.142 313.795 174.645 314.924C175.289 315.409 177.502 315.835 177.057 316.863C175.887 319.564 170.15 313.394 170.265 311.578Z" fill="black"/>
<path fill-rule="evenodd" clip-rule="evenodd" d="M189.964 250.378C191.567 249.707 196.196 253.313 194.867 254.87C192.88 257.2 190.077 251.653 189.964 250.378Z" fill="black"/>
<path fill-rule="evenodd" clip-rule="evenodd" d="M223.763 302.541C222.594 302.657 217.662 301.106 219.489 299.031C220.772 297.573 224.183 301.221 223.763 302.541Z" fill="black"/>
<path fill-rule="evenodd" clip-rule="evenodd" d="M164.695 292.581C163.535 293.045 159.35 292.09 160.665 290.273C161.919 288.542 164.697 291.144 164.695 292.581Z" fill="black"/>
<path fill-rule="evenodd" clip-rule="evenodd" d="M198.958 300.421C200.315 300.28 201.295 301.098 201.528 302.483C199.831 302.725 199.308 302.322 198.958 300.421Z" fill="black"/>
<path fill-rule="evenodd" clip-rule="evenodd" d="M375.412 99.3213C375.985 99.3239 376.557 99.3269 377.125 99.3294C376.551 99.3264 375.982 99.3239 375.412 99.3213Z" fill="black"/>
<path fill-rule="evenodd" clip-rule="evenodd" d="M366.418 218.601C365.561 218.601 364.704 218.603 363.848 218.604C364.705 218.602 365.562 218.601 366.418 218.601Z" fill="black"/>
<path fill-rule="evenodd" clip-rule="evenodd" d="M249.555 78.9814C249.516 79.839 249.477 80.6966 249.436 81.5512C249.475 80.6929 249.515 79.8368 249.555 78.9814Z" fill="black"/>
<path fill-rule="evenodd" clip-rule="evenodd" d="M514.95 224.599C515.224 225.552 514.823 225.709 513.749 225.072C514.149 224.914 514.549 224.756 514.95 224.599Z" fill="black"/>
<path fill-rule="evenodd" clip-rule="evenodd" d="M490.621 299.33C491.051 299.333 491.481 299.336 491.906 299.338C491.475 299.336 491.048 299.333 490.621 299.33Z" fill="black"/>
<path fill-rule="evenodd" clip-rule="evenodd" d="M409.247 230.39C408.529 230.938 407.814 231.015 407.105 230.361C407.819 230.372 408.533 230.381 409.247 230.39Z" fill="black"/>
<path fill-rule="evenodd" clip-rule="evenodd" d="M393.214 157.357C393.196 158.072 393.177 158.787 393.158 159.499C393.176 158.783 393.195 158.07 393.214 157.357Z" fill="black"/>
<path fill-rule="evenodd" clip-rule="evenodd" d="M430.233 91.2736C429.519 91.2732 428.804 91.2723 428.091 91.2714C428.806 91.0042 429.52 91.092 430.233 91.2736Z" fill="black"/>
<path fill-rule="evenodd" clip-rule="evenodd" d="M220.801 82.5586C220.087 82.6006 219.373 82.6425 218.659 82.6845C219.373 82.6425 220.087 82.6006 220.801 82.5586Z" fill="black"/>
<path fill-rule="evenodd" clip-rule="evenodd" d="M238.36 82.6945C237.789 82.6461 237.218 82.5972 236.647 82.5488C237.218 82.5972 237.789 82.6461 238.36 82.6945Z" fill="black"/>
<path fill-rule="evenodd" clip-rule="evenodd" d="M247.783 83.374C247.212 83.5869 246.641 83.7128 246.07 83.377C246.641 83.3762 247.212 83.3749 247.783 83.374Z" fill="black"/>
<path fill-rule="evenodd" clip-rule="evenodd" d="M196.817 84.5459C196.102 84.6911 195.389 84.8363 194.675 84.9802C195.389 84.8363 196.103 84.6911 196.817 84.5459Z" fill="black"/>
<path fill-rule="evenodd" clip-rule="evenodd" d="M393.643 258.861C393.624 259.29 393.604 259.719 393.585 260.146C393.605 259.717 393.624 259.289 393.643 258.861Z" fill="black"/>
<path fill-rule="evenodd" clip-rule="evenodd" d="M157.616 224.17C157.625 224.456 157.633 224.742 157.64 225.027C157.632 224.74 157.624 224.455 157.616 224.17Z" fill="black"/>
<path fill-rule="evenodd" clip-rule="evenodd" d="M517.603 222.634L515.462 222.645C516.174 222.113 516.888 222.181 517.603 222.634Z" fill="black"/>
<path fill-rule="evenodd" clip-rule="evenodd" d="M371.129 219.6C370.558 219.506 369.986 219.412 369.416 219.317C369.986 219.412 370.558 219.506 371.129 219.6Z" fill="black"/>
<path fill-rule="evenodd" clip-rule="evenodd" d="M214.376 319.245C213.662 319.106 212.949 318.966 212.235 318.827L214.376 319.245Z" fill="black"/>
<path fill-rule="evenodd" clip-rule="evenodd" d="M358.515 196.332C358.501 195.903 358.488 195.474 358.475 195.047C358.488 195.476 358.501 195.904 358.515 196.332Z" fill="black"/>
<path fill-rule="evenodd" clip-rule="evenodd" d="M222.942 82.701C222.514 82.6483 222.085 82.5956 221.657 82.543C222.085 82.5956 222.514 82.6483 222.942 82.701Z" fill="black"/>
<path fill-rule="evenodd" clip-rule="evenodd" d="M293.181 72.109C292.753 71.9793 292.324 71.8495 291.896 71.7197C292.325 71.8495 292.753 71.9793 293.181 72.109Z" fill="black"/>
<path fill-rule="evenodd" clip-rule="evenodd" d="M344.147 360.981C344.434 360.999 344.721 361.017 345.004 361.034C344.716 361.016 344.431 360.999 344.147 360.981Z" fill="black"/>
<path fill-rule="evenodd" clip-rule="evenodd" d="M147.564 131.001C147.994 131.012 148.424 131.024 148.848 131.035C148.416 131.024 147.99 131.012 147.564 131.001Z" fill="black"/>
<path fill-rule="evenodd" clip-rule="evenodd" d="M434.944 91.6908C434.23 91.6407 433.516 91.5906 432.802 91.54C433.517 91.5906 434.23 91.6407 434.944 91.6908Z" fill="black"/>
<path fill-rule="evenodd" clip-rule="evenodd" d="M209.237 89.6855C208.235 89.6873 207.235 89.689 206.239 89.6907C207.243 89.689 208.24 89.6873 209.237 89.6855Z" fill="black"/>
<path fill-rule="evenodd" clip-rule="evenodd" d="M411.582 177.916C411.595 178.631 411.609 179.346 411.623 180.057C411.61 179.342 411.597 178.629 411.582 177.916Z" fill="black"/>
<path fill-rule="evenodd" clip-rule="evenodd" d="M359.137 331.256C358.564 331.247 357.992 331.238 357.424 331.229C357.998 331.236 358.567 331.246 359.137 331.256Z" fill="black"/>
<path fill-rule="evenodd" clip-rule="evenodd" d="M419.954 104.332C420.81 104.237 421.667 104.142 422.524 104.047C421.701 104.774 420.813 104.29 419.954 104.332Z" fill="black"/>
<path fill-rule="evenodd" clip-rule="evenodd" d="M354.426 331.48C353.996 331.464 353.567 331.448 353.141 331.433C353.572 331.449 353.999 331.464 354.426 331.48Z" fill="black"/>
<path fill-rule="evenodd" clip-rule="evenodd" d="M339.618 338.951C339.639 339.666 339.661 340.381 339.683 341.093C339.662 340.376 339.639 339.664 339.618 338.951Z" fill="black"/>
<path fill-rule="evenodd" clip-rule="evenodd" d="M404.964 130.632C405.535 130.578 406.106 130.525 406.677 130.473C406.156 130.874 405.544 130.639 404.964 130.632Z" fill="black"/>
<path fill-rule="evenodd" clip-rule="evenodd" d="M217.803 244.57C218.374 244.676 218.945 244.78 219.516 244.885C218.945 244.78 218.374 244.676 217.803 244.57Z" fill="black"/>
<path fill-rule="evenodd" clip-rule="evenodd" d="M306.886 131.877C307.599 131.27 308.313 131.336 309.028 131.87C308.314 131.872 307.6 131.875 306.886 131.877Z" fill="black"/>
<path fill-rule="evenodd" clip-rule="evenodd" d="M280.087 153.503C280.108 153.217 280.128 152.932 280.15 152.646C280.13 152.933 280.108 153.218 280.087 153.503Z" fill="black"/>
<path fill-rule="evenodd" clip-rule="evenodd" d="M404.741 145.366C404.747 145.938 404.752 146.51 404.759 147.079C404.753 146.506 404.747 145.936 404.741 145.366Z" fill="black"/>
<path fill-rule="evenodd" clip-rule="evenodd" d="M215.783 234.891C216.723 235.21 218.613 236.172 219.708 236.045C220.584 235.942 221.307 234.877 222.152 234.878C224.429 234.881 224.007 237.512 222.907 238.925C219.932 242.746 213.286 238.603 215.783 234.891Z" fill="black"/>
<path fill-rule="evenodd" clip-rule="evenodd" d="M225.074 221.173C228.178 221.974 226.632 228.802 224.022 229.272C220.95 229.825 220.414 224.273 221.021 222.266C222.603 223.205 221.624 226.557 223.616 225.631C224.883 225.041 224.691 222.315 225.074 221.173Z" fill="black"/>
</svg>
