<svg width="620" height="405" viewBox="0 0 620 405" fill="none" xmlns="http://www.w3.org/2000/svg">
<path d="M620 0H0V405H620V0Z" fill="#FDF074"/>
<path fill-rule="evenodd" clip-rule="evenodd" d="M499.159 239.593L172.016 346.626L225.027 15.9426L499.159 239.593Z" fill="white"/>
<path fill-rule="evenodd" clip-rule="evenodd" d="M253.18 170.514C260.52 172.667 267.782 175.198 275.061 177.587C275.88 177.856 275.878 177.901 276.61 177.416C278.602 176.096 280.632 174.843 282.686 173.642C288.879 170.021 295.245 167.123 302.065 165.28C306.898 163.973 311.813 162.937 316.743 162.176C316.242 163.872 315.269 165.641 314.067 166.836C313.135 167.762 311.864 168.268 310.712 168.765C307.288 170.241 303.704 171.274 300.339 172.915C296.906 174.59 294.738 178.07 294.086 182.108C293.964 182.864 293.972 182.979 294.536 183.36C295.167 183.787 295.935 184.038 296.632 184.299C302.226 186.394 308.126 187.684 313.91 188.956C316.981 189.631 320.063 190.258 323.161 190.764C325.083 191.078 327.115 191.499 329.067 191.373C337.435 190.837 342.395 179.884 344.845 172.476C352.406 176.98 361.08 179.859 369.548 181.247C379.817 182.931 392.753 183.024 400.87 174.703C404.736 170.74 407.11 165.373 408.854 159.969C403.165 159.432 397.501 158.494 391.859 157.545C390.874 157.379 389.889 157.21 388.905 157.039C388.509 156.97 387.9 156.725 387.495 156.79C386.88 156.888 386.086 157.621 385.542 157.946C381.367 160.438 377.051 162.723 372.572 164.476C370.173 165.415 367.681 166.246 365.136 166.524C362.407 166.823 359.612 166.209 356.976 165.476C350.363 163.638 343.446 160.527 337.931 156.045C336.589 158.148 334.168 159.573 331.858 158.558C329.329 157.446 327.923 154.531 326.568 152.133C326.075 151.26 325.144 151.254 324.226 150.996C321.662 150.277 319.067 149.691 316.458 149.204C307.893 147.606 299.085 147.064 290.44 148.166C282.004 149.242 273.699 152.234 266.261 156.732C263.025 158.689 259.875 160.956 257.186 163.757C255.488 165.526 253.504 167.841 253.18 170.514Z" fill="#FDF074"/>
<path fill-rule="evenodd" clip-rule="evenodd" d="M278.663 109.676C281.31 110.651 283.699 112.083 286.032 113.75C287.169 114.562 288.307 115.513 289.563 116.089C290.679 116.599 291.896 116.831 293.042 117.251C298.175 119.13 303.745 119.508 308.965 117.701C314.285 115.86 318.802 111.905 324.304 110.664C329.671 109.454 335.128 109.722 340.282 111.913C342.785 112.977 344.895 114.765 347.031 116.506C349.078 118.175 351.226 119.821 352.81 122.048C354.367 124.236 355.265 126.958 355.95 129.605C356.346 131.132 356.528 132.709 356.5 134.297C356.48 135.408 355.946 136.481 356.26 137.555C356.701 139.061 357.343 140.168 357.177 141.845C357.044 143.195 356.486 144.359 355.613 145.306C354.718 146.279 353.647 146.947 352.453 147.368C351.551 147.688 351.265 147.607 350.741 146.742C349.272 148.204 348.223 150.052 346.383 151.017C345.469 151.497 344.533 151.728 343.527 151.798C342.764 151.852 342.065 151.876 341.421 152.386C340.745 152.921 338.274 155.309 339.219 156.248C339.771 156.796 341.057 156.905 341.758 157.22C342.74 157.66 343.684 158.201 344.575 158.833C347.833 161.147 351.077 162.591 354.845 163.626C358.757 164.701 362.701 165.283 366.737 165.299C370.403 165.314 374.244 165.007 377.644 163.375C379.276 162.592 380.851 161.553 382.185 160.252C383.518 158.954 384.335 157.15 385.704 155.942C386.59 155.16 385.77 153.956 385.497 152.883C384.94 150.7 384.514 148.215 384.345 145.957C384.181 143.764 383.906 141.577 383.552 139.408C383.177 137.107 382.394 134.966 381.842 132.719C381.434 131.062 381.024 129.118 381.497 127.426C381.731 126.587 382.251 125.7 382.989 125.3C383.65 124.942 384.057 125.284 384.649 125.245C386.386 125.133 387.727 125.912 389.037 127.186C389.745 127.874 390.566 128.477 391.24 129.198C391.765 129.759 391.889 130.663 392.449 131.161C393.367 128.584 394.329 125.308 397.443 126.782C399.907 127.948 400.224 132.329 401.419 134.614C402.091 134.005 402.166 132.807 402.428 131.959C402.698 131.082 403.154 130.155 403.796 129.534C405.2 128.178 406.911 128.723 407.877 130.347C408.394 131.215 408.086 132.212 408.599 133.069C409.107 133.919 408.948 134.913 409.156 135.903C409.419 137.158 409.737 138.395 409.949 139.665C410.048 140.251 410.19 140.913 410.165 141.515C410.155 141.765 409.971 142.195 410.028 142.441C410.101 142.763 410.45 143.054 410.577 143.373C410.749 143.801 410.686 144.113 410.705 144.555C410.74 145.351 410.934 146.004 411.142 146.791C411.666 148.771 411.533 151.278 410.757 153.153C410.355 154.125 410.073 154.832 409.954 155.873C409.877 156.544 409.416 157.156 409.444 157.878C409.483 158.883 411.927 160.433 409.997 161.099C409.191 161.378 409.019 161.232 408.799 162.244C408.58 163.25 408.332 164.227 407.974 165.185C407.214 167.217 406.09 169.036 405.029 170.886C403.881 172.889 402.675 174.825 400.979 176.318C399.406 177.703 397.603 178.83 395.807 179.827C392.024 181.927 387.815 183.1 383.567 182.986C379.038 182.865 374.444 183.335 369.955 182.489C365.36 181.623 360.876 180.19 356.299 179.228C354.243 178.796 352.326 178.325 350.456 177.258C348.558 176.176 346.664 175.071 344.928 173.691C343.731 176.844 343.087 180.13 341.372 183.03C339.875 185.561 338.07 187.941 335.86 189.756C333.701 191.53 330.88 192.856 328.162 192.97C327.332 193.005 326.057 192.604 325.462 193.292C325.164 193.635 325.134 194.319 325.016 194.76C324.815 195.512 324.523 196.245 324.362 197.008C324.116 198.166 325.105 198.184 325.971 198.653C327.132 199.284 328.267 199.972 329.39 200.681C330.537 201.406 331.631 202.239 332.78 202.953C333.767 203.565 334.785 204.038 335.735 204.732C337.98 206.372 340.44 207.466 342.85 208.764C345.431 210.154 347.941 211.705 350.477 213.189C355.5 216.131 360.538 219.183 365.281 222.649C367.494 224.268 369.623 225.952 371.893 227.483C374.01 228.91 376.427 230.582 377.775 232.924C378.827 234.75 380.337 235.615 382.075 236.611C383.099 237.198 383.733 237.309 384.565 236.349C385.381 235.406 386.17 234.469 387.032 233.57C390.564 229.884 393.586 225.85 396.531 221.606C398.718 218.455 401.717 214.672 405.733 215.362C406.937 215.569 407.737 216.185 408.627 217.052C409.231 217.641 410.323 218.025 410.726 218.787C410.959 219.227 411.056 219.791 411.29 220.252C411.536 220.735 411.84 221.206 412.004 221.733C412.281 222.627 411.684 224.046 412.28 224.773C412.716 225.306 412.31 226.56 412.191 227.162C411.971 228.275 411.784 229.405 411.436 230.48C411.162 231.327 410.893 232.486 410.316 233.147C409.801 233.736 409.197 233.678 409.331 234.699C408.774 234.495 408.295 235.962 408.138 236.332C407.715 237.326 407.254 238.143 406.574 238.967C404.854 241.05 402.885 242.459 400.655 243.783C399.841 244.266 398.154 244.938 397.965 246.055C397.783 247.127 398.34 247.998 397.949 249.143C397.135 251.525 395.307 254.038 393.814 255.96C392.472 257.689 391.17 258.844 389.017 258.438C387.11 258.079 385.223 257.009 383.636 255.822C381.725 254.392 379.699 253.317 377.635 252.183C376.619 251.625 375.603 251.109 374.722 250.307C373.904 249.561 373.194 248.722 372.245 248.168C371.569 247.773 370.687 247.494 370.405 246.616C370.098 245.658 370.659 245.06 371.136 244.374C371.457 243.913 371.634 243.842 371.357 243.472C371.136 243.176 370.53 242.926 370.225 242.746C369.488 242.311 368.751 241.931 367.963 242.409C367.085 242.942 366.484 244.044 365.825 244.845C365.036 245.805 364.149 246.679 363.284 247.554C361.567 249.291 359.686 250.846 358.01 252.623C357.626 253.029 356.871 254.059 356.238 253.864C355.771 253.72 356.017 253.415 355.776 253.18C355.517 252.928 355.297 252.925 354.965 252.651C354.139 251.972 353.887 250.668 353.021 249.964C352.132 249.241 351.033 248.721 350.069 248.126C345.672 245.409 341.388 242.478 337.368 239.119C335.353 237.435 333.449 235.607 331.496 233.838C330.578 233.006 329.646 232.093 328.624 231.416C327.691 230.799 326.656 230.368 325.706 229.776C323.671 228.508 321.495 227.537 319.481 226.228C318.534 225.613 317.832 224.786 316.951 224.1C316.18 223.5 315.538 223.144 314.964 222.27C314.691 222.93 313.943 222.069 313.673 221.867C313.46 221.707 313.188 221.595 312.991 221.412C312.792 221.229 312.672 220.821 312.521 220.693C312.188 220.411 311.8 220.475 311.352 220.298C310.753 220.062 309.963 219.433 309.503 218.952C309.184 218.62 309.704 218.881 309.166 218.474C308.915 218.284 308.486 218.233 308.204 218.032C307.536 217.555 306.922 216.943 306.284 216.416C305.128 215.463 303.633 214.596 302.977 213.11C299.453 216.293 296.049 219.746 292.002 222.128C288.093 224.429 283.571 225.473 279.397 227.06C275.102 228.693 270.764 230.335 266.397 231.719C264.274 232.391 262.085 232.875 259.915 233.329C257.689 233.796 255.494 233.657 253.261 233.92C252.163 234.05 251.064 234.008 249.966 234.125C248.955 234.233 247.975 234.515 246.972 234.662C246.087 234.791 245.089 234.682 244.238 234.946C243.614 235.14 242.789 235.829 242.332 234.933C241.997 235.485 241.891 235.224 241.454 235.189C240.989 235.151 240.849 235.174 240.394 235.269C239.653 235.425 238.836 235.485 238.207 234.845C237.919 235.992 235.132 234.949 234.799 234.191C234.425 235.405 231.038 234.358 230.989 233.219C230.948 232.254 231.53 230.868 231.771 229.962C232.163 228.483 232.649 227.037 233.157 225.603C233.695 224.086 234.246 222.574 234.799 221.063C235.042 220.4 235.271 219.725 235.548 219.078C235.684 218.76 236.038 218.287 236.033 217.92C236.015 216.848 234.268 216.772 233.53 216.504C232.971 216.302 232.404 216.089 231.873 215.808C231.488 215.605 231.026 215.137 230.6 215.073C229.623 214.924 229.844 216.139 229.738 216.886C229.602 217.847 229.121 218.341 228.195 218.348C227.114 218.356 224.03 216.312 223.449 217.87C223.176 218.6 223.25 220.001 223.15 220.785C222.986 222.071 223.051 223.35 223.211 224.633C223.474 226.744 224.342 229.415 223.365 231.439C221.415 235.482 214.651 233.046 212.493 230.501C209.314 226.754 209.407 221.139 210.93 216.602C211.67 214.395 212.743 212.031 214.146 210.236C214.769 209.439 215.955 208.67 216.16 207.574C216.331 206.665 215.689 205.828 215.824 204.897C215.985 203.792 216.835 203.121 217.564 202.451C218.323 201.753 219.061 200.993 219.925 200.452C221.926 199.202 224.195 199.957 226.185 200.875C228.36 201.878 230.444 203.225 232.387 204.69C233.348 205.415 234.164 206.068 235.305 206.419C236.179 206.688 237.063 206.952 237.941 207.205C238.77 207.443 239.469 207.621 240.051 206.833C240.691 205.966 240.903 205.615 242.011 205.578C243.192 205.538 244.373 205.611 245.552 205.66C245.801 205.671 246.367 205.585 246.563 205.814C246.738 206.017 246.485 206.441 246.648 206.57C246.905 206.773 248.367 204.502 248.492 206.341C248.572 205.448 249.424 205.88 249.899 205.998C250.072 206.041 250.244 206.091 250.415 206.133C250.601 206.065 250.755 206.117 250.877 206.289C251.072 206.335 251.204 206.253 251.273 206.044C253.337 206.011 255.418 206.154 257.487 206.142C259.879 206.128 262.285 206.102 264.654 205.721C265.532 205.58 266.411 205.385 267.29 205.267C267.693 205.213 268.031 205.26 268.424 205.289C268.568 205.319 268.698 205.384 268.815 205.485C268.875 205.355 268.964 205.257 269.083 205.19C270.588 204.705 272.136 204.376 273.665 203.953C274.736 203.657 275.633 203.429 276.699 203.345L276.901 203.331L277.329 203.47C277.392 203.302 277.494 203.171 277.635 203.077C277.982 202.921 278.277 202.86 278.652 202.818C280.142 202.651 281.605 202.668 283.014 202.428C283.756 202.302 286.467 201.84 286.967 202.649C287.35 201.664 290.111 203.005 290.919 202.423C289.665 200.541 289.118 198.528 288.763 196.253C288.376 193.775 288.133 191.167 288.705 188.699C289.233 186.424 290.381 184.089 291.952 182.489C293.47 180.941 293.826 179.09 294.839 177.18C296.95 173.2 300.428 170.769 304.302 169.3C306.412 168.501 308.557 167.835 310.685 167.101C312.413 166.504 313.861 165.65 314.735 163.825C307.375 163.825 300.332 166.335 293.593 169.379C290.241 170.894 286.904 172.47 283.592 174.091C281.907 174.915 280.24 175.798 278.668 176.863L278.233 177.157C277.727 177.502 277.223 177.855 276.751 178.252C276.638 178.347 276.023 178.741 275.987 178.873C275.706 179.897 277.254 181.544 277.656 182.423C278.203 183.619 278.739 185.018 278.806 186.367C278.886 187.98 277.951 188.787 276.51 188.456C274.747 188.051 273.412 186.435 272.012 185.312C271.7 186.343 272.103 187.529 272.322 188.533C272.622 189.911 272.92 191.31 273.133 192.707C273.434 194.683 273.22 196.913 271.432 197.949C266.876 200.587 264.554 193.626 263.629 190.149C263.003 190.645 263.076 192.462 262.961 193.222C262.74 194.684 262.487 196.253 261.896 197.596C261.444 198.624 260.675 199.824 259.544 199.935C258.317 200.055 257.328 198.895 256.779 197.825C255.829 195.976 255.605 193.914 255.53 191.841C255.514 191.384 255.634 187.156 255.214 187.036C253.98 189.467 253.292 192.171 251.842 194.49C250.571 196.523 248.659 197.901 246.941 195.551C244.28 191.912 245.132 186.653 246.222 182.559C246.856 180.178 247.718 177.906 248.881 175.777C249.364 174.893 249.947 174.231 250.546 173.452C251.04 172.81 251.23 172.509 251.017 171.769C250.893 171.338 250.776 171.322 250.886 170.845C250.966 170.503 251.204 170.082 251.341 169.764C251.731 168.856 252.14 167.959 252.617 167.103C253.638 165.272 255.028 163.749 256.489 162.337L256.635 162.196L256.628 162.203C256.534 162.298 257.218 161.726 257.204 161.725L257.2 161.726L257.218 161.714C257.47 161.533 257.566 160.937 257.853 161.469L257.874 161.509C257.918 160.727 258.518 160.282 259.031 159.844C259.223 159.68 259.414 159.454 259.646 159.356C259.808 159.288 260.184 159.355 260.301 159.26C260.529 159.076 260.64 158.711 260.857 158.494C261.073 158.277 261.373 158.175 261.619 158.01C262.224 157.604 262.78 157.107 263.37 156.674C264.622 155.755 265.931 154.927 267.271 154.172C270.091 152.584 273.084 151.306 276.08 150.18C278.719 149.186 281.455 148.266 284.167 147.543C286.95 146.8 289.875 146.985 292.717 146.679C298.51 146.057 304.625 146.182 310.415 146.804C313.253 147.108 316.074 147.585 318.873 148.18C321.588 148.757 324.411 149.414 326.822 150.975C327.336 151.308 328.264 152.374 328.867 152.335C329.374 152.302 329.814 151.273 330.052 150.868C330.618 149.905 331.33 149.02 331.811 148.006C332.403 146.756 332.707 145.352 333.152 144.037C331.086 144.35 328.916 144.553 326.933 143.683C325.138 142.894 323.928 141.319 322.586 139.865C321.174 138.333 319.66 137.294 317.639 137.154C315.346 136.994 313.279 137.899 311.17 138.742C306.714 140.523 302.259 142.48 297.674 143.824C295.433 144.481 293.129 144.999 290.807 145.116C289.624 145.175 288.428 145.117 287.258 145.357C286.774 145.456 286.628 145.539 286.245 145.304C286.297 145.336 285.757 144.349 285.65 144.733C285.546 145.103 285.715 145.393 285.42 145.672C285.074 146 284.322 145.84 283.92 145.802C283.319 145.746 282.84 145.522 282.261 145.372C281.366 145.141 280.363 145.293 279.451 145.167C279.027 145.109 278.719 144.991 278.338 144.862C277.939 144.727 278.196 144.744 277.785 144.687C277.42 144.636 277.214 144.688 276.773 144.531C276.378 144.39 276.013 144.293 275.61 144.189C275.24 144.095 274.942 143.925 274.599 143.814C275.03 143.953 274.044 143.523 274.087 143.638L274.091 143.645L274.087 143.641C273.98 143.508 273.856 143.242 273.644 143.2L273.6 143.195C274.298 144.373 271.231 143.128 271.028 143.06C269.333 142.493 267.597 141.206 265.826 141.088C264.097 140.972 262.42 142.268 261.028 143.229C259.347 144.389 257.674 145.559 255.999 146.732C252.298 149.323 248.29 151.64 244.136 153.215C242.116 153.981 240.045 154.595 237.996 155.259C237.072 155.558 236.063 155.68 235.18 156.109C234.583 156.399 233.723 157.267 233.12 156.498C232.877 157.171 231.697 157.136 231.197 157.157C231.12 157.16 231.244 157.321 231.068 157.308C230.809 157.288 230.739 157.011 230.535 156.953C230.121 156.836 230.078 157.012 229.667 157.186C229.133 157.412 229.235 157.216 228.763 157.163C228.493 157.132 228.207 157.295 227.936 157.305C227.826 157.309 227.682 157.107 227.523 157.11C227.37 157.113 227.011 157.314 226.809 157.348C226.302 157.432 225.705 157.376 225.193 157.351C224.462 157.315 217.132 156.596 217.658 154.911C216.777 155.806 214.731 154.344 213.812 153.879C213.469 153.706 213.447 153.538 213.254 153.343C213.308 153.109 213.216 153.005 212.981 153.03C212.93 153.023 212.88 153.017 212.829 153.011C212.425 152.784 212.282 152.789 211.96 152.392C211.531 151.862 210.742 151.383 210.519 150.693C210.46 150.507 210.523 150.187 210.462 150.041C210.385 149.855 210.18 149.876 210.133 149.725C210.117 149.672 210.196 149.324 210.19 149.318C209.819 148.977 209.296 149.139 208.866 148.729C207.679 147.596 206.962 145.323 206.62 143.708C205.727 139.486 205.422 135.241 207.156 131.248C207.999 129.306 209.031 127.46 210.171 125.713C210.486 125.229 210.817 124.592 211.219 124.184C211.4 124.001 211.636 123.963 211.724 123.853C212.194 123.268 212.438 122.516 213.068 121.947C213.77 121.313 214.461 120.662 215.236 120.137C215.947 119.656 216.832 119.345 217.484 118.895C217.663 118.771 217.602 118.576 217.796 118.429C218.002 118.274 218.268 118.262 218.501 118.186C218.778 118.096 219.121 117.931 219.409 117.904C219.945 117.853 220.125 118.022 220.53 118.441C220.53 116.829 223.229 116.604 224.321 116.601C224.825 116.6 227.357 116.351 227.308 117.2C227.885 116.362 229.638 116.985 230.401 117.237C231.316 117.538 231.895 118.275 232.483 119.063C232.592 118.814 232.701 118.564 232.81 118.314C232.976 118.442 233.54 118.655 233.358 118.993C234.018 118.353 233.646 118.88 234.211 118.994C234.459 119.044 234.673 118.943 234.934 118.909C234.956 119.288 234.806 119.411 234.593 119.675C235.104 119.686 237.07 119.461 235.615 120.168C235.81 120.551 236.732 120.416 237.057 120.468C237.229 120.495 237.657 120.505 237.76 120.643C237.828 120.734 237.709 120.986 237.724 121.008C237.863 121.215 237.574 121.321 237.859 121.381C237.929 121.396 238.151 121.151 238.201 121.152C238.57 121.158 238.311 121.078 238.702 121.14C238.84 121.162 239.105 121.335 239.283 121.375C241.956 121.976 245.223 119.713 247.165 117.961C249.486 115.868 251.506 113.63 254.296 112.271C256.996 110.957 260.002 109.92 262.871 109.169C268.176 107.779 273.444 107.754 278.663 109.676ZM346.189 243.631C346.275 243.681 346.361 243.731 346.447 243.781C346.569 243.713 346.691 243.645 346.813 243.577C346.463 243.394 346.439 243.314 346.189 243.631ZM374.677 235.293C374.034 235.739 373.482 236.747 372.919 237.348C372.129 238.192 371.302 238.995 370.477 239.797C371.428 240.16 372.808 241.628 373.837 240.963C374.346 240.634 374.668 239.665 374.991 239.151C375.49 238.356 376.073 237.609 376.66 236.891C377.264 236.15 375.351 234.825 374.677 235.293ZM314.393 220.054C314.648 220.172 315.206 220.848 314.947 221.085C314.685 220.752 314.333 220.51 314.393 220.054ZM232.552 209.35C232.086 209.792 231.561 210.716 231.237 211.297C230.872 211.952 230.859 212.282 231.417 212.719C232.494 213.564 234.059 213.812 235.309 214.206C235.976 214.417 236.801 214.946 237.368 214.277C237.929 213.615 237.93 212.381 238.183 211.56C238.387 210.895 238.606 210.236 238.818 209.574C237.64 209.704 236.456 209.713 235.298 209.423C234.457 209.213 233.295 208.644 232.552 209.35ZM252.896 173.945C251.945 175.365 251.096 176.869 250.348 178.429C249.11 181.012 248.148 183.753 247.539 186.596C247.107 188.609 246.476 191.44 247.462 193.372C249.611 197.581 253.972 185.432 254.638 184.162C255.034 183.405 255.65 182.593 256.331 183.566C256.89 184.364 256.708 185.644 256.734 186.584C256.811 189.378 256.456 192.724 257.472 195.352C257.806 196.215 258.689 197.461 259.686 197.069C260.579 196.718 261.026 195.025 261.302 194.153C262.176 191.395 262.796 188.024 262.825 185.105C262.83 184.519 262.352 180.642 263.585 181.5C264.392 182.061 264.359 184.782 264.438 185.673C264.744 189.152 265.369 195.06 269.295 195.645C270.159 195.774 271.137 195.549 271.643 194.695C272.272 193.633 271.64 192.206 271.419 191.09C271.039 189.166 270.609 187.183 270.571 185.203C270.548 183.989 270.657 181.97 272.207 182.439C274.076 183.003 274.867 185.691 276.965 185.781C276.967 185.24 276.695 184.799 276.464 184.347C275.718 182.887 274.357 181.635 273.897 180.019C273.746 179.489 273.903 178.692 273.605 178.25C273.322 177.833 272.686 177.726 272.26 177.631C269.425 177.002 266.639 176.15 263.818 175.424C260.802 174.648 258.005 173.81 255.181 172.445C253.908 171.829 253.618 172.867 252.896 173.945ZM320.521 195.736C320.938 195.953 321.35 196.179 321.771 196.385C322.137 196.564 322.281 196.421 322.427 196.045C322.163 195.985 320.675 195.404 320.521 195.736ZM302.662 148.607C297.268 148.78 291.996 148.856 286.68 149.982C284.138 150.521 281.645 151.145 279.152 151.909C278.099 152.232 277.171 152.569 276.252 153.213C275.911 153.453 275.007 154.204 274.868 153.345C274.414 153.824 273.528 155.284 272.803 154.473C272.675 155.059 272.278 155.041 271.891 155.241C271.755 155.311 271.681 155.549 271.505 155.636C271.461 155.658 271.447 155.322 271.382 155.317C271.151 155.297 270.969 155.832 270.836 155.969C270.516 156.296 270.216 156.446 269.792 156.565C269.607 156.633 269.419 156.676 269.225 156.695C268.997 156.798 268.861 156.724 268.816 156.474C268.502 156.479 268.272 156.605 267.943 156.769C268.653 156.948 267.458 157.145 267.299 157.165C267.279 157.748 267.733 157.379 268.026 157.499C267.891 158.232 266.656 158.791 266.148 159.15C266.061 158.947 265.974 158.744 265.887 158.541C265.747 158.691 265.638 158.863 265.56 159.057C265.508 159.293 265.356 159.374 265.104 159.302C264.868 159.507 264.833 159.412 264.689 159.701C264.539 160.001 264.981 160.585 264.339 160.334C264.339 161.33 263.497 160.726 263.645 160.467C263.008 160.4 262.736 161.681 262.808 162.181C262.503 161.849 262.317 161.891 262.011 162.15L261.984 162.173L262 162.161C262.235 161.986 261.993 162.701 262.014 162.693L262.017 162.69C261.371 163.627 261.432 162.578 261.632 162.025C261.194 162.218 261.111 162.741 260.759 163.036C260.446 163.298 260.358 163.176 260.089 163.215C259.674 163.276 259.799 162.901 259.618 163.403C259.541 163.616 259.657 163.997 259.657 164.23C259.837 163.959 259.769 163.532 260.094 163.377C259.997 164.16 258.612 166.85 258.03 165.265C257.463 165.698 258.087 166.172 257.716 166.752C257.439 166.459 257.373 165.992 257.404 165.592C257.23 165.846 257.236 166.167 257.1 166.424C256.958 166.692 256.809 166.714 256.741 167.005C256.637 167.448 256.991 167.231 256.804 167.7C256.71 167.936 256.271 168.142 256.097 168.275C255.491 168.739 254.878 169.277 255.467 170.049C256.388 171.258 258.816 171.396 260.12 171.599C262.9 172.032 265.609 172.752 268.349 173.418C269.998 173.819 271.614 174.266 273.232 174.802C274.393 175.186 275.998 175.425 276.611 176.747C279.85 173.343 284.168 171.566 288.165 169.524C292.494 167.313 296.964 165.26 301.55 163.782C305.616 162.471 309.786 161.974 313.987 161.522C315.094 161.403 316.8 161.098 317.787 161.846C318.396 162.307 318.424 163.006 317.958 163.624C317.705 163.958 317.433 163.871 317.278 164.468C317.159 164.929 317.224 165.278 317.334 165.735C317.054 165.493 316.552 165.637 316.409 165.211L316.395 165.164L316.382 165.214C316.19 166.045 317.526 166.16 317.117 167.156L317.09 167.217C316.948 167.521 316.948 166.545 316.823 166.538C316.484 166.519 316.206 167.389 316.067 167.631C316.698 167.631 316.458 168.135 316.119 168.389C315.878 168.571 315.47 168.624 315.19 168.774C314.63 169.074 314.138 169.514 313.564 169.8C312.936 170.114 312.383 170.133 311.759 170.32C311.662 170.348 311.279 170.506 311.24 170.51C311.187 170.515 311.175 170.693 311.13 170.7C310.731 170.762 310.43 170.355 310.043 170.521C309.895 170.584 309.972 170.981 309.844 171.071C309.702 171.171 309.301 171.044 309.13 171.033C308.718 171.007 308.654 170.948 308.327 171.158C307.765 171.519 307.479 172.007 306.721 172.095C306.129 172.165 305.747 172.042 305.183 172.286C304.613 172.533 304.073 172.588 303.517 172.753C303.446 172.774 303.427 173.039 303.37 173.058C303.186 173.118 302.966 173.072 302.79 173.131C302.387 173.268 302.059 173.39 301.684 173.635C300.036 174.711 298.223 176.328 296.931 177.88C296.341 178.588 294.696 180.373 295.233 181.399C295.577 182.057 296.765 182.376 297.358 182.654C298.242 183.069 299.156 183.371 300.049 183.755C301.16 184.233 302.168 184.975 303.301 185.391C304.395 185.792 305.565 185.871 306.695 186.086C311.583 187.013 316.372 188.504 321.264 189.428C323.946 189.935 326.685 190.541 329.409 190.063C331.81 189.641 334.109 188.473 336.027 186.842C339.517 183.873 341.949 179.657 343.172 175.02C343.425 174.062 343.478 171.666 344.293 171.08C344.972 170.591 345.328 171.667 345.768 172.092C346.484 172.783 347.533 173.05 348.394 173.443C350.526 174.418 352.463 175.447 354.715 176.107C357 176.775 359.316 177.299 361.625 177.85C366.306 178.967 370.774 180.024 375.585 180.041C380.346 180.058 385.125 180.255 389.833 179.29C393.952 178.447 398.094 176.143 401.173 173.015C402.727 171.435 403.926 169.44 405.149 167.554C405.805 166.543 406.414 165.494 406.926 164.386C407.303 163.572 407.95 162.392 408.016 161.469C408.075 160.643 407.636 160.76 406.887 160.676C405.733 160.547 404.575 160.464 403.421 160.334C401.094 160.072 398.774 159.737 396.448 159.465C394.074 159.187 391.715 158.811 389.409 158.119C388.719 157.912 388.209 157.652 387.723 158.388C387.409 158.863 387.415 159.945 386.759 159.15C385.5 160.899 383.659 161.946 381.938 163.043C380.077 164.23 378.267 165.537 376.294 166.495C372.042 168.561 367.358 168.398 362.845 167.736C358.261 167.063 353.616 166.195 349.308 164.277C347.332 163.397 345.634 162.059 343.862 160.781C343.027 160.18 342.162 159.685 341.276 159.184C340.277 158.618 339.666 157.781 338.763 157.128C338.154 159.308 335.812 160.057 333.962 160.154C331.653 160.276 329.786 159.064 328.385 157.094C327.223 155.459 326.997 153.014 325.197 152.119C323.143 151.098 320.736 150.693 318.539 150.218C313.377 149.103 307.921 148.437 302.662 148.607ZM330.041 165.367C330.621 165.652 332.309 167.787 330.97 167.818C330.119 167.838 329.618 166.664 328.678 166.842C328.257 166.922 327.626 167.082 327.523 167.44C327.264 168.331 328.457 168.905 328.972 169.152C329.766 169.533 330.419 169.917 330.852 170.788C331.518 172.128 331.692 174.295 330.135 174.894C328.978 175.34 327.532 174.994 326.39 174.644C325.427 174.349 324.692 173.254 325.135 172.166C325.261 171.858 325.597 171.315 325.989 171.519C326.3 171.681 326.148 171.987 326.244 172.262C326.626 173.361 329.486 174.929 330.145 173.267C330.948 171.24 327.895 170.63 326.962 169.952C325.758 169.076 325.726 167.578 326.645 166.433C327.451 165.43 328.87 164.792 330.041 165.367ZM335.085 172.235C335.037 172.713 334.977 173.208 334.902 173.681C334.837 174.092 334.84 174.524 334.41 174.673C334.127 174.771 333.851 174.44 333.578 174.66C333.275 174.904 333.42 173.131 333.433 173.031C333.523 172.37 333.686 171.028 334.264 170.617C335.242 169.923 335.143 171.653 335.085 172.235ZM335.023 169.464C333.985 170.187 333.715 168.137 334.129 167.471C335.154 165.816 336.659 168.326 335.023 169.464ZM313.934 168.457C314.23 168.699 314.132 168.566 314.132 169.211C313.787 169.228 313.84 168.708 313.934 168.457ZM315.106 167.899C315.007 168.155 315.456 168.463 315.6 168.502C315.609 168.42 315.39 167.173 315.106 167.899ZM258.784 164.154C258.508 164.594 258.664 164.864 259.103 164.691L259.139 164.676L258.784 164.154ZM264.331 159.925L264.068 160.047C263.944 160.178 263.821 160.308 263.697 160.438C264.058 160.36 264.309 160.42 264.331 159.925ZM265.786 159.307C265.606 158.901 264.984 159.706 264.97 159.894C265.115 159.8 265.997 159.779 265.786 159.307ZM266.37 157.874C266.219 158.107 266.25 158.295 266.462 158.436C266.639 158.177 266.773 157.893 266.864 157.586C266.628 157.397 266.454 157.652 266.37 157.874ZM385.382 128.916C384.927 129.141 385.165 129.914 385.21 130.334C385.421 132.33 385.757 134.306 385.965 136.302C386.257 139.109 386.299 141.95 386.778 144.732C387.215 147.269 387.952 149.733 388.341 152.282C388.601 153.987 388.104 155.958 389.954 156.475C391.617 156.94 393.514 156.965 395.219 157.17C397.416 157.433 399.616 157.563 401.823 157.68C402.867 157.736 403.944 157.75 404.978 157.924C405.587 158.027 406.345 158.471 406.814 157.851C407.27 157.248 407.271 155.714 407.413 154.944C407.601 153.928 407.77 152.907 407.862 151.874C408.07 149.536 407.764 147.22 407.482 144.905C407.179 142.41 406.946 139.903 406.632 137.41C406.43 135.803 406.453 133.208 405.447 131.911C404.53 134.922 404.282 138.119 404.236 141.277C404.226 141.955 403.822 145.851 402.75 143.951C402.452 143.423 402.447 143.122 401.984 142.675C401.506 142.215 401.339 141.847 401.178 141.15C400.885 139.887 400.838 138.777 400.205 137.641C398.917 135.331 398.395 132.47 396.478 130.605C396.458 132.773 396.173 135.118 396.54 137.26C396.771 138.606 397.715 140.543 396.936 141.874C396.548 142.538 396.323 142.34 395.866 142.007C395.574 141.793 395.618 141.693 395.251 141.479C394.9 141.275 394.624 141.285 394.292 141C393.116 139.991 393.023 138.239 392.639 136.788C391.791 133.585 388.859 131.607 386.614 129.626C386.37 129.41 385.758 128.731 385.382 128.916ZM341.078 135.405C339.357 136.161 337.582 136.449 335.753 136.022C335.755 136.464 336.335 137.182 335.887 137.436C335.78 137.497 335.17 137.207 335.052 137.173C334.392 136.985 333.503 136.661 332.813 136.815C332.084 136.979 332.109 137.499 332.586 138.087C333.255 138.913 334.935 138.947 334.954 140.318C334.962 140.911 334.63 141.653 334.559 142.265C334.453 143.179 334.337 144.086 334.141 144.984C333.805 146.527 333.262 147.996 332.614 149.411C332.056 150.631 331.378 151.902 330.339 152.699C329.661 153.218 329.922 152.984 330.055 153.75C330.144 154.262 330.129 154.644 329.527 154.518C329.412 154.479 329.297 154.44 329.182 154.401C330.594 156.946 334.165 158.55 336.61 156.851C335.579 155.938 336.978 154.345 337.569 153.67C338.454 152.658 339.381 151.495 340.33 150.572C341.783 149.159 343.684 149.846 345.403 149.252C347.142 148.65 348.408 147.293 349.532 145.776C350.534 144.425 351.861 142.771 351.997 140.943C352.023 140.584 351.865 140.165 351.923 139.826C351.981 139.481 352.171 139.436 352.27 139.21C352.474 138.744 352.523 138.265 352.555 137.733C352.661 135.994 352.158 135.721 350.674 135.272C349.808 135.01 348.932 134.805 348.065 134.549C347.238 134.305 346.5 133.835 345.685 133.574C343.968 133.022 342.59 134.742 341.078 135.405ZM345.502 146.329C346.868 147.24 344.715 147.823 343.921 147.42C342.848 146.876 344.74 145.82 345.502 146.329ZM348.074 138.756C349.313 140.384 350.691 143.693 347.977 144.363C347.139 144.57 345.843 144.904 345.001 144.65C343.798 144.288 344.112 142.562 345.312 142.486C346.023 142.441 347.655 143.059 348.077 142.151C348.306 141.659 347.785 140.876 347.706 140.385C347.604 139.752 347.697 139.247 348.074 138.756ZM274.091 143.645L274.092 143.647C274.096 143.653 274.103 143.661 274.113 143.671L274.117 143.675L274.108 143.666L274.091 143.645ZM350.529 139.338C351.39 139.336 350.963 141.346 350.536 141.689C349.769 142.305 349.442 139.34 350.529 139.338ZM344.855 140.853C343.856 140.987 344.081 138.359 344.991 138.278C346.186 138.172 346.01 140.7 344.855 140.853ZM353.494 136.492C353.375 136.759 353.466 139.367 353.753 139.416C353.83 138.779 353.787 138.139 353.779 137.499L353.778 137.337C353.784 137.347 353.831 135.736 353.494 136.492Z" fill="black"/>
<path fill-rule="evenodd" clip-rule="evenodd" d="M459.08 170.514C466.421 172.667 473.682 175.198 480.961 177.587C481.78 177.856 481.778 177.901 482.51 177.416C484.502 176.096 486.532 174.843 488.586 173.642C494.779 170.021 501.146 167.123 507.965 165.28C512.799 163.973 517.713 162.937 522.643 162.176C522.142 163.872 521.169 165.641 519.967 166.836C519.035 167.762 517.764 168.268 516.612 168.765C513.189 170.241 509.604 171.274 506.239 172.915C502.807 174.59 500.638 178.07 499.987 182.108C499.865 182.864 499.872 182.979 500.436 183.36C501.068 183.787 501.836 184.038 502.532 184.299C508.127 186.394 514.026 187.684 519.81 188.956C522.881 189.631 525.963 190.258 529.061 190.764C530.983 191.078 533.015 191.499 534.968 191.373C543.335 190.837 548.295 179.884 550.745 172.476C558.306 176.98 566.98 179.859 575.448 181.247C585.718 182.931 598.653 183.024 606.77 174.703C610.636 170.74 613.01 165.373 614.754 159.969C609.065 159.432 603.401 158.494 597.759 157.545C596.774 157.379 595.789 157.21 594.805 157.039C594.409 156.97 593.801 156.725 593.396 156.79C592.781 156.888 591.987 157.621 591.442 157.946C587.267 160.438 582.951 162.723 578.473 164.476C576.073 165.415 573.581 166.246 571.037 166.524C568.307 166.823 565.512 166.209 562.876 165.476C556.264 163.638 549.346 160.527 543.831 156.045C542.489 158.148 540.068 159.573 537.759 158.558C535.23 157.446 533.824 154.531 532.468 152.133C531.975 151.26 531.045 151.254 530.127 150.996C527.563 150.277 524.967 149.691 522.359 149.204C513.793 147.606 504.986 147.064 496.34 148.166C487.905 149.242 479.599 152.234 472.161 156.732C468.926 158.689 465.775 160.956 463.086 163.757C461.388 165.526 459.404 167.841 459.08 170.514Z" fill="white"/>
<path fill-rule="evenodd" clip-rule="evenodd" d="M484.563 109.676C487.211 110.651 489.599 112.083 491.933 113.75C493.07 114.562 494.207 115.513 495.464 116.089C496.579 116.599 497.797 116.831 498.943 117.251C504.076 119.13 509.645 119.508 514.865 117.701C520.186 115.86 524.702 111.905 530.205 110.664C535.571 109.454 541.029 109.722 546.182 111.913C548.685 112.977 550.796 114.765 552.932 116.506C554.979 118.175 557.126 119.821 558.711 122.048C560.267 124.236 561.165 126.958 561.851 129.605C562.246 131.132 562.429 132.709 562.4 134.297C562.381 135.408 561.846 136.481 562.161 137.555C562.601 139.061 563.243 140.168 563.078 141.845C562.944 143.195 562.386 144.359 561.514 145.306C560.618 146.279 559.547 146.947 558.354 147.368C557.451 147.688 557.166 147.607 556.641 146.742C555.172 148.204 554.123 150.052 552.283 151.017C551.37 151.497 550.434 151.728 549.427 151.798C548.665 151.852 547.965 151.876 547.321 152.386C546.645 152.921 544.174 155.309 545.12 156.248C545.671 156.796 546.958 156.905 547.659 157.22C548.641 157.66 549.584 158.201 550.475 158.833C553.734 161.147 556.977 162.591 560.745 163.626C564.657 164.701 568.601 165.283 572.637 165.299C576.303 165.314 580.145 165.007 583.544 163.375C585.176 162.592 586.751 161.553 588.086 160.252C589.418 158.954 590.236 157.15 591.604 155.942C592.49 155.16 591.671 153.956 591.397 152.883C590.841 150.7 590.415 148.215 590.245 145.957C590.081 143.764 589.807 141.577 589.453 139.408C589.077 137.107 588.295 134.966 587.742 132.719C587.335 131.062 586.925 129.118 587.397 127.426C587.632 126.587 588.151 125.7 588.89 125.3C589.551 124.942 589.958 125.284 590.55 125.245C592.286 125.133 593.627 125.912 594.938 127.186C595.646 127.874 596.466 128.477 597.141 129.198C597.665 129.759 597.79 130.663 598.349 131.161C599.267 128.584 600.229 125.308 603.344 126.782C605.807 127.948 606.124 132.329 607.32 134.614C607.991 134.005 608.067 132.807 608.328 131.959C608.599 131.082 609.054 130.155 609.697 129.534C611.1 128.178 612.812 128.723 613.778 130.347C614.294 131.215 613.987 132.212 614.499 133.069C615.008 133.919 614.849 134.913 615.057 135.903C615.32 137.158 615.638 138.395 615.85 139.665C615.948 140.251 616.091 140.913 616.066 141.515C616.055 141.765 615.872 142.195 615.928 142.441C616.002 142.763 616.35 143.054 616.478 143.373C616.65 143.801 616.586 144.113 616.606 144.555C616.641 145.351 616.835 146.004 617.042 146.791C617.566 148.771 617.433 151.278 616.658 153.153C616.256 154.125 615.974 154.832 615.854 155.873C615.777 156.544 615.317 157.156 615.345 157.878C615.383 158.883 617.828 160.433 615.898 161.099C615.092 161.378 614.919 161.232 614.699 162.244C614.481 163.25 614.233 164.227 613.875 165.185C613.114 167.217 611.99 169.036 610.929 170.886C609.781 172.889 608.576 174.825 606.879 176.318C605.306 177.703 603.503 178.83 601.708 179.827C597.925 181.927 593.715 183.1 589.468 182.986C584.939 182.865 580.344 183.335 575.856 182.489C571.26 181.623 566.776 180.19 562.2 179.228C560.143 178.796 558.227 178.325 556.356 177.258C554.458 176.176 552.565 175.071 550.828 173.691C549.632 176.844 548.988 180.13 547.273 183.03C545.776 185.561 543.97 187.941 541.76 189.756C539.601 191.53 536.781 192.856 534.062 192.97C533.233 193.005 531.958 192.604 531.363 193.292C531.065 193.635 531.034 194.319 530.916 194.76C530.715 195.512 530.424 196.245 530.262 197.008C530.017 198.166 531.005 198.184 531.871 198.653C533.033 199.284 534.167 199.972 535.29 200.681C536.437 201.406 537.531 202.239 538.68 202.953C539.667 203.565 540.686 204.038 541.636 204.732C543.881 206.372 546.34 207.466 548.751 208.764C551.331 210.154 553.841 211.705 556.377 213.189C561.4 216.131 566.439 219.183 571.181 222.649C573.395 224.268 575.523 225.952 577.793 227.483C579.911 228.91 582.328 230.582 583.676 232.924C584.727 234.75 586.237 235.615 587.976 236.611C589 237.198 589.634 237.309 590.465 236.349C591.282 235.406 592.071 234.469 592.933 233.57C596.465 229.884 599.486 225.85 602.432 221.606C604.619 218.455 607.617 214.672 611.634 215.362C612.838 215.569 613.637 216.185 614.528 217.052C615.132 217.641 616.224 218.025 616.627 218.787C616.859 219.227 616.957 219.791 617.191 220.252C617.436 220.735 617.741 221.206 617.905 221.733C618.182 222.627 617.584 224.046 618.18 224.773C618.616 225.306 618.211 226.56 618.092 227.162C617.872 228.275 617.685 229.405 617.337 230.48C617.063 231.327 616.794 232.486 616.216 233.147C615.701 233.736 615.097 233.678 615.232 234.699C614.675 234.495 614.195 235.962 614.038 236.332C613.616 237.326 613.155 238.143 612.474 238.967C610.755 241.05 608.786 242.459 606.555 243.783C605.742 244.266 604.054 244.938 603.865 246.055C603.684 247.127 604.24 247.998 603.849 249.143C603.036 251.525 601.207 254.038 599.715 255.96C598.372 257.689 597.07 258.844 594.918 258.438C593.01 258.079 591.124 257.009 589.536 255.822C587.625 254.392 585.6 253.317 583.536 252.183C582.52 251.625 581.503 251.109 580.623 250.307C579.804 249.561 579.094 248.722 578.146 248.168C577.47 247.773 576.587 247.494 576.306 246.616C575.999 245.658 576.56 245.06 577.037 244.374C577.357 243.913 577.534 243.842 577.258 243.472C577.037 243.176 576.43 242.926 576.126 242.746C575.389 242.311 574.652 241.931 573.864 242.409C572.985 242.942 572.384 244.044 571.726 244.845C570.937 245.805 570.05 246.679 569.185 247.554C567.468 249.29 565.587 250.846 563.91 252.623C563.527 253.029 562.771 254.059 562.139 253.864C561.671 253.72 561.917 253.415 561.676 253.18C561.417 252.928 561.197 252.925 560.865 252.651C560.04 251.972 559.788 250.668 558.922 249.964C558.032 249.241 556.933 248.721 555.97 248.126C551.572 245.409 547.288 242.478 543.269 239.119C541.253 237.435 539.349 235.607 537.397 233.838C536.478 233.006 535.546 232.093 534.524 231.416C533.592 230.799 532.556 230.368 531.606 229.776C529.572 228.508 527.395 227.537 525.381 226.228C524.435 225.613 523.733 224.786 522.852 224.1C522.081 223.5 521.439 223.144 520.865 222.27C520.592 222.93 519.844 222.069 519.574 221.867C519.361 221.707 519.088 221.595 518.891 221.412C518.693 221.229 518.573 220.821 518.422 220.693C518.088 220.411 517.701 220.475 517.253 220.298C516.654 220.062 515.864 219.433 515.404 218.952C515.085 218.62 515.605 218.881 515.066 218.474C514.816 218.284 514.386 218.233 514.105 218.032C513.436 217.555 512.823 216.943 512.185 216.416C511.029 215.463 509.534 214.596 508.878 213.11C505.353 216.293 501.95 219.746 497.902 222.128C493.993 224.429 489.471 225.473 485.297 227.06C481.002 228.693 476.665 230.335 472.298 231.719C470.175 232.391 467.986 232.875 465.816 233.329C463.59 233.796 461.395 233.657 459.161 233.92C458.063 234.05 456.964 234.008 455.867 234.125C454.856 234.233 453.876 234.515 452.872 234.662C451.987 234.791 450.989 234.682 450.139 234.946C449.514 235.14 448.69 235.829 448.233 234.933C447.898 235.485 447.791 235.224 447.355 235.189C446.89 235.151 446.75 235.174 446.294 235.269C445.554 235.425 444.736 235.485 444.107 234.845C443.82 235.992 441.032 234.949 440.7 234.191C440.325 235.405 436.939 234.358 436.89 233.219C436.848 232.254 437.431 230.868 437.671 229.962C438.064 228.483 438.55 227.037 439.058 225.603C439.595 224.086 440.146 222.574 440.699 221.063C440.942 220.4 441.172 219.725 441.449 219.078C441.585 218.76 441.939 218.287 441.933 217.92C441.916 216.848 440.169 216.772 439.43 216.504C438.872 216.302 438.304 216.089 437.774 215.808C437.389 215.605 436.927 215.137 436.5 215.073C435.524 214.924 435.745 216.139 435.639 216.886C435.503 217.847 435.021 218.341 434.095 218.348C433.014 218.356 429.931 216.312 429.349 217.87C429.076 218.6 429.15 220.001 429.051 220.785C428.886 222.071 428.951 223.35 429.112 224.633C429.375 226.744 430.242 229.415 429.266 231.439C427.315 235.482 420.552 233.046 418.393 230.501C415.214 226.754 415.307 221.139 416.83 216.602C417.571 214.395 418.644 212.031 420.047 210.236C420.67 209.439 421.855 208.67 422.061 207.574C422.232 206.665 421.589 205.828 421.724 204.897C421.885 203.792 422.735 203.121 423.464 202.451C424.223 201.753 424.961 200.993 425.826 200.452C427.827 199.202 430.096 199.957 432.085 200.875C434.26 201.878 436.344 203.225 438.287 204.69C439.249 205.415 440.065 206.068 441.205 206.419C442.08 206.688 442.963 206.952 443.842 207.205C444.671 207.443 445.369 207.621 445.951 206.833C446.592 205.966 446.804 205.615 447.912 205.578C449.092 205.538 450.273 205.611 451.452 205.66C451.702 205.671 452.267 205.585 452.464 205.814C452.639 206.017 452.385 206.441 452.548 206.57C452.806 206.773 454.268 204.502 454.393 206.341C454.473 205.448 455.324 205.88 455.799 205.998C455.972 206.041 456.145 206.091 456.316 206.133C456.501 206.065 456.655 206.117 456.777 206.289C456.973 206.335 457.105 206.253 457.174 206.044C459.237 206.011 461.319 206.154 463.387 206.142C465.779 206.128 468.185 206.102 470.555 205.721C471.433 205.58 472.311 205.385 473.19 205.267C473.593 205.213 473.932 205.26 474.325 205.289C474.468 205.319 474.598 205.384 474.715 205.485C474.775 205.355 474.864 205.257 474.983 205.19C476.488 204.705 478.036 204.376 479.566 203.953C480.636 203.657 481.534 203.429 482.6 203.345L482.801 203.331L483.23 203.47C483.292 203.302 483.394 203.171 483.535 203.077C483.883 202.921 484.178 202.86 484.552 202.818C486.043 202.651 487.505 202.668 488.914 202.428C489.656 202.302 492.367 201.84 492.867 202.649C493.251 201.664 496.011 203.005 496.82 202.423C495.565 200.541 495.019 198.528 494.664 196.253C494.277 193.775 494.034 191.167 494.606 188.699C495.133 186.424 496.282 184.089 497.852 182.489C499.37 180.941 499.727 179.09 500.74 177.18C502.851 173.2 506.328 170.769 510.203 169.3C512.312 168.501 514.457 167.835 516.585 167.101C518.314 166.504 519.761 165.65 520.635 163.825C513.275 163.825 506.233 166.335 499.494 169.379C496.141 170.894 492.804 172.47 489.493 174.091C487.808 174.915 486.141 175.798 484.568 176.863L484.134 177.157C483.627 177.502 483.124 177.855 482.651 178.252C482.538 178.347 481.924 178.741 481.887 178.873C481.606 179.897 483.154 181.544 483.556 182.423C484.103 183.619 484.639 185.018 484.707 186.367C484.787 187.98 483.851 188.787 482.41 188.456C480.647 188.051 479.313 186.435 477.913 185.312C477.601 186.343 478.004 187.529 478.222 188.533C478.522 189.911 478.82 191.31 479.033 192.707C479.335 194.683 479.121 196.913 477.333 197.949C472.777 200.587 470.454 193.626 469.529 190.149C468.904 190.645 468.977 192.462 468.862 193.222C468.641 194.684 468.387 196.253 467.797 197.596C467.344 198.624 466.576 199.824 465.445 199.935C464.218 200.055 463.229 198.895 462.679 197.825C461.73 195.976 461.506 193.914 461.431 191.841C461.414 191.384 461.534 187.156 461.115 187.036C459.88 189.467 459.192 192.171 457.742 194.49C456.471 196.523 454.559 197.901 452.841 195.551C450.181 191.912 451.032 186.653 452.122 182.559C452.756 180.178 453.619 177.906 454.782 175.777C455.264 174.893 455.848 174.231 456.447 173.452C456.94 172.81 457.13 172.509 456.917 171.769C456.793 171.338 456.676 171.322 456.787 170.845C456.866 170.503 457.105 170.082 457.241 169.764C457.631 168.856 458.04 167.959 458.518 167.103C459.539 165.272 460.929 163.749 462.389 162.337L462.536 162.196L462.529 162.203C462.435 162.298 463.118 161.726 463.104 161.725L463.1 161.726L463.118 161.714C463.371 161.533 463.466 160.937 463.753 161.469L463.774 161.509C463.819 160.727 464.418 160.282 464.932 159.844C465.123 159.68 465.315 159.454 465.547 159.356C465.709 159.288 466.085 159.355 466.202 159.26C466.43 159.076 466.541 158.711 466.757 158.494C466.974 158.277 467.273 158.175 467.52 158.01C468.125 157.604 468.68 157.107 469.27 156.674C470.523 155.755 471.831 154.927 473.172 154.172C475.992 152.584 478.985 151.306 481.98 150.18C484.62 149.186 487.356 148.266 490.067 147.543C492.85 146.8 495.775 146.985 498.617 146.679C504.41 146.057 510.525 146.182 516.315 146.804C519.153 147.108 521.975 147.585 524.774 148.18C527.488 148.757 530.312 149.414 532.723 150.975C533.237 151.308 534.165 152.374 534.767 152.335C535.274 152.302 535.714 151.273 535.953 150.868C536.519 149.905 537.231 149.02 537.712 148.006C538.304 146.756 538.607 145.352 539.053 144.037C536.987 144.35 534.817 144.553 532.834 143.683C531.038 142.894 529.828 141.319 528.487 139.865C527.074 138.333 525.561 137.294 523.54 137.154C521.247 136.994 519.179 137.899 517.07 138.742C512.615 140.523 508.16 142.48 503.574 143.824C501.333 144.481 499.029 144.999 496.707 145.116C495.525 145.175 494.328 145.117 493.159 145.357C492.674 145.456 492.529 145.539 492.145 145.304C492.197 145.336 491.657 144.349 491.55 144.733C491.447 145.103 491.616 145.393 491.321 145.672C490.974 146 490.222 145.84 489.821 145.802C489.219 145.746 488.74 145.522 488.161 145.372C487.266 145.141 486.263 145.293 485.351 145.167C484.927 145.109 484.62 144.991 484.239 144.862C483.839 144.727 484.097 144.744 483.685 144.687C483.321 144.636 483.114 144.688 482.673 144.531C482.279 144.39 481.914 144.293 481.511 144.189C481.141 144.095 480.843 143.925 480.499 143.814C480.931 143.953 479.944 143.523 479.987 143.638L479.991 143.645L479.988 143.641C479.881 143.508 479.757 143.242 479.544 143.2L479.501 143.195C480.198 144.373 477.132 143.128 476.928 143.06C475.234 142.493 473.498 141.206 471.726 141.088C469.998 140.972 468.321 142.268 466.929 143.229C465.248 144.389 463.574 145.559 461.9 146.732C458.198 149.323 454.19 151.64 450.036 153.215C448.016 153.981 445.946 154.595 443.896 155.259C442.972 155.558 441.963 155.68 441.08 156.109C440.483 156.399 439.623 157.267 439.02 156.498C438.777 157.171 437.598 157.136 437.098 157.157C437.021 157.16 437.144 157.321 436.968 157.308C436.709 157.288 436.64 157.011 436.436 156.953C436.021 156.836 435.978 157.012 435.567 157.186C435.034 157.412 435.135 157.216 434.663 157.163C434.393 157.132 434.107 157.295 433.837 157.305C433.727 157.309 433.582 157.107 433.423 157.11C433.27 157.113 432.912 157.314 432.709 157.348C432.202 157.432 431.605 157.376 431.094 157.351C430.362 157.315 423.033 156.596 423.559 154.911C422.677 155.806 420.631 154.344 419.712 153.879C419.37 153.706 419.348 153.538 419.155 153.343C419.208 153.109 419.117 153.005 418.881 153.03C418.831 153.023 418.78 153.017 418.73 153.011C418.326 152.784 418.182 152.789 417.86 152.392C417.432 151.862 416.642 151.383 416.42 150.693C416.36 150.507 416.423 150.187 416.363 150.041C416.285 149.855 416.081 149.876 416.034 149.725C416.017 149.672 416.096 149.324 416.09 149.318C415.719 148.977 415.197 149.139 414.767 148.729C413.579 147.596 412.863 145.323 412.521 143.708C411.627 139.486 411.322 135.241 413.057 131.248C413.9 129.306 414.932 127.46 416.072 125.713C416.387 125.229 416.717 124.592 417.12 124.184C417.3 124.001 417.537 123.963 417.625 123.853C418.095 123.268 418.339 122.516 418.969 121.947C419.67 121.313 420.362 120.662 421.137 120.137C421.848 119.656 422.733 119.345 423.385 118.895C423.564 118.771 423.502 118.576 423.696 118.429C423.902 118.274 424.169 118.262 424.402 118.186C424.679 118.096 425.022 117.931 425.309 117.904C425.846 117.853 426.026 118.022 426.43 118.441C426.43 116.829 429.13 116.604 430.222 116.601C430.725 116.6 433.257 116.351 433.209 117.2C433.785 116.362 435.539 116.985 436.302 117.237C437.217 117.538 437.796 118.275 438.383 119.063C438.492 118.814 438.601 118.564 438.71 118.314C438.877 118.442 439.44 118.655 439.259 118.993C439.918 118.353 439.546 118.88 440.111 118.994C440.359 119.044 440.573 118.943 440.834 118.909C440.856 119.288 440.706 119.411 440.493 119.675C441.005 119.686 442.971 119.461 441.516 120.168C441.71 120.551 442.633 120.416 442.957 120.468C443.129 120.495 443.558 120.505 443.66 120.643C443.728 120.734 443.609 120.986 443.624 121.008C443.763 121.215 443.475 121.321 443.76 121.381C443.83 121.396 444.051 121.151 444.101 121.152C444.47 121.158 444.211 121.078 444.603 121.14C444.741 121.162 445.006 121.335 445.183 121.375C447.856 121.976 451.124 119.713 453.066 117.961C455.387 115.868 457.407 113.63 460.197 112.271C462.896 110.957 465.903 109.92 468.772 109.169C474.076 107.779 479.344 107.754 484.563 109.676ZM552.089 243.631C552.176 243.681 552.261 243.731 552.347 243.781C552.469 243.713 552.592 243.645 552.714 243.577C552.363 243.394 552.339 243.314 552.089 243.631ZM580.577 235.293C579.934 235.739 579.382 236.747 578.819 237.348C578.029 238.192 577.203 238.995 576.378 239.797C577.329 240.16 578.708 241.628 579.737 240.963C580.247 240.634 580.569 239.665 580.891 239.151C581.39 238.356 581.974 237.609 582.56 236.891C583.165 236.15 581.251 234.825 580.577 235.293ZM520.294 220.054C520.549 220.172 521.107 220.848 520.848 221.085C520.585 220.752 520.233 220.51 520.294 220.054ZM438.452 209.35C437.987 209.792 437.462 210.716 437.138 211.297C436.773 211.952 436.76 212.282 437.317 212.719C438.395 213.564 439.96 213.812 441.21 214.206C441.877 214.417 442.701 214.946 443.268 214.277C443.829 213.615 443.831 212.381 444.083 211.56C444.288 210.895 444.506 210.236 444.719 209.574C443.541 209.704 442.356 209.713 441.198 209.423C440.358 209.213 439.195 208.644 438.452 209.35ZM458.796 173.945C457.845 175.365 456.997 176.869 456.249 178.429C455.011 181.012 454.049 183.753 453.439 186.596C453.007 188.609 452.376 191.44 453.362 193.372C455.511 197.581 459.873 185.432 460.539 184.162C460.935 183.405 461.55 182.593 462.231 183.566C462.79 184.364 462.608 185.644 462.634 186.584C462.711 189.378 462.357 192.724 463.373 195.352C463.706 196.215 464.589 197.461 465.586 197.069C466.48 196.718 466.926 195.025 467.203 194.153C468.077 191.395 468.697 188.024 468.725 185.105C468.731 184.519 468.252 180.642 469.486 181.5C470.293 182.061 470.26 184.782 470.338 185.673C470.645 189.152 471.27 195.06 475.195 195.645C476.059 195.774 477.038 195.549 477.544 194.695C478.173 193.633 477.54 192.206 477.32 191.09C476.94 189.166 476.51 187.183 476.472 185.203C476.449 183.989 476.557 181.97 478.108 182.439C479.977 183.003 480.767 185.691 482.866 185.781C482.868 185.24 482.596 184.799 482.365 184.347C481.618 182.886 480.258 181.635 479.798 180.019C479.647 179.489 479.804 178.692 479.505 178.25C479.223 177.833 478.586 177.726 478.16 177.631C475.326 177.002 472.539 176.15 469.718 175.424C466.702 174.648 463.906 173.81 461.081 172.445C459.809 171.829 459.518 172.867 458.796 173.945ZM526.422 195.736C526.838 195.953 527.251 196.179 527.672 196.385C528.038 196.564 528.182 196.421 528.327 196.045C528.063 195.985 526.576 195.404 526.422 195.736ZM508.562 148.607C503.169 148.78 497.896 148.856 492.58 149.982C490.038 150.521 487.546 151.145 485.053 151.909C484 152.232 483.071 152.569 482.153 153.213C481.811 153.453 480.907 154.204 480.769 153.345C480.314 153.824 479.429 155.284 478.703 154.473C478.576 155.059 478.179 155.041 477.792 155.241C477.655 155.311 477.581 155.549 477.406 155.636C477.362 155.658 477.347 155.322 477.283 155.317C477.052 155.297 476.869 155.832 476.736 155.969C476.416 156.296 476.116 156.446 475.692 156.565C475.508 156.633 475.319 156.676 475.126 156.695C474.898 156.798 474.761 156.724 474.716 156.474C474.402 156.479 474.172 156.605 473.843 156.769C474.553 156.948 473.358 157.145 473.2 157.165C473.18 157.748 473.634 157.379 473.927 157.499C473.791 158.232 472.556 158.791 472.048 159.15C471.962 158.947 471.875 158.744 471.788 158.541C471.647 158.691 471.538 158.863 471.461 159.057C471.408 159.293 471.256 159.374 471.005 159.302C470.769 159.507 470.734 159.412 470.589 159.701C470.439 160.001 470.882 160.585 470.239 160.334C470.239 161.33 469.398 160.726 469.545 160.467C468.908 160.4 468.637 161.681 468.708 162.181C468.404 161.849 468.217 161.891 467.911 162.15L467.884 162.173L467.9 162.161C468.136 161.986 467.894 162.701 467.915 162.693L467.918 162.69C467.271 163.627 467.332 162.578 467.532 162.025C467.094 162.218 467.011 162.741 466.66 163.036C466.347 163.298 466.259 163.176 465.989 163.215C465.575 163.276 465.7 162.901 465.518 163.403C465.441 163.616 465.558 163.997 465.558 164.23C465.738 163.959 465.67 163.532 465.994 163.377C465.897 164.16 464.512 166.85 463.93 165.265C463.364 165.698 463.988 166.172 463.616 166.752C463.339 166.459 463.273 165.992 463.304 165.592C463.13 165.846 463.136 166.167 463 166.424C462.858 166.692 462.71 166.714 462.641 167.005C462.537 167.448 462.892 167.231 462.705 167.7C462.611 167.936 462.171 168.142 461.998 168.275C461.392 168.739 460.779 169.277 461.367 170.049C462.289 171.258 464.716 171.396 466.02 171.599C468.8 172.032 471.51 172.752 474.249 173.418C475.899 173.819 477.514 174.266 479.132 174.802C480.294 175.186 481.899 175.425 482.512 176.747C485.75 173.343 490.068 171.566 494.065 169.524C498.394 167.313 502.864 165.26 507.45 163.782C511.516 162.471 515.687 161.974 519.887 161.522C520.994 161.403 522.701 161.098 523.687 161.846C524.296 162.307 524.325 163.006 523.858 163.624C523.606 163.958 523.333 163.871 523.179 164.468C523.059 164.929 523.125 165.278 523.234 165.735C522.954 165.493 522.453 165.637 522.309 165.211L522.295 165.164L522.282 165.214C522.091 166.045 523.427 166.16 523.017 167.156L522.99 167.217C522.849 167.521 522.848 166.545 522.724 166.538C522.385 166.519 522.107 167.389 521.968 167.631C522.598 167.631 522.358 168.135 522.02 168.389C521.778 168.571 521.371 168.624 521.09 168.774C520.531 169.074 520.039 169.514 519.465 169.8C518.836 170.114 518.284 170.133 517.659 170.32C517.563 170.348 517.179 170.506 517.141 170.51C517.088 170.515 517.076 170.693 517.031 170.7C516.632 170.762 516.33 170.355 515.944 170.521C515.796 170.584 515.873 170.981 515.744 171.071C515.603 171.171 515.202 171.044 515.03 171.033C514.618 171.007 514.555 170.948 514.228 171.158C513.666 171.519 513.38 172.007 512.622 172.095C512.03 172.165 511.648 172.042 511.084 172.286C510.513 172.533 509.973 172.588 509.417 172.753C509.347 172.774 509.328 173.039 509.271 173.058C509.087 173.118 508.867 173.072 508.691 173.131C508.287 173.268 507.96 173.39 507.585 173.635C505.937 174.711 504.124 176.328 502.832 177.88C502.242 178.588 500.597 180.373 501.133 181.399C501.477 182.057 502.666 182.376 503.258 182.654C504.142 183.069 505.056 183.371 505.95 183.755C507.061 184.233 508.068 184.975 509.202 185.391C510.295 185.792 511.466 185.871 512.595 186.086C517.484 187.013 522.273 188.504 527.164 189.428C529.847 189.935 532.585 190.541 535.31 190.063C537.711 189.641 540.01 188.473 541.928 186.842C545.418 183.873 547.85 179.657 549.073 175.02C549.325 174.062 549.378 171.666 550.193 171.08C550.872 170.591 551.228 171.667 551.669 172.092C552.385 172.783 553.433 173.05 554.295 173.443C556.426 174.418 558.363 175.447 560.616 176.107C562.9 176.775 565.216 177.299 567.525 177.85C572.206 178.967 576.674 180.024 581.486 180.041C586.247 180.058 591.026 180.255 595.734 179.29C599.852 178.447 603.995 176.143 607.073 173.015C608.628 171.435 609.827 169.44 611.049 167.554C611.705 166.543 612.315 165.494 612.827 164.386C613.203 163.572 613.85 162.392 613.917 161.469C613.976 160.643 613.537 160.76 612.787 160.676C611.634 160.547 610.476 160.464 609.322 160.334C606.994 160.072 604.675 159.737 602.348 159.465C599.974 159.187 597.616 158.811 595.309 158.119C594.62 157.912 594.11 157.652 593.623 158.388C593.309 158.863 593.315 159.945 592.66 159.15C591.401 160.899 589.559 161.946 587.839 163.043C585.977 164.23 584.168 165.537 582.194 166.495C577.943 168.561 573.258 168.398 568.746 167.736C564.162 167.063 559.516 166.195 555.208 164.277C553.232 163.397 551.535 162.059 549.763 160.781C548.928 160.18 548.062 159.685 547.176 159.184C546.177 158.618 545.567 157.781 544.663 157.128C544.054 159.308 541.713 160.057 539.863 160.154C537.554 160.276 535.687 159.064 534.286 157.094C533.123 155.459 532.897 153.014 531.097 152.119C529.044 151.098 526.637 150.693 524.439 150.218C519.278 149.103 513.822 148.437 508.562 148.607ZM535.941 165.367C536.522 165.652 538.21 167.787 536.87 167.818C536.019 167.838 535.519 166.664 534.579 166.842C534.157 166.922 533.527 167.082 533.423 167.44C533.165 168.331 534.357 168.905 534.873 169.152C535.666 169.533 536.319 169.917 536.753 170.788C537.418 172.128 537.593 174.295 536.036 174.894C534.879 175.34 533.433 174.994 532.29 174.644C531.328 174.349 530.593 173.254 531.036 172.166C531.161 171.858 531.498 171.315 531.889 171.519C532.2 171.681 532.049 171.987 532.144 172.262C532.527 173.361 535.387 174.929 536.046 173.267C536.849 171.24 533.795 170.63 532.863 169.952C531.658 169.076 531.626 167.578 532.546 166.433C533.351 165.43 534.77 164.792 535.941 165.367ZM540.986 172.235C540.938 172.713 540.878 173.208 540.802 173.681C540.737 174.092 540.74 174.524 540.311 174.673C540.027 174.771 539.751 174.44 539.478 174.66C539.176 174.904 539.32 173.131 539.334 173.031C539.423 172.37 539.586 171.028 540.165 170.617C541.143 169.923 541.044 171.653 540.986 172.235ZM540.923 169.464C539.885 170.187 539.616 168.137 540.029 167.471C541.054 165.816 542.56 168.326 540.923 169.464ZM519.834 168.457C520.131 168.699 520.033 168.566 520.033 169.211C519.688 169.228 519.74 168.708 519.834 168.457ZM521.007 167.899C520.907 168.155 521.356 168.462 521.501 168.502C521.51 168.42 521.291 167.173 521.007 167.899ZM464.685 164.154C464.409 164.594 464.565 164.864 465.004 164.691L465.04 164.676L464.685 164.154ZM470.232 159.925L469.969 160.047C469.845 160.178 469.721 160.308 469.598 160.438C469.959 160.36 470.209 160.42 470.232 159.925ZM471.687 159.307C471.506 158.901 470.885 159.706 470.871 159.894C471.016 159.8 471.898 159.779 471.687 159.307ZM472.27 157.874C472.119 158.107 472.15 158.295 472.363 158.436C472.539 158.177 472.673 157.893 472.764 157.586C472.529 157.397 472.354 157.652 472.27 157.874ZM591.283 128.916C590.828 129.141 591.066 129.914 591.11 130.334C591.321 132.33 591.657 134.306 591.866 136.302C592.158 139.109 592.199 141.95 592.678 144.732C593.115 147.269 593.852 149.733 594.242 152.282C594.502 153.987 594.005 155.958 595.855 156.475C597.518 156.94 599.414 156.965 601.12 157.17C603.317 157.433 605.517 157.563 607.723 157.68C608.768 157.736 609.844 157.75 610.878 157.924C611.488 158.027 612.246 158.471 612.715 157.851C613.17 157.248 613.172 155.714 613.314 154.944C613.502 153.928 613.67 152.907 613.762 151.874C613.971 149.536 613.664 147.22 613.383 144.905C613.079 142.41 612.846 139.903 612.533 137.41C612.33 135.803 612.353 133.208 611.348 131.911C610.431 134.922 610.182 138.119 610.136 141.277C610.126 141.955 609.723 145.851 608.651 143.951C608.353 143.423 608.348 143.122 607.884 142.675C607.407 142.215 607.24 141.847 607.078 141.15C606.786 139.887 606.739 138.777 606.106 137.641C604.818 135.331 604.296 132.47 602.378 130.605C602.359 132.773 602.074 135.118 602.441 137.26C602.671 138.606 603.616 140.543 602.837 141.874C602.449 142.538 602.224 142.34 601.767 142.007C601.474 141.793 601.519 141.693 601.151 141.479C600.8 141.275 600.524 141.285 600.192 141C599.017 139.991 598.924 138.239 598.54 136.788C597.692 133.585 594.76 131.607 592.515 129.626C592.27 129.41 591.659 128.731 591.283 128.916ZM546.979 135.405C545.258 136.161 543.483 136.449 541.654 136.022C541.655 136.464 542.235 137.182 541.787 137.436C541.68 137.497 541.071 137.207 540.952 137.173C540.293 136.985 539.404 136.661 538.714 136.815C537.984 136.979 538.01 137.499 538.486 138.087C539.156 138.913 540.836 138.947 540.855 140.318C540.863 140.911 540.531 141.653 540.459 142.265C540.353 143.179 540.237 144.086 540.042 144.984C539.706 146.527 539.162 147.996 538.515 149.411C537.957 150.631 537.278 151.902 536.239 152.699C535.562 153.218 535.823 152.984 535.956 153.75C536.045 154.262 536.03 154.644 535.428 154.518C535.312 154.479 535.197 154.44 535.082 154.401C536.494 156.946 540.066 158.55 542.511 156.851C541.48 155.938 542.879 154.345 543.47 153.67C544.355 152.658 545.282 151.495 546.231 150.572C547.683 149.159 549.585 149.846 551.303 149.252C553.043 148.65 554.308 147.293 555.432 145.776C556.434 144.425 557.762 142.771 557.897 140.943C557.924 140.584 557.766 140.165 557.823 139.826C557.882 139.481 558.072 139.436 558.171 139.21C558.374 138.744 558.423 138.265 558.456 137.733C558.561 135.994 558.059 135.721 556.574 135.272C555.709 135.01 554.832 134.805 553.966 134.549C553.138 134.305 552.401 133.835 551.585 133.574C549.869 133.022 548.491 134.742 546.979 135.405ZM551.403 146.329C552.768 147.24 550.616 147.823 549.821 147.42C548.748 146.876 550.64 145.82 551.403 146.329ZM553.975 138.756C555.214 140.384 556.592 143.693 553.878 144.363C553.04 144.57 551.744 144.904 550.901 144.65C549.698 144.288 550.012 142.562 551.213 142.486C551.924 142.441 553.555 143.059 553.978 142.151C554.207 141.659 553.686 140.876 553.607 140.385C553.505 139.752 553.598 139.247 553.975 138.756ZM479.991 143.645L479.992 143.647C479.997 143.653 480.003 143.661 480.013 143.671L480.018 143.675L480.009 143.666L479.991 143.645ZM556.429 139.338C557.29 139.336 556.863 141.346 556.436 141.689C555.67 142.305 555.343 139.34 556.429 139.338ZM550.756 140.853C549.757 140.987 549.982 138.359 550.892 138.278C552.086 138.172 551.91 140.7 550.756 140.853ZM559.395 136.492C559.275 136.759 559.367 139.367 559.653 139.416C559.73 138.779 559.687 138.139 559.679 137.499L559.678 137.337C559.685 137.347 559.732 135.736 559.395 136.492Z" fill="black"/>
<path fill-rule="evenodd" clip-rule="evenodd" d="M47.2787 170.514C54.6195 172.667 61.8806 175.198 69.1599 177.587C69.9788 177.856 69.9766 177.901 70.709 177.416C72.7011 176.096 74.7311 174.843 76.7845 173.642C82.9778 170.021 89.3444 167.123 96.1638 165.28C100.997 163.973 105.912 162.937 110.842 162.176C110.341 163.872 109.368 165.641 108.166 166.836C107.234 167.762 105.963 168.268 104.811 168.765C101.387 170.241 97.8026 171.274 94.4375 172.915C91.0053 174.59 88.837 178.07 88.1853 182.108C88.0634 182.864 88.0707 182.979 88.6345 183.36C89.2664 183.787 90.0345 184.038 90.7312 184.299C96.3255 186.394 102.225 187.684 108.009 188.956C111.08 189.631 114.162 190.258 117.26 190.764C119.182 191.078 121.214 191.499 123.166 191.373C131.534 190.837 136.494 179.884 138.944 172.476C146.505 176.98 155.179 179.859 163.647 181.247C173.916 182.931 186.852 183.024 194.969 174.703C198.835 170.74 201.209 165.373 202.953 159.969C197.264 159.432 191.6 158.494 185.958 157.545C184.973 157.379 183.988 157.21 183.004 157.039C182.608 156.97 181.999 156.725 181.594 156.79C180.98 156.888 180.186 157.621 179.641 157.946C175.466 160.438 171.15 162.723 166.672 164.476C164.272 165.415 161.78 166.246 159.236 166.524C156.506 166.823 153.711 166.209 151.075 165.476C144.463 163.638 137.545 160.527 132.03 156.045C130.688 158.148 128.267 159.573 125.957 158.558C123.428 157.446 122.022 154.531 120.667 152.133C120.174 151.26 119.243 151.254 118.325 150.996C115.761 150.277 113.166 149.691 110.557 149.204C101.992 147.606 93.1843 147.064 84.5393 148.166C76.1034 149.242 67.7983 152.234 60.36 156.732C57.1243 158.689 53.9738 160.956 51.2852 163.757C49.587 165.526 47.6027 167.841 47.2787 170.514Z" fill="white"/>
<path fill-rule="evenodd" clip-rule="evenodd" d="M72.762 109.676C75.4096 110.651 77.798 112.083 80.1313 113.75C81.2683 114.562 82.4058 115.513 83.6623 116.089C84.7779 116.599 85.9957 116.831 87.1414 117.251C92.2744 119.13 97.8441 119.508 103.064 117.701C108.385 115.86 112.901 111.905 118.404 110.664C123.77 109.454 129.228 109.722 134.381 111.913C136.884 112.977 138.995 114.765 141.13 116.506C143.177 118.175 145.325 119.821 146.909 122.048C148.466 124.236 149.364 126.958 150.05 129.605C150.445 131.132 150.627 132.709 150.599 134.297C150.579 135.408 150.045 136.481 150.359 137.555C150.8 139.061 151.442 140.168 151.276 141.845C151.143 143.195 150.585 144.359 149.712 145.306C148.817 146.279 147.746 146.947 146.552 147.368C145.65 147.688 145.364 147.607 144.84 146.742C143.371 148.204 142.322 150.052 140.482 151.017C139.568 151.497 138.633 151.728 137.626 151.798C136.863 151.852 136.164 151.876 135.52 152.386C134.844 152.921 132.373 155.309 133.318 156.248C133.87 156.796 135.156 156.905 135.858 157.22C136.839 157.66 137.783 158.201 138.674 158.833C141.932 161.147 145.176 162.591 148.944 163.626C152.856 164.701 156.8 165.283 160.836 165.299C164.502 165.314 168.343 165.007 171.743 163.375C173.375 162.592 174.95 161.553 176.285 160.252C177.617 158.954 178.434 157.15 179.803 155.942C180.689 155.16 179.869 153.956 179.596 152.883C179.039 150.7 178.613 148.215 178.444 145.957C178.28 143.764 178.006 141.577 177.651 139.408C177.276 137.107 176.493 134.966 175.941 132.719C175.533 131.062 175.123 129.118 175.596 127.426C175.83 126.587 176.35 125.7 177.089 125.3C177.749 124.942 178.156 125.284 178.748 125.245C180.485 125.133 181.826 125.912 183.136 127.186C183.845 127.874 184.665 128.477 185.339 129.198C185.864 129.759 185.988 130.663 186.548 131.161C187.466 128.584 188.428 125.308 191.542 126.782C194.006 127.948 194.323 132.329 195.518 134.614C196.19 134.005 196.265 132.807 196.527 131.959C196.797 131.082 197.253 130.155 197.895 129.534C199.299 128.178 201.01 128.723 201.976 130.347C202.493 131.215 202.185 132.212 202.698 133.069C203.206 133.919 203.048 134.913 203.255 135.903C203.518 137.158 203.836 138.395 204.049 139.665C204.147 140.251 204.289 140.913 204.264 141.515C204.254 141.765 204.07 142.195 204.127 142.441C204.201 142.763 204.549 143.054 204.677 143.373C204.849 143.801 204.785 144.113 204.804 144.555C204.84 145.351 205.033 146.004 205.241 146.791C205.765 148.771 205.632 151.278 204.857 153.153C204.454 154.125 204.173 154.832 204.053 155.873C203.976 156.544 203.515 157.156 203.543 157.878C203.582 158.883 206.026 160.433 204.096 161.099C203.29 161.378 203.118 161.232 202.898 162.244C202.679 163.25 202.432 164.227 202.073 165.185C201.313 167.217 200.189 169.036 199.128 170.886C197.98 172.889 196.774 174.825 195.078 176.318C193.505 177.703 191.702 178.83 189.906 179.827C186.123 181.927 181.914 183.1 177.667 182.986C173.137 182.865 168.543 183.335 164.055 182.489C159.459 181.623 154.975 180.19 150.398 179.228C148.342 178.796 146.426 178.325 144.555 177.258C142.657 176.176 140.763 175.071 139.027 173.691C137.831 176.844 137.186 180.13 135.471 183.03C133.974 185.561 132.169 187.941 129.959 189.756C127.8 191.53 124.979 192.856 122.261 192.97C121.432 193.005 120.156 192.604 119.561 193.292C119.263 193.635 119.233 194.319 119.115 194.76C118.914 195.512 118.622 196.245 118.461 197.008C118.215 198.166 119.204 198.184 120.07 198.653C121.232 199.284 122.366 199.972 123.489 200.681C124.636 201.406 125.73 202.239 126.879 202.953C127.866 203.565 128.885 204.038 129.834 204.732C132.079 206.372 134.539 207.466 136.949 208.764C139.53 210.154 142.04 211.705 144.576 213.189C149.599 216.131 154.637 219.183 159.38 222.649C161.594 224.268 163.722 225.952 165.992 227.483C168.109 228.91 170.527 230.582 171.875 232.924C172.926 234.75 174.436 235.615 176.174 236.611C177.199 237.198 177.832 237.309 178.664 236.349C179.481 235.406 180.27 234.469 181.131 233.57C184.663 229.884 187.685 225.85 190.631 221.606C192.817 218.455 195.816 214.672 199.832 215.362C201.036 215.569 201.836 216.185 202.726 217.052C203.331 217.641 204.422 218.025 204.825 218.787C205.058 219.227 205.155 219.791 205.389 220.252C205.635 220.735 205.939 221.206 206.103 221.733C206.38 222.627 205.783 224.046 206.379 224.773C206.815 225.306 206.409 226.56 206.29 227.162C206.07 228.275 205.883 229.405 205.535 230.48C205.261 231.327 204.992 232.486 204.415 233.147C203.9 233.736 203.296 233.678 203.431 234.699C202.873 234.495 202.394 235.962 202.237 236.332C201.814 237.326 201.353 238.143 200.673 238.967C198.953 241.05 196.984 242.459 194.754 243.783C193.94 244.266 192.253 244.938 192.064 246.055C191.883 247.127 192.439 247.998 192.048 249.143C191.234 251.525 189.406 254.038 187.913 255.96C186.571 257.689 185.269 258.844 183.116 258.438C181.209 258.079 179.322 257.009 177.735 255.822C175.824 254.392 173.799 253.317 171.734 252.183C170.718 251.625 169.702 251.109 168.821 250.307C168.003 249.561 167.293 248.722 166.344 248.168C165.669 247.773 164.786 247.494 164.504 246.616C164.197 245.658 164.758 245.06 165.235 244.374C165.556 243.913 165.733 243.842 165.456 243.472C165.235 243.176 164.629 242.926 164.324 242.746C163.587 242.311 162.851 241.931 162.063 242.409C161.184 242.942 160.583 244.044 159.924 244.845C159.135 245.805 158.249 246.679 157.383 247.554C155.667 249.29 153.786 250.846 152.109 252.623C151.725 253.029 150.97 254.059 150.337 253.864C149.87 253.72 150.116 253.415 149.875 253.18C149.616 252.928 149.396 252.925 149.064 252.651C148.238 251.972 147.986 250.668 147.121 249.964C146.231 249.241 145.132 248.721 144.169 248.126C139.771 245.409 135.487 242.478 131.467 239.119C129.452 237.435 127.548 235.607 125.596 233.838C124.677 233.006 123.745 232.093 122.723 231.416C121.79 230.799 120.755 230.368 119.805 229.776C117.771 228.508 115.594 227.537 113.58 226.228C112.633 225.613 111.931 224.786 111.051 224.1C110.279 223.5 109.637 223.144 109.063 222.27C108.791 222.93 108.042 222.069 107.772 221.867C107.559 221.707 107.287 221.595 107.09 221.412C106.891 221.229 106.771 220.821 106.621 220.693C106.287 220.411 105.899 220.475 105.451 220.298C104.852 220.062 104.063 219.433 103.602 218.952C103.284 218.62 103.803 218.881 103.265 218.474C103.015 218.284 102.585 218.233 102.303 218.032C101.635 217.555 101.022 216.943 100.383 216.416C99.2275 215.463 97.7326 214.596 97.0764 213.11C93.5519 216.293 90.1483 219.746 86.1009 222.128C82.1917 224.429 77.67 225.473 73.496 227.06C69.2011 228.693 64.8634 230.335 60.4965 231.719C58.3735 232.391 56.1843 232.875 54.0144 233.329C51.7886 233.796 49.5935 233.657 47.3601 233.92C46.2622 234.05 45.1628 234.008 44.0653 234.125C43.0546 234.233 42.0743 234.515 41.0707 234.662C40.186 234.791 39.1881 234.682 38.3373 234.946C37.713 235.14 36.8885 235.829 36.4313 234.933C36.0963 235.485 35.9899 235.224 35.5536 235.189C35.0884 235.151 34.9483 235.174 34.4929 235.269C33.7522 235.425 32.9348 235.485 32.3061 234.845C32.0184 235.992 29.2308 234.949 28.8982 234.191C28.5238 235.405 25.1375 234.358 25.0884 233.219C25.0472 232.254 25.6295 230.868 25.8699 229.962C26.2622 228.483 26.7484 227.037 27.2565 225.603C27.794 224.086 28.3451 222.574 28.898 221.063C29.1409 220.4 29.3704 219.725 29.6476 219.078C29.7837 218.76 30.1376 218.287 30.1318 217.92C30.1146 216.848 28.3676 216.772 27.629 216.504C27.0703 216.302 26.5031 216.089 25.9725 215.808C25.5874 215.605 25.1252 215.137 24.699 215.073C23.7224 214.924 23.9436 216.139 23.8375 216.886C23.7012 217.847 23.2197 218.341 22.2941 218.348C21.2129 218.356 18.1295 216.312 17.5478 217.87C17.2751 218.6 17.3491 220.001 17.2492 220.785C17.085 222.071 17.1502 223.35 17.3103 224.633C17.5733 226.744 18.4411 229.415 17.4642 231.439C15.5138 235.482 8.75067 233.046 6.59198 230.501C3.41292 226.754 3.5057 221.139 5.02899 216.602C5.76967 214.395 6.84266 212.031 8.24529 210.236C8.86843 209.439 10.0538 208.67 10.2595 207.574C10.4303 206.665 9.78798 205.828 9.92314 204.897C10.0837 203.792 10.9341 203.121 11.663 202.451C12.4217 201.753 13.16 200.993 14.0246 200.452C16.0254 199.202 18.2945 199.957 20.2837 200.875C22.4589 201.878 24.5427 203.225 26.4857 204.69C27.4476 205.415 28.2633 206.068 29.4038 206.419C30.2783 206.688 31.1617 206.952 32.0403 207.205C32.8693 207.443 33.568 207.621 34.1499 206.833C34.7902 205.966 35.0023 205.615 36.1105 205.578C37.2908 205.538 38.472 205.611 39.6511 205.66C39.9003 205.671 40.4659 205.585 40.6623 205.814C40.8374 206.017 40.5838 206.441 40.7469 206.57C41.0042 206.773 42.4664 204.502 42.5915 206.341C42.6714 205.448 43.5231 205.88 43.998 205.998C44.1708 206.041 44.3432 206.091 44.5143 206.133C44.6998 206.065 44.8542 206.117 44.9762 206.289C45.1713 206.335 45.3034 206.253 45.3723 206.044C47.4357 206.011 49.5173 206.154 51.5859 206.142C53.9781 206.128 56.3839 206.102 58.7536 205.721C59.6314 205.58 60.5097 205.385 61.3891 205.267C61.7921 205.213 62.1302 205.26 62.5234 205.289C62.6668 205.319 62.7969 205.384 62.9137 205.485C62.9737 205.355 63.0632 205.257 63.1818 205.19C64.6868 204.705 66.2351 204.376 67.7644 203.953C68.8349 203.657 69.7324 203.429 70.7982 203.345L71.0001 203.331L71.4283 203.47C71.491 203.302 71.5929 203.171 71.7341 203.077C72.0816 202.921 72.3766 202.86 72.7511 202.818C74.2416 202.651 75.704 202.668 77.1129 202.428C77.8549 202.302 80.566 201.84 81.0661 202.649C81.4494 201.664 84.2101 203.005 85.0186 202.423C83.764 200.541 83.2174 198.528 82.8623 196.253C82.4754 193.775 82.2323 191.167 82.8046 188.699C83.3318 186.424 84.4806 184.089 86.0508 182.489C87.5691 180.941 87.9253 179.09 88.9385 177.18C91.0493 173.2 94.527 170.769 98.4012 169.3C100.511 168.501 102.656 167.835 104.784 167.101C106.513 166.504 107.96 165.65 108.834 163.825C101.474 163.825 94.4315 166.335 87.6925 169.379C84.3401 170.894 81.0027 172.47 77.6916 174.091C76.0062 174.915 74.3395 175.798 72.7672 176.863L72.3326 177.157C71.8258 177.502 71.3223 177.855 70.8498 178.252C70.7371 178.347 70.1222 178.741 70.0861 178.873C69.8051 179.897 71.3531 181.544 71.755 182.423C72.3021 183.619 72.8381 185.018 72.9054 186.367C72.9855 187.98 72.0501 188.787 70.6087 188.456C68.8458 188.051 67.5112 186.435 66.1115 185.312C65.7993 186.343 66.2025 187.529 66.4211 188.533C66.7208 189.911 67.0188 191.31 67.232 192.707C67.5333 194.683 67.3192 196.913 65.5314 197.949C60.9756 200.587 58.653 193.626 57.7279 190.149C57.1025 190.645 57.1754 192.462 57.0603 193.222C56.8393 194.684 56.5857 196.253 55.9954 197.596C55.5431 198.624 54.7745 199.824 53.6433 199.935C52.4164 200.055 51.4275 198.895 50.878 197.825C49.9283 195.976 49.7044 193.914 49.6294 191.841C49.6127 191.384 49.7332 187.156 49.3134 187.036C48.0792 189.467 47.3907 192.171 45.9408 194.49C44.6702 196.523 42.7581 197.901 41.0402 195.551C38.3796 191.912 39.2309 186.653 40.3209 182.559C40.9547 180.178 41.8174 177.906 42.9805 175.777C43.4627 174.893 44.0464 174.231 44.6452 173.452C45.139 172.81 45.329 172.509 45.116 171.769C44.992 171.338 44.8747 171.322 44.9853 170.845C45.0649 170.503 45.3036 170.082 45.4398 169.764C45.8297 168.856 46.239 167.959 46.7165 167.103C47.7373 165.272 49.1272 163.749 50.5879 162.337L50.7347 162.196L50.7276 162.203C50.6335 162.298 51.3169 161.726 51.3028 161.725L51.2991 161.726L51.3171 161.714C51.5692 161.533 51.6651 160.937 51.952 161.469L51.9728 161.509C52.0176 160.727 52.6167 160.282 53.1306 159.844C53.3219 159.68 53.5133 159.454 53.7457 159.356C53.9074 159.288 54.2834 159.355 54.4005 159.26C54.6282 159.076 54.7395 158.711 54.9558 158.494C55.1726 158.277 55.4719 158.175 55.7186 158.01C56.3232 157.604 56.8788 157.107 57.4687 156.674C58.7217 155.755 60.03 154.927 61.3704 154.172C64.1903 152.584 67.1834 151.306 70.1787 150.18C72.8184 149.186 75.5546 148.266 78.2659 147.543C81.0489 146.8 83.9737 146.985 86.816 146.679C92.6089 146.057 98.7237 146.182 104.514 146.804C107.352 147.108 110.174 147.585 112.972 148.18C115.687 148.757 118.51 149.414 120.921 150.975C121.435 151.308 122.363 152.374 122.966 152.335C123.473 152.302 123.913 151.273 124.151 150.868C124.718 149.905 125.429 149.02 125.91 148.006C126.502 146.756 126.806 145.352 127.251 144.037C125.185 144.35 123.016 144.553 121.033 143.683C119.237 142.894 118.027 141.319 116.686 139.865C115.273 138.333 113.759 137.294 111.738 137.154C109.446 136.994 107.378 137.899 105.269 138.742C100.813 140.523 96.3585 142.48 91.773 143.824C89.532 144.481 87.2279 144.999 84.9057 145.116C83.7234 145.175 82.5269 145.117 81.3576 145.357C80.8727 145.456 80.7273 145.539 80.3439 145.304C80.3959 145.336 79.8559 144.349 79.7488 144.733C79.6456 145.103 79.8144 145.393 79.5194 145.672C79.1728 146 78.4207 145.84 78.0193 145.802C77.418 145.746 76.9387 145.522 76.3597 145.372C75.4647 145.141 74.4617 145.293 73.5498 145.167C73.126 145.109 72.8184 144.991 72.4373 144.862C72.0378 144.727 72.2952 144.744 71.8837 144.687C71.5193 144.636 71.313 144.688 70.8718 144.531C70.4773 144.39 70.1127 144.293 69.7092 144.189C69.3396 144.095 69.0414 143.925 68.6978 143.814C69.1297 143.953 68.1431 143.523 68.1859 143.638L68.1898 143.645L68.1862 143.641C68.0792 143.508 67.9552 143.242 67.7431 143.2L67.6995 143.195C68.3971 144.373 65.3302 143.128 65.1271 143.06C63.4323 142.493 61.6962 141.206 59.9251 141.088C58.1962 140.972 56.5193 142.268 55.1273 143.229C53.4464 144.389 51.773 145.559 50.0985 146.732C46.3971 149.323 42.389 151.64 38.2351 153.215C36.2147 153.981 34.1443 154.595 32.0949 155.259C31.1709 155.558 30.1619 155.68 29.2789 156.109C28.6821 156.399 27.8219 157.267 27.2188 156.498C26.9759 157.171 25.7966 157.136 25.2965 157.157C25.2196 157.16 25.3431 157.321 25.1672 157.308C24.908 157.288 24.8387 157.011 24.6346 156.953C24.22 156.836 24.1769 157.012 23.7661 157.186C23.2324 157.412 23.3341 157.216 22.8622 157.163C22.5921 157.132 22.3059 157.295 22.0354 157.305C21.9254 157.309 21.7811 157.107 21.6221 157.11C21.4691 157.113 21.1105 157.314 20.908 157.348C20.4008 157.432 19.804 157.376 19.2926 157.351C18.5608 157.315 11.2317 156.596 11.7576 154.911C10.8757 155.806 8.83007 154.344 7.91075 153.879C7.5684 153.706 7.54632 153.538 7.3534 153.343C7.4067 153.109 7.31548 153.005 7.07974 153.03C7.02934 153.023 6.97871 153.017 6.92853 153.011C6.52462 152.784 6.38077 152.789 6.05916 152.392C5.63027 151.862 4.84075 151.383 4.61839 150.693C4.55884 150.507 4.62218 150.187 4.56152 150.041C4.4839 149.855 4.27961 149.876 4.23233 149.725C4.21582 149.672 4.29478 149.324 4.28898 149.318C3.91808 148.977 3.3953 149.139 2.96552 148.729C1.77789 147.596 1.0613 145.323 0.71962 143.708C-0.174057 139.486 -0.479161 135.241 1.25534 131.248C2.09839 129.306 3.13056 127.46 4.27024 125.713C4.58561 125.229 4.91591 124.592 5.31826 124.184C5.49891 124.001 5.73532 123.963 5.82342 123.853C6.29356 123.268 6.53733 122.516 7.16739 121.947C7.86882 121.313 8.56043 120.662 9.33523 120.137C10.0463 119.656 10.9317 119.345 11.5836 118.895C11.7625 118.771 11.7009 118.576 11.8952 118.429C12.101 118.274 12.3673 118.262 12.6006 118.186C12.8774 118.096 13.2206 117.931 13.5079 117.904C14.0443 117.853 14.2243 118.022 14.6288 118.441C14.6288 116.829 17.3284 116.604 18.4203 116.601C18.9241 116.6 21.456 116.351 21.4074 117.2C21.9841 116.362 23.7376 116.985 24.5003 117.237C25.4156 117.538 25.9946 118.275 26.5818 119.063C26.6907 118.814 26.7997 118.564 26.9088 118.314C27.0754 118.442 27.6388 118.655 27.4572 118.993C28.1167 118.353 27.7449 118.88 28.3099 118.994C28.5581 119.044 28.772 118.943 29.0332 118.909C29.0548 119.288 28.9051 119.411 28.6917 119.675C29.2033 119.686 31.1696 119.461 29.7143 120.168C29.9088 120.551 30.8317 120.416 31.1562 120.468C31.3281 120.495 31.7566 120.505 31.8592 120.643C31.9267 120.734 31.8079 120.986 31.823 121.008C31.9618 121.215 31.6736 121.321 31.9582 121.381C32.0282 121.396 32.2497 121.151 32.2999 121.152C32.669 121.158 32.41 121.078 32.8015 121.14C32.9395 121.162 33.2045 121.335 33.3818 121.375C36.055 121.976 39.3226 119.713 41.2645 117.961C43.5854 115.868 45.6056 113.63 48.3957 112.271C51.0947 110.957 54.1016 109.92 56.9702 109.169C62.275 107.779 67.5429 107.754 72.762 109.676ZM140.288 243.631C140.374 243.681 140.46 243.731 140.546 243.781C140.668 243.713 140.79 243.645 140.913 243.577C140.562 243.394 140.538 243.314 140.288 243.631ZM168.776 235.293C168.133 235.739 167.581 236.747 167.018 237.348C166.228 238.192 165.401 238.995 164.577 239.797C165.528 240.16 166.907 241.628 167.936 240.963C168.445 240.634 168.767 239.665 169.09 239.151C169.589 238.356 170.172 237.609 170.759 236.891C171.364 236.15 169.45 234.825 168.776 235.293ZM108.492 220.054C108.747 220.172 109.305 220.848 109.046 221.085C108.784 220.752 108.432 220.51 108.492 220.054ZM26.6508 209.35C26.1853 209.792 25.6605 210.716 25.3365 211.297C24.9714 211.952 24.9584 212.282 25.516 212.719C26.5934 213.564 28.1587 213.812 29.4083 214.206C30.0754 214.417 30.9001 214.946 31.4669 214.277C32.028 213.615 32.0293 212.381 32.2818 211.56C32.4863 210.895 32.7051 210.236 32.9174 209.574C31.7396 209.704 30.5551 209.713 29.3971 209.423C28.5565 209.213 27.3941 208.644 26.6508 209.35ZM46.9948 173.945C46.0438 175.365 45.1954 176.869 44.4474 178.429C43.2096 181.012 42.2474 183.753 41.6379 186.596C41.2059 188.609 40.5747 191.44 41.5611 193.372C43.71 197.581 48.0716 185.432 48.7373 184.162C49.1337 183.405 49.7488 182.593 50.4301 183.566C50.989 184.364 50.807 185.644 50.8329 186.584C50.9101 189.378 50.5555 192.724 51.5714 195.352C51.9048 196.215 52.788 197.461 53.7849 197.069C54.6786 196.718 55.1251 195.025 55.4014 194.153C56.2755 191.395 56.8955 188.024 56.9238 185.105C56.9294 184.519 56.451 180.642 57.6846 181.5C58.4915 182.061 58.4585 184.782 58.5368 185.673C58.8434 189.152 59.4684 195.06 63.3939 195.645C64.2581 195.774 65.2363 195.549 65.7424 194.695C66.3713 193.633 65.7388 192.206 65.5185 191.09C65.1387 189.166 64.7084 187.183 64.6705 185.203C64.6473 183.989 64.7559 181.97 66.3067 182.439C68.1754 183.003 68.9658 185.691 71.0646 185.781C71.0666 185.24 70.7942 184.799 70.5634 184.347C69.8167 182.886 68.4567 181.635 67.9963 180.019C67.8453 179.489 68.0024 178.692 67.7037 178.25C67.4216 177.833 66.7848 177.726 66.3591 177.631C63.5246 177.002 60.7381 176.15 57.9168 175.424C54.9007 174.648 52.1044 173.81 49.28 172.445C48.0074 171.829 47.7168 172.867 46.9948 173.945ZM114.621 195.736C115.037 195.953 115.449 196.179 115.87 196.385C116.237 196.564 116.38 196.421 116.526 196.045C116.262 195.985 114.774 195.404 114.621 195.736ZM96.7608 148.607C91.3675 148.78 86.0947 148.856 80.779 149.982C78.2367 150.521 75.7446 151.145 73.2513 151.909C72.1982 152.232 71.2697 152.569 70.3513 153.213C70.0098 153.453 69.1059 154.204 68.9672 153.345C68.5131 153.824 67.6277 155.284 66.9017 154.473C66.7744 155.059 66.3776 155.041 65.9904 155.241C65.8541 155.311 65.7799 155.549 65.6046 155.636C65.5604 155.658 65.5457 155.322 65.4815 155.317C65.2502 155.297 65.0677 155.832 64.9348 155.969C64.6148 156.296 64.315 156.446 63.8908 156.565C63.7066 156.633 63.5177 156.676 63.3243 156.695C63.0966 156.798 62.9601 156.724 62.9151 156.474C62.6008 156.479 62.3709 156.605 62.0417 156.769C62.752 156.948 61.557 157.145 61.3982 157.165C61.3786 157.748 61.8323 157.379 62.1253 157.499C61.9897 158.232 60.755 158.791 60.247 159.15C60.1602 158.947 60.0735 158.744 59.9865 158.541C59.846 158.691 59.7371 158.863 59.6593 159.057C59.6069 159.293 59.4548 159.374 59.2032 159.302C58.9677 159.507 58.9324 159.412 58.7877 159.701C58.638 160.001 59.0805 160.585 58.4378 160.334C58.4378 161.33 57.5963 160.726 57.7437 160.467C57.1072 160.4 56.8355 161.681 56.9069 162.181C56.6026 161.849 56.4158 161.891 56.1101 162.15L56.0831 162.173L56.0991 162.161C56.3343 161.986 56.0924 162.701 56.1135 162.693L56.1162 162.69C55.4699 163.627 55.5308 162.578 55.7309 162.025C55.2928 162.218 55.2099 162.741 54.8584 163.036C54.5455 163.298 54.4574 163.176 54.1882 163.215C53.7736 163.276 53.8987 162.901 53.7169 163.403C53.64 163.616 53.7566 163.997 53.7566 164.23C53.9364 163.959 53.8683 163.532 54.1931 163.377C54.096 164.16 52.711 166.85 52.1287 165.265C51.5622 165.698 52.1865 166.172 51.8147 166.752C51.5381 166.459 51.4719 165.992 51.5029 165.592C51.3292 165.846 51.3347 166.167 51.1987 166.424C51.0568 166.692 50.9083 166.714 50.8398 167.005C50.7361 167.448 51.0905 167.231 50.9034 167.7C50.8095 167.936 50.3697 168.142 50.1966 168.275C49.5904 168.739 48.9775 169.277 49.5659 170.049C50.4872 171.258 52.9149 171.396 54.2187 171.599C56.999 172.032 59.7086 172.752 62.4478 173.418C64.0973 173.819 65.713 174.266 67.3308 174.802C68.4926 175.186 70.0973 175.425 70.7104 176.747C73.9488 173.343 78.2671 171.566 82.2637 169.524C86.5927 167.313 91.0631 165.26 95.649 163.782C99.7151 162.471 103.885 161.974 108.086 161.522C109.193 161.403 110.9 161.098 111.886 161.846C112.495 162.307 112.523 163.006 112.057 163.624C111.804 163.958 111.532 163.871 111.377 164.468C111.258 164.929 111.324 165.278 111.433 165.735C111.153 165.493 110.652 165.637 110.508 165.211L110.494 165.164L110.481 165.214C110.289 166.045 111.625 166.16 111.216 167.156L111.189 167.217C111.047 167.521 111.047 166.545 110.922 166.538C110.583 166.519 110.306 167.389 110.166 167.631C110.797 167.631 110.557 168.135 110.218 168.389C109.977 168.571 109.57 168.624 109.289 168.774C108.729 169.074 108.237 169.514 107.663 169.8C107.035 170.114 106.482 170.133 105.858 170.32C105.761 170.348 105.378 170.506 105.339 170.51C105.286 170.515 105.274 170.693 105.229 170.7C104.83 170.762 104.529 170.355 104.142 170.521C103.995 170.584 104.071 170.981 103.943 171.071C103.801 171.171 103.4 171.044 103.229 171.033C102.817 171.007 102.753 170.948 102.426 171.158C101.864 171.519 101.578 172.007 100.821 172.095C100.228 172.165 99.8465 172.042 99.2826 172.286C98.7121 172.533 98.1717 172.588 97.6157 172.753C97.5452 172.774 97.5265 173.039 97.4692 173.058C97.2852 173.118 97.0653 173.072 96.8895 173.131C96.4858 173.268 96.1582 173.39 95.7833 173.635C94.1356 174.711 92.3226 176.328 91.0305 177.88C90.4406 178.588 88.7954 180.373 89.332 181.399C89.6761 182.057 90.8644 182.376 91.457 182.654C92.3409 183.069 93.2548 183.371 94.1483 183.755C95.2592 184.233 96.2671 184.975 97.4003 185.391C98.494 185.792 99.6642 185.871 100.794 186.086C105.682 187.013 110.472 188.504 115.363 189.428C118.045 189.935 120.784 190.541 123.508 190.063C125.909 189.641 128.209 188.473 130.126 186.842C133.616 183.873 136.048 179.657 137.271 175.02C137.524 174.062 137.577 171.666 138.392 171.08C139.071 170.591 139.427 171.667 139.867 172.092C140.583 172.783 141.632 173.05 142.493 173.443C144.625 174.418 146.562 175.447 148.814 176.107C151.099 176.775 153.415 177.299 155.724 177.85C160.405 178.967 164.873 180.024 169.684 180.041C174.445 180.058 179.224 180.255 183.932 179.29C188.051 178.447 192.193 176.143 195.272 173.015C196.827 171.435 198.026 169.44 199.248 167.554C199.904 166.543 200.513 165.494 201.025 164.386C201.402 163.572 202.049 162.392 202.115 161.469C202.174 160.643 201.735 160.76 200.986 160.676C199.832 160.547 198.674 160.464 197.52 160.334C195.193 160.072 192.873 159.737 190.547 159.465C188.173 159.187 185.814 158.811 183.508 158.119C182.818 157.912 182.309 157.652 181.822 158.388C181.508 158.863 181.514 159.945 180.859 159.15C179.599 160.899 177.758 161.946 176.037 163.043C174.176 164.23 172.367 165.537 170.393 166.495C166.142 168.561 161.457 168.398 156.945 167.736C152.36 167.063 147.715 166.195 143.407 164.277C141.431 163.397 139.733 162.059 137.961 160.781C137.127 160.18 136.261 159.685 135.375 159.184C134.376 158.618 133.765 157.781 132.862 157.128C132.253 159.308 129.911 160.057 128.062 160.154C125.752 160.276 123.885 159.064 122.485 157.094C121.322 155.459 121.096 153.014 119.296 152.119C117.242 151.098 114.836 150.693 112.638 150.218C107.476 149.103 102.02 148.437 96.7608 148.607ZM124.14 165.367C124.72 165.652 126.408 167.787 125.069 167.818C124.218 167.838 123.718 166.664 122.778 166.842C122.356 166.922 121.726 167.082 121.622 167.44C121.364 168.331 122.556 168.905 123.071 169.152C123.865 169.533 124.518 169.917 124.951 170.788C125.617 172.128 125.791 174.295 124.235 174.894C123.077 175.34 121.631 174.994 120.489 174.644C119.526 174.349 118.791 173.254 119.234 172.166C119.36 171.858 119.696 171.315 120.088 171.519C120.399 171.681 120.247 171.987 120.343 172.262C120.725 173.361 123.586 174.929 124.244 173.267C125.047 171.24 121.994 170.63 121.062 169.952C119.857 169.076 119.825 167.578 120.744 166.433C121.55 165.43 122.969 164.792 124.14 165.367ZM129.184 172.235C129.136 172.713 129.076 173.208 129.001 173.681C128.936 174.092 128.939 174.524 128.509 174.673C128.226 174.771 127.95 174.44 127.677 174.66C127.374 174.904 127.519 173.131 127.533 173.031C127.622 172.37 127.785 171.028 128.363 170.617C129.341 169.923 129.243 171.653 129.184 172.235ZM129.122 169.464C128.084 170.187 127.815 168.137 128.228 167.471C129.253 165.816 130.759 168.326 129.122 169.464ZM108.033 168.457C108.33 168.699 108.231 168.566 108.231 169.211C107.886 169.228 107.939 168.708 108.033 168.457ZM109.206 167.899C109.106 168.155 109.555 168.462 109.7 168.502C109.709 168.42 109.489 167.173 109.206 167.899ZM52.8834 164.154C52.6074 164.594 52.7634 164.864 53.2023 164.691L53.2385 164.676L52.8834 164.154ZM58.4304 159.925L58.1677 160.047C58.0437 160.178 57.9201 160.308 57.7963 160.438C58.1574 160.36 58.4081 160.42 58.4304 159.925ZM59.8856 159.307C59.7048 158.901 59.0832 159.706 59.0694 159.894C59.2143 159.8 60.0962 159.779 59.8856 159.307ZM60.4691 157.874C60.3181 158.107 60.3489 158.295 60.5614 158.436C60.7379 158.177 60.8719 157.893 60.9631 157.586C60.7276 157.397 60.553 157.652 60.4691 157.874ZM179.482 128.916C179.026 129.141 179.264 129.914 179.309 130.334C179.52 132.33 179.856 134.306 180.064 136.302C180.357 139.109 180.398 141.95 180.877 144.732C181.314 147.269 182.051 149.733 182.44 152.282C182.7 153.987 182.204 155.958 184.053 156.475C185.717 156.94 187.613 156.965 189.318 157.17C191.515 157.433 193.715 157.563 195.922 157.68C196.966 157.736 198.043 157.75 199.077 157.924C199.686 158.027 200.445 158.471 200.913 157.851C201.369 157.248 201.37 155.714 201.512 154.944C201.7 153.928 201.869 152.907 201.961 151.874C202.169 149.536 201.863 147.22 201.581 144.905C201.278 142.41 201.045 139.903 200.731 137.41C200.529 135.803 200.552 133.208 199.546 131.911C198.629 134.922 198.381 138.119 198.335 141.277C198.325 141.955 197.921 145.851 196.849 143.951C196.551 143.423 196.546 143.122 196.083 142.675C195.606 142.215 195.438 141.847 195.277 141.15C194.984 139.887 194.937 138.777 194.305 137.641C193.017 135.331 192.495 132.47 190.577 130.605C190.557 132.773 190.272 135.118 190.639 137.26C190.87 138.606 191.814 140.543 191.035 141.874C190.647 142.538 190.423 142.34 189.966 142.007C189.673 141.793 189.718 141.693 189.35 141.479C188.999 141.275 188.723 141.285 188.391 141C187.215 139.991 187.123 138.239 186.738 136.788C185.89 133.585 182.958 131.607 180.713 129.626C180.469 129.41 179.857 128.731 179.482 128.916ZM135.178 135.405C133.456 136.161 131.681 136.449 129.852 136.022C129.854 136.464 130.434 137.182 129.986 137.436C129.879 137.497 129.27 137.207 129.151 137.173C128.491 136.985 127.602 136.661 126.913 136.815C126.183 136.979 126.208 137.499 126.685 138.087C127.354 138.913 129.034 138.947 129.053 140.318C129.061 140.911 128.729 141.653 128.658 142.265C128.552 143.179 128.436 144.086 128.241 144.984C127.905 146.527 127.361 147.996 126.713 149.411C126.155 150.631 125.477 151.902 124.438 152.699C123.761 153.218 124.021 152.984 124.154 153.75C124.243 154.262 124.228 154.644 123.626 154.518C123.511 154.479 123.396 154.44 123.281 154.401C124.693 156.946 128.264 158.55 130.709 156.851C129.678 155.938 131.078 154.345 131.668 153.67C132.553 152.658 133.481 151.495 134.429 150.572C135.882 149.159 137.783 149.846 139.502 149.252C141.241 148.65 142.507 147.293 143.631 145.776C144.633 144.425 145.96 142.771 146.096 140.943C146.122 140.584 145.964 140.165 146.022 139.826C146.08 139.481 146.27 139.436 146.37 139.21C146.573 138.744 146.622 138.265 146.654 137.733C146.76 135.994 146.257 135.721 144.773 135.272C143.908 135.01 143.031 134.805 142.164 134.549C141.337 134.305 140.599 133.835 139.784 133.574C138.067 133.022 136.689 134.742 135.178 135.405ZM139.602 146.329C140.967 147.24 138.815 147.823 138.02 147.42C136.947 146.876 138.839 145.82 139.602 146.329ZM142.173 138.756C143.413 140.384 144.79 143.693 142.076 144.363C141.238 144.57 139.942 144.904 139.1 144.65C137.897 144.288 138.211 142.562 139.411 142.486C140.122 142.441 141.754 143.059 142.176 142.151C142.406 141.659 141.884 140.876 141.805 140.385C141.703 139.752 141.797 139.247 142.173 138.756ZM68.1898 143.645L68.1908 143.647C68.1952 143.653 68.2021 143.661 68.2118 143.671L68.2166 143.675L68.2074 143.666L68.1898 143.645ZM144.628 139.338C145.489 139.336 145.062 141.346 144.635 141.689C143.868 142.305 143.541 139.34 144.628 139.338ZM138.954 140.853C137.956 140.987 138.181 138.359 139.091 138.278C140.285 138.172 140.109 140.7 138.954 140.853ZM147.594 136.492C147.474 136.759 147.566 139.367 147.852 139.416C147.929 138.779 147.886 138.139 147.878 137.499L147.877 137.337C147.883 137.347 147.931 135.736 147.594 136.492Z" fill="black"/>
</svg>
