<svg width="690" height="422" viewBox="0 0 690 422" fill="none" xmlns="http://www.w3.org/2000/svg">
<g clip-path="url(#clip0_1186_1715)">
<g clip-path="url(#clip1_1186_1715)">
<path d="M690 1H0V423H690V1Z" fill="#FDF074"/>
<path d="M608.974 66.722C634.413 99.9925 600.937 177.366 560.046 229.757C519.155 282.148 471.022 309.486 433.224 341.419C395.491 373.226 368.265 409.558 345.414 404.029C322.629 398.374 304.047 350.929 254.527 342.516C204.835 334.173 124.164 364.681 108.593 349.356C92.9158 333.976 142.339 272.764 151.508 201.736C160.676 130.709 129.418 49.9367 151.275 46.4701C173.025 42.9479 247.997 116.787 300.856 131.261C353.608 145.679 384.181 100.858 441.743 72.843C499.198 44.7723 583.577 33.6329 608.974 66.722Z" fill="white"/>
<path fill-rule="evenodd" clip-rule="evenodd" d="M520.105 197.938C517.302 203.419 514.34 208.755 511.349 214.137C509.766 216.985 504.66 228.768 503.341 229.219C501.921 229.703 493.222 224.588 490.725 223.586C486.289 221.805 482.073 220.119 477.439 219.021C472.25 217.791 467.02 216.884 461.637 217.342C459.28 217.542 455.377 218.112 457.72 214.8C459.428 212.385 461.083 210.161 463.403 208.417C465.091 207.147 467.566 204.817 469.543 203.969C471.617 203.078 474.676 203.276 476.905 203.328C479.315 203.385 490.801 206.969 491.433 203.233C492.604 204.299 493.287 203.887 494.629 204.408C496.142 204.994 497.085 206.133 498.588 206.821C499.563 207.268 501.359 209.033 502.443 209.043C503.883 209.058 504.271 207.865 505.306 206.984C507.623 205.011 510.709 203.712 513.224 201.998C515.438 200.488 517.547 198.914 520.105 197.938ZM494.872 154.611C494.675 157.113 495.35 159.439 495.334 162.013C495.327 163.137 495.276 164.26 495.617 165.342C495.923 166.313 495.709 168.056 495.872 169.072C493.005 168.199 487.68 166.905 484.754 168.082C481.956 169.207 481.604 174.409 481.506 176.939C481.438 178.663 482.204 181.319 481.624 182.97C481.353 183.74 481.351 183.989 481.368 184.058L481.37 184.066C481.315 184.037 481.09 184.038 480.298 184.609C479.512 185.176 478.575 185.488 477.799 186.113C476.387 187.252 476.145 188.542 475.449 190.193C474.772 191.796 472.97 193.221 470.957 193.163C472.575 190.231 474.821 187.493 473.532 184.05C472.56 181.451 474.264 178.402 475.604 175.933C476.048 175.116 480.969 168.852 478.789 168.41C477.373 168.123 474.123 174.772 473.501 175.933C471.767 174.761 470.988 173.316 472.323 171.55C473.348 170.194 474.607 169.034 475.604 167.63C477.225 165.351 478.803 162.631 480.727 160.607C484.107 157.053 490.006 154.633 494.872 154.611ZM481.37 184.066C481.389 184.079 481.381 184.091 481.372 184.072L481.37 184.066ZM540.285 150.728C542.445 152.796 545.176 154.512 547.263 156.683C549.09 158.584 551.549 161.781 552.417 164.32C547.964 165.178 540.566 167.806 538.794 172.479C531.869 166.122 529.19 177.744 527.816 182.603C523.763 180.85 524.571 175.011 524.625 171.603C524.667 168.899 526.314 165.698 522.388 165.477C519.454 165.312 516.604 166.507 513.958 167.626C510.656 169.022 507.192 171.11 504.525 173.509L501.746 171.346C506.305 168.787 508.681 163.894 511.349 159.413C512.2 157.984 513.337 156.396 513.958 154.852C514.387 153.784 514.69 151.629 515.16 150.68C515.901 149.187 523.133 148.776 525.049 148.392C530.107 147.376 536.152 146.768 540.285 150.728Z" fill="#FF5678"/>
<path fill-rule="evenodd" clip-rule="evenodd" d="M539.133 183.895C541.001 183.799 542.861 184.216 544.73 184.034C543.107 182.622 541.486 181.209 539.863 179.797C539.147 181.055 539.095 182.486 539.133 183.895ZM494.808 154.852C489.973 154.873 484.074 157.302 480.714 160.849C478.935 162.729 477.464 165.254 475.959 167.366C474.949 168.783 473.963 170.151 472.738 171.396C470.951 173.211 471.462 173.626 473.476 174.993C474.113 173.799 477.492 167.414 478.908 167.701C481.06 168.138 476.904 174.882 476.45 175.722C475.106 178.208 472.935 181.68 473.91 184.301C475.197 187.762 473.331 189.734 471.711 192.683C473.412 192.732 473.58 192.069 474.167 190.617C474.92 188.752 475.742 187.194 477.334 185.904C478.568 184.905 480.585 184.485 481.165 183.279C481.881 181.789 481.432 178.846 481.49 177.188C481.578 174.668 481.584 168.712 484.361 167.593C487.269 166.42 492.499 167.526 495.343 168.394C494.988 166.174 493.868 164.724 493.883 162.256C493.9 159.674 494.611 157.37 494.808 154.852ZM457.659 196.055C460.188 195.254 462.586 194.41 465.189 193.865C467.912 193.293 468.094 192.64 469.63 190.304C470.793 188.534 472.205 187.153 471.876 184.985C471.664 183.595 470.903 182.917 471.132 181.353C471.274 180.384 471.726 179.325 472.053 178.403C472.454 177.273 473.285 175.99 471.353 175.934C470.286 175.903 470.234 176.466 469.512 177.411C468.18 179.156 466.647 180.741 465.229 182.414C462.767 185.32 460.156 188.413 457.408 191.103C454.382 194.063 451.771 197.633 449.815 201.422C449.454 202.122 447.258 206.243 448.195 207.051C449.055 207.794 453.841 206.063 454.713 205.86C458.48 204.986 462.755 204.674 466.313 203.086C468.126 202.277 472.127 201.311 473.559 200.059C474.89 198.895 474.83 196.077 474.058 194.436C471.896 195.781 456.265 200.856 457.659 196.055ZM504.716 172.924C507.241 170.644 510.224 168.815 513.341 167.46C516.128 166.248 519.591 164.897 522.692 165.107C526.556 165.369 524.942 168.481 524.928 171.132C524.91 174.649 523.368 179.715 527.568 181.54C528.939 176.67 531.828 165.155 538.75 171.536C540.519 166.853 546.828 165.269 551.271 164.409C550.466 162.043 548.02 159.902 546.325 158.126C544.204 155.905 542.529 153.301 540.405 151.122C536.207 146.819 528.603 148.201 523.289 149.274C521.515 149.631 516.373 150.081 515.514 151.384C514.975 152.201 515.276 154.197 514.876 155.195C514.326 156.572 513.386 157.848 512.631 159.119C509.879 163.758 507.078 168.426 502.368 171.082L504.716 172.924ZM520.12 197.913C517.628 198.87 515.795 200.469 513.584 201.815C510.904 203.448 507.761 204.977 505.356 206.994C504.476 207.731 503.981 209.005 502.766 209.088C501.71 209.16 500.1 207.933 499.163 207.503C497.591 206.782 496.09 205.689 494.511 205.046C493.213 204.517 492.638 204.625 491.515 203.598C490.885 207.347 479.426 203.842 477.022 203.785C474.798 203.733 471.747 203.996 469.677 204.89C467.705 205.741 466.163 207.616 464.475 208.893C462.161 210.644 459.953 212.416 458.249 214.84C455.911 218.164 459.438 217.223 461.79 217.022C467.158 216.564 472.379 217.842 477.555 219.076C482.18 220.179 486.748 221.502 491.176 223.29C493.667 224.296 496.288 225.22 498.63 226.527C499.865 227.217 501.867 228.905 503.284 228.418C504.583 227.972 505.878 224.248 506.666 222.76C508.196 219.872 509.805 217.033 511.385 214.173C514.368 208.772 517.324 203.415 520.12 197.913ZM489.453 269.404C490.988 268.522 493.492 268.759 495.191 268.39C497.11 267.972 499.039 267.291 500.869 266.582C502.723 265.864 504.474 265.129 506.167 264.23C506.941 263.819 507.973 263.414 508.689 262.844C509.266 262.385 509.476 261.531 510.008 261.114C511.395 260.026 511.803 260.709 511.989 258.61C512.191 256.33 510.912 255.039 509.319 253.333C507.894 251.806 506.042 250.486 504.251 249.412C503.459 248.937 502.612 248.402 501.804 247.949C500.58 247.262 498.941 246.121 498.299 247.595C499.636 247.936 499.931 249.643 498.724 250.257C498.061 250.594 497.058 250.099 496.311 250.457C495.158 251.01 494.048 252.553 493.061 253.384C489.82 256.112 486.721 257.135 482.479 257.355C473.616 257.812 464.334 256.801 455.641 255.487C453.404 255.149 451.17 255.515 448.912 255.434C446.715 255.356 444.424 254.875 442.264 254.504C438.104 253.79 433.719 253.202 429.624 252.15C424.671 250.878 419.701 249.233 415.051 247.103C410.59 245.059 405.548 241.682 400.538 241.422C402.676 243.515 405.88 244.322 408.452 245.7C410.554 246.827 413.841 247.55 415.169 249.406C416.033 250.614 416.467 252.833 417.12 254.249C417.842 255.817 418.508 257.41 419.177 259.001C419.848 260.602 420.548 262.203 421.093 263.852C421.431 264.875 421.576 266.996 422.374 267.695C423.646 268.811 427.904 269.307 429.618 269.678C432.819 270.372 436.471 270.279 439.736 270.327C441.085 270.347 442.445 270.531 443.734 270.556C445.545 270.591 445.372 270.277 445.346 268.706C445.332 267.762 445.351 266.045 446.613 266.822C447.473 267.352 446.881 269.699 446.722 270.532C453.929 271.25 461.448 271.611 468.621 271.371C475.675 271.135 482.485 270.225 489.453 269.404ZM522 252.86C523.271 243.728 524.821 234.444 526.556 225.431C528.308 216.323 530.416 207.297 532.787 198.223C531.221 197.848 529.655 197.474 528.089 197.1C528.031 199.012 527.384 200.673 527.109 202.576C526.728 205.203 526.001 207.754 525.566 210.372C524.738 215.349 523.206 220.218 521.856 225.072C520.48 230.019 520.02 235.117 518.755 240.09C517.713 244.186 517.181 248.699 516.599 252.91C515.187 263.128 513.176 273.365 511.645 283.588C510.209 293.172 510.065 302.951 510.148 312.624C510.199 318.53 511.1 324.419 511.052 330.333C511.041 331.795 511.164 333.252 511.24 334.712C511.294 335.742 510.74 338.596 511.209 339.459C511.506 340.005 512.782 340.509 513.234 341.267C513.948 342.467 514.099 343.901 515.246 344.809C516.176 341.057 515.737 336.106 515.534 332.278C515.337 328.589 515.719 324.777 515.794 321.032C515.941 313.684 516.33 306.445 516.707 299.094C517.12 291.033 518.294 282.775 519.441 274.774C520.484 267.5 521.18 260.096 522 252.86ZM487.962 138.341C487.458 138.294 486.954 138.247 486.45 138.2C486.525 139.263 486.301 140.984 487.05 141.538C487.617 141.958 488.766 141.82 489.454 141.955C491.71 142.395 494.323 142.764 496.562 141.961C497.432 141.649 496.873 141.16 498.071 141.363C499.514 141.608 498.987 141.837 499.404 142.737C499.725 143.432 499.89 144.614 500.254 145.448C500.742 146.564 501.73 148.561 501.308 149.85C500.897 151.103 499.365 151.481 498.714 152.9C498.23 153.955 498.344 155.489 498.092 156.65C497.757 158.2 497.332 159.743 497.145 161.322C496.909 163.31 496.99 165.643 499.453 165.951C501.739 166.238 503.374 165.503 504.907 163.838C507.835 160.659 511.179 156.172 512.899 152.174C513.1 151.707 513.594 150.927 513.525 150.427C513.389 149.438 513.329 150.439 513.016 149.752C512.717 149.095 512.247 148.499 511.971 147.771C510.978 145.152 510.273 142.407 509.875 139.635C509.695 138.38 509.634 137.14 509.665 135.872C509.675 135.439 509.935 134.139 509.78 133.842C509.622 133.542 508.799 133.404 508.542 133.105C508.066 132.553 507.248 130.993 506.721 130.579C506.072 130.071 504.62 130.473 504.357 129.462C503.935 127.845 513.912 125.209 509.251 123.05C505.771 121.438 500.434 129.587 499.217 123.175C499.006 122.064 499.407 120.557 498.92 119.539C498.382 118.414 496.916 117.994 495.892 117.446C494.586 116.748 493.266 116.031 491.997 115.267C491.126 114.743 489.871 113.351 488.945 113.224C489.309 115.112 488.61 116.984 488.598 118.869C490.606 118.326 491.988 118.314 493.969 119.28C494.913 119.74 498.469 122.349 496.667 123.604C495.208 122.742 493.646 121.993 492.02 121.486C491.378 121.286 490.577 121.013 489.894 121C488.31 120.968 488.533 121.133 487.938 122.328C487.364 123.479 487.488 126.48 486.229 127.215C484.927 127.975 485.931 126.911 484.82 127.157C484.186 127.297 483.495 127.768 482.914 128.035C483.71 128.898 485.315 129.686 485.842 130.645C486.611 132.042 486.344 134.933 486.465 136.462C487.472 136.102 488.532 136.087 489.553 135.819C490.513 135.567 491.844 134.477 491.944 136.08C492.056 137.867 489.231 138.341 487.962 138.341ZM501.071 185.386C501.149 183.842 501.235 182.298 501.407 180.761C501.523 179.728 502.503 176.733 501.949 175.826C501.346 174.84 499.327 174.777 498.355 174.54C496.491 174.086 494.704 173.714 492.811 173.414C491.069 173.139 489.428 173.08 487.672 173C485.761 172.914 485.287 172.407 484.865 174.513C484.533 176.169 484.087 177.894 484.025 179.59C483.967 181.182 484.448 182.563 482.87 183.636C486.334 183.636 490.845 180.552 494.006 183.31C498.527 187.253 490.659 188.389 488.584 189.26C490.309 190.098 492.87 190.756 493.682 192.671C494.593 194.817 493.271 195.729 491.247 195.901C491.438 196.728 492.166 197.266 492.383 198.26C492.701 199.719 491.67 199.236 492.985 200.364C494.717 201.849 498.282 202.842 500.405 203.787C500.903 204.01 501.406 204.219 501.915 204.414C502.711 205.122 503.298 204.987 503.677 204.009C504.767 203.319 505.737 201.781 506.703 200.886C508.853 198.895 511.226 197.147 513.781 195.709C512.722 195.271 511.455 196.262 510.439 195.779C509.617 195.389 509.927 194.68 509.435 194.148C509.632 193.456 509.424 193.202 508.81 193.388C508.503 193.421 508.218 193.369 507.954 193.233C507.44 192.596 507.209 192.387 507.175 191.403C507.139 190.36 507.743 189.991 507.975 189.156C508.729 188.642 508.712 188.137 507.924 187.642C507.6 187.112 507.423 186.538 507.394 185.918C507.244 183.616 509.345 182.688 510.947 181.47C508.078 181.155 508.188 177.79 510.173 176.319C512.23 174.794 516.587 175.418 519.075 175.762C519.593 175.833 520.991 176.501 521.514 176.075C521.835 175.814 521.608 173.609 521.623 173.22C521.657 172.337 521.871 171.283 521.73 170.404C521.436 168.564 522.06 169.491 520.735 169.44C517.582 169.317 513.567 172.07 510.793 173.367C507.688 174.82 505.693 175.044 505.661 178.645C505.63 182.055 504.674 185.453 504.256 188.809C504.074 190.274 503.943 197.888 501.261 195.079C500.221 193.989 500.887 192.313 500.965 190.969C501.07 189.119 501.008 187.241 501.071 185.386ZM327.619 299.539C329.154 299.812 331.654 298.93 333.328 298.838C336.256 298.677 339.272 298.398 342.14 297.789C344.384 297.312 346.942 296.893 348.152 294.72C349.234 292.779 349.616 290.348 350.199 288.229C350.508 287.104 351.307 285.473 351.307 284.309C351.307 282.796 351.103 283.094 349.525 282.266C347.528 281.218 345.585 279.758 343.43 279.164C342.779 279.036 342.127 278.912 341.474 278.789C340.63 278.3 340.154 278.54 340.043 279.511C339.219 280.379 338.736 281.981 338.045 282.997C336.469 285.313 334.598 286.892 332.152 288.228C327.753 290.631 323.653 292.485 318.941 294.057C316.344 294.922 313.949 296.137 311.411 297.092C309.377 297.857 306.57 298.089 305.008 299.792C303.245 301.713 305.955 302.411 307.461 303.709C308.694 304.773 308.718 305.018 310.406 304.501C311.664 304.116 312.778 303.38 313.986 302.881C318.122 301.173 323.128 300.036 327.619 299.539ZM422.146 330.005C420.605 329.671 419.063 329.338 417.521 329.005C419.037 331.835 422.226 335.976 419.937 339.251C419.082 340.475 417.659 340.824 416.389 341.445C414.85 342.196 413.43 343.159 411.976 344.054C405.98 347.746 399.887 351.49 393.569 354.658C395.546 355.296 398.588 355.738 400.625 355.182C402.997 354.534 405.193 353.046 407.628 352.396C411.997 351.23 416.596 350.237 421.034 349.639C424.663 349.15 433.744 350.255 433.303 344.798C432.884 339.618 429.79 334.675 428.869 329.554C426.61 330.056 424.454 329.968 422.146 330.005ZM514.028 247.088C515.785 238.465 516.835 229.695 518.907 221.133C519.941 216.862 520.67 212.532 521.68 208.26C522.15 206.273 522.505 204.266 522.962 202.282C523.426 200.273 524.424 198.42 524.652 196.343C522.973 196.759 522.584 200.604 522.075 202.051C521.142 204.705 520.124 207.255 518.924 209.797C517.017 213.835 514.993 217.732 512.842 221.648C510.574 225.778 508.177 229.75 505.344 233.522C504.413 234.761 503.149 235.733 502.549 237.092C501.605 239.231 501.208 241.78 500.307 244.005C500.942 244.327 502.582 244.407 503.36 244.561C504.808 244.847 505.823 245.101 507.214 245.789C509.664 247.002 511.723 248.44 513.359 250.623C513.771 249.502 513.878 248.274 514.028 247.088ZM445.734 312.884C445.705 304.579 445.587 296.202 445.724 287.959C445.761 285.67 445.948 283.2 446.28 280.929C446.488 279.501 447.714 276.466 446.908 275.782C446.219 275.196 442.582 275.582 441.69 275.561C439.958 275.521 438.233 275.444 436.498 275.313C436.498 278.391 437.701 281.887 438.26 284.931C438.78 287.771 439.208 290.627 439.638 293.48C440.569 299.659 440.833 305.923 441.844 312.118C442.759 317.735 443.967 323.329 444.632 328.945C444.998 332.028 445.737 334.936 446.311 338.017C446.612 339.624 447.706 346.242 449.083 346.893C449.375 344.519 448.185 341.652 447.972 339.252C447.752 336.773 447.581 334.279 447.18 331.787C446.708 328.863 446.469 325.865 446.288 322.905C446.178 321.093 446.144 319.287 445.988 317.476C445.875 316.163 445.377 314.172 445.734 312.884ZM489.015 201.827C489.073 200.922 486.732 200.959 486.296 199.919C485.412 197.808 487.427 198.188 488.667 197.97C488.225 196.796 479.95 197.224 481.878 194.055C483.215 191.856 488.287 195.221 489.642 193.132C490.533 191.76 488.108 191.571 487.147 191.433C485.7 191.226 482.292 191.896 482.404 190.019C482.545 187.66 489.171 186.032 491.03 185.339C490.824 183.724 482.849 186.02 481.695 186.674C479.083 188.156 477.082 190.815 476.698 193.77C476.252 197.209 477.996 199.917 481.43 200.76C482.862 201.112 483.92 201.151 485.245 201.68C486.117 202.028 488.938 202.895 489.536 202.018C489.362 201.954 489.189 201.89 489.015 201.827ZM535.831 180.44C535.963 178.972 537.199 176.208 535.775 175.243C533.782 173.893 532.956 176.118 532.505 177.454C531.952 179.086 529.631 183.08 531.661 184.097C532.133 184.334 534.371 184.058 534.765 183.902C535.865 184.189 536.22 183.777 535.831 182.666V180.44ZM487.195 299.015C487.07 295.002 488.867 290.178 489.885 286.247C491.039 281.794 491.647 277.252 492.87 272.847C491.51 273.011 490.137 273.145 488.793 273.418C486.959 273.79 486.926 273.732 487.058 275.53C487.255 278.232 486.997 280.88 486.857 283.581C486.578 288.987 487.259 294.483 486.806 299.856C487.21 299.958 487.339 299.678 487.195 299.015ZM537.967 193.841C542.373 194.515 546.595 195.912 550.604 197.789C552.814 198.823 555.248 199.935 557.718 200.348C560.462 200.807 563.371 200.591 566.173 200.769C567.161 200.831 569.758 201.311 570.721 200.73C571.675 200.154 571.6 199.179 571.645 198.016C571.761 195.025 570.407 192.097 569.19 189.414C568.146 187.112 567.356 185.354 565.736 183.374C563.655 180.831 561.843 178.086 559.894 175.431C558.425 173.43 556.94 171.458 555.443 169.459C554.371 168.028 554.422 167.536 552.807 167.696C551.217 167.854 549.617 168.794 548.119 169.292C545.896 170.031 543.204 170.437 541.177 171.619C539.867 172.383 539.808 172.524 539.823 173.858C539.838 175.101 540.238 176.616 540.981 177.588C542.526 179.606 545.085 180.675 547.282 181.681C548.553 182.263 549.651 183.089 550.782 183.892C552.001 184.758 554.46 185.268 555.392 186.255C558.108 189.13 553.165 188.561 551.784 188.475C548.803 188.287 545.839 188.316 542.837 188.313C539.56 188.311 536.309 188.159 533.078 188.265C531.185 188.328 529.014 187.368 527.788 185.768C527.195 184.993 526.963 184.261 526.187 183.457C525.17 182.404 524.285 181.294 523.047 180.48C521.023 179.147 517.343 178.392 514.933 178.89C515.796 179.01 519.855 180.392 518.068 182.129C517.851 182.341 515.239 182.479 514.672 182.74C513.648 183.211 512.356 183.894 511.756 184.887C513.505 184.594 519.992 184.255 516.683 187.611C515.871 188.435 513.538 189.257 515.523 190.134C515.979 190.335 516.891 190.05 517.478 190.231C518.35 190.501 519.063 191.224 519.881 191.609C522.199 192.702 525.394 193.377 527.813 193.137C531.158 192.805 534.644 193.403 537.967 193.841ZM449.257 294.97C449.371 299.792 449.197 304.642 449.3 309.485C449.409 314.658 450.073 319.727 450.389 324.848C450.673 329.437 451.293 333.939 451.796 338.506C452.086 341.137 452.42 343.653 452.865 346.263C453.282 348.707 453.353 350.859 450.432 351.516C444.848 352.773 443.98 344.739 442.901 341.354C441.29 336.303 440.257 330.999 439.459 325.763C437.973 316.01 435.997 306.392 435.226 296.557C434.751 290.5 434.062 284.505 433.672 278.454C433.595 277.268 433.898 275.441 432.856 274.913C432.23 274.596 430.505 274.593 429.714 274.363C427.512 273.723 425.48 272.779 423.331 271.8C424.856 279.776 425.36 287.711 426.504 295.757C427.111 300.025 428.273 304.449 429.279 308.651C430.323 313.005 430.554 317.692 431.758 321.952C432.288 323.829 432.737 324.594 431.967 326.52C431.024 328.886 431.65 329.452 432.833 331.774C435.01 336.048 436.672 341.091 436.303 345.909C436.002 349.844 433.029 351.903 429.346 352.965C424.74 354.292 419.916 354.135 415.282 355.643C411.244 356.956 407.142 357.926 403.221 359.66C401.64 360.359 400.137 361.189 398.382 361.317C395.974 361.492 394.35 360.095 392.076 359.803C390.655 359.622 388.574 360.3 387.755 358.81C387.106 357.629 387.84 355.051 388.655 354.1C390.944 351.428 395.528 349.1 398.615 347.523C402.173 345.706 405.616 343.431 408.912 341.086C410.911 339.663 412.948 338.299 414.945 336.875C416.266 335.931 416.768 335.925 416.633 334.428C416.525 333.233 415.987 332.074 415.893 330.851C415.821 329.914 416.149 328.637 415.706 328.025C415.381 327.574 414.158 327.256 413.677 326.915C411.919 325.668 411.52 324.127 410.721 322.231C408.908 317.925 406.824 313.74 405.073 309.4C401.314 300.081 399.019 290.282 395.903 280.772C392.718 271.057 389.871 260.858 388.117 250.779C385.77 251.493 383.556 254.653 381.687 256.216C379.162 258.33 376.575 260.373 374.099 262.544C370.04 266.103 365.931 269.564 362.577 273.826C360.962 275.878 359.639 278.088 358.176 280.244C357.331 281.49 356.543 282.9 355.628 284.086C355.481 284.276 355.477 284.666 355.318 284.828C354.97 285.184 354.304 284.71 354.081 284.945C352.702 286.387 352.72 290.481 352.29 292.384C351.698 295.006 351.033 298.021 348.985 299.828C345.823 302.62 339.99 303.052 335.987 303.197C330.851 303.383 325.868 304.814 320.994 306.352C318.721 307.069 316.507 307.908 314.226 308.604C312.913 309.005 311.416 309.804 310.015 309.65C308.325 309.465 306.99 308.043 305.752 306.986C303.771 305.295 301.938 303.628 302.002 300.854C302.073 297.917 303.664 295.701 306.17 294.242C311.015 291.422 316.434 289.614 321.656 287.665C323.657 286.918 325.37 286.091 327.284 285.085C329.988 283.664 333.1 282.503 335.499 280.626C336.206 280.073 338.806 278.376 339.027 277.5C339.056 277.386 338.407 276.05 338.404 275.838C338.397 275.293 338.72 274.703 338.919 274.236C340.168 271.299 342.264 268.47 343.867 265.7C346.801 260.626 349.747 255.525 353.149 250.753C359.934 241.239 367.555 231.924 375.78 223.619C379.79 219.57 383.255 214.978 387.322 210.985C388.933 209.404 390.634 208.116 392.619 207.089C394.832 205.945 397.316 205.721 399.852 205.371C405.999 204.525 411.132 206.343 416.903 207.926C422.358 209.421 427.819 210.683 433.305 212.241C439.33 213.951 445.293 215.592 451.299 217.457C454.507 218.453 457.809 219.064 461.033 220.02C462.585 220.48 468.454 223.362 469.749 222.416C465.671 220.502 461.494 218.758 457.132 217.603C455.847 217.264 455.027 217.64 455.074 216.165C455.1 215.36 456.005 214.274 456.33 213.612C457.11 212.026 457.992 210.476 458.755 208.886C455.989 209.671 448.556 212.389 446.472 209.58C444.291 206.639 446.112 200.873 447.478 197.994C451.046 190.477 457.115 184.204 463.028 178.538C464.307 177.313 467.064 175.713 467.746 174.153C467.953 173.679 467.502 172.982 467.97 172.365C468.248 171.999 469.365 171.748 469.812 171.353C471.437 169.914 472.735 166.885 473.858 164.998C475.035 163.022 476.095 160.882 477.573 159.109C479.992 156.21 482.489 153.137 486.405 152.459C488.325 152.126 490.366 152.304 492.206 151.64C494.432 150.838 496.548 149.574 498.796 148.743C498.238 147.597 497.786 145.773 496.704 145.648C495.662 145.527 494.134 146.423 492.942 146.416C491.2 146.407 489.714 146.128 488.034 145.796C486.174 145.429 485.561 145.495 484.883 143.478C484.172 141.364 484.351 138.909 484.357 136.714C484.36 135.641 484.573 134.31 484.481 133.257C484.344 131.67 484.036 131.609 482.792 130.6C481.238 129.34 479.323 127.671 481.226 125.481C482.254 124.298 484.368 125.218 485.279 123.946C486.207 122.651 486.162 119.397 486.445 117.876C483.584 119.282 484.633 114.026 484.633 112.761C484.632 110.921 483.399 107.611 485.174 106.08C485.999 105.369 486.612 105.957 487.556 105.549C488.632 105.082 489.31 103.86 490.455 103.386C492.731 102.443 495.055 103.578 497.392 103.391C500.073 103.176 502.706 102.761 505.401 103.192C506.679 103.395 507.216 103.88 508.297 104.424C509.336 104.947 510.39 105.09 511.518 105.426C512.523 105.726 513.403 105.877 514.082 106.752C514.618 107.445 514.4 108.609 514.942 109.206C515.476 109.794 516.533 109.709 517.17 110.407C517.781 111.078 518.147 112.185 518.464 113.019C518.894 114.143 518.944 114.565 519.7 115.464C520.359 116.249 521.308 116.88 521.858 117.775C523.154 119.885 523.187 122.936 522.773 125.309C522.633 126.118 521.461 128.207 521.645 128.895C521.819 129.549 522.918 129.377 523.415 129.791C523.845 130.149 524.223 131.743 524.562 131.84C525.294 132.05 526.198 130.604 526.753 130.387C527.717 130.01 528.121 129.623 528.655 131.044C529.051 132.099 528.499 133.53 528.209 134.537C527.839 135.819 527.431 137.362 526.452 138.331C525.301 139.47 524.38 138.847 523.11 139.461C521.207 140.38 521.769 143.255 519.427 144.076C517.196 144.859 514.737 142.396 513.05 141.264C513.399 144.013 514.715 146.661 514.084 149.479C519.216 147.468 524.291 144.614 529.884 143.986C532.736 143.665 535.617 143.285 538.31 144.469C541.461 145.855 543.391 148.911 545.524 151.451C549.533 156.224 553.646 160.864 557.493 165.791C561.022 170.31 563.997 175.547 567.882 179.779C571.82 184.07 574.793 191.033 574.362 196.976C574.323 197.512 573.907 198.731 573.972 199.309C574.023 199.752 574.426 200.314 574.419 200.671C574.398 201.874 574 202.566 572.854 203.233C570.867 204.39 567.906 204.976 565.66 205.263C562.677 205.645 559.023 205.686 556.038 205.278C552.959 204.857 550.253 203.134 547.422 202.093C544.939 201.179 542.445 200.608 539.835 200.025C538.396 199.704 536.802 198.813 535.913 199.675C535.096 200.467 534.927 204.531 534.736 205.612C532.672 217.324 530.218 228.64 528.045 240.293C525.583 253.501 523.899 266.704 522.186 280.024C520.629 292.132 520.12 304.377 519.772 316.474C519.606 322.245 519.582 327.953 519.617 333.729C519.637 336.963 521.253 347.758 516.459 348.171C513.642 348.415 511.388 344.375 510.633 342.173C509.499 338.863 508.908 335.299 508.727 331.822C508.362 324.784 507.882 317.741 507.598 310.699C507.29 303.071 507.682 295.302 508.309 287.699C508.94 280.044 510.53 272.502 511.018 264.836C509.554 266.924 509.086 267.317 506.649 268.226C504.099 269.178 501.645 270.305 499.072 271.192C498.196 271.494 496.83 271.683 496.112 272.178C494.788 273.09 495.658 272.055 495.235 273.83C494.783 275.727 494.698 278.004 494.578 279.953C494.014 289.099 491.481 298.181 490.312 307.279C490.03 309.476 490.432 318.801 486.652 315.862C483.74 313.599 483.798 306.49 483.384 303.16C482.833 298.721 483.14 294.157 483.227 289.692C483.326 284.606 483.412 279.272 484.625 274.306C482.454 273.934 479.434 274.946 477.248 275.117C475.356 275.264 473.47 275.358 471.588 275.461C467.101 275.708 462.479 275.904 457.915 275.816C457.085 275.8 451.657 275.04 450.964 275.653C450.738 275.852 450.67 278.588 450.628 278.922C450.468 280.18 450.251 281.436 450.09 282.686C449.574 286.683 449.109 290.975 449.257 294.97Z" fill="black"/>
<path fill-rule="evenodd" clip-rule="evenodd" d="M529.853 332.956C533.277 334.295 536.912 334.78 540.366 336C543.454 337.09 546.321 338.555 549.361 339.663C549.539 338.253 549.634 335.864 549.113 334.535C548.376 332.653 546.435 332.607 544.524 331.936C539.874 330.305 534.982 329.961 530.365 328.054C531.155 329.576 530.802 331.591 529.853 332.956ZM588.972 328.034C581.575 328.251 574.507 329.972 567.217 331.037C563.67 331.554 560.119 332.017 556.569 332.5C555.202 332.686 552.712 332.467 551.719 333.65C550.896 334.63 551.798 337.974 551.432 339.41C552.927 339.52 555.582 338.124 557.204 337.892C559.731 337.533 562.225 337.03 564.778 336.87C568.821 336.615 572.794 336.398 576.83 335.948C580.935 335.491 584.907 334.64 589.044 334.33C591.055 334.178 591.864 334.555 591.983 332.432C592.029 331.602 592.143 330.212 591.91 329.394C592.282 328.387 591.952 327.899 590.92 327.928C590.265 327.854 589.616 327.889 588.972 328.034ZM574.666 321.258C576.666 321.07 578.675 320.801 580.68 320.688C581.087 320.665 583.149 320.789 583.486 320.411C583.963 319.877 583.432 317.921 583.344 317.315C583.047 315.257 582.718 314.06 580.473 314.056C578.579 314.051 576.617 314.452 574.73 314.637C566.162 315.476 557.638 315.831 549.165 317.426C549.681 319.622 550.267 321.888 549.65 324.134C553.714 324.343 558.177 323.561 562.149 322.759C566.209 321.939 570.517 321.532 574.666 321.258ZM561.106 300.579C558.045 300.593 554.81 301.941 551.79 301.64C551.745 302.202 552.711 301.736 552.978 302.262C553.548 302.263 553.747 302.449 553.573 302.821C553.583 303.074 553.454 303.223 553.184 303.266C553.05 303.278 552.917 303.289 552.785 303.301C552.2 303.319 552.105 303.713 552.498 304.483C552.329 305.437 552.582 306.649 552.619 307.606C558.047 306.867 563.32 306.099 568.787 305.77C571.367 305.614 573.946 305.614 576.524 305.402C579.36 305.168 582.455 305.669 585.227 305.138C586.71 304.855 586.554 304.874 586.446 302.947C586.38 301.776 586.405 300.386 585.451 299.532C583.859 298.105 580.234 298.93 578.33 298.98C572.595 299.132 566.764 299.664 561.106 300.579ZM564.24 328.103C572.44 327.358 580.578 325.727 588.825 325.727C588.241 325.144 586.971 324.994 586.246 324.676C585.418 324.314 584.637 323.543 583.829 323.226C582.206 322.591 580.555 323.474 578.888 323.855C574.868 324.776 570.743 324.807 566.716 325.71C562.554 326.643 558.337 327.504 554.097 327.978C552.078 328.204 549.912 328.662 547.917 328.129C547.756 328.013 547.593 327.897 547.431 327.782C547.257 327.039 546.773 326.841 545.979 327.187C544.971 326.995 543.687 327.243 542.672 327.268C542.631 327.674 546.38 328.945 547.095 329.26C548.818 330.018 549.986 330.574 551.826 330.249C555.969 329.517 560.044 328.644 564.24 328.103ZM535.394 304.129C535.714 305.378 537.06 304.81 538.218 304.947C539.773 305.132 541.32 305.668 542.826 306.072C545.561 306.807 548.297 307.532 551.021 308.309C550.913 307.209 551.157 304.705 550.575 303.729C549.966 302.706 547.074 302.258 545.727 301.946C542.333 301.161 538.707 301.608 535.259 301.773C535.32 302.557 535.365 303.342 535.394 304.129ZM567.998 311.944C571.218 311.671 574.443 311.459 577.672 311.346C581.365 311.217 578.681 310.626 578.603 308.374C573.75 309.149 568.854 309.301 564.016 309.963C560.007 310.512 555.232 311.945 551.144 311.175C549.216 310.812 547.247 310.672 545.195 310.467C543.26 310.274 541.434 309.372 539.522 309.148C537.376 308.897 535.184 310.103 533.049 310.421C532.144 310.557 531.934 311.17 531.507 310.081C531.064 308.951 532.333 308.028 532.832 307.353C533.416 306.564 533.174 307.845 533.498 306.613C533.589 306.267 533.342 305.4 533.297 305.028C533.183 304.087 532.887 303.067 532.841 302.128C532.799 301.266 532.791 299.951 533.727 299.447C534.298 299.14 534.703 299.588 535.201 299.501C539.088 298.825 543.659 298.77 547.601 299.422C551.874 300.129 555.551 298.258 559.763 297.499C564.703 296.608 569.696 296.475 574.679 296.099C578.94 295.777 586.725 294.11 588.348 299.552C588.808 301.094 589.478 305.339 588.241 306.651C586.618 308.374 582.861 307.825 580.762 308.272C581.076 309.165 582.011 309.772 581.688 310.836C584.628 310.975 585.148 313.752 585.609 316.345C586.085 319.028 585.156 320.095 587.72 321.492C591.293 323.439 595.079 325.405 595.009 330.042C594.974 332.373 594.713 335.89 592.319 337.099C589.977 338.283 586.164 338.083 583.583 338.512C578.585 339.344 573.569 340.321 568.541 340.82C563.186 341.353 557.743 341.789 552.38 342.027C549.458 342.157 546.933 342.599 544.111 341.615C541.336 340.649 538.622 339.943 535.759 339.225C532.933 338.517 524.281 337.563 526.802 332.73C527.206 331.957 528.584 331.342 528.807 330.61C529.166 329.431 527.953 328.51 528.004 327.444C528.096 325.494 530.297 325.249 531.816 325.249C529.212 323.62 532.699 321.692 532.679 320.309C532.642 317.873 529.612 316.292 529.441 314.249C529.024 309.279 544.79 314.454 547.217 315.53C545.349 318.299 536.684 315.903 534.103 315.482C534.455 316.407 534.791 317.239 534.893 318.186C534.976 318.957 534.681 319.839 534.951 320.615C535.377 321.843 535.362 321.608 536.87 321.943C537.985 322.191 539.089 322.477 540.2 322.739C541.908 323.142 544.595 324.223 546.287 324.164C547.772 324.113 547.479 324.573 547.751 322.924C547.897 322.038 547.647 321.096 547.498 320.229C547.186 318.409 546.73 316.688 548.319 315.383C549.834 314.138 553.027 313.546 554.884 313.107C559.008 312.132 563.767 311.894 567.998 311.944Z" fill="black"/>
<path fill-rule="evenodd" clip-rule="evenodd" d="M587.62 280.896C583.142 280.146 578.592 279.961 574.061 280.189C574.306 281.31 574.552 282.431 574.798 283.551C579.043 282.458 583.349 281.818 587.62 280.896ZM551.205 289.594C549.409 289.463 550.658 290.266 551.102 291.441C551.647 292.886 551.53 294.711 551.655 296.232C556.91 294.228 563.024 293.055 568.611 292.381C571.26 292.061 573.948 291.969 576.613 291.833C577.4 291.792 580.244 292.122 580.821 291.592C581.248 291.198 580.948 289.024 580.537 288.544C578.301 285.938 569.657 288.189 566.529 288.422C561.402 288.805 556.368 289.721 551.205 289.594ZM558.668 282.609C563.321 283.056 567.814 283.013 572.467 283.71C572.114 280.753 572.536 279.998 569.18 279.841C566.191 279.701 563.21 279.588 560.234 279.59C553.541 279.593 546.865 279.465 540.165 279.465V282.471C546.361 281.837 552.459 282.982 558.668 282.609ZM536.294 293.662C539.23 293.649 542.006 294.757 544.943 295.044C546.7 295.216 546.148 295.434 547.367 296.317C549.267 297.692 549.814 296.959 549.575 295.091C548.769 288.772 540.768 290.189 536.158 289.838C536.461 291.345 535.764 292.623 534.738 293.662H536.294ZM568.034 285.549C563.81 285.618 559.581 285.858 555.387 285.77C553.51 285.731 551.078 285.359 549.238 285.679C547.89 285.913 546.763 286.6 545.284 286.855C547.456 288.024 548.557 287.234 550.84 286.968C553.121 286.702 555.435 286.707 557.726 286.569C561.487 286.341 565.496 285.44 569.202 285.685C569.269 285.163 568.88 285.118 568.034 285.549ZM534.534 299.234C532.596 299.23 535.262 297.026 535.612 296.808C533.467 296.808 532.947 295.521 533.569 293.454C534.155 291.507 534.588 292.103 533.114 290.481C532.005 289.26 531.837 288.361 533.145 286.996C534.476 285.607 537.17 286 538.35 284.853C540.357 282.902 537.767 279.016 540.548 277.521C542.428 276.512 545.459 276.637 547.534 276.423C549.541 276.217 551.617 276.177 553.637 276.15C558.04 276.09 562.613 276.828 566.996 277.234C568.594 277.382 570.391 278.028 571.965 278.029C573.571 278.031 575.252 277.673 576.91 277.714C578.837 277.763 580.694 277.621 582.681 277.937C584.204 278.18 587.759 278.307 588.923 279.439C592.802 283.211 583.605 284.944 582.022 285.367C583.633 287.132 583.566 289.464 583.323 291.685C584.09 291.685 585.411 291.351 585.808 292.211C586.301 293.279 584.477 293.556 584.045 293.681C581.564 294.397 578.66 294.201 576.103 294.461C570.991 294.981 565.94 295.282 560.881 296.25C558.416 296.722 555.965 297.306 553.501 297.766C553.076 297.845 552.648 297.909 552.219 297.957C551.559 297.901 551.346 298.314 551.579 299.2C550.895 299.534 548.345 298.702 547.557 298.574C543.043 297.842 539.005 298.146 534.534 299.234Z" fill="black"/>
<path fill-rule="evenodd" clip-rule="evenodd" d="M625.674 343.062C622.763 345.353 620.057 347.515 616.904 349.506C619.133 349.436 626.545 345.882 625.674 343.062ZM624.537 339.328C622.949 337.963 621.37 338.103 619.404 337.689C617.593 337.308 615.833 336.652 614.026 336.215C612.607 335.872 611.203 335.409 609.79 335.085C607.794 334.628 607.598 335.131 605.762 336.177C599.254 339.886 591.97 342.438 585.114 345.448C587.127 347.221 591.655 347.297 594.171 347.862C596.008 348.274 597.756 348.838 599.515 349.49C601.153 350.099 603.792 351.498 605.52 351.544C606.978 351.584 608.164 350.148 609.419 349.375C611.071 348.358 612.715 347.359 614.379 346.367C617.901 344.268 621.195 341.697 624.537 339.328ZM595.123 354.354C594.371 353.631 592.11 353.662 591.168 353.442C589.312 353.008 587.483 352.557 585.603 352.232C582.551 351.704 577.73 351.468 577.399 347.508C577.123 344.218 581.098 343.438 583.424 342.323C586.92 340.646 590.488 339.099 594.073 337.62C597.435 336.234 600.846 335.062 604.268 333.864C604.936 333.63 605.478 333.662 606.023 333.128C606.453 332.706 606.32 331.888 606.791 331.447C607.87 330.438 609.27 330.969 610.566 331.228C613.511 331.815 616.568 332.586 619.375 333.676C622.292 334.808 624.901 335.044 625.602 338.351C627.094 337.651 628.216 337.55 628.037 339.606C627.985 340.21 627.546 340.868 627.441 341.491C627.286 342.409 627.557 343.378 627.404 344.299C626.846 347.648 622.33 350.129 619.532 351.444C616.081 353.065 611.629 355.461 607.777 355.777C603.672 356.115 599.198 354.503 595.123 354.354Z" fill="black"/>
<path fill-rule="evenodd" clip-rule="evenodd" d="M542.87 298.794C541.646 298.801 540.422 298.809 539.198 298.817C540.42 298.587 541.644 298.585 542.87 298.794Z" fill="black"/>
<path fill-rule="evenodd" clip-rule="evenodd" d="M471.271 169.299C470.904 169.91 470.537 170.522 470.169 171.135C470.294 170.346 470.574 169.67 471.271 169.299Z" fill="black"/>
<path fill-rule="evenodd" clip-rule="evenodd" d="M542.87 316.344C543.606 316.35 544.342 316.356 545.073 316.363C544.336 316.357 543.604 316.351 542.87 316.344Z" fill="black"/>
<path fill-rule="evenodd" clip-rule="evenodd" d="M559.76 276.401C558.903 276.355 558.047 276.308 557.19 276.262C558.047 276.308 558.903 276.355 559.76 276.401Z" fill="black"/>
<path fill-rule="evenodd" clip-rule="evenodd" d="M545.073 298.813C544.339 298.806 543.604 298.799 542.87 298.792C543.607 298.591 544.342 298.598 545.073 298.813Z" fill="black"/>
<path fill-rule="evenodd" clip-rule="evenodd" d="M574.295 194.633C574.275 193.898 574.254 193.163 574.233 192.43C574.254 193.165 574.275 193.899 574.295 194.633Z" fill="black"/>
<path fill-rule="evenodd" clip-rule="evenodd" d="M449.446 305.521C449.431 304.909 449.416 304.297 449.401 303.686C449.417 304.298 449.431 304.91 449.446 305.521Z" fill="black"/>
<path fill-rule="evenodd" clip-rule="evenodd" d="M469.435 275.596C469.926 275.596 470.417 275.596 470.904 275.598C470.412 275.598 469.924 275.596 469.435 275.596Z" fill="black"/>
<path fill-rule="evenodd" clip-rule="evenodd" d="M535.16 143.713C534.547 143.757 533.936 143.801 533.324 143.846C533.936 143.801 534.548 143.757 535.16 143.713Z" fill="black"/>
<path fill-rule="evenodd" clip-rule="evenodd" d="M581.424 277.805C580.69 277.801 579.955 277.796 579.221 277.791C579.955 277.796 580.69 277.801 581.424 277.805Z" fill="black"/>
<path fill-rule="evenodd" clip-rule="evenodd" d="M519.582 323.146C519.564 322.656 519.545 322.165 519.527 321.678C519.545 322.168 519.564 322.658 519.582 323.146Z" fill="black"/>
<path fill-rule="evenodd" clip-rule="evenodd" d="M520.309 304.42C520.295 303.93 520.282 303.44 520.269 302.951C520.283 303.441 520.296 303.93 520.309 304.42Z" fill="black"/>
<path fill-rule="evenodd" clip-rule="evenodd" d="M507.779 312.865C507.796 313.356 507.814 313.846 507.831 314.334C507.814 313.843 507.796 313.355 507.779 312.865Z" fill="black"/>
<path fill-rule="evenodd" clip-rule="evenodd" d="M472.372 275.236C472.741 275.231 473.109 275.226 473.474 275.221C473.104 275.226 472.738 275.231 472.372 275.236Z" fill="black"/>
<path fill-rule="evenodd" clip-rule="evenodd" d="M578.854 294.345C579.222 294.329 579.59 294.313 579.955 294.297C579.586 294.313 579.219 294.329 578.854 294.345Z" fill="black"/>
<path fill-rule="evenodd" clip-rule="evenodd" d="M508.508 324.615C508.529 325.105 508.55 325.596 508.571 326.084C508.55 325.592 508.529 325.104 508.508 324.615Z" fill="black"/>
<path fill-rule="evenodd" clip-rule="evenodd" d="M547.864 322.045C547.84 322.535 547.815 323.026 547.79 323.514C547.815 323.023 547.84 322.534 547.864 322.045Z" fill="black"/>
<path fill-rule="evenodd" clip-rule="evenodd" d="M505.545 103.26C505.026 103.194 504.507 103.128 503.988 103.062C504.502 103.181 505.066 102.74 505.545 103.26Z" fill="black"/>
<path fill-rule="evenodd" clip-rule="evenodd" d="M483.225 291.568C483.211 292.059 483.197 292.549 483.183 293.037C483.196 292.546 483.211 292.057 483.225 291.568Z" fill="black"/>
<path fill-rule="evenodd" clip-rule="evenodd" d="M451.665 336.363C451.64 335.873 451.614 335.383 451.589 334.895C451.614 335.384 451.64 335.874 451.665 336.363Z" fill="black"/>
<path fill-rule="evenodd" clip-rule="evenodd" d="M570.409 295.068C570.778 295.06 571.146 295.052 571.51 295.045C571.141 295.053 570.775 295.06 570.409 295.068Z" fill="black"/>
<path fill-rule="evenodd" clip-rule="evenodd" d="M445.748 206.016C445.751 206.506 445.754 206.996 445.756 207.484C445.753 206.993 445.751 206.505 445.748 206.016Z" fill="black"/>
<path fill-rule="evenodd" clip-rule="evenodd" d="M438.044 316.17C438.042 316.66 438.041 317.151 438.038 317.639C438.04 317.148 438.042 316.659 438.044 316.17Z" fill="black"/>
<path fill-rule="evenodd" clip-rule="evenodd" d="M529.558 313.232C529.544 313.723 529.532 314.213 529.518 314.701C529.316 314.198 529.339 313.71 529.558 313.232Z" fill="black"/>
<path fill-rule="evenodd" clip-rule="evenodd" d="M519.928 311.029C519.923 310.539 519.92 310.049 519.916 309.561C519.92 310.052 519.923 310.54 519.928 311.029Z" fill="black"/>
<path fill-rule="evenodd" clip-rule="evenodd" d="M595.01 354.523C595.378 354.533 595.747 354.544 596.111 354.554C595.741 354.544 595.375 354.534 595.01 354.523Z" fill="black"/>
<path fill-rule="evenodd" clip-rule="evenodd" d="M581.791 307.915C582.036 307.911 582.283 307.907 582.525 307.902C582.278 307.907 582.035 307.911 581.791 307.915Z" fill="black"/>
<path fill-rule="evenodd" clip-rule="evenodd" d="M572.612 309.011C572.858 309.01 573.103 309.01 573.346 309.01C573.1 309.011 572.855 309.011 572.612 309.011Z" fill="black"/>
<path fill-rule="evenodd" clip-rule="evenodd" d="M429.618 311.396C429.604 311.029 429.589 310.661 429.574 310.295C429.589 310.663 429.604 311.03 429.618 311.396Z" fill="black"/>
<path fill-rule="evenodd" clip-rule="evenodd" d="M579.955 311.117C579.636 311.44 579.226 311.249 578.854 311.27C579.221 311.219 579.588 311.168 579.955 311.117Z" fill="black"/>
<path fill-rule="evenodd" clip-rule="evenodd" d="M536.261 299.369C535.776 299.598 535.286 299.63 534.792 299.385C535.282 299.38 535.772 299.375 536.261 299.369Z" fill="black"/>
<path fill-rule="evenodd" clip-rule="evenodd" d="M568.206 311.954C567.716 311.95 567.226 311.946 566.737 311.941C567.227 311.946 567.716 311.95 568.206 311.954Z" fill="black"/>
<path fill-rule="evenodd" clip-rule="evenodd" d="M547.644 299.161C547.154 299.116 546.664 299.072 546.175 299.027C546.664 299.072 547.154 299.116 547.644 299.161Z" fill="black"/>
<path fill-rule="evenodd" clip-rule="evenodd" d="M435.486 297.443C435.476 297.811 435.466 298.179 435.457 298.545C435.466 298.176 435.476 297.81 435.486 297.443Z" fill="black"/>
<path fill-rule="evenodd" clip-rule="evenodd" d="M519.894 317.271C519.913 316.903 519.931 316.535 519.95 316.17C519.931 316.538 519.913 316.905 519.894 317.271Z" fill="black"/>
<path fill-rule="evenodd" clip-rule="evenodd" d="M570.409 296.096C569.919 296.137 569.429 296.178 568.94 296.219C569.43 296.178 569.919 296.137 570.409 296.096Z" fill="black"/>
<path fill-rule="evenodd" clip-rule="evenodd" d="M449.439 294.873C449.429 294.505 449.418 294.137 449.408 293.771C449.418 294.14 449.429 294.507 449.439 294.873Z" fill="black"/>
<path fill-rule="evenodd" clip-rule="evenodd" d="M510.786 266.6C510.757 266.968 510.728 267.335 510.699 267.701C510.728 267.333 510.757 266.967 510.786 266.6Z" fill="black"/>
<path fill-rule="evenodd" clip-rule="evenodd" d="M577.752 277.712C577.262 277.966 576.772 277.934 576.283 277.709C576.773 277.71 577.263 277.711 577.752 277.712Z" fill="black"/>
<path fill-rule="evenodd" clip-rule="evenodd" d="M519.587 328.652C519.565 328.285 519.544 327.917 519.522 327.551C519.544 327.919 519.565 328.285 519.587 328.652Z" fill="black"/>
<path fill-rule="evenodd" clip-rule="evenodd" d="M519.578 331.59C519.562 331.222 519.547 330.855 519.531 330.488C519.547 330.856 519.563 331.223 519.578 331.59Z" fill="black"/>
<path fill-rule="evenodd" clip-rule="evenodd" d="M450.15 283.123C450.156 282.755 450.161 282.387 450.166 282.021C450.16 282.39 450.156 282.756 450.15 283.123Z" fill="black"/>
<path fill-rule="evenodd" clip-rule="evenodd" d="M554.62 341.698C554.866 341.691 555.111 341.684 555.354 341.678C555.107 341.685 554.864 341.691 554.62 341.698Z" fill="black"/>
<path fill-rule="evenodd" clip-rule="evenodd" d="M436.235 344.809C436.215 344.441 436.195 344.073 436.175 343.707C436.195 344.075 436.215 344.442 436.235 344.809Z" fill="black"/>
<path fill-rule="evenodd" clip-rule="evenodd" d="M515.699 347.922C515.945 347.927 516.191 347.931 516.434 347.937C516.187 347.932 515.943 347.927 515.699 347.922Z" fill="black"/>
<path fill-rule="evenodd" clip-rule="evenodd" d="M568.94 277.486C568.45 277.449 567.961 277.412 567.471 277.375C567.961 277.412 568.45 277.449 568.94 277.486Z" fill="black"/>
<path fill-rule="evenodd" clip-rule="evenodd" d="M571.51 277.875L570.409 277.723L571.51 277.875Z" fill="black"/>
<path fill-rule="evenodd" clip-rule="evenodd" d="M515.852 316.537C515.873 315.435 515.893 314.333 515.914 313.232C515.893 314.334 515.873 315.435 515.852 316.537Z" fill="black"/>
<path fill-rule="evenodd" clip-rule="evenodd" d="M487.224 276.146C487.236 277.004 487.249 277.861 487.262 278.717C487.25 277.859 487.237 277.003 487.224 276.146Z" fill="black"/>
<path fill-rule="evenodd" clip-rule="evenodd" d="M423.905 329.928C423.292 329.935 422.678 329.942 422.069 329.951C422.684 329.943 423.294 329.935 423.905 329.928Z" fill="black"/>
<path fill-rule="evenodd" clip-rule="evenodd" d="M474.208 256.884C473.595 256.874 472.981 256.864 472.372 256.855C472.987 256.865 473.598 256.875 474.208 256.884Z" fill="black"/>
<path fill-rule="evenodd" clip-rule="evenodd" d="M458.42 271.191C459.032 271.191 459.644 271.19 460.256 271.189C459.644 271.19 459.032 271.191 458.42 271.191Z" fill="black"/>
<path fill-rule="evenodd" clip-rule="evenodd" d="M466.498 256.492C466.006 256.5 465.515 256.509 465.029 256.516C465.522 256.508 466.01 256.5 466.498 256.492Z" fill="black"/>
<path fill-rule="evenodd" clip-rule="evenodd" d="M426.842 329.943C426.351 329.941 425.861 329.938 425.374 329.936C425.866 329.938 426.354 329.941 426.842 329.943Z" fill="black"/>
<path fill-rule="evenodd" clip-rule="evenodd" d="M492.934 142.374C493.546 142.331 494.158 142.289 494.77 142.246C494.158 142.289 493.546 142.331 492.934 142.374Z" fill="black"/>
<path fill-rule="evenodd" clip-rule="evenodd" d="M501.162 185.453C501.184 184.841 501.207 184.229 501.23 183.617C501.207 184.23 501.184 184.841 501.162 185.453Z" fill="black"/>
<path fill-rule="evenodd" clip-rule="evenodd" d="M455.115 255.396C454.747 255.401 454.378 255.405 454.013 255.409C454.383 255.405 454.749 255.401 455.115 255.396Z" fill="black"/>
<path fill-rule="evenodd" clip-rule="evenodd" d="M446.67 270.396C447.16 270.436 447.649 270.476 448.139 270.516C447.649 270.476 447.16 270.436 446.67 270.396Z" fill="black"/>
<path fill-rule="evenodd" clip-rule="evenodd" d="M445.74 288.998C445.748 288.508 445.756 288.018 445.763 287.529C445.756 288.02 445.748 288.509 445.74 288.998Z" fill="black"/>
<path fill-rule="evenodd" clip-rule="evenodd" d="M487.794 269.427C488.283 269.379 488.773 269.331 489.263 269.283C488.773 269.331 488.283 269.379 487.794 269.427Z" fill="black"/>
<path fill-rule="evenodd" clip-rule="evenodd" d="M521.347 260.725C521.376 260.235 521.405 259.744 521.434 259.256C521.405 259.746 521.376 260.236 521.347 260.725Z" fill="black"/>
<path fill-rule="evenodd" clip-rule="evenodd" d="M527.816 193.04C528.306 193.002 528.795 192.964 529.285 192.926C528.795 192.964 528.306 193.002 527.816 193.04Z" fill="black"/>
<path fill-rule="evenodd" clip-rule="evenodd" d="M477.88 257.243C477.512 257.239 477.143 257.236 476.779 257.232C477.148 257.236 477.514 257.239 477.88 257.243Z" fill="black"/>
<path fill-rule="evenodd" clip-rule="evenodd" d="M445.779 316.537C445.76 316.169 445.742 315.802 445.725 315.436C445.742 315.803 445.76 316.17 445.779 316.537Z" fill="black"/>
<path fill-rule="evenodd" clip-rule="evenodd" d="M486.947 297.811C487.749 299.8 487.298 298.391 487.319 298.851C486.635 298.943 486.511 298.596 486.947 297.811Z" fill="black"/>
<path fill-rule="evenodd" clip-rule="evenodd" d="M453.279 255.421C452.911 255.408 452.542 255.394 452.177 255.381C452.548 255.394 452.913 255.407 453.279 255.421Z" fill="black"/>
<path fill-rule="evenodd" clip-rule="evenodd" d="M528.332 218.133C528.355 217.643 528.379 217.153 528.401 216.664C528.378 217.154 528.355 217.644 528.332 218.133Z" fill="black"/>
<path fill-rule="evenodd" clip-rule="evenodd" d="M445.754 312.865C445.753 312.375 445.751 311.886 445.75 311.396C445.751 311.887 445.752 312.376 445.754 312.865Z" fill="black"/>
<path fill-rule="evenodd" clip-rule="evenodd" d="M445.714 301.85C445.739 301.482 445.765 301.115 445.79 300.748C445.765 301.116 445.739 301.483 445.714 301.85Z" fill="black"/>
<path fill-rule="evenodd" clip-rule="evenodd" d="M522.073 253.748C522.108 253.381 522.142 253.013 522.176 252.646C522.142 253.014 522.108 253.381 522.073 253.748Z" fill="black"/>
<path fill-rule="evenodd" clip-rule="evenodd" d="M440.929 302.951C440.962 303.319 440.995 303.687 441.028 304.053C440.995 303.685 440.962 303.318 440.929 302.951Z" fill="black"/>
<path fill-rule="evenodd" clip-rule="evenodd" d="M440.19 300.014C440.226 300.381 440.262 300.749 440.299 301.115C440.262 300.747 440.226 300.38 440.19 300.014Z" fill="black"/>
<path fill-rule="evenodd" clip-rule="evenodd" d="M513.639 249.711C513.666 249.344 513.693 248.976 513.721 248.609C513.693 248.977 513.666 249.344 513.639 249.711Z" fill="black"/>
<path fill-rule="evenodd" clip-rule="evenodd" d="M326.236 299.52C326.725 299.481 327.215 299.442 327.704 299.404C327.214 299.443 326.724 299.481 326.236 299.52Z" fill="black"/>
<path fill-rule="evenodd" clip-rule="evenodd" d="M510.396 308.459C510.382 308.827 510.368 309.195 510.354 309.561C510.368 309.192 510.382 308.826 510.396 308.459Z" fill="black"/>
<path fill-rule="evenodd" clip-rule="evenodd" d="M516.209 309.561C516.236 309.193 516.264 308.825 516.291 308.459C516.264 308.827 516.236 309.194 516.209 309.561Z" fill="black"/>
<path fill-rule="evenodd" clip-rule="evenodd" d="M513.989 248.242C514.028 247.875 514.067 247.507 514.105 247.141C514.066 247.509 514.028 247.875 513.989 248.242Z" fill="black"/>
<path fill-rule="evenodd" clip-rule="evenodd" d="M329.173 299.168C329.663 299.12 330.153 299.072 330.642 299.023C330.153 299.072 329.662 299.12 329.173 299.168Z" fill="black"/>
<path fill-rule="evenodd" clip-rule="evenodd" d="M484.856 256.867C484.611 256.87 484.364 256.873 484.122 256.875C484.369 256.873 484.613 256.87 484.856 256.867Z" fill="black"/>
<path fill-rule="evenodd" clip-rule="evenodd" d="M445.754 298.545C445.753 298.177 445.751 297.809 445.75 297.443C445.751 297.812 445.753 298.178 445.754 298.545Z" fill="black"/>
<path fill-rule="evenodd" clip-rule="evenodd" d="M517.013 297.811C516.883 297.431 516.819 297.057 517.07 296.709C517.051 297.077 517.032 297.444 517.013 297.811Z" fill="black"/>
<path fill-rule="evenodd" clip-rule="evenodd" d="M510.758 290.834C510.748 291.201 510.737 291.569 510.727 291.936C510.737 291.567 510.748 291.201 510.758 290.834Z" fill="black"/>
<path fill-rule="evenodd" clip-rule="evenodd" d="M511.075 327.184C511.098 327.551 511.121 327.919 511.144 328.285C511.121 327.917 511.098 327.55 511.075 327.184Z" fill="black"/>
<path fill-rule="evenodd" clip-rule="evenodd" d="M538.097 193.637C538.465 193.689 538.832 193.742 539.198 193.793C538.831 193.741 538.464 193.689 538.097 193.637Z" fill="black"/>
<path fill-rule="evenodd" clip-rule="evenodd" d="M536.628 193.671C537.121 193.7 537.662 193.464 538.097 193.811L536.628 193.671Z" fill="black"/>
<path fill-rule="evenodd" clip-rule="evenodd" d="M473.841 271.193C474.331 271.191 474.821 271.188 475.31 271.186C474.82 271.188 474.331 271.191 473.841 271.193Z" fill="black"/>
<path fill-rule="evenodd" clip-rule="evenodd" d="M484.856 193.285L486.325 193.413C485.835 193.37 485.346 193.328 484.856 193.285Z" fill="black"/>
<path fill-rule="evenodd" clip-rule="evenodd" d="M460.623 271.094C461.113 271.096 461.602 271.098 462.091 271.1C461.6 271.337 461.11 271.36 460.623 271.094Z" fill="black"/>
<path fill-rule="evenodd" clip-rule="evenodd" d="M447.263 332.691C447.235 332.323 447.207 331.956 447.178 331.59C447.207 331.958 447.235 332.325 447.263 332.691Z" fill="black"/>
<path fill-rule="evenodd" clip-rule="evenodd" d="M500.821 193.898C500.826 193.531 500.831 193.163 500.837 192.797C500.831 193.165 500.826 193.532 500.821 193.898Z" fill="black"/>
<path fill-rule="evenodd" clip-rule="evenodd" d="M469.802 271.249C470.292 271.21 470.782 271.171 471.271 271.131C470.781 271.171 470.292 271.21 469.802 271.249Z" fill="black"/>
<path fill-rule="evenodd" clip-rule="evenodd" d="M511.464 335.996C511.472 336.364 511.481 336.731 511.489 337.098C511.481 336.729 511.472 336.363 511.464 335.996Z" fill="black"/>
<path fill-rule="evenodd" clip-rule="evenodd" d="M512.762 184.607C513.251 184.56 513.741 184.513 514.23 184.467C513.741 184.513 513.251 184.56 512.762 184.607Z" fill="black"/>
<path fill-rule="evenodd" clip-rule="evenodd" d="M519.137 278.35C519.171 277.982 519.205 277.615 519.238 277.248C519.204 277.616 519.171 277.983 519.137 278.35Z" fill="black"/>
<path fill-rule="evenodd" clip-rule="evenodd" d="M536.036 180.312C536.064 179.945 536.092 179.577 536.12 179.211C536.092 179.579 536.064 179.946 536.036 180.312Z" fill="black"/>
<path fill-rule="evenodd" clip-rule="evenodd" d="M501.185 148.736C501.192 149.104 501.199 149.472 501.206 149.838C501.199 149.47 501.192 149.103 501.185 148.736Z" fill="black"/>
<path fill-rule="evenodd" clip-rule="evenodd" d="M488.161 141.881C488.651 141.922 489.141 141.963 489.63 142.003C489.14 141.962 488.651 141.922 488.161 141.881Z" fill="black"/>
<path fill-rule="evenodd" clip-rule="evenodd" d="M414.725 350.574C415.215 350.526 415.704 350.478 416.194 350.43C415.704 350.478 415.215 350.526 414.725 350.574Z" fill="black"/>
<path fill-rule="evenodd" clip-rule="evenodd" d="M398.57 355.355C399.06 355.102 399.549 355.174 400.038 355.357C399.549 355.356 399.059 355.356 398.57 355.355Z" fill="black"/>
<path fill-rule="evenodd" clip-rule="evenodd" d="M589.135 334.044C589.992 333.999 590.849 333.956 591.705 333.912C590.849 333.956 589.992 334 589.135 334.044Z" fill="black"/>
<path fill-rule="evenodd" clip-rule="evenodd" d="M589.135 327.719C588.644 327.73 588.153 327.741 587.666 327.752C588.158 327.741 588.646 327.73 589.135 327.719Z" fill="black"/>
<path fill-rule="evenodd" clip-rule="evenodd" d="M581.791 320.437C582.403 320.39 583.015 320.344 583.627 320.297C583.056 320.656 582.403 320.39 581.791 320.437Z" fill="black"/>
<path fill-rule="evenodd" clip-rule="evenodd" d="M574.815 321.193C575.427 321.149 576.038 321.105 576.651 321.061C576.039 321.105 575.427 321.149 574.815 321.193Z" fill="black"/>
<path fill-rule="evenodd" clip-rule="evenodd" d="M564.534 327.792C565.023 327.754 565.513 327.716 566.002 327.678C565.513 327.716 565.023 327.754 564.534 327.792Z" fill="black"/>
<path fill-rule="evenodd" clip-rule="evenodd" d="M567.104 327.794C567.594 327.756 568.083 327.716 568.573 327.678C568.083 327.716 567.594 327.755 567.104 327.794Z" fill="black"/>
<path fill-rule="evenodd" clip-rule="evenodd" d="M568.94 327.433C569.429 327.389 569.919 327.346 570.409 327.303C569.919 327.346 569.43 327.389 568.94 327.433Z" fill="black"/>
<path fill-rule="evenodd" clip-rule="evenodd" d="M571.51 314.881C571.142 314.883 570.774 314.886 570.409 314.887C570.779 314.885 571.144 314.883 571.51 314.881Z" fill="black"/>
<path fill-rule="evenodd" clip-rule="evenodd" d="M580.689 335.108C581.179 335.067 581.669 335.025 582.158 334.984C581.701 335.305 581.185 335.121 580.689 335.108Z" fill="black"/>
<path fill-rule="evenodd" clip-rule="evenodd" d="M566.737 305.775C567.226 305.728 567.716 305.681 568.206 305.635C567.716 305.681 567.226 305.728 566.737 305.775Z" fill="black"/>
<path fill-rule="evenodd" clip-rule="evenodd" d="M564.901 299.831C564.532 299.831 564.164 299.83 563.799 299.83C564.17 299.83 564.535 299.831 564.901 299.831Z" fill="black"/>
<path fill-rule="evenodd" clip-rule="evenodd" d="M561.229 300.562C560.983 300.564 560.738 300.565 560.495 300.566C560.742 300.565 560.986 300.564 561.229 300.562Z" fill="black"/>
<path fill-rule="evenodd" clip-rule="evenodd" d="M552.417 301.586C552.294 301.888 551.645 301.849 551.684 301.539C551.928 301.554 552.172 301.57 552.417 301.586Z" fill="black"/>
<path fill-rule="evenodd" clip-rule="evenodd" d="M535.321 302.951C535.336 303.318 535.351 303.686 535.366 304.053C535.351 303.685 535.336 303.317 535.321 302.951Z" fill="black"/>
<path fill-rule="evenodd" clip-rule="evenodd" d="M585.463 304.897C585.83 304.891 586.197 304.885 586.564 304.879C586.202 305.138 585.834 305.102 585.463 304.897Z" fill="black"/>
<path fill-rule="evenodd" clip-rule="evenodd" d="M571.51 299.457C571.264 299.461 571.019 299.464 570.776 299.467C571.023 299.464 571.267 299.461 571.51 299.457Z" fill="black"/>
<path fill-rule="evenodd" clip-rule="evenodd" d="M561.963 322.662C562.453 322.616 562.943 322.571 563.432 322.525C562.942 322.571 562.453 322.617 561.963 322.662Z" fill="black"/>
<path fill-rule="evenodd" clip-rule="evenodd" d="M556.089 323.394L557.557 323.266L556.089 323.394Z" fill="black"/>
<path fill-rule="evenodd" clip-rule="evenodd" d="M584.729 334.413C585.218 334.367 585.708 334.321 586.197 334.275C585.708 334.321 585.218 334.367 584.729 334.413Z" fill="black"/>
<path fill-rule="evenodd" clip-rule="evenodd" d="M567.104 336.624C567.594 336.445 568.085 336.384 568.573 336.629C568.083 336.627 567.593 336.626 567.104 336.624Z" fill="black"/>
<path fill-rule="evenodd" clip-rule="evenodd" d="M566.326 286.012L565.635 285.774C566.492 285.763 567.349 285.752 568.205 285.742C568.207 285.743 566.424 286.02 566.326 286.012Z" fill="black"/>
<path fill-rule="evenodd" clip-rule="evenodd" d="M559.76 279.636C559.147 279.635 558.534 279.635 557.925 279.635C558.539 279.635 559.15 279.636 559.76 279.636Z" fill="black"/>
<path fill-rule="evenodd" clip-rule="evenodd" d="M536.628 293.673C537.239 293.428 537.851 293.476 538.464 293.666C537.852 293.668 537.24 293.67 536.628 293.673Z" fill="black"/>
<path fill-rule="evenodd" clip-rule="evenodd" d="M573.713 287.705C573.345 287.709 572.976 287.714 572.612 287.718C572.981 287.714 573.347 287.709 573.713 287.705Z" fill="black"/>
<path fill-rule="evenodd" clip-rule="evenodd" d="M566.002 282.879C566.615 282.919 567.227 282.959 567.838 282.999C567.227 282.959 566.614 282.919 566.002 282.879Z" fill="black"/>
<path fill-rule="evenodd" clip-rule="evenodd" d="M558.292 286.675C558.904 286.632 559.516 286.589 560.128 286.545C559.516 286.589 558.904 286.632 558.292 286.675Z" fill="black"/>
<path fill-rule="evenodd" clip-rule="evenodd" d="M563.065 285.939C563.554 285.897 564.044 285.856 564.534 285.814C564.044 285.856 563.554 285.897 563.065 285.939Z" fill="black"/>
<path fill-rule="evenodd" clip-rule="evenodd" d="M559.026 282.512C559.516 282.552 560.005 282.592 560.495 282.632C560.005 282.592 559.516 282.552 559.026 282.512Z" fill="black"/>
<path fill-rule="evenodd" clip-rule="evenodd" d="M552.05 289.556C551.804 289.551 551.558 289.546 551.315 289.541C551.562 289.546 551.806 289.551 552.05 289.556Z" fill="black"/>
<path fill-rule="evenodd" clip-rule="evenodd" d="M559.76 285.901C559.514 285.886 559.269 285.871 559.026 285.855C559.273 285.871 559.517 285.886 559.76 285.901Z" fill="black"/>
<path fill-rule="evenodd" clip-rule="evenodd" d="M554.987 285.887C554.741 285.88 554.495 285.873 554.253 285.867C554.5 285.874 554.743 285.881 554.987 285.887Z" fill="black"/>
<path fill-rule="evenodd" clip-rule="evenodd" d="M568.206 285.545C568.206 285.64 569.311 285.158 569.307 285.606L568.206 285.545Z" fill="black"/>
<path fill-rule="evenodd" clip-rule="evenodd" d="M564.166 279.635C563.92 279.635 563.675 279.635 563.432 279.636C563.679 279.635 563.923 279.635 564.166 279.635Z" fill="black"/>
<path fill-rule="evenodd" clip-rule="evenodd" d="M433.819 262.221C434.216 260.599 434.108 259.329 435.524 260.366C436.301 260.935 437.582 263.822 437.485 264.8C437.365 266.006 436.815 266.487 435.68 266.103C434.375 265.661 433.857 263.435 433.819 262.221Z" fill="black"/>
<path fill-rule="evenodd" clip-rule="evenodd" d="M505.356 252.37C508.644 252.37 507.209 255.87 504.468 255.948C503.209 255.984 501.397 255.735 501.805 254.049C502.023 253.15 505.218 251.937 505.356 252.37Z" fill="black"/>
<path fill-rule="evenodd" clip-rule="evenodd" d="M470.086 259.256C472.46 260.404 469.12 265.448 466.963 264.199C464.201 262.601 469.11 259.975 470.086 259.256Z" fill="black"/>
<path fill-rule="evenodd" clip-rule="evenodd" d="M464.311 264.029C465.088 264.877 468.589 267.75 466.659 268.905C464.286 270.326 462.479 265.636 464.311 264.029Z" fill="black"/>
<path fill-rule="evenodd" clip-rule="evenodd" d="M424.521 261.826C423.749 260.333 424.811 256.425 427.169 257.139C429.542 257.858 425.827 261.43 424.521 261.826Z" fill="black"/>
<path fill-rule="evenodd" clip-rule="evenodd" d="M476.903 262.687C478.443 262.067 478.15 263.901 478.383 264.492C478.646 265.164 480.002 266.801 479.662 267.516C479.157 268.578 477.951 267.901 477.296 267.212C476.148 266.004 476.229 264.066 476.903 262.687Z" fill="black"/>
<path fill-rule="evenodd" clip-rule="evenodd" d="M453.441 264.386C452.158 264.386 449.095 260.687 450.894 260.066C453.128 259.296 454.996 264.658 453.441 264.386Z" fill="black"/>
<path fill-rule="evenodd" clip-rule="evenodd" d="M497.784 258.521C498.959 258.811 500.514 262.139 498.743 262.524C496.783 262.952 496.433 259.442 497.784 258.521Z" fill="black"/>
<path fill-rule="evenodd" clip-rule="evenodd" d="M490.659 264.764C489.737 262.989 489.51 259.189 491.76 262.239C492.248 262.899 492.751 262.632 492.5 263.722C492.282 264.673 491.408 264.764 490.659 264.764Z" fill="black"/>
<path fill-rule="evenodd" clip-rule="evenodd" d="M442.111 255.584C443.051 256.998 442.773 261.432 440.811 258.809C439.976 257.695 440.551 255.637 442.111 255.584Z" fill="black"/>
<path fill-rule="evenodd" clip-rule="evenodd" d="M489.332 122.335C491.154 121.864 491.591 126.161 490.528 126.635C489.04 127.298 489.227 123.054 489.332 122.335Z" fill="black"/>
<path fill-rule="evenodd" clip-rule="evenodd" d="M604.613 340.641C602.922 340.542 600.552 340.08 603.115 338.88C604.74 338.119 607.157 338.066 608.874 338.378C610.057 338.593 611.833 339.574 610.027 340.846C608.97 341.589 605.898 340.677 604.613 340.641Z" fill="black"/>
<path fill-rule="evenodd" clip-rule="evenodd" d="M602.717 343.707C602.228 343.652 601.74 343.597 601.251 343.542C601.644 342.83 602.783 342.681 602.717 343.707Z" fill="black"/>
<path fill-rule="evenodd" clip-rule="evenodd" d="M604.923 340.572C605.414 340.583 605.905 340.594 606.392 340.604C605.9 340.594 605.411 340.583 604.923 340.572Z" fill="black"/>
</g>
<path fill-rule="evenodd" clip-rule="evenodd" d="M231.569 105.672C233.263 105.491 233.506 107.792 233.737 108.841C234.39 108.428 234.971 108.823 235.119 107.859C237.185 110.026 238.84 112.513 240.675 114.867C242.435 117.126 245.186 118.922 246.708 121.297C248 123.312 245.869 126.373 245.605 128.522C245.308 130.945 245.94 133.717 247.593 135.564C248.366 136.428 249.311 137.028 250.454 137.26C251.591 137.49 252.672 136.823 253.672 136.965C254.503 137.083 254.539 137.632 254.829 138.448C255.226 139.568 255.732 140.626 256.669 141.412C257.717 142.291 258.842 142.544 259.641 143.725C260.339 144.755 260.734 145.753 261.816 146.468C263.259 147.422 265.575 147.71 265.419 149.939C265.667 149.741 265.915 149.544 266.163 149.347C266.738 151.197 267.53 152.989 268.375 154.729C268.771 155.544 268.975 155.978 268.955 156.885C268.941 157.483 268.613 157.935 268.967 158.513C269.534 159.439 271.048 159.313 271.739 160.062C272.448 160.83 271.712 161.871 272.531 162.54C272.186 162.646 271.23 163.419 271.59 163.889C272.107 164.564 272.146 163.639 272.508 163.75C273.34 164.006 273.165 165.045 273.814 165.328C273.946 165.385 273.937 164.772 273.93 164.606L273.93 164.596L274.216 165.158C278.553 173.623 283.697 181.658 287.773 190.249L288.043 190.823C295.529 206.839 304.428 222.434 314.27 237.125C316.591 240.59 319.139 244.032 321.285 247.597C323.442 251.179 326.13 254.354 328.516 257.779C330.97 261.303 333.216 264.97 335.69 268.478C337.663 271.276 340.075 274.253 340.043 277.861C340.028 279.464 339.795 281.235 338.251 282.096C338.214 281.435 337.215 282.166 336.976 282.328C335.945 283.031 336.506 282.953 335.394 282.708C333.59 282.309 332.05 282.848 330.381 281.822C326.841 279.645 323.352 277.407 319.749 275.33C311.96 270.841 304.249 266.244 297.024 260.879C284.394 251.499 270.672 243.095 259.065 232.426C247.466 221.765 235.294 211.188 221.531 203.39C220.608 202.868 217.964 202.083 218.208 200.837C218.421 199.744 220.8 198.213 221.633 197.456C224.528 194.831 227.543 192.347 230.335 189.609C235.49 184.554 240.607 178.976 244.741 173.046C246.753 170.161 247.779 166.952 248.953 163.672C249.99 160.777 250.948 157.212 249.266 154.348C248.487 153.021 247.412 152.482 245.908 152.583C244.663 152.666 244.719 152.921 244.226 151.6C243.694 150.178 243.262 148.527 241.838 147.704C240.362 146.85 239.356 147.76 238.161 148.614C236.786 146.627 235.099 143.188 232.327 142.998C229.433 142.799 227.789 146.379 226.789 148.531C223.833 154.896 219.988 160.843 215.852 166.511C211.369 172.655 206.786 178.906 201.846 184.691C200.8 185.916 199.613 187.704 198.14 188.447C196.673 189.187 195.448 188.534 194.209 187.693L194.096 187.616C191.085 185.549 188.157 183.426 185.023 181.533C181.551 179.437 177.981 177.517 174.44 175.542C172.878 174.671 171.395 173.621 169.785 172.839C168.286 172.11 166.652 171.749 165.117 171.111C170.755 169.428 176.694 171.632 182.03 173.38C184.8 174.288 187.697 175.232 190.654 174.988C193.211 174.778 195.532 173.407 197.555 171.91C201.212 169.204 201.5 165.139 200.307 161.031C198.935 156.303 196.836 151.755 195.25 147.091C194.529 144.97 194.032 142.717 195.674 140.884C197.143 139.244 199.044 139.042 201.05 139.688C205.912 141.254 210.224 142.724 215.436 142.575C219.511 142.459 224.693 141.302 227.439 137.987C228.943 136.171 229.001 133.673 229.007 131.419C229.014 128.749 228.846 126.063 228.473 123.419C227.806 118.702 226.078 113.979 228.245 109.398C228.753 108.324 230.169 105.822 231.569 105.672ZM273.93 164.592L273.93 164.596L273.928 164.593C273.927 164.554 273.928 164.559 273.93 164.592ZM105.287 142.439C106.561 140.675 110.047 136.567 112.709 137.466C113.173 137.623 113.509 138.087 113.816 138.432C114.033 138.715 114.248 138.998 114.462 139.283C114.595 139.658 114.833 139.768 115.177 139.615C116.11 140.909 117.428 141.886 117.964 143.475C118.496 145.049 119.922 146.576 120.763 148.02C121.414 149.137 122.882 152.119 122.769 153.516V157.081C122.637 158.467 120.049 160.946 119.139 161.883C116.879 164.211 114.424 164.509 111.075 164.212C108.238 163.96 104.563 163.014 102.643 160.757C100.8 158.591 100.826 155.235 101.099 152.568C101.479 148.844 103.112 145.451 105.287 142.439ZM114.016 143.03C113.497 142.064 112.36 141.826 111.362 141.94C110.364 142.054 109.218 142.138 108.303 142.584C107.458 142.996 107.03 143.717 105.977 143.475C106.394 144.195 105.646 144.61 105.539 145.259C105.4 146.092 105.668 146.839 106.218 147.471C107.357 148.78 109.057 148.755 110.639 148.883C111.977 148.99 113.622 149.212 114.408 150.467C114.915 151.275 114.455 151.858 114.692 152.671C114.867 153.269 115.598 153.613 115.917 154.127C116.988 152.55 116.95 149.171 116.298 147.485C115.989 146.688 115.406 145.651 114.944 144.951C114.793 144.722 114.435 144.449 114.341 144.26C114.176 143.933 114.196 143.363 114.016 143.03Z" fill="#FF5678"/>
<path fill-rule="evenodd" clip-rule="evenodd" d="M238.812 353.392C240.749 352.634 243.136 352.988 245.167 353.024C247.716 353.07 250.272 353.264 252.814 353.463C257.695 353.846 262.552 353.684 267.437 354.141C269.863 354.368 272.29 354.577 274.717 354.784C276.842 354.965 279.31 355.529 281.432 355.123C282.308 354.956 284.672 354.131 284.234 352.847C283.896 351.856 281.234 351.246 280.367 350.964C278.328 350.3 276.222 349.824 274.16 349.233C273.101 348.929 272.046 348.602 270.931 348.708C269.985 348.797 268.988 349.504 268.029 349.423C266.611 349.303 265.88 347.52 264.84 346.734C263.184 345.483 261.956 346.151 260.687 347.531C259.748 348.551 258.854 350.094 257.314 350.185C255.354 350.302 254.973 348.62 255.838 347.194C256.634 345.881 258.803 344.534 258.919 342.897C258.992 341.862 257.339 339.093 256.387 338.699C254.786 338.037 252.524 339.79 251.077 340.328C248.55 341.267 245.97 342.099 243.411 342.947C241.661 343.527 239.064 343.579 238.733 345.631C238.32 348.201 238.824 350.811 238.812 353.392ZM138.65 313.884C139.159 312.756 139.694 312.114 138.676 311.067C138.108 310.481 137.305 310.193 136.745 309.586C135.904 308.673 134.586 306.177 136.389 305.549C138.113 304.948 139.565 307.349 140.952 307.876C142.712 308.546 143.803 307.423 144.055 305.74C144.378 303.576 144.022 301.316 144.28 299.126C144.533 296.979 145.282 295.196 145.857 293.14C146.247 291.746 146.724 290.343 144.955 290.034C143.334 289.751 141.453 290.425 139.808 290.515C137.243 290.656 134.648 290.786 132.104 291.171C129.264 291.6 129.316 294.507 128.603 296.883C126.874 302.644 124.556 308.296 123.477 314.235C123.011 316.795 124.245 318.549 125.681 320.563C127.479 323.084 129.349 325.598 131.385 327.934C132.745 329.493 134.277 330.946 136.257 331.663C138.5 332.475 139.357 331.573 138.839 329.36C138.156 326.44 137.125 323.618 137.247 320.576C137.291 319.469 137.613 318.278 136.815 317.351C136.261 316.708 135.313 316.492 134.591 316.101C133.4 315.455 131.555 313.378 133.875 312.931C135.451 312.627 137.125 313.688 138.65 313.884ZM192.224 199.472C193.64 201.054 195.178 202.568 196.521 204.211C197.29 205.154 197.835 206.287 198.661 207.18C200.47 209.137 202.272 206.969 203.874 205.701C210.173 200.717 216.101 195.315 222.103 189.98C224.962 187.438 228.004 185.094 230.818 182.504C233.669 179.88 236.042 176.809 238.713 174.013C239.995 172.671 241.53 171.339 242.322 169.624C242.998 168.162 243.147 166.571 243.916 165.125C245.249 162.621 247.693 159.714 247.133 156.685C245.482 158.417 242.734 164.622 239.854 161.712C237.799 159.635 239.898 156.565 239.807 154.143C237.856 154.972 238.363 158.332 236.283 158.927C235.158 159.249 234.195 158.229 233.67 157.335C232.763 155.79 233.096 154.172 233.508 152.533C233.789 151.416 235.581 147.731 233.809 147.277C232.272 146.883 230.985 149.71 230.476 150.712C229.543 152.549 228.821 154.449 227.797 156.246C226.03 159.345 223.996 162.305 222.056 165.298C218.061 171.46 213.505 177.244 208.819 182.892C203.813 188.925 198.395 194.614 192.224 199.472ZM236.603 219.072C236.401 224.5 231.741 228.617 227.709 231.635C222.556 235.492 217.803 239.876 211.657 242.071C209.291 242.916 206.337 242.673 205.389 245.338C205.019 246.38 205.355 246.763 205.756 247.812C206.384 249.453 206.762 251.233 207.06 252.96C208.074 258.837 207.088 264.821 203.561 269.713C201.685 272.314 199.289 274.525 196.811 276.541C194.339 278.552 192.002 280.898 189.277 282.562C183.465 286.11 177.009 288.147 170.308 289.127C166.823 289.637 163.323 290.092 159.803 290.272C157.978 290.365 156.15 290.382 154.323 290.302C153.507 290.266 150.473 289.576 149.883 290.044C149.429 290.404 149.227 292.586 149.136 293.187C148.943 294.459 148.791 295.714 148.529 296.976C148.002 299.508 147.291 302.372 148.068 304.926C148.293 305.665 148.475 306.267 149.159 306.515C149.592 306.672 150.36 306.396 150.798 306.35C151.789 306.248 152.724 306.209 153.721 306.314C156.991 306.661 160.202 307.497 163.508 307.269C170.554 306.783 177.608 306.287 184.59 305.184C187.986 304.647 191.245 303.631 194.585 302.847C197.768 302.099 200.95 301.344 203.921 299.939C209.742 297.187 215.122 293.546 219.927 289.281C225.058 284.728 228.454 279.331 231.663 273.308C234.483 268.017 236.86 262.662 236.737 256.562C236.658 252.702 236.106 247.92 238.335 244.515C239.354 242.961 241.409 241.519 243.323 242.342C246.797 243.834 243.515 246.79 242.19 248.409C240.281 250.741 240.538 254.293 240.34 257.146C240.106 260.512 239.35 263.464 238.613 266.72C237.892 269.906 239.347 273.685 239.49 276.935C239.647 280.46 239.544 283.988 239.505 287.514C239.426 294.527 239.752 301.521 239.728 308.532C239.715 312.169 239.808 315.823 239.578 319.455C239.369 322.766 238.691 325.934 238.098 329.185C237.516 332.376 236.667 336.198 236.863 339.442C244.824 336.409 252.573 332.826 260.656 330.117C258.135 327.917 258.023 324.807 257.82 321.704C257.552 317.612 256.879 313.555 256.585 309.463C256.005 301.381 256.168 292.88 256.855 284.808C257.593 276.141 258.9 267.503 259.169 258.8C259.299 254.607 258.975 250.404 258.293 246.267C257.718 242.782 257.219 238.396 255.403 235.308C253.667 232.357 250.478 230.482 247.816 228.472C243.923 225.533 240.318 222.227 236.603 219.072ZM237.085 105.716C238.082 107.064 239.208 108.31 240.4 109.488C241.629 110.704 242.153 110.435 243.624 109.803C246.55 108.544 246.494 107.089 244.861 104.566C241.073 98.7144 239.636 91.7458 235.628 86.0136C231.679 80.366 225.935 75.8029 219.904 72.5463C213.433 69.0516 206.42 67.9396 199.126 68.0439C195.398 68.0973 191.646 68.3548 187.942 68.7728C184.339 69.1792 181.133 70.3628 177.645 71.2564C175.889 71.7061 174.078 72.0792 172.371 72.6972C170.873 73.2392 169.527 74.0763 168.013 74.5828C164.7 75.6906 161.366 76.9289 158.377 78.7408C155.455 80.5128 152.822 82.4025 150.168 84.5777C147.419 86.8305 145.032 89.4487 142.059 91.4266C139.353 93.2279 137.201 95.6539 134.747 97.7645C132.184 99.9696 129.819 102.672 127.896 105.458C126.016 108.183 125.3 111.709 124.164 114.781C122.842 118.358 121.53 122.181 121.032 125.973C120.103 133.039 122.187 141.297 124.836 147.836C127.456 154.303 131.703 159.7 136.77 164.435C139.24 166.744 141.935 168.84 144.955 170.384C147.538 171.705 150.907 174.08 153.719 172.42C154.857 171.748 155.781 170.967 157.097 170.664C158.536 170.334 159.945 170.469 161.106 169.413C162.094 168.516 162.565 167.433 163.862 166.891C165.398 166.249 167.215 166.132 168.861 166.137C172.556 166.15 176.253 167.075 179.779 168.102C183.01 169.042 185.715 170.461 189.148 169.601C191.699 168.962 195.791 167.264 196.341 164.337C196.832 161.721 194.936 158.339 193.981 155.997C192.66 152.762 191.465 149.579 190.635 146.178C189.978 143.483 188.946 139.171 190.801 136.708C192.624 134.287 196.839 134.316 199.458 134.925C201.174 135.324 202.752 136.128 204.469 136.532C206.219 136.945 208.028 137.152 209.813 137.355C215.997 138.055 224.795 136.472 224.465 128.563C224.172 121.514 220.291 114.448 222.564 107.39C223.49 104.513 225.382 101.187 228.533 100.427C231.032 99.8249 234.409 100.456 236.614 101.765C238.383 102.815 240.136 105.014 237.085 105.716ZM112.903 137.201C106.67 138.418 102.547 144.994 101.405 150.826C100.887 153.469 100.704 156.616 101.705 159.173C102.86 162.12 106.121 163.35 109 163.969C112.29 164.675 115.206 164.399 117.814 162.116C118.961 161.112 119.932 159.943 120.756 158.665C121.599 157.358 122.771 156.406 121.923 154.945C119.823 151.327 118.031 147.772 116.648 143.79C116.031 142.014 115.482 140.278 115.072 138.448C114.747 136.995 114.59 136.109 112.903 137.201ZM167.497 176.677C166.29 177.839 164.905 178.766 163.348 179.39C161.64 180.076 161.122 179.747 161.206 181.724C161.3 183.907 161.316 185.655 160.322 187.686C159.856 188.637 158.137 189.921 158.462 190.99C158.928 192.526 163.702 194.078 165.095 194.615C168.428 195.9 172.316 195.926 175.462 194.111C179.116 192.002 179.439 188.179 178.063 184.48C177.916 184.085 177.382 183.418 177.513 182.987C177.754 182.197 178.747 182.311 179.317 182.613C180.554 183.268 181.07 185.26 181.337 186.503C182.048 189.823 180.741 193.42 178.258 195.708C176.996 196.871 175.418 197.647 173.808 198.207C172.894 198.525 171.936 198.776 170.971 198.874C170.191 198.952 169.206 198.706 168.462 198.928C167.15 199.32 167.091 200.94 166.763 202.124C166.177 204.24 165.932 206.531 165.856 208.721C165.731 212.262 166.152 216.774 168.188 219.776C172.937 226.781 182.121 229.213 189.291 232.817C193.103 234.734 196.637 237.142 200.031 239.715C200.366 239.969 200.868 240.468 201.27 240.666C202.631 241.336 201.443 241.092 202.314 240.649C202.984 240.308 203.558 239.568 204.251 239.182C205.847 238.293 207.639 237.814 209.262 236.974C213.036 235.02 216.374 232.597 219.723 230.01C223.155 227.359 226.631 224.938 229.762 221.921C231.082 220.649 232.568 219.6 233.907 218.383C235.256 217.156 233.53 216.647 232.388 215.744C228.5 212.671 224.661 209.5 220.509 206.784C219.124 205.878 217.903 204.656 216.458 203.855C214.949 203.019 214.053 203.768 212.865 204.831C211.566 205.994 210.328 207.133 208.882 208.128C206.973 209.442 204.753 210.074 202.834 211.324C204.066 212.616 207.071 213.048 207.507 215.003C207.949 216.985 205 218.532 203.622 219.297C201.188 220.649 198.503 221.47 195.791 222.056C193.535 222.544 190.189 221.81 188.381 223.514C187.865 222.423 187.382 221.853 188.231 220.809C189.078 219.766 190.589 219.587 191.785 219.186C195.016 218.102 198.198 216.659 201.324 215.306C200.909 214.334 199.872 213.669 199.082 213.036C197.953 212.132 197.005 211.131 196.086 210.008C194.333 207.864 192.762 205.578 191.092 203.371C190.369 202.415 189.708 201.459 188.386 201.989C187.219 202.457 186.08 203.67 184.959 204.298C182.422 205.719 180.203 207.083 177.411 207.987C176.286 208.352 171.68 209.389 172.905 206.571C173.268 205.735 174.482 205.391 175.23 205.026C176.611 204.351 177.988 203.662 179.319 202.891C182.054 201.307 184.465 199.26 187.023 197.418C189.845 195.385 192.715 193.413 195.364 191.154C192.728 189.406 189.804 188.126 187.077 186.528C184.322 184.912 181.546 183.451 178.696 182.016C176.427 180.873 174.12 179.654 172.051 178.177C171.228 177.59 168.399 175.149 167.497 176.677ZM250.389 119.831C250.042 119.918 249.699 120.017 249.359 120.128C251.67 123.665 249.118 128.043 249.841 131.87C251.975 130.607 252.255 125.695 255.494 126.603C258.983 127.581 257.247 131.879 258.303 134.338C259.952 132.895 261.878 134.243 262.558 135.955C263.294 137.809 262.273 139.521 262.616 141.356C262.972 143.255 264.032 142.009 264.619 140.889C265.368 139.462 266.023 137.532 265.747 135.899C265.411 133.913 264.079 132.066 263.253 130.263C262.434 128.47 261.657 126.641 260.47 125.051C258.222 122.04 254.318 119.334 250.389 119.831ZM272.739 162.241C271.23 158.472 268.997 155.02 267.571 151.221C267.153 150.11 266.92 148.339 265.817 147.655C265.092 147.205 264.127 147.475 263.328 147.233C262.531 146.992 261.69 146.418 261.119 145.825C260.073 144.741 259.734 143.253 258.5 142.308C256.909 141.089 255.679 140.622 254.922 138.586C254.327 136.987 254.326 136.752 252.539 137.109C250.588 137.499 249.003 137.021 247.657 135.496C245.378 132.914 245.126 129.275 246.245 126.158C246.768 124.7 247.678 123.004 246.922 121.478C246.22 120.06 244.514 119.042 243.434 117.912C240.702 115.055 238.564 111.712 236.002 108.715C235.389 107.998 234.763 107.283 234.29 106.461C233.99 105.939 233.813 105.041 233.117 104.893C231.92 104.638 230.248 106.711 229.646 107.466C225.236 112.989 228.391 120.513 228.928 126.74C229.201 129.911 229.816 133.713 228.411 136.699C227.087 139.512 223.736 140.917 220.911 141.7C217.102 142.757 213.011 142.711 209.134 142.069C207.104 141.733 205.156 141.159 203.234 140.432C201.268 139.689 199.222 138.409 197.218 139.759C194.632 141.502 195.431 144.997 195.999 147.545C196.927 151.707 198.547 155.59 199.981 159.588C201.185 162.946 202.16 167.16 199.628 170.165C197.1 173.166 192.908 175.044 189.006 174.888C180.915 174.565 173.53 168.528 165.263 170.998C166.816 171.64 168.459 172.018 169.976 172.754C171.808 173.642 173.504 174.822 175.283 175.81C178.697 177.705 182.124 179.574 185.461 181.605C188.476 183.44 191.326 185.45 194.204 187.484C197.79 190.017 199.678 187.211 201.979 184.474C207 178.499 211.781 172.173 216.343 165.841C220.31 160.337 223.992 154.59 226.861 148.441C227.887 146.24 229.615 142.508 232.619 142.942C235.285 143.327 236.84 146.547 238.219 148.518C239.181 147.828 240.005 146.906 241.304 147.285C242.381 147.6 243.126 148.706 243.602 149.649C243.93 150.298 244.154 152.483 244.702 152.812C245.091 153.046 246.581 152.543 247.246 152.697C249.519 153.223 250.245 156.147 250.222 158.177C250.19 160.974 249.022 163.774 248.065 166.364C245.92 172.172 242.244 176.71 238.193 181.299C234.08 185.956 229.776 190.177 225.138 194.31C223.993 195.33 222.86 196.361 221.744 197.413C220.829 198.275 219.38 199.171 218.664 200.184C217.338 202.058 220.884 202.908 222.203 203.594C227.88 206.545 233.112 210.43 238.111 214.393C243.267 218.479 248.451 222.581 253.405 226.911C258.252 231.147 262.829 235.661 267.932 239.6C273.176 243.647 278.67 247.383 284.058 251.234C289.451 255.088 294.699 259.143 300.085 263.002C305.35 266.774 311.001 270.007 316.538 273.355C319.435 275.107 322.346 276.834 325.256 278.563C327.609 279.962 330.163 282.135 332.953 282.312C335.467 282.471 337.85 283.397 339.353 280.661C340.493 278.585 340.021 275.729 339.022 273.711C337.804 271.249 335.897 268.986 334.365 266.707C332.604 264.087 330.969 261.391 329.231 258.758C327.564 256.233 325.711 253.902 323.852 251.523C321.966 249.11 320.536 246.391 318.856 243.837C315.264 238.376 311.572 233.014 308.166 227.431C300.358 214.627 293.364 201.408 286.681 187.991C286.092 186.809 272.354 162.451 272.739 162.241ZM261.744 240.963C265.941 255.482 263.52 270.246 262.66 285.017C262.225 292.485 262.159 300 261.966 307.478C261.872 311.113 261.879 314.751 262.029 318.385C262.105 320.213 262.239 322.035 262.369 323.859C262.484 325.473 262.051 327.256 262.255 328.813C262.515 330.807 266.471 331.198 265.255 333.757C264.44 335.474 261.585 335.736 260.056 336.46C260.736 337.248 261.8 338.428 262.934 338.502C263.955 338.568 264.744 337.682 265.66 337.346C266.473 337.049 267.591 336.76 268.105 337.71C268.642 338.704 267.517 339.81 267.071 340.58C268.585 340.873 269.632 339.969 270.997 340.052C272.434 340.139 272.499 341.554 273.443 342.373C274.523 343.309 276.408 343.51 277.739 343.904C279.288 344.362 280.844 344.93 282.254 345.726C284.776 347.148 286.941 349.834 287.873 352.583C288.838 355.432 287.331 357.898 285.085 359.646C284.248 360.297 283.048 361.054 281.939 360.703C280.67 360.302 280.472 359.269 278.927 359.345C277.538 359.414 276.22 359.969 274.825 360.04C272.774 360.145 270.725 359.771 268.671 359.85C260.385 360.168 252.098 360.239 243.826 359.442C241.686 359.235 239.588 359.067 237.478 358.999C235.837 358.947 235.7 357.722 235.422 356.185C234.751 352.471 236.236 348.816 235.5 345.208C235.549 345.446 234.388 344.826 234.248 344.708C233.395 343.99 233.11 342.969 232.856 341.909C232.18 339.085 232.187 336.207 232.396 333.327C232.871 326.79 234.087 320.313 233.987 313.741C233.937 310.429 234.037 307.124 234.038 303.813C234.039 300.772 234.314 297.77 234.339 294.75C234.395 288.128 235.092 281.579 235.286 274.964C233.909 276.305 233.179 278.175 232.304 279.848C231.228 281.906 230.028 283.942 228.714 285.856C226 289.81 222.36 293.027 218.588 295.944C211.391 301.511 203.572 305.822 194.754 308.183C185.208 310.738 175.555 312.463 165.714 313.433C163.437 313.657 161.135 313.779 158.853 313.557C157.358 313.411 154.93 312.203 153.51 312.816C151.896 313.513 151.571 315.189 149.455 314.719C148.648 314.539 148.063 313.999 147.357 313.636C146.317 313.1 146.275 313.47 145.283 313.538C144.176 313.614 143.512 313.061 142.548 313.953C141.728 314.71 141.808 315.241 142.556 315.95C143.608 316.946 145.291 317.113 146.344 318.154C147.368 319.166 147.185 320.41 145.603 320.425C144.011 320.44 142.596 319.306 141.04 319.158C141.372 323.764 142.756 328.91 141.221 333.429C140.509 335.525 138.98 336.876 136.701 336.861C132.887 336.837 129.542 333.325 127.245 330.59C125.975 329.078 124.946 327.379 123.72 325.829C122.466 324.245 121.122 322.653 120.404 320.737C119.641 318.699 119.864 316.654 120.291 314.561C120.819 311.972 121.31 309.356 121.948 306.791C123.186 301.817 125.677 297.277 126.934 292.318C127.41 290.442 127.404 288.24 128.604 286.631C129.875 284.928 131.852 284.819 133.813 284.928C136.24 285.063 138.666 285.331 141.08 285.606C142.605 285.78 145.946 286.88 147.186 285.942C147.614 285.619 147.614 284.773 148.114 284.481C148.595 284.199 149.373 284.402 149.899 284.441C152.506 284.634 155.136 284.87 157.748 284.946C167.457 285.23 177.701 283.716 186.369 279.201C190.392 277.107 193.456 273.809 196.689 270.694C199.868 267.631 202.639 264.335 203.494 259.888C204.275 255.829 203.98 250.974 202.682 247.045C201.419 243.217 196.935 240.899 193.671 239.012C189.145 236.395 184.34 234.226 179.464 232.347C178.69 232.049 177.749 231.669 176.898 231.821C175.854 232.008 175.153 232.913 174.204 233.313C173.075 233.788 171.69 233.79 170.499 234.068C169.344 234.337 168.219 234.706 167.043 234.884C163.338 235.443 158.133 234.997 155.072 232.629C150.068 228.758 153.091 223.28 154.699 218.569C152.999 218.511 151.584 218.909 149.961 218.181C148.345 217.456 147.082 216.172 146.345 214.563C145.004 211.636 145.779 208.272 146.174 205.22C146.353 203.84 146.557 202.471 147.083 201.175C147.49 200.171 148.159 199.214 148.406 198.153C148.679 196.983 148.326 196.915 147.351 196.356C145.849 195.494 144.768 194.502 143.848 192.989C142.047 190.026 142.002 186.791 143.478 183.673C144.076 182.411 145.501 180.677 145.339 179.203C145.199 177.935 143.766 176.948 142.921 176.118C140.314 173.554 137.542 171.187 134.651 168.951C133.3 167.905 131.812 166.957 130.584 165.769C129.684 164.9 128.77 163.007 127.539 162.55C126.308 162.092 125.487 163.469 124.629 164.207C123.292 165.357 122.01 166.68 120.553 167.677C117.939 169.466 114.697 169.131 111.745 168.56C108.662 167.963 105.801 166.912 103.172 165.178C102.128 164.489 100.908 163.089 99.6214 162.977C98.2475 162.858 96.755 164.225 95.7732 165.045C93.2098 167.188 92.4403 170.516 90.9473 173.394C89.2802 176.608 88.5721 179.944 89.0256 183.558C89.4338 186.809 90.6847 189.265 92.5459 191.891C92.9304 192.434 93.8315 193.46 93.173 194.061C92.3673 194.796 90.7163 193.322 90.1753 192.846C84.8015 188.115 81.7472 180.987 83.4916 173.852C84.4281 170.02 86.2599 166.476 88.3871 163.179C89.2916 161.777 90.174 160.375 91.7472 159.66C93.5378 158.846 95.5669 158.943 97.4797 158.748C96.1567 152.266 95.7425 145.212 99.8079 139.563C102.928 135.228 109.316 131.435 114.38 134.95C114.172 130.172 113.491 125.634 114.762 120.929C115.332 118.82 116.111 116.768 117.07 114.806C118.01 112.883 119.307 111.252 120.066 109.25C123.059 101.354 128.803 94.3007 134.939 88.6336C141.141 82.9051 147.226 75.9165 155.039 72.3326C163.189 68.5931 171.489 65.2328 180.326 63.5336C189.498 61.77 198.926 61.4079 208.165 63.0777C216.265 64.5416 223.761 69.4637 229.89 74.77C236.884 80.825 241.399 88.1248 244.97 96.5804C245.755 98.4377 246.511 100.311 247.474 102.086C248.541 104.056 249.913 105.887 250.698 108.001C251.398 109.886 251.516 111.93 250.269 113.614C249.392 114.798 247.593 115.066 246.826 116.149C246.439 116.695 246.478 117.214 247.329 117.377C248.208 117.545 248.626 116.564 249.258 116.171C250.83 115.192 253.048 116.026 254.638 116.582C258.407 117.901 261.358 120.27 263.613 123.554C265.772 126.696 267.205 130.266 268.63 133.78C269.53 135.997 270.386 138.199 270.881 140.548C271.067 141.432 271.327 143.827 269.931 142.777C269.366 142.352 268.557 145.581 268.71 146.096C269.24 147.884 271.132 149.561 272.246 151.009C274.864 154.413 276.617 158.226 278.464 162.076C282.465 170.413 286.92 178.507 291.199 186.7C299.915 203.384 309.44 219.427 319.431 235.374C324.382 243.275 329.485 251.041 334.776 258.718C337.111 262.105 339.453 265.494 341.738 268.916C343.679 271.824 345.594 275.062 345.095 278.691C344.638 282.014 342.665 284.683 339.475 285.77C337.766 286.353 335.737 287.024 333.907 286.845C331.907 286.65 330.142 285.31 328.475 284.304C320.813 279.683 313.149 275.065 305.482 270.452C296.907 265.293 289.065 259.167 280.884 253.43C276.722 250.511 272.429 247.881 268.092 245.239C267.115 244.644 262.684 240.381 261.744 240.963Z" fill="black"/>
<path fill-rule="evenodd" clip-rule="evenodd" d="M187.498 255.651C185.404 258.738 183.201 261.639 180.253 263.98C177.147 266.447 173.899 268.446 170.432 270.36C164.316 273.736 156.119 276.725 149.016 275.195C146.996 274.76 143.764 272.991 145.52 270.465C146.403 269.196 148.296 269.527 149.637 269.597C151.796 269.71 153.684 269.833 155.753 269.106C159.555 267.769 163.383 266.509 167.095 264.935C170.691 263.411 173.845 261.321 177.143 259.267C180.237 257.341 182.597 255.036 185.315 252.708C186.059 252.07 187.339 250.955 188.043 252.195C188.552 253.091 187.777 254.775 187.498 255.651Z" fill="black"/>
<path fill-rule="evenodd" clip-rule="evenodd" d="M272.131 107.406C271.897 108.743 271.264 111.402 269.384 111.039C266.987 110.576 268.168 105.878 268.131 104.284C267.972 97.3353 265.709 90.654 262.357 84.6296C260.69 81.6346 258.637 78.8649 257.123 75.7842C256.829 75.1856 255.936 73.701 256.584 73.0516C257.363 72.2717 258.857 73.4486 259.406 74.0051C261.528 76.1573 263.219 79.3836 264.857 81.916C267.045 85.2969 268.977 88.8676 270.364 92.6586C272.039 97.2379 272.98 102.549 272.131 107.406Z" fill="black"/>
<path fill-rule="evenodd" clip-rule="evenodd" d="M276.616 85.1849C276.84 86.3898 277.935 89.6684 275.982 89.9591C273.767 90.2888 273.078 84.826 272.464 83.3787C272.139 82.6157 270.411 79.2555 271.312 78.5241C273.187 77.0013 276.171 84.2153 276.616 85.1849Z" fill="black"/>
<path fill-rule="evenodd" clip-rule="evenodd" d="M172.365 247.779C170.263 249.696 167.822 249.583 165.168 249.401C163.821 249.308 160.7 248.51 162.868 246.837C164.001 245.963 172.89 245.362 172.365 247.779Z" fill="black"/>
<path fill-rule="evenodd" clip-rule="evenodd" d="M336.194 282.884C336.343 282.586 337.605 281.158 337.877 281.736C338.133 282.28 336.527 282.868 336.194 282.884Z" fill="black"/>
<path fill-rule="evenodd" clip-rule="evenodd" d="M168.966 176.891C168.707 177.425 167.628 176.959 167.255 177.039C167.761 175.956 168.362 176.188 168.966 176.891Z" fill="black"/>
<path fill-rule="evenodd" clip-rule="evenodd" d="M250.228 120.217C250.115 120.645 250.003 121.073 249.891 121.501C249.718 121.18 249.545 120.86 249.372 120.539C249.657 120.432 249.943 120.324 250.228 120.217Z" fill="black"/>
<path fill-rule="evenodd" clip-rule="evenodd" d="M252.292 201.095C254.991 201.367 257.698 201.505 260.407 201.589C262.694 201.659 263.633 201.226 263.925 198.847C264.271 196.027 264.39 193.182 264.735 190.361C264.892 189.079 266.134 186.517 264.638 185.831C263.384 185.257 261.428 186.08 260.115 186.177C258.652 186.285 256.444 185.838 255.151 186.706C253.768 187.634 254.069 190.884 253.833 192.41C253.384 195.317 252.843 198.205 252.292 201.095ZM251.005 187.398C248.56 187.583 246.106 187.729 243.667 187.99C242.582 188.106 240.385 188.643 239.47 187.853C237.323 185.998 245.349 185.347 246.259 185.2C247.793 184.954 250.419 185.281 251.403 183.831C252.376 182.398 252.13 179.988 252.382 178.323C252.76 175.818 253.193 173.316 253.446 170.794C253.531 169.946 253.41 167.146 254.304 166.73C256.359 165.774 255.714 175.628 255.68 176.368C255.622 177.64 255.558 178.918 255.381 180.179C255.281 180.89 254.931 181.851 255.147 182.565C255.767 184.613 259.288 183.432 260.891 183.268C262.688 183.085 265.464 183.782 266.059 181.563C266.806 178.773 266.698 175.606 266.975 172.736C267.051 171.942 267.252 166.015 268.713 166.475C270.345 166.988 269.708 171.941 269.693 173.216C269.676 174.655 269.682 176.095 269.584 177.531C269.497 178.822 269.133 180.404 269.402 181.683C269.874 183.924 272.53 182.732 273.3 184.515C274.033 186.21 270.04 184.881 269.295 185.464C268.182 186.333 268.45 189.966 268.29 191.238C267.941 194.031 267.271 196.933 267.053 199.718C266.881 201.917 268.647 201.625 270.445 201.466C271.986 201.329 273.679 200.963 275.224 201.169C276.465 201.334 278.199 202.478 276.392 203.24C273.567 204.431 267.814 201.997 266.395 205.615C266.127 206.298 264.881 214.212 263.316 210.305C262.661 208.672 264.264 206.11 262.555 204.859C261.963 204.424 261.08 204.501 260.393 204.453C258.701 204.335 256.997 204.295 255.302 204.26C253.611 204.225 252.092 203.884 251.439 205.738C250.93 207.182 250.987 208.798 250.58 210.276C250.276 211.384 249.275 213.323 248.237 211.51C247.555 210.32 248.077 208.24 248.211 206.945C248.279 206.297 248.665 204.956 248.173 204.412C247.646 203.827 246.235 204.144 245.568 204.196C243.641 204.349 240.055 205.277 238.581 203.529C237.348 202.066 239.911 202.038 240.919 201.939C241.958 201.837 242.996 201.743 244.034 201.634C245.177 201.513 246.689 201.674 247.764 201.316C249.57 200.714 249.441 198.257 249.56 196.663C249.792 193.55 250.491 190.475 251.005 187.398Z" fill="black"/>
<path fill-rule="evenodd" clip-rule="evenodd" d="M282.732 194.047C282.586 195.845 282.392 197.86 281.812 199.568C281.373 200.86 280.487 201.252 280.185 199.608C279.994 198.566 281.266 192.693 282.732 194.047Z" fill="black"/>
<path fill-rule="evenodd" clip-rule="evenodd" d="M168.721 182.212C168.001 181.694 164.59 178.972 167.056 178.864C168.315 178.809 171.026 180.882 171.104 182.031C171.124 182.322 170.504 182.472 170.538 182.753C170.602 183.287 171.393 183.541 171.647 183.965C172.209 184.903 171.976 186.755 171.25 187.646C169.596 189.679 167.759 186.238 169.04 185.563C168.754 185.713 164.925 183.765 164.781 183.325C163.993 180.914 168.528 183.185 168.721 182.212Z" fill="black"/>
<path fill-rule="evenodd" clip-rule="evenodd" d="M174.733 191.7C173.858 191.727 172.101 191.666 171.446 191.041C170.228 189.879 172.604 189.725 173.299 189.184C174.273 188.425 174.465 185.959 175.994 187.485C177.511 188.999 176.177 190.76 174.733 191.7Z" fill="black"/>
<path fill-rule="evenodd" clip-rule="evenodd" d="M162.123 185.295C163.705 185.062 167.223 188.475 165.516 188.702C164.386 188.852 162.37 186.206 162.123 185.295Z" fill="black"/>
</g>
<defs>
<clipPath id="clip0_1186_1715">
<rect width="690" height="422" fill="white"/>
</clipPath>
<clipPath id="clip1_1186_1715">
<rect width="690" height="422" fill="white" transform="translate(0 1)"/>
</clipPath>
</defs>
</svg>
