<svg width="933" height="571" viewBox="0 0 933 571" fill="none" xmlns="http://www.w3.org/2000/svg">
<path d="M933 0H0V571H933V0Z" fill="#FDF074"/>
<path fill-rule="evenodd" clip-rule="evenodd" d="M330.684 57.4141L558.691 285.621L330.684 513.828L102.676 285.621L330.684 57.4141Z" fill="white"/>
<path fill-rule="evenodd" clip-rule="evenodd" d="M488.083 118.373C490.899 118.072 491.301 121.897 491.685 123.642C492.77 122.955 493.736 123.611 493.982 122.009C497.415 125.612 500.165 129.748 503.213 133.662C506.137 137.418 510.708 140.404 513.237 144.352C515.384 147.704 511.842 152.793 511.404 156.367C510.91 160.395 511.96 165.004 514.706 168.075C515.991 169.511 517.562 170.509 519.461 170.895C521.349 171.278 523.145 170.169 524.808 170.405C526.187 170.601 526.248 171.514 526.729 172.871C527.388 174.733 528.229 176.491 529.786 177.799C531.527 179.26 533.397 179.682 534.725 181.645C535.884 183.357 536.541 185.016 538.338 186.205C540.736 187.792 544.583 188.272 544.323 191.976C544.736 191.649 545.148 191.321 545.56 190.992C546.516 194.069 547.831 197.048 549.236 199.942C549.894 201.298 550.232 202.018 550.198 203.526C550.175 204.52 549.632 205.272 550.219 206.234C551.16 207.773 553.676 207.564 554.824 208.809C556.002 210.086 554.78 211.817 556.141 212.93C555.567 213.106 553.979 214.391 554.576 215.172C555.435 216.294 555.5 214.757 556.102 214.942C557.485 215.366 557.193 217.095 558.272 217.565C558.494 217.661 558.477 216.625 558.465 216.359L558.464 216.348L558.878 217.16C566.117 231.321 574.722 244.753 581.522 259.126L581.913 259.956C594.35 286.587 609.136 312.517 625.488 336.944C629.345 342.706 633.577 348.429 637.144 354.356C640.727 360.312 645.194 365.591 649.158 371.287C653.235 377.145 656.967 383.244 661.077 389.076C664.355 393.728 668.362 398.679 668.309 404.677C668.284 407.342 667.897 410.287 665.332 411.719C665.27 410.62 663.61 411.836 663.214 412.105C661.5 413.273 662.432 413.144 660.585 412.736C657.588 412.073 655.028 412.97 652.255 411.264C646.374 407.644 640.578 403.923 634.591 400.469C621.65 393.005 608.839 385.361 596.835 376.44C575.85 360.845 553.051 346.87 533.767 329.13C514.496 311.404 494.273 293.817 471.406 280.852C469.872 279.983 465.479 278.679 465.884 276.606C466.239 274.79 470.19 272.243 471.576 270.986C476.386 266.62 481.395 262.49 486.034 257.937C494.598 249.533 503.099 240.258 509.969 230.398C513.311 225.601 515.016 220.265 516.967 214.812C518.689 209.997 520.281 204.07 517.486 199.307C516.192 197.101 514.406 196.206 511.907 196.374C509.839 196.512 509.932 196.936 509.112 194.739C508.23 192.374 507.512 189.629 505.145 188.26C502.693 186.841 501.022 188.354 499.036 189.774C496.752 186.47 493.949 180.752 489.343 180.436C484.534 180.106 481.803 186.057 480.142 189.636C475.231 200.22 468.842 210.107 461.97 219.532C454.522 229.748 446.907 240.141 438.7 249.761C436.963 251.798 434.99 254.77 432.542 256.005C430.093 257.242 428.05 256.14 425.981 254.731L425.824 254.624C420.822 251.187 415.957 247.657 410.749 244.51C404.98 241.024 399.049 237.832 393.166 234.548C390.57 233.099 388.107 231.355 385.433 230.054C382.941 228.841 380.227 228.241 377.676 227.18C387.043 224.382 396.911 228.047 405.777 230.954C410.379 232.462 415.191 234.033 420.105 233.628C424.354 233.277 428.21 230.998 431.571 228.509C437.647 224.01 438.124 217.251 436.143 210.42C433.863 202.558 430.376 194.997 427.741 187.242C426.543 183.715 425.718 179.969 428.445 176.921C430.886 174.194 434.045 173.858 437.377 174.932C445.455 177.536 452.62 179.98 461.279 179.733C468.049 179.54 476.66 177.615 481.221 172.105C483.721 169.084 483.817 164.931 483.827 161.184C483.839 156.744 483.559 152.278 482.939 147.882C481.832 140.039 478.96 132.185 482.561 124.569C483.406 122.783 485.757 118.623 488.083 118.373ZM558.464 216.339L558.464 216.348L558.461 216.343C558.459 216.279 558.461 216.286 558.464 216.339ZM278.271 179.506C280.387 176.573 286.179 169.744 290.602 171.238C291.374 171.499 291.932 172.271 292.441 172.845C292.802 173.314 293.159 173.785 293.515 174.259C293.735 174.882 294.131 175.066 294.703 174.811C296.254 176.962 298.442 178.586 299.334 181.229C300.216 183.847 302.587 186.386 303.984 188.787C305.066 190.644 307.503 195.602 307.317 197.925V203.853C307.097 206.157 302.797 210.278 301.285 211.837C297.53 215.708 293.452 216.204 287.888 215.71C283.174 215.291 277.069 213.717 273.878 209.964C270.815 206.364 270.859 200.783 271.312 196.348C271.945 190.156 274.657 184.515 278.271 179.506ZM292.774 180.489C291.911 178.884 290.023 178.487 288.364 178.677C286.706 178.867 284.802 179.007 283.282 179.748C281.877 180.433 281.167 181.632 279.417 181.229C280.11 182.426 278.868 183.117 278.689 184.195C278.459 185.58 278.905 186.822 279.818 187.873C281.709 190.051 284.534 190.008 287.163 190.22C289.385 190.4 292.119 190.768 293.425 192.854C294.267 194.199 293.503 195.168 293.898 196.519C294.188 197.514 295.402 198.086 295.933 198.941C297.712 196.318 297.649 190.701 296.564 187.897C296.052 186.572 295.083 184.848 294.315 183.684C294.064 183.303 293.471 182.849 293.313 182.534C293.04 181.991 293.073 181.043 292.774 180.489Z" fill="#FF5678"/>
<path fill-rule="evenodd" clip-rule="evenodd" d="M500.117 530.264C503.335 529.003 507.302 529.592 510.676 529.653C514.911 529.729 519.159 530.051 523.382 530.382C531.491 531.019 539.561 530.75 547.678 531.509C551.708 531.886 555.74 532.235 559.773 532.579C563.304 532.88 567.404 533.818 570.929 533.143C572.384 532.864 576.312 531.493 575.584 529.358C575.023 527.711 570.6 526.695 569.16 526.226C565.771 525.123 562.272 524.332 558.847 523.348C557.087 522.843 555.335 522.3 553.482 522.475C551.91 522.624 550.254 523.8 548.661 523.664C546.305 523.465 545.091 520.501 543.362 519.194C540.611 517.113 538.571 518.225 536.462 520.519C534.902 522.215 533.416 524.781 530.857 524.932C527.602 525.126 526.968 522.33 528.405 519.959C529.728 517.775 533.331 515.535 533.524 512.813C533.647 511.092 530.899 506.488 529.317 505.833C526.658 504.732 522.899 507.647 520.495 508.542C516.296 510.104 512.01 511.487 507.759 512.897C504.851 513.862 500.536 513.947 499.987 517.36C499.3 521.633 500.137 525.972 500.117 530.264ZM333.703 464.573C334.548 462.697 335.436 461.63 333.746 459.888C332.801 458.915 331.468 458.436 330.538 457.426C329.14 455.908 326.95 451.758 329.946 450.713C332.809 449.714 335.222 453.706 337.527 454.583C340.451 455.696 342.263 453.83 342.682 451.031C343.219 447.434 342.628 443.676 343.057 440.034C343.476 436.464 344.721 433.5 345.677 430.082C346.324 427.764 347.116 425.431 344.178 424.917C341.484 424.445 338.359 425.566 335.626 425.717C331.365 425.951 327.053 426.167 322.826 426.807C318.108 427.521 318.194 432.354 317.009 436.305C314.137 445.883 310.286 455.281 308.492 465.156C307.719 469.413 309.769 472.33 312.155 475.678C315.142 479.869 318.249 484.05 321.632 487.934C323.891 490.527 326.436 492.942 329.726 494.134C333.452 495.485 334.876 493.985 334.017 490.306C332.881 485.449 331.169 480.759 331.37 475.7C331.444 473.859 331.979 471.879 330.653 470.338C329.734 469.269 328.158 468.909 326.958 468.258C324.98 467.185 321.915 463.731 325.769 462.988C328.387 462.483 331.169 464.247 333.703 464.573ZM422.713 274.336C425.065 276.966 427.622 279.483 429.852 282.216C431.13 283.783 432.036 285.667 433.408 287.152C436.414 290.406 439.408 286.801 442.069 284.694C452.535 276.406 462.384 267.424 472.355 258.554C477.106 254.327 482.161 250.43 486.836 246.123C491.572 241.76 495.515 236.653 499.952 232.005C502.083 229.773 504.634 227.559 505.95 224.708C507.072 222.276 507.32 219.631 508.598 217.226C510.812 213.063 514.873 208.229 513.942 203.193C511.2 206.072 506.633 216.39 501.849 211.551C498.435 208.098 501.922 202.993 501.771 198.966C498.529 200.344 499.371 205.932 495.915 206.921C494.046 207.455 492.447 205.76 491.575 204.274C490.068 201.704 490.621 199.015 491.305 196.289C491.772 194.432 494.749 188.305 491.804 187.549C489.252 186.894 487.114 191.595 486.268 193.261C484.718 196.315 483.518 199.475 481.816 202.463C478.881 207.616 475.501 212.538 472.278 217.513C465.64 227.76 458.071 237.377 450.285 246.768C441.968 256.799 432.966 266.258 422.713 274.336ZM496.448 306.926C496.112 315.951 488.369 322.796 481.671 327.814C473.109 334.228 465.212 341.517 455.001 345.167C451.07 346.573 446.162 346.168 444.586 350.6C443.971 352.332 444.53 352.969 445.197 354.713C446.24 357.441 446.868 360.401 447.363 363.272C449.047 373.044 447.41 382.994 441.548 391.129C438.432 395.453 434.451 399.129 430.334 402.481C426.228 405.825 422.344 409.726 417.817 412.492C408.161 418.391 397.435 421.779 386.301 423.409C380.51 424.257 374.696 425.012 368.848 425.312C365.815 425.467 362.777 425.495 359.742 425.362C358.387 425.303 353.345 424.155 352.365 424.934C351.611 425.532 351.275 429.159 351.124 430.16C350.804 432.275 350.551 434.362 350.115 436.459C349.24 440.669 348.059 445.431 349.35 449.679C349.724 450.907 350.026 451.907 351.162 452.32C351.882 452.581 353.157 452.121 353.885 452.046C355.531 451.877 357.086 451.811 358.741 451.986C364.175 452.562 369.511 453.954 375.003 453.575C386.71 452.766 398.429 451.941 410.03 450.106C415.673 449.214 421.087 447.525 426.636 446.221C431.925 444.977 437.211 443.722 442.147 441.386C451.819 436.81 460.757 430.756 468.741 423.665C477.266 416.094 482.908 407.12 488.24 397.105C492.925 388.308 496.875 379.404 496.669 369.262C496.539 362.844 495.621 354.892 499.325 349.231C501.018 346.646 504.432 344.25 507.612 345.617C513.384 348.099 507.931 353.013 505.73 355.705C502.558 359.583 502.985 365.489 502.656 370.232C502.267 375.829 501.011 380.738 499.787 386.151C498.589 391.448 501.006 397.733 501.245 403.137C501.504 408.998 501.333 414.864 501.268 420.726C501.138 432.387 501.679 444.016 501.639 455.674C501.618 461.721 501.772 467.797 501.39 473.835C501.042 479.341 499.916 484.609 498.931 490.014C497.964 495.32 496.554 501.674 496.88 507.068C510.106 502.025 522.981 496.068 536.411 491.563C532.222 487.905 532.036 482.735 531.698 477.576C531.253 470.771 530.135 464.025 529.647 457.222C528.683 443.784 528.954 429.649 530.095 416.226C531.321 401.816 533.494 387.454 533.941 372.983C534.156 366.012 533.617 359.023 532.484 352.144C531.529 346.348 530.7 339.056 527.682 333.921C524.799 329.015 519.5 325.897 515.077 322.555C508.61 317.668 502.619 312.172 496.448 306.926ZM497.249 118.444C498.905 120.687 500.776 122.757 502.756 124.717C504.799 126.738 505.669 126.292 508.113 125.24C512.974 123.148 512.88 120.728 510.167 116.533C503.874 106.803 501.487 95.2162 494.827 85.6851C488.266 76.2946 478.722 68.7074 468.703 63.2925C457.951 57.4818 446.299 55.6328 434.18 55.8062C427.987 55.895 421.754 56.3231 415.599 57.0182C409.612 57.6939 404.287 59.6619 398.491 61.1477C395.574 61.8954 392.565 62.5159 389.729 63.5434C387.24 64.4446 385.002 65.8365 382.488 66.6786C376.983 68.5207 371.444 70.5796 366.478 73.5924C361.622 76.5387 357.248 79.6808 352.838 83.2976C348.271 87.0434 344.305 91.3967 339.367 94.6854C334.87 97.6804 331.295 101.714 327.218 105.224C322.958 108.89 319.03 113.383 315.835 118.016C312.711 122.547 311.521 128.409 309.634 133.518C307.437 139.465 305.258 145.822 304.43 152.127C302.888 163.875 306.349 177.607 310.751 188.479C315.104 199.233 322.16 208.205 330.578 216.078C334.682 219.918 339.16 223.402 344.178 225.97C348.47 228.166 354.066 232.116 358.738 229.356C360.63 228.239 362.165 226.94 364.352 226.436C366.742 225.887 369.084 226.112 371.013 224.356C372.653 222.865 373.437 221.064 375.59 220.163C378.143 219.095 381.163 218.901 383.896 218.909C390.035 218.93 396.178 220.469 402.036 222.176C407.405 223.74 411.899 226.098 417.603 224.669C421.841 223.607 428.64 220.783 429.553 215.916C430.37 211.566 427.219 205.943 425.632 202.049C423.438 196.67 421.451 191.378 420.074 185.722C418.981 181.241 417.266 174.072 420.349 169.976C423.378 165.951 430.381 166 434.732 167.012C437.584 167.675 440.205 169.011 443.058 169.684C445.965 170.371 448.972 170.715 451.937 171.052C462.211 172.216 476.828 169.584 476.281 156.433C475.794 144.713 469.346 132.964 473.122 121.229C474.661 116.445 477.804 110.914 483.039 109.651C487.191 108.65 492.802 109.699 496.465 111.875C499.405 113.621 502.318 117.277 497.249 118.444ZM290.925 170.796C280.568 172.82 273.719 183.754 271.82 193.451C270.96 197.845 270.656 203.077 272.32 207.329C274.238 212.23 279.657 214.275 284.439 215.303C289.906 216.479 294.75 216.02 299.084 212.223C300.989 210.554 302.603 208.609 303.972 206.485C305.372 204.312 307.319 202.729 305.911 200.3C302.422 194.283 299.444 188.372 297.146 181.752C296.121 178.798 295.209 175.912 294.529 172.87C293.988 170.454 293.727 168.98 290.925 170.796ZM381.63 236.434C379.626 238.367 377.323 239.907 374.737 240.946C371.899 242.086 371.038 241.538 371.179 244.826C371.335 248.456 371.361 251.362 369.709 254.74C368.935 256.321 366.079 258.455 366.618 260.234C367.393 262.787 375.326 265.368 377.64 266.261C383.177 268.397 389.638 268.441 394.864 265.422C400.935 261.916 401.472 255.559 399.185 249.408C398.941 248.752 398.053 247.642 398.272 246.926C398.672 245.612 400.322 245.802 401.268 246.303C403.323 247.393 404.182 250.705 404.624 252.772C405.806 258.293 403.635 264.273 399.509 268.078C397.413 270.011 394.79 271.302 392.116 272.233C390.598 272.762 389.005 273.18 387.401 273.341C386.106 273.472 384.47 273.063 383.234 273.432C381.053 274.083 380.956 276.777 380.411 278.745C379.437 282.264 379.031 286.074 378.903 289.714C378.696 295.602 379.396 303.105 382.778 308.097C390.668 319.744 405.927 323.787 417.841 329.781C424.174 332.967 430.046 336.97 435.685 341.25C436.242 341.672 437.075 342.501 437.744 342.83C440.004 343.944 438.03 343.539 439.477 342.803C440.591 342.236 441.545 341.006 442.696 340.364C445.347 338.886 448.325 338.088 451.021 336.691C457.291 333.444 462.838 329.413 468.403 325.112C474.104 320.704 479.879 316.68 485.081 311.663C487.274 309.548 489.744 307.804 491.969 305.779C494.21 303.74 491.341 302.893 489.444 301.392C482.984 296.282 476.606 291.011 469.708 286.494C467.407 284.987 465.378 282.956 462.977 281.624C460.47 280.233 458.982 281.479 457.007 283.247C454.849 285.18 452.792 287.075 450.39 288.728C447.218 290.913 443.53 291.964 440.341 294.044C442.388 296.191 447.381 296.909 448.105 300.161C448.84 303.456 443.94 306.028 441.65 307.301C437.606 309.548 433.146 310.913 428.64 311.888C424.891 312.699 419.333 311.478 416.328 314.312C415.472 312.497 414.669 311.549 416.079 309.813C417.487 308.08 419.997 307.781 421.985 307.115C427.352 305.313 432.639 302.913 437.832 300.663C437.143 299.048 435.42 297.942 434.107 296.89C432.232 295.387 430.656 293.722 429.13 291.854C426.218 288.29 423.606 284.488 420.833 280.82C419.63 279.229 418.533 277.64 416.337 278.521C414.398 279.299 412.505 281.316 410.642 282.36C406.428 284.723 402.741 286.992 398.103 288.495C396.233 289.101 388.58 290.826 390.616 286.139C391.219 284.751 393.235 284.178 394.478 283.571C396.773 282.448 399.061 281.303 401.272 280.021C405.815 277.387 409.822 273.984 414.072 270.921C418.761 267.541 423.529 264.261 427.931 260.506C423.551 257.599 418.692 255.471 414.162 252.813C409.585 250.126 404.972 247.698 400.237 245.311C396.467 243.411 392.635 241.385 389.197 238.929C387.83 237.952 383.128 233.893 381.63 236.434ZM519.352 141.914C518.776 142.06 518.205 142.224 517.64 142.408C521.48 148.288 517.241 155.568 518.443 161.931C521.987 159.831 522.452 151.664 527.834 153.174C533.631 154.8 530.747 161.947 532.501 166.035C535.241 163.637 538.44 165.879 539.57 168.724C540.794 171.807 539.097 174.654 539.668 177.705C540.258 180.863 542.019 178.791 542.995 176.929C544.24 174.555 545.327 171.346 544.869 168.631C544.311 165.329 542.097 162.259 540.726 159.259C539.364 156.279 538.074 153.238 536.102 150.594C532.367 145.587 525.881 141.088 519.352 141.914ZM556.485 212.431C553.979 206.163 550.269 200.425 547.899 194.108C547.206 192.261 546.818 189.316 544.985 188.178C543.781 187.43 542.178 187.879 540.849 187.477C539.525 187.076 538.129 186.121 537.179 185.136C535.442 183.333 534.878 180.858 532.829 179.288C530.184 177.262 528.141 176.485 526.883 173.099C525.895 170.44 525.893 170.049 522.924 170.643C519.683 171.291 517.05 170.497 514.814 167.961C511.027 163.667 510.609 157.618 512.467 152.434C513.336 150.011 514.848 147.191 513.592 144.653C512.425 142.295 509.592 140.603 507.796 138.723C503.257 133.974 499.705 128.415 495.449 123.432C494.431 122.24 493.39 121.05 492.604 119.683C492.106 118.815 491.811 117.322 490.656 117.076C488.666 116.653 485.889 120.099 484.888 121.354C477.562 130.539 482.803 143.048 483.695 153.402C484.15 158.675 485.171 164.996 482.836 169.961C480.636 174.639 475.069 176.975 470.376 178.277C464.047 180.035 457.25 179.957 450.809 178.89C447.436 178.332 444.199 177.378 441.006 176.169C437.739 174.932 434.34 172.805 431.011 175.049C426.713 177.947 428.041 183.759 428.985 187.996C430.527 194.916 433.219 201.372 435.601 208.02C437.601 213.604 439.221 220.609 435.016 225.606C430.815 230.596 423.849 233.719 417.366 233.46C403.925 232.923 391.655 222.885 377.919 226.991C380.499 228.059 383.228 228.688 385.749 229.911C388.793 231.387 391.612 233.35 394.567 234.992C400.239 238.144 405.932 241.251 411.476 244.628C416.486 247.679 421.222 251.022 426.003 254.403C431.96 258.616 435.098 253.949 438.92 249.398C447.264 239.464 455.206 228.945 462.787 218.417C469.377 209.265 475.495 199.709 480.261 189.484C481.966 185.826 484.838 179.62 489.828 180.342C494.258 180.982 496.841 186.336 499.132 189.613C500.73 188.466 502.1 186.932 504.258 187.564C506.047 188.087 507.285 189.926 508.077 191.494C508.621 192.572 508.992 196.206 509.903 196.753C510.55 197.142 513.026 196.306 514.13 196.561C517.906 197.436 519.114 202.298 519.075 205.673C519.022 210.324 517.082 214.979 515.491 219.287C511.927 228.943 505.82 236.49 499.088 244.12C492.256 251.863 485.104 258.882 477.398 265.753C475.497 267.449 473.614 269.164 471.76 270.912C470.239 272.345 467.832 273.836 466.642 275.52C464.44 278.635 470.331 280.05 472.523 281.19C481.955 286.096 490.646 292.557 498.953 299.145C507.519 305.94 516.133 312.761 524.364 319.96C532.416 327.003 540.021 334.509 548.5 341.059C557.211 347.787 566.339 354 575.291 360.402C584.252 366.811 592.971 373.553 601.921 379.97C610.667 386.241 620.056 391.617 629.256 397.185C634.069 400.098 638.907 402.968 643.741 405.844C647.651 408.169 651.894 411.783 656.529 412.077C660.706 412.341 664.666 413.881 667.163 409.333C669.057 405.88 668.272 401.13 666.613 397.776C664.589 393.682 661.421 389.919 658.876 386.13C655.95 381.774 653.233 377.292 650.345 372.913C647.576 368.715 644.498 364.839 641.408 360.883C638.275 356.872 635.899 352.35 633.107 348.103C627.14 339.023 621.005 330.108 615.347 320.825C602.373 299.534 590.754 277.556 579.65 255.247C578.672 253.281 555.846 212.78 556.485 212.431ZM538.218 343.325C545.191 367.466 541.17 392.015 539.74 416.574C539.018 428.992 538.908 441.487 538.587 453.921C538.431 459.966 538.442 466.015 538.692 472.057C538.818 475.096 539.04 478.125 539.256 481.159C539.447 483.842 538.729 486.807 539.067 489.396C539.5 492.711 546.071 493.362 544.052 497.617C542.698 500.471 537.955 500.907 535.414 502.111C536.543 503.421 538.311 505.382 540.195 505.505C541.892 505.616 543.203 504.142 544.725 503.585C546.075 503.09 547.933 502.609 548.786 504.189C549.679 505.842 547.809 507.68 547.069 508.961C549.584 509.449 551.324 507.945 553.592 508.083C555.979 508.228 556.087 510.581 557.656 511.942C559.45 513.498 562.582 513.833 564.794 514.488C567.367 515.25 569.953 516.195 572.296 517.517C576.485 519.881 580.082 524.347 581.63 528.918C583.234 533.656 580.729 537.756 576.998 540.663C575.608 541.746 573.615 543.004 571.771 542.421C569.664 541.753 569.334 540.035 566.766 540.163C564.46 540.277 562.27 541.2 559.952 541.318C556.544 541.492 553.139 540.87 549.727 541.002C535.961 541.531 522.192 541.649 508.448 540.323C504.892 539.98 501.407 539.699 497.901 539.587C495.175 539.5 494.947 537.464 494.485 534.908C493.37 528.733 495.837 522.655 494.615 516.656C494.696 517.051 492.767 516.021 492.534 515.826C491.117 514.631 490.644 512.934 490.222 511.171C489.098 506.475 489.11 501.691 489.458 496.902C490.247 486.032 492.267 475.263 492.101 464.336C492.017 458.828 492.184 453.333 492.186 447.828C492.187 442.771 492.644 437.78 492.686 432.757C492.78 421.747 493.937 410.859 494.26 399.86C491.971 402.089 490.758 405.198 489.304 407.98C487.517 411.401 485.523 414.787 483.339 417.97C478.831 424.544 472.783 429.894 466.517 434.744C454.559 444 441.567 451.167 426.917 455.093C411.057 459.342 395.018 462.211 378.668 463.823C374.885 464.196 371.06 464.397 367.268 464.028C364.785 463.787 360.75 461.778 358.391 462.797C355.71 463.956 355.171 466.742 351.655 465.961C350.314 465.663 349.342 464.765 348.168 464.16C346.44 463.27 346.371 463.884 344.722 463.998C342.883 464.124 341.781 463.204 340.178 464.687C338.817 465.947 338.949 466.829 340.192 468.008C341.939 469.664 344.736 469.943 346.485 471.672C348.187 473.355 347.882 475.424 345.254 475.449C342.608 475.474 340.258 473.588 337.674 473.342C338.225 481.001 340.525 489.557 337.974 497.071C336.791 500.557 334.251 502.802 330.464 502.778C324.128 502.738 318.569 496.898 314.753 492.35C312.643 489.836 310.933 487.011 308.896 484.435C306.813 481.801 304.58 479.153 303.387 475.968C302.119 472.578 302.489 469.178 303.198 465.699C304.076 461.393 304.892 457.044 305.953 452.779C308.01 444.509 312.148 436.959 314.237 428.714C315.027 425.595 315.017 421.934 317.011 419.259C319.123 416.427 322.408 416.245 325.666 416.426C329.699 416.65 333.728 417.097 337.74 417.554C340.273 417.843 345.824 419.673 347.885 418.113C348.595 417.576 348.596 416.169 349.426 415.684C350.226 415.215 351.518 415.552 352.393 415.617C356.724 415.938 361.093 416.329 365.433 416.456C381.563 416.929 398.584 414.411 412.986 406.905C419.669 403.422 424.76 397.938 430.132 392.759C435.413 387.667 440.017 382.185 441.438 374.792C442.736 368.043 442.245 359.97 440.09 353.437C437.991 347.073 430.54 343.218 425.118 340.08C417.597 335.729 409.615 332.122 401.513 328.998C400.227 328.502 398.664 327.871 397.249 328.125C395.516 328.435 394.35 329.94 392.773 330.605C390.898 331.395 388.597 331.399 386.619 331.86C384.7 332.307 382.83 332.922 380.875 333.217C374.721 334.147 366.072 333.405 360.986 329.467C352.672 323.031 357.696 313.922 360.366 306.089C357.543 305.994 355.191 306.655 352.496 305.445C349.81 304.239 347.711 302.103 346.487 299.428C344.259 294.562 345.546 288.969 346.203 283.894C346.5 281.599 346.839 279.323 347.713 277.167C348.39 275.498 349.502 273.907 349.912 272.142C350.364 270.198 349.778 270.085 348.159 269.155C345.663 267.722 343.867 266.073 342.339 263.557C339.347 258.629 339.272 253.251 341.724 248.067C342.717 245.969 345.085 243.085 344.815 240.634C344.584 238.526 342.201 236.885 340.799 235.504C336.467 231.242 331.861 227.306 327.058 223.587C324.813 221.849 322.34 220.272 320.3 218.298C318.805 216.851 317.286 213.705 315.242 212.944C313.196 212.183 311.833 214.472 310.407 215.699C308.185 217.612 306.056 219.812 303.634 221.47C299.291 224.444 293.906 223.888 289.001 222.938C283.877 221.945 279.125 220.197 274.757 217.314C273.021 216.168 270.994 213.842 268.857 213.655C266.575 213.457 264.095 215.729 262.464 217.094C258.205 220.656 256.926 226.189 254.446 230.975C251.676 236.32 250.499 241.867 251.253 247.875C251.931 253.281 254.01 257.364 257.102 261.731C257.741 262.634 259.238 264.34 258.144 265.338C256.805 266.561 254.062 264.11 253.163 263.318C244.235 255.453 239.16 243.601 242.059 231.737C243.614 225.366 246.658 219.472 250.192 213.991C251.695 211.659 253.161 209.328 255.775 208.139C258.75 206.786 262.121 206.947 265.299 206.622C263.101 195.845 262.413 184.117 269.167 174.724C274.351 167.516 284.965 161.209 293.378 167.054C293.033 159.108 291.902 151.563 294.013 143.739C294.959 140.233 296.255 136.822 297.848 133.559C299.409 130.361 301.564 127.65 302.825 124.321C307.799 111.192 317.342 99.4643 327.536 90.0414C337.841 80.5164 347.951 68.8963 360.931 62.9372C374.473 56.7194 388.263 51.132 402.945 48.3069C418.184 45.3743 433.848 44.7724 449.199 47.5488C462.656 49.9829 475.111 58.1669 485.294 66.99C496.914 77.0578 504.415 89.1954 510.349 103.255C511.653 106.343 512.91 109.458 514.508 112.41C516.282 115.684 518.561 118.73 519.865 122.244C521.028 125.378 521.224 128.778 519.152 131.578C517.695 133.546 514.707 133.991 513.433 135.792C512.79 136.7 512.855 137.563 514.268 137.834C515.728 138.113 516.424 136.483 517.473 135.829C520.085 134.2 523.771 135.588 526.412 136.513C532.674 138.706 537.576 142.644 541.324 148.104C544.91 153.329 547.292 159.264 549.659 165.108C551.154 168.794 552.576 172.456 553.398 176.361C553.708 177.831 554.139 181.814 551.821 180.068C550.881 179.361 549.538 184.73 549.791 185.585C550.673 188.559 553.816 191.347 555.666 193.755C560.017 199.415 562.929 205.756 565.998 212.157C572.645 226.019 580.046 239.476 587.157 253.099C601.638 280.84 617.464 307.516 634.064 334.031C642.288 347.169 650.767 360.081 659.559 372.846C663.438 378.478 667.329 384.113 671.124 389.803C674.349 394.638 677.532 400.022 676.702 406.056C675.943 411.582 672.665 416.02 667.366 417.827C664.526 418.796 661.155 419.912 658.115 419.614C654.792 419.289 651.859 417.062 649.089 415.39C636.358 407.705 623.626 400.028 610.887 392.357C596.641 383.778 583.611 373.592 570.018 364.054C563.103 359.201 555.971 354.827 548.765 350.434C547.142 349.445 539.779 342.357 538.218 343.325Z" fill="black"/>
<path fill-rule="evenodd" clip-rule="evenodd" d="M414.862 367.748C411.382 372.88 407.723 377.703 402.824 381.597C397.664 385.698 392.268 389.022 386.506 392.205C376.345 397.818 362.726 402.788 350.924 400.244C347.568 399.521 342.199 396.579 345.117 392.38C346.583 390.269 349.729 390.82 351.956 390.936C355.543 391.124 358.681 391.328 362.119 390.119C368.435 387.897 374.795 385.8 380.963 383.185C386.937 380.65 392.176 377.174 397.657 373.76C402.797 370.558 406.718 366.725 411.234 362.854C412.471 361.794 414.597 359.938 415.767 362C416.612 363.49 415.325 366.291 414.862 367.748Z" fill="black"/>
<path fill-rule="evenodd" clip-rule="evenodd" d="M555.475 121.254C555.087 123.477 554.035 127.899 550.912 127.295C546.929 126.525 548.891 118.714 548.83 116.063C548.566 104.509 544.805 93.4001 539.237 83.3833C536.468 78.4034 533.057 73.7981 530.541 68.6757C530.052 67.6803 528.568 65.2119 529.646 64.1321C530.94 62.8354 533.421 64.7922 534.333 65.7176C537.86 69.2959 540.668 74.6605 543.39 78.8712C547.025 84.4928 550.235 90.4299 552.54 96.7332C555.323 104.347 556.887 113.178 555.475 121.254Z" fill="black"/>
<path fill-rule="evenodd" clip-rule="evenodd" d="M562.927 84.3062C563.299 86.3097 565.12 91.761 561.873 92.2445C558.193 92.7926 557.05 83.7094 556.028 81.303C555.489 80.0344 552.618 74.4473 554.114 73.2311C557.23 70.6991 562.188 82.694 562.927 84.3062Z" fill="black"/>
<path fill-rule="evenodd" clip-rule="evenodd" d="M389.719 354.656C386.226 357.844 382.17 357.657 377.761 357.353C375.522 357.199 370.337 355.871 373.94 353.09C375.823 351.637 390.591 350.637 389.719 354.656Z" fill="black"/>
<path fill-rule="evenodd" clip-rule="evenodd" d="M661.914 413.028C662.162 412.533 664.258 410.159 664.71 411.119C665.136 412.025 662.467 413.001 661.914 413.028Z" fill="black"/>
<path fill-rule="evenodd" clip-rule="evenodd" d="M384.071 236.789C383.641 237.676 381.847 236.901 381.229 237.036C382.069 235.234 383.067 235.62 384.071 236.789Z" fill="black"/>
<path fill-rule="evenodd" clip-rule="evenodd" d="M519.084 142.557C518.897 143.268 518.711 143.98 518.525 144.692C518.238 144.159 517.95 143.626 517.663 143.092C518.136 142.914 518.611 142.735 519.084 142.557Z" fill="black"/>
<path fill-rule="evenodd" clip-rule="evenodd" d="M522.515 277.033C526.998 277.486 531.496 277.716 535.997 277.854C539.796 277.971 541.357 277.251 541.842 273.296C542.417 268.607 542.614 263.875 543.188 259.185C543.449 257.054 545.513 252.795 543.027 251.654C540.944 250.698 537.693 252.067 535.512 252.228C533.081 252.408 529.412 251.665 527.264 253.109C524.967 254.652 525.466 260.056 525.075 262.592C524.329 267.427 523.43 272.229 522.515 277.033ZM520.376 254.259C516.313 254.566 512.236 254.809 508.184 255.243C506.381 255.436 502.731 256.329 501.211 255.015C497.643 251.931 510.978 250.848 512.491 250.605C515.04 250.195 519.403 250.739 521.038 248.328C522.654 245.944 522.246 241.938 522.664 239.17C523.292 235.004 524.012 230.844 524.431 226.65C524.572 225.241 524.371 220.585 525.857 219.894C529.272 218.304 528.199 234.689 528.143 235.919C528.047 238.034 527.941 240.158 527.647 242.255C527.481 243.437 526.898 245.036 527.257 246.223C528.287 249.628 534.137 247.664 536.801 247.393C539.787 247.088 544.399 248.247 545.387 244.556C546.629 239.918 546.448 234.651 546.909 229.88C547.036 228.56 547.369 218.705 549.797 219.469C552.508 220.322 551.449 228.557 551.425 230.678C551.397 233.071 551.406 235.465 551.244 237.854C551.099 239.999 550.495 242.63 550.942 244.756C551.726 248.483 556.138 246.501 557.419 249.466C558.635 252.284 552.002 250.075 550.764 251.043C548.914 252.489 549.359 258.528 549.095 260.643C548.515 265.288 547.401 270.113 547.039 274.744C546.754 278.4 549.688 277.915 552.674 277.65C555.235 277.423 558.048 276.814 560.614 277.156C562.677 277.43 565.558 279.333 562.556 280.6C557.862 282.58 548.304 278.534 545.945 284.549C545.501 285.684 543.431 298.843 540.829 292.347C539.742 289.631 542.404 285.372 539.566 283.291C538.582 282.569 537.115 282.697 535.974 282.617C533.162 282.421 530.332 282.354 527.515 282.295C524.706 282.237 522.182 281.671 521.097 284.753C520.251 287.154 520.345 289.841 519.67 292.298C519.164 294.14 517.501 297.365 515.776 294.351C514.643 292.372 515.51 288.913 515.734 286.761C515.846 285.683 516.487 283.453 515.671 282.548C514.795 281.576 512.45 282.102 511.342 282.19C508.142 282.444 502.183 283.987 499.733 281.08C497.684 278.648 501.944 278.601 503.619 278.437C505.344 278.267 507.07 278.111 508.794 277.929C510.692 277.729 513.205 277.997 514.991 277.401C517.991 276.4 517.777 272.314 517.974 269.665C518.36 264.488 519.523 259.375 520.376 254.259Z" fill="black"/>
<path fill-rule="evenodd" clip-rule="evenodd" d="M573.089 265.316C572.847 268.305 572.524 271.655 571.56 274.496C570.831 276.643 569.359 277.295 568.857 274.561C568.54 272.829 570.653 263.064 573.089 265.316Z" fill="black"/>
<path fill-rule="evenodd" clip-rule="evenodd" d="M383.664 245.636C382.468 244.775 376.801 240.249 380.897 240.07C382.988 239.979 387.494 243.424 387.623 245.336C387.656 245.819 386.626 246.068 386.682 246.535C386.789 247.424 388.102 247.845 388.526 248.552C389.459 250.111 389.072 253.19 387.866 254.672C385.118 258.052 382.066 252.33 384.193 251.208C383.719 251.458 377.357 248.219 377.118 247.487C375.809 243.478 383.343 247.255 383.664 245.636Z" fill="black"/>
<path fill-rule="evenodd" clip-rule="evenodd" d="M393.653 261.413C392.2 261.458 389.28 261.357 388.192 260.318C386.168 258.386 390.115 258.129 391.27 257.229C392.889 255.968 393.207 251.867 395.748 254.405C398.268 256.922 396.051 259.85 393.653 261.413Z" fill="black"/>
<path fill-rule="evenodd" clip-rule="evenodd" d="M372.702 250.764C375.329 250.378 381.176 256.052 378.338 256.429C376.461 256.679 373.111 252.28 372.702 250.764Z" fill="black"/>
</svg>
