<svg width="1024" height="768" viewBox="0 0 1024 768" fill="none" xmlns="http://www.w3.org/2000/svg">
<path d="M1007 146H42V657H1007V146Z" fill="#FDF074"/>
<path d="M727.514 153.769C779.468 172.07 787.853 258.887 771.412 326.379C754.971 393.872 713.869 441.892 688.221 489.18C662.573 536.323 652.544 582.586 621.306 588.442C590.068 594.152 537.458 559.601 472.023 575.559C406.424 591.663 327.836 658.131 299.229 651.542C270.457 644.954 291.666 565.31 257.798 495.915C223.929 426.52 134.82 367.519 159.152 353.903C183.32 340.288 321.095 372.057 394.422 360.052C467.584 348.047 476.297 292.414 528.415 239.269C580.368 186.124 675.726 135.615 727.514 153.769Z" fill="white"/>
<path fill-rule="evenodd" clip-rule="evenodd" d="M320.843 424.962L322.742 448.769L358.81 457.339L386.336 469.719L408.167 488.764L418.608 480.194L431.897 450.673L447.084 447.816L502.136 453.53L521.119 459.244L514.475 491.621L507.831 515.428L617.935 508.762L614.138 453.53L591.358 403.059L501.186 359.255L433.795 367.825L386.336 420.2L365.455 431.628L328.437 429.723" fill="#FF5678"/>
<path fill-rule="evenodd" clip-rule="evenodd" d="M774.839 206.141C782.257 215.158 771.328 227.91 765.13 234.202C762.123 237.257 759.63 240.788 756.69 243.919C753.785 247.012 750.14 249.447 747.531 252.434C744.792 255.571 741.631 259.003 739.341 262.532C737.892 264.768 735.742 267.264 735.022 269.859C733.987 273.59 734.852 271.435 736.22 273.544C737.617 275.698 738.087 275.822 738.561 278.825C739.021 281.744 739.675 283.88 741.253 286.374C743.85 290.482 746.655 294.344 748.488 298.885C750.923 304.926 752.646 311.058 754.586 317.272C755.343 319.696 755.851 322.472 757.072 324.705C758.806 327.876 759.05 327.61 761.631 325.632C769.334 319.727 777.125 313.486 785.156 307.858C789.756 304.634 794.535 301.478 799.39 298.653C802.722 296.715 809.882 293.265 811.55 289.667C813.761 284.896 810.319 280.518 815.058 276.124C818.143 273.263 823.173 271.677 827.193 270.982C832.875 270 839.153 271.402 844.829 271.91C850.567 272.423 856.179 271.865 861.806 270.69C870.421 268.893 886.971 258.949 892.554 270.895C894.997 276.122 893.346 281.914 892.886 287.272C892.487 291.942 891.116 296.899 888.207 300.74C884.883 305.129 880.043 305.358 875.009 306.524C869.064 307.9 862.963 308.401 857.01 309.743C854.078 310.404 851.185 310.726 848.174 310.864C845.495 310.989 841.631 309.903 839.279 310.246C837.049 310.57 837.811 311.978 836.245 312.954C835.61 313.35 834.315 313.066 833.919 313.385C832.83 314.26 832.515 315.022 831.721 316.608C829.2 321.644 825.385 326.553 822.143 331.167C819.413 335.053 816.249 339.812 813.037 343.28C806.227 350.633 799.613 358.736 792.892 366.419C789.472 370.329 785.37 374.488 781.397 377.848C780.17 378.886 777.691 379.819 777.065 381.272C776.17 383.342 778.603 387.899 779.171 389.98C780.52 394.927 780.703 400.038 782.135 404.91C783.506 409.571 784.004 414.652 784.307 419.51C784.995 430.49 786.495 440.904 786.143 451.89C785.839 461.364 785.492 470.45 782.202 479.753C779.207 488.22 770.235 497.437 761.892 500.557C756.925 502.415 752.311 504.103 747.313 505.11C742.377 506.105 737.176 507.123 732.275 508.524C723.182 511.121 713.598 512.935 704.155 513.825C692.068 514.963 679.458 515.072 667.403 514.653C661.905 514.463 656.255 514.451 650.829 514.467C645.206 514.484 639.91 515.592 634.29 516.182C614.456 518.262 593.495 516.59 573.673 518.624C563.875 519.63 554.093 521.565 544.125 521.681C535.201 521.784 526.153 521.195 517.426 521.156C514.659 521.144 512.247 521.365 509.482 520.73C508.023 520.395 505.973 519.09 504.5 519.842C503.214 520.498 502.244 523.266 501.446 524.444C499.704 527.021 497.581 529.091 495.339 531.227C486.44 539.71 477.621 542.566 465.941 545.674C460.579 547.102 457.932 547.848 453.43 551.114C449.763 553.774 446.052 555.685 441.831 557.253C433.551 560.329 423.788 557.95 416.007 555.281C412.239 553.989 408.28 552.814 404.43 551.28C399.187 549.191 394.859 545.722 389.692 543.588C390.284 549.101 384.304 550.953 382.49 554.658C381.318 557.053 382.028 560.812 380.778 563.518C379.619 566.028 377.827 568.402 375.032 569.059C371.223 569.953 364.415 565.716 361.74 563.244C360.255 561.871 358.929 558.216 357.11 557.608C354.738 556.813 350.39 560.323 348.145 561.115C337.401 564.907 326.514 566.696 314.978 565.185C303.289 563.654 292.575 559.504 281.614 555.568C260.147 547.86 241.461 535.172 224.651 519.894C223.716 519.043 222.359 518.285 221.714 517.171C221.151 516.198 221.2 513.901 220.832 513.358C219.737 511.741 218.096 512.027 216.042 511.872C209.696 511.392 204.654 509.86 199.735 505.607C191.993 498.913 189.129 483.305 200.997 479.159C204.031 478.099 207.37 477.888 210.507 478.541C211.8 478.811 216.612 481.727 217.841 481.532C219.705 481.236 219.343 478.837 219.838 477.555C221.093 474.307 222.86 471.448 224.99 468.692C228.53 464.111 232.844 459.506 237.271 455.778C242.08 451.726 247.376 449.928 253.101 447.685C256.958 446.173 264.487 443.579 268.573 444.931C273.893 446.692 271.289 452.506 267.937 454.54C263.148 457.446 257.402 458.636 252.55 461.576C247.196 464.821 242.305 469.265 237.405 473.164C233.462 476.303 230.045 480.176 226.039 483.185C224.977 483.983 223.242 485.378 222.912 485.819C222.797 485.972 222.939 487.212 222.413 487.764C220.083 490.21 220.629 489.934 217.12 489.076C212.983 488.064 203.108 485.775 200.318 490.904C197.808 495.52 208.083 499.679 211.456 501.087C216.408 503.152 217.565 505.228 221.104 509.164C224.728 513.2 230.749 515.943 235.29 518.951C245.105 525.452 256.137 530.065 266.648 535.23C276.876 540.255 287.871 543.873 298.529 547.39C304.963 549.512 312.674 551.79 319.428 552.444C326.232 553.103 332.614 551.994 339.29 550.695C341.96 550.176 343.975 549.778 346.767 548.794C348.01 548.355 350.039 548.29 351.026 547.523C352.557 546.334 351.92 545.384 352.192 543.352C353.377 534.444 359.557 544.389 362.292 547.354C364.402 549.643 366.48 552.457 369.257 553.908C372.739 555.724 373.343 554.867 374.484 551.872C376.62 546.263 377.423 539.887 385.493 540.711C379.121 535.259 373.049 530.627 367.595 524.076C362.214 517.613 357.183 510.668 352.023 504.026C347.793 498.581 344.11 491.068 338.62 486.774C336.884 485.416 331.608 482.288 329.6 482.354C326.594 482.452 323.926 487.362 320.688 487.771C317.112 488.222 315.465 486.974 314.444 484.07C313.385 481.058 315.917 477.591 315.061 475.401C314.823 474.792 313.301 474.062 312.831 473.177C312.123 471.848 312.072 470.099 312.284 468.628C312.6 466.431 313.376 465.535 313.21 463.325C313.018 460.757 311.892 458.879 312.779 456.193C313.709 453.372 316.572 451.827 318.359 449.743C321.064 446.589 319.682 444.211 318.597 440.16C316.273 431.49 313.564 422.92 311.206 414.255C305.785 415.971 300.483 417.916 295.033 419.515C289.791 421.054 283.303 422.434 278.439 424.86C275.516 426.318 276.328 424.979 276.544 428.217C276.682 430.313 277.568 432.656 277.98 434.723C278.739 438.541 279.07 448.393 282.06 450.217C283.871 451.322 286.784 449.716 288.775 451.947C290.452 453.823 289.949 456.552 290.958 458.638C291.585 459.935 292.798 460.428 293.553 461.62C295.129 464.111 294.961 466.205 295.239 468.997C295.413 470.754 295.143 476.019 296.017 477.385C297.184 479.207 299.495 478.891 301.444 479.458C306.355 480.888 310.877 483.375 315.047 486.275C317.211 488.922 332.7 504.418 325.973 506.39C322.725 507.342 316.978 500.024 314.64 498.035C311.017 494.952 307.221 492.927 302.803 491.227C292.019 487.078 282.262 483.349 270.519 485.072C265.484 485.809 259.368 488.039 254.31 487.548C249.221 487.055 250.539 482.514 253.722 479.98C256.568 477.715 260.529 478.352 261.778 474.554C263.038 470.717 261.685 465.868 263.708 462.023C265.435 458.74 269.506 455.331 272.649 453.429C274.019 452.6 276.368 452.021 277.084 450.799C277.671 449.797 275.252 444.051 274.916 442.857C273.274 437.005 271.483 431.148 270.092 425.232C268.802 419.75 268.467 416.909 274.241 414.919C283.054 411.881 292.294 410.461 301.111 407.668C299.548 403.597 294.663 407.023 291.154 406.881C286.856 406.708 281.883 405.294 277.79 403.973C268.498 400.975 262.175 393.498 260.739 383.856C260.424 381.741 261.418 377.5 260.648 375.63C259.922 373.863 257.868 373.004 256.367 371.745C252.497 368.502 249.07 364.05 246.983 359.442C244.89 354.824 244.744 349.636 245.96 344.762C246.63 342.076 247.008 341.707 246.062 339.167C244.965 336.23 243.178 333.615 242.167 330.596C240.511 325.652 239.608 320.322 239.698 315.1C239.801 309.243 242.15 306.615 243.706 301.451C244.934 297.375 243.258 291.74 243.539 287.217C243.898 281.429 245.38 276.779 247.938 271.627C251.868 263.712 258.091 255.227 266.191 251.077C267.792 250.255 270.425 250.207 271.856 249.253C273.634 248.067 273.774 246.319 274.47 244.242C276.13 239.289 278.203 235.276 281.794 231.489C293.439 219.208 313.845 214.858 330.21 215.895C333.149 216.082 335.95 217.473 338.735 216.655C340.665 216.089 342.71 214.078 344.7 213.245C347.218 212.192 349.74 211.575 352.45 211.306C357.8 210.772 362.152 211.336 367.084 213.143C368.945 213.825 370.728 214.571 372.563 215.311C375.461 216.482 375.296 215.924 378.02 215.381C383.451 214.3 386.571 215.1 391.382 217.418C392.664 218.035 394.692 218.493 395.794 219.358C397.355 220.584 397.992 224.308 399.729 225.003C400.693 225.389 403.672 223.968 404.915 223.766C407.107 223.408 409.254 223.723 411.436 223.699C415.298 223.657 419.381 223.801 422.908 225.627C425.564 227.002 428.761 229.654 431.049 231.421C434.213 233.864 436.191 238.485 440.143 239.764C441.69 240.266 443.365 239.759 444.945 240.186C447.005 240.742 448.983 242.235 450.651 243.552C453.521 245.818 455.948 251.086 458.872 252.007C460.822 252.622 463.855 251.98 466.088 252.617C468.889 253.417 471.212 254.575 473.289 256.695C477.25 260.739 478.369 266.717 478.539 272.2C478.584 273.678 477.673 277.845 478.559 279.157C479.345 280.321 482.308 280.992 483.514 282.187C487.285 285.92 488.988 292.142 489.369 297.257C489.805 303.093 488.298 307.207 487.261 312.792C486.615 316.273 485.78 314.043 488.717 316.093C490.734 317.501 492.127 318.486 493.435 320.696C496.17 325.316 496.857 330.763 496.406 336.029C495.842 342.599 492.51 347.496 491.012 353.712C497.916 353.712 505.353 355.536 512.097 356.81C514.586 357.279 516.514 358.647 518.723 359.745C520.629 360.691 522.051 360.801 523.85 361.429C528.202 362.947 527.36 362.693 530.388 359.587C542.451 347.214 559.62 339.744 576.934 339.987C586.591 340.121 595.933 341.396 604.962 344.873C608.704 346.313 612.864 347.866 616.184 350.125C620.029 352.744 620.601 352.713 625.685 352.82C644.096 353.201 661.96 363.089 675.359 375.074C676.555 367.036 689.611 362.215 695.934 358.883C698.095 357.745 700.079 357.151 701.143 355.018C702.137 353.022 702.079 348.915 702.743 346.564C703.964 342.245 705.374 336.961 705.264 332.407C704.948 319.222 701.897 306.098 701.502 292.883C701.402 289.564 701.026 285.839 701.467 282.552C701.823 279.904 703.031 278.254 701.293 275.802C697.995 271.15 691.913 269.988 689.868 263.863C686.573 253.993 692.234 243.9 699.963 238.029C704.413 234.65 708.762 233.934 712.328 229.196C715.541 224.927 718.256 219.878 721.917 215.997C724.988 212.744 727.785 208.385 731.304 205.677C734.912 202.902 740.209 201.025 744.518 199.706C754.861 196.539 767.561 197.295 774.839 206.141ZM451.549 454.089C449.143 454.191 446.722 454.462 444.312 454.459C442.845 454.457 439.438 453.665 438.117 454.224C435.477 455.341 433.34 461.455 432.106 463.894C428.109 471.804 424.961 480.097 421.062 488.037C419.033 492.168 416.004 494.884 411.218 494.95C405.855 495.024 403.331 491.588 399.927 488.062C393.141 481.029 384.005 474.982 375.581 470.091C366.482 464.809 355.631 459.689 345.271 457.823C338.372 456.582 322.566 451.225 318.368 459.879C320.514 459.592 328.701 458.34 329.048 461.968C329.309 464.691 319.237 465.156 317.993 469.425C320.626 469.22 329.716 466.682 330.356 470.596C330.695 472.677 326.897 473.725 325.561 474.427C322.913 475.82 321.319 477.265 319.234 479.359C322.45 479.359 325.621 476.628 328.674 476.912C329.934 477.03 331.448 478.913 332.594 479.488C334.219 480.301 335.974 480.707 337.766 480.929C341.669 481.412 344.031 480.311 347.143 482.853C349.936 485.135 352.841 488.148 355.415 490.689C360.908 496.112 365.43 502.996 370.142 509.09C375.96 516.615 382.002 522.588 389.742 528.224C396.042 532.81 402.427 535.78 409.566 539.157C416.568 542.47 425.376 546.312 433.32 546.494C439.657 546.641 447.578 544.607 453.345 541.903C456.699 540.329 457.919 540.331 461.275 539.709C466.484 538.742 472.514 535.946 477.336 533.752C492.48 526.862 502.076 511.845 508.904 497.147C512.791 488.782 515.219 480.608 516.838 471.557C517.72 466.626 518.489 465.469 513.686 463.43C508.834 461.371 503.591 460.098 498.541 458.644C483.728 454.378 466.845 453.438 451.549 454.089ZM487.734 364.867C486.223 365.548 485.42 372.814 484.741 374.433C481.715 381.656 476.346 386.163 468.473 386.915C466.029 387.149 462.043 384.924 460.291 385.975C457.946 387.384 457.522 394.118 454.999 396.327C452.675 398.361 447.835 400.511 444.855 401.294C442.554 401.897 440.272 401.731 437.98 401.2C436.673 400.897 434.178 399.281 432.898 399.89C430.718 400.929 429.691 406.459 427.202 408.335C423.563 411.077 417.785 413.109 413.331 413.057C408.737 413.004 403.199 409.375 399.109 410.244C394.253 411.275 394.892 415.791 392.772 419.322C388.27 426.82 383.155 433.278 375.061 436.858C366.307 440.729 353.758 441.222 344.576 439.252C339.585 438.181 334.576 436.667 330.363 433.806C327.007 431.526 324.488 428.49 321.38 425.914L320.871 425.502L320.897 425.593C320.966 425.833 321.036 426.067 321.107 426.295C322.588 431.015 323.245 439.39 326.186 443.239C328.817 446.684 337.955 446.877 342.354 447.34C354.143 448.583 364.281 451.342 374.681 457.257C384.635 462.917 393.727 469.768 402.345 477.151C404.115 478.667 405.53 481.098 407.672 482.074C411.169 483.667 410.887 481.807 411.811 478.692C413.709 472.304 415.721 465.994 418.613 459.973C419.851 457.392 422.668 454.194 423.272 451.454C423.851 448.824 422.662 445.955 423.066 443.132C424.086 436 427.306 429.918 431.341 424.15C434.142 420.147 442.524 413.331 441.453 423.407C440.662 430.848 435.23 437.44 433.894 444.75C438.013 443.982 440.598 444.206 444.306 444.441C449.365 444.761 455.119 442.781 460.335 442.763C470.335 442.732 480.184 443.384 490.013 445.166C494.565 445.992 498.899 446.925 503.288 448.483C506.736 449.707 511.322 453.605 514.996 453.902C517.659 454.117 516.73 454.467 517.455 452.194C518.128 450.086 517.404 446.292 517.27 444.08C516.964 439.074 515.765 434.203 515.143 429.23C514.876 427.096 512.33 418.201 515.017 416.477C519.129 413.839 520.847 424.19 521.371 426.044C524.052 435.549 525.778 444.913 525.698 454.85C525.628 463.444 525.057 471.705 523.449 480.249C522.499 485.296 520.756 490.143 518.8 494.875C517.771 497.368 511.729 506.818 512.569 508.482C513.242 509.816 523.509 507.494 525.088 507.359C530.708 506.878 536.342 507.213 541.969 506.878C550.285 506.384 558.663 506.485 566.626 505.02C571.375 504.144 576.413 504.981 581.157 505.011C586.389 505.045 591.446 504.562 596.712 505.061C600.711 505.439 606.712 507.551 610.57 506.673C614.52 505.775 613.354 503.131 613.381 499.11C613.446 489.394 612.581 478.213 610.411 468.765C609.266 463.784 607.727 458.963 606.906 453.899C606.085 448.833 606.127 443.359 604.6 438.454C601.889 429.75 594.439 422.196 588.267 415.764C581.916 409.145 574.851 404.34 567.06 399.593C560.437 395.56 553.439 391.772 546.264 388.616C537.653 384.829 527.874 382.493 519.894 377.507C513.253 373.357 503.647 369.266 495.985 367.344C494.772 367.04 488.591 364.482 487.734 364.867ZM724.284 284.432C718.758 285.208 708.43 282.509 708.435 290.128C708.436 294.307 709.823 298.689 710.216 302.869C710.68 307.803 710.36 312.768 711.111 317.682C712.328 325.638 714.112 332.985 713.515 341.158C712.863 350.043 711.012 358.58 711.185 367.592C711.348 376.168 710.886 384.437 714.961 392.307C716.68 395.63 718.076 399.534 719.968 402.643C722.185 406.286 724.105 407.353 728.068 408.821C730.55 409.74 736.661 410.936 738.269 413.413C740.591 416.988 737.49 418.433 734.438 418.312C725.009 417.937 715.328 413.73 706.488 410.657C702.329 409.21 698.326 407.388 694.238 405.809C690.972 404.548 688.309 404.112 685.339 401.96C678.1 396.715 672.513 389.466 665.374 384.086C651.869 373.909 635.677 367.832 618.715 366.029C614.351 365.565 610.972 365.774 606.601 366.144C604.182 366.349 601.788 366.415 599.393 366.859C598.01 367.116 592.81 369.587 591.729 369.074C584.712 365.738 604.582 355.583 606.816 355.028C603.994 353.039 598.13 353.382 594.743 352.939C590.42 352.373 586.217 351.822 581.85 352.06C575.747 352.394 569.254 352.214 563.263 353.532C555.758 355.181 548.65 357.715 541.867 361.27C539.603 362.457 536.417 363.9 536.439 367.207C536.459 370.315 537.697 369.807 540.723 370.495C548.876 372.351 556.421 377.754 563.684 381.871C571.408 386.248 579.1 391.165 586.267 396.409C600.006 406.464 607.847 420.928 613.948 436.652C617.105 444.784 619.393 454.281 620.342 462.948C621.4 472.591 620.518 482.289 621.273 491.922C621.45 494.198 621.754 503.282 623.472 504.698C624.775 505.772 631.242 503.852 633.065 503.727C640.685 503.202 648.351 503.254 655.826 502.823C671.625 501.913 687.821 503.183 703.764 502.246C711.784 501.774 719.547 500.646 727.412 499.028C734.722 497.524 743.831 497.344 750.499 493.87C763.335 487.182 771.16 471.059 771.723 457.407C772.334 442.608 771.323 426.504 768.215 411.761C766.586 404.03 765.173 396.673 763.255 389.034C761.109 380.482 758.699 371.966 756.344 363.519C752.286 348.98 745.97 335.434 742.946 320.531C741.283 312.334 738.926 303.764 736.466 295.763C735.56 292.814 733.772 287.212 731.662 284.972C729.444 282.619 727.583 283.968 724.284 284.432ZM273.898 461.514C270.57 463.644 268.171 468.431 268.323 472.378C268.323 477.588 272.647 475.369 276.722 475.558C279.203 475.672 288.377 478.218 289.991 475.761C291.917 472.826 286.124 474.137 285.391 472.563C283.909 469.379 290.706 468.035 289.875 465.277C289.044 462.519 282.138 468.884 280.658 465.681C279.287 462.716 286.264 460.152 285.193 458.11C284.284 456.38 275.074 460.761 273.898 461.514ZM288.349 434.37C288.331 436.59 287.566 439.544 284.805 439.091C281.358 438.525 280.313 431.906 279.998 429.402C282.206 421.156 288.386 429.312 288.349 434.37ZM388.447 363.5C384.461 364.125 384.011 365.91 382.148 368.648C381.297 367.971 380.77 367.072 380.567 365.951C371.143 370.197 361.338 373.514 351.116 375.083C339.727 376.833 327.847 374.185 316.275 373.106C314.778 372.967 310.181 371.116 308.961 371.85C307.951 372.459 307.968 377.566 307.885 378.554C307.323 385.282 308.606 391.227 309.594 397.812C309.858 399.566 309.599 403.363 310.981 404.859C311.953 405.911 313.683 405.528 314.914 407.117C318.232 411.402 319.267 419.702 320.794 425.228L320.832 425.363L320.84 425.264C321.312 419.63 325.716 422.524 328.994 424.001C333.921 426.223 339.083 427.41 344.413 428.157C348.699 428.758 353.561 430.195 357.958 429.965C362.575 429.725 368.255 427.896 372.75 426.58C377.009 425.335 379.359 422.639 382.299 419.167C385.107 415.851 388.163 413.581 391.194 410.622C398.828 403.167 396.738 387.723 390.106 380.428C395.472 377.674 404.777 371.62 396.617 365.48C394.507 363.891 390.99 363.102 388.447 363.5ZM320.832 425.363L320.825 425.464L320.871 425.502L320.832 425.363ZM346.975 412.566C349.091 412.727 350.611 414.318 350.054 416.511C349.351 419.281 344.535 421.016 342.127 421.17C335.745 421.933 341.782 412.174 346.975 412.566ZM326.822 401.908C327.05 403.516 326.824 404.518 328.218 405.041C329.284 405.44 331.298 404.618 332.609 405.173C333.916 405.729 333.958 406.065 334.761 407.369C333.852 410.215 329.678 413.434 326.33 411.723C322.165 409.594 321.777 401.2 322.919 397.617C324.854 391.545 326.48 399.509 326.822 401.908ZM697.096 369.846C695.359 370.478 693.826 372.267 692.273 373.241C688.14 375.832 683.619 377.207 679.66 380.044C682.487 383.094 683.968 387.23 686.728 390.166C688.456 392.003 690.557 392.207 692.635 393.203C698.706 396.117 705.852 400.215 712.559 401.608C708.632 397.013 706.14 392.856 703.808 387.273C702.975 385.277 701.929 383.165 701.305 381.092C700.409 378.123 700.891 374.98 700.133 372.05C699.315 368.887 700.443 368.631 697.096 369.846ZM315.366 387.241C317.132 389.326 318.489 394.024 318.639 396.686C316.777 405.609 310.54 393.298 310.73 389.302C310.906 385.617 312.841 384.262 315.366 387.241ZM332.262 382.359C335.289 384.94 336.277 389.251 336.591 392.813C336.932 396.674 336.05 398.315 332.204 395.834C328.838 393.661 327.154 387.876 326.979 384.486C326.979 380.622 329.33 379.858 332.262 382.359ZM393.143 371.308C393.899 375.337 384.976 379.478 386.433 373.169C386.141 369.143 392.34 367.04 393.143 371.308ZM814.407 298.396C807.668 306.624 799.507 311.848 791.075 318.065C783.604 323.573 776.492 329.523 768.404 334.095C766.029 335.438 762.14 336.22 761.711 338.715C761.307 341.06 765.66 347.36 766.667 349.903C770.064 358.48 772.571 367.282 775.227 376.133C783.142 363.796 791.125 351.253 800.827 340.098C809.388 330.253 818.171 319.952 825.656 309.345C821.125 306.585 817.372 302.779 814.407 298.396ZM863.805 279.422C856.3 281.768 847.654 283.088 839.832 282.289C836.286 281.926 832.793 281.625 829.213 281.403C826.533 281.238 822 279.931 819.694 281.997C817.513 283.949 817.777 287.836 818.887 290.263C819.605 291.833 820.602 292.086 821.252 293.386C821.462 293.804 820.841 294.528 821.38 295.512C822.864 298.221 827.911 302.749 830.63 304.128C834.118 305.899 834.639 303.84 837.358 302.056C843.084 298.301 852.702 298.233 859.409 297.557C859.544 299 878.982 292.063 880.9 290.79C884.488 288.41 888.692 277.456 884.875 274.209C880.268 270.291 868.263 278.028 863.805 279.422ZM733.091 227.207C730.729 230.972 727.587 235.014 724.097 237.831C720.155 241.012 715.04 242.247 710.534 244.424C706.452 246.394 702.825 248.369 700.278 252.172C698.515 254.803 695.285 258.494 696.757 261.884C698.264 265.351 704.2 267.784 706.779 270.798C710.329 274.947 710.334 274.133 715.652 272.986C718.309 272.412 720.832 272.234 723.548 272.329C724.646 272.367 728.354 273.443 729.328 272.721C730.574 271.795 729.349 267.953 729.506 266.457C729.747 264.183 730.555 261.836 731.321 259.692C734.36 251.178 740.137 245.564 745.754 239.108C751.78 232.182 760.037 227.321 765.975 220.362C769.254 216.52 767.761 213.804 763.262 212.005C760.976 211.092 758.296 211.096 755.95 210.368C753.524 209.615 751.363 208.132 748.764 208.103C737.717 207.66 737.365 220.394 733.091 227.207Z" fill="black"/>
</svg>
