<svg width="543" height="405" viewBox="0 0 543 405" fill="none" xmlns="http://www.w3.org/2000/svg">
<path d="M543 0H0V405H543V0Z" fill="#FDF074"/>
<path d="M396.792 25.4026C426.265 37.0683 431.022 92.4101 421.695 135.433C412.368 178.456 389.05 209.067 374.5 239.211C359.95 269.261 354.26 298.752 336.539 302.485C318.818 306.125 288.971 284.1 251.849 294.273C214.634 304.538 170.051 346.908 153.822 342.708C137.5 338.509 149.532 287.74 130.318 243.504C111.104 199.267 60.5516 161.657 74.3556 152.978C88.0664 144.299 166.227 164.55 207.826 156.898C249.331 149.245 254.274 113.782 283.841 79.9045C313.315 46.0275 367.412 13.8303 396.792 25.4026Z" fill="white"/>
<path fill-rule="evenodd" clip-rule="evenodd" d="M207.99 214.392C209.445 225.329 210.9 236.267 212.355 247.204L213.53 256.036C213.679 257.15 213.538 259.349 214.104 260.347C214.303 260.698 214.828 260.866 215.214 261.073C216.541 261.787 217.869 262.502 219.197 263.216C230.429 269.26 241.662 275.303 252.893 281.346C263.673 287.145 274.453 292.945 285.232 298.745C286.348 299.345 288.152 300.911 289.356 300.499C290.501 300.106 291.671 299.139 292.71 298.529C294.705 297.357 296.699 296.186 298.694 295.014C310.766 287.925 322.837 280.836 334.908 273.746C339.888 270.821 344.868 267.897 349.849 264.972C351.211 264.171 352.574 263.371 353.937 262.571C354.65 262.152 354.742 262.167 355.023 261.456C356.071 258.801 356.557 255.758 357.299 253.002C358.117 249.965 358.935 246.928 359.753 243.891C360.117 242.536 359.946 242.361 359.351 241.053C358.174 238.464 356.998 235.875 355.821 233.286C353.208 227.54 350.596 221.793 347.984 216.047C346.927 213.723 344.383 212.088 342.551 210.379L314.108 183.842C313.386 183.167 312.663 182.494 311.941 181.819C311.822 185.871 311.023 190.226 312.195 194.14C314.118 200.562 316.04 206.985 317.963 213.408C318.892 216.512 319.821 219.617 320.751 222.721C320.923 223.298 321.975 225.585 321.694 226.092C321.538 226.373 320.21 226.658 319.923 226.767C318.687 227.238 317.452 227.709 316.216 228.18C312.774 229.493 309.331 230.805 305.889 232.117C302.793 233.298 299.697 234.478 296.6 235.659C295.55 236.059 294.317 236.8 293.209 236.739C292.217 236.683 291.089 236.191 290.129 235.944C288.442 235.508 286.754 235.072 285.066 234.637C281.752 233.781 278.437 232.926 275.122 232.07C271.392 231.107 268.243 228.28 265.053 226.187C259.571 222.59 254.089 218.993 248.607 215.396C247.352 214.572 247.348 214.102 246.848 212.599C245.724 209.22 244.6 205.841 243.476 202.462C242.876 200.658 242.138 198.846 241.684 196.999C240.937 193.951 240.493 190.795 239.901 187.713C239.723 186.783 239.544 185.853 239.366 184.923C237.07 185.857 234.774 186.79 232.478 187.724C232.145 187.859 230.524 188.263 230.379 188.595C230.288 188.804 230.77 189.755 230.839 189.959C232.743 195.61 234.647 201.26 236.551 206.909C237.149 208.687 237.748 210.464 238.347 212.241C236.916 209.988 235.485 207.734 234.054 205.481C232.93 209.271 231.805 213.061 230.681 216.851C228.024 213.778 225.366 210.705 222.708 207.632C221.788 210.705 220.868 213.778 219.948 216.851C217.087 213.061 214.225 209.271 211.363 205.481C211.022 207.459 210.682 209.436 210.342 211.414C210.239 212.011 210.26 213.724 209.863 214.196C209.537 214.585 208.596 214.392 207.99 214.392Z" fill="#FDF074"/>
<path fill-rule="evenodd" clip-rule="evenodd" d="M389.194 238.034C389.033 243.182 389.145 249.865 386.333 254.392C385.879 255.122 384.342 257.398 384.17 255.396C384.002 253.431 384.485 251.484 384.007 249.496C383.751 248.432 382.891 246.109 381.42 247.07C380.671 247.559 380.474 248.769 380.181 249.532C379.747 250.661 379.261 251.773 378.805 252.893C377.21 256.805 375.558 261.474 372.014 264.063C372.478 260.69 373.742 257.088 372.892 253.678C372.602 252.515 371.725 250.393 370.214 251.074C368.741 251.738 367.787 254.698 367.092 256.016C364.985 260.013 362.831 263.935 360.459 267.783C359.266 269.718 357.977 271.487 356.416 273.142C355.44 274.178 354.223 275.928 352.685 276.082C352.685 273.131 353.653 270.28 354.538 267.501C355.49 264.513 356.357 261.499 357.291 258.506C358.101 255.909 358.766 253.332 359.306 250.669C359.529 249.568 359.706 248.427 360.643 247.716C361.485 247.077 362.815 246.772 363.754 246.303C366.219 245.068 368.755 243.736 371.045 242.202C371.986 241.572 372.795 240.758 373.78 240.193C374.902 239.549 375.949 239.008 376.987 238.223C381.466 234.838 385.504 230.673 388.224 225.716C388.666 227.708 389.251 229.654 389.315 231.707C389.381 233.812 389.26 235.93 389.194 238.034ZM352.333 261.698C351.617 260.486 350.525 260.982 349.564 261.567C348.072 262.473 346.576 263.374 345.076 264.269C342.024 266.091 339.028 268.009 336.046 269.944C329.977 273.881 323.695 277.104 317.296 280.436C311.111 283.657 305.17 287.49 299.375 291.364C297.983 292.295 296.6 293.248 295.262 294.258C294.075 295.155 293.126 296.413 291.876 297.211C290.575 298.042 289.681 297.368 288.436 296.755C286.879 295.989 285.257 295.347 283.666 294.655C277.245 291.866 270.806 288.97 264.56 285.804C258.352 282.657 252.47 279.031 246.521 275.43C243.688 273.715 240.904 271.891 238.109 270.113C235.135 268.221 232.056 266.804 228.937 265.195C227.557 264.483 226.334 263.517 224.917 262.87C223.426 262.19 221.852 261.702 220.517 260.721C219.919 260.281 219.415 259.755 218.731 259.444C218.169 259.188 217.532 259.145 216.978 258.874C215.85 258.322 215.527 257.202 215.309 256.037C213.904 248.558 213.157 240.873 212.343 233.311C211.886 229.059 211.375 224.823 210.743 220.593C210.458 218.686 211.031 217.208 211.332 215.353C211.683 213.187 211.822 210.974 212.058 208.793C213.169 210.856 214.13 213.021 215.544 214.904C216.586 216.292 218.367 218.259 220.286 218.213C223.269 218.14 223.133 213.013 223.253 210.978C224.611 212.193 225.024 214.173 226.151 215.585C227.181 216.874 228.582 218.473 230.164 219.05C233.493 220.265 233.173 214.072 232.99 212.315C232.898 211.434 232.401 210.041 233.579 210.442C234.664 210.812 235.719 212.346 236.631 213.049C238.207 214.266 239.935 215.276 241.552 216.437C243.558 217.878 245.722 218.919 247.767 220.26C249.046 221.1 250.441 221.288 251.835 221.905C253.878 222.809 255.683 224.157 257.627 225.241C261.478 227.387 265.749 229.311 269.961 230.605C271.324 231.024 273.139 232.204 274.173 230.991C274.81 230.245 275.228 229.105 275.768 228.269C276.452 227.21 277.178 226.179 277.931 225.169C280.611 221.579 283.584 218.19 286.886 215.163C290.728 211.641 294.929 208.471 299.423 205.832C301.353 204.697 309.415 199.614 311.187 203.192C309.731 203.101 308.469 203.634 307.223 204.303C306.92 204.466 305.352 205.588 305.719 204.599C305.264 204.684 304.865 205.279 304.52 205.544C303.924 206.001 303.02 206.529 302.33 206.908C301.648 207.282 300.806 207.373 300.184 207.827C299.957 207.992 299.82 208.261 299.603 208.44L298.983 208.445C298.89 208.79 298.797 209.134 298.704 209.478C298.353 208.351 297.853 209.817 297.267 210.293C296.914 210.579 296.356 210.874 295.942 211.058C295.632 211.196 295.584 210.875 295.283 211.119C295.015 211.336 294.845 211.813 294.557 212.085C294.204 212.417 293.752 212.676 293.359 212.96C292.605 213.504 291.808 213.931 291.045 214.447C290.017 215.14 289.479 216.334 288.481 217.059C288.009 217.403 287.275 217.443 287.019 217.663C286.378 218.215 286.589 219.053 285.393 219.089C285.502 219.264 285.568 219.453 285.59 219.658C285.305 219.608 285.052 219.49 284.83 219.302C284.88 220.498 283.707 220.925 283.004 221.661C282.598 222.085 282.093 222.681 281.808 223.191C281.76 223.277 281.669 223.958 281.65 223.967C281.541 224.02 280.88 223.438 280.943 223.486C280.759 224.591 279.692 225.635 279.225 226.657C278.979 227.196 278.729 228.062 278.244 228.441C278.113 228.544 277.707 228.436 277.372 228.794C277.126 229.057 276.842 229.542 276.742 229.89C276.676 230.123 276.756 230.724 276.66 230.864C276.485 231.119 276.212 230.863 275.937 231.051C275.429 231.4 275.416 231.944 274.673 232.016C275.185 233.263 278.278 233.647 279.401 234.002C282.58 235.004 285.914 236.005 288.885 237.541C289.654 237.938 290.381 238.265 290.517 239.18C290.707 240.453 290.059 242.145 289.936 243.431C289.601 246.903 289.533 250.477 289.603 253.964C289.669 257.267 289.776 260.601 289.929 263.9C290.072 266.958 290.687 269.956 291.019 272.993C291.11 273.827 291.049 277.585 292.48 277.396C293.674 277.238 292.92 274.671 292.897 273.935C292.847 272.306 293.189 270.643 293.175 268.999C293.168 268.209 293.513 267.529 293.546 266.773C293.579 266.026 293.208 265.435 293.319 264.661C293.426 263.918 295.618 259.644 293.513 260.145C293.636 259.534 293.744 258.918 293.907 258.316C294.132 258.519 294.314 258.756 294.45 259.026C294.638 257.713 294.575 256.403 294.691 255.09C294.744 254.494 294.984 253.843 294.902 253.243C294.918 252.994 294.886 252.75 294.808 252.511C294.678 252.374 294.518 252.301 294.327 252.294C294.227 251.966 294.201 251.876 294.379 251.553C294.456 251.335 294.607 251.198 294.834 251.144C295.265 251.093 295.315 250.844 294.981 250.398C295.155 249.518 295.178 248.963 295.052 248.085C294.947 247.347 295.335 245.918 294.939 245.261C294.478 244.493 294.249 245.238 294.163 244.174C294.144 243.948 294.13 243.479 294.22 243.254C294.319 243.01 294.617 243.11 294.655 243.023C294.913 242.431 294.931 241.267 294.016 241.368C294.052 240.945 294.088 240.523 294.123 240.1C294.784 240.863 294.553 240.217 294.928 239.793C295.433 239.223 295.926 239.124 296.648 238.898C298.571 238.297 300.423 237.393 302.303 236.659C306.281 235.105 310.334 233.718 314.197 231.881C322.321 228.018 330.283 223.826 338.457 220.065C337.873 218.979 338.236 218.926 338.663 217.907C339.232 218.303 339.113 218.026 339.518 218.002C339.481 217.662 339.587 217.559 339.834 217.694C340.032 217.755 340.234 217.776 340.441 217.759C340.947 217.845 341.36 218.125 341.82 218.231C341.971 218.342 342.137 218.426 342.318 218.482C342.48 218.445 342.619 218.364 342.734 218.24C343.478 218.378 343.729 218.94 343.762 219.754C343.767 219.896 343.335 220.041 343.459 220.231C343.675 220.563 344.257 220.484 344.59 220.527C344.517 220.872 344.444 221.217 344.371 221.562C345.833 220.886 345.451 223.002 345.895 223.696C346.018 223.89 346.293 223.735 346.436 223.96C346.623 224.253 346.567 224.668 346.726 224.96C347.086 225.621 347.446 225.54 347.804 226.297C349.677 230.245 352.169 233.924 353.967 237.957C354.824 239.876 355.596 241.829 356.49 243.732C357.312 245.483 357.782 246.972 357.196 248.884C355.836 253.32 354.382 257.838 352.6 262.123C352.511 261.981 352.422 261.84 352.333 261.698ZM257.491 294.812C257.364 295.03 257.236 295.247 257.109 295.465C256.825 293.832 257.58 294.589 257.491 294.812ZM251.494 291.754C251.085 291.631 251.262 290.962 251.275 290.676C251.534 290.999 251.787 291.328 252.002 291.683C251.833 291.707 251.663 291.73 251.494 291.754ZM235.057 285.475C235.486 285.234 235.795 285.061 236.282 284.787C235.787 285.754 235.787 285.754 235.057 285.475ZM209.198 200.375C208.543 201.988 210.542 211.949 208.681 212.275C208.413 211.4 208.38 208.993 207.275 208.706C205.903 208.349 206.038 210.827 205.851 211.594C203.035 209.63 201.784 205.839 200.439 202.834C198.724 199.005 197.375 195.021 196.087 191.031C194.985 187.619 194.074 184.147 192.96 180.74C192.261 178.601 191.507 176.456 191.036 174.251C190.934 173.772 190.532 172.557 190.874 172.102C191.37 171.44 193.157 172.198 193.733 172.372C197.469 173.499 201.344 173.984 205.183 174.638C209.447 175.365 213.702 176.116 217.992 176.68C219.064 176.821 220.137 176.954 221.21 177.084C221.906 177.168 222.96 177.084 223.621 177.396C224.959 178.029 225.244 180.451 225.741 181.707C227.595 186.394 229.778 190.932 231.73 195.577C233.489 199.76 234.822 204.212 237.351 208.021C235.465 207.183 233.075 202.755 230.968 205.307C230.063 206.405 230.291 207.851 230.363 209.165C230.468 211.064 230.501 212.977 230.501 214.879C228.439 214.342 227.054 211.997 225.971 210.335C224.493 208.066 223.562 205.927 222.907 203.326C222.623 202.199 221.871 202.171 221.203 201.497C220.774 201.064 220.558 200.48 219.942 201.11C219.168 201.903 219.683 204.096 219.817 205.032C220.134 207.257 221.175 210.683 220.163 212.774C218.798 215.597 215.138 208.495 214.709 207.469C214.491 206.947 210.597 196.934 209.198 200.375ZM206.642 152.004C206.872 152.04 207.103 152.075 207.333 152.11C207.147 152.275 206.761 152.851 206.445 152.699C206.51 152.467 206.576 152.236 206.642 152.004ZM218.855 149.378C218.783 149.457 218.71 149.537 218.638 149.616C218.308 149.202 218.425 148.598 218.425 148.119C218.862 148.384 218.968 148.913 218.855 149.378ZM219.842 153.974V155.328C218.927 154.93 218.909 154.725 219.842 153.974ZM220.954 155.695C220.313 155.519 220.236 155.376 220.326 154.389C220.592 154.942 220.767 155.307 220.954 155.695ZM224.647 165.722C224.378 166.415 222.806 164.763 222.864 164.269C222.919 163.797 223.16 163.656 223.493 163.96C223.603 164.06 223.44 164.423 223.51 164.549C223.764 165.005 224.275 165.378 224.647 165.722ZM224.664 169.899C224.27 170.884 223.569 169.332 224.597 169.29C224.665 169.488 224.687 169.691 224.664 169.899ZM223.9 168.345C223.748 168.142 223.6 167.935 223.456 167.725C223.986 167.832 224.407 168.606 224.966 168.09C224.899 168.877 224.341 168.899 223.9 168.345ZM189.635 155.549C188.783 154.617 194.339 153.962 195.01 153.802C199.874 152.64 204.467 150.958 209.015 148.894C211.185 147.909 213.344 146.912 215.463 145.821C216.378 145.35 217.632 144.95 218.396 144.243C218.942 143.738 218.92 143.356 219.629 143.055C220.231 142.801 220.261 143.041 220.537 142.58C220.702 142.304 220.889 141.29 220.793 140.99C220.529 140.172 220.138 140.835 219.59 140.272C219.196 139.865 219.291 138.709 219.399 138.23C219.539 138.458 219.619 138.706 219.641 138.973C220.235 138.679 219.995 137.67 220.646 137.505C221.331 137.331 221.26 137.866 221.439 138.413C221.957 137.651 221.542 137.001 221.261 136.256C222.686 135.989 224.217 135.73 225.63 136.205C226.651 136.548 227.525 137.393 228.604 137.556C229.66 137.715 229.863 137.213 230.642 136.704C231.274 136.291 231.816 136.778 232.142 136.465C231.941 137.519 230.217 137.375 230.429 138.692C230.525 139.285 231.25 139.818 231.58 140.279C231.994 140.858 232.324 141.498 232.606 142.15C233.704 144.688 234.173 147.633 234.633 150.346C235.77 157.045 235.914 163.875 236.983 170.595C237.492 173.796 238.002 176.998 238.267 180.231C238.333 181.039 238.826 182.872 238.423 183.649C238.082 184.306 237.324 184.307 236.659 184.466C235.357 184.776 234.134 185.198 232.885 185.664C231.766 186.083 231.44 186.339 230.722 185.284C230.026 184.262 229.683 183.045 229.185 181.925C228.552 180.498 227.786 179.122 227.052 177.745C228.495 177.745 229.326 176.964 229.287 175.495C229.246 173.867 227.91 173.48 227.359 172.142C226.823 172.84 226.778 172.859 226.396 172.197C225.96 171.44 225.665 170.055 225.398 169.197C225.589 169.401 225.78 169.606 225.971 169.81C226.453 169.145 225.698 168.098 225.446 167.472C225.056 166.506 224.988 165.462 224.618 164.498C224.417 163.973 223.95 163.559 223.836 163.01C223.759 162.643 224.065 162.294 223.993 161.921C223.866 161.272 223.134 160.576 222.906 159.915C222.555 158.9 222.175 158.006 221.74 157.017C221.152 155.678 221.288 154.273 221.181 152.848C221.069 151.371 220.597 149.957 220.43 148.486C220.315 147.47 220.676 146.191 219.909 145.377C219.819 146.73 220.206 146.709 218.937 146.952C217.493 147.229 216.445 148.307 215.08 148.629C214.798 148.695 214.593 147.463 214.703 149.144C214.048 148.659 212.65 149.261 213.172 149.549C212.776 149.972 211.998 149.679 211.868 150.314C210.524 149.005 208.37 153.46 206.77 151.136C206.506 152.711 205.369 153.642 203.841 153.851C203.073 153.955 202.599 154.212 201.918 154.443C201.779 154.489 201.728 154.688 201.565 154.742C201.314 154.824 200.947 154.577 200.767 154.625C200.4 154.723 199.992 155.207 199.479 155.303C198.892 155.413 198.251 155.363 197.663 155.294C196.927 155.209 196.604 155.122 195.884 155.364C195.236 155.583 194.543 156.195 193.942 155.529C192.997 157.166 190.746 156.765 189.635 155.549ZM233.283 135.795C232.569 135.709 233.065 135.093 233.396 134.908C234.295 134.406 234.055 135.888 233.283 135.795ZM193.72 141.669C197.914 135.606 205.087 131.441 211.398 127.936C214.846 126.021 218.364 124.165 221.984 122.599C223.784 121.82 225.604 121.071 227.442 120.387C228.423 120.022 229.416 119.69 230.41 119.359C230.685 119.268 231.185 118.988 231.472 119.015C231.423 119.01 232.187 119.218 232.037 119.284C232.529 119.069 232.763 118.509 233.342 118.285C233.993 118.033 234.822 117.929 235.519 117.906C236.136 117.886 236.669 118.141 237.257 118.161C237.643 118.174 237.971 117.99 238.349 117.963C238.543 117.95 238.526 118.24 238.642 118.257C238.693 118.264 239.208 118.07 239.213 118.073C239.4 118.194 239.567 118.666 239.736 118.85C240.223 119.378 240.936 119.745 241.585 120.023C242.374 120.361 244.3 120.701 243.407 121.952C244.041 121.86 244.336 122.435 243.543 122.58C243.113 122.659 242.929 122.264 242.61 121.995C241.872 121.374 240.082 120.491 239.02 120.531C238.422 120.553 237.96 121.007 237.409 121.172C236.867 121.335 236.598 121.083 236.122 121.123C235.566 121.169 235.208 121.641 234.678 121.725C234.181 121.804 233.905 121.464 233.461 121.488C232.934 121.516 232.423 121.975 231.919 122.129C231.118 122.375 230.53 122.542 229.748 122.948C228.233 123.736 226.541 124.036 224.979 124.714C223.73 125.257 222.314 125.542 221.159 126.142C219.874 126.808 218.584 127.473 217.325 128.197C216.416 128.72 214.569 128.9 213.567 128.767C213.552 130.616 212.644 129.32 211.729 130.13C211.945 130.321 212.191 130.462 212.465 130.552C211.473 130.949 210.557 131.443 209.596 131.9C208.602 132.372 207.543 132.476 206.89 133.368C206.289 134.191 206.493 133.766 205.596 134.09C205.184 134.239 204.826 134.693 204.53 134.997C204.02 135.521 203.907 136.314 203.616 135.238C203.531 135.369 203.197 136.204 203.132 136.225C202.768 135.838 202.715 136.297 202.511 136.462C202.619 136.819 202.465 137.053 202.051 137.164C201.842 137.32 201.63 137.473 201.415 137.623C200.638 138.164 199.648 138.627 199.1 139.433C198.696 139.194 198.547 138.782 198.793 138.361C198.021 139.074 197.1 139.806 196.891 140.904C196.795 140.811 196.683 140.744 196.556 140.703C196.243 140.915 196.651 141.547 196.85 141.689C197.716 141.351 196.633 141.474 197.216 141.528C197.381 141.543 197.552 141.668 197.735 141.67C198.272 141.677 198.776 141.651 199.309 141.569C200.483 141.388 201.636 141.05 202.773 140.712C204.01 140.343 205.248 139.975 206.458 139.522C207.455 139.15 208.435 138.735 209.415 138.321C209.806 138.156 210.197 137.988 210.589 137.824C211.333 137.513 211.725 137.001 211.622 137.878C212.214 137.779 212.728 136.94 213.183 136.597C213.823 136.115 214.543 135.756 215.302 135.51C215.609 135.411 215.835 135.284 216.152 135.283C216.308 135.283 216.401 135.723 216.5 135.699C217.18 135.534 216.87 135.156 217.176 134.611C217.845 133.421 219.648 132.763 220.756 132.087C221.459 131.658 221.957 131.08 222.606 130.605C222.91 130.383 223.13 130.284 223.448 130.19C223.692 130.118 223.991 130.679 224.148 130.115C223.582 129.883 223.115 129.597 222.57 129.428C222.185 129.308 222.647 128.897 222.036 129.141C221.791 129.24 221.707 129.715 221.616 129.915C220.934 129.304 219.016 129.937 218.206 130.192C218.151 130.21 217.901 130.078 217.783 130.086C217.316 130.117 216.99 130.747 216.683 131.019C215.865 131.741 214.978 132.043 213.971 132.455C214.239 130.987 216.208 130.386 217.358 129.824C219.038 129.003 220.603 127.954 222.443 127.512C223.668 127.217 225.292 126.98 225.821 128.408C226.138 129.264 226.177 131.39 225.106 131.785C224.993 131.385 225.355 131.044 225.464 130.697C224.397 131.105 224.222 132.39 223.412 133.06C222.956 133.436 222.793 133.557 222.573 133.921C222.355 134.282 222.25 134.619 221.737 135.004C220.9 133.221 221.042 135.663 220.617 135.969C220.788 135.846 219.925 136.206 220.028 136.168C219.988 136.182 219.612 135.572 219.368 135.585C218.924 135.608 219.01 136.098 218.796 136.344C218.071 137.178 217.135 137.725 215.969 137.594C215.942 138.188 216.125 138.896 215.316 138.951L215.21 137.635C214.77 138.081 214.191 138.505 213.832 139.021C213.425 139.609 213.468 139.971 212.792 140.363C212.086 140.773 210.583 141.58 209.742 141.649C209.95 141.354 209.913 141.087 209.632 140.849C209.209 141.286 208.585 141.329 208.135 141.724C209.697 142.378 206.934 142.344 206.584 142.418C206.349 142.468 206.144 142.682 205.907 142.73C205.591 142.794 205.55 142.462 205.279 142.567C204.881 142.722 205.043 143.157 204.627 143.376C204.328 143.533 203.822 143.531 203.485 143.68C202.681 144.037 200.971 144.826 200.428 143.869C200.153 145.511 197.344 144.512 196.304 144.401C194.88 144.249 192.399 143.58 193.72 141.669ZM199.702 124.861C199.903 124.688 200.105 124.701 200.307 124.899C200.026 123.412 202.198 122.69 203.146 122.058C204.404 121.22 205.883 119.594 207.529 119.722C207.248 119.931 206.968 120.139 206.688 120.347C207.088 120.399 207.488 120.451 207.887 120.503C207.662 120.835 207.436 121.167 207.21 121.498C206.841 119.459 204.915 122.033 204.357 122.409C203.796 122.786 203.236 123.068 202.737 123.528C202.243 123.985 201.796 124.806 200.979 124.396C200.905 125.561 199.97 125.245 199.324 125.89C199.297 125.485 199.529 125.199 199.702 124.861ZM208.237 119.047C210.225 118.301 211.957 116.921 213.831 115.935C215.62 114.993 217.446 114.147 219.266 113.269C220.189 112.823 221.88 111.67 222.935 112.258C224.359 113.051 222.399 113.307 221.89 113.582C221.701 112.36 221.042 113.467 221.436 114.147C220.349 113.676 217.98 115.516 216.944 116.023C216.709 116.138 216.814 116.204 216.547 116.34C216.482 116.373 215.802 116.528 215.607 116.594C214.631 116.921 213.988 116.661 213.568 117.841C213.48 117.563 213.392 117.285 213.304 117.007C212.693 118.382 210.836 118.983 209.649 119.796C209.343 120.006 208.469 120.818 208.081 120.65C207.54 120.416 207.757 119.227 208.237 119.047ZM244.11 123.191C244.949 123.247 244.14 123.639 244.37 123.899C244.344 123.87 244.876 124.324 244.806 124.199C244.9 124.367 245.126 124.361 245.241 124.702C245.638 125.875 243.904 127.087 243.319 127.752C242.182 129.047 241.525 130.687 240.34 131.94C239.805 132.506 239.273 132.897 238.531 133.108C238.012 133.255 237.463 133.097 236.986 133.597C236.601 134 236.688 134.229 236.264 134.443C235.516 134.821 235.186 134.49 234.458 135.306C233.832 133.599 235.632 133.602 236.571 132.648C237.867 131.332 239.288 130.003 240.504 128.594C241.584 127.343 242.016 126.246 242.529 124.725C242.691 124.246 242.867 123.218 243.312 122.917C244.006 122.449 243.59 123.157 244.11 123.191ZM248.238 167.527C250.44 165.059 253.172 162.843 256.133 161.356C257.191 160.825 258.698 160.127 259.794 160.946C260.87 161.748 260.639 163.348 260.205 164.436C259.79 164.273 260.182 162.743 259.966 162.365C259.496 161.54 258.481 161.978 257.79 162.255C256.981 162.578 256.26 162.936 255.619 163.524C255.359 163.762 254.861 163.976 254.695 164.14C254.445 164.035 254.297 164.111 254.253 164.367C254.304 164.524 254.298 164.678 254.234 164.83C254.198 164.878 253.872 164.68 253.826 164.72C253.615 164.901 253.418 165.114 253.21 165.282C252.793 165.619 252.439 165.779 252.055 166.25C251.314 167.16 250.334 167.693 249.59 168.56C249.422 168.756 249.221 169.258 249.183 169.302C248.807 169.742 248.249 170.091 247.824 170.556C247.091 171.361 246.307 171.901 245.461 172.592C245.096 172.888 244.671 173.208 244.428 173.621C244.318 173.81 244.255 174.842 244.251 174.846C243.421 175.759 243.583 173.925 243.645 173.695C244.32 171.222 246.599 169.365 248.238 167.527ZM243.706 184.252C243.809 184.641 243.894 184.962 243.999 185.356C243.341 184.815 243.341 184.815 243.706 184.252ZM242.995 185.525C242.753 185.769 242.51 186.012 242.265 186.253C241.726 185.682 243.094 185.427 242.995 185.525ZM242.653 175.703C242.395 176.747 241.452 178.013 240.804 178.837C240.876 178.746 240.251 178.929 240.18 178.97C239.949 179.104 240.502 179.973 239.702 179.585C239.418 179.746 239.977 180.401 239.591 180.695C238.476 178.149 241.521 175.943 242.699 174.053C243.276 174.584 242.798 175.118 242.653 175.703ZM235.411 189.468C236.224 189.677 236.647 189.545 237.196 188.745C237.526 188.265 237.646 187.413 238.401 188.133L238.534 187.208C239.611 187.651 239.521 189.251 239.991 190.138C240.22 189.135 240.763 186.332 242.424 186.781C244.289 187.286 241.185 190.5 240.897 191.287C240.263 190.301 240.512 191.218 240.029 191.357C239.614 191.477 238.966 191.171 238.461 191.198C236.928 191.282 235.58 191.973 234.179 192.559C233.824 191.6 233.47 190.642 233.115 189.683C233.94 189.747 235.646 187.547 235.888 189.146C235.276 189.039 235.104 189.066 234.806 189.624C234.996 189.528 235.198 189.475 235.411 189.468ZM238.854 201.978C238.852 201.97 240.441 202.069 240.582 202.017C241.67 201.619 241.268 200.383 241.49 199.509C241.938 199.922 241.701 200.676 241.839 201.21C242.001 201.838 242.471 202.374 242.514 203.045C242.613 204.563 241.371 204.226 240.429 204.717C239.624 205.137 239.534 205.665 238.855 204.534C238.671 204.228 238.275 203.43 238.316 203.039C238.355 202.651 238.968 202.329 238.854 201.978ZM240.135 208.545L239.695 208.052C241.004 208.454 240.232 207.85 240.533 207.024C241.538 207.695 242.358 208.384 243.153 207.041L244.527 212.594C243.604 212.812 242.414 211.383 241.781 210.892C241.415 210.609 239.387 209.516 240.605 209.198C240.448 208.98 240.291 208.763 240.135 208.545ZM249.102 191.109C248.339 191.836 247.571 192.243 246.741 192.814C246.013 193.315 246.263 193.891 245.632 194.45C245.213 194.822 244.23 195.201 243.712 195.484C242.789 195.989 241.963 196.086 241.014 195.52C241.272 197.604 239.848 197.767 238.075 198.18C237.23 198.377 236.73 198.678 236.12 197.902C235.703 197.371 235.54 196.409 236.059 195.923C236.883 195.151 239.08 195.418 240.138 194.932C240.941 194.564 241.758 192.49 242.749 193.245C242.238 192.429 242.833 192.209 243.277 191.627C243.764 190.99 244.063 190.244 244.566 189.612C245.523 188.41 246.992 187.201 248.351 186.476C249.546 185.838 250.174 186.289 250.353 187.629C250.443 188.302 250.44 189.305 250.064 189.902C249.944 190.093 249.548 190.095 249.428 190.274C249.219 190.586 249.411 190.815 249.102 191.109ZM263.132 174.948C264.086 175.688 263.993 177.242 264.143 178.301C264.355 179.794 264.201 181.238 264.179 182.758C264.155 184.351 263.375 185.388 263.008 186.881C262.6 188.542 262.073 189.421 261.158 190.815C262.151 190.971 260.674 193.941 260.43 194.325C260.166 194.743 258.035 196.666 258.948 196.666C258.444 197.332 257.895 198.016 257.393 198.663C257.195 198.918 256.849 199.019 256.693 199.199C256.375 199.565 256.356 199.891 256.129 200.318C255.784 200.966 255.67 200.793 255.217 201.263C254.904 201.588 254.698 202.017 254.391 202.328C253.4 203.331 253.273 202.509 252.719 201.737C252.634 201.944 252.484 202.074 252.267 202.126C252.093 201.252 253.288 200.369 253.79 199.838C254.613 198.968 255.365 198.009 256.092 197.058C257.65 195.019 259.05 192.852 260.154 190.532C261.329 188.062 262.268 185.389 262.755 182.695C263.127 180.641 263.48 177.118 260.742 176.596C258.75 176.216 256.555 177.429 254.913 178.41C253.912 179.008 252.906 179.603 251.953 180.276C250.919 181.005 250.025 182.038 248.902 182.623C249.516 182.303 247.489 183.267 247.8 182.996C247.654 183.122 247.78 183.509 247.684 183.684C247.559 183.911 247.124 184.135 246.929 184.282C246.414 184.67 245.591 185.066 245.356 185.707C242.089 183.371 248.587 179.224 250.252 178.167C253.556 176.073 259.306 171.979 263.132 174.948ZM271.946 152.229C271.914 150.546 273.281 148.25 274.205 146.878C274.656 146.207 275.378 146.234 275.643 145.442C275.795 144.986 275.595 144.508 275.64 144.05C275.702 143.431 275.97 142.934 276.279 142.402C279.073 137.59 282.468 133.332 286.085 129.134C287.868 127.065 289.558 124.916 291.481 122.972C292.285 122.16 294.444 119.242 295.679 119.534C296.333 119.688 296.713 120.688 297.009 121.199C297.497 122.043 298.034 122.834 298.627 123.61C300.193 125.659 302 127.458 304.133 128.911C305.465 129.818 306.811 130.701 308.113 131.652C309.186 132.434 310.807 133.329 311.573 134.428C312.339 135.527 311.214 136.458 310.599 137.371C309.644 138.79 308.765 140.261 307.805 141.679C307.424 141.404 307.522 140.846 307.261 140.494C307.029 140.182 306.702 140.055 306.381 139.863C305.768 139.494 305.166 139.044 304.612 139.661C303.642 140.741 304.975 143.295 306.413 143.015C306.582 144.081 303.712 145.838 302.992 146.424C300.784 148.225 298.507 149.79 295.59 149.952C294.41 150.018 293.182 149.929 292.061 149.533C291.523 149.343 290.93 149.083 290.518 148.67C290.025 148.175 289.899 147.439 289.421 146.949C289.006 146.524 288.436 146.458 288.021 146.032C287.606 145.605 287.401 144.931 287.233 144.378C286.903 143.298 286.841 142.159 286.525 141.076C286.334 140.425 286.178 139.554 285.557 140.18C284.655 141.089 285.108 143.947 285.339 145.036C285.669 146.59 286.443 147.842 287.254 149.179C288.134 150.629 288.459 151.974 288.616 153.652C288.911 156.793 289.811 159.807 291.21 162.633C291.799 163.822 292.505 164.941 293.141 166.104C293.438 166.646 294.104 168.497 294.912 168.487C296.203 168.471 294.364 164.698 294.108 164.065C292.694 160.557 291.343 156.87 291.041 153.072C293.068 153.595 295.277 154.092 297.377 153.76C296.022 156.797 297.437 159.821 297.264 162.946C297.177 164.514 297.115 165.96 297.147 167.523C297.175 168.893 296.558 170.263 296.024 171.503C294.964 173.964 293.629 177 291.66 178.885C290.013 180.461 287.811 180.584 285.66 180.221C280.767 179.395 277.551 175.626 275.498 171.345C274.178 168.594 273.17 165.658 272.544 162.672C271.819 159.215 272.01 155.735 271.946 152.229ZM278.301 128.932C273.734 125.621 280.37 121.861 283.747 122.373C284.54 122.493 285.998 122.821 285.923 123.858C285.863 124.704 284.453 125.648 283.912 126.171C282.368 127.663 280.798 130.743 278.301 128.932ZM311.52 202.503C311.363 202.363 310.085 202.708 310.592 201.95C311.012 201.321 312.179 202.11 312.603 202.272C312.253 202.513 311.949 202.888 311.52 202.503ZM292.506 242.549C292.113 242.598 291.703 241.537 293.118 242.33C292.914 242.403 292.71 242.476 292.506 242.549ZM292.465 259.838C292.514 260.313 292.659 260.627 292.322 260.972C292.037 260.62 292 260.124 292.465 259.838ZM293.04 266.981C292.998 267.24 292.956 267.499 292.915 267.757C292.588 267.591 292.262 267.426 291.935 267.26C292.303 267.167 292.672 267.074 293.04 266.981ZM293.439 260.958C293.926 261.14 293.7 260.557 294.053 260.475C294.18 261.082 294.024 261.602 293.676 262.103C293.643 261.985 293.464 260.966 293.439 260.958ZM305.884 217.852C305.201 217.765 305.098 218.488 304.588 218.769C304.259 218.95 303.259 218.814 303.072 219.161C303.318 219.232 303.565 219.304 303.812 219.375C303.247 219.68 302.683 219.985 302.118 220.29C303.476 220.29 304.891 219.64 306.239 219.831C306.81 219.912 307.227 220.105 307.585 220.569C307.802 220.851 307.993 221.305 308.028 221.651C308.066 222.024 307.775 222.282 307.826 222.461C308.434 222.477 308.362 223.476 308.226 223.883C307.93 224.766 306.755 226.149 305.701 225.589C306.142 226.215 306.03 226.573 305.378 226.937C305.437 226.73 305.481 226.367 305.148 226.403C305.062 226.75 305.095 227.301 304.812 227.563C304.495 227.856 304.213 227.513 303.91 227.704C303.551 227.93 303.658 228.285 303.376 228.53C303.003 228.854 302.949 228.624 302.503 228.687C301.827 228.783 302.258 228.362 301.717 228.911C301.529 229.1 301.561 229.593 301.257 229.87C300.674 230.402 299.118 230.956 298.559 230.274C297.216 232.407 293.189 232.919 291.315 231.235C288.326 228.549 293.899 223.086 295.74 221.355C297.586 219.618 299.638 218.117 301.713 216.668C302.893 215.845 304.103 215.098 305.339 214.365C306.101 213.912 307.059 213.086 307.995 213.165C308.835 213.237 309.553 213.89 310.438 214.019C311.078 214.113 312.32 214.267 311.513 215.137C311.136 215.543 309.654 216.2 309.149 216.299C308.852 216.357 308.54 216.246 308.246 216.306C307.749 216.408 307.407 216.829 306.866 216.775C307.037 217.58 306.725 217.959 305.884 217.852ZM314.73 187.974C314.731 188.604 313.584 188.447 313.344 188.233C312.95 187.881 312.936 186.829 312.79 186.351C313.457 186.519 314.73 187.134 314.73 187.974ZM305.492 167.202C307.901 165.218 310.434 163.399 313.111 161.796C314.07 161.223 315.424 160.065 316.615 160.21C317.114 160.271 318.147 160.846 317.771 161.48C317.701 161.598 317.145 161.646 316.973 161.732C316.778 161.829 316.626 162.098 316.445 162.231C315.194 163.15 313.691 163.715 312.436 164.657C311.404 165.431 310.442 166.296 309.332 166.96C308.267 167.596 307.154 167.999 306.142 168.704C306.162 168.69 304.827 169.171 305.089 169.259C303.916 168.866 305.155 167.48 305.492 167.202ZM321.553 166.463C322.984 165.891 324.384 165.198 325.883 164.814C326.63 164.622 327.398 164.478 328.172 164.564C328.303 164.333 328.478 164.282 328.697 164.411C328.868 164.674 329.093 164.876 329.373 165.017C329.8 165.346 331.371 165.776 331.057 166.502C330.85 166.982 329.274 167.022 328.841 167.13C327.538 167.455 326.322 168.187 324.98 168.367C324.853 168.384 324.442 168.231 324.437 168.232C323.913 168.347 323.477 168.891 323.027 169.153C322.058 169.715 320.666 169.809 319.97 170.779C322.223 172.31 324.178 170.792 326.159 169.636C327.346 168.944 328.62 168.445 329.916 168.001C330.594 167.769 331.278 167.528 331.965 167.325C332.249 167.221 332.541 167.146 332.841 167.101C333.12 167.045 333.32 167.147 333.44 167.406C334.271 167.378 334.342 166.856 334.842 167.83C335.546 169.203 334.468 169.133 333.455 169.302C332.05 169.536 330.621 170.062 329.237 170.41C328.917 170.491 326.117 171.141 326.114 171.165C325.987 172.05 334.023 171.23 334.713 171.097C335.93 170.862 337.236 170.196 338.496 170.357C339.464 170.48 341.668 171.903 340.125 172.848C339.821 171.39 338.778 172.594 338.233 173.086C337.508 173.741 336.468 173.678 335.473 173.934C334.112 174.285 330.628 175.599 329.662 173.923C329.968 175.392 324.414 174.646 323.651 174.597C322.907 174.55 321.946 174.708 321.227 174.496C320.757 174.357 320.496 174.051 320.055 173.982C319.947 174.099 319.817 174.179 319.666 174.221C319.442 174.107 319.24 173.963 319.06 173.788C317.573 173.103 315.272 172.725 316.098 170.543C316.877 168.485 319.663 167.218 321.553 166.463ZM335.493 167.735C335.53 167.607 335.567 167.479 335.604 167.35C335.608 167.743 336.544 167.911 336.436 168.42C336.196 169.548 335.117 167.853 335.024 167.669C335.181 167.691 335.336 167.713 335.493 167.735ZM341.203 169.608C341.311 170.07 342.555 171.053 342.247 171.28C341.756 170.612 340.401 170.915 341.203 169.608ZM320.224 211.75C320.679 210.845 322.055 212.386 321.91 210.841C322.659 210.909 322.191 211.48 323.088 211.229C323.424 211.135 323.651 210.761 324.061 210.675C324.17 210.652 324.642 210.69 324.805 210.685C325.344 210.668 327.458 210.608 326.003 209.899C326.818 209.36 326.918 209.633 327.653 210.128C327.465 209.106 328.546 209.686 329.05 209.813C328.69 209.231 329.582 208.61 329.871 208.216C329.767 208.823 329.822 209.503 330.698 209.115C330.916 209.018 330.867 208.589 331.041 208.519C331.358 208.391 331.535 208.624 331.649 208.611C331.761 208.598 331.996 208.661 332.232 208.573C332.537 208.457 332.39 208.046 332.777 207.985C333.03 207.945 333.214 208.317 333.522 208.32C333.68 208.322 333.944 208.161 334.065 208.169C334.086 208.171 334.236 207.807 334.421 207.798C334.692 207.785 334.802 208.511 334.901 208.652C335.374 209.325 336.004 209.764 336.73 210.123C335.416 211.33 332.766 211.202 331.114 211.609C330.219 211.83 329.456 212.148 328.637 212.558C328.44 212.686 328.27 212.844 328.127 213.031C328.012 212.954 327.895 212.877 327.779 212.8C327.331 212.828 326.906 212.605 326.401 212.691C324.842 212.954 323.62 214.125 322.035 214.386C321.323 214.504 320.737 214.667 320.273 214.049C319.866 213.506 319.933 212.327 320.224 211.75ZM318.085 204.537C318.438 204.837 318.013 205.812 318.697 205.706C319.183 205.631 319.086 204.876 319.468 204.716C319.969 204.506 320.271 205.004 320.742 204.958C321.62 204.871 321.57 204.103 320.828 203.765C321.599 203.561 321.846 204.475 322.529 204.467C323.426 204.456 323.212 203.396 323.975 203.22C324.306 203.144 324.195 203.63 324.41 203.691C324.839 203.811 325.138 203.604 325.518 203.422C325.857 203.258 326.099 202.943 326.471 202.836C326.64 202.787 327.069 202.877 327.193 202.786C327.443 202.604 327.667 201.892 327.913 201.798C327.862 201.817 328.669 202.222 328.784 202.261C328.713 202.561 328.549 202.596 328.292 202.368C328.292 203.045 330.171 203.257 329.786 202.419C330.802 202.841 330.045 203.058 329.943 203.646C329.903 203.883 329.766 203.876 329.806 204.126C329.825 204.242 330.358 204.142 330.351 204.299C330.306 205.311 327.09 205.622 326.481 205.711C325.219 205.896 324.025 206.206 322.809 206.589C321.904 206.874 320.343 207.689 319.379 207.639C317.994 207.566 317.813 205.754 318.085 204.537ZM314.989 194.218C314.651 193.093 315.735 190.769 317.146 191.059C317.493 191.13 317.579 191.419 317.848 191.547C318.224 191.725 318.836 191.631 319.162 191.816C319.892 192.231 319.524 193.287 320.256 193.668C319.1 193.949 315.525 196.006 314.989 194.218ZM316.326 198.588C316.824 198.32 317.632 198.286 317.971 197.77C318.141 197.887 318.46 198.6 318.764 198.491C318.905 198.44 319.052 198.054 319.041 198.054C319.312 198.046 319.365 197.68 319.778 197.721C320.157 197.759 320.582 198.216 320.919 198.386C320.861 197.254 321.151 197.146 322.067 196.54C322.268 196.407 322.435 195.909 322.621 195.707C322.443 196.895 322.89 196.901 323.837 197.08C325.023 197.304 325.763 197.942 326.238 199.091C325.227 198.894 323.923 199.131 323.524 200.221C322.717 198.743 319.783 200.782 318.834 201.2C318.13 201.51 317.311 201.927 316.72 201.204C316.304 200.695 316.543 200.083 316.551 199.631C316.554 199.489 316.7 199.481 316.687 199.269C316.67 199 316.319 198.892 316.326 198.588ZM327.123 221.826C326.856 221.928 325.481 221.984 325.473 221.528C325.465 221.125 327.899 221.531 327.123 221.826ZM324.89 220.35C323.85 220.992 322.686 218.728 322.304 218.076C323.395 218.216 323.928 217.302 324.57 216.606C325.182 217.949 326.11 217.239 327.087 216.791C328.239 216.262 329.501 216.258 330.681 215.834C331.049 215.702 331.389 215.505 331.748 215.353C332.037 215.245 332.326 215.133 332.613 215.019C332.817 214.835 332.89 214.608 332.83 214.339C332.734 214.113 332.8 213.97 333.028 213.911C333.3 213.992 333.577 214.039 333.86 214.052C334.315 213.961 334.969 213.531 334.42 213.068C335.008 212.533 335.597 213.065 336.163 213.299C336.029 212.915 335.895 212.531 335.76 212.146C336.041 212.266 336.875 213.433 336.96 213.427C337.499 213.386 337.443 212.661 337.753 212.369C337.931 212.59 337.983 214.237 338.685 213.682C338.986 213.445 338.339 212.637 338.179 212.453C338.983 212.635 339.685 213.597 339.903 214.343C339.521 214.399 339.168 214.322 338.844 214.112C338.637 215.152 340.557 214.731 340.868 215.274C341.477 216.338 337.516 217.076 337 217.175C335.967 217.372 334.748 217.446 333.802 217.904C332.895 218.344 332.68 218.469 331.62 218.552C330.411 218.646 329.23 219.045 328.06 219.356C327.044 219.626 325.791 219.794 324.89 220.35ZM346.999 182.279C347.954 181.935 351.172 180.147 351.991 180.942C351.904 180.858 352.581 182.26 352.574 182.172C352.632 182.901 352.615 183.194 351.719 183.544C351.077 183.794 350.519 183.262 349.942 183.473C349.308 183.705 349.751 184.116 349.425 184.403C349.067 184.717 348.378 184.853 347.933 184.99C346.844 185.328 345.746 185.609 344.662 185.973C342.456 186.712 340.121 187.399 337.854 187.922C336.16 188.313 333.285 189.283 331.724 188.137C331.572 188.789 331.2 188.699 330.683 188.794C330.277 188.869 329.544 189.07 329.183 189.081C328.583 189.098 326.914 188.94 327.144 188.097C327.081 188.329 328.442 187.534 328.206 187.484C328.784 187.606 328.597 187.315 329.07 187.153C329.689 186.941 330.335 186.952 330.967 186.728C332.558 186.162 333.894 185.429 335.574 185.074C339.411 184.265 343.297 183.614 346.999 182.279ZM193.158 269.425C192.847 269.433 192.606 268.548 193.552 269.18C193.421 269.262 193.29 269.343 193.158 269.425ZM185.686 268.279C185.263 268.388 185.094 268.151 185.18 267.57C185.77 267.336 185.938 267.573 185.686 268.279ZM179.916 267.093C179.808 266.575 180.191 266.458 180.539 266.226C180.504 266.912 180.504 266.912 179.916 267.093ZM165.401 262.83C164.816 262.701 164.037 262.128 163.903 263.09C163.805 262.867 163.306 261.82 163.52 261.577C163.632 261.45 164.056 262.037 164.011 261.979C164.522 260.942 165.405 262.193 165.898 262.564C165.732 262.653 165.566 262.741 165.401 262.83ZM317.438 148.181C317.64 147.753 317.878 147.617 318.152 147.773C317.722 148.774 316.266 149.316 317.438 148.181ZM327.554 138.789C327.915 139.466 327.372 139.753 326.985 140.316C327.212 139.708 327.369 139.287 327.554 138.789ZM371.52 204.931C372.821 204.931 375.591 204.243 376.376 205.733C376.895 204.72 377.485 206.619 377.935 206.924C377.986 206.958 378.31 206.71 378.461 206.801C378.689 206.939 378.885 207.315 379.015 207.538C379.408 208.212 379.577 209.013 379.795 209.754C377.523 209.754 375.193 209.224 372.923 209.031C371.433 208.905 369.973 208.901 368.48 208.981C368.184 208.997 367.595 208.899 367.342 208.955C367.084 209.012 366.617 209.538 366.333 209.453C366.774 210.283 372.425 212.293 372.857 211.374C372.346 211.064 371.211 210.826 371.212 210.077C371.213 209.239 372.276 209.24 372.84 209.265C374.073 209.319 376.137 209.73 376.642 211.015C376.859 211.565 376.925 212.952 376.687 213.483C376.534 213.827 376.274 214.239 375.862 214.309C375.693 214.338 375.449 214.112 375.423 214.118C374.578 214.298 373.012 214.978 372.09 214.019C371.425 214.881 368.221 213.939 367.24 213.614C365.525 213.045 363.163 212.263 362.121 210.659C360.851 208.704 363.433 207.052 364.915 206.257C366.942 205.171 369.258 204.932 371.52 204.931ZM380.177 209.452C380.576 209.564 380.974 209.677 381.373 209.79C381.266 210.491 379.693 209.936 380.177 209.452ZM392.23 234.919C392.353 232.112 391.543 229.64 391.076 226.925C390.96 226.252 391.078 225.075 390.568 224.522C390.081 223.993 388.993 224.423 388.95 223.487C388.47 224.051 388.518 224.168 387.927 223.521C388.035 223.798 388.05 224.081 387.974 224.368C387.607 224.158 386.276 223.458 386.388 224.415C385.294 224.172 385.611 223.487 384.987 222.963C384.899 222.889 384.543 223.153 384.404 223.041C384.153 222.837 384.029 222.652 383.817 222.389C383.548 222.715 383.182 222.951 382.853 223.208C382.662 222.791 382.29 222.485 381.843 222.384C382.261 223.26 383.295 224.395 381.877 224.894C381.031 225.191 379.646 224.827 378.75 224.896C375.429 225.154 371.791 224.429 368.58 223.636C365.282 222.821 361.946 221.672 358.98 219.992C358.348 219.633 357.949 219.209 357.405 218.765C356.875 218.333 356.491 218.265 355.854 217.988C354.709 217.491 353.661 216.694 352.79 215.805C350.917 213.894 349.177 211.395 349.698 208.597C350.218 205.808 352.131 203.629 354.178 201.793C356.595 199.624 359.324 197.813 362.221 196.353C363.516 195.701 366.829 193.249 368.109 194.683C368.927 195.6 368.467 196.769 367.349 196.973C367.074 197.023 366.786 196.838 366.507 196.965C366.105 197.148 366.247 197.364 366.081 197.517C365.793 197.782 365.487 198.196 365.057 198.426C363.555 199.228 362.103 199.864 360.668 200.841C360.006 201.291 359.369 201.485 358.786 201.878C358.206 202.268 358.074 202.915 357.294 202.516C357.572 203.653 355.904 204.87 355.25 205.567C354.237 206.646 353.023 208.022 353.495 209.618C354.42 212.742 358.6 215.115 361.275 216.488C364.613 218.201 368.294 219.565 372.011 220.13C373.859 220.41 375.769 220.584 377.63 220.762C379.08 220.9 381.304 220.393 382.347 221.701C382.379 220.176 387.133 220.31 388.145 220.115C386.117 213.166 382.133 206.987 377.874 201.214C375.784 198.38 373.732 195.466 371.349 192.868C368.741 190.024 365.761 187.483 362.93 184.866C357.377 179.733 351.096 175.152 344.705 171.117C338.329 167.091 331.725 163.129 324.74 160.258C316.761 156.98 308.361 154.824 299.952 152.988C301.093 151.531 302.949 150.821 304.409 149.755C304.921 149.382 305.612 148.486 306.276 148.364C306.995 148.231 307.562 149.007 308.074 149.396C309.544 150.514 310.56 150.039 312.243 149.972C313.251 149.932 315.636 150.494 316.061 149.128C316.626 149.882 315.807 150.486 315.387 151.038C315.693 151.465 315.939 151.022 316.24 150.956C316.333 150.879 316.425 150.801 316.518 150.724C316.668 150.507 316.803 150.506 316.923 150.72C317.103 150.991 317.283 150.931 317.466 150.54C317.516 150.508 317.565 150.477 317.615 150.445C317.833 150.329 318.043 150.145 318.245 150.001C319.775 148.905 321.139 147.972 322.827 147.165C324.245 146.488 323.483 145.192 324.418 144.277C324.629 144.07 324.985 144.174 325.212 143.998C325.433 143.826 325.466 143.63 325.628 143.446C326.017 143.002 325.554 142.486 326.545 143.03L326.188 141.014C328.131 142.903 328.123 137.466 328.389 136.662C328.354 136.768 328.563 135.945 328.563 135.952C328.62 134.321 328.842 133.138 326.936 133.043C327.657 132.588 327.878 133.477 328.212 132.557C328.378 132.096 327.857 131.304 328.688 131.601C328.863 130.621 328.69 129.829 328.472 128.877C328.249 127.902 328.38 127.252 328.39 126.277C328.402 125.172 327.885 124.061 327.72 122.973C327.591 122.12 327.724 120.776 326.624 121.089C326.47 120.847 327.013 120.101 326.991 119.732C326.956 119.159 326.336 118.577 326.16 118.027C325.902 118.295 325.538 118.384 325.186 118.263C325.516 117.516 325.206 117.265 324.89 116.62C324.709 116.251 324.818 115.844 324.43 115.579C324.208 115.427 323.829 115.683 323.655 115.505C323.281 115.124 323.419 114.619 323.162 114.116C322.84 113.487 322.104 113.006 321.597 112.533C318.745 109.877 315.647 107.846 311.853 106.808C308.026 105.761 303.564 105.386 299.75 106.594C298.225 107.077 296.872 107.027 295.499 107.929C295.054 108.221 295.007 108.143 294.781 108.631C294.729 108.744 295.202 109.047 294.912 109.233C294.597 109.435 294.249 109.024 294.088 108.684C292.103 110.123 290.243 112.043 289.112 114.244C287.989 116.432 287.886 119.001 287.457 121.378C285.478 119.113 282.802 118.027 279.892 119.116C277.356 120.065 275.391 122.151 274.894 124.853C274.592 126.5 274.922 128.169 275.669 129.655C275.992 130.297 276.383 131.008 276.976 131.441C277.446 131.782 278.25 131.734 278.471 132.351C278.81 133.295 276.853 135.335 276.345 136.161C275.426 137.657 274.572 139.202 273.922 140.836C271.591 137.536 269.36 133.933 266.71 130.891C264.208 128.019 261.226 125.444 258.302 123.017C252.232 117.98 245.921 113.248 239.132 109.235C232.809 105.498 225.173 103.424 217.805 104.157C210.606 104.874 205.094 109.437 200.456 114.699C191.539 124.817 186.077 139.239 185.543 152.708C185.383 156.754 185.69 160.747 186.688 164.671C187.163 166.54 187.094 168.378 187.37 170.271C187.681 172.406 188.22 174.533 188.741 176.624C190.726 184.592 193.254 192.553 196.091 200.256C197.567 204.262 199.352 208.178 201.766 211.71C202.882 213.342 204.327 214.618 205.527 216.168C206.691 217.67 206.999 219.515 207.255 221.358C207.869 225.779 208.276 230.219 208.645 234.666C208.802 236.551 208.985 238.419 209.234 240.29C209.451 241.922 208.905 241.842 207.535 242.396C207.813 240.93 201.268 241.927 200.651 242.027C199.978 242.136 199.266 242.137 198.737 242.224C198.144 242.321 197.565 242.46 196.883 242.441C195.88 242.412 194.004 242.155 193.621 243.438C193.357 241.951 191.618 243.577 192.905 243.301C191.583 243.449 190.235 243.202 188.898 243.327C187.365 243.47 185.82 243.605 184.298 243.837C183.238 243.997 182.227 244.406 181.166 244.525C179.808 244.677 178.391 244.663 177.019 244.784C171.961 245.231 166.719 246.337 161.802 247.603C160.688 247.889 159.409 248.093 158.345 248.553C158.06 248.676 157.803 248.952 157.53 249.057C157.073 249.234 157.135 249.112 156.729 249.193C154.295 249.681 151.783 250.477 149.349 251.102C147.999 251.449 145.803 251.762 144.702 252.706C144.208 253.129 143.776 253.879 144.568 254.36C145.2 254.744 146.102 254.131 146.613 253.8C146.157 254.99 145.298 255.583 145.762 256.937C146.129 258.007 146.956 259.326 148.229 258.635C148.399 259.033 148.468 259.823 148.97 259.969C149.421 260.1 149.748 259.527 150.19 259.662C150.348 259.711 150.288 260.01 150.43 260.089C150.674 260.223 150.921 260.28 151.201 260.375C151.441 260.457 151.828 260.625 152.079 260.643C152.238 260.654 152.613 260.381 152.612 260.381C152.977 260.437 153.174 261.138 153.437 261.34C153.779 261.603 154.061 261.663 154.489 261.758C155.378 261.956 156.524 262.296 157.111 261.383C156.977 262.035 157.861 261.971 158.251 262.053C158.208 261.71 158.018 261.396 157.726 261.207C158.598 261.265 158.245 262.134 158.889 262.363C159.349 262.527 159.297 262.112 159.648 262.066C160.111 262.005 160.463 262.342 161.186 262.031C161.342 262.729 161.4 263.433 162.255 263.537C162.757 263.598 163.927 262.69 163.861 263.446C164.982 263.116 165.408 263.339 165.994 264.329C166.093 263.721 166.572 263.898 167.012 263.86C167.709 263.801 167.727 263.857 168.267 263.461C168.317 263.425 168.742 262.45 168.93 263.056C169.015 263.328 168.454 263.967 168.246 264.129C168.504 264.26 169.35 264.719 169.676 264.634C169.957 264.561 169.958 264.079 170.296 264.054C170.213 264.332 170.131 264.609 170.048 264.886C170.706 264.982 171.256 264.541 171.775 264.218C172.271 265.473 173.687 264.766 174.458 265.711C174.865 266.211 174.884 266.591 175.661 266.721C176.455 266.855 177.149 266.505 177.824 267.162C177.61 266.755 177.077 266.417 177.607 265.979C177.967 266.492 178.154 267.109 178.569 267.586C178.627 267.344 178.684 267.101 178.741 266.859C179.825 268.02 181.19 268.031 182.578 268.675V267.824C183.573 269.345 183.626 268.383 184.813 267.762C184.733 268.209 184.652 268.656 184.571 269.103C185.426 269.038 186.224 270.053 186.926 269.191C187.349 269.903 187.863 269.553 188.558 269.779C188.953 269.907 189.247 270.297 189.631 270.438C190.207 270.65 190.379 270.64 190.921 270.824C191.404 270.987 191.678 271.306 192.282 271.408C192.674 271.474 193.03 271.469 193.405 271.451C193.55 271.444 193.502 271.117 193.824 271.193C194.323 271.311 194.694 271.938 195.053 272.259C195.592 270.899 197.103 272.72 197.834 272.963C197.904 272.614 197.891 272.194 198.143 271.908C198.438 272.557 198.551 273.102 199.165 273.52C199.519 273.761 200.039 273.934 200.448 274.022C200.707 274.078 201.176 274.011 201.339 274.091C201.616 274.227 201.718 274.591 201.998 274.625C202.163 274.645 202.407 274.211 202.53 274.245C203.094 274.399 203.408 275.086 203.978 275.457C205.673 276.562 207.807 276.67 209.696 276.912C210.17 276.973 210.238 276.843 210.623 277.122C210.829 277.271 210.736 277.724 210.988 277.851C211.94 278.329 211.941 277.309 212.141 276.675C212.456 277.091 212.51 277.641 212.941 277.972C213.176 277.965 213.411 277.97 213.646 277.988C213.779 278.139 213.866 278.314 213.906 278.513C214.477 278.898 215.123 278.764 215.712 279.054C215.905 279.149 216.247 279.723 216.485 279.888C216.911 280.184 217.57 280.342 218.056 280.47C219.077 280.739 220.54 280.382 221.147 281.45C221.953 280.584 221.642 281.618 222.189 281.835C222.512 281.963 222.998 281.453 223.357 281.504C224.002 281.595 224.235 282.295 224.441 282.804C224.834 282.717 224.565 281.602 224.553 281.358C225.042 281.3 225.151 282.589 225.235 282.872C226.006 282.5 224.74 281.342 225.569 280.971C225.493 281.957 226.278 282.77 224.877 282.911C225.07 283.505 229.59 284.165 229.904 283.641C229.974 284.611 230.624 283.705 230.864 283.373C230.891 283.939 230.698 284.742 231.332 285.005C231.762 285.183 232.733 284.721 232.902 284.299C233.095 284.944 233.418 284.924 233.82 285.334C234.096 285.616 234.278 286.104 234.567 286.34C235.1 286.774 236.091 286.708 236.711 286.611C237.925 286.421 237.782 286.188 238.215 287.453C238.312 286.973 238.619 285.969 239.154 286.715C239.494 287.189 238.77 288.234 238.56 288.651C239.028 288.393 239.493 288.088 240.025 287.977C240.055 288.141 240.082 288.49 240.004 288.642C240.02 288.611 240.587 288.993 240.798 289.099C240.747 289.073 240.965 288.123 240.958 288.154C241.708 288.618 241.188 289.503 241.851 289.96C242.023 290.079 242.425 289.941 242.632 290.013C242.993 290.138 243.305 290.477 243.626 290.675C243.37 290.331 243.407 289.753 243.424 289.356C243.588 289.446 243.704 289.784 243.869 289.811C243.931 289.821 244.577 289.907 244.572 289.904C245.244 290.375 245.106 290.435 244.529 291.001C244.735 291.326 245.596 290.762 245.829 290.668C245.878 290.795 245.891 291.256 245.982 291.339C246.038 291.475 246.094 291.611 246.15 291.748C246.322 291.619 246.506 291.576 246.703 291.619C246.828 291.662 247.799 292.059 247.865 291.923C247.653 291.854 247.46 291.749 247.288 291.606C247.848 291.101 248.217 290.832 248.734 291.562C248.799 291.654 248.575 291.984 248.642 292.104C248.888 292.55 249.396 292.905 249.74 293.268C249.883 292.767 249.551 291.51 250.343 291.556C250.975 291.592 251.456 293.128 251.237 293.605C251.489 293.33 252.99 293.056 253.273 293.142C254.075 293.385 253.85 294.128 254.836 293.04C255.508 293.505 254.916 293.681 255.037 294.248C255.214 294.285 255.382 294.241 255.541 294.116C255.422 296.524 257.196 294.684 258.347 295.052C258.799 295.196 258.915 295.71 259.4 295.861C259.656 295.94 259.942 295.752 260.192 295.798C260.392 295.769 260.59 295.734 260.788 295.692C261.038 295.566 261.155 295.707 261.14 296.114C261.542 296.323 261.39 296.404 261.861 296.445C262.164 296.471 262.442 296.155 262.787 296.209C263.381 296.303 263.302 296.76 263.682 296.998C264.023 297.213 264.408 297.206 264.829 297.165C265.044 297.144 265.645 296.867 265.718 296.866C266.167 296.86 265.924 296.764 266.463 297.151C266.883 297.452 267.06 297.648 267.575 297.787C268.167 297.946 269.216 298.293 269.614 297.865C270.152 298.672 270.573 298.08 271.282 298.133C271.646 298.161 271.703 298.302 272.026 298.359C272.55 298.451 273.204 298.371 273.761 298.55C274.639 298.833 274.738 298.975 275.635 299.013C275.797 298.95 275.959 298.886 276.12 298.823C276.169 299.094 276.296 299.315 276.502 299.486C277.004 299.591 277.334 299.337 277.748 299.059C278.056 300.022 279.057 300.106 279.913 300.233C281.295 300.437 282.616 300.549 283.948 301.004C285.073 301.388 286.2 301.819 287.282 302.311C288.235 302.744 289.134 303.392 290.211 303.088C292.653 302.399 295.019 299.887 297.061 298.445C299.481 296.737 302.09 295.33 304.618 293.794C314.682 287.681 325.314 282.51 335.237 276.169C340.654 272.707 345.681 268.594 351.499 265.794C350.67 269.223 349.261 272.705 349.515 276.296C349.618 277.743 350.043 279.452 351.163 280.462C352.547 281.711 354.09 280.916 355.414 280.024C358.251 278.112 360.143 275.323 362.266 272.703C364.778 269.604 366.726 266.275 368.571 262.744C369.012 263.365 368.676 264.407 368.683 265.096C368.691 265.975 368.928 266.823 369.335 267.608C370.386 269.634 372.385 270.126 374.191 268.737C377.668 266.065 379.686 261.307 381.549 257.475C382.611 259.456 384.119 261.949 386.671 260.534C388.776 259.367 390.013 256.758 390.657 254.549C392.537 248.1 391.942 241.53 392.23 234.919Z" fill="black"/>
<path fill-rule="evenodd" clip-rule="evenodd" d="M389.037 196.18C388.797 195.596 388.692 195.691 389.133 195.125C389.478 195.464 389.202 195.745 389.037 196.18ZM399.678 231.553C399.003 229.63 399.42 227.541 399.01 225.568C398.821 224.662 398.524 223.784 398.417 222.863C398.37 222.454 398.006 220.613 398.254 220.323C397.492 219.861 397.49 219.519 397.314 218.612C397.585 218.324 397.551 218.078 397.211 217.873C396.989 217.604 396.767 217.335 396.545 217.065C397.516 217.541 396.941 216.323 396.842 215.621C396.764 215.066 396.711 214.487 396.527 213.955C396.299 213.301 395.794 212.971 396.845 212.971C396.499 212.576 395.982 212.169 395.81 211.687C395.562 210.992 395.971 210.074 395.465 209.46C395.183 209.118 393.731 208.984 393.986 208.244C394.115 207.868 394.704 208.149 394.886 207.885C395.602 206.847 393.488 206.418 393.385 205.976C393.25 205.404 394.014 205.276 394.061 204.741C394.107 204.218 393.294 203.357 393.08 202.889C392.787 202.96 392.466 203.424 392.131 203.202C392.068 203.161 392.163 201.348 392.087 201.107C392.013 200.871 391.859 200.243 391.805 200.127C391.588 199.666 390.968 199.441 390.869 198.896C390.81 198.571 392.082 198.079 390.624 198.063C391.147 197.139 390.188 196.577 389.839 195.786C389.39 194.77 389.125 193.672 388.664 192.651C388.216 191.658 387.714 190.716 387.068 189.838C386.483 189.043 386.23 188.278 385.762 187.439C385.669 187.365 385.575 187.291 385.482 187.218C385.092 187.274 384.967 187.096 385.106 186.684C384.808 186.241 384.586 185.768 384.323 185.306C384.017 184.768 383.605 184.33 383.289 183.807C382.87 183.114 382.746 182.333 382.272 181.638C381.69 180.783 381.035 180.029 380.495 179.141C379.819 178.03 379.07 177.339 378.218 176.478C377.813 176.068 377.764 175.045 377.268 174.463C376.727 173.829 376.194 173.657 375.819 172.825C375.331 171.742 374.616 171.225 373.919 170.29C373.345 169.518 373.064 168.63 372.431 167.884C371.887 167.242 371.269 166.656 370.688 166.048C369.955 165.28 369.413 164.347 368.65 163.617C368.76 163.722 367.985 163.107 368.024 163.127C367.853 163.039 367.299 162.969 367.38 163.017C366.228 162.338 364.784 159.853 363.05 161.17C362.137 161.862 362.575 163.132 363.212 163.821C363.485 164.118 364.907 165.578 365.214 164.962C365.545 165.433 366.566 167.709 367.415 167.057C367.329 167.834 367.778 167.576 368.075 168.102C368.27 168.449 368.175 168.619 368.317 169.161C368.709 170.649 370.203 172.103 370.999 173.401C372.979 176.631 375.164 179.695 377.147 182.93C379.036 186.012 381.152 188.937 382.964 192.061C385.026 195.613 387.594 198.966 389.147 202.796C389.2 202.925 389.631 203.128 389.738 203.322C389.925 203.657 389.885 204.238 390.005 204.619C390.422 205.938 391.097 207.236 391.867 208.328C392.542 209.287 392.591 210.589 393.056 211.714C393.711 213.298 394.403 214.867 395.04 216.459C396.03 218.938 396.702 221.314 397.386 223.902C397.83 225.579 398.183 227.256 398.324 228.987C398.454 230.58 398.486 232.239 399.074 233.747C399.476 233.126 399.948 232.322 399.678 231.553Z" fill="black"/>
<path fill-rule="evenodd" clip-rule="evenodd" d="M173.028 265.681C172.316 265.537 171.646 265.345 171.495 264.525C171.392 264.912 171.289 265.298 171.186 265.684C172.053 265.881 172.92 266.078 173.787 266.274C173.584 265.917 173.436 265.764 173.028 265.681Z" fill="black"/>
<path fill-rule="evenodd" clip-rule="evenodd" d="M174.939 131.228C174.993 130.997 175.063 130.771 175.149 130.55C175.207 130.765 175.494 131.231 175.327 131.434C175.115 131.692 174.899 131.546 174.939 131.228ZM178.429 124.573C178.663 124.676 179.169 124.696 179.459 124.784C178.706 125.432 178.574 125.241 177.601 125.166C177.558 124.51 177.824 124.306 178.429 124.573ZM171.907 140.822C172.008 140.825 172.109 140.827 172.21 140.83C172.216 140.544 172.209 140.258 172.188 139.973C173.214 140.198 172.633 138.401 172.311 138.029C173.311 138.062 173.799 134.887 174.116 134.275C174.398 133.732 174.717 133.521 174.922 132.859C175.102 132.279 175.297 131.757 175.557 131.209C176.153 129.948 176.936 128.802 176.792 127.333C177.297 128.435 177.742 127.334 178.063 126.807C178.58 125.957 179.84 124.873 179.974 123.864C180.093 122.976 179.434 122.929 179.823 122.105C180.216 121.271 180.539 121.354 181.228 121.088C181.686 120.91 181.777 121.126 182.1 120.546C182.31 120.171 182.236 119.891 182.504 119.584C182.615 119.68 182.741 119.72 182.882 119.704C183.099 119.416 183.242 119.095 183.31 118.741C183.488 118.264 183.574 117.825 183.841 117.37C184.094 116.94 184.545 115.787 184.783 115.579C185.036 115.359 186.473 115.471 186.467 115.479C187.06 114.731 185.971 113.986 187.479 114.143C187.181 113.588 188.227 112.898 188.531 112.589C189.289 111.817 189.35 111.46 189.51 110.49C189.591 109.995 189.061 110.052 189.772 109.939C190.066 109.893 190.348 110.27 190.56 110.215C191.497 109.971 190.517 110.018 190.775 109.635C190.857 109.514 191.274 109.024 191.27 109.029C191.249 109.054 191.363 108.603 191.458 108.487C191.637 108.472 191.813 108.44 191.986 108.393C192.075 108.215 192.152 108.032 192.22 107.845C192.898 107.279 193.912 107.025 194.381 106.403C194.684 106 194.594 105.606 194.985 105.204C195.359 104.822 195.852 105.099 195.926 104.236C196.02 103.137 194.843 102.648 194.361 103.757C193.055 102.144 187.595 108.06 186.964 108.833C184.224 112.188 181.531 115.626 179.284 119.336C177.094 122.951 175.297 126.754 173.892 130.742C173.215 132.664 172.802 134.578 172.389 136.566C172.25 137.232 171.212 140.2 171.644 140.864C171.731 140.85 171.819 140.836 171.907 140.822Z" fill="black"/>
<path fill-rule="evenodd" clip-rule="evenodd" d="M387.569 223.096C388.03 222.787 388.03 222.787 388.111 222.204C387.492 222.317 387.492 222.317 387.569 223.096Z" fill="black"/>
<path fill-rule="evenodd" clip-rule="evenodd" d="M160.092 262.315C160.098 262.314 160.102 262.315 160.105 262.319C160.095 262.306 160.059 262.268 160.092 262.315Z" fill="black"/>
<path fill-rule="evenodd" clip-rule="evenodd" d="M159.782 262.627C159.924 262.936 160.153 263.013 160.469 262.857C160.594 263.035 159.389 261.745 159.782 262.627Z" fill="black"/>
<path fill-rule="evenodd" clip-rule="evenodd" d="M180.61 121.674C179.888 123.094 180.793 122.061 180.747 122.522C180.777 122.219 180.902 121.788 180.61 121.674Z" fill="black"/>
<path fill-rule="evenodd" clip-rule="evenodd" d="M298.112 143.651C298.425 146.198 301.902 144.993 302.683 143.453C303.253 142.332 304.691 137.901 303.144 136.965C301.997 136.271 301.752 139.262 301.469 139.93C300.995 141.049 300.625 140.256 299.572 140.543C298.41 140.86 297.983 142.596 298.112 143.651Z" fill="black"/>
<path fill-rule="evenodd" clip-rule="evenodd" d="M294.315 138.991C295.557 139.267 296.775 139.125 297.658 138.142C298.146 137.597 298.797 136.517 297.917 135.99C297.119 135.513 296.215 136.63 295.375 136.399C294.233 136.085 294.821 134.858 294.429 134.047C292.989 134.878 292.186 138.517 294.315 138.991Z" fill="black"/>
<path fill-rule="evenodd" clip-rule="evenodd" d="M295.603 145.421C294.405 145.418 294.395 146.895 295.021 147.527C295.619 148.133 297.132 148.746 297.943 148.275C299.543 147.345 296.572 145.517 295.603 145.421Z" fill="black"/>
<path fill-rule="evenodd" clip-rule="evenodd" d="M225.913 204.125C226.169 204.25 226.922 204.89 227.24 204.601C226.792 204.148 226.343 203.696 225.895 203.243C225.647 203.515 225.477 203.913 225.913 204.125Z" fill="black"/>
<path fill-rule="evenodd" clip-rule="evenodd" d="M220.253 139.359C220.125 139.455 219.998 139.55 219.871 139.645C220.3 140.003 220.289 140.11 220.722 139.77C220.594 139.601 220.438 139.464 220.253 139.359Z" fill="black"/>
<path fill-rule="evenodd" clip-rule="evenodd" d="M301.43 223.839C301.189 223.406 300.734 224.205 300.427 224.335C299.926 224.546 299.516 223.427 299.659 224.768C298.528 224.249 297.841 225.44 297.112 226.06C296.081 226.936 294.821 227.412 294.133 228.656C297.369 229.415 300.925 226.619 303.337 224.783C303.731 224.483 305.699 222.97 304.365 222.824C303.82 222.764 301.834 224.567 301.43 223.839Z" fill="black"/>
<path fill-rule="evenodd" clip-rule="evenodd" d="M300.47 221.214C301.104 220.714 299.737 220.668 299.521 220.615C299.539 221.013 299.557 221.411 299.576 221.809C299.882 221.623 300.18 221.424 300.47 221.214Z" fill="black"/>
<path fill-rule="evenodd" clip-rule="evenodd" d="M298.089 222.882C298.278 222.763 298.806 222.393 298.447 222.117C298.122 222.324 297.89 222.662 297.839 223.048C297.922 222.993 298.005 222.937 298.089 222.882Z" fill="black"/>
<path fill-rule="evenodd" clip-rule="evenodd" d="M245.68 190.614C245.275 190.773 245.093 191.025 245.136 191.37C245.758 191.242 245.64 190.653 245.68 190.614Z" fill="black"/>
</svg>
