<svg width="690" height="422" viewBox="0 0 690 422" fill="none" xmlns="http://www.w3.org/2000/svg">
<g clip-path="url(#clip0_1312_1715)">
<g clip-path="url(#clip1_1312_1715)">
<path d="M690 1H0V423H690V1Z" fill="#FDF074"/>
<path d="M589.402 64.2407C613.403 98.5631 576.666 174.442 533.583 225.047C490.501 275.651 441.249 300.917 402.126 331.213C363.075 361.387 334.328 396.527 311.733 390.031C289.209 383.412 272.662 335.219 223.545 324.708C174.252 314.259 92.3564 341.307 77.4516 325.335C62.4428 309.302 114.425 250.247 126.607 179.673C138.788 109.1 110.994 27.0717 132.979 24.5379C154.859 21.9441 226.622 98.9051 278.817 115.614C330.909 132.264 363.361 88.7839 422.062 63.2426C480.659 37.6412 565.435 30.1011 589.402 64.2407Z" fill="white"/>
<path fill-rule="evenodd" clip-rule="evenodd" d="M407.851 173.322C404.652 179.576 401.273 185.664 397.861 191.804C396.054 195.055 390.228 208.499 388.724 209.012C387.103 209.565 377.178 203.729 374.33 202.585C369.268 200.553 364.458 198.63 359.17 197.377C353.25 195.974 347.282 194.939 341.14 195.461C338.451 195.69 333.999 196.34 336.672 192.561C338.621 189.806 340.508 187.268 343.155 185.278C345.082 183.829 347.906 181.171 350.161 180.203C352.528 179.187 356.018 179.412 358.561 179.472C361.311 179.537 374.416 183.626 375.137 179.364C376.473 180.58 377.252 180.11 378.783 180.704C380.51 181.373 381.586 182.673 383.3 183.458C384.412 183.967 386.462 185.981 387.699 185.993C389.342 186.009 389.785 184.648 390.965 183.644C393.609 181.392 397.13 179.91 400 177.955C402.526 176.232 404.932 174.436 407.851 173.322ZM379.06 123.888C378.835 126.743 379.606 129.395 379.587 132.333C379.579 133.615 379.521 134.896 379.91 136.132C380.26 137.239 380.016 139.228 380.201 140.387C376.931 139.391 370.855 137.915 367.516 139.257C364.324 140.541 363.923 146.476 363.81 149.363C363.733 151.33 364.607 154.361 363.945 156.245C363.636 157.123 363.633 157.407 363.653 157.486L363.655 157.494C363.592 157.462 363.336 157.462 362.432 158.115C361.536 158.761 360.466 159.117 359.581 159.83C357.97 161.13 357.694 162.602 356.899 164.485C356.127 166.314 354.071 167.94 351.775 167.873C353.62 164.529 356.183 161.405 354.712 157.477C353.603 154.511 355.547 151.032 357.077 148.215C357.583 147.282 363.198 140.136 360.71 139.632C359.095 139.304 355.387 146.891 354.677 148.215C352.699 146.878 351.81 145.229 353.333 143.214C354.502 141.667 355.939 140.344 357.077 138.742C358.925 136.142 360.727 133.038 362.922 130.728C366.778 126.673 373.508 123.912 379.06 123.888ZM363.655 157.494C363.677 157.509 363.668 157.523 363.658 157.502L363.655 157.494ZM430.876 119.457C433.34 121.817 436.456 123.775 438.837 126.252C440.921 128.42 443.728 132.068 444.718 134.965C439.637 135.944 431.197 138.943 429.174 144.274C421.273 137.021 418.216 150.281 416.649 155.826C412.025 153.825 412.947 147.164 413.008 143.274C413.056 140.189 414.935 136.538 410.455 136.285C407.107 136.097 403.856 137.46 400.837 138.737C397.07 140.33 393.118 142.713 390.075 145.45L386.904 142.982C392.105 140.062 394.816 134.478 397.861 129.366C398.832 127.736 400.129 125.924 400.837 124.162C401.327 122.944 401.672 120.485 402.209 119.402C403.054 117.699 411.306 117.23 413.492 116.791C419.262 115.633 426.16 114.939 430.876 119.457Z" fill="#FF5678"/>
<path fill-rule="evenodd" clip-rule="evenodd" d="M429.561 157.298C431.693 157.189 433.815 157.665 435.947 157.457C434.096 155.845 432.245 154.233 430.394 152.622C429.577 154.058 429.517 155.691 429.561 157.298ZM378.988 124.16C373.471 124.185 366.74 126.956 362.907 131.003C360.877 133.148 359.199 136.029 357.481 138.439C356.329 140.056 355.205 141.616 353.806 143.037C351.767 145.108 352.351 145.581 354.648 147.141C355.375 145.778 359.23 138.494 360.846 138.822C363.301 139.32 358.56 147.014 358.042 147.973C356.508 150.809 354.031 154.771 355.144 157.762C356.612 161.71 354.483 163.96 352.635 167.325C354.576 167.381 354.767 166.624 355.436 164.968C356.296 162.84 357.234 161.062 359.051 159.59C360.458 158.451 362.76 157.971 363.421 156.596C364.239 154.895 363.726 151.537 363.792 149.645C363.893 146.771 363.9 139.975 367.068 138.698C370.386 137.36 376.354 138.621 379.598 139.612C379.193 137.079 377.915 135.424 377.933 132.609C377.952 129.662 378.763 127.033 378.988 124.16ZM336.601 171.172C339.488 170.258 342.224 169.295 345.193 168.673C348.301 168.021 348.508 167.275 350.26 164.61C351.588 162.591 353.199 161.016 352.823 158.542C352.581 156.955 351.713 156.182 351.974 154.398C352.136 153.292 352.652 152.084 353.025 151.032C353.482 149.742 354.43 148.278 352.226 148.215C351.009 148.179 350.95 148.821 350.126 149.899C348.606 151.891 346.857 153.699 345.239 155.609C342.43 158.924 339.451 162.453 336.315 165.522C332.863 168.899 329.884 172.972 327.653 177.296C327.241 178.094 324.735 182.797 325.804 183.719C326.785 184.566 332.245 182.591 333.241 182.359C337.538 181.362 342.416 181.006 346.476 179.194C348.544 178.271 353.109 177.169 354.743 175.741C356.262 174.413 356.194 171.197 355.312 169.325C352.845 170.86 335.011 176.65 336.601 171.172ZM390.293 144.78C393.173 142.179 396.577 140.092 400.133 138.546C403.313 137.163 407.264 135.622 410.803 135.862C415.212 136.16 413.369 139.712 413.353 142.736C413.333 146.748 411.574 152.529 416.366 154.611C417.93 149.055 421.226 135.916 429.124 143.197C431.143 137.854 438.341 136.046 443.41 135.065C442.491 132.366 439.7 129.923 437.766 127.896C435.346 125.362 433.436 122.392 431.012 119.905C426.223 114.995 417.547 116.572 411.484 117.796C409.46 118.204 403.593 118.717 402.612 120.204C401.997 121.136 402.341 123.413 401.885 124.553C401.257 126.123 400.184 127.579 399.323 129.029C396.183 134.322 392.988 139.648 387.613 142.679L390.293 144.78ZM407.868 173.292C405.025 174.384 402.933 176.208 400.411 177.744C397.353 179.607 393.767 181.352 391.023 183.653C390.018 184.495 389.454 185.948 388.068 186.042C386.862 186.125 385.025 184.724 383.956 184.234C382.163 183.411 380.45 182.164 378.649 181.43C377.168 180.827 376.512 180.951 375.231 179.778C374.512 184.056 361.437 180.057 358.695 179.992C356.157 179.932 352.676 180.233 350.314 181.252C348.064 182.224 346.305 184.363 344.379 185.82C341.738 187.818 339.219 189.839 337.275 192.605C334.608 196.398 338.631 195.324 341.315 195.095C347.44 194.572 353.397 196.031 359.302 197.438C364.58 198.697 369.792 200.206 374.844 202.246C377.686 203.394 380.676 204.449 383.348 205.94C384.757 206.727 387.042 208.653 388.659 208.098C390.141 207.589 391.619 203.339 392.517 201.642C394.263 198.347 396.099 195.107 397.901 191.845C401.306 185.682 404.677 179.57 407.868 173.292ZM372.877 254.861C374.63 253.854 377.486 254.125 379.424 253.704C381.614 253.227 383.816 252.451 385.904 251.641C388.018 250.822 390.016 249.983 391.948 248.958C392.831 248.489 394.009 248.027 394.826 247.377C395.484 246.852 395.723 245.878 396.33 245.402C397.913 244.161 398.378 244.94 398.591 242.545C398.821 239.944 397.361 238.471 395.545 236.524C393.918 234.782 391.806 233.276 389.762 232.051C388.858 231.509 387.892 230.899 386.969 230.382C385.574 229.598 383.703 228.296 382.971 229.977C384.496 230.366 384.832 232.315 383.456 233.015C382.7 233.399 381.555 232.834 380.703 233.243C379.387 233.874 378.121 235.635 376.994 236.583C373.297 239.696 369.76 240.863 364.921 241.113C354.808 241.634 344.218 240.481 334.3 238.982C331.747 238.596 329.198 239.014 326.622 238.922C324.115 238.833 321.501 238.284 319.037 237.861C314.291 237.046 309.288 236.375 304.615 235.175C298.964 233.724 293.293 231.847 287.987 229.416C282.898 227.084 277.145 223.231 271.429 222.934C273.868 225.323 277.524 226.243 280.458 227.816C282.856 229.101 286.606 229.926 288.122 232.044C289.108 233.422 289.603 235.954 290.348 237.57C291.172 239.359 291.932 241.176 292.695 242.991C293.461 244.818 294.259 246.645 294.881 248.526C295.267 249.693 295.432 252.113 296.342 252.911C297.794 254.185 302.652 254.75 304.608 255.173C308.261 255.965 312.427 255.86 316.152 255.914C317.692 255.937 319.243 256.147 320.714 256.176C322.78 256.215 322.583 255.858 322.554 254.064C322.537 252.987 322.558 251.029 323.999 251.915C324.98 252.52 324.305 255.197 324.123 256.148C332.346 256.967 340.925 257.379 349.109 257.105C357.158 256.836 364.927 255.798 372.877 254.861ZM410.013 235.985C411.464 225.566 413.232 214.973 415.211 204.689C417.211 194.297 419.615 183.999 422.32 173.646C420.534 173.218 418.747 172.791 416.96 172.364C416.894 174.546 416.156 176.441 415.842 178.612C415.408 181.609 414.578 184.52 414.081 187.507C413.137 193.186 411.389 198.742 409.848 204.279C408.278 209.925 407.753 215.74 406.311 221.414C405.122 226.088 404.514 231.237 403.85 236.042C402.24 247.7 399.945 259.38 398.198 271.044C396.56 281.979 396.396 293.136 396.49 304.174C396.548 310.912 397.576 317.632 397.522 324.379C397.509 326.047 397.649 327.71 397.736 329.375C397.797 330.55 397.166 333.807 397.701 334.791C398.04 335.414 399.496 335.989 400.011 336.854C400.826 338.223 400.998 339.86 402.307 340.896C403.368 336.615 402.867 330.966 402.635 326.598C402.41 322.39 402.846 318.04 402.932 313.766C403.099 305.384 403.544 297.123 403.974 288.736C404.445 279.539 405.784 270.117 407.093 260.988C408.283 252.688 409.077 244.24 410.013 235.985ZM371.177 105.323C370.602 105.269 370.026 105.216 369.451 105.162C369.537 106.374 369.281 108.338 370.135 108.97C370.783 109.45 372.094 109.292 372.879 109.445C375.453 109.948 378.435 110.369 380.989 109.453C381.982 109.097 381.344 108.539 382.711 108.771C384.357 109.05 383.756 109.311 384.231 110.338C384.597 111.131 384.786 112.479 385.202 113.431C385.758 114.705 386.886 116.983 386.404 118.454C385.935 119.883 384.187 120.315 383.444 121.934C382.891 123.138 383.022 124.887 382.735 126.213C382.352 127.981 381.868 129.742 381.654 131.543C381.385 133.811 381.477 136.473 384.288 136.825C386.896 137.152 388.761 136.313 390.511 134.413C393.851 130.787 397.666 125.667 399.628 121.105C399.858 120.572 400.422 119.683 400.343 119.112C400.188 117.984 400.12 119.126 399.762 118.342C399.421 117.593 398.885 116.913 398.57 116.081C397.437 113.094 396.633 109.962 396.179 106.799C395.973 105.367 395.904 103.952 395.939 102.505C395.951 102.011 396.248 100.528 396.071 100.19C395.89 99.8469 394.95 99.6889 394.657 99.3486C394.114 98.7182 393.181 96.9381 392.58 96.4662C391.839 95.8863 390.183 96.3456 389.882 95.1922C389.401 93.3462 400.785 90.3395 395.467 87.8763C391.496 86.0372 385.406 95.3339 384.018 88.0185C383.777 86.7513 384.236 85.0312 383.68 83.87C383.065 82.5865 381.393 82.1067 380.225 81.4821C378.734 80.6857 377.229 79.8673 375.78 78.9951C374.787 78.3974 373.355 76.81 372.298 76.6647C372.714 78.8192 371.916 80.9549 371.903 83.1052C374.193 82.4854 375.77 82.4722 378.031 83.5745C379.108 84.0991 383.164 87.0763 381.109 88.5083C379.444 87.524 377.662 86.6702 375.806 86.0914C375.074 85.8629 374.16 85.5521 373.381 85.5363C371.573 85.5 371.828 85.6891 371.149 87.0521C370.495 88.365 370.635 91.7894 369.199 92.6279C367.714 93.4947 368.859 92.2813 367.591 92.5615C366.868 92.7216 366.08 93.2593 365.417 93.5632C366.325 94.5481 368.156 95.4471 368.758 96.541C369.635 98.1357 369.331 101.434 369.468 103.179C370.618 102.768 371.827 102.751 372.992 102.445C374.087 102.158 375.605 100.913 375.72 102.743C375.847 104.782 372.624 105.323 371.177 105.323ZM386.133 158.999C386.223 157.238 386.321 155.476 386.517 153.722C386.649 152.544 387.768 149.127 387.135 148.092C386.448 146.966 384.143 146.895 383.034 146.625C380.908 146.106 378.869 145.682 376.709 145.34C374.721 145.025 372.849 144.959 370.846 144.868C368.666 144.769 368.125 144.19 367.643 146.594C367.264 148.483 366.756 150.451 366.685 152.386C366.619 154.202 367.167 155.779 365.367 157.003C369.319 157.003 374.466 153.484 378.073 156.63C383.231 161.13 374.254 162.426 371.887 163.419C373.855 164.375 376.776 165.126 377.702 167.311C378.742 169.759 377.233 170.801 374.925 170.997C375.142 171.94 375.973 172.553 376.221 173.688C376.583 175.352 375.407 174.801 376.908 176.088C378.884 177.783 382.951 178.916 385.374 179.995C385.942 180.249 386.516 180.487 387.096 180.709C388.004 181.517 388.674 181.363 389.107 180.247C390.35 179.461 391.457 177.705 392.56 176.684C395.013 174.412 397.72 172.418 400.635 170.778C399.427 170.277 397.981 171.408 396.822 170.858C395.885 170.413 396.238 169.603 395.676 168.997C395.901 168.206 395.664 167.917 394.964 168.129C394.614 168.167 394.288 168.107 393.987 167.952C393.4 167.225 393.137 166.987 393.098 165.865C393.057 164.674 393.747 164.254 394.011 163.3C394.871 162.714 394.852 162.138 393.953 161.574C393.583 160.969 393.381 160.313 393.348 159.606C393.176 156.979 395.574 155.921 397.402 154.532C394.129 154.172 394.253 150.332 396.518 148.654C398.866 146.914 403.837 147.626 406.676 148.019C407.266 148.1 408.861 148.861 409.458 148.376C409.824 148.078 409.566 145.562 409.583 145.118C409.621 144.11 409.866 142.909 409.705 141.906C409.369 139.806 410.082 140.864 408.57 140.805C404.973 140.665 400.391 143.806 397.227 145.286C393.684 146.944 391.407 147.199 391.37 151.308C391.335 155.199 390.244 159.076 389.768 162.904C389.56 164.577 389.411 173.264 386.35 170.058C385.164 168.815 385.924 166.902 386.012 165.369C386.132 163.258 386.061 161.115 386.133 158.999ZM188.23 289.244C189.982 289.555 192.834 288.55 194.744 288.444C198.085 288.261 201.526 287.943 204.799 287.247C207.359 286.703 210.277 286.225 211.658 283.746C212.892 281.531 213.329 278.757 213.994 276.34C214.347 275.056 215.257 273.195 215.257 271.867C215.257 270.141 215.025 270.481 213.224 269.536C210.946 268.341 208.729 266.675 206.271 265.996C205.527 265.851 204.783 265.709 204.039 265.569C203.076 265.01 202.532 265.285 202.406 266.392C201.466 267.384 200.915 269.211 200.126 270.37C198.328 273.013 196.193 274.814 193.403 276.338C188.383 279.08 183.705 281.196 178.329 282.989C175.366 283.977 172.633 285.363 169.737 286.452C167.417 287.325 164.215 287.59 162.432 289.533C160.421 291.724 163.512 292.521 165.23 294.002C166.638 295.216 166.666 295.495 168.591 294.906C170.026 294.466 171.298 293.627 172.675 293.058C177.395 291.108 183.106 289.811 188.23 289.244ZM296.083 324.004C294.324 323.624 292.565 323.243 290.806 322.864C292.536 326.093 296.174 330.817 293.563 334.554C292.587 335.951 290.964 336.349 289.514 337.057C287.759 337.915 286.139 339.013 284.479 340.034C277.638 344.247 270.686 348.518 263.477 352.133C265.733 352.861 269.203 353.365 271.527 352.731C274.234 351.991 276.74 350.294 279.518 349.552C284.503 348.222 289.75 347.089 294.814 346.407C298.954 345.849 309.316 347.109 308.813 340.883C308.335 334.973 304.804 329.334 303.754 323.49C301.176 324.063 298.716 323.963 296.083 324.004ZM400.917 229.4C402.922 219.56 404.12 209.554 406.484 199.786C407.664 194.912 408.495 189.972 409.647 185.098C410.184 182.83 410.589 180.54 411.111 178.277C411.64 175.985 412.778 173.87 413.038 171.501C411.123 171.975 410.68 176.363 410.099 178.013C409.034 181.042 407.872 183.952 406.503 186.851C404.327 191.459 402.018 195.905 399.564 200.373C396.976 205.086 394.242 209.617 391.008 213.921C389.946 215.335 388.505 216.443 387.82 217.994C386.743 220.434 386.29 223.342 385.262 225.881C385.986 226.249 387.857 226.341 388.746 226.516C390.398 226.842 391.555 227.132 393.142 227.917C395.938 229.302 398.287 230.942 400.154 233.432C400.624 232.154 400.746 230.753 400.917 229.4ZM322.996 304.47C322.963 294.994 322.829 285.437 322.984 276.031C323.027 273.42 323.24 270.602 323.618 268.01C323.856 266.381 325.255 262.919 324.335 262.138C323.549 261.47 319.4 261.909 318.381 261.886C316.406 261.84 314.437 261.752 312.458 261.604C312.458 265.115 313.83 269.103 314.468 272.577C315.062 275.818 315.55 279.076 316.041 282.331C317.103 289.381 317.404 296.528 318.557 303.596C319.602 310.005 320.979 316.387 321.739 322.795C322.156 326.313 322.999 329.631 323.655 333.147C323.997 334.98 325.245 342.53 326.817 343.273C327.15 340.564 325.792 337.294 325.549 334.555C325.298 331.727 325.104 328.881 324.645 326.038C324.107 322.701 323.835 319.282 323.628 315.904C323.502 313.837 323.464 311.776 323.285 309.71C323.156 308.211 322.589 305.94 322.996 304.47ZM372.378 177.757C372.444 176.726 369.773 176.767 369.276 175.581C368.267 173.173 370.566 173.606 371.981 173.357C371.476 172.018 362.035 172.506 364.235 168.89C365.761 166.381 371.547 170.221 373.093 167.837C374.11 166.271 371.344 166.056 370.247 165.899C368.596 165.663 364.707 166.427 364.835 164.285C364.996 161.594 372.556 159.736 374.677 158.945C374.442 157.103 365.343 159.722 364.026 160.469C361.046 162.16 358.763 165.194 358.325 168.566C357.816 172.489 359.805 175.578 363.724 176.541C365.357 176.942 366.565 176.987 368.076 177.59C369.071 177.987 372.29 178.977 372.972 177.975C372.774 177.903 372.576 177.83 372.378 177.757ZM425.793 153.357C425.944 151.681 427.354 148.528 425.73 147.427C423.456 145.886 422.514 148.425 421.998 149.95C421.368 151.811 418.72 156.369 421.036 157.529C421.574 157.798 424.127 157.485 424.578 157.307C425.832 157.634 426.237 157.164 425.793 155.896V153.357ZM370.301 288.647C370.159 284.068 372.209 278.563 373.37 274.079C374.688 268.997 375.382 263.815 376.777 258.79C375.225 258.976 373.658 259.129 372.124 259.44C370.032 259.866 369.995 259.799 370.145 261.851C370.369 264.933 370.075 267.955 369.916 271.036C369.598 277.205 370.374 283.475 369.858 289.605C370.318 289.722 370.466 289.402 370.301 288.647ZM428.231 168.646C433.257 169.415 438.075 171.009 442.649 173.15C445.171 174.33 447.948 175.599 450.766 176.07C453.896 176.594 457.216 176.348 460.413 176.55C461.54 176.621 464.503 177.169 465.602 176.506C466.69 175.849 466.605 174.736 466.656 173.41C466.788 169.998 465.244 166.656 463.855 163.595C462.663 160.968 461.763 158.963 459.914 156.703C457.54 153.802 455.472 150.67 453.249 147.641C451.572 145.358 449.878 143.108 448.17 140.827C446.948 139.195 447.005 138.633 445.163 138.815C443.349 138.995 441.522 140.068 439.814 140.636C437.277 141.48 434.206 141.943 431.893 143.291C430.398 144.164 430.331 144.324 430.349 145.846C430.365 147.264 430.822 148.993 431.67 150.102C433.432 152.405 436.352 153.624 438.859 154.772C440.308 155.436 441.561 156.379 442.852 157.295C444.243 158.283 447.048 158.865 448.112 159.991C451.21 163.27 445.571 162.622 443.995 162.523C440.595 162.309 437.213 162.342 433.787 162.339C430.048 162.337 426.339 162.163 422.652 162.285C420.493 162.356 418.016 161.261 416.617 159.435C415.94 158.551 415.676 157.715 414.79 156.798C413.629 155.596 412.62 154.331 411.208 153.401C408.898 151.88 404.7 151.02 401.949 151.587C402.934 151.725 407.566 153.302 405.527 155.284C405.279 155.525 402.299 155.683 401.652 155.98C400.483 156.517 399.01 157.297 398.324 158.43C400.32 158.096 407.722 157.709 403.946 161.538C403.019 162.478 400.358 163.416 402.623 164.416C403.143 164.646 404.184 164.321 404.853 164.528C405.849 164.836 406.662 165.66 407.595 166.099C410.24 167.347 413.885 168.116 416.645 167.843C420.462 167.464 424.439 168.146 428.231 168.646ZM327.015 284.032C327.145 289.533 326.947 295.066 327.064 300.592C327.189 306.494 327.947 312.278 328.307 318.12C328.631 323.357 329.339 328.493 329.913 333.704C330.243 336.706 330.624 339.576 331.132 342.555C331.608 345.343 331.689 347.799 328.356 348.548C321.985 349.982 320.995 340.816 319.764 336.954C317.926 331.19 316.747 325.139 315.836 319.164C314.141 308.036 311.886 297.063 311.006 285.841C310.465 278.931 309.679 272.091 309.233 265.187C309.146 263.834 309.491 261.749 308.303 261.147C307.588 260.785 305.62 260.782 304.718 260.52C302.205 259.789 299.887 258.712 297.435 257.595C299.175 266.695 299.75 275.749 301.055 284.928C301.748 289.799 303.073 294.846 304.222 299.64C305.412 304.608 305.676 309.957 307.049 314.816C307.654 316.958 308.166 317.831 307.289 320.029C306.212 322.728 306.926 323.373 308.276 326.024C310.76 330.899 312.656 336.654 312.235 342.151C311.892 346.64 308.5 348.99 304.298 350.201C299.042 351.716 293.538 351.537 288.251 353.257C283.644 354.755 278.963 355.862 274.49 357.84C272.686 358.638 270.972 359.584 268.968 359.731C266.221 359.93 264.369 358.336 261.774 358.004C260.152 357.797 257.778 358.57 256.844 356.87C256.103 355.523 256.941 352.582 257.871 351.497C260.483 348.448 265.713 345.791 269.235 343.992C273.295 341.919 277.222 339.323 280.984 336.647C283.263 335.025 285.588 333.468 287.867 331.843C289.374 330.767 289.946 330.76 289.792 329.051C289.67 327.688 289.055 326.366 288.948 324.97C288.866 323.901 289.24 322.444 288.735 321.746C288.364 321.231 286.968 320.869 286.42 320.479C284.414 319.057 283.958 317.298 283.047 315.135C280.978 310.222 278.601 305.447 276.603 300.495C272.314 289.862 269.696 278.682 266.14 267.832C262.506 256.747 259.258 245.11 257.257 233.61C254.579 234.425 252.052 238.031 249.92 239.814C247.039 242.225 244.088 244.557 241.263 247.034C236.632 251.094 231.943 255.043 228.117 259.906C226.273 262.248 224.764 264.769 223.095 267.229C222.13 268.651 221.232 270.26 220.187 271.612C220.02 271.829 220.015 272.275 219.834 272.46C219.437 272.866 218.677 272.325 218.422 272.592C216.849 274.238 216.87 278.909 216.379 281.08C215.704 284.072 214.945 287.512 212.609 289.574C209 292.759 202.346 293.252 197.779 293.418C191.918 293.63 186.232 295.263 180.672 297.017C178.078 297.835 175.552 298.792 172.949 299.587C171.452 300.044 169.743 300.956 168.144 300.78C166.216 300.569 164.693 298.947 163.281 297.741C161.021 295.811 158.929 293.91 159.002 290.744C159.083 287.394 160.898 284.865 163.758 283.2C169.286 279.983 175.468 277.92 181.427 275.697C183.71 274.844 185.665 273.901 187.848 272.753C190.933 271.131 194.484 269.807 197.221 267.665C198.028 267.033 200.994 265.097 201.247 264.099C201.28 263.969 200.539 262.444 200.536 262.202C200.528 261.58 200.897 260.907 201.123 260.374C202.549 257.023 204.94 253.795 206.769 250.635C210.117 244.846 213.478 239.026 217.36 233.581C225.1 222.726 233.796 212.098 243.181 202.622C247.756 198.002 251.71 192.763 256.349 188.207C258.188 186.403 260.128 184.933 262.393 183.762C264.918 182.456 267.752 182.2 270.646 181.802C277.659 180.836 283.516 182.911 290.1 184.716C296.324 186.423 302.556 187.862 308.815 189.639C315.689 191.591 322.492 193.464 329.345 195.591C333.006 196.727 336.773 197.425 340.451 198.516C342.223 199.04 348.919 202.329 350.396 201.249C345.744 199.066 340.978 197.076 336 195.758C334.535 195.371 333.598 195.8 333.653 194.117C333.683 193.199 334.714 191.959 335.086 191.204C335.975 189.395 336.982 187.627 337.852 185.812C334.697 186.708 326.215 189.809 323.838 186.603C321.349 183.248 323.427 176.669 324.986 173.384C329.057 164.808 335.981 157.651 342.728 151.186C344.187 149.788 347.333 147.963 348.111 146.183C348.347 145.641 347.833 144.846 348.366 144.143C348.684 143.725 349.958 143.439 350.468 142.988C352.323 141.346 353.803 137.89 355.084 135.737C356.427 133.483 357.637 131.041 359.324 129.018C362.083 125.71 364.932 122.204 369.4 121.43C371.591 121.051 373.919 121.253 376.019 120.496C378.559 119.581 380.973 118.139 383.537 117.191C382.901 115.883 382.385 113.802 381.151 113.66C379.962 113.522 378.219 114.543 376.858 114.536C374.872 114.525 373.176 114.207 371.258 113.829C369.136 113.409 368.437 113.485 367.663 111.183C366.852 108.772 367.056 105.971 367.063 103.466C367.066 102.242 367.309 100.723 367.205 99.5214C367.049 97.7112 366.697 97.6417 365.278 96.4904C363.505 95.0521 361.319 93.1487 363.491 90.6497C364.664 89.2993 367.076 90.3495 368.115 88.8985C369.174 87.4207 369.123 83.7083 369.445 81.9724C366.182 83.5766 367.378 77.5795 367.378 76.1364C367.377 74.0366 365.97 70.2604 367.996 68.5135C368.937 67.7024 369.637 68.3734 370.713 67.9073C371.941 67.3753 372.715 65.9802 374.021 65.4393C376.618 64.3639 379.27 65.6589 381.936 65.4451C384.995 65.2002 387.999 64.7273 391.074 65.2181C392.532 65.4499 393.145 66.0034 394.378 66.6238C395.563 67.2205 396.766 67.3838 398.054 67.7677C399.2 68.1095 400.204 68.2823 400.978 69.2808C401.591 70.0708 401.341 71.3996 401.959 72.0806C402.569 72.7515 403.775 72.6541 404.501 73.4509C405.199 74.2157 405.616 75.4797 405.979 76.4313C406.469 77.7132 406.526 78.1946 407.389 79.2206C408.141 80.1159 409.223 80.8358 409.851 81.857C411.329 84.2644 411.367 87.7457 410.895 90.4538C410.735 91.376 409.398 93.7597 409.607 94.5444C409.807 95.2912 411.06 95.0948 411.627 95.5672C412.118 95.9753 412.549 97.7939 412.936 97.905C413.772 98.1447 414.802 96.4946 415.436 96.2471C416.536 95.8168 416.996 95.3755 417.606 96.9971C418.057 98.2005 417.428 99.8337 417.097 100.982C416.675 102.444 416.21 104.205 415.093 105.31C413.78 106.61 412.729 105.9 411.28 106.6C409.108 107.649 409.749 110.929 407.077 111.866C404.532 112.76 401.726 109.949 399.801 108.657C400.2 111.794 401.701 114.816 400.98 118.03C406.836 115.736 412.627 112.48 419.009 111.763C422.263 111.397 425.55 110.963 428.621 112.314C432.217 113.895 434.42 117.383 436.853 120.28C441.427 125.727 446.12 131.02 450.51 136.642C454.536 141.798 457.931 147.773 462.363 152.602C466.856 157.498 470.248 165.442 469.756 172.223C469.711 172.835 469.237 174.225 469.311 174.885C469.369 175.391 469.829 176.032 469.822 176.439C469.797 177.811 469.343 178.601 468.035 179.362C465.768 180.683 462.39 181.351 459.828 181.678C456.424 182.114 452.255 182.161 448.849 181.696C445.336 181.215 442.249 179.249 439.019 178.061C436.185 177.019 433.34 176.368 430.362 175.702C428.72 175.335 426.902 174.319 425.887 175.303C424.955 176.206 424.762 180.843 424.545 182.076C422.189 195.44 419.39 208.35 416.91 221.646C414.1 236.716 412.179 251.78 410.225 266.978C408.449 280.793 407.868 294.764 407.471 308.567C407.281 315.151 407.254 321.664 407.294 328.253C407.317 331.943 409.161 344.26 403.691 344.732C400.477 345.01 397.905 340.401 397.044 337.888C395.75 334.112 395.076 330.045 394.869 326.078C394.452 318.048 393.905 310.011 393.581 301.978C393.23 293.274 393.676 284.41 394.391 275.734C395.112 267.001 396.926 258.396 397.483 249.649C395.813 252.032 395.279 252.48 392.498 253.517C389.588 254.604 386.789 255.889 383.852 256.901C382.854 257.246 381.295 257.462 380.476 258.026C378.965 259.067 379.957 257.886 379.475 259.911C378.959 262.075 378.863 264.673 378.726 266.897C378.082 277.333 375.191 287.694 373.858 298.075C373.536 300.581 373.995 311.221 369.682 307.868C366.36 305.286 366.426 297.174 365.953 293.375C365.324 288.311 365.675 283.104 365.774 278.009C365.887 272.206 365.985 266.12 367.369 260.454C364.892 260.03 361.446 261.185 358.953 261.379C356.794 261.547 354.642 261.654 352.495 261.772C347.375 262.053 342.101 262.278 336.894 262.177C335.947 262.159 329.754 261.292 328.963 261.991C328.706 262.218 328.627 265.34 328.579 265.721C328.397 267.156 328.15 268.589 327.966 270.015C327.378 274.576 326.846 279.473 327.015 284.032Z" fill="black"/>
<path fill-rule="evenodd" clip-rule="evenodd" d="M418.973 327.373C422.88 328.9 427.027 329.455 430.968 330.846C434.491 332.09 437.762 333.761 441.231 335.026C441.434 333.416 441.542 330.691 440.948 329.175C440.107 327.027 437.892 326.975 435.712 326.21C430.406 324.348 424.824 323.956 419.557 321.781C420.459 323.517 420.056 325.816 418.973 327.373ZM486.426 321.758C477.987 322.005 469.921 323.969 461.604 325.184C457.557 325.774 453.506 326.301 449.455 326.853C447.896 327.065 445.054 326.815 443.921 328.165C442.982 329.283 444.011 333.098 443.594 334.737C445.3 334.863 448.329 333.269 450.18 333.006C453.063 332.596 455.908 332.022 458.821 331.839C463.434 331.548 467.967 331.301 472.572 330.787C477.256 330.265 481.787 329.295 486.508 328.941C488.803 328.768 489.726 329.198 489.861 326.776C489.914 325.828 490.044 324.243 489.778 323.309C490.203 322.161 489.826 321.603 488.649 321.636C487.901 321.552 487.16 321.592 486.426 321.758ZM470.103 314.026C472.386 313.812 474.677 313.505 476.965 313.376C477.429 313.35 479.782 313.492 480.167 313.06C480.711 312.45 480.105 310.218 480.005 309.528C479.665 307.179 479.29 305.814 476.729 305.809C474.567 305.804 472.329 306.261 470.176 306.471C460.401 307.43 450.675 307.834 441.008 309.654C441.596 312.159 442.264 314.745 441.56 317.307C446.198 317.547 451.289 316.654 455.822 315.739C460.454 314.803 465.369 314.339 470.103 314.026ZM454.632 290.432C451.139 290.448 447.448 291.986 444.002 291.643C443.95 292.284 445.053 291.752 445.358 292.352C446.009 292.354 446.235 292.566 446.036 292.99C446.049 293.279 445.901 293.449 445.592 293.498C445.44 293.512 445.288 293.524 445.137 293.537C444.471 293.559 444.361 294.008 444.81 294.887C444.617 295.975 444.906 297.357 444.948 298.45C451.141 297.607 457.158 296.731 463.395 296.354C466.339 296.177 469.282 296.177 472.222 295.935C475.458 295.669 478.99 296.24 482.153 295.634C483.844 295.31 483.667 295.333 483.544 293.134C483.469 291.798 483.497 290.212 482.409 289.237C480.592 287.61 476.456 288.55 474.283 288.608C467.741 288.781 461.087 289.389 454.632 290.432ZM458.207 321.836C467.563 320.986 476.848 319.125 486.258 319.125C485.592 318.461 484.143 318.289 483.315 317.926C482.371 317.513 481.48 316.633 480.558 316.272C478.706 315.547 476.822 316.554 474.921 316.989C470.334 318.04 465.627 318.076 461.033 319.106C456.283 320.17 451.472 321.152 446.634 321.694C444.331 321.951 441.86 322.474 439.584 321.866C439.399 321.733 439.214 321.601 439.029 321.469C438.83 320.622 438.278 320.396 437.372 320.791C436.222 320.572 434.757 320.855 433.599 320.884C433.552 321.346 437.83 322.797 438.646 323.156C440.612 324.022 441.944 324.655 444.044 324.284C448.77 323.45 453.42 322.453 458.207 321.836ZM425.295 294.482C425.66 295.908 427.196 295.259 428.517 295.416C430.291 295.626 432.057 296.239 433.775 296.7C436.896 297.539 440.017 298.366 443.125 299.252C443.002 297.997 443.28 295.14 442.617 294.027C441.921 292.859 438.621 292.348 437.085 291.992C433.212 291.096 429.075 291.606 425.141 291.794C425.211 292.689 425.262 293.585 425.295 294.482ZM462.495 303.399C466.17 303.088 469.848 302.846 473.533 302.717C477.746 302.569 474.684 301.896 474.595 299.326C469.058 300.21 463.471 300.384 457.951 301.139C453.378 301.765 447.93 303.4 443.265 302.522C441.065 302.108 438.819 301.948 436.478 301.714C434.27 301.494 432.187 300.465 430.005 300.209C427.557 299.922 425.055 301.299 422.62 301.662C421.587 301.816 421.347 302.517 420.86 301.274C420.354 299.985 421.802 298.931 422.372 298.161C423.038 297.26 422.762 298.722 423.131 297.316C423.235 296.922 422.954 295.933 422.903 295.508C422.772 294.435 422.435 293.271 422.382 292.2C422.334 291.216 422.326 289.715 423.393 289.141C424.045 288.791 424.507 289.302 425.075 289.203C429.509 288.431 434.725 288.368 439.222 289.113C444.098 289.919 448.294 287.784 453.099 286.918C458.736 285.902 464.432 285.75 470.118 285.32C474.98 284.954 483.862 283.051 485.714 289.261C486.239 291.02 487.003 295.864 485.592 297.361C483.74 299.326 479.453 298.699 477.059 299.21C477.417 300.229 478.483 300.922 478.114 302.135C481.47 302.293 482.063 305.462 482.588 308.421C483.132 311.482 482.071 312.699 484.997 314.293C489.074 316.514 493.393 318.758 493.313 324.048C493.273 326.709 492.976 330.72 490.244 332.101C487.572 333.451 483.222 333.223 480.277 333.712C474.574 334.662 468.852 335.776 463.114 336.346C457.005 336.954 450.794 337.452 444.675 337.723C441.341 337.872 438.461 338.375 435.241 337.253C432.075 336.15 428.978 335.345 425.712 334.526C422.487 333.718 412.616 332.63 415.492 327.115C415.952 326.233 417.526 325.531 417.78 324.697C418.189 323.351 416.805 322.301 416.863 321.084C416.969 318.859 419.479 318.58 421.213 318.58C418.241 316.722 422.22 314.521 422.197 312.944C422.155 310.164 418.698 308.36 418.502 306.03C418.027 300.359 436.016 306.263 438.784 307.49C436.653 310.65 426.766 307.916 423.821 307.437C424.223 308.492 424.607 309.44 424.724 310.521C424.818 311.401 424.482 312.407 424.789 313.293C425.275 314.694 425.258 314.426 426.979 314.808C428.252 315.09 429.51 315.417 430.779 315.716C432.728 316.176 435.793 317.41 437.724 317.342C439.418 317.283 439.083 317.808 439.393 315.927C439.561 314.917 439.276 313.842 439.105 312.852C438.75 310.776 438.229 308.812 440.042 307.323C441.77 305.903 445.413 305.227 447.533 304.726C452.238 303.614 457.668 303.342 462.495 303.399Z" fill="black"/>
<path fill-rule="evenodd" clip-rule="evenodd" d="M484.883 267.974C479.774 267.118 474.582 266.907 469.412 267.167C469.693 268.446 469.973 269.725 470.253 271.003C475.097 269.756 480.01 269.025 484.883 267.974ZM443.335 277.898C441.286 277.748 442.711 278.664 443.217 280.006C443.839 281.653 443.706 283.737 443.849 285.471C449.844 283.185 456.82 281.847 463.194 281.077C466.217 280.713 469.284 280.608 472.324 280.452C473.223 280.406 476.468 280.782 477.125 280.178C477.613 279.728 477.271 277.248 476.802 276.7C474.25 273.727 464.388 276.295 460.82 276.561C454.969 276.998 449.226 278.043 443.335 277.898ZM451.85 269.928C457.159 270.438 462.285 270.389 467.594 271.185C467.191 267.81 467.672 266.949 463.844 266.77C460.433 266.611 457.032 266.482 453.636 266.483C446.001 266.487 438.383 266.342 430.739 266.342V269.771C437.808 269.047 444.766 270.354 451.85 269.928ZM426.322 282.539C429.672 282.525 432.839 283.789 436.19 284.117C438.195 284.313 437.565 284.562 438.956 285.568C441.123 287.137 441.747 286.301 441.475 284.17C440.555 276.96 431.426 278.577 426.166 278.176C426.512 279.896 425.717 281.354 424.547 282.539H426.322ZM462.536 273.283C457.717 273.361 452.892 273.635 448.107 273.535C445.965 273.49 443.19 273.065 441.09 273.431C439.552 273.698 438.266 274.481 436.579 274.772C439.057 276.107 440.313 275.205 442.918 274.901C445.521 274.599 448.162 274.604 450.775 274.446C455.066 274.186 459.64 273.158 463.868 273.438C463.945 272.842 463.502 272.791 462.536 273.283ZM424.314 288.897C422.102 288.893 425.144 286.378 425.544 286.129C423.096 286.129 422.503 284.66 423.212 282.302C423.881 280.08 424.375 280.76 422.694 278.91C421.428 277.517 421.237 276.491 422.729 274.933C424.247 273.349 427.322 273.797 428.667 272.489C430.957 270.263 428.002 265.829 431.175 264.123C433.321 262.971 436.778 263.114 439.147 262.87C441.436 262.635 443.805 262.59 446.11 262.559C451.133 262.49 456.351 263.332 461.352 263.796C463.175 263.964 465.225 264.701 467.021 264.703C468.853 264.705 470.772 264.296 472.663 264.343C474.862 264.399 476.981 264.237 479.248 264.598C480.986 264.874 485.042 265.02 486.37 266.311C490.795 270.615 480.302 272.592 478.496 273.076C480.334 275.089 480.258 277.749 479.981 280.284C480.855 280.284 482.363 279.903 482.816 280.884C483.378 282.102 481.297 282.419 480.805 282.561C477.974 283.378 474.66 283.154 471.743 283.451C465.91 284.045 460.147 284.387 454.375 285.492C451.562 286.031 448.766 286.697 445.955 287.222C445.469 287.312 444.981 287.385 444.491 287.44C443.739 287.375 443.496 287.847 443.761 288.858C442.981 289.239 440.072 288.29 439.172 288.144C434.022 287.309 429.415 287.656 424.314 288.897Z" fill="black"/>
<path fill-rule="evenodd" clip-rule="evenodd" d="M528.302 338.904C524.981 341.518 521.893 343.984 518.296 346.256C520.839 346.176 529.295 342.121 528.302 338.904ZM527.005 334.644C525.192 333.086 523.391 333.246 521.147 332.774C519.081 332.339 517.073 331.59 515.011 331.092C513.393 330.701 511.791 330.172 510.179 329.802C507.902 329.28 507.677 329.855 505.583 331.048C498.157 335.28 489.847 338.192 482.024 341.627C484.321 343.649 489.487 343.736 492.358 344.381C494.453 344.851 496.448 345.494 498.455 346.238C500.324 346.932 503.335 348.528 505.306 348.581C506.97 348.627 508.323 346.989 509.755 346.107C511.64 344.947 513.516 343.807 515.415 342.675C519.433 340.28 523.191 337.346 527.005 334.644ZM493.444 351.787C492.586 350.962 490.006 350.999 488.931 350.747C486.814 350.252 484.727 349.738 482.582 349.366C479.1 348.764 473.6 348.494 473.221 343.977C472.906 340.223 477.442 339.332 480.095 338.061C484.085 336.147 488.155 334.382 492.246 332.694C496.082 331.113 499.973 329.776 503.879 328.409C504.64 328.142 505.258 328.179 505.88 327.569C506.371 327.088 506.219 326.154 506.757 325.652C507.988 324.501 509.585 325.106 511.064 325.402C514.424 326.072 517.912 326.951 521.115 328.194C524.443 329.486 527.42 329.756 528.22 333.529C529.921 332.731 531.201 332.615 530.998 334.961C530.939 335.65 530.438 336.4 530.317 337.111C530.141 338.159 530.451 339.264 530.275 340.315C529.639 344.136 524.486 346.967 521.294 348.467C517.357 350.317 512.277 353.05 507.882 353.411C503.198 353.797 498.094 351.957 493.444 351.787Z" fill="black"/>
<path fill-rule="evenodd" clip-rule="evenodd" d="M433.825 288.395C432.429 288.404 431.031 288.413 429.636 288.422C431.029 288.16 432.426 288.157 433.825 288.395Z" fill="black"/>
<path fill-rule="evenodd" clip-rule="evenodd" d="M352.132 140.645C351.714 141.342 351.295 142.04 350.875 142.739C351.018 141.839 351.338 141.068 352.132 140.645Z" fill="black"/>
<path fill-rule="evenodd" clip-rule="evenodd" d="M433.825 308.418C434.665 308.426 435.504 308.432 436.339 308.44C435.498 308.434 434.662 308.426 433.825 308.418Z" fill="black"/>
<path fill-rule="evenodd" clip-rule="evenodd" d="M453.096 262.844C452.118 262.792 451.141 262.738 450.164 262.686C451.141 262.738 452.118 262.792 453.096 262.844Z" fill="black"/>
<path fill-rule="evenodd" clip-rule="evenodd" d="M436.339 288.416C435.501 288.408 434.662 288.401 433.825 288.393C434.666 288.164 435.504 288.172 436.339 288.416Z" fill="black"/>
<path fill-rule="evenodd" clip-rule="evenodd" d="M469.68 169.549C469.656 168.711 469.633 167.872 469.609 167.035C469.633 167.874 469.656 168.711 469.68 169.549Z" fill="black"/>
<path fill-rule="evenodd" clip-rule="evenodd" d="M327.231 296.071C327.214 295.373 327.197 294.674 327.18 293.977C327.198 294.676 327.214 295.373 327.231 296.071Z" fill="black"/>
<path fill-rule="evenodd" clip-rule="evenodd" d="M350.038 261.928C350.598 261.928 351.158 261.929 351.714 261.93C351.153 261.93 350.595 261.929 350.038 261.928Z" fill="black"/>
<path fill-rule="evenodd" clip-rule="evenodd" d="M425.027 111.453C424.329 111.504 423.631 111.554 422.933 111.605C423.631 111.554 424.329 111.504 425.027 111.453Z" fill="black"/>
<path fill-rule="evenodd" clip-rule="evenodd" d="M477.814 264.448C476.976 264.443 476.138 264.437 475.3 264.432C476.138 264.437 476.976 264.443 477.814 264.448Z" fill="black"/>
<path fill-rule="evenodd" clip-rule="evenodd" d="M407.254 316.18C407.233 315.62 407.212 315.06 407.192 314.504C407.212 315.064 407.233 315.622 407.254 316.18Z" fill="black"/>
<path fill-rule="evenodd" clip-rule="evenodd" d="M408.083 294.812C408.068 294.254 408.053 293.694 408.038 293.137C408.053 293.696 408.068 294.254 408.083 294.812Z" fill="black"/>
<path fill-rule="evenodd" clip-rule="evenodd" d="M393.787 304.449C393.807 305.009 393.827 305.568 393.847 306.125C393.827 305.565 393.807 305.008 393.787 304.449Z" fill="black"/>
<path fill-rule="evenodd" clip-rule="evenodd" d="M353.389 261.515C353.81 261.509 354.23 261.504 354.646 261.498C354.224 261.504 353.807 261.509 353.389 261.515Z" fill="black"/>
<path fill-rule="evenodd" clip-rule="evenodd" d="M474.881 283.318C475.301 283.3 475.721 283.282 476.138 283.264C475.717 283.282 475.298 283.3 474.881 283.318Z" fill="black"/>
<path fill-rule="evenodd" clip-rule="evenodd" d="M394.619 317.857C394.643 318.417 394.666 318.976 394.69 319.533C394.666 318.972 394.643 318.415 394.619 317.857Z" fill="black"/>
<path fill-rule="evenodd" clip-rule="evenodd" d="M439.523 314.922C439.495 315.482 439.467 316.041 439.438 316.598C439.467 316.038 439.495 315.48 439.523 314.922Z" fill="black"/>
<path fill-rule="evenodd" clip-rule="evenodd" d="M391.238 65.2967C390.646 65.2213 390.054 65.1465 389.461 65.0711C390.048 65.2068 390.692 64.7034 391.238 65.2967Z" fill="black"/>
<path fill-rule="evenodd" clip-rule="evenodd" d="M365.772 280.15C365.756 280.71 365.74 281.269 365.724 281.826C365.739 281.266 365.756 280.708 365.772 280.15Z" fill="black"/>
<path fill-rule="evenodd" clip-rule="evenodd" d="M329.762 331.262C329.734 330.703 329.705 330.144 329.676 329.586C329.705 330.145 329.734 330.703 329.762 331.262Z" fill="black"/>
<path fill-rule="evenodd" clip-rule="evenodd" d="M465.246 284.143C465.667 284.134 466.087 284.125 466.502 284.117C466.081 284.126 465.663 284.135 465.246 284.143Z" fill="black"/>
<path fill-rule="evenodd" clip-rule="evenodd" d="M323.012 182.537C323.015 183.097 323.018 183.656 323.021 184.213C323.017 183.653 323.015 183.095 323.012 182.537Z" fill="black"/>
<path fill-rule="evenodd" clip-rule="evenodd" d="M314.222 308.221C314.22 308.78 314.218 309.34 314.215 309.896C314.217 309.336 314.219 308.778 314.222 308.221Z" fill="black"/>
<path fill-rule="evenodd" clip-rule="evenodd" d="M418.636 304.867C418.621 305.426 418.606 305.986 418.59 306.543C418.361 305.968 418.387 305.412 418.636 304.867Z" fill="black"/>
<path fill-rule="evenodd" clip-rule="evenodd" d="M407.648 302.355C407.644 301.796 407.639 301.237 407.635 300.68C407.639 301.24 407.644 301.797 407.648 302.355Z" fill="black"/>
<path fill-rule="evenodd" clip-rule="evenodd" d="M493.314 351.979C493.735 351.99 494.155 352.002 494.571 352.013C494.149 352.002 493.731 351.99 493.314 351.979Z" fill="black"/>
<path fill-rule="evenodd" clip-rule="evenodd" d="M478.232 298.802C478.512 298.797 478.793 298.792 479.07 298.787C478.788 298.792 478.511 298.797 478.232 298.802Z" fill="black"/>
<path fill-rule="evenodd" clip-rule="evenodd" d="M467.759 300.052C468.04 300.052 468.32 300.051 468.597 300.051C468.316 300.052 468.037 300.052 467.759 300.052Z" fill="black"/>
<path fill-rule="evenodd" clip-rule="evenodd" d="M304.608 302.774C304.592 302.355 304.574 301.936 304.558 301.518C304.575 301.937 304.592 302.356 304.608 302.774Z" fill="black"/>
<path fill-rule="evenodd" clip-rule="evenodd" d="M476.138 302.455C475.774 302.823 475.306 302.606 474.881 302.629C475.3 302.571 475.719 302.513 476.138 302.455Z" fill="black"/>
<path fill-rule="evenodd" clip-rule="evenodd" d="M426.284 289.051C425.731 289.312 425.172 289.348 424.608 289.069C425.167 289.063 425.726 289.057 426.284 289.051Z" fill="black"/>
<path fill-rule="evenodd" clip-rule="evenodd" d="M462.732 303.411C462.173 303.406 461.614 303.402 461.056 303.396C461.615 303.402 462.174 303.406 462.732 303.411Z" fill="black"/>
<path fill-rule="evenodd" clip-rule="evenodd" d="M439.271 288.812C438.713 288.762 438.153 288.711 437.595 288.66C438.153 288.711 438.713 288.762 439.271 288.812Z" fill="black"/>
<path fill-rule="evenodd" clip-rule="evenodd" d="M311.303 286.854C311.292 287.274 311.281 287.693 311.27 288.11C311.28 287.69 311.291 287.271 311.303 286.854Z" fill="black"/>
<path fill-rule="evenodd" clip-rule="evenodd" d="M407.609 309.478C407.631 309.058 407.653 308.638 407.674 308.221C407.653 308.641 407.631 309.059 407.609 309.478Z" fill="black"/>
<path fill-rule="evenodd" clip-rule="evenodd" d="M465.246 285.316C464.687 285.363 464.128 285.41 463.57 285.457C464.129 285.41 464.687 285.363 465.246 285.316Z" fill="black"/>
<path fill-rule="evenodd" clip-rule="evenodd" d="M327.223 283.921C327.211 283.501 327.199 283.081 327.188 282.664C327.199 283.085 327.211 283.503 327.223 283.921Z" fill="black"/>
<path fill-rule="evenodd" clip-rule="evenodd" d="M397.218 251.662C397.184 252.082 397.151 252.501 397.119 252.919C397.152 252.499 397.185 252.081 397.218 251.662Z" fill="black"/>
<path fill-rule="evenodd" clip-rule="evenodd" d="M473.624 264.341C473.064 264.631 472.506 264.594 471.948 264.338C472.507 264.339 473.066 264.34 473.624 264.341Z" fill="black"/>
<path fill-rule="evenodd" clip-rule="evenodd" d="M407.26 322.462C407.235 322.042 407.211 321.623 407.186 321.205C407.211 321.625 407.235 322.043 407.26 322.462Z" fill="black"/>
<path fill-rule="evenodd" clip-rule="evenodd" d="M407.249 325.813C407.231 325.394 407.213 324.975 407.196 324.557C407.214 324.976 407.232 325.395 407.249 325.813Z" fill="black"/>
<path fill-rule="evenodd" clip-rule="evenodd" d="M328.035 270.515C328.041 270.095 328.047 269.675 328.053 269.258C328.046 269.678 328.041 270.096 328.035 270.515Z" fill="black"/>
<path fill-rule="evenodd" clip-rule="evenodd" d="M447.231 337.347C447.512 337.339 447.792 337.331 448.069 337.324C447.787 337.333 447.509 337.34 447.231 337.347Z" fill="black"/>
<path fill-rule="evenodd" clip-rule="evenodd" d="M312.157 340.895C312.135 340.476 312.112 340.057 312.09 339.639C312.113 340.058 312.135 340.477 312.157 340.895Z" fill="black"/>
<path fill-rule="evenodd" clip-rule="evenodd" d="M402.824 344.447C403.105 344.453 403.385 344.458 403.662 344.464C403.38 344.459 403.102 344.453 402.824 344.447Z" fill="black"/>
<path fill-rule="evenodd" clip-rule="evenodd" d="M463.57 264.084C463.011 264.042 462.452 263.999 461.894 263.957C462.452 263.999 463.011 264.042 463.57 264.084Z" fill="black"/>
<path fill-rule="evenodd" clip-rule="evenodd" d="M466.502 264.525L465.246 264.352L466.502 264.525Z" fill="black"/>
<path fill-rule="evenodd" clip-rule="evenodd" d="M402.998 308.638C403.022 307.38 403.045 306.123 403.069 304.867C403.045 306.125 403.022 307.381 402.998 308.638Z" fill="black"/>
<path fill-rule="evenodd" clip-rule="evenodd" d="M370.334 262.555C370.349 263.533 370.363 264.511 370.378 265.487C370.364 264.508 370.349 263.531 370.334 262.555Z" fill="black"/>
<path fill-rule="evenodd" clip-rule="evenodd" d="M298.09 323.918C297.391 323.926 296.69 323.935 295.995 323.944C296.696 323.936 297.393 323.927 298.09 323.918Z" fill="black"/>
<path fill-rule="evenodd" clip-rule="evenodd" d="M355.484 240.575C354.784 240.564 354.084 240.553 353.389 240.543C354.091 240.554 354.788 240.565 355.484 240.575Z" fill="black"/>
<path fill-rule="evenodd" clip-rule="evenodd" d="M337.47 256.901C338.168 256.9 338.867 256.899 339.564 256.898C338.866 256.899 338.168 256.9 337.47 256.901Z" fill="black"/>
<path fill-rule="evenodd" clip-rule="evenodd" d="M346.686 240.129C346.126 240.138 345.566 240.148 345.011 240.157C345.573 240.147 346.13 240.138 346.686 240.129Z" fill="black"/>
<path fill-rule="evenodd" clip-rule="evenodd" d="M301.441 323.935C300.881 323.932 300.321 323.929 299.765 323.926C300.327 323.929 300.884 323.932 301.441 323.935Z" fill="black"/>
<path fill-rule="evenodd" clip-rule="evenodd" d="M376.85 109.923C377.548 109.874 378.246 109.826 378.944 109.777C378.246 109.826 377.548 109.874 376.85 109.923Z" fill="black"/>
<path fill-rule="evenodd" clip-rule="evenodd" d="M386.237 159.075C386.263 158.377 386.289 157.678 386.315 156.98C386.288 157.679 386.263 158.377 386.237 159.075Z" fill="black"/>
<path fill-rule="evenodd" clip-rule="evenodd" d="M333.699 238.879C333.279 238.884 332.858 238.888 332.442 238.893C332.864 238.889 333.282 238.884 333.699 238.879Z" fill="black"/>
<path fill-rule="evenodd" clip-rule="evenodd" d="M324.063 255.994C324.622 256.039 325.181 256.085 325.739 256.13C325.18 256.085 324.622 256.039 324.063 255.994Z" fill="black"/>
<path fill-rule="evenodd" clip-rule="evenodd" d="M323.003 277.217C323.012 276.658 323.021 276.099 323.029 275.541C323.021 276.101 323.012 276.659 323.003 277.217Z" fill="black"/>
<path fill-rule="evenodd" clip-rule="evenodd" d="M370.985 254.887C371.543 254.832 372.102 254.778 372.661 254.723C372.102 254.778 371.543 254.832 370.985 254.887Z" fill="black"/>
<path fill-rule="evenodd" clip-rule="evenodd" d="M409.268 244.959C409.301 244.4 409.334 243.84 409.367 243.283C409.334 243.843 409.301 244.401 409.268 244.959Z" fill="black"/>
<path fill-rule="evenodd" clip-rule="evenodd" d="M416.649 167.734C417.207 167.69 417.766 167.647 418.324 167.604C417.766 167.647 417.207 167.69 416.649 167.734Z" fill="black"/>
<path fill-rule="evenodd" clip-rule="evenodd" d="M359.674 240.987C359.253 240.983 358.833 240.978 358.417 240.975C358.839 240.978 359.256 240.983 359.674 240.987Z" fill="black"/>
<path fill-rule="evenodd" clip-rule="evenodd" d="M323.047 308.638C323.026 308.218 323.005 307.799 322.985 307.381C323.005 307.801 323.026 308.219 323.047 308.638Z" fill="black"/>
<path fill-rule="evenodd" clip-rule="evenodd" d="M370.018 287.271C370.934 289.542 370.42 287.934 370.443 288.458C369.663 288.563 369.521 288.167 370.018 287.271Z" fill="black"/>
<path fill-rule="evenodd" clip-rule="evenodd" d="M331.604 238.907C331.185 238.892 330.764 238.877 330.348 238.861C330.77 238.876 331.187 238.892 331.604 238.907Z" fill="black"/>
<path fill-rule="evenodd" clip-rule="evenodd" d="M417.237 196.363C417.264 195.804 417.291 195.246 417.316 194.688C417.29 195.247 417.263 195.805 417.237 196.363Z" fill="black"/>
<path fill-rule="evenodd" clip-rule="evenodd" d="M323.018 304.449C323.017 303.89 323.015 303.332 323.014 302.773C323.015 303.334 323.017 303.891 323.018 304.449Z" fill="black"/>
<path fill-rule="evenodd" clip-rule="evenodd" d="M322.972 291.88C323.001 291.461 323.031 291.041 323.06 290.623C323.031 291.043 323.001 291.462 322.972 291.88Z" fill="black"/>
<path fill-rule="evenodd" clip-rule="evenodd" d="M410.097 236.999C410.136 236.58 410.175 236.16 410.214 235.742C410.175 236.162 410.136 236.581 410.097 236.999Z" fill="black"/>
<path fill-rule="evenodd" clip-rule="evenodd" d="M317.514 293.137C317.551 293.556 317.589 293.976 317.626 294.394C317.588 293.974 317.551 293.555 317.514 293.137Z" fill="black"/>
<path fill-rule="evenodd" clip-rule="evenodd" d="M316.67 289.785C316.712 290.204 316.753 290.624 316.794 291.042C316.753 290.622 316.712 290.203 316.67 289.785Z" fill="black"/>
<path fill-rule="evenodd" clip-rule="evenodd" d="M400.473 232.394C400.504 231.974 400.535 231.555 400.567 231.137C400.535 231.556 400.504 231.975 400.473 232.394Z" fill="black"/>
<path fill-rule="evenodd" clip-rule="evenodd" d="M186.652 289.224C187.21 289.18 187.769 289.135 188.328 289.092C187.768 289.136 187.21 289.18 186.652 289.224Z" fill="black"/>
<path fill-rule="evenodd" clip-rule="evenodd" d="M396.773 299.422C396.757 299.842 396.741 300.262 396.725 300.679C396.741 300.258 396.757 299.84 396.773 299.422Z" fill="black"/>
<path fill-rule="evenodd" clip-rule="evenodd" d="M403.406 300.679C403.437 300.26 403.468 299.84 403.499 299.422C403.468 299.841 403.437 300.26 403.406 300.679Z" fill="black"/>
<path fill-rule="evenodd" clip-rule="evenodd" d="M400.873 230.716C400.917 230.296 400.961 229.877 401.005 229.459C400.961 229.879 400.917 230.297 400.873 230.716Z" fill="black"/>
<path fill-rule="evenodd" clip-rule="evenodd" d="M190.004 288.821C190.562 288.766 191.121 288.711 191.679 288.656C191.121 288.711 190.562 288.766 190.004 288.821Z" fill="black"/>
<path fill-rule="evenodd" clip-rule="evenodd" d="M367.633 240.559C367.353 240.562 367.072 240.565 366.795 240.568C367.077 240.565 367.355 240.562 367.633 240.559Z" fill="black"/>
<path fill-rule="evenodd" clip-rule="evenodd" d="M323.018 288.11C323.017 287.691 323.015 287.271 323.014 286.854C323.015 287.274 323.017 287.692 323.018 288.11Z" fill="black"/>
<path fill-rule="evenodd" clip-rule="evenodd" d="M404.323 287.272C404.174 286.839 404.101 286.412 404.388 286.016C404.366 286.435 404.345 286.854 404.323 287.272Z" fill="black"/>
<path fill-rule="evenodd" clip-rule="evenodd" d="M397.186 279.312C397.175 279.732 397.162 280.152 397.151 280.569C397.163 280.149 397.175 279.731 397.186 279.312Z" fill="black"/>
<path fill-rule="evenodd" clip-rule="evenodd" d="M397.548 320.787C397.574 321.206 397.6 321.626 397.626 322.044C397.6 321.624 397.574 321.205 397.548 320.787Z" fill="black"/>
<path fill-rule="evenodd" clip-rule="evenodd" d="M428.379 168.414C428.798 168.474 429.217 168.534 429.636 168.593C429.216 168.533 428.798 168.474 428.379 168.414Z" fill="black"/>
<path fill-rule="evenodd" clip-rule="evenodd" d="M426.703 168.453C427.265 168.487 427.883 168.217 428.379 168.613L426.703 168.453Z" fill="black"/>
<path fill-rule="evenodd" clip-rule="evenodd" d="M355.065 256.903C355.624 256.9 356.183 256.897 356.741 256.895C356.182 256.897 355.624 256.9 355.065 256.903Z" fill="black"/>
<path fill-rule="evenodd" clip-rule="evenodd" d="M367.633 168.012L369.309 168.157C368.749 168.108 368.192 168.06 367.633 168.012Z" fill="black"/>
<path fill-rule="evenodd" clip-rule="evenodd" d="M339.983 256.789C340.542 256.792 341.1 256.794 341.659 256.797C341.098 257.066 340.539 257.093 339.983 256.789Z" fill="black"/>
<path fill-rule="evenodd" clip-rule="evenodd" d="M324.74 327.071C324.708 326.651 324.676 326.232 324.644 325.814C324.676 326.235 324.708 326.653 324.74 327.071Z" fill="black"/>
<path fill-rule="evenodd" clip-rule="evenodd" d="M385.848 168.712C385.854 168.292 385.86 167.873 385.866 167.455C385.86 167.875 385.854 168.294 385.848 168.712Z" fill="black"/>
<path fill-rule="evenodd" clip-rule="evenodd" d="M350.457 256.967C351.016 256.923 351.574 256.877 352.133 256.832C351.574 256.877 351.016 256.923 350.457 256.967Z" fill="black"/>
<path fill-rule="evenodd" clip-rule="evenodd" d="M397.992 330.84C398.001 331.259 398.011 331.679 398.02 332.097C398.011 331.676 398.001 331.258 397.992 330.84Z" fill="black"/>
<path fill-rule="evenodd" clip-rule="evenodd" d="M399.472 158.111C400.031 158.058 400.59 158.004 401.148 157.951C400.59 158.004 400.031 158.058 399.472 158.111Z" fill="black"/>
<path fill-rule="evenodd" clip-rule="evenodd" d="M406.746 265.067C406.785 264.648 406.823 264.229 406.861 263.811C406.823 264.23 406.784 264.649 406.746 265.067Z" fill="black"/>
<path fill-rule="evenodd" clip-rule="evenodd" d="M426.027 153.21C426.059 152.79 426.091 152.371 426.123 151.953C426.091 152.373 426.059 152.791 426.027 153.21Z" fill="black"/>
<path fill-rule="evenodd" clip-rule="evenodd" d="M386.264 117.184C386.272 117.603 386.279 118.023 386.288 118.44C386.28 118.02 386.272 117.602 386.264 117.184Z" fill="black"/>
<path fill-rule="evenodd" clip-rule="evenodd" d="M371.404 109.361C371.962 109.408 372.522 109.455 373.08 109.501C372.521 109.454 371.962 109.408 371.404 109.361Z" fill="black"/>
<path fill-rule="evenodd" clip-rule="evenodd" d="M287.616 347.475C288.175 347.42 288.733 347.365 289.292 347.311C288.733 347.365 288.175 347.42 287.616 347.475Z" fill="black"/>
<path fill-rule="evenodd" clip-rule="evenodd" d="M269.183 352.929C269.742 352.64 270.3 352.723 270.859 352.931C270.3 352.93 269.741 352.929 269.183 352.929Z" fill="black"/>
<path fill-rule="evenodd" clip-rule="evenodd" d="M486.611 328.615C487.589 328.565 488.567 328.515 489.544 328.465C488.567 328.515 487.589 328.565 486.611 328.615Z" fill="black"/>
<path fill-rule="evenodd" clip-rule="evenodd" d="M486.611 321.396C486.051 321.409 485.491 321.422 484.936 321.435C485.497 321.422 486.054 321.409 486.611 321.396Z" fill="black"/>
<path fill-rule="evenodd" clip-rule="evenodd" d="M478.232 313.087C478.931 313.034 479.629 312.981 480.327 312.928C479.676 313.337 478.931 313.034 478.232 313.087Z" fill="black"/>
<path fill-rule="evenodd" clip-rule="evenodd" d="M470.273 313.952C470.971 313.902 471.669 313.851 472.367 313.801C471.67 313.851 470.971 313.902 470.273 313.952Z" fill="black"/>
<path fill-rule="evenodd" clip-rule="evenodd" d="M458.542 321.48C459.101 321.437 459.659 321.393 460.218 321.35C459.659 321.393 459.101 321.437 458.542 321.48Z" fill="black"/>
<path fill-rule="evenodd" clip-rule="evenodd" d="M461.475 321.482C462.034 321.438 462.592 321.394 463.151 321.35C462.592 321.394 462.034 321.438 461.475 321.482Z" fill="black"/>
<path fill-rule="evenodd" clip-rule="evenodd" d="M463.57 321.07C464.128 321.021 464.687 320.972 465.246 320.922C464.687 320.971 464.129 321.021 463.57 321.07Z" fill="black"/>
<path fill-rule="evenodd" clip-rule="evenodd" d="M466.502 306.748C466.082 306.751 465.662 306.754 465.246 306.756C465.668 306.752 466.085 306.75 466.502 306.748Z" fill="black"/>
<path fill-rule="evenodd" clip-rule="evenodd" d="M476.976 329.827C477.534 329.78 478.093 329.732 478.651 329.686C478.13 330.052 477.541 329.841 476.976 329.827Z" fill="black"/>
<path fill-rule="evenodd" clip-rule="evenodd" d="M461.056 296.359C461.614 296.306 462.173 296.252 462.732 296.199C462.173 296.252 461.614 296.306 461.056 296.359Z" fill="black"/>
<path fill-rule="evenodd" clip-rule="evenodd" d="M458.961 289.577C458.541 289.577 458.121 289.577 457.705 289.576C458.127 289.577 458.544 289.577 458.961 289.577Z" fill="black"/>
<path fill-rule="evenodd" clip-rule="evenodd" d="M454.772 290.412C454.492 290.414 454.211 290.415 453.934 290.416C454.216 290.415 454.494 290.413 454.772 290.412Z" fill="black"/>
<path fill-rule="evenodd" clip-rule="evenodd" d="M444.718 291.581C444.577 291.925 443.837 291.881 443.882 291.527C444.16 291.545 444.439 291.563 444.718 291.581Z" fill="black"/>
<path fill-rule="evenodd" clip-rule="evenodd" d="M425.211 293.137C425.229 293.556 425.246 293.976 425.263 294.394C425.245 293.974 425.229 293.555 425.211 293.137Z" fill="black"/>
<path fill-rule="evenodd" clip-rule="evenodd" d="M482.422 295.359C482.841 295.352 483.26 295.345 483.679 295.338C483.265 295.634 482.845 295.592 482.422 295.359Z" fill="black"/>
<path fill-rule="evenodd" clip-rule="evenodd" d="M466.502 289.15C466.222 289.155 465.942 289.159 465.665 289.162C465.946 289.158 466.224 289.155 466.502 289.15Z" fill="black"/>
<path fill-rule="evenodd" clip-rule="evenodd" d="M455.61 315.627C456.169 315.575 456.727 315.523 457.286 315.471C456.727 315.523 456.169 315.575 455.61 315.627Z" fill="black"/>
<path fill-rule="evenodd" clip-rule="evenodd" d="M448.907 316.461L450.582 316.314L448.907 316.461Z" fill="black"/>
<path fill-rule="evenodd" clip-rule="evenodd" d="M481.584 329.036C482.142 328.984 482.701 328.931 483.26 328.879C482.701 328.931 482.142 328.984 481.584 329.036Z" fill="black"/>
<path fill-rule="evenodd" clip-rule="evenodd" d="M461.475 331.557C462.035 331.352 462.594 331.282 463.151 331.562C462.592 331.56 462.033 331.558 461.475 331.557Z" fill="black"/>
<path fill-rule="evenodd" clip-rule="evenodd" d="M460.587 273.81L459.799 273.538C460.777 273.526 461.754 273.514 462.732 273.502C462.734 273.502 460.699 273.819 460.587 273.81Z" fill="black"/>
<path fill-rule="evenodd" clip-rule="evenodd" d="M453.096 266.534C452.396 266.534 451.696 266.534 451.001 266.533C451.702 266.534 452.399 266.534 453.096 266.534Z" fill="black"/>
<path fill-rule="evenodd" clip-rule="evenodd" d="M426.703 282.551C427.4 282.273 428.098 282.327 428.798 282.544C428.099 282.546 427.402 282.549 426.703 282.551Z" fill="black"/>
<path fill-rule="evenodd" clip-rule="evenodd" d="M469.016 275.744C468.595 275.749 468.175 275.754 467.759 275.759C468.181 275.754 468.598 275.749 469.016 275.744Z" fill="black"/>
<path fill-rule="evenodd" clip-rule="evenodd" d="M460.218 270.236C460.917 270.282 461.615 270.328 462.313 270.373C461.615 270.327 460.916 270.282 460.218 270.236Z" fill="black"/>
<path fill-rule="evenodd" clip-rule="evenodd" d="M451.421 274.566C452.119 274.517 452.817 274.468 453.515 274.418C452.817 274.468 452.119 274.517 451.421 274.566Z" fill="black"/>
<path fill-rule="evenodd" clip-rule="evenodd" d="M456.867 273.728C457.425 273.681 457.984 273.633 458.542 273.586C457.984 273.633 457.425 273.681 456.867 273.728Z" fill="black"/>
<path fill-rule="evenodd" clip-rule="evenodd" d="M452.258 269.816C452.817 269.862 453.376 269.908 453.934 269.954C453.375 269.908 452.817 269.862 452.258 269.816Z" fill="black"/>
<path fill-rule="evenodd" clip-rule="evenodd" d="M444.299 277.854C444.018 277.848 443.738 277.842 443.461 277.836C443.742 277.842 444.02 277.848 444.299 277.854Z" fill="black"/>
<path fill-rule="evenodd" clip-rule="evenodd" d="M453.096 273.683C452.815 273.666 452.535 273.648 452.258 273.631C452.54 273.648 452.818 273.666 453.096 273.683Z" fill="black"/>
<path fill-rule="evenodd" clip-rule="evenodd" d="M447.65 273.67C447.369 273.662 447.088 273.654 446.812 273.646C447.094 273.654 447.372 273.662 447.65 273.67Z" fill="black"/>
<path fill-rule="evenodd" clip-rule="evenodd" d="M462.732 273.279C462.732 273.387 463.994 272.837 463.989 273.349L462.732 273.279Z" fill="black"/>
<path fill-rule="evenodd" clip-rule="evenodd" d="M458.124 266.533C457.843 266.534 457.563 266.534 457.286 266.534C457.568 266.534 457.845 266.534 458.124 266.533Z" fill="black"/>
<path fill-rule="evenodd" clip-rule="evenodd" d="M309.401 246.667C309.854 244.815 309.731 243.367 311.346 244.55C312.233 245.199 313.695 248.493 313.584 249.609C313.447 250.985 312.82 251.533 311.525 251.095C310.036 250.591 309.445 248.052 309.401 246.667Z" fill="black"/>
<path fill-rule="evenodd" clip-rule="evenodd" d="M391.022 235.428C394.774 235.428 393.137 239.421 390.01 239.51C388.573 239.551 386.505 239.268 386.971 237.344C387.22 236.317 390.866 234.933 391.022 235.428Z" fill="black"/>
<path fill-rule="evenodd" clip-rule="evenodd" d="M350.781 243.283C353.489 244.594 349.679 250.348 347.218 248.923C344.066 247.1 349.667 244.104 350.781 243.283Z" fill="black"/>
<path fill-rule="evenodd" clip-rule="evenodd" d="M344.191 248.729C345.078 249.695 349.072 252.974 346.87 254.292C344.162 255.913 342.101 250.562 344.191 248.729Z" fill="black"/>
<path fill-rule="evenodd" clip-rule="evenodd" d="M298.792 246.216C297.911 244.512 299.124 240.053 301.814 240.868C304.521 241.689 300.282 245.763 298.792 246.216Z" fill="black"/>
<path fill-rule="evenodd" clip-rule="evenodd" d="M358.559 247.197C360.316 246.49 359.981 248.582 360.247 249.257C360.548 250.024 362.094 251.891 361.706 252.707C361.131 253.918 359.754 253.146 359.007 252.36C357.697 250.982 357.79 248.771 358.559 247.197Z" fill="black"/>
<path fill-rule="evenodd" clip-rule="evenodd" d="M331.789 249.137C330.325 249.137 326.83 244.916 328.884 244.208C331.432 243.329 333.564 249.447 331.789 249.137Z" fill="black"/>
<path fill-rule="evenodd" clip-rule="evenodd" d="M382.383 242.445C383.724 242.776 385.499 246.572 383.478 247.013C381.241 247.501 380.841 243.495 382.383 242.445Z" fill="black"/>
<path fill-rule="evenodd" clip-rule="evenodd" d="M374.254 249.568C373.202 247.543 372.943 243.208 375.51 246.688C376.067 247.441 376.64 247.136 376.355 248.38C376.105 249.465 375.109 249.568 374.254 249.568Z" fill="black"/>
<path fill-rule="evenodd" clip-rule="evenodd" d="M318.863 239.094C319.935 240.707 319.618 245.766 317.378 242.774C316.426 241.502 317.082 239.154 318.863 239.094Z" fill="black"/>
<path fill-rule="evenodd" clip-rule="evenodd" d="M372.739 87.0605C374.819 86.5237 375.317 91.4265 374.105 91.9669C372.407 92.7232 372.619 87.8806 372.739 87.0605Z" fill="black"/>
<path fill-rule="evenodd" clip-rule="evenodd" d="M504.272 336.139C502.342 336.026 499.638 335.5 502.562 334.13C504.416 333.262 507.174 333.202 509.133 333.558C510.483 333.803 512.509 334.922 510.449 336.373C509.243 337.222 505.738 336.181 504.272 336.139Z" fill="black"/>
<path fill-rule="evenodd" clip-rule="evenodd" d="M502.109 339.639C501.551 339.576 500.993 339.513 500.436 339.45C500.884 338.638 502.184 338.468 502.109 339.639Z" fill="black"/>
<path fill-rule="evenodd" clip-rule="evenodd" d="M504.626 336.062C505.186 336.075 505.746 336.087 506.301 336.099C505.74 336.087 505.183 336.075 504.626 336.062Z" fill="black"/>
</g>
</g>
<defs>
<clipPath id="clip0_1312_1715">
<rect width="690" height="422" fill="white"/>
</clipPath>
<clipPath id="clip1_1312_1715">
<rect width="690" height="422" fill="white" transform="translate(0 1)"/>
</clipPath>
</defs>
</svg>
