<svg width="690" height="422" viewBox="0 0 690 422" fill="none" xmlns="http://www.w3.org/2000/svg">
<g clip-path="url(#clip0_1165_1715)">
<path d="M690 0H0V422H690V0Z" fill="#FDF074"/>
<path d="M608.974 65.722C634.413 98.9925 600.937 176.366 560.046 228.757C519.155 281.148 471.022 308.486 433.224 340.419C395.491 372.226 368.265 408.558 345.414 403.029C322.629 397.374 304.047 349.929 254.527 341.516C204.835 333.173 124.164 363.681 108.593 348.356C92.9158 332.976 142.339 271.764 151.508 200.736C160.676 129.709 129.418 48.9367 151.275 45.4701C173.025 41.9479 247.997 115.787 300.856 130.261C353.608 144.679 384.181 99.8582 441.743 71.843C499.198 43.7723 583.577 32.6329 608.974 65.722Z" fill="white"/>
<path fill-rule="evenodd" clip-rule="evenodd" d="M271.896 114.602C273.591 114.421 273.833 116.721 274.064 117.77C274.718 117.358 275.299 117.752 275.447 116.789C277.513 118.956 279.168 121.443 281.003 123.797C282.763 126.056 285.514 127.852 287.036 130.226C288.328 132.242 286.196 135.302 285.933 137.452C285.635 139.874 286.267 142.647 287.92 144.494C288.694 145.357 289.639 145.957 290.782 146.189C291.918 146.42 292.999 145.753 294 145.895C294.83 146.013 294.867 146.562 295.156 147.378C295.553 148.498 296.059 149.555 296.997 150.342C298.045 151.22 299.17 151.474 299.969 152.655C300.667 153.685 301.062 154.682 302.144 155.397C303.587 156.352 305.903 156.64 305.746 158.868C305.994 158.671 306.242 158.474 306.491 158.276C307.066 160.127 307.858 161.919 308.703 163.659C309.099 164.474 309.302 164.907 309.282 165.815C309.268 166.412 308.941 166.864 309.295 167.443C309.861 168.369 311.375 168.243 312.067 168.992C312.775 169.759 312.04 170.801 312.859 171.47C312.514 171.576 311.558 172.349 311.917 172.818C312.434 173.493 312.473 172.569 312.836 172.68C313.668 172.935 313.492 173.975 314.142 174.257C314.274 174.315 314.265 173.702 314.258 173.536L314.257 173.526L314.544 174.088C318.88 182.553 324.024 190.588 328.1 199.179L328.37 199.753C335.856 215.769 344.756 231.364 354.597 246.054C356.919 249.52 359.466 252.962 361.613 256.526C363.77 260.109 366.458 263.284 368.844 266.709C371.298 270.232 373.544 273.9 376.018 277.408C377.991 280.205 380.402 283.183 380.371 286.79C380.356 288.393 380.123 290.164 378.579 291.026C378.542 290.365 377.542 291.096 377.304 291.258C376.273 291.96 376.834 291.883 375.722 291.637C373.918 291.239 372.377 291.778 370.708 290.752C367.168 288.575 363.68 286.337 360.076 284.26C352.288 279.77 344.577 275.174 337.352 269.808C324.722 260.429 310.999 252.024 299.392 241.355C287.794 230.694 275.622 220.117 261.859 212.32C260.936 211.797 258.292 211.013 258.535 209.766C258.749 208.674 261.127 207.142 261.961 206.386C264.856 203.761 267.871 201.276 270.663 198.538C275.818 193.484 280.934 187.906 285.069 181.976C287.08 179.09 288.107 175.882 289.281 172.602C290.317 169.706 291.275 166.142 289.593 163.277C288.814 161.95 287.739 161.412 286.236 161.513C284.991 161.596 285.047 161.851 284.553 160.53C284.022 159.107 283.59 157.457 282.165 156.633C280.69 155.78 279.684 156.69 278.489 157.544C277.114 155.557 275.427 152.118 272.655 151.928C269.76 151.729 268.116 155.308 267.117 157.461C264.161 163.826 260.315 169.772 256.18 175.441C251.697 181.585 247.113 187.835 242.174 193.621C241.128 194.846 239.941 196.633 238.467 197.376C237 198.117 235.776 197.464 234.537 196.622L234.424 196.545C231.413 194.478 228.485 192.356 225.35 190.463C221.878 188.367 218.309 186.447 214.768 184.472C213.205 183.6 211.723 182.551 210.113 181.769C208.613 181.039 206.98 180.678 205.445 180.04C211.083 178.358 217.021 180.562 222.358 182.31C225.128 183.217 228.024 184.162 230.982 183.918C233.539 183.707 235.86 182.337 237.883 180.84C241.54 178.134 241.827 174.069 240.635 169.961C239.263 165.232 237.164 160.685 235.578 156.021C234.857 153.9 234.36 151.647 236.002 149.814C237.471 148.174 239.372 147.972 241.377 148.617C246.239 150.183 250.552 151.653 255.764 151.505C259.838 151.389 265.021 150.231 267.766 146.917C269.271 145.1 269.328 142.602 269.334 140.349C269.342 137.679 269.174 134.993 268.8 132.349C268.134 127.632 266.405 122.908 268.573 118.328C269.081 117.254 270.496 114.752 271.896 114.602ZM314.257 173.522L314.257 173.526L314.256 173.523C314.254 173.483 314.256 173.489 314.257 173.522ZM145.615 151.369C146.889 149.605 150.375 145.497 153.036 146.396C153.501 146.553 153.837 147.017 154.143 147.362C154.361 147.644 154.576 147.928 154.79 148.213C154.922 148.587 155.161 148.698 155.505 148.544C156.438 149.838 157.755 150.815 158.292 152.404C158.823 153.979 160.25 155.506 161.091 156.95C161.742 158.067 163.209 161.049 163.097 162.446V166.011C162.964 167.397 160.376 169.875 159.466 170.813C157.206 173.141 154.752 173.439 151.403 173.142C148.566 172.89 144.891 171.944 142.971 169.687C141.127 167.521 141.154 164.165 141.426 161.498C141.807 157.773 143.439 154.381 145.615 151.369ZM154.344 151.96C153.825 150.994 152.688 150.755 151.69 150.87C150.691 150.984 149.546 151.068 148.631 151.514C147.785 151.926 147.358 152.647 146.304 152.404C146.721 153.124 145.974 153.54 145.866 154.188C145.728 155.022 145.996 155.768 146.546 156.401C147.684 157.71 149.385 157.685 150.967 157.812C152.304 157.92 153.95 158.142 154.735 159.396C155.242 160.205 154.783 160.788 155.02 161.6C155.195 162.199 155.926 162.543 156.245 163.057C157.316 161.48 157.278 158.101 156.625 156.415C156.317 155.618 155.734 154.581 155.271 153.881C155.12 153.652 154.763 153.379 154.668 153.19C154.504 152.863 154.524 152.293 154.344 151.96Z" fill="#FF5678"/>
<path fill-rule="evenodd" clip-rule="evenodd" d="M279.14 362.321C281.076 361.563 283.464 361.917 285.494 361.954C288.044 362 290.6 362.194 293.142 362.393C298.023 362.776 302.88 362.614 307.765 363.071C310.191 363.297 312.618 363.507 315.045 363.714C317.17 363.895 319.638 364.459 321.76 364.053C322.636 363.885 325 363.061 324.562 361.777C324.224 360.786 321.562 360.175 320.695 359.893C318.655 359.23 316.549 358.754 314.487 358.162C313.429 357.859 312.374 357.532 311.259 357.637C310.313 357.727 309.316 358.434 308.357 358.352C306.939 358.232 306.208 356.45 305.168 355.664C303.512 354.412 302.284 355.081 301.014 356.461C300.076 357.481 299.182 359.024 297.641 359.115C295.682 359.231 295.301 357.55 296.165 356.124C296.962 354.81 299.13 353.464 299.246 351.826C299.32 350.791 297.666 348.022 296.714 347.628C295.114 346.966 292.851 348.719 291.404 349.258C288.877 350.197 286.298 351.029 283.739 351.877C281.989 352.457 279.391 352.509 279.061 354.561C278.647 357.131 279.151 359.741 279.14 362.321ZM178.978 322.814C179.487 321.685 180.021 321.044 179.004 319.996C178.435 319.411 177.633 319.123 177.073 318.515C176.232 317.602 174.914 315.107 176.717 314.478C178.44 313.877 179.892 316.278 181.28 316.806C183.04 317.475 184.131 316.353 184.382 314.669C184.706 312.506 184.35 310.246 184.608 308.056C184.86 305.909 185.61 304.126 186.185 302.07C186.575 300.676 187.051 299.273 185.283 298.964C183.661 298.68 181.78 299.355 180.136 299.445C177.571 299.586 174.975 299.716 172.432 300.1C169.592 300.53 169.644 303.437 168.931 305.813C167.202 311.573 164.884 317.226 163.804 323.164C163.339 325.725 164.573 327.479 166.009 329.492C167.807 332.013 169.677 334.528 171.713 336.863C173.072 338.423 174.604 339.875 176.584 340.592C178.827 341.405 179.684 340.503 179.167 338.29C178.484 335.369 177.453 332.548 177.574 329.506C177.619 328.398 177.941 327.208 177.143 326.281C176.589 325.638 175.641 325.421 174.919 325.03C173.728 324.385 171.883 322.308 174.203 321.861C175.778 321.557 177.453 322.617 178.978 322.814ZM232.552 208.402C233.967 209.984 235.506 211.497 236.848 213.141C237.618 214.083 238.163 215.216 238.989 216.11C240.798 218.066 242.6 215.898 244.201 214.631C250.501 209.646 256.428 204.245 262.43 198.91C265.29 196.368 268.332 194.024 271.146 191.434C273.996 188.81 276.37 185.739 279.04 182.943C280.323 181.6 281.858 180.269 282.65 178.554C283.325 177.092 283.474 175.501 284.244 174.055C285.577 171.551 288.021 168.644 287.46 165.615C285.81 167.347 283.061 173.551 280.182 170.642C278.127 168.565 280.226 165.494 280.135 163.073C278.183 163.901 278.69 167.262 276.61 167.857C275.485 168.178 274.523 167.159 273.998 166.265C273.091 164.72 273.424 163.102 273.836 161.463C274.116 160.346 275.908 156.661 274.136 156.206C272.6 155.813 271.313 158.64 270.804 159.641C269.871 161.479 269.149 163.379 268.124 165.176C266.358 168.275 264.324 171.235 262.384 174.227C258.388 180.39 253.833 186.174 249.146 191.822C244.141 197.855 238.723 203.543 232.552 208.402ZM276.931 228.002C276.729 233.43 272.069 237.546 268.037 240.564C262.884 244.422 258.13 248.806 251.985 251.001C249.619 251.846 246.665 251.603 245.717 254.268C245.346 255.31 245.683 255.693 246.084 256.742C246.712 258.383 247.09 260.163 247.388 261.89C248.401 267.766 247.416 273.75 243.888 278.643C242.013 281.244 239.616 283.455 237.139 285.471C234.667 287.482 232.329 289.828 229.605 291.491C223.793 295.039 217.337 297.076 210.636 298.057C207.151 298.567 203.651 299.021 200.131 299.201C198.306 299.295 196.477 299.312 194.651 299.232C193.835 299.196 190.8 298.506 190.211 298.974C189.757 299.334 189.555 301.515 189.464 302.117C189.271 303.389 189.119 304.644 188.856 305.905C188.329 308.437 187.619 311.302 188.396 313.856C188.621 314.595 188.803 315.196 189.487 315.444C189.92 315.602 190.687 315.325 191.125 315.28C192.116 315.178 193.052 315.138 194.048 315.244C197.319 315.591 200.53 316.427 203.836 316.199C210.882 315.713 217.936 315.217 224.918 314.113C228.314 313.577 231.573 312.561 234.913 311.776C238.096 311.029 241.277 310.274 244.249 308.869C250.07 306.117 255.449 302.476 260.255 298.211C265.386 293.658 268.782 288.26 271.991 282.237C274.811 276.947 277.188 271.591 277.064 265.492C276.986 261.632 276.433 256.849 278.663 253.445C279.682 251.89 281.736 250.449 283.65 251.271C287.125 252.764 283.843 255.719 282.518 257.338C280.609 259.671 280.865 263.223 280.668 266.075C280.433 269.441 279.678 272.394 278.941 275.649C278.22 278.835 279.674 282.615 279.818 285.865C279.974 289.39 279.871 292.918 279.832 296.444C279.754 303.456 280.079 310.45 280.055 317.462C280.042 321.098 280.135 324.753 279.905 328.384C279.696 331.696 279.019 334.864 278.425 338.115C277.843 341.306 276.995 345.127 277.191 348.371C285.152 345.338 292.901 341.756 300.984 339.046C298.463 336.846 298.351 333.737 298.147 330.634C297.88 326.542 297.206 322.484 296.913 318.393C296.333 310.311 296.496 301.81 297.183 293.737C297.92 285.071 299.228 276.433 299.497 267.73C299.627 263.537 299.302 259.334 298.62 255.197C298.045 251.711 297.546 247.325 295.73 244.237C293.995 241.286 290.805 239.412 288.143 237.402C284.251 234.462 280.645 231.157 276.931 228.002ZM277.413 114.645C278.41 115.994 279.536 117.239 280.727 118.418C281.957 119.634 282.481 119.365 283.952 118.732C286.877 117.474 286.821 116.019 285.188 113.496C281.401 107.644 279.964 100.675 275.956 94.9433C272.006 89.2957 266.262 84.7326 260.232 81.476C253.76 77.9813 246.748 76.8693 239.453 76.9735C235.726 77.027 231.974 77.2845 228.27 77.7025C224.666 78.1089 221.461 79.2924 217.973 80.1861C216.217 80.6358 214.406 81.0089 212.699 81.6269C211.201 82.1689 209.854 83.006 208.341 83.5125C205.028 84.6203 201.694 85.8586 198.705 87.6705C195.782 89.4425 193.149 91.3322 190.495 93.5074C187.747 95.7602 185.359 98.3784 182.387 100.356C179.681 102.158 177.529 104.584 175.075 106.694C172.511 108.899 170.147 111.601 168.224 114.388C166.343 117.113 165.627 120.638 164.492 123.711C163.169 127.287 161.858 131.111 161.359 134.902C160.431 141.968 162.515 150.227 165.164 156.766C167.784 163.233 172.03 168.629 177.097 173.364C179.568 175.673 182.263 177.769 185.283 179.313C187.866 180.634 191.234 183.009 194.046 181.35C195.185 180.678 196.109 179.896 197.425 179.594C198.864 179.263 200.273 179.399 201.434 178.343C202.421 177.446 202.893 176.363 204.189 175.821C205.726 175.179 207.543 175.062 209.188 175.067C212.884 175.079 216.58 176.005 220.107 177.031C223.338 177.972 226.043 179.39 229.476 178.531C232.027 177.892 236.119 176.194 236.668 173.267C237.16 170.651 235.263 167.269 234.308 164.927C232.988 161.692 231.792 158.509 230.963 155.108C230.305 152.412 229.273 148.101 231.129 145.637C232.952 143.217 237.167 143.246 239.786 143.855C241.502 144.254 243.08 145.057 244.797 145.462C246.546 145.875 248.356 146.082 250.141 146.284C256.324 146.985 265.122 145.402 264.793 137.493C264.5 130.444 260.619 123.377 262.891 116.32C263.818 113.443 265.71 110.116 268.861 109.357C271.36 108.755 274.737 109.386 276.942 110.694C278.711 111.744 280.464 113.943 277.413 114.645ZM153.231 146.131C146.997 147.348 142.875 153.924 141.732 159.756C141.215 162.398 141.032 165.545 142.033 168.102C143.187 171.05 146.449 172.28 149.327 172.898C152.618 173.605 155.533 173.329 158.142 171.046C159.288 170.042 160.26 168.872 161.084 167.595C161.926 166.288 163.098 165.336 162.251 163.875C160.151 160.256 158.359 156.701 156.975 152.72C156.358 150.943 155.81 149.208 155.4 147.378C155.075 145.925 154.917 145.039 153.231 146.131ZM207.824 185.607C206.618 186.769 205.232 187.695 203.675 188.32C201.968 189.006 201.449 188.676 201.534 190.654C201.628 192.837 201.644 194.584 200.649 196.616C200.184 197.567 198.464 198.85 198.789 199.92C199.255 201.456 204.03 203.008 205.423 203.545C208.756 204.83 212.644 204.856 215.79 203.041C219.443 200.932 219.767 197.109 218.39 193.409C218.243 193.015 217.709 192.348 217.841 191.917C218.082 191.127 219.075 191.241 219.644 191.542C220.881 192.197 221.398 194.189 221.664 195.432C222.375 198.753 221.069 202.35 218.586 204.638C217.324 205.8 215.745 206.577 214.136 207.137C213.222 207.455 212.263 207.706 211.298 207.803C210.518 207.882 209.534 207.636 208.79 207.858C207.477 208.249 207.419 209.869 207.091 211.054C206.505 213.17 206.26 215.461 206.183 217.65C206.059 221.192 206.48 225.704 208.515 228.706C213.264 235.711 222.448 238.142 229.619 241.747C233.431 243.664 236.965 246.071 240.359 248.645C240.694 248.899 241.196 249.397 241.598 249.595C242.958 250.265 241.771 250.022 242.641 249.579C243.312 249.238 243.886 248.498 244.579 248.112C246.174 247.223 247.966 246.743 249.589 245.903C253.363 243.95 256.702 241.526 260.051 238.939C263.483 236.288 266.959 233.868 270.089 230.851C271.409 229.579 272.896 228.53 274.235 227.312C275.584 226.086 273.857 225.576 272.715 224.674C268.827 221.601 264.988 218.43 260.837 215.714C259.452 214.808 258.23 213.586 256.785 212.785C255.277 211.948 254.381 212.697 253.192 213.761C251.894 214.923 250.655 216.063 249.21 217.057C247.3 218.371 245.081 219.004 243.161 220.254C244.394 221.545 247.399 221.977 247.834 223.933C248.277 225.915 245.328 227.462 243.949 228.227C241.516 229.579 238.831 230.4 236.119 230.986C233.862 231.474 230.517 230.739 228.709 232.444C228.193 231.353 227.71 230.782 228.558 229.738C229.406 228.696 230.917 228.516 232.113 228.115C235.344 227.032 238.526 225.589 241.652 224.235C241.237 223.264 240.2 222.598 239.409 221.966C238.281 221.062 237.332 220.061 236.414 218.937C234.661 216.794 233.089 214.507 231.42 212.301C230.696 211.344 230.036 210.389 228.714 210.918C227.547 211.386 226.408 212.599 225.286 213.227C222.75 214.649 220.531 216.013 217.739 216.917C216.614 217.282 212.008 218.319 213.233 215.5C213.596 214.665 214.81 214.321 215.557 213.956C216.939 213.28 218.316 212.592 219.647 211.821C222.381 210.237 224.792 208.19 227.351 206.348C230.173 204.315 233.043 202.342 235.692 200.084C233.056 198.336 230.131 197.056 227.405 195.457C224.65 193.841 221.874 192.381 219.024 190.946C216.754 189.803 214.448 188.584 212.379 187.107C211.556 186.52 208.726 184.079 207.824 185.607ZM290.717 128.761C290.37 128.848 290.026 128.947 289.686 129.058C291.997 132.594 289.446 136.972 290.169 140.799C292.303 139.536 292.582 134.624 295.822 135.532C299.311 136.511 297.575 140.809 298.631 143.268C300.28 141.825 302.205 143.173 302.885 144.884C303.622 146.739 302.601 148.451 302.944 150.286C303.299 152.185 304.359 150.939 304.947 149.819C305.696 148.391 306.35 146.461 306.074 144.829C305.739 142.843 304.406 140.996 303.581 139.192C302.761 137.4 301.985 135.571 300.798 133.981C298.55 130.969 294.646 128.264 290.717 128.761ZM313.066 171.171C311.558 167.401 309.325 163.95 307.898 160.151C307.481 159.04 307.248 157.269 306.145 156.585C305.42 156.135 304.455 156.405 303.655 156.163C302.858 155.922 302.018 155.347 301.446 154.755C300.401 153.67 300.061 152.182 298.828 151.238C297.236 150.019 296.006 149.552 295.249 147.516C294.655 145.916 294.654 145.682 292.867 146.038C290.916 146.428 289.331 145.951 287.985 144.426C285.706 141.843 285.454 138.205 286.573 135.088C287.096 133.63 288.006 131.934 287.25 130.408C286.547 128.99 284.842 127.972 283.761 126.842C281.03 123.985 278.891 120.642 276.33 117.645C275.717 116.928 275.09 116.213 274.617 115.39C274.318 114.868 274.14 113.97 273.445 113.823C272.247 113.568 270.576 115.64 269.973 116.395C265.564 121.919 268.719 129.442 269.256 135.67C269.529 138.841 270.143 142.643 268.738 145.628C267.414 148.442 264.063 149.847 261.239 150.63C257.43 151.687 253.338 151.64 249.462 150.999C247.432 150.663 245.483 150.089 243.561 149.362C241.595 148.618 239.55 147.339 237.546 148.689C234.959 150.431 235.758 153.927 236.326 156.475C237.255 160.637 238.875 164.519 240.308 168.518C241.512 171.876 242.487 176.089 239.956 179.094C237.428 182.096 233.235 183.974 229.333 183.818C221.243 183.495 213.858 177.458 205.591 179.927C207.144 180.57 208.786 180.948 210.304 181.683C212.136 182.571 213.832 183.752 215.611 184.739C219.025 186.635 222.451 188.504 225.788 190.535C228.803 192.37 231.654 194.38 234.531 196.413C238.117 198.947 240.006 196.141 242.306 193.403C247.328 187.429 252.108 181.102 256.671 174.771C260.638 169.266 264.32 163.519 267.188 157.37C268.215 155.17 269.943 151.437 272.946 151.872C275.613 152.257 277.168 155.477 278.546 157.448C279.508 156.758 280.333 155.835 281.631 156.215C282.709 156.53 283.453 157.636 283.93 158.579C284.258 159.227 284.481 161.413 285.029 161.742C285.419 161.976 286.909 161.473 287.573 161.626C289.846 162.152 290.573 165.076 290.55 167.106C290.518 169.904 289.35 172.703 288.393 175.294C286.247 181.101 282.572 185.64 278.52 190.229C274.408 194.886 270.103 199.107 265.465 203.24C264.321 204.26 263.188 205.291 262.072 206.342C261.157 207.204 259.708 208.101 258.991 209.114C257.666 210.987 261.212 211.838 262.531 212.524C268.208 215.474 273.439 219.36 278.439 223.322C283.594 227.409 288.779 231.511 293.733 235.841C298.579 240.076 303.157 244.591 308.26 248.53C313.503 252.576 318.997 256.313 324.385 260.163C329.779 264.018 335.026 268.073 340.413 271.932C345.677 275.703 351.328 278.936 356.866 282.285C359.762 284.037 362.674 285.763 365.584 287.493C367.937 288.891 370.491 291.065 373.281 291.242C375.794 291.401 378.178 292.327 379.681 289.591C380.821 287.515 380.349 284.658 379.35 282.641C378.131 280.179 376.225 277.915 374.693 275.637C372.932 273.017 371.297 270.321 369.558 267.688C367.892 265.163 366.039 262.832 364.179 260.453C362.294 258.04 360.864 255.321 359.183 252.766C355.592 247.306 351.899 241.944 348.494 236.361C340.685 223.556 333.692 210.338 327.009 196.921C326.42 195.739 312.682 171.381 313.066 171.171ZM302.072 249.893C306.269 264.412 303.848 279.176 302.988 293.947C302.553 301.415 302.487 308.929 302.294 316.408C302.2 320.043 302.206 323.681 302.357 327.315C302.433 329.143 302.567 330.964 302.697 332.789C302.812 334.402 302.379 336.186 302.582 337.743C302.843 339.737 306.798 340.128 305.583 342.687C304.768 344.404 301.913 344.666 300.384 345.39C301.063 346.178 302.127 347.357 303.261 347.431C304.283 347.498 305.072 346.611 305.988 346.276C306.801 345.978 307.919 345.69 308.432 346.639C308.97 347.634 307.844 348.739 307.399 349.51C308.913 349.803 309.96 348.898 311.325 348.981C312.762 349.069 312.827 350.484 313.771 351.302C314.851 352.239 316.736 352.44 318.067 352.834C319.616 353.292 321.172 353.86 322.582 354.655C325.103 356.077 327.269 358.763 328.2 361.512C329.166 364.362 327.658 366.828 325.412 368.576C324.576 369.227 323.376 369.984 322.266 369.633C320.998 369.231 320.8 368.198 319.254 368.275C317.866 368.344 316.548 368.899 315.153 368.97C313.102 369.075 311.052 368.701 308.999 368.779C300.713 369.098 292.426 369.169 284.154 368.371C282.013 368.165 279.916 367.996 277.806 367.929C276.165 367.876 276.028 366.652 275.75 365.114C275.078 361.401 276.563 357.746 275.828 354.137C275.877 354.375 274.715 353.756 274.575 353.638C273.723 352.92 273.438 351.899 273.184 350.839C272.507 348.015 272.514 345.137 272.724 342.257C273.199 335.72 274.414 329.243 274.315 322.671C274.264 319.359 274.364 316.054 274.366 312.743C274.366 309.701 274.641 306.7 274.667 303.679C274.723 297.057 275.419 290.509 275.614 283.894C274.237 285.235 273.506 287.104 272.631 288.778C271.555 290.835 270.355 292.871 269.041 294.786C266.328 298.74 262.687 301.957 258.916 304.874C251.719 310.441 243.9 314.751 235.082 317.112C225.536 319.668 215.882 321.393 206.042 322.363C203.765 322.587 201.462 322.708 199.18 322.486C197.686 322.341 195.257 321.133 193.837 321.746C192.224 322.443 191.899 324.118 189.783 323.649C188.976 323.469 188.391 322.929 187.684 322.566C186.644 322.03 186.603 322.4 185.61 322.468C184.503 322.544 183.84 321.991 182.875 322.882C182.056 323.64 182.135 324.171 182.884 324.88C183.935 325.876 185.619 326.043 186.672 327.084C187.696 328.096 187.512 329.34 185.93 329.355C184.338 329.37 182.924 328.236 181.368 328.088C181.7 332.694 183.084 337.84 181.549 342.359C180.837 344.455 179.308 345.806 177.029 345.791C173.215 345.767 169.869 342.255 167.572 339.52C166.303 338.007 165.273 336.309 164.047 334.759C162.794 333.175 161.449 331.582 160.732 329.667C159.968 327.628 160.191 325.583 160.618 323.491C161.146 320.902 161.637 318.286 162.276 315.721C163.514 310.747 166.004 306.206 167.262 301.248C167.737 299.371 167.732 297.17 168.932 295.561C170.203 293.858 172.18 293.748 174.141 293.857C176.568 293.992 178.993 294.261 181.408 294.536C182.932 294.709 186.273 295.81 187.514 294.872C187.941 294.549 187.942 293.703 188.441 293.411C188.923 293.129 189.701 293.331 190.227 293.371C192.834 293.564 195.463 293.799 198.076 293.876C207.784 294.16 218.029 292.645 226.697 288.131C230.72 286.036 233.784 282.738 237.017 279.624C240.196 276.561 242.967 273.264 243.822 268.818C244.603 264.759 244.307 259.904 243.01 255.975C241.747 252.147 237.262 249.829 233.999 247.941C229.472 245.324 224.668 243.155 219.792 241.276C219.018 240.978 218.077 240.599 217.225 240.751C216.182 240.938 215.481 241.843 214.531 242.243C213.402 242.718 212.018 242.72 210.827 242.998C209.672 243.266 208.547 243.636 207.37 243.814C203.666 244.373 198.461 243.927 195.399 241.558C190.395 237.688 193.419 232.21 195.026 227.499C193.327 227.441 191.911 227.839 190.289 227.111C188.673 226.386 187.409 225.101 186.672 223.493C185.332 220.566 186.106 217.202 186.502 214.15C186.68 212.77 186.885 211.401 187.411 210.104C187.818 209.101 188.487 208.144 188.734 207.082C189.006 205.913 188.653 205.845 187.679 205.286C186.176 204.424 185.096 203.432 184.176 201.919C182.375 198.955 182.33 195.721 183.806 192.603C184.404 191.341 185.829 189.606 185.666 188.133C185.527 186.865 184.093 185.878 183.249 185.047C180.642 182.484 177.87 180.117 174.979 177.88C173.627 176.835 172.139 175.886 170.911 174.699C170.011 173.829 169.097 171.937 167.867 171.479C166.635 171.022 165.815 172.399 164.957 173.136C163.619 174.286 162.338 175.61 160.88 176.607C158.266 178.395 155.025 178.061 152.073 177.49C148.989 176.893 146.129 175.842 143.5 174.107C142.455 173.418 141.235 172.019 139.949 171.907C138.575 171.788 137.083 173.154 136.101 173.975C133.537 176.118 132.768 179.445 131.275 182.323C129.608 185.538 128.9 188.874 129.353 192.488C129.761 195.738 131.012 198.195 132.874 200.82C133.258 201.364 134.159 202.39 133.501 202.99C132.695 203.725 131.044 202.251 130.503 201.775C125.129 197.045 122.075 189.917 123.819 182.781C124.756 178.95 126.588 175.405 128.715 172.109C129.619 170.707 130.502 169.305 132.075 168.59C133.865 167.776 135.895 167.873 137.807 167.677C136.484 161.195 136.07 154.142 140.136 148.493C143.255 144.158 149.644 140.365 154.707 143.88C154.5 139.101 153.819 134.563 155.09 129.858C155.659 127.75 156.439 125.698 157.398 123.736C158.337 121.812 159.634 120.182 160.393 118.18C163.387 110.284 169.131 103.23 175.267 97.5633C181.469 91.8348 187.554 84.8462 195.366 81.2623C203.517 77.5228 211.817 74.1624 220.654 72.4633C229.826 70.6996 239.253 70.3376 248.493 72.0074C256.593 73.4713 264.089 78.3934 270.218 83.6997C277.211 89.7547 281.726 97.0545 285.298 105.51C286.082 107.367 286.839 109.241 287.801 111.016C288.869 112.985 290.24 114.817 291.025 116.931C291.725 118.815 291.843 120.86 290.596 122.544C289.719 123.728 287.921 123.995 287.154 125.078C286.767 125.625 286.806 126.144 287.657 126.307C288.535 126.475 288.954 125.494 289.586 125.101C291.158 124.121 293.376 124.956 294.966 125.512C298.735 126.831 301.685 129.2 303.941 132.483C306.099 135.625 307.533 139.195 308.958 142.71C309.857 144.926 310.713 147.129 311.208 149.478C311.395 150.361 311.654 152.757 310.259 151.707C309.693 151.282 308.885 154.511 309.037 155.025C309.568 156.814 311.46 158.491 312.573 159.938C315.192 163.343 316.945 167.156 318.792 171.006C322.792 179.343 327.247 187.436 331.527 195.629C340.243 212.313 349.768 228.357 359.759 244.304C364.709 252.205 369.812 259.971 375.104 267.647C377.439 271.035 379.781 274.424 382.065 277.846C384.006 280.754 385.922 283.992 385.422 287.621C384.965 290.944 382.993 293.613 379.803 294.7C378.094 295.282 376.065 295.954 374.235 295.775C372.235 295.579 370.47 294.24 368.803 293.234C361.14 288.612 353.477 283.995 345.81 279.382C337.235 274.222 329.393 268.096 321.212 262.36C317.049 259.441 312.757 256.81 308.419 254.168C307.443 253.574 303.011 249.311 302.072 249.893Z" fill="black"/>
<path fill-rule="evenodd" clip-rule="evenodd" d="M227.826 264.581C225.731 267.668 223.529 270.568 220.581 272.91C217.475 275.377 214.227 277.376 210.759 279.29C204.644 282.666 196.447 285.655 189.343 284.125C187.323 283.69 184.092 281.921 185.848 279.395C186.73 278.126 188.624 278.457 189.964 278.527C192.123 278.64 194.012 278.763 196.081 278.035C199.883 276.699 203.711 275.438 207.423 273.865C211.019 272.341 214.172 270.25 217.471 268.197C220.565 266.271 222.925 263.966 225.643 261.638C226.387 261 227.667 259.884 228.371 261.124C228.88 262.02 228.105 263.705 227.826 264.581Z" fill="black"/>
<path fill-rule="evenodd" clip-rule="evenodd" d="M312.458 116.335C312.224 117.672 311.591 120.332 309.712 119.969C307.314 119.505 308.495 114.808 308.459 113.213C308.3 106.265 306.036 99.5837 302.685 93.5593C301.018 90.5643 298.965 87.7946 297.451 84.7139C297.156 84.1153 296.263 82.6307 296.912 81.9813C297.691 81.2014 299.184 82.3783 299.733 82.9348C301.856 85.0869 303.546 88.3133 305.184 90.8457C307.372 94.2266 309.304 97.7973 310.692 101.588C312.367 106.168 313.308 111.478 312.458 116.335Z" fill="black"/>
<path fill-rule="evenodd" clip-rule="evenodd" d="M316.944 94.1146C317.168 95.3195 318.263 98.598 316.309 98.8888C314.094 99.2184 313.406 93.7556 312.791 92.3084C312.467 91.5454 310.739 88.1852 311.639 87.4538C313.515 85.931 316.499 93.1449 316.944 94.1146Z" fill="black"/>
<path fill-rule="evenodd" clip-rule="evenodd" d="M212.693 256.708C210.591 258.626 208.15 258.513 205.496 258.331C204.148 258.238 201.027 257.439 203.196 255.766C204.329 254.893 213.218 254.291 212.693 256.708Z" fill="black"/>
<path fill-rule="evenodd" clip-rule="evenodd" d="M376.521 291.813C376.671 291.516 377.932 290.088 378.204 290.665C378.461 291.21 376.854 291.797 376.521 291.813Z" fill="black"/>
<path fill-rule="evenodd" clip-rule="evenodd" d="M209.294 185.82C209.035 186.354 207.955 185.888 207.583 185.969C208.088 184.886 208.689 185.118 209.294 185.82Z" fill="black"/>
<path fill-rule="evenodd" clip-rule="evenodd" d="M290.555 129.146C290.443 129.574 290.331 130.003 290.219 130.431C290.046 130.11 289.873 129.789 289.7 129.469C289.985 129.361 290.27 129.254 290.555 129.146Z" fill="black"/>
<path fill-rule="evenodd" clip-rule="evenodd" d="M292.62 210.025C295.318 210.297 298.026 210.435 300.735 210.518C303.021 210.588 303.961 210.156 304.253 207.777C304.599 204.957 304.717 202.111 305.063 199.29C305.22 198.009 306.462 195.447 304.966 194.761C303.712 194.186 301.756 195.01 300.443 195.106C298.98 195.215 296.772 194.768 295.478 195.636C294.096 196.564 294.397 199.814 294.161 201.339C293.712 204.247 293.171 207.135 292.62 210.025ZM291.333 196.328C288.887 196.513 286.433 196.658 283.995 196.919C282.91 197.036 280.713 197.573 279.798 196.783C277.65 194.927 285.676 194.276 286.587 194.13C288.121 193.883 290.747 194.211 291.731 192.761C292.704 191.327 292.458 188.918 292.71 187.253C293.088 184.747 293.521 182.245 293.774 179.723C293.858 178.876 293.737 176.076 294.632 175.66C296.687 174.704 296.041 184.558 296.007 185.298C295.95 186.57 295.886 187.847 295.709 189.108C295.609 189.819 295.258 190.781 295.475 191.495C296.094 193.543 299.615 192.362 301.219 192.198C303.016 192.015 305.791 192.712 306.386 190.492C307.134 187.703 307.025 184.535 307.302 181.666C307.379 180.872 307.579 174.945 309.04 175.404C310.672 175.917 310.035 180.87 310.02 182.145C310.004 183.585 310.009 185.024 309.912 186.461C309.824 187.752 309.461 189.334 309.73 190.612C310.202 192.854 312.857 191.662 313.628 193.445C314.36 195.14 310.368 193.811 309.622 194.393C308.509 195.263 308.777 198.895 308.618 200.167C308.269 202.961 307.599 205.862 307.381 208.648C307.209 210.846 308.975 210.555 310.772 210.395C312.313 210.259 314.007 209.893 315.552 210.098C316.793 210.263 318.527 211.408 316.72 212.169C313.895 213.361 308.142 210.927 306.723 214.545C306.455 215.227 305.209 223.141 303.643 219.234C302.989 217.601 304.591 215.039 302.883 213.788C302.29 213.354 301.408 213.431 300.721 213.383C299.028 213.265 297.325 213.224 295.63 213.189C293.939 213.154 292.419 212.814 291.766 214.667C291.258 216.111 291.314 217.728 290.908 219.205C290.603 220.313 289.602 222.253 288.564 220.44C287.882 219.25 288.404 217.169 288.539 215.875C288.606 215.227 288.992 213.886 288.501 213.341C287.974 212.757 286.562 213.073 285.895 213.126C283.969 213.279 280.382 214.207 278.908 212.458C277.675 210.996 280.239 210.968 281.247 210.869C282.285 210.767 283.324 210.673 284.362 210.564C285.504 210.443 287.017 210.604 288.092 210.246C289.897 209.644 289.769 207.187 289.887 205.593C290.119 202.48 290.819 199.404 291.333 196.328Z" fill="black"/>
<path fill-rule="evenodd" clip-rule="evenodd" d="M323.06 202.977C322.914 204.775 322.719 206.79 322.139 208.498C321.701 209.789 320.815 210.182 320.513 208.538C320.321 207.496 321.594 201.623 323.06 202.977Z" fill="black"/>
<path fill-rule="evenodd" clip-rule="evenodd" d="M209.049 191.141C208.329 190.624 204.918 187.902 207.383 187.794C208.642 187.739 211.354 189.811 211.432 190.961C211.452 191.251 210.831 191.401 210.865 191.682C210.929 192.217 211.72 192.47 211.975 192.895C212.537 193.833 212.304 195.685 211.578 196.576C209.924 198.608 208.087 195.168 209.367 194.493C209.082 194.643 205.252 192.695 205.109 192.255C204.321 189.844 208.856 192.115 209.049 191.141Z" fill="black"/>
<path fill-rule="evenodd" clip-rule="evenodd" d="M215.061 200.629C214.186 200.657 212.429 200.596 211.774 199.971C210.556 198.809 212.932 198.655 213.627 198.113C214.601 197.355 214.792 194.888 216.322 196.415C217.839 197.929 216.504 199.69 215.061 200.629Z" fill="black"/>
<path fill-rule="evenodd" clip-rule="evenodd" d="M202.451 194.224C204.032 193.992 207.551 197.404 205.843 197.631C204.713 197.782 202.697 195.136 202.451 194.224Z" fill="black"/>
<path fill-rule="evenodd" clip-rule="evenodd" d="M471.812 221.836C472.296 221.645 473.721 220.745 474.243 220.846C475.102 221.012 476.526 223.47 477.109 224.168C478.989 226.421 480.868 228.674 482.748 230.927C483.501 231.829 484.586 232.775 485.121 233.819C485.534 234.622 485.675 235.729 485.921 236.589C488.978 247.277 491.968 258.034 494.194 268.931C494.674 271.276 495.128 273.638 495.395 276.019C495.526 277.195 495.872 278.925 495.359 280.062C494.782 281.344 492.923 281.876 491.715 282.274C489.366 283.047 486.906 283.507 484.473 283.921C478.609 284.916 472.671 285.494 466.745 285.962C464.934 286.105 463.071 286.103 461.271 286.346C460.412 286.462 460.67 286.232 460.399 286.809C460.022 287.612 460.272 289.287 460.227 290.162L459.911 296.338C459.623 301.953 459.336 307.568 459.049 313.183C458.757 318.876 458.466 324.569 458.174 330.262C458.064 332.419 457.953 334.576 457.843 336.733C457.784 337.886 457.96 339.375 457.651 340.491C457.417 341.335 457.801 341.086 456.766 341.137C454.369 341.252 451.886 340.962 449.489 340.876C446.769 340.779 444.05 340.682 441.33 340.584C440.553 340.557 439.686 340.777 439.373 340.22C438.992 339.542 439.282 337.677 439.255 336.92C439.179 334.81 439.104 332.699 439.028 330.589L438.407 313.209C438.124 305.308 437.841 297.407 437.559 289.506C434.535 290.115 431.511 290.723 428.486 291.332C424.018 292.232 419.549 293.131 415.08 294.03C413.031 294.443 410.597 295.384 408.481 295.081C406.379 294.779 405.51 293.881 405.392 291.885C405.265 289.746 405.314 287.59 405.343 285.449C405.39 281.946 405.491 278.445 405.623 274.944C411.594 274.407 417.565 273.869 423.535 273.33C426.714 273.044 429.894 272.758 433.073 272.471C433.794 272.406 435.573 272.546 435.895 272.001C436.396 271.156 435.838 268.375 435.823 267.419C435.776 264.405 435.728 261.39 435.681 258.376C435.507 247.286 435.333 236.196 435.159 225.106C436.588 225.153 438.018 225.195 439.447 225.235C445.667 225.411 451.916 225.665 458.137 225.474C461.257 225.378 464.213 224.537 467.158 223.543C468.724 223.015 470.275 222.44 471.812 221.836ZM465.811 251.798L462.634 267.341L473.506 266.62L465.811 251.798Z" fill="#FF5678"/>
<path fill-rule="evenodd" clip-rule="evenodd" d="M556.623 125.742C556.401 127.471 556.559 129.356 554.607 129.812C552.802 130.234 550.821 130.115 548.979 130.263C546.911 130.429 544.848 130.657 542.783 130.861C540.18 131.119 540.551 130.119 539.982 127.895C539.462 125.865 538.632 123.838 537.942 121.858C537.621 120.938 537.238 120.091 536.801 119.223C536.404 118.438 536.593 117.37 536.166 116.71C534.708 114.458 527.601 120.616 526.941 119.402C528.143 118.466 530.225 117.418 530.594 115.816C531.027 113.932 529.831 113.37 528.328 114.058C524.628 115.754 520.358 117.079 516.324 117.696C517.628 116.824 529.431 109.948 525.47 107.908C524.577 107.448 523.385 108.314 522.58 108.641C521.302 109.161 519.967 109.509 518.634 109.85C517.228 110.208 515.819 110.554 514.406 110.88C513.415 111.109 511.648 111.922 510.682 111.721C509.702 111.517 511.439 110.908 511.723 110.765C512.963 110.14 514.183 109.469 515.394 108.789C517.542 107.582 519.525 106.185 521.159 104.319C522.392 102.912 524.427 99.8377 523.569 97.8914C523.072 96.7632 521.982 95.7205 521.341 94.6516C520.594 93.4032 519.99 92.0726 519.341 90.7719C520.428 91.2498 521.648 91.3722 522.757 91.8011C523.866 92.2303 524.992 92.5776 526.146 92.8967C528.461 93.5367 530.77 93.6504 533.064 94.1695C535.661 94.7568 538.367 95.4136 541.005 95.753C543.302 96.0481 545.368 96.677 547.336 97.9297C551.356 100.489 554.144 104.165 555.554 108.711C556.381 111.374 556.582 114.153 556.679 116.924C556.782 119.845 556.997 122.834 556.623 125.742ZM534.065 125.957C531.258 128.004 527.986 129.603 524.973 131.344C523.25 132.34 521.489 133.271 519.731 134.204C518.484 134.867 516.968 136.086 515.595 136.426C514.726 136.641 514.791 136.657 514.241 135.865C513.715 135.108 513.256 134.294 512.765 133.515C511.858 132.078 510.942 130.647 510.027 129.216C507.975 126.007 505.927 122.8 503.771 119.66C501.608 116.509 499.533 113.3 497.437 110.105C496.463 108.619 495.495 107.128 494.462 105.683C493.672 104.58 491.649 102.898 492.61 101.599C493.503 100.392 495.536 99.3899 496.738 98.4766C498.208 97.3616 499.686 96.2581 501.152 95.1374C504.302 92.7282 507.37 90.2143 510.518 87.8019C513.189 92.4882 516.332 96.8816 519.502 101.239C516.635 103.068 513.739 104.807 510.718 106.374C508.488 107.531 505.074 109.094 503.665 111.288C502.277 113.449 503.64 115.943 506.115 115.982C507.595 116.006 509.07 115.614 510.521 115.39C511.568 115.228 513.48 114.473 514.425 115.005C512.727 116.088 506.57 119.245 509.889 122.013C512.262 123.991 516.273 121.104 518.836 121.698C518.054 123.198 517.243 125.59 519.411 126.406C521.215 127.084 523.577 125.819 525.201 125.148C526.375 124.663 527.541 124.162 528.695 123.633C529.612 123.212 530.711 122.359 531.692 122.178C532.836 121.966 535.165 125.155 534.065 125.957ZM481.885 236.48C483.491 236.187 484.315 235.522 484.821 237.473C485.274 239.22 485.723 240.902 486.307 242.617C483.799 242.834 481.586 244.032 479.757 245.717C478.454 246.918 475.863 249.784 476.506 251.794C478.066 256.681 485.947 245.719 486.883 244.547C488.03 246.223 488.452 248.417 489.021 250.334C489.427 251.698 490.932 254.313 488.942 254.644C486.149 255.11 480.908 256.15 481.24 260.107C481.631 264.778 487.571 264.752 490.904 264.961C492.783 265.08 492.791 266.585 493.059 268.271C493.179 269.024 493.553 270.043 492.913 270.595C492.345 271.084 490.605 271.098 489.865 271.256C487.71 271.719 485.556 272.191 483.401 272.654C480.954 273.179 479.66 272.443 477.373 271.773C476.526 271.525 475.676 271.63 475.613 270.681C475.575 270.099 476.145 269.2 476.331 268.624C477.069 266.347 477.698 264.003 477.91 261.612C478.219 258.137 477.833 252.928 473.556 252.25C471.521 251.927 471.129 251.822 470.211 249.912C469.217 247.847 467.64 245.933 468.021 243.554C468.297 241.83 467.831 238.567 468.932 237.137C469.44 236.476 470.432 236.081 471.109 235.596C471.971 234.978 472.802 234.315 473.605 233.622C474.281 233.04 475.106 231.901 475.872 231.481C476.809 230.966 476.837 231.317 477.51 232.12C478.502 233.306 480.08 236.809 481.885 236.48ZM486.424 244.199C485.868 245.322 484.581 246.367 483.762 247.305C482.938 248.248 482.158 249.245 481.239 250.1C480.227 251.041 476.634 253.314 477.426 250.254C478.042 247.874 480.347 245.947 482.376 244.759C482.768 244.529 487.366 242.298 486.424 244.199ZM490.355 255.528C490.711 257.121 490.903 258.763 491.207 260.367C491.363 261.187 492.225 263.169 491.874 263.957C491.278 265.295 485.917 263.712 484.806 263.252C482.161 262.156 480.946 259.345 483.386 257.342C484.311 256.584 489.999 253.936 490.355 255.528ZM493.869 274.658C494.168 276.179 495.041 277.589 493.597 278.738C492.398 279.693 490.434 280.344 488.957 280.684C486.943 281.147 486.295 280.018 485.229 278.567C484.083 277.006 482.863 275.497 481.597 274.032C485.573 273.142 489.548 272.252 493.524 271.362C493.521 272.469 493.656 273.573 493.869 274.658ZM484.344 281.716C482.271 281.608 480.04 282.232 477.937 282.397C475.312 282.602 472.693 282.9 470.065 283.076C470.738 280.927 471.948 279.011 472.894 276.982C473.843 274.945 474.509 274.724 476.693 274.567C478.716 274.422 480.143 273.725 481.636 275.442C483.189 277.227 484.596 279.168 486.014 281.06C485.532 281.383 484.955 281.747 484.344 281.716ZM469.524 282.154C469.013 282.527 467.435 281.467 466.904 281.262C465.87 280.862 465.641 280.734 465.101 279.725C464.637 278.857 463.9 277.872 463.754 276.881C463.563 275.577 464.14 273.858 464.35 272.561C464.91 273.911 466.748 274.068 467.989 274.289C468.928 274.456 471.71 274.19 472.418 274.859C473.2 275.598 471.76 277.658 471.385 278.435C470.937 279.361 470.384 281.528 469.524 282.154ZM468.522 283.225C467.907 283.324 466.135 283.937 466.17 282.812C466.21 281.528 468.648 282.913 468.522 283.225ZM465.4 283.157C465.288 284.239 462.961 284.149 462.907 283.198C462.817 281.59 465.579 281.43 465.4 283.157ZM462.739 253.987C462.144 255.682 458.521 256.288 457.129 256.81C455.858 257.287 452.061 259.487 450.75 258.689C455.186 255.639 459.732 252.651 463.491 248.757C463.645 249.719 463.411 250.523 463.127 251.433C462.871 252.255 463.003 253.236 462.739 253.987ZM461.636 260.168C460.998 264.319 460.371 268.526 459.507 272.636C457.861 272.133 456.504 271.113 454.774 270.758C453.196 270.434 451.566 270.426 449.975 270.663C446.584 271.167 443.561 272.845 440.602 274.479C440.329 271.632 439.763 268.585 439.83 265.728C439.886 263.355 443.946 262.652 445.788 261.672C446.902 261.079 447.91 260.245 449.179 260.038C450.486 259.825 451.746 259.831 453.037 259.433C456.088 258.492 458.959 256.999 461.948 255.886C462.192 257.312 461.853 258.763 461.636 260.168ZM458.785 277.738C458.65 278.682 458.821 280.366 458.102 281.085C457.425 281.763 455.978 281.785 455.086 281.968C452.366 282.528 449.648 283.093 446.932 283.671C445.717 283.929 444.502 284.176 443.282 284.407C442.7 284.516 441.24 285.075 440.75 284.612C440.285 284.172 440.631 282.766 440.656 282.177C440.706 280.999 440.773 279.818 440.699 278.64C440.557 276.381 440.683 275.515 442.785 274.346C445.019 273.104 447.326 272.254 449.841 271.793C452.386 271.327 454.812 271.582 457.235 272.56C457.909 272.831 458.92 273.167 459.234 273.894C459.661 274.883 458.929 276.735 458.785 277.738ZM455.723 314.161C454.726 314.786 452.557 314.68 451.411 314.807C449.562 315.011 447.701 314.894 445.864 314.609C444.481 314.394 442.417 314.097 441.357 313.126C439.851 311.746 441.589 311.683 442.742 311.78C446.092 312.061 449.485 311.865 452.832 311.623C453.484 311.575 455.235 311.003 455.864 311.271C456.667 311.613 456.421 313.723 455.723 314.161ZM453.823 336.459C447.581 335.852 443.962 330.682 441.698 325.397C440.483 322.559 440.921 319.581 440.801 316.58C440.779 316.032 440.435 314.672 440.998 314.263C441.528 313.878 443.669 315.067 444.248 315.209C447.218 315.937 450.501 316.007 453.477 315.3C454.766 314.994 455.488 314.424 455.898 315.702C456.227 316.731 455.686 318.627 455.627 319.706C455.525 321.571 455.817 336.653 453.823 336.459ZM441.353 336.465C441.329 335.559 440.872 326.407 441.315 326.38C442.632 329.221 443.985 331.763 446.383 333.853C447.608 334.922 448.985 335.885 450.516 336.458C451.092 336.673 454.353 336.837 454.513 337.551C454.792 338.801 452.566 338.296 451.906 338.195C451.376 338.113 450.899 337.887 450.379 337.793C449.389 337.613 448.454 337.854 447.459 337.874C445.948 337.905 444.465 337.747 442.953 337.878C441.571 337.997 441.39 337.838 441.353 336.465ZM442.274 295.415C447.618 293.687 452.085 296.959 454.905 301.241C456.513 303.684 456.873 305.391 456.592 308.283C456.491 309.318 456.677 310.019 455.725 310.441C454.783 310.858 452.644 310.549 451.625 310.596C448.694 310.733 445.774 310.915 442.844 310.742C440.94 310.629 440.671 310.306 440.704 308.458C440.743 306.233 440.558 304.018 440.433 301.789C440.296 299.379 439.469 296.322 442.274 295.415ZM440.526 292.21C440.529 290.575 440.431 288.898 440.531 287.266C440.63 285.647 441.319 285.728 442.846 285.451C446.154 284.853 449.457 284.184 452.72 283.373C454.01 283.053 455.469 282.437 456.813 282.432C458.224 282.427 458.149 283.152 458.055 284.402C457.846 287.17 457.339 289.896 457.185 292.649C457.019 295.62 456.931 298.63 456.945 301.604C456.949 302.608 457.193 303.352 456.338 302.412C455.481 301.471 455.061 299.971 454.296 298.913C452.729 296.748 450.4 295.005 447.815 294.271C446.386 293.866 444.883 293.795 443.426 294.089C442.984 294.178 440.77 295.235 440.488 295.026C440.298 294.885 440.525 292.276 440.526 292.21ZM460.076 348.869C462.196 350.387 464.543 351.613 466.919 352.678C468.256 353.277 473.548 354.538 473.717 355.887C473.807 356.606 472.93 357.413 472.356 357.498C471.627 357.606 470.426 357.13 469.684 357.04C466.985 356.712 464.291 356.71 461.658 355.958C456.399 354.457 450.948 354.034 445.635 352.726C444.371 352.415 443.104 352.123 441.833 351.841C440.626 351.573 440.086 351.619 440.043 350.329C439.949 347.498 440.761 344.597 440.767 341.731C445.065 342.221 449.378 342.215 453.688 342.619C455.535 342.792 455.492 343.142 456.301 344.756C457.141 346.43 458.57 347.791 460.076 348.869ZM439.119 256.885C439.065 255.837 439.023 254.786 438.928 253.741C438.864 253.039 438.223 251.076 438.584 250.529C439.014 249.88 439.447 250.276 440.215 250.258C441.229 250.234 442.077 249.827 442.913 249.293C444.495 248.284 445.672 246.955 446.699 245.404C447.602 244.039 447.434 242.174 447.423 240.54C447.394 236.314 447.702 232.191 447.444 227.946C447.326 225.997 448.99 227.192 450.334 227.445C452.532 227.858 454.921 227.572 457.155 227.577C457.072 228.097 452.504 229.387 451.766 229.878C449.876 231.135 448.775 233.146 448.947 235.438C449.294 240.05 454.372 240.82 458.082 240.829C455.004 243.552 451.98 246.147 449.561 249.506C447.777 251.982 444.635 256.865 447.551 259.604C444.974 261.069 442.418 262.698 439.503 263.403C439.372 261.231 439.232 259.059 439.119 256.885ZM437.949 172.704C438.999 173.379 439.44 172.425 440.239 171.932C441.364 171.236 441.736 171.304 441.879 169.751C442.143 166.869 440.931 164.261 439.409 161.903C438.718 160.832 438.028 159.555 437.052 158.717C436.162 157.954 435.262 158.217 434.438 157.427C434.114 157.117 434.183 156.678 433.648 156.691C433.296 156.699 432.439 157.791 432.148 158.032C431.229 158.793 430.104 159.373 428.9 158.745C427.146 157.831 427.709 154.515 429.071 153.441C430.121 152.614 431.36 152.742 432.555 152.608C433.45 152.509 433.637 152.548 433.268 151.522C433.01 150.805 432.415 150.244 432.121 149.542C431.556 148.194 431.679 146.555 431.435 145.128C431.215 143.85 430.703 142.467 430.721 141.169C430.746 139.515 431.286 139.086 432.718 138.622C434.106 138.173 435.255 137.183 436.436 136.352C437.774 135.41 439.239 134.788 440.614 133.929C441.547 133.345 442.15 132.165 443.176 132.716C444.395 133.371 445.685 135.267 446.722 136.236C445.204 137.2 444.852 137.621 445.06 139.507C445.253 141.236 445.605 142.776 446.926 143.981C447.433 144.444 448.38 144.814 448.774 145.348C449.233 145.97 448.934 145.422 448.876 146.124C448.846 146.502 448.546 146.75 448.611 147.187C448.902 149.13 451.134 147.983 452.054 147.308C455.34 144.897 449.204 142.981 447.747 142.103C446.741 141.496 446.243 139.559 447.838 140.073C448.898 140.416 451.294 143.318 451.537 140.672C454.167 142.2 455.79 145.446 457.995 147.499C459.585 148.979 461.721 150.621 460.459 152.985C458.851 155.998 455.661 157.366 452.749 158.667C449.925 159.928 450.512 163.496 452.021 165.68C452.894 166.943 454.038 167.683 455.413 168.296C456.819 168.923 457.111 169.66 457.417 171.114C457.758 172.727 457.396 173.378 456 174.211C454.636 175.025 453.21 175.814 451.754 176.451C448.606 177.829 445.341 177.916 441.992 178.385C440.819 178.55 439.693 178.893 439.053 177.729C438.333 176.419 438.28 174.164 437.949 172.704ZM437.443 166.437C436.655 166.022 434.753 167.402 433.757 167.462C432.145 167.56 431.087 167.523 429.657 168.378C426.952 169.994 424.709 172.075 422.54 174.331C420.098 176.873 417.669 179.427 415.235 181.976C414.132 183.131 413.023 184.28 411.903 185.417C411.02 186.313 410.156 187.574 409.063 188.213C409.12 187.454 409.586 186.916 409.751 186.212C409.847 185.8 409.679 185.451 409.741 185.056C409.762 184.928 410.105 184.483 410.158 184.337C410.297 183.952 410.468 183.571 410.633 183.172C410.788 182.798 410.765 182.411 410.922 182.021C411.083 181.619 411.525 181.353 411.678 180.957C412.127 179.798 411.384 179.261 410.195 179.288C410.66 176.969 410.864 175.835 413.288 175.017C415.604 174.236 417.866 173.358 419.994 172.138C421.883 171.054 423.459 169.492 425.275 168.284C426.901 167.202 428.924 166.069 428.908 163.851C429.829 164.476 430.693 165.002 431.748 164.38C432.638 163.854 432.756 163.431 433.784 163.332C434.624 163.251 435.145 163.23 435.894 163.599C436.776 164.033 436.897 164.336 437.41 163.056C437.994 163.548 439.47 165.595 439.421 166.405C439.394 166.852 439.326 167.053 438.773 167.171C437.989 167.338 438.019 166.741 437.443 166.437ZM433.768 287.591C433.385 288.179 431.768 288.071 431.144 288.063C429.241 288.038 428.576 286.441 427.741 284.897C426.425 282.464 424.457 277.408 426.617 274.854C428.321 272.839 431.641 275.378 432.804 276.901C433.808 278.216 433.51 280.189 433.603 281.767C433.682 283.097 434.526 286.431 433.768 287.591ZM428.57 288.473C427.809 289.234 425.34 289.073 424.332 289.236C422.532 289.527 420.743 289.877 418.998 290.409C417.698 290.805 416.414 291.869 416.071 290.057C415.783 288.534 415.926 286.707 415.954 285.17C415.984 283.511 416.157 281.873 416.301 280.222C416.399 279.105 416.155 277.051 417.066 276.194C417.852 275.455 419.761 275.384 420.781 275.139C422.455 274.738 424.205 274.21 425.946 274.39C424.93 277.147 424.844 280.038 425.933 282.785C426.243 283.569 429.04 288.003 428.57 288.473ZM415.773 277.49C415.349 281.637 414.922 285.81 415.331 289.978C415.356 290.226 415.652 291.365 415.523 291.543C415.39 291.727 414.333 291.823 414.093 291.879C413.14 292.106 412.189 292.345 411.23 292.546C409.363 292.936 409.12 291.757 408.754 290.027C407.969 286.32 409.49 282.3 410.411 278.74C410.86 277.006 411.193 276.807 412.897 276.663C414.084 276.563 415.954 275.728 415.773 277.49ZM408.566 292.961C407.853 293.61 407.14 290.548 407.077 290.237C406.827 288.997 406.966 287.741 406.97 286.482C406.976 284.517 406.826 282.56 406.823 280.604C406.821 279.546 406.028 277.382 407.28 276.822C407.648 276.658 409.107 276.727 409.438 276.943C410.126 277.392 409.855 277.683 409.651 278.465C409.195 280.219 408.8 281.982 408.403 283.751C408.013 285.485 407.628 287.153 407.814 288.944C407.875 289.537 409.02 292.548 408.566 292.961ZM431.313 273.639C433.052 273.149 433.145 274.482 433.142 275.757C432.877 275.554 430.406 273.895 431.313 273.639ZM408.055 180.032C407.629 180.734 404.93 180.926 404.159 181.111C402.642 181.474 401.125 181.835 399.612 182.214C396.777 182.923 394.012 183.722 391.106 184.093C392.702 181.538 393.198 179.331 392.901 176.142C392.527 172.116 392.051 168.13 391.124 164.189C390.21 160.302 389.152 156.442 388.134 152.582C387.633 150.685 387.092 148.825 386.426 146.979C385.893 145.5 385.059 143.638 385.965 142.122C388.264 143.799 390.107 145.606 391.418 148.154C392.823 150.886 394.049 153.69 395.679 156.303C396.424 157.498 397.295 158.587 398.092 159.744C398.566 160.432 398.912 161.425 399.516 162.005C400.212 162.674 400.955 162.99 401.353 161.861C401.78 160.649 400.418 158.252 400.016 157.114C399.045 154.367 398.082 151.626 397.333 148.808C396.727 146.531 395.725 143.777 396.08 141.374C396.431 138.995 398.044 140.697 398.861 141.803C400.545 144.084 401.553 146.742 402.659 149.327C403.675 151.702 404.861 153.967 405.986 156.287C406.377 157.094 406.893 159.18 407.918 159.42C409.408 159.769 409.282 157.67 409.14 156.818C408.196 151.173 405.73 145.767 405.219 140.023C405.194 139.748 404.838 137.614 405.124 137.436C405.68 137.091 406.429 139.256 406.669 139.786C407.915 142.545 408.784 145.454 409.58 148.368C410.258 150.847 410.87 153.344 411.631 155.799C412.049 157.149 412.528 158.476 413 159.807C413.427 161.013 413.86 163.074 414.974 163.868C416.555 164.995 422.21 162.315 422.783 164.711C423.191 166.414 417.947 167.786 416.83 168.303C415.36 168.984 413.918 169.729 412.447 170.411C411.333 170.926 409.733 171.137 408.927 172.108C408.074 173.135 407.937 174.578 407.912 175.853C407.892 176.818 408.561 179.199 408.055 180.032ZM404.481 198.628C404.406 199.163 403.981 199.872 403.79 200.381C403.4 201.419 403.069 202.659 402.527 203.628C402.061 204.463 401.373 205.21 400.923 206.057C400.496 206.861 400.439 207.788 399.94 208.594C399.369 209.514 398.425 210.175 397.858 211.09C397.579 211.541 397.29 212.056 396.896 212.536C395.497 214.238 394.109 215.843 392.984 217.666C392.697 218.133 391.292 220.17 390.733 220.28C389.565 220.51 390.925 218.848 391.153 218.505C392.809 216.019 394.28 213.403 395.878 210.879C397.426 208.435 399.01 206.01 400.5 203.529C401.715 201.507 402.555 198.603 404.53 197.178C404.538 197.663 404.522 198.146 404.481 198.628ZM458.472 175.786C459.434 179.741 460.584 183.573 461.669 187.493C462.675 191.13 464.014 195.021 464.431 198.771C464.844 202.485 465.793 206.242 467.07 209.768C467.66 211.399 468.267 213.036 468.908 214.648C469.26 215.534 469.653 216.4 470.053 217.264C470.363 217.937 471.182 219.025 471.214 219.737C471.239 220.307 471.437 220.079 470.874 220.508C470.292 220.952 469.282 220.79 468.604 220.869C466.834 221.073 465.108 221.739 463.382 222.171C460.055 223.003 456.088 223.663 452.678 223.084C451.244 222.84 449.754 222.629 448.336 222.312C446.591 221.922 446.232 221.199 445.874 219.484C445.09 215.733 444.416 211.992 443.769 208.217C443 203.726 442.168 199.24 441.574 194.721C440.975 190.149 440.544 185.573 439.605 181.051C443.394 181.685 446.962 182.401 450.762 181.362C454.128 180.443 456.557 178.645 458.472 175.786ZM473.305 224.749C474.152 226.495 472.11 228.065 471.121 229.41C469.816 231.183 468.597 233.035 467.08 234.639C466.624 232.817 466.225 230.766 465.01 229.27C463.458 227.358 461.647 228.139 459.746 227.235C461.74 226.265 464.285 226.635 466.4 225.77C468.486 224.917 470.592 224.248 472.533 223.14C472.791 223.676 473.046 224.213 473.305 224.749ZM465.912 265.491C464.638 265.562 465.49 262.875 465.573 262.207C465.8 260.371 466.03 258.536 466.23 256.697C467.281 259.469 468.332 262.242 469.382 265.014C468.227 265.179 467.08 265.427 465.912 265.491ZM463.84 278.782C464.013 279.169 464.824 280.456 464.184 280.694C463.307 281.019 463.201 278.886 463.84 278.782ZM462.319 248.914C458.261 252.155 454.23 255.404 449.839 258.195C448.876 258.806 447.907 259.062 447.27 257.85C446.768 256.896 447.298 255.822 447.619 254.889C448.439 252.51 449.868 250.442 451.45 248.505C454.612 244.639 458.374 241.336 463.175 239.811C463.961 239.562 465.173 238.809 465.448 239.848C465.61 240.46 464.925 241.987 464.786 242.56C464.212 244.93 464.337 247.303 462.319 248.914ZM474.003 272.551C474.092 275.304 466.57 273.084 465.633 272.592C466.616 272.262 473.962 271.314 474.003 272.551ZM476.796 272.569C477.243 272.688 478.957 272.839 478.317 273.425C477.744 273.949 475.148 273.739 474.461 273.803C474.923 272.285 475.274 272.163 476.796 272.569ZM475.402 268.882C475.234 269.494 475.166 270.428 474.617 270.848C473.934 271.371 472.481 271.053 471.707 271.058C470.393 271.064 469.08 271.132 467.773 271.262C467.272 271.312 465.246 271.923 464.777 271.506C464.432 271.2 464.561 269.764 464.811 269.441C465.326 268.778 466.513 269.007 467.256 268.981C469.976 268.883 472.681 268.876 475.402 268.882ZM473.656 258.709C473.272 258.139 473.204 258.145 473.04 257.283C472.865 256.36 472.42 255.571 472.158 254.679C471.582 252.718 473.422 252.892 474.772 253.611C478.274 255.478 477.429 261.998 476.563 265.051C475.304 264.125 474.839 263.705 474.406 262.211C474.241 261.643 474.057 261.086 473.885 260.521C473.76 260.106 473.847 258.993 473.656 258.709ZM473.959 226.974C474.937 226.856 475.832 229.89 475.552 230.547C474.981 231.89 472.796 233.09 471.684 233.947C470.943 234.518 470.207 235.172 469.416 235.67C468.681 236.132 468.258 235.873 467.574 236.094C466.585 236.414 466.346 237.461 465.333 237.911C463.909 238.544 462.183 238.721 460.695 239.293C458.89 239.987 457.236 240.006 455.343 239.677C452.621 239.204 449.431 237.854 449.677 234.546C450.109 228.709 461.697 225.719 464.858 230.668C465.68 231.956 465.667 233.457 466.201 234.841C466.78 236.338 467.341 235.749 468.211 234.647C469.349 233.204 470.406 231.683 471.5 230.206C471.853 229.729 473.254 227.06 473.959 226.974ZM402.942 283.798C402.887 284.791 402.946 285.798 402.601 286.745C402.253 287.7 401.548 288.472 401.142 289.401C400.319 291.282 400.325 293.558 400.358 295.574C400.435 300.263 401.545 304.819 402.132 309.452C400.177 309.448 398.157 309.47 396.262 308.911C394.57 308.411 394.3 307.174 393.821 305.616C392.477 301.237 391.026 296.878 390.592 292.293C390.385 290.108 390.299 287.905 390.2 285.713C390.114 283.79 390.545 282.951 392.281 281.999C396.053 279.929 399.964 278.206 403.697 276.038C403.315 278.611 403.087 281.203 402.942 283.798ZM563.982 130.136C563.064 129.968 562.137 129.862 561.21 129.752C560.726 129.694 559.219 129.774 558.857 129.459C558.427 129.084 559.172 126.247 559.211 125.638C559.444 121.977 559.173 118.203 558.837 114.555C558.23 107.953 556.153 101.836 551.364 97.0816C548.979 94.715 546.299 92.8373 543.043 91.9313C541.146 91.4033 539.191 91.1218 537.29 90.6099C535.757 90.1964 534.326 89.7231 532.733 89.5593C529.555 89.2323 526.65 88.0315 523.549 87.3368C521.268 86.8257 517.599 85.6134 516.12 88.19C514.955 86.8242 513.784 85.7987 512.316 84.7799C510.91 83.8041 510.679 82.8293 508.957 83.9561C505.611 86.1457 502.477 88.8167 499.351 91.3078C496.432 93.6343 493.608 96.0707 490.548 98.2101C487.428 100.393 488.02 104.096 489.487 107.166C492.248 112.945 496.506 117.885 500.233 122.839C502.568 125.942 504.91 129.049 507.235 132.158C509.458 135.13 511.381 138.569 513.979 141.239C515.616 142.922 517.571 140.721 519.049 139.704C520.884 138.441 522.686 137.131 524.523 135.872C528.348 133.249 532.441 130.791 536.479 128.508C536.772 129.341 537.066 130.173 537.36 131.006C536.473 131.073 535.275 130.874 534.824 131.828C534.179 133.19 535.761 133.369 536.038 134.15C536.286 134.847 535.27 136.69 534.97 137.318C534.294 138.734 533.35 139.955 532.311 141.121C528.199 145.734 522.995 149.034 517.715 152.18C512.064 155.545 506.009 157.6 499.823 159.768C496.677 160.871 493.413 161.383 490.167 162.089C487.039 162.77 483.915 163.663 480.718 163.92C474.18 164.445 467.241 164.838 460.782 163.428C460.074 163.274 459.326 162.939 458.607 162.875C458.03 162.824 457.603 163.066 457.059 163.097C455.89 163.164 455.22 162.119 454.291 163.09C453.827 163.576 453.818 164.392 453.171 163.485C452.347 162.331 454.452 162.108 455.233 161.779C457.86 160.673 459.971 158.445 461.64 156.193C463.308 153.942 463.548 151.539 462.532 148.904C461.517 146.27 459.208 144.485 457.475 142.346C456.636 141.311 455.865 140.215 454.944 139.248C454.452 138.731 453.661 138.237 453.63 137.716C453.594 137.111 453.956 136.81 453.74 136.074C453.683 135.883 453.443 135.774 453.392 135.564C453.311 135.229 453.436 134.941 453.394 134.615C453.297 133.866 453.003 133.395 452.587 132.781C452.328 132.398 451.95 131.63 451.593 131.343C450.969 130.839 450.117 131.045 449.482 130.534C448.478 129.727 448.124 128.026 447.235 127.045C445.984 125.666 445.717 127.06 444.392 126.62C443.258 126.244 443.271 124.538 442.355 123.961C441.065 123.148 439.978 124.643 438.833 124.976C437.325 125.415 437.904 123.714 436.561 123.559C435.348 123.419 433.667 125.88 433.062 126.755C432.446 126.036 431.771 124.812 430.662 125.25C429.498 125.711 429.291 127.854 428.44 128.619C428.143 128.885 428.206 129.081 427.841 129.204C427.37 129.361 426.742 128.677 426.133 128.886C424.904 129.307 425.054 130.947 425.052 132.009C423.602 131.797 422.591 131.689 422.105 133.252C421.63 134.782 421.45 134.107 419.922 134.604C418.604 135.032 418.42 136.283 418.202 137.507C418.068 138.269 418.192 138.579 418.397 139.273C418.655 140.148 418.655 140.137 418.234 140.971C417.5 142.427 417.456 144.031 417.339 145.633C417.214 147.343 416.915 148.899 417.401 150.569C417.702 151.603 417.725 153.009 418.736 153.588C419.138 153.817 419.82 153.691 420.161 153.919C420.813 154.353 420.615 155.014 421.049 155.648C421.375 156.123 421.899 156.169 422.264 156.554C422.66 156.973 422.684 157.483 422.909 157.994C423.578 159.508 424.206 160.24 422.028 160.327C420.685 160.38 419.251 160.783 417.913 160.659C416.334 160.514 415.941 159.631 415.439 158.287C412.905 151.512 411.544 144.17 408.208 137.728C407.475 136.313 404.468 130.535 403.197 134.745C402.126 138.296 403.532 142.63 404.071 146.164C402.379 144.639 401.754 141.893 400.469 140.031C399.521 138.656 396.55 135.278 394.809 137.213C393.436 138.739 393.779 141.974 394.033 143.798C394.433 146.683 395.355 149.464 396.013 152.294C395.184 151.209 394.775 149.885 394.2 148.663C393.478 147.132 392.578 145.679 391.552 144.333C390.656 143.157 389.654 142.064 388.567 141.061C387.736 140.294 386.249 138.616 385.069 138.525C382.033 138.292 382.988 143.862 383.45 145.454C384.409 148.755 385.448 151.964 386.192 155.331C387.646 161.91 389.408 168.336 390.479 174.998C390.716 176.475 391.002 177.654 390.418 179.074C389.903 180.325 389.369 181.821 388.42 182.783C386.27 184.961 384.485 187.287 382.878 189.911C381.157 192.722 379.385 195.565 377.98 198.549C377.334 199.922 376.806 201.407 376.063 202.728C375.393 203.92 374.587 204.862 374.111 206.181C371.834 212.487 370.148 218.682 369.376 225.358C368.742 230.84 369.333 238.131 375.95 239.414C378.99 240.003 381.719 238.655 384.46 237.542C387.295 236.392 389.345 234.521 391.657 232.533C394.531 230.062 397.514 227.744 400.418 225.315C403.323 222.884 406.006 220.189 408.896 217.732C411.75 215.305 414.332 212.728 416.8 209.909C419.248 207.113 421.237 204.016 423.608 201.181C423.599 204.852 423.054 208.488 422.901 212.154C422.761 215.515 422.758 218.872 422.894 222.231C423.029 225.588 422.142 228.783 422.135 232.133C422.128 235.401 421.998 238.65 421.927 241.914C421.895 243.378 421.608 245.021 422.155 246.434C422.563 247.488 423.847 247.818 424.942 248.103C426.635 248.542 431.727 247.696 432.483 249.504C432.896 250.491 432.48 252.288 432.512 253.379C432.566 255.176 432.632 256.973 432.693 258.77C432.757 260.625 432.819 262.481 432.887 264.337C432.947 265.971 433.265 267.793 433.068 269.411C432.899 270.799 432.09 270.617 430.809 270.688C428.874 270.795 426.939 270.881 425.004 270.966C422.165 271.09 419.202 271.033 416.48 271.368C415.337 271.509 414.088 271.449 412.882 271.679C411.37 271.966 409.973 272.039 408.439 272.115C407.203 272.176 405.613 272.087 404.641 273.001C404.305 273.318 404.229 273.696 403.99 274.049C403.543 274.711 403.792 274.537 403.057 274.686C400.189 275.267 397.465 275.922 394.661 276.9C393.257 277.389 391.954 278.046 390.544 278.507C389.307 278.91 388.401 279.407 387.79 280.621C386.699 282.789 386.975 285.925 387.054 288.261C387.179 291.906 387.988 295.375 388.861 298.9C389.77 302.567 390.482 306.332 392.248 309.701C392.829 310.808 393.456 312.221 394.641 312.798C396.172 313.542 398.527 313.091 400.197 313.094C401.319 313.096 404.322 313.481 405.16 312.54C405.972 311.63 405.155 309.061 405.041 307.931C404.639 303.971 403.916 299.974 403.926 295.986C404.841 297.338 406.427 299.671 408.014 297.6C408.404 297.091 408.252 296.854 408.946 296.558C409.329 296.395 410.138 296.295 410.556 296.323C411.124 296.361 411.335 296.59 411.857 296.478C412.319 296.379 412.839 295.965 413.369 295.839C419.939 294.277 426.471 292.594 433.069 291.202C434.813 290.834 434.565 292.174 434.68 293.682C434.808 295.351 434.565 297.036 434.796 298.686C434.998 300.121 435.154 301.52 434.871 302.964C434.536 304.667 434.752 306.088 435.085 307.775C436.368 314.279 436.139 321.334 436.428 327.944C436.579 331.387 436.255 334.902 436.579 338.327C436.701 339.62 437.423 340.335 437.716 341.511C438.052 342.862 437.136 344.583 436.857 345.892C436.297 348.519 435.314 352.279 437.113 354.565C438.084 355.799 439.358 355.978 440.796 356.396C442.518 356.895 444.214 357.478 445.944 357.951C452.262 359.681 459.09 360.019 465.566 360.973C467.152 361.206 468.623 361.184 470.219 361.073C471.203 361.005 473.626 361.329 474.444 360.74C474.882 360.425 474.66 360.03 474.883 359.645C475.199 359.098 475.582 358.875 476.121 358.535C477.013 357.971 478.045 357.642 478.195 356.478C478.563 353.626 475.001 352.116 473.096 350.883C470.662 349.307 467.722 348.698 465.139 347.412C463.713 346.702 462.338 345.898 460.965 345.093C460.369 344.744 459.162 344.349 458.747 343.799C458.324 343.238 458.738 342.437 458.914 341.636C459.638 338.324 459.393 334.937 459.767 331.59C460.142 328.237 460.04 324.864 460.163 321.495C460.291 318.024 460.577 314.563 460.797 311.098C461 307.897 461.204 304.645 461.238 301.442C461.27 298.471 461.675 295.556 461.771 292.566C461.803 291.551 461.621 289.711 462.295 288.851C462.886 288.097 464.842 288.192 465.754 288.06C468.214 287.703 470.555 287.39 472.986 287.174C478.772 286.662 485.211 286.285 490.682 284.268C492.939 283.436 495.941 282.3 496.69 279.708C497.551 276.729 496.427 273.068 496.39 270.022C496.35 266.77 495.408 263.597 494.701 260.446C493.94 257.054 493.46 253.603 492.638 250.224C491.883 247.123 490.659 244.377 489.502 241.433C489.032 240.239 486.359 236.124 487.188 235.11C487.635 234.563 489.244 234.425 489.897 234.174C491.304 233.636 492.714 233.024 494.012 232.257C495.744 231.233 499.537 229.539 499.712 227.263C499.879 225.088 497.742 222.891 496.656 221.183C494.906 218.431 492.699 216.025 491.033 213.218C487.665 207.546 484.986 201.334 482.531 195.222C481.246 192.024 480.827 189.013 480.615 185.599C484.345 185.608 488.142 186.067 491.848 185.546C495.882 184.978 499.921 184.021 503.919 183.233C511.201 181.798 518.192 180.177 524.937 176.945C531.253 173.918 537.663 170.606 542.893 165.801C545.597 163.317 548.355 160.785 550.69 157.944C553.089 155.026 554.894 151.71 556.745 148.434C558.788 144.818 560.414 141.018 561.699 137.062C561.958 136.267 561.959 135.254 562.29 134.503C562.664 133.655 563.343 133.633 564.052 133.186C565.05 132.557 565.714 130.454 563.982 130.136Z" fill="black"/>
<path fill-rule="evenodd" clip-rule="evenodd" d="M477.14 89.6561C477.993 90.3888 481.668 92.9696 482.855 92.3421C484.319 91.5674 482.001 89.2338 481.376 88.6584C480.582 87.9265 477.743 85.7122 476.656 85.9177C474.483 86.3288 476.373 88.9967 477.14 89.6561Z" fill="black"/>
<path fill-rule="evenodd" clip-rule="evenodd" d="M478.955 116.144C479.437 115.196 480.719 114.847 481.311 113.93C482.024 112.826 482.351 111.861 482.088 110.508C480.264 111.122 478.188 112.982 476.967 114.436C475.947 115.651 474.497 118.19 477.16 118.196C477.137 117.835 477.114 117.473 477.09 117.112C477.889 117.228 478.593 116.859 478.955 116.144Z" fill="black"/>
<path fill-rule="evenodd" clip-rule="evenodd" d="M470.263 100.367C471.439 100.705 472.41 100.657 473.612 100.683C474.484 100.703 475.676 101.182 476.383 100.642C475.755 100.279 476.548 100.258 476.393 99.9042C476.263 99.6089 476.015 99.7057 475.814 99.4666C475.096 98.6148 474.471 98.6252 473.333 98.4481C472.451 98.3101 471.153 97.992 470.306 98.4307C469.414 98.8924 469.068 100.023 470.263 100.367Z" fill="black"/>
<path fill-rule="evenodd" clip-rule="evenodd" d="M487.007 126.493C487.768 125.854 488.597 124.007 488.751 123.053C488.811 122.68 488.542 122.394 488.574 122.119C488.636 121.595 489.712 120.582 488.585 120.152C487.598 119.776 486.672 122.699 486.421 123.337C486.164 123.989 485.463 125.26 485.678 125.891C485.857 126.415 486.494 126.923 487.007 126.493Z" fill="black"/>
<path fill-rule="evenodd" clip-rule="evenodd" d="M496.108 86.928C496.796 86.289 497.232 85.5643 497.161 84.6857C497.104 83.9935 496.586 81.6071 496.003 81.6773C494.066 81.9111 494.937 88.0161 496.108 86.928Z" fill="black"/>
<path fill-rule="evenodd" clip-rule="evenodd" d="M455.222 193.619C455.063 193.036 454.484 189.468 453.482 189.711C452.721 189.896 453.511 193.035 453.547 193.448C453.621 194.313 451.96 194.284 451.188 194.168C449.964 193.982 450.062 193.265 449.879 192.152C449.811 191.732 449.545 189.831 448.668 190.527C448.076 190.997 448.499 193.341 448.549 193.876C448.72 195.728 448.921 198.891 450.022 200.574C450.461 201.244 450.855 201.576 451.317 200.715C451.783 199.845 450.727 197.191 450.542 196.3C451.414 196.386 453.922 196.103 454.447 197.008C454.926 197.834 454.159 200.195 455.697 200.387C456.609 200.501 456.444 199.443 456.356 198.631C456.172 196.926 455.672 195.266 455.222 193.619Z" fill="black"/>
<path fill-rule="evenodd" clip-rule="evenodd" d="M457.559 192.795C456.549 193.251 457.817 199.905 459.295 199.69C461.019 199.439 458.521 192.36 457.559 192.795Z" fill="black"/>
<path fill-rule="evenodd" clip-rule="evenodd" d="M456.433 190.591C456.309 192.089 458.255 192.647 458.347 191.019C458.418 189.763 456.564 189.016 456.433 190.591Z" fill="black"/>
<path fill-rule="evenodd" clip-rule="evenodd" d="M445.749 150.87C446.638 154.183 454.726 155.592 453.636 151.125C453.09 148.888 450.811 150.875 449.22 150.615C448.19 150.447 445.123 148.535 445.749 150.87Z" fill="black"/>
<path fill-rule="evenodd" clip-rule="evenodd" d="M443.718 144.963C444.098 143.191 440.222 141.234 438.815 141.722C436.758 142.436 436.767 147.001 438.336 148.215C438.543 148.375 439.176 148.756 439.486 148.452C439.975 147.972 439.441 148.103 439.326 147.624C439.145 146.861 438.552 145.882 439.143 145.015C440.259 143.376 443.173 147.503 443.718 144.963Z" fill="black"/>
<path fill-rule="evenodd" clip-rule="evenodd" d="M431.899 153.567C430.501 153.488 429.355 155.658 431.411 155.476C431.805 155.441 432.651 155.342 432.88 154.928C433.258 154.242 432.513 153.601 431.899 153.567Z" fill="black"/>
<path fill-rule="evenodd" clip-rule="evenodd" d="M499.698 101.843C499.219 101.151 498.216 100.037 497.354 100.731C496.589 101.347 496.722 102.866 497.016 103.621C497.805 105.654 499.67 107.464 501.78 106.293C501.047 104.824 500.634 103.198 499.698 101.843Z" fill="black"/>
</g>
<defs>
<clipPath id="clip0_1165_1715">
<rect width="690" height="422" fill="white"/>
</clipPath>
</defs>
</svg>
