<svg width="692" height="426" viewBox="0 0 692 426" fill="none" xmlns="http://www.w3.org/2000/svg">
<g clip-path="url(#clip0_1102_1330)" filter="url(#filter0_d_1102_1330)">
<path d="M691 0H1V423.061H691V0Z" fill="#FDF074"/>
<path fill-rule="evenodd" clip-rule="evenodd" d="M237.118 37.1138C258.923 37.6801 269.118 44.7431 286.616 55.1986C299.084 62.6522 314.211 54.6324 314.211 73.5665C349.806 45.5729 416.186 117.854 441.137 136.788C467.459 156.757 493.376 180.264 496.288 215.902C497.151 226.455 494.966 237.272 496.551 247.781C497.747 255.698 502.756 263.611 501.903 271.821C500.898 281.339 492.854 286.904 491 295.851C490.269 299.395 492.776 306.511 491.22 309.377C475.264 338.649 454.815 362.664 419.805 365.559C389.313 368.083 355.625 357.193 333.401 335.901C313.684 317.016 301.928 288.714 296.821 262.249C295.933 257.67 297.616 247.18 296.108 243.31C293.918 237.667 290.621 237.569 287.904 233.006C280.699 220.9 270.357 198.086 279.709 184.784C256.655 189.993 239.133 140.566 230.528 126.152C224.075 115.359 208.523 106.91 204.206 96.4105C198.285 82.011 219.562 75.8314 212.192 65.8006C208.245 60.4313 187.065 64.0873 189.143 50.6347C191.075 38.1926 228.792 36.8942 237.118 37.1138Z" fill="white"/>
<path fill-rule="evenodd" clip-rule="evenodd" d="M212.055 195.53C212.537 194.269 212.583 194.507 213.918 194.462C219.395 194.277 224.872 194.093 230.349 193.908L285.961 192.033C292.497 191.813 299.034 191.592 305.569 191.372C306.524 191.34 308.32 190.915 309.237 191.248C309.709 191.42 310.182 192.124 310.54 192.484C312.089 194.045 313.638 195.606 315.187 197.167C323.883 205.928 332.747 214.52 341.56 223.163C351.359 232.773 361.157 242.384 370.956 251.995L339.616 258.26C341.812 259.108 344.009 259.957 346.206 260.804C361.719 266.795 377.232 272.785 392.746 278.775C387.169 284.497 381.592 290.218 376.015 295.939L384.464 301.781C382.571 303.466 380.679 305.151 378.787 306.836C375.317 309.926 371.847 313.016 368.378 316.105C367.148 317.201 365.918 318.296 364.689 319.391C364.4 319.648 364.017 320.139 363.665 320.182C363.136 320.246 362.009 319.548 361.529 319.364C360.012 318.78 358.496 318.193 356.982 317.603C352.32 315.788 347.669 313.947 343.028 312.079C331.652 307.497 320.281 302.831 309.203 297.561C304.084 295.127 299.256 292.501 294.886 288.845C290.078 284.823 285.823 280.156 281.915 275.264C278.624 271.146 275.57 266.836 272.731 262.394C271.755 260.868 269.647 258.54 269.289 256.711C269.096 255.727 269.648 254.135 269.786 253.158L270.764 246.207C270.931 245.017 271.428 243.479 271.316 242.275C271.183 240.82 270.084 239.026 269.566 237.671C269.315 237.013 268.923 235.089 268.325 234.814C267.927 234.631 266.659 235.038 266.239 235.094C262.833 235.551 259.427 236.008 256.021 236.466C246.887 237.692 237.754 238.918 228.62 240.145C226.106 240.482 223.355 241.208 220.814 241.193C218.894 241.181 217.436 239.953 216.523 238.349C213.783 233.529 211.115 228.608 208.982 223.482C206.921 218.529 207.007 214.314 208.11 209.088C209.076 204.514 210.383 199.902 212.055 195.53ZM460.952 194.13C460.61 201.286 459.922 210.292 455.717 216.322C454.118 218.615 451.715 220.402 449.541 222.106C446.343 224.612 443.015 226.952 439.646 229.22C433.7 233.223 427.485 237.578 420.828 240.326C418.981 241.089 417.928 240.952 416.084 240.139C412.985 238.772 410.061 236.961 407.177 235.199C402.553 232.376 398.01 229.412 393.532 226.362C407.415 223.363 421.604 219.67 434.566 213.78C444.439 209.294 453.845 202.383 460.952 194.13Z" fill="#FF5678"/>
<path fill-rule="evenodd" clip-rule="evenodd" d="M288.855 81.3699C292.519 82.1491 295.16 85.9048 297.55 88.5183C300.418 91.6546 303.124 95.0027 305.056 98.8112C307.036 102.714 308.15 107.218 308.559 111.568C308.739 113.482 308.594 115.29 308.439 117.191C308.273 119.223 309.393 120.126 311.031 121.184C314.434 123.382 318.427 124.774 321.243 127.776C323.628 130.319 325.797 130.421 329.156 129.835C337.496 128.38 345.55 126.393 354.083 126.228C356.249 126.186 358.422 126.237 360.586 126.35C361.297 126.387 362.067 126.552 362.774 126.468C363.793 126.345 363.879 125.911 364.544 125.367C367.47 122.973 371.984 123.709 375.464 123.937C384.248 124.513 392.744 126.036 401.151 128.661C410.23 131.497 419.628 133.196 428.661 136.183C437.387 139.069 445.572 143.297 453.937 147.055C462.443 150.877 470.664 155.222 478.761 159.846C486.587 164.314 494.613 168.627 501.896 173.961C508.536 178.823 514.283 185.031 518.727 191.983C520.211 194.303 519.963 196.017 516.818 195.818C517.096 198.426 515.421 199.898 512.897 199.867C514.09 201.85 516.393 204.39 515.915 206.901C515.277 210.238 511.123 208.794 509.065 207.986C509.782 210.407 511.675 214.181 510.064 216.603C507.568 220.354 501.424 217.564 498.707 215.738C491.784 211.086 486.614 204.605 480.231 199.355C472.319 192.848 463.712 186.959 455.141 181.369C454.465 180.927 446.743 175.512 446.036 176.623C449.744 180.588 452.998 185.129 457.636 188.091C458.916 185.14 460.502 186.121 461.389 188.62C462.455 191.625 463.602 194.783 463.688 198.004C463.86 204.343 461.242 210.965 458.168 216.396C454.952 222.076 450.473 226.835 445.462 230.965C442.625 233.303 439.757 235.539 436.558 237.359C435.126 238.175 433.707 239.068 432.201 239.744C430.754 240.393 429.109 240.72 427.861 241.757C441.708 245.084 456.155 244.646 469.998 247.812C473.34 248.576 480.226 250.945 478.013 255.733C476.302 259.438 470.899 260.709 467.472 262.106C470.617 264.024 470.713 266.406 467.554 268.489C466.285 269.326 464.896 269.885 463.428 270.239C462.432 270.479 460.625 270.491 459.982 271.453C463.409 272.219 467.648 271.223 470.747 273.192C473.91 275.201 471.219 277.935 469.089 279.425C466.286 281.384 462.344 283.661 458.88 282.759C456.142 282.046 453.914 282.803 451.108 283.061C448.215 283.327 445.297 283.317 442.403 283.085C431.382 282.201 420.624 278.507 410.276 274.824C399.939 271.144 390.055 266.565 380.622 260.947C378.295 259.561 376.221 257.763 373.863 256.444C371.381 255.055 369.155 255.358 366.484 255.96C360.412 257.328 354.107 257.541 348.174 259.554C358.316 264.286 368.786 268.126 379.239 272.09C383.217 273.598 387.533 275.82 391.856 275.925C393.753 275.971 397.687 275.431 398.758 277.531C399.541 279.064 398.209 279.633 397.564 280.693C396.629 282.229 398.416 282.293 399.772 282.558C401.481 282.89 402.957 282.8 404.627 282.259C407.184 281.431 409.253 281.083 411.926 281.684C416.125 282.628 420.434 282.699 424.635 283.602C426.375 283.976 427.243 286.013 428.315 287.293C430.001 289.304 431.851 291.166 433.678 293.047C437.123 296.592 440.238 300.33 444.587 302.816C448.398 304.995 452.503 306.769 456.517 308.543C462.786 311.315 470.731 314.701 470.616 322.787C470.502 330.781 462.436 331.646 456.133 331.568C453.48 331.535 449.682 330.671 447.289 331.969C445.224 333.089 443.728 333.51 441.334 333.478C438.557 333.441 435.808 333.618 433.037 333.776C427.226 334.106 421.25 333.88 415.475 333.144C412.705 332.79 410.297 332.044 407.875 330.632C407.156 330.212 406.552 329.529 405.752 329.706C405.071 329.858 404.272 331.295 403.834 331.828C402.449 333.512 400.841 335.014 398.605 333.84C397.178 333.091 395.633 331.126 397.168 329.713C398.346 328.629 400.996 329.017 401.642 327.305C402.319 325.512 399.576 323.707 398.598 322.576C396.77 324.482 394.25 328.086 391.261 326.186C388.866 324.665 390.822 323.013 392.519 322.001C394.617 320.748 397.254 320.289 395.461 317.508C394.443 315.929 393.069 314.612 392.504 312.772C392.074 311.373 392.194 309.913 391.905 308.496C391.387 305.963 388.211 304.365 385.718 304.271C384.196 304.213 384.028 305.54 383.341 306.677C382.332 308.348 380.887 309.746 379.418 311.009C377.009 313.08 374.4 314.873 371.799 316.685C370.075 317.886 366.952 319.643 368.814 321.769C371.539 324.882 366.547 324.179 364.707 323.734C360.425 322.698 356.124 321.754 351.869 320.606C343.144 318.249 334.847 314.811 326.74 310.839C318.782 306.94 310.914 302.674 303.428 297.924C299.801 295.622 296.275 293.14 293.01 290.344C289.503 287.34 286.366 283.942 282.815 280.985C279.13 277.916 275.502 274.951 272.71 270.999C270.124 267.338 267.203 263.257 266.235 258.835C265.164 253.949 264.254 249.55 264.876 244.512C265.136 242.409 265.514 240.197 266.327 238.234C266.56 237.669 267.977 235.608 267.472 235.014C267.5 235.048 263.582 236.531 263.168 236.662C260.534 237.493 257.733 237.609 255.002 237.93C246.928 238.88 238.994 240.863 230.876 241.458C227.815 241.683 224.679 242.803 221.616 242.666C220.17 242.602 219.665 241.887 218.522 241.459C218 241.263 217.528 241.465 217.014 241.149C216.412 240.778 216.157 240.111 215.804 239.535C213.915 236.459 211.291 233.912 209.412 230.827C207.3 227.357 206.537 223.457 205.803 219.515C203.878 220.089 201.824 220.541 199.819 220.139C199.324 225.121 192.921 226.399 188.921 226.883C183.926 227.488 178.081 228.252 174.554 223.857C170.409 218.691 169.114 211.622 167.424 205.379C165.438 198.048 163.726 190.543 162.519 183.041C161.492 176.66 161.541 169.799 164.558 163.917C167.22 158.727 172.897 154.811 178.666 157.892C183.003 160.209 185.792 165.453 187.017 170.054C187.641 172.395 187.981 174.545 190.753 173.267C191.819 172.776 192.75 172.151 193.818 173.124C194.76 173.981 194.736 175.516 193.975 176.47C193.285 177.335 191.636 177.566 191.28 178.709C190.928 179.842 192.167 181.273 193.285 181.249C194.558 181.223 195.167 179.449 196.553 179.916C197.823 180.344 197.498 181.721 196.897 182.614C196.186 183.673 195.362 184.038 196.293 185.274C197.006 186.222 198.136 186.714 198.813 187.736C200.483 190.259 201.68 194.14 201.057 197.168C203.205 196.954 208.803 198.356 210.027 195.994C210.472 195.137 210.317 194.051 210.806 193.169C211.382 192.131 212.367 191.532 213.464 191.15C215.808 190.335 218.428 190.542 220.867 190.516C224.912 190.472 228.959 190.326 233.001 190.188C241.135 189.909 249.251 189.191 257.387 189.021C265.506 188.851 273.628 189.093 281.742 189.33C285.998 189.453 290.26 189.703 294.518 189.688C298.497 189.674 302.592 189.415 306.495 190.348C304.875 186.156 302.074 182.584 299.966 178.647C297.798 174.598 296.534 170.364 296.301 165.768C296.088 161.556 296.211 157.392 297.525 153.35C298.056 151.715 298.672 150.069 299.633 148.637C300.315 147.618 301.379 146.666 301.847 145.525C302.31 144.4 302.119 144.202 300.816 144.008C300.092 143.899 299.467 143.953 298.756 143.736C298.102 143.536 297.474 143.055 296.763 143.09C295.121 143.169 293.128 145.203 291.791 146.062C289.965 147.232 288.058 148.343 285.989 149.022C279.198 151.253 270.102 148.976 264.303 145.103C262.367 143.811 257.924 140.837 258.88 138.032C259.385 136.551 260.85 136.565 261.899 135.717C263.541 134.39 262.047 133.089 260.905 132.047C257.795 129.208 255.373 125.716 252.865 122.353C250.312 118.931 247.195 116.05 244.451 112.796C242.482 110.461 240.222 107.862 238.952 105.066C237.401 101.653 239.716 100.629 242.568 99.484C251.589 95.861 260.348 91.7106 269.199 87.6978C272.728 86.0985 276.271 84.482 279.849 82.9966C282.637 81.8391 285.805 80.7218 288.855 81.3699ZM418.366 287.336C413.59 288.616 408.958 290.727 409.997 296.402C412.85 306.983 421.498 313.502 430.348 319.035C432.58 320.431 434.797 321.944 437.152 323.129C438.537 323.826 439.92 323.985 441.361 324.464C441.715 324.581 442.388 325.084 442.7 325.115C443.44 325.192 443.447 324.927 444.107 324.711C445.547 324.242 446.036 325.211 447.334 325.813C449.796 326.954 453.559 325.907 456.159 325.873C458.56 325.842 468.434 327.21 467.008 322.508C465.614 317.913 460.147 316.703 456.191 315.363C450.677 313.495 444.962 311.419 439.998 308.328C435.28 305.389 431.627 300.77 427.999 296.63C425.738 294.05 424.758 291.662 423.591 288.489C423.097 287.147 422.981 286.698 421.578 286.753C420.494 286.796 419.411 287.056 418.366 287.336ZM401.399 290.145C398.801 291.645 397.168 294.335 396.315 297.166C395.879 298.614 395.748 300.009 395.82 301.51C395.912 303.419 395.641 305.537 396.548 307.283C398.196 310.451 401.426 313.604 403.964 316.083C406.818 318.87 410.402 321.917 414.241 323.18C417.937 324.395 422.017 324.058 425.569 325.774C425.02 324.531 423.598 323.83 422.469 323.223C420.824 322.337 419.355 321.423 417.872 320.267C414.592 317.711 411.7 314.803 409.49 311.258C407.349 307.823 405.688 303.797 405.02 299.79C404.702 297.883 404.602 295.807 405.052 293.91C405.352 292.642 406.109 291.457 406.27 290.156C406.636 287.176 402.695 289.396 401.399 290.145ZM320.737 211.164C316.935 212.438 313.232 214.011 309.386 215.212C301.609 217.638 293.468 219.829 287.083 225.156C277.794 232.909 268.342 247.73 274.701 259.86C282.212 274.188 294.29 286.016 308.042 294.355C316.821 299.678 326.153 304.172 335.469 308.467C344.479 312.621 354.287 314.514 363.459 318.238C362.307 310.112 365.779 301.693 370.644 295.327C373.259 291.907 376.057 288.568 379.17 285.592C380.7 284.13 382.328 282.823 383.992 281.519C385.255 280.53 386.594 279.172 388.188 278.752C387.912 277.576 384.861 277.772 383.985 277.668C380.965 277.311 377.951 276.418 375.04 275.552C368.703 273.666 362.653 271.005 356.601 268.369C353.643 267.082 350.655 265.857 347.716 264.525C345.07 263.325 342.576 261.561 339.812 260.649C336.969 259.71 333.912 260.04 330.974 260.097C327.444 260.166 323.943 260.1 320.413 260.253C314.52 260.508 308.439 258.299 302.71 257.132C300.783 256.74 297.951 256.647 296.297 255.478C294.798 254.42 294.685 252.315 296.058 251.077C298.418 248.949 303.329 250.019 306.084 250.48C311.181 251.331 316.204 251.995 321.397 251.88C328.511 251.723 335.524 252.773 342.642 252.588C350.316 252.387 358.036 252.313 365.65 251.218C363.038 247.961 359.347 245.58 356.273 242.786C352.746 239.58 349.223 236.372 345.717 233.145C339.536 227.455 332.8 221.85 327.612 215.21C325.833 212.934 323.954 210.085 320.737 211.164ZM376.778 301.329C375.731 301.734 375.143 302.993 374.558 303.868C372.747 306.575 370.979 309.25 369.673 312.249C372.289 310.42 374.185 307.802 376.66 305.819C377.552 305.104 380.84 303.233 379.834 301.986C379.268 301.286 377.549 301.031 376.778 301.329ZM388.073 289.573C385.666 292.096 383.101 294.44 380.488 296.744C382.737 297.092 385.046 297.741 387.057 298.811C387.977 299.301 389.99 300.88 391.017 300.156C391.972 299.483 391.991 296.761 392.301 295.714C393.093 293.033 394.433 290.375 395.989 288.063C392.632 286.72 390.613 286.91 388.073 289.573ZM342.172 189.987C340.053 191.096 337.964 192.258 335.848 193.371C331.623 195.593 327.255 197.628 322.563 198.629C322.174 199.942 324.409 201.47 325.16 202.247C327.134 204.288 328.928 206.545 330.781 208.698C334.71 213.261 338.854 217.569 343.219 221.714C347.628 225.902 351.761 230.392 356.24 234.503C360.574 238.483 365.215 242.257 369.782 245.965C387.579 260.412 409.782 268.256 431.388 274.949C437.444 276.824 443.65 278.291 449.997 278.666C452.617 278.822 455.265 278.861 457.891 278.833C459.656 278.814 462.634 278.979 463.96 277.55C458.657 276.653 452.087 277.273 447.34 274.361C444.401 272.558 446.717 270.25 449.12 269.286C453.77 267.419 459.218 268.457 463.667 266.079C461.908 264.023 458.292 264.911 455.951 264.787C452.991 264.629 452.588 263.234 455.05 261.702C458.079 259.816 461.998 259.652 465.371 258.704C467.017 258.241 473.952 256.469 471.16 253.71C468.963 251.54 464.766 251.696 461.919 251.33C457.926 250.816 453.884 249.548 449.884 249.343C445.972 249.143 442.07 249.34 438.146 249.084C434.051 248.817 429.99 248.417 425.971 247.563C418.223 245.917 410.752 243.031 403.732 239.387C396.498 235.631 389.867 230.973 383.579 225.802C380.27 223.082 377.068 220.239 373.82 217.449C370.682 214.755 367.254 212.281 364.536 209.148C361.529 205.682 357.952 202.697 354.87 199.262C353.201 197.401 351.447 195.599 349.851 193.675C348.716 192.306 347.686 190.164 346.309 189.058C345.015 188.019 343.415 189.338 342.172 189.987ZM248.701 261.984C249.602 262.513 249.537 262.825 249.577 263.733C249.66 265.594 249.705 267.428 249.953 269.281C250.8 275.619 253.048 281.9 255.323 287.854C257.593 293.793 261.124 298.975 265.79 303.293C270.311 307.476 275.339 310.504 281.382 311.741C282.419 311.953 286.502 312.673 286.556 314.13C286.597 315.225 284.518 315.044 283.785 315.043C273.391 315.032 263.06 307.829 256.262 300.522C253.448 297.498 251.363 294.256 249.403 290.668C249.116 290.143 245.03 282.725 245.822 282.452C243.957 277.108 242.333 270.474 243.85 264.837C244.416 262.731 246.337 260.595 248.701 261.984ZM231.606 266.868C231.575 271.202 232.769 275.363 233.857 279.515C234.056 280.271 234.99 282.533 233.719 282.758C232.82 282.916 231.627 280.788 231.284 280.25C229.207 276.983 227.89 273.086 227.76 269.204C227.719 267.975 227.731 266.471 228.944 265.782C230 265.183 231.431 265.545 231.606 266.868ZM459.887 198.162C459.386 198.551 459.248 199.118 459.201 199.719C455.617 204.385 451.237 209.096 446.68 212.822C442.61 216.15 437.53 218.27 432.769 220.399C421.881 225.267 410.734 228.673 398.694 227.951C404.251 231.253 409.673 236.058 416.111 237.543C419.309 238.281 422.358 236.773 425.11 235.286C428.488 233.461 431.883 231.609 435.071 229.464C441.096 225.413 447.519 220.982 452.096 215.264C454.125 212.73 455.6 209.817 456.805 206.815C457.496 205.095 458.009 203.305 458.714 201.593C459.12 200.607 460.184 199.272 459.887 198.162ZM395.136 132.177C395.419 134.336 394.547 136.386 393.815 138.365C393.316 139.711 392.16 141.452 393.136 142.649C394.296 144.07 397.131 144.531 398.72 145.333C401.072 146.52 403.328 147.884 405.558 149.284C409.561 151.795 413.66 154.183 417.606 156.778C421.355 159.244 425.025 161.788 429.371 163.088C438.912 165.94 447.823 170.869 456.611 175.49C465.57 180.2 474.504 185.254 482.681 191.245C487.057 194.451 490.917 198.171 494.426 202.3C496.231 204.424 498.118 206.475 499.925 208.598C500.725 209.537 501.592 210.43 502.345 211.407C502.905 212.134 503.435 213.39 504.28 213.836C505.033 210.377 501.933 206.675 500.046 204.107C498.757 202.351 497.482 200.584 496.203 198.82C495.305 197.583 493.691 196.202 493.299 194.692C492.345 191.019 497.68 192.669 499.239 193.579C503.1 195.831 505.904 199.856 508.968 203.017C508.892 199.996 502.162 196.741 504.019 193.697C505.491 191.283 509.986 195.243 511.318 196.291C511.285 192.541 508.675 189.424 506.115 186.964C503.262 184.222 500.104 181.71 496.918 179.372C489.471 173.908 481.321 169.37 473.26 164.89C465.241 160.432 457.073 156.258 448.926 152.04C441.015 147.945 433.003 143.872 424.532 141.049C419.782 139.467 414.912 138.334 410.109 136.936C405.079 135.471 400.196 133.541 395.136 132.177ZM334.53 136.557C334.343 136.648 333.233 137.028 333.169 137.147C332.89 137.664 333.685 138.975 334.177 139.136C332.905 140.59 331.425 141.982 329.542 142.568C331.002 143.497 333.737 145.084 333.785 147.075C333.851 149.814 330.299 148.641 328.85 148.118C326.525 147.276 324.138 146.367 322.225 144.758C321.011 143.737 320.41 142.508 319.416 141.342C318.877 140.708 319.075 140.53 318.205 140.664C317.21 140.818 315.727 142.11 314.895 142.675C313.61 143.548 312.379 144.502 311.215 145.531C309.067 147.431 307.137 149.592 305.553 151.985C302.271 156.939 300.597 162.884 301.48 168.814C304.347 167.837 306.954 165.954 309.097 163.841C310.623 162.337 312.142 160.628 313.127 163.743C313.51 164.957 313.775 167.916 313.235 169.034C312.731 170.077 312.277 169.415 311.671 170.106C310.97 170.905 311.599 171.707 311.784 172.58C311.311 172.328 310.839 172.077 310.367 171.825C309.842 172.929 310.555 172.245 310.951 172.761C311.182 173.062 310.292 174.26 310.11 174.477C309.733 174.927 309.421 174.688 309.012 175.306C308.749 175.704 308.546 176.513 308.273 176.998C306.858 179.504 310.022 182.282 311.47 184.31C312.542 185.812 313.672 187.267 314.77 188.749C315.574 189.833 316.173 191.196 317.137 192.147C319.051 194.035 322.116 192.126 324.225 191.395C327.086 190.402 329.893 189.412 332.776 188.508C334.466 187.977 336.202 186.557 333.713 185.729C331.242 184.908 323.598 186.285 322.846 182.976C322.047 179.46 326.819 177.828 329.338 177.607C333.023 177.284 335.536 177.696 338.567 179.885C336.922 174.828 332.348 171.33 330.431 166.312C329.91 164.95 327.386 156.402 331.567 159.435C333.805 161.06 335.885 163.798 337.718 165.838C340.491 168.926 343.033 172.208 345.66 175.421C348.165 178.486 351.468 181.241 353.488 184.64C354.625 186.552 356.519 190.677 358.964 191.254C360.53 191.625 362.747 190.229 364.172 189.7C365.052 189.374 365.911 189.054 366.579 188.363C366.925 188.005 367.175 187.215 367.667 187.027C369.087 186.487 369.941 188.651 370.06 189.706C370.243 191.333 369.6 191.903 368.154 192.405C370.917 193.098 367.873 197.762 367.521 199.438C367.469 199.368 366.802 198.385 366.476 198.456C365.827 198.596 369.564 203.23 369.839 203.549C371.753 205.762 373.966 207.646 376.135 209.6C377.381 210.722 379.436 213.569 381.336 212.853C382.389 212.456 384.174 209.732 385.354 211.087C386.418 212.309 384.352 214.304 384.227 215.483C384.017 217.46 386.69 218.922 388.228 219.607C392.305 221.422 397.013 221.05 401.358 220.934C400.331 220.026 398.466 219.81 398.105 218.273C397.859 217.228 398.479 216.497 397.736 215.462C397.125 214.609 395.975 214.283 395.454 213.34C394.879 212.3 395.147 210.923 395.563 209.874C397.326 205.428 403.448 205.815 407.211 206.861C406.984 207.024 406.81 207.228 406.69 207.471L406.661 207.533L406.669 207.525C407.047 207.165 409.109 207.599 409.38 207.718C410.236 208.095 411.502 209.13 412.178 209.794C414.356 211.932 415.234 214.917 414.975 217.923C425.309 215.717 434.46 210.881 442.778 204.512C444.678 203.057 446.616 201.972 448.35 200.282C450.131 198.546 451.779 196.689 453.512 194.908C455.14 193.235 454.807 192.51 453.155 190.977C451.144 189.113 449.286 187.064 447.131 185.36C446.989 185.99 447.129 187.159 446.64 187.632C446.1 188.154 445.365 187.503 445.007 187.885C445.039 187.851 444.149 190.197 443.827 189.729C444.661 190.941 442.268 190.564 441.824 190.401C442.179 191.628 441.372 192.921 440.438 191.379C439.166 193.162 435.144 192.637 436.691 189.977C437.454 188.664 438.414 187.848 438.736 186.277C439.097 184.52 438.957 182.647 438.677 180.89C438.017 176.748 435.397 175.307 432.058 173.242C430.194 172.089 428.277 171.026 426.378 169.932C424.709 168.97 423.166 167.668 421.447 166.813C420.213 166.199 419.318 166.137 418.447 167.085C418.088 167.476 418.031 167.887 417.55 168.292C416.933 168.812 415.949 169.261 415.194 169.524C411.395 170.843 406.595 170.468 402.714 169.788C401.652 169.602 401.047 169.059 400.095 168.751C399.494 168.556 399.077 168.841 398.43 168.593C396.739 167.945 396.486 166.38 397.311 164.943C399.245 161.575 403.42 163.342 405.524 160.507C408.146 156.975 401.939 154.189 399.399 152.912C397.366 151.889 395.809 151.906 393.608 151.994C393.146 152.012 390.016 151.789 391.307 152.794C389.002 153.224 387.877 153.474 386.335 155.301C385.93 155.78 385.362 156.272 385.364 156.942C385.365 157.295 386.076 157.214 386.077 157.211C386.031 157.458 385.418 158.02 385.332 158.114C386.542 158.002 386.727 160.388 386.425 160.466L386.407 160.467L386.448 160.49C387.067 160.869 386.063 161.869 385.695 162.08C384.651 162.678 383.423 162.125 382.51 161.506C380.464 160.119 378.618 157.412 378.214 154.972C377.647 151.546 379.456 149.104 380.753 146.169C381.724 143.973 379.468 143.396 377.795 142.505C375.747 141.416 373.002 140.125 371.937 137.921C370.968 135.913 372.258 134.88 374.243 135.122C376.926 135.449 379.419 137.233 381.928 138.146C384.155 138.957 387.17 140.939 389.604 140.57C388.83 139.093 386.682 139.725 385.59 138.739C384.148 137.435 385.736 136.378 387.084 136.275C388.131 136.195 391.491 137.732 390.889 135.261C390.567 133.937 388.252 133.965 387.204 133.786C381.878 132.876 376.565 132.615 371.164 132.82C369.414 132.887 369.025 133.185 368.532 134.885C368.365 135.462 367.875 138.059 366.994 136.595C366.555 138.043 366.639 139.467 365.198 140.319C363.364 141.403 360.618 140.964 358.638 140.592C356.938 140.273 355.261 139.674 353.964 138.492C353.318 137.905 352.792 137.212 352.383 136.441C352.035 135.787 351.888 134.624 351.393 134.068C350.565 133.138 349.174 133.674 348.041 133.805C345.511 134.098 343.017 134.408 340.517 134.911C338.44 135.329 336.436 135.625 334.53 136.557ZM408.147 218.078C407.414 218.532 409.024 219.182 409.466 218.97C409.21 218.703 408.677 217.75 408.147 218.078ZM406.661 207.533L406.643 207.554C406.621 207.585 406.609 207.621 406.609 207.662C406.621 207.629 406.634 207.596 406.647 207.565L406.661 207.533ZM417.242 179.177C418.089 179.628 418.095 181.088 418.768 181.843C420.571 183.862 423.422 185.625 425.951 186.538C428.674 187.521 430.224 189.219 431.387 191.804C431.628 192.338 432.16 193.037 432.103 193.655C432.05 194.233 431.48 194.542 431.396 195.065C431.357 195.304 432.076 196.936 432.034 196.951C431.832 197.02 431.044 196.29 431.049 196.293C430.935 196.941 431.162 197.6 430.583 198.057L430.511 198.109L430.523 198.114C430.711 198.205 431.576 198.659 431.429 198.831C431.224 199.07 430.598 199.07 430.316 199.244C429.87 199.519 429.614 200.023 429.193 200.322C428.063 201.123 426.594 201.264 425.242 201.355C422.393 201.547 419.073 201.221 416.64 199.597C413.694 197.63 413.723 194.934 412.915 192.194C412.008 189.121 413.257 183.903 414.553 181.093C414.995 180.134 415.938 178.484 417.242 179.177ZM213.243 197.302C213.165 197.705 213.443 198.249 213.438 198.675C213.427 199.537 213.102 200.359 212.79 201.148C212.205 202.623 211.592 203.992 211.315 205.575C210.634 209.462 210.117 213.605 210.231 217.547C210.479 226.011 216.835 231.678 218.783 239.557C220.543 236.686 223.964 235.836 227.033 235.174C231.116 234.293 235.199 233.601 239.345 233.091C247.275 232.114 255.292 230.694 263.274 231.968C264.152 232.108 264.79 232.114 265.642 232.111C266.578 232.108 266.014 231.789 266.782 232.18C266.988 232.286 267.168 232.787 267.39 232.928C268.541 233.658 268.978 232.902 269.573 231.728C271.211 228.497 272.897 225.519 275.301 222.766C280.423 216.902 286.796 213.339 294.157 211.058C298.376 209.751 302.528 208.63 306.857 207.75C310.99 206.91 315.361 206.056 319.582 206.7C318.02 204.122 315.832 201.981 313.941 199.654C313.022 198.524 312.137 197.319 311.064 196.328C310.12 195.457 308.846 194.852 308.095 193.788C308.055 194.042 308.015 194.297 307.975 194.551C299.558 193.969 291.116 194.49 282.705 194.925C274.257 195.361 265.803 195.272 257.353 195.619C253.11 195.793 248.912 196.249 244.689 196.661C240.624 197.057 236.61 196.991 232.537 197.077C228.412 197.163 224.359 197.066 220.24 196.852C218.513 196.763 216.838 196.488 215.135 196.299C213.778 196.149 213.47 196.12 213.243 197.302ZM391.772 174.296C392.215 175.22 391.724 176.638 391.677 177.615C391.624 178.723 391.116 179.27 391.006 180.291C390.911 181.177 392.329 185.467 389.935 184.607C390.067 184.908 390.506 185.266 390.602 185.54C390.721 185.88 390.494 186.488 390.657 186.769C390.804 187.022 391.902 187.62 392.223 188.026C393.489 189.62 394.552 191.539 395.401 193.388C396.286 195.316 397.434 198.004 396.055 199.76C395.723 200.181 395.392 200.346 395.064 200.838C395.095 201.222 394.99 201.566 394.75 201.872C394.599 201.951 394.462 201.939 394.339 201.835C393.887 202.221 393.811 201.02 393.451 202.28C393.363 202.584 393.823 203.465 393.673 203.396C393.401 203.273 392.534 202.683 392.301 202.718C391.934 203.53 391.795 202.812 391.272 203.028C391.312 203.324 391.189 203.518 390.901 203.609C390.66 203.606 390.42 203.602 390.18 203.598C388.796 203.901 386.627 203.756 385.219 203.672C382.531 203.512 380.349 202.15 379.237 199.617C376.921 194.341 380.098 186.449 382.564 181.727C383.406 180.114 389.476 169.514 391.772 174.296ZM417.681 187.356C417.743 187.828 418.033 188.49 417.524 188.653C417.437 188.124 417.075 187.501 417.681 187.356ZM381.386 194.282C381.905 195.568 381.798 194.793 381.456 195.827C381.16 195.324 381.137 194.809 381.386 194.282ZM419.468 184.352C419.728 184.565 420.664 185.09 420.022 185.412C419.46 185.694 419.509 184.674 419.468 184.352ZM388.9 181.191C388.934 182.687 389.676 182.169 390.741 181.668C390.127 181.509 389.513 181.35 388.9 181.191ZM168.876 167.503C164.483 173.262 166.029 181.362 167.572 187.819C169.67 196.592 172.077 205.324 174.788 213.925C176.013 217.811 177.571 219.591 181.765 220.086C186.308 220.621 190.814 219.368 195.157 218.174C192.931 211.809 189.463 203.551 195.097 197.796C195.613 197.27 196.1 196.858 196.822 196.665C197.299 196.537 198.083 196.827 198.494 196.505C199.324 195.854 198.522 194.684 198.065 194.022C196.676 192.011 194.543 190.62 192.719 189.051C190.428 187.082 188.902 187.474 186.286 188.336C185.244 188.68 181.147 190.055 181.49 187.597C181.74 185.81 185.126 185.522 186.381 184.852C187.332 184.345 187.512 184.172 187.249 183.145C186.837 181.54 185.817 181.298 184.387 181.65C182.548 182.101 179.551 183.77 177.702 182.642C175.06 181.03 178.016 178.876 179.611 178.24C181.281 177.574 183.655 177.349 183.6 175.116C183.547 172.987 181.944 170.739 180.719 169.115C179.534 167.545 177.948 165.56 176.024 164.876C173.309 163.911 170.516 165.352 168.876 167.503ZM197.872 201.594C195.795 202.549 195.142 205.66 195.309 207.702C195.472 209.677 196.219 212.386 197.941 213.563C200.199 215.108 203.394 214.289 205.768 215.685C205.722 211.117 206.459 206.554 207.772 202.184C205.982 202.078 204.208 201.827 202.426 201.642C201.123 201.507 199.119 201.02 197.872 201.594ZM339.851 181.151C340.429 181.466 340.61 181.56 340.875 182.19C339.73 182.512 340.001 182.063 339.851 181.151ZM344.771 147.54C346.596 147.2 347.569 147.607 349.209 148.166C350.378 148.566 351.496 147.629 351.829 149.206C354.298 146.243 361.096 151.082 363.506 152.216C366.049 153.411 368.62 154.908 369.49 157.824C369.748 158.687 369.757 159.627 370.074 160.473C370.313 161.111 370.869 161.681 370.943 162.38C371.027 163.191 370.456 163.797 370.459 164.575C370.461 164.883 370.795 165.431 370.716 165.697C369.904 168.418 368.626 170.781 365.763 171.644C363.27 172.396 360.275 172.087 358.05 170.709C356.076 169.487 354.599 167.339 353.708 165.226C353.553 164.86 353.508 163.957 353.315 163.661C353.033 163.231 352.757 163.281 352.45 162.949C351.637 162.069 350.375 160.353 350.918 159.079C349.092 159.923 346.762 156.118 345.792 155.071C345.065 154.287 343.622 153.859 343.078 153.062C342.331 151.968 343.993 151.076 343.203 150.371C342.78 149.994 341.081 150.675 341.017 149.518C340.959 148.447 344.075 147.669 344.771 147.54ZM386.345 160.439C386.367 160.458 386.388 160.467 386.407 160.468L386.407 160.467L386.4 160.463L386.345 160.439ZM379.381 152.546C379.517 152.367 380.217 151.273 380.465 151.929C380.669 152.466 379.648 152.489 379.381 152.546ZM281.294 99.9183C279.385 100.45 278.103 102.909 276.894 104.314C275.089 106.412 272.801 108.158 270.457 109.609C267.729 111.297 264.894 112.886 262.034 114.336C259.132 115.807 255.965 116.657 253.08 118.157C255.184 120.612 257.289 123.067 259.394 125.522C259.865 124.464 259.418 123.478 260.373 122.585C261.036 121.966 262.122 121.669 262.945 121.316C265.235 120.335 267.77 119.358 270.299 119.328C271.931 119.308 273.928 120.143 272.803 122.145C272.092 123.408 270.02 123.564 270.213 125.288C270.398 126.94 272.343 127.978 272.321 129.761C272.29 132.267 269.752 132.06 268.363 130.74C267.125 129.564 266.965 127.035 265.294 126.353C264.297 125.946 261.922 126.23 261.091 126.937C263.49 129.757 267.674 132.971 266.515 137.201C266.158 138.501 264.932 139.229 266.061 140.19C267.362 141.299 270.538 141.763 272.02 141.023C273.407 140.329 274.739 138.315 276.563 138.782C278.286 139.222 277.459 140.771 277.854 141.957C279.043 145.528 286.097 141.841 288.029 140.921C289.967 139.998 291.848 138.365 293.945 137.867C295.923 137.397 297.971 137.962 299.784 138.749C301.141 139.339 303.624 141.382 305.137 141.144C306.656 140.906 308.313 138.228 309.495 137.271C311.615 135.555 314.139 134.651 316.487 133.308C316.86 133.095 318.53 132.363 318.439 131.772C318.349 131.204 316.025 130.417 315.617 130.224C311.894 128.458 308.833 125.582 305.014 123.999C303.311 123.293 301.553 122.915 299.72 122.825C298.702 122.775 296.005 122.991 295.645 121.63C300.104 119.868 298.997 114.068 296.354 111.21C294.673 109.392 292.539 108.812 290.204 109.778C286.821 111.179 286.723 113.897 286.565 117.131C283.356 116.178 279.407 113.01 278.52 109.664C277.534 105.945 281.224 103.467 281.294 99.9183ZM372.538 106.854C377.58 106.72 382.579 106.908 387.589 107.507C390.674 107.876 395.039 107.828 397.918 109.142C398.759 109.525 399.924 110.515 399.462 111.604C399.064 112.542 397.619 112.621 396.765 112.67C392.887 112.893 388.874 112.105 384.979 112.049C374.627 111.902 364.271 113.005 354.029 114.437C351.205 114.832 348.384 115.254 345.56 115.652C343.209 115.984 340.678 116.601 338.298 116.56C336.421 116.528 335.696 115.307 336.723 113.538C337.723 111.815 339.962 111.573 341.656 110.935C351.698 108.096 362.144 107.131 372.538 106.854ZM353.164 98.6578C356.707 99.092 352.964 100.459 351.494 100.647C350.996 100.711 344.404 101.448 344.446 101.647C343.157 101.922 339.956 103.637 338.754 102.53C337.464 101.341 341.615 99.9405 342.463 99.6948C345.719 98.7503 349.753 98.2401 353.164 98.6578Z" fill="black"/>
</g>
<defs>
<filter id="filter0_d_1102_1330" x="0" y="0" width="692" height="425.061" filterUnits="userSpaceOnUse" color-interpolation-filters="sRGB">
<feFlood flood-opacity="0" result="BackgroundImageFix"/>
<feColorMatrix in="SourceAlpha" type="matrix" values="0 0 0 0 0 0 0 0 0 0 0 0 0 0 0 0 0 0 127 0" result="hardAlpha"/>
<feOffset dy="1"/>
<feGaussianBlur stdDeviation="0.5"/>
<feColorMatrix type="matrix" values="0 0 0 0 0 0 0 0 0 0 0 0 0 0 0 0 0 0 0.25 0"/>
<feBlend mode="normal" in2="BackgroundImageFix" result="effect1_dropShadow_1102_1330"/>
<feBlend mode="normal" in="SourceGraphic" in2="effect1_dropShadow_1102_1330" result="shape"/>
</filter>
<clipPath id="clip0_1102_1330">
<rect width="690" height="423.061" fill="white" transform="translate(1)"/>
</clipPath>
</defs>
</svg>
