<svg width="543" height="405" viewBox="0 0 543 405" fill="none" xmlns="http://www.w3.org/2000/svg">
<path d="M543 0H0V405H543V0Z" fill="#FDF074"/>
<path d="M396.792 25.4026C426.265 37.0683 431.022 92.4101 421.695 135.433C412.368 178.456 389.05 209.067 374.5 239.211C359.95 269.261 354.26 298.752 336.539 302.485C318.818 306.125 288.971 284.1 251.849 294.273C214.634 304.538 170.051 346.908 153.822 342.708C137.5 338.509 149.532 287.74 130.318 243.504C111.104 199.267 60.5516 161.657 74.3556 152.978C88.0664 144.299 166.227 164.55 207.826 156.898C249.331 149.245 254.274 113.782 283.841 79.9045C313.315 46.0275 367.412 13.8303 396.792 25.4026Z" fill="white"/>
<path fill-rule="evenodd" clip-rule="evenodd" d="M214.098 172.338C215.22 183.649 216.342 194.959 217.464 206.269C223.574 202.789 229.684 199.309 235.794 195.829V221.596V228.368C235.794 228.968 235.438 231.026 235.794 231.545C236.097 231.985 238.335 231.998 238.865 232.072C242.319 232.555 245.782 232.985 249.25 233.367C258.39 234.374 268.172 235.818 277.346 234.66C285.321 233.654 293.052 230.822 300.339 227.528C302.897 226.371 305.419 225.133 307.894 223.81C308.419 223.53 310.324 222.868 310.61 222.297C310.843 221.83 310.296 220.191 310.223 219.701C309.915 217.635 309.607 215.568 309.299 213.501L304.999 184.643L313.123 192.74C313.759 193.374 314.967 195.175 315.848 195.456C316.493 195.662 318.092 195.024 318.73 194.902C323.33 194.017 327.929 193.132 332.529 192.248C333.6 192.041 336.016 192.049 336.919 191.403C337.405 191.055 337.428 190.347 337.6 189.676C338.722 185.288 339.844 180.902 340.965 176.515C341.167 175.725 342.295 173.233 342.008 172.438C341.905 172.152 341.408 171.957 341.103 171.771C334.162 167.539 327.219 163.307 320.277 159.074C316.474 156.756 312.671 154.437 308.868 152.119C307.276 151.147 305.319 149.398 303.514 148.854C302.394 148.517 300.763 148.77 299.604 148.736C297.247 148.669 294.891 148.602 292.535 148.535C292.166 148.525 290.874 148.262 290.564 148.479C290.305 148.66 290.412 148.911 290.328 149.342C290.12 150.392 290.119 151.526 290.017 152.592C289.935 153.448 290.097 155.018 289.711 155.793C289.464 156.288 289.777 156.091 289.443 156.33C289.046 156.615 287.776 156.523 287.303 156.578C284.994 156.846 282.685 157.114 280.376 157.381C277.631 157.7 274.855 158.297 272.097 158.022C267.916 157.605 263.408 157.626 259.302 156.746C258.235 156.518 257.851 155.918 257.028 155.098C255.422 153.497 253.831 151.877 252.208 150.292C251.411 149.516 251.752 149.648 250.932 149.942C249.904 150.311 248.861 151.202 247.93 151.768C244.364 153.936 240.798 156.104 237.232 158.272L215.46 171.51C215.006 171.786 214.552 172.062 214.098 172.338Z" fill="#FDF074"/>
<path fill-rule="evenodd" clip-rule="evenodd" d="M422.337 173.744C417.849 190.752 408.823 209.296 390.638 214.717C386.217 216.035 381.915 217.03 377.323 216.528C376.886 216.481 376.521 216.542 376.105 216.55C375.36 216.564 376.003 216.831 375.168 216.574C374.517 216.373 373.907 215.871 373.229 215.649C371.424 215.06 369.5 214.946 367.666 214.47C363.16 213.299 358.516 211.855 354.15 210.241C352.094 209.481 350.204 208.423 348.271 207.405C346.305 206.371 344.221 205.729 342.233 204.78C340.662 204.03 337.971 203.053 336.866 201.646C335.689 200.146 337.318 196.952 337.784 195.358C339.368 189.931 341.254 184.584 342.444 179.05C346.555 183.805 352.26 186.749 358.166 188.649C361.37 189.679 364.667 190.424 368 190.891C371.026 191.314 374.291 191.826 377.324 191.225C379.614 190.771 382.489 189.721 384.124 187.976C384.708 187.353 385.408 186.211 385.081 185.307C384.666 184.158 383.456 184.699 382.802 183.842C382.232 183.095 382.321 181.349 382.139 180.44C381.818 178.831 381.376 177.266 380.837 175.717C379.791 172.71 378.487 169.696 378.175 166.496C377.903 163.72 378.537 161.095 379.924 158.686C380.579 157.547 382.226 154.449 383.833 154.578C385.598 154.719 383.218 162.142 383.14 163.657C382.832 169.66 383.639 176.057 386.725 181.318C387.906 183.333 389.615 185.679 392.138 185.928C394.81 186.193 396.966 184.094 398.238 181.97C401.341 176.79 399.777 169.681 398.205 164.251C396.277 157.589 391.244 152.997 388.062 147.014C392.813 147.491 395.357 150.504 397.795 154.326C400.479 158.533 402.569 163.586 403.6 168.481C404.12 170.955 403.761 173.439 403.764 175.937C403.765 176.767 403.765 179.829 405.12 179.708C406.569 179.579 407.066 176.126 407.279 175.073C407.767 172.657 408.296 170.24 408.72 167.812C409.47 163.516 409.804 159.117 410.703 154.851C410.854 154.13 411.157 152.129 412.239 152.669C413.072 153.085 412.938 156.179 412.969 156.899C413.044 158.671 413.149 160.443 413.164 162.218C413.185 164.848 412.66 167.57 412.917 170.183C413.085 171.891 414.004 173.778 415.142 171.475C416.271 169.191 416.501 166.342 417.13 163.886C417.792 161.307 418.475 158.69 419.878 156.399C420.267 155.764 420.685 154.755 421.551 155.054C422.179 155.271 422.643 156.759 422.837 157.284C423.714 159.655 423.565 162.293 423.51 164.776C423.442 167.819 423.115 170.794 422.337 173.744ZM334.822 178.158C334.583 178.08 333.564 177.984 333.311 177.962C333.015 177.936 333.351 177.391 332.634 177.546C332.773 177.889 333.018 178.117 333.372 178.232C332.294 178.596 331.499 177.697 330.762 177.581C330.057 177.47 330.028 177.581 329.331 178.324C328.578 177.407 328.719 177.979 328.099 177.979C327.874 177.98 327.864 178.32 327.497 178.279C327.176 178.243 327.143 177.758 326.953 177.701C325.925 177.39 324.866 178.953 323.7 177.598C323.417 179.008 320.179 177.241 318.933 177.489C317.627 177.748 318.19 178.216 317.135 177.417C316.129 176.656 316.41 177.161 315.24 177.784C315.267 177.77 314.579 178.233 314.643 178.241C313.833 178.146 313.88 177.311 312.854 177.355C311.769 177.402 311.305 178.251 310.312 177.206C310.095 177.989 310.051 177.652 309.542 177.849C309.262 177.915 309.017 177.842 308.807 177.629C308.743 177.844 308.603 177.976 308.387 178.025C307.832 178.074 306.791 178.151 306.288 177.885C305.532 177.485 306.14 177.331 305.616 176.881C305.381 178.122 304.866 177.858 303.78 177.974C302.952 178.062 302.77 177.809 301.978 177.685C301.199 177.564 300.192 177.866 299.432 177.994C299.119 178.048 298.698 178.266 298.379 178.189C298.091 178.12 297.968 177.897 297.796 177.839C297.587 177.769 297.632 177.586 297.271 177.498C297.022 177.438 296.577 177.67 296.328 177.711C294.556 177.998 292.854 178.001 291.164 177.305C291.997 178.765 289.218 177.977 288.723 177.372C288.104 178.34 287.355 177.657 286.107 177.732C284.905 177.805 283.098 178.173 282.611 176.679C282.515 176.982 281.833 177.864 281.562 177.998C280.774 178.388 280.68 177.811 279.948 177.577C278.951 177.257 279.159 177.864 278.541 177.987C277.497 178.195 276.934 177.462 276.011 177.072C275.972 177.678 275.952 178.051 275.427 178.429C274.962 176.738 273.303 178.567 273.588 176.308C272.956 176.718 272.068 177.034 271.888 177.864C272.944 177.574 272.001 178.263 271.957 178.285C271.817 178.358 271.346 177.698 271.236 177.605C271.206 177.916 271.177 178.228 271.147 178.539C270.726 178.329 270.331 177.954 269.99 177.765C269.682 177.596 270.123 177.243 269.603 177.218C269.329 177.205 269.044 177.797 268.756 177.848C268.316 177.925 268.528 177.295 268.344 177.317C268.063 177.349 267.607 177.758 267.395 177.75C266.7 177.724 267.17 177.401 266.64 177.253C265.692 176.988 265.753 177.607 265.072 177.83C263.513 178.341 263.67 175.991 262.084 177.558C261.705 177.933 261.46 178.513 260.941 178.48C259.864 178.413 260.242 177.139 260.461 176.516C260.687 176.627 256.529 178.759 256.562 178.676C256.588 178.164 257.242 177.77 256.658 177.316C256.18 178.34 255.677 178.358 254.575 178.548C254.039 178.641 253.933 178.764 253.36 178.542C252.995 178.401 252.75 177.819 252.387 177.787C252.436 177.792 251.769 178.298 251.667 178.344C251.066 178.614 250.685 178.307 250.101 178.419C249.602 178.514 249.406 178.937 248.91 178.821C248.248 178.667 248.637 177.878 247.727 178.098C247.415 178.173 247.229 178.772 246.738 178.895C245.974 179.088 245.037 178.728 244.229 178.916C243.588 179.066 243.112 179.129 242.551 179.16C242.098 179.185 242.285 178.834 241.451 179.249L241.097 178.359C240.68 178.734 240.262 179.108 239.845 179.483C239.766 179.147 239.716 178.807 239.694 178.463C239.072 179.085 238.288 179.191 237.451 179.247C236.545 179.308 235.87 179.505 234.988 179.671C234.709 179.722 233.991 179.806 233.762 179.709C233.796 179.723 233.333 179.531 233.473 179.567C233.412 179.445 233.357 179.321 233.305 179.195C233.227 178.844 232.974 178.828 232.547 179.149C232.325 179.115 231.897 178.825 231.676 178.896C231.107 179.08 231.185 179.521 230.618 179.456C230.25 179.414 230.063 178.872 229.68 178.835C229.094 178.779 228.586 179.433 228.058 179.576C229.663 179.141 225.977 179.478 227.123 179.508C226.371 179.489 225.591 179.452 224.896 179.788C224.513 179.526 224.979 178.999 224.591 178.783C224.239 178.586 224.212 179.105 224.171 179.117C224.393 179.054 224.282 179.496 224.06 179.574C223.368 179.819 222.815 179.197 222.779 178.579C222.191 179.462 222.026 179.107 221.162 179.162C220.31 179.216 219.574 179.662 218.722 179.654C217.035 179.638 215.891 179.053 215.328 177.549C217.125 177.768 218.934 176.614 220.691 176.886C221.269 176.975 221.629 177.408 222.135 177.331C222.759 177.237 223.194 176.558 223.993 176.485C225.757 176.324 227.495 176.481 229.27 176.211C231.391 175.888 233.604 175.697 235.745 175.854C237.399 175.976 238.739 175.344 240.416 175.223C242.586 175.065 244.773 175.037 246.946 174.924C249.178 174.807 251.581 174.451 253.807 174.565C254.502 174.6 255.101 174.668 255.79 174.627C256.082 174.609 256.358 174.412 256.665 174.441C257.063 174.48 257.234 174.887 257.648 174.873C258.351 174.849 259.102 174.271 259.937 174.255C261.311 174.229 262.679 174.232 264.056 174.154C265.268 174.086 266.567 173.803 267.774 173.818C268.625 173.829 268.835 174.553 269.331 174.628C270.224 174.762 274.736 172.199 275.126 174.499C277.476 172.894 280.627 174.253 283.241 173.952C286.601 173.564 290.022 173.91 293.404 173.772C296.846 173.631 300.387 173.761 303.815 174.085C305.235 174.219 306.607 174.345 308.031 174.264C308.665 174.228 309.399 174.066 310.034 174.212C310.188 174.247 311.365 175.068 311.219 175.091C311.862 174.515 311.427 174.43 312.558 174.401C313.43 174.378 314.255 174.566 315.122 174.617C316.678 174.709 318.246 174.494 319.8 174.541C321.096 174.581 322.364 174.772 323.667 174.781C325.072 174.791 326.732 174.831 327.748 175.962C327.641 175.607 327.534 175.252 327.426 174.897C328.995 175.019 330.545 175.578 332.13 175.317C331.729 175.7 331.322 176.014 331.169 176.576C332.024 176.468 332.603 175.872 333.503 175.867C334.259 175.863 334.416 176.241 335.214 175.752C335.313 176.351 335.411 176.951 335.509 177.55C336.615 177.29 335.889 176.467 335.97 175.726C336.869 175.995 337.629 175.686 337.275 176.976C337.002 177.97 335.758 178.461 334.822 178.158ZM333.269 189.238C332.883 190.319 329.549 189.701 328.76 189.587C327.742 189.439 326.576 189.206 325.638 189.09C325.526 188.94 325.391 188.813 325.234 188.708C325.115 188.872 324.966 188.989 324.786 189.057C324.355 189.152 324.354 189.595 323.787 189.497C323.761 190.154 324.218 189.781 324.568 190.019C323.686 190.61 324.09 189.93 323.595 189.941C323.472 189.767 323.301 189.699 323.082 189.736C322.803 189.808 322.546 189.928 322.311 190.094C322.09 190.326 321.901 190.338 321.744 190.13C321.593 189.979 321.409 189.885 321.192 189.85C320.323 189.991 320.08 190.376 319.101 190.313C317.702 190.223 316.189 190.591 314.812 190.397C313.959 190.277 312.534 188.939 312.146 190.244C311.556 189.277 310.617 188.619 310.052 187.631C312.683 187.479 315.313 187.298 317.946 187.203C320.251 187.12 322.773 187.379 324.927 187.271C326.946 187.169 329.083 186.947 331.143 186.763C333.327 186.568 334.05 187.046 333.269 189.238ZM264.635 189.397C265.59 189.661 266.5 189.063 267.426 189.252C267.732 189.314 268.366 189.871 268.506 189.882C268.761 189.902 269.511 189.356 269.832 189.282C271.868 188.82 274.333 188.869 276.367 189.153C277.445 189.304 277.61 188.811 278.551 188.572C279.53 188.323 280.92 188.515 281.95 188.446C284.372 188.284 286.795 188.399 289.201 188.223C291.671 188.041 294.13 187.943 296.602 187.816C298.285 187.729 302.331 186.771 303.727 188.018C304.877 189.047 303.395 190.833 302.244 191.241C301.383 191.545 300.971 190.904 300.332 190.965C299.604 191.034 299.858 191.893 299.208 191.097C298.806 191.888 296.276 191.551 295.551 191.603C293.972 191.717 292.635 192.034 291.56 190.563C291.633 190.987 291.706 191.411 291.778 191.835C290.352 191.074 288.822 191.318 287.584 191.583C286.971 191.714 285.09 192.622 284.426 192.23C283.969 191.961 284.774 191.501 284.003 191.271C283.599 191.151 282.902 191.821 282.408 191.787C281.042 191.693 281.43 190.776 280.088 191.943C279.633 191.551 279.482 190.884 279.542 190.312C278.568 191.142 278.649 192.525 276.906 192.272C276.257 192.177 276.138 191.516 275.799 191.394C275.078 191.134 274.996 191.602 274.371 191.972C274.135 192.111 273.848 192.335 273.57 192.364C272.999 192.42 272.909 192.159 272.831 192.167C272.451 192.209 271.973 192.402 271.522 192.264C271.118 192.14 271 191.429 270.288 191.595C269.606 191.754 269.601 192.217 269.724 192.908C269.052 192.839 268.646 192.465 268.143 192.06C267.635 193.242 266.567 192.263 265.975 193.261C265.205 192.343 264.711 192.596 263.756 191.699C263.803 192.073 263.85 192.447 263.897 192.821C263.151 192.678 262.82 192.153 262.184 192.847C261.566 191.7 259.695 193.335 258.733 192.226C258.305 193.631 255.47 193.295 254.272 193.319C253.211 193.341 252.426 193.254 251.389 193.5C250.472 193.717 249.203 193.943 248.341 193.843C247.778 193.778 247.162 193.675 246.461 193.751C245.45 193.861 244.576 194.383 243.529 194.136C241.951 193.764 240.984 191.696 242.741 190.787C243.944 190.166 246.109 190.396 247.433 190.281C249.625 190.091 252.083 189.692 254.279 189.873C255.992 190.015 257.553 189.607 259.3 189.435C260.616 189.305 262.772 189.072 263.63 190.373C263.96 189.993 263.925 189.201 264.635 189.397ZM240.629 207.213C240.394 206.042 250.419 205.398 251.414 205.321C253.503 205.16 255.598 205.046 257.692 204.993C259.414 204.949 261.02 205.277 262.742 205.013C264.35 204.767 266.291 204.262 267.69 205.398C267.897 203.844 273.931 204.601 275.079 204.606C280.077 204.624 284.859 204.635 289.694 204.326C292.456 204.15 295.39 203.912 298.153 204.05C299.4 204.113 300.403 204.444 301.643 204.156C302.451 203.969 303.322 203.578 304.095 204.13C305 204.777 305.387 206.971 304.763 207.887C304.31 208.554 303.908 208.48 303.182 208.364C302.067 208.187 301.239 207.93 300.102 208.382C300.286 208.309 299.34 208.52 299.419 208.514C298.131 208.61 296.364 209.507 295.255 208.472C295.699 208.55 296.345 207.758 295.785 207.693C295.364 207.644 295.097 208.094 294.768 208.245C293.645 208.761 293.07 208.6 292.399 207.517C291.046 208.687 290.9 208.363 290.306 206.923C289.848 207.275 289.75 208.107 289.39 208.379C289.337 208.42 289.558 208.925 289.298 208.904C289.057 208.885 288.978 208.49 288.793 208.459C288.674 208.439 288.612 208.093 288.499 208.072C288.376 208.049 288.25 208.27 288.111 208.264C287.739 208.246 286.675 209.036 287.057 207.928C286.493 208.643 286.251 208.187 286.048 207.536C285.397 208.03 284.747 208.523 284.096 209.016C283.793 208.177 283.273 208.406 282.618 208.699C282.815 208.116 282.692 207.564 282.196 207.97C281.91 208.205 281.717 208.95 281.424 209.266C280.236 208.066 279.804 208.395 278.163 208.551C277.537 208.61 276.759 208.726 276.199 208.348C275.707 208.016 275.429 206.798 274.588 207.782C274.775 207.563 274.482 209.244 274.43 209.512C274.059 209.262 273.744 208.955 273.484 208.591C273 209.547 271.729 208.689 270.688 208.885C269.048 209.192 267.357 209.711 265.909 208.493C265.807 208.886 264.621 209.387 264.619 209.402C264.689 208.706 265.129 208.951 264.231 208.818C264.065 208.794 263.878 209.091 263.721 209.124C263.186 209.234 262.56 209.129 262.02 209.114C259.773 209.049 257.717 209.546 255.499 209.726C254.751 209.787 253.864 209.906 253.162 209.625C252.439 209.334 252.459 209.005 251.727 209.192C251.959 209.133 251.27 209.855 251.307 209.828C251.209 209.899 250.798 209.547 250.653 209.574C250.61 209.728 250.568 209.881 250.525 210.035C250.349 210.014 250.172 209.992 249.996 209.97C249.514 210.035 249.079 209.548 248.625 209.531C248.709 209.534 247.402 210.02 247.462 210.049C246.55 209.595 246.812 209.727 245.655 210.003C244.561 210.264 243.472 210.204 242.35 210.366C239.087 210.84 241.031 209.207 240.629 207.213ZM237.747 223.5C237.134 222.631 238.766 222.33 239.288 222.254C240.146 222.128 241.283 222.379 241.855 222.243C242.725 222.036 243.566 221.543 244.546 221.409C245.782 221.24 247.028 221.213 248.27 221.107C248.684 221.072 249.196 220.93 249.598 220.954C250.198 220.989 250.447 221.306 250.93 221.308C251.754 221.312 252.771 220.793 253.616 220.698C254.698 220.575 255.79 220.518 256.877 220.464C259.167 220.35 261.434 220.398 263.722 220.395C264.766 220.393 267.547 219.312 268.067 220.525C268.791 219.606 270.647 219.731 271.682 219.704C273.505 219.658 275.309 219.482 277.13 219.398C278.689 219.325 280.432 219.658 281.964 219.425C282.807 219.296 283.087 219.027 284.044 219.148C284.755 219.238 285.839 218.863 286.45 219.029C286.418 219.021 287.211 219.511 286.964 219.527C287.236 219.509 287.22 219.7 287.521 219.615C287.916 219.504 287.734 219.008 288.553 218.832C289.829 218.558 291.53 218.876 292.856 218.805C294.142 218.737 295.426 218.707 296.714 218.713C297.306 218.716 298.039 218.575 298.616 218.69C298.898 218.746 299.499 219.114 299.738 219.077C300.417 218.972 300.762 218.501 301.679 218.53C302.719 218.563 303.655 218.549 304.689 218.47C305.69 218.394 305.85 218.251 306.346 219.082C306.838 219.907 306.974 220.981 306.069 221.541C306.657 221.503 307.38 222.289 306.687 222.724C306.259 222.993 305.401 222.386 304.888 222.429C304.256 222.484 303.761 222.817 303.073 222.838C302.351 222.86 301.617 223.041 300.905 223.055C300.162 223.07 299.601 222.738 298.897 222.879C298.278 223.004 298.212 223.51 297.466 223.065C297.096 222.844 297.033 222.024 296.527 222.017C295.85 222.006 296.12 222.88 295.73 223.285C295.626 222.035 294.659 224.103 294.275 222.586C293.921 223.09 292.609 223.794 291.974 223.39C291.395 223.021 291.587 222.186 291.346 221.585C290.944 222.666 289.867 223.787 289.964 221.819C289.441 222.462 288.026 222.361 288.381 223.486C287.955 223.478 287.854 222.87 287.495 222.824C287.185 222.785 286.939 223.022 286.892 223.019C287.061 223.033 286.384 223.258 286.374 223.26C286.832 223.167 285.051 223.009 285.355 223.011C284.942 223.008 284.436 223.346 283.953 223.345C283.513 223.343 283.075 223.17 282.64 223.121C281.514 222.993 281.748 223.24 281.041 223.593C280.779 223.723 280.713 223.945 280.341 223.917C280.067 223.897 279.964 223.539 279.933 223.536C279.547 223.497 279.832 223.368 279.233 223.428C279.164 223.546 279.095 223.664 279.027 223.782C278.81 224.058 278.529 224.127 278.185 223.989C277.298 224.179 274.356 225.002 274.644 223.478C274.193 223.698 273.743 223.918 273.292 224.138C273.099 222.909 270.65 224.539 270.103 224.621C269.401 224.726 269.336 224.457 268.673 224.314C268.553 224.288 268.313 224.682 268.033 224.626C267.305 224.48 267.175 224.407 267.05 223.618C266.531 224.587 266.1 224.154 265.159 224.313C264.95 224.348 264.817 224.757 264.518 224.687C264.303 224.636 264.297 224.243 264.148 224.192C264.014 224.146 264.035 223.836 263.838 223.792C263.612 223.741 262.842 224.371 262.621 224.469C262.122 224.688 261.304 225.051 260.817 224.942C260.216 224.808 260.483 224.363 259.634 224.413C258.293 224.491 257.734 225.63 256.899 223.836C256.523 224.554 256.571 224.749 255.966 224.987C255.519 225.162 254.388 224.979 253.8 224.957C251.287 224.865 248.817 225.719 246.325 225.495C245.23 225.397 244.307 225.178 243.201 225.357C242.04 225.545 240.904 225.822 239.726 225.933C239.127 225.99 237.875 226.162 237.582 225.397C237.323 224.724 238.288 224.265 237.747 223.5ZM242.675 251.092C239.416 253.268 236.717 256.239 233.725 258.756C230.724 261.279 228.344 264.083 225.646 266.877C223.151 269.459 220.86 271.902 217.844 273.853C215.936 275.089 214.234 276.609 212.273 277.773C210.805 278.646 208.581 279.793 209.297 277.125C210.031 274.391 211.387 271.628 212.564 269.075C214.237 265.446 215.923 261.85 217.733 258.289C218.414 256.952 218.795 255.62 219.874 254.554C221.048 253.394 221.87 251.88 223.156 250.785C228.564 246.175 236.714 249.736 242.675 251.092ZM252.897 252.654C251.419 253.428 249.765 253.619 248.198 254.131C246.863 254.567 245.622 255.342 244.186 255.399C245.493 254.419 246.616 253.088 248.089 252.345C249.747 251.508 251.251 252.117 252.897 252.654ZM317.781 259.1C312.343 257.269 307.281 254.57 301.985 252.399C301.071 252.024 293.921 249.673 294.066 248.555C299.076 247.638 304.236 246.066 309.259 247.78C313.828 249.34 317.544 253.081 321.081 256.211C322.004 257.028 327.711 260.748 327.2 261.933C326.847 262.754 324.097 262.53 323.447 262.362C322.608 262.144 322.125 261.636 321.467 261.077C320.367 260.144 319.15 259.561 317.781 259.1ZM307.743 228.504C308.569 227.745 309.063 226.595 309.852 225.894C310.866 224.995 312.501 225.433 313.609 225.9C316.934 227.303 319.776 229.66 323.08 231.124C326.742 232.745 329.912 234.912 333.215 237.146C336.234 239.187 339.499 240.877 342.58 242.825C345.721 244.811 349.236 246.102 352.419 248.016C355.659 249.966 358.886 251.923 361.999 254.071C367.551 257.901 373.331 261.834 377.438 267.28C379.549 270.079 381.525 273.254 383.074 276.397C384.482 279.254 386.009 283.221 384.185 286.193C382.432 289.047 379.445 291.296 376.917 293.426C375.96 294.232 375.049 295.212 373.808 295.562C372.299 295.986 370.537 295.869 368.985 295.995C360.685 296.666 352.952 296.032 344.772 294.55C336.885 293.122 328.965 292.322 321.017 291.329C316.534 290.769 312.051 290.116 307.628 289.183C305.737 288.785 303.814 288.325 301.964 287.781C300.348 287.307 298.99 286.262 297.328 285.848C290.278 284.091 282.212 283.419 275.232 280.463C281.409 277.901 287.973 276.353 294.303 274.224C300.965 271.983 307.473 270.103 314.495 269.466C318.109 269.139 321.343 268.218 324.819 267.254C328.132 266.335 331.59 266.053 334.993 265.641C336.506 265.458 340.824 265.732 341.326 263.758C342.072 260.819 337.829 260.479 336.021 260.743C333.455 261.116 331.339 261.755 329.375 259.654C327.37 257.508 325.422 255.312 323.38 253.193C319.595 249.265 315.694 244.722 310.343 242.959C303.815 240.809 296.246 242.85 289.732 244.073C282.853 245.364 275.985 246.6 269.234 248.478C266.439 249.255 262.834 250.967 259.932 250.692C257.073 250.421 253.834 249.953 251.071 249.13C249.821 248.758 248.793 248.068 247.675 247.425C246.22 246.588 244.626 246.051 243.082 245.401C239.96 244.086 236.917 242.874 233.549 242.357C230.713 241.922 227.701 241.664 224.952 242.656C222.255 243.63 219.866 245.612 217.984 247.73C215.941 250.031 214.251 252.61 212.576 255.181C211.772 256.414 210.791 257.491 209.958 258.697C209.259 259.71 208.85 260.836 208.11 261.82C206.454 264.023 205.33 266.841 204.327 269.403C203.212 272.249 201.973 275.634 202.239 278.73C202.34 279.901 202.445 281.451 202.898 282.536C203.475 283.916 204.298 283.881 205.484 284.401C207.52 285.295 208.092 287.768 210.724 287.286C213.193 286.834 215.334 284.803 217.136 283.184C219.484 281.075 221.731 278.85 223.977 276.634C226.283 274.36 228.555 271.837 230.389 269.161C231.111 268.108 231.673 266.918 232.527 265.959C233.613 264.737 234.833 264.591 236.309 264.104C249.211 259.849 262.176 255.744 275.481 252.935C278.669 252.262 281.882 251.393 285.014 250.497C288.335 249.547 290.055 250.551 292.796 252.36C298.522 256.139 305.291 258.801 311.667 261.267C313.675 262.043 316.871 262.093 318.441 263.624C309.138 265.039 300.272 267.763 291.298 270.476C286.874 271.813 282.399 272.972 277.958 274.251C273.516 275.53 269.242 277.188 264.861 278.63C260.5 280.065 255.891 280.651 251.489 281.974C246.994 283.326 242.518 284.256 237.905 285.077C233.247 285.907 228.621 286.864 223.946 287.607C221.806 287.947 219.666 288.3 217.55 288.767C215.479 289.226 213.478 290.322 211.397 290.576C202.102 291.711 192.99 294.24 183.731 295.67C176.818 296.737 164.791 298.226 160.308 291.303C155.801 284.341 161.331 276.22 166.266 271.242C169.332 268.148 172.778 265.425 176.394 263.003C180.263 260.41 183.986 257.611 187.856 255.022C196.614 249.164 206.111 244.386 215.521 239.679C220.037 237.419 224.401 234.996 228.794 232.517C230.975 231.286 232.182 233.272 233.906 234.621C235.261 235.683 237.751 238.3 239.648 237.09C239.721 237.526 239.794 237.962 239.867 238.398C240.422 238.145 240.978 237.892 241.534 237.639C241.907 238.616 241.863 239.223 242.906 239.736C243.546 240.052 244.912 240.431 245.523 239.876C245.647 240.262 245.772 240.647 245.896 241.033C246.43 240.992 246.533 239.468 246.634 239.112C247.548 240.445 248.813 241.559 250.42 241.936C250.428 241.849 250.159 240.753 250.171 240.747C250.679 240.436 251.321 241.767 251.59 242.052C252.484 242.996 253.017 242.85 254.005 242.087C254.077 242.165 254.411 243.036 254.459 243.02C254.673 242.952 255.079 242.181 255.123 242.111C255.062 243.125 257.024 243.33 257.717 243.112C257.562 242.814 257.406 242.517 257.251 242.22C259.665 241.898 260.613 244.459 262.931 244.329C264.644 244.232 263.27 243.858 264.239 243.126C265.086 242.486 265.237 243.886 265.32 243.841C265.482 243.672 265.607 243.478 265.696 243.259C266.009 244.458 268.505 245.533 268.247 243.562C269.229 243.954 269.926 244.605 271.012 244.742C272.333 244.909 273.743 244.629 275.061 244.52C277.899 244.284 280.575 243.706 283.134 242.408C284.651 241.639 286.266 240.94 287.692 240.012C288.886 239.235 291.15 236.875 292.739 237.891C292.332 236.693 294.248 237.803 294.309 236.26C294.617 236.492 294.924 236.723 295.232 236.954C295.417 236.551 295.365 235.914 295.612 235.562C295.952 235.079 296.117 235.363 296.407 235.091C296.731 234.787 297.013 233.972 297.401 233.74C297.801 233.502 298.272 233.786 298.702 233.578C299.358 233.26 302.177 230.157 301.7 232.816C302.912 232.405 301.977 232.029 302.129 231.222C302.433 229.607 303.173 230.769 303.91 230.91C305.117 231.141 305.093 230.145 305.767 229.421C306.381 228.76 307.537 228.464 307.139 227.315C307.593 227.56 307.69 228.039 307.743 228.504ZM234.966 193.994C234.015 195.052 233.302 194.599 232.245 194.444C232.132 194.066 231.938 194.014 231.665 194.287C231.352 194.467 231.015 194.585 230.654 194.642C229.787 194.855 228.886 194.764 228.038 195.087C228.062 194.804 228.361 194.3 228.17 194.012C227.278 194.627 226.725 195.019 225.629 195.031C224.742 195.04 223.184 194.364 222.447 195.173C222.424 194.858 222.401 194.543 222.379 194.228C222.018 194.407 221.704 194.648 221.436 194.949C221.386 194.482 221.358 194.129 221.049 193.752C220.462 194.956 219.82 194.984 218.681 194.524C218.841 194.589 217.541 193.828 217.59 194.039C217.179 192.31 223.667 192.453 224.348 192.385C226.049 192.213 227.75 192.114 229.453 191.957C231.069 191.809 232.275 191.558 233.393 192.903C232.895 190.96 237.608 191.056 234.966 193.994ZM160.581 163.856C160.76 166.794 161.415 169.917 160.271 172.745C159.351 175.017 157.515 177.584 155.538 179.068C151.49 182.105 148.058 178.389 147.495 174.304C146.907 170.044 148.072 164.839 151.747 162.212C153.942 160.643 156.069 160.751 158.597 161.267C159.191 161.389 160.154 161.342 160.494 161.931C160.574 162.069 160.502 163.853 160.581 163.856ZM214.351 203.001C213.651 203.353 212.92 203.559 212.303 204.039C212.089 204.205 212.016 204.585 211.789 204.725C211.375 204.98 210.784 204.811 210.353 205.021C209.64 205.369 209.128 205.867 208.28 206.188C207.021 206.664 205.917 207.317 204.727 207.937C202.744 208.969 200.616 209.855 198.542 210.695C197.496 211.119 194.602 211.946 194.702 213.475C194.468 213.538 194.228 213.027 193.74 213.068C193.069 213.124 192.182 213.898 191.486 214.089C190.183 214.445 189.174 214.476 189.174 216.135C188.759 215.853 188.654 215.165 188.102 215.074C187.481 214.971 187.22 215.64 186.723 215.848C186.138 216.093 185.41 215.858 184.83 216.119C184.577 216.386 184.295 216.62 183.986 216.819C183.67 216.855 183.357 216.846 183.044 216.79C181.814 217.05 180.682 217.512 179.449 217.752C178.247 217.986 177.425 218.072 177.93 219.49C176.644 219.741 176.33 218.379 174.88 218.878C173.102 219.487 171.441 219.928 169.585 220.3C168.638 220.489 167.649 220.913 166.696 221.013C166.016 221.084 165.381 220.841 164.711 220.916C163.904 221.007 163.255 221.38 162.42 221.394C161.628 221.408 160.796 221.266 160.018 221.126C160.128 221.439 160.265 221.739 160.431 222.026C159.893 221.914 159.644 221.268 159.188 221.173C158.71 221.072 158.281 221.565 157.882 221.456C157.713 221.409 157.826 220.887 157.522 220.787C157.245 220.697 157.129 220.804 156.854 220.761C156.763 220.747 155.615 220.685 155.432 220.781C155.112 220.95 155.436 221.267 155.372 221.314C154.293 222.111 154.28 221.681 153.798 220.848C153.092 219.626 152.24 220.397 150.955 220.183C149.524 219.945 148.397 220.575 146.988 220.485C145.468 220.389 143.683 219.254 142.339 218.591C139.438 217.16 136.609 215.805 134.173 213.638C129.411 209.401 125.536 204.19 123.252 198.224C120.797 191.815 120.332 185.131 120.529 178.331C120.648 174.242 120.975 170.155 121.621 166.114C122.066 163.334 122.159 158.394 125.299 157.128C125.839 163.637 124.135 170.27 125.209 176.737C125.533 178.684 126.322 181.28 127.815 182.723C130.025 184.858 130.542 181.771 130.742 180.066C131.114 176.899 131.805 173.75 132.295 170.598C132.784 167.447 133.129 164.261 133.809 161.144C134.057 160.007 136.057 151.684 137.524 152.078C137.227 158.133 136.439 164.084 136.408 170.162C136.396 172.6 136.177 175.175 136.529 177.596C136.711 178.843 137.848 182.499 139.803 182.195C141.613 181.912 139.623 179.336 139.454 178.343C139.007 175.714 139.577 172.443 139.995 169.833C140.784 164.894 142.546 159.835 145.426 155.708C148.005 152.012 151.976 148.494 156.76 149.145C158.804 149.424 160.398 149.931 161.425 151.794C162.231 153.256 165.405 154.917 163.566 156.748C161.891 158.414 159.183 157.08 157.321 156.683C155.042 156.197 152.599 156.782 150.693 158.115C147.423 160.402 145.559 164.49 144.951 168.325C144.131 173.495 146.323 187.028 154.395 183.995C159.758 181.98 163.797 174.732 163.347 169.182C163.166 166.961 162.296 162.744 165.375 162.144C169.319 161.376 169.877 165.716 169.477 168.537C168.897 172.64 166.724 176.455 164.239 179.698C162.073 182.525 159.554 184.293 156.948 186.628C156.176 187.319 154.208 188.873 154.538 190.159C154.901 191.568 157.994 191.969 159.232 192.2C165.36 193.345 172.269 192.292 178.386 191.493C190.958 189.849 203.365 185.802 213.673 178.361C214.09 182.965 214.615 187.553 214.808 192.174C214.902 194.417 214.926 196.693 215.183 198.924C215.341 200.296 215.913 202.213 214.351 203.001ZM179.491 219.044C178.998 219.301 179.531 217.743 179.394 218.258C180.131 218.522 180.164 218.784 179.491 219.044ZM231.643 163.324C232.426 162.462 234.567 160.412 235.246 162.358C235.499 161.528 235.532 160.3 236.508 161.42C236.896 160.044 241.182 160.173 242.244 160.112C245.642 159.918 249.055 159.814 252.442 159.477C259.402 158.784 266.484 159.142 273.469 159.119C274.982 159.114 276.49 159.032 277.992 159.251C279.441 159.463 280.964 160.056 282.441 159.839C283.754 159.646 284.615 159.285 285.966 159.439C287.584 159.624 289.154 159.756 290.785 159.75C298.002 159.724 305.216 160.016 312.434 160.027C313.841 160.029 315.527 159.755 316.847 160.351C317.336 160.572 317.87 161.308 318.243 161.389C318.672 161.481 318.417 160.815 318.99 161.116C319.758 161.518 319.164 162.758 318.657 162.954C318.96 162.836 318.109 162.721 318.194 162.716C317.79 162.738 317.445 163.047 317.011 163.028C316.35 162.999 315.796 162.596 315.264 162.242C315.255 162.387 315.547 163.351 315.213 163.4C314.926 163.442 314.656 162.491 314.627 162.27C313.012 163.692 311.302 162.899 309.298 163.079C307.876 163.207 304.913 164.153 303.921 162.672C303.88 162.987 303.753 163.263 303.542 163.5C303.258 163.93 303.013 163.894 302.806 163.389C302.736 163.392 302.046 163.542 302.032 163.541C301.546 163.502 300.916 163.328 300.422 163.286C299.657 163.221 299.798 163.776 299.188 163.785C298.856 163.79 298.007 163.311 297.427 163.281C296.422 163.228 295.395 163.654 294.403 163.525C293.721 163.436 293.104 162.882 292.434 162.86C291.6 162.833 291.329 163.468 290.668 162.576C290.532 162.539 290.449 163.064 290.395 163.073C290.408 163.071 289.765 163.166 289.69 163.195C289.558 163.246 289.044 163.48 288.888 163.483C288.55 163.489 288.367 163.248 288.009 163.242C287.417 163.232 285.528 163.752 285.581 162.659C283.468 163.441 281.666 163.136 279.498 163.321C278.503 163.406 277.878 163.273 276.932 163.09C275.747 162.862 274.96 163.149 273.777 163.207C272.641 163.263 272.283 162.783 271.325 162.35C270.946 162.179 270.697 161.954 270.233 162.049C269.968 162.103 270.156 162.548 270.078 162.578C269.671 162.735 269.386 162.568 268.827 162.607C267.796 162.677 267.385 163.537 266.325 162.729C266.677 162.687 267.03 162.644 267.382 162.601C266.368 162.172 265.03 161.953 265.276 163.515C264.411 163.394 265.16 162.806 264.735 162.596C264.309 162.386 263.833 162.738 263.298 162.911C261.884 163.369 260.706 163.142 259.231 163.06C257.556 162.966 253.638 164.331 252.438 162.559C252.402 162.933 252.001 163.973 251.467 163.924C251.292 163.908 251.778 162.804 251.833 162.687C251.558 163.272 250.302 163.383 249.683 163.686C249.753 163.372 249.822 163.058 249.891 162.744C249.317 163.354 249.038 162.982 248.362 163.186C248.066 163.275 247.639 163.883 247.386 163.92C247.092 163.579 246.722 163.433 246.276 163.48C245.979 163.406 245.683 163.392 245.387 163.437C244.2 163.523 243.119 164.181 241.939 163.733C240.917 163.344 240.522 162.345 239.913 163.935C239.753 163.652 239.593 163.37 239.432 163.087C239.235 163.394 239.037 163.7 238.839 164.007C238.066 163.501 238.019 163.209 237.13 163.395C236.921 163.478 236.707 163.466 236.488 163.359C236.435 163.515 236.383 163.671 236.331 163.826C236.31 164.217 236.193 164.347 235.982 164.214C235.804 164.15 235.643 164.053 235.5 163.923C234.911 163.968 234.16 164.122 233.528 164.037C233.284 164.004 231.756 163.199 231.643 163.324ZM249.649 152.806C249.718 152.912 249.788 153.018 249.857 153.124C248.902 153.628 248.677 153.338 248.578 152.327C249.045 152.336 249.124 153.156 249.649 152.806ZM250.241 152.212C250.701 152.415 251.228 152.813 251.662 152.28C251.953 153.126 249.787 154.281 250.241 152.212ZM253.212 152.586C254.178 153.238 251.861 152.714 251.865 152.715C252.281 152.331 252.73 152.288 253.212 152.586ZM261.518 148.953C261.85 150.621 262.763 150.573 264.238 149.798C266.388 148.667 266.751 146.815 266.901 144.603C267.045 142.483 267.305 141.662 269.495 142.105C271.024 142.414 272.318 142.154 273.859 142.111C275.504 142.066 276.084 142.317 276.216 144.007C276.349 145.698 276.65 146.983 277.88 148.271C279.131 149.58 280.799 150.361 282.423 151.094C283.259 151.47 284.044 151.875 284.968 151.956C285.327 151.988 287.191 151.753 287.23 152.342C287.259 152.784 284.677 154.033 284.403 154.182C283.206 154.832 282.011 155.415 280.703 155.809C277.694 156.716 274.503 156.769 271.386 156.714C266.359 156.626 259.413 154.504 256.408 150.053C258.112 149.686 259.815 149.319 261.518 148.953ZM261.067 134.507C260.272 133.841 259.757 132.835 259.097 132.046C258.764 131.648 258.519 131.521 258.202 131.322C257.869 131.112 257.68 131.409 257.402 130.916C256.682 129.643 258.903 127.85 256.548 127.36C255.751 127.194 253.833 127.824 253.6 126.684C253.271 125.073 256.353 124.967 257.078 124.149C258.519 122.523 257.541 119.767 258.419 117.89C259.25 116.113 261.396 115.798 263.089 115.264C265.449 114.52 267.837 114.089 270.233 113.494C271.908 113.078 274.691 111.406 276.245 112.883C273.847 113.414 275.241 114.248 276.839 114.719C278.649 115.253 280.567 115.461 282.442 115.61C284.373 115.762 286.341 115.792 288.248 115.407C290.012 115.052 291.983 113.522 293.832 113.914C292.806 115.695 289.749 116.668 287.891 117.135C286.944 117.372 286.338 117.298 286.465 118.476C286.588 119.618 287.583 120.763 287.807 121.952C288.104 123.526 287.845 124.973 287.284 126.453C286.731 127.91 286.602 128.1 287.085 129.492C287.837 131.659 286.221 134.054 284.727 135.628C278.686 141.991 267.125 139.581 261.067 134.507ZM276.418 96.476C276.442 96.541 276.421 96.5164 276.418 96.476V96.476ZM278.299 112.535C278.049 112.722 276.606 113.113 276.666 112.551C276.747 111.797 278.047 112.069 278.299 112.535ZM281.587 97.3029C281.249 97.0511 280.301 97.1546 280.994 96.1999C281.22 96.6199 281.403 96.9614 281.587 97.3029ZM258.835 91.268C259.266 90.1489 259.744 89.1079 259.938 87.9167C260.058 87.1829 259.82 86.3448 260.848 86.2297C259.538 85.6595 259.524 83.409 259.447 82.2425C259.341 80.6357 258.832 78.4846 259.54 76.9893C260.266 75.4532 261.245 75.4786 261.541 77.308C261.657 78.0243 261.214 78.256 261.131 78.7548C260.966 79.7416 261.294 79.5253 261.932 78.7735C262.195 79.5376 262.296 80.6858 263.367 80.6372C263.296 80.4306 262.885 79.9748 263.023 79.7181C263.233 79.3239 264.262 79.9262 264.393 80.0174C265.333 80.6735 265.537 81.2725 264.866 82.1001C265.794 82.1999 265.015 83.0107 265.614 83.2222C266.528 83.5446 265.915 82.0168 265.816 81.7481C266.373 81.9648 266.559 82.2122 266.911 82.6509C267.118 82.9535 267.307 83.2678 267.476 83.5928C267.665 84.1862 268.055 84.3349 268.646 84.039C269.829 84.4096 271.463 84.3517 272.524 84.9996C273.009 85.2956 273.184 85.9431 273.589 86.189C274.044 86.4659 274.654 86.3403 275.144 86.5141C274.965 86.9198 275.11 87.1395 275.578 87.1739C275.942 87.2072 276.294 87.289 276.635 87.419C276.889 87.2274 277.167 87.076 277.466 86.9658C277.667 87.3196 277.951 87.4071 278.319 87.2288C279.41 87.4329 279.935 87.845 280.628 88.4612C281.251 89.0142 280.744 89.059 281.427 89.0101C281.701 88.9902 282.181 88.5262 282.808 88.6166C283.169 88.6868 283.517 88.7978 283.852 88.9495C284.214 89.2589 284.599 89.2978 285.006 89.0665C285.667 89.3889 285.732 89.9603 286.538 90.0383C287.429 90.125 287.142 89.016 287.754 90.5801C288.578 88.9219 288.88 91.5636 289.731 91.7769C290.613 91.9982 290.708 91.2848 291.462 92.0643C291.689 92.2978 291.676 92.6838 291.93 92.9315C292.346 93.337 292.909 93.2559 293.27 93.8089C293.069 93.5002 293.318 94.9026 293.314 94.8562C293.37 95.475 292.819 96.1681 293.948 96.1154C293.935 96.1805 293.393 96.9692 293.287 96.8799C293.261 96.7899 293.239 96.6987 293.222 96.6064C293.101 96.6583 293.047 97.4098 293.069 97.5424C293.165 97.5574 293.204 97.4864 293.187 97.3294C293.001 97.909 293.281 98.277 292.925 98.827C292.697 99.1786 292.073 99.4428 291.741 99.6599C290.941 100.184 290.157 100.709 289.377 101.267C287.556 102.567 285.518 104.135 283.225 104.406C284.377 103.278 291.001 99.0071 287.678 97.7812C287.062 97.554 285.94 97.3388 285.296 97.2909C284.494 97.2315 283.665 97.6896 282.781 97.4038C281.714 97.0593 282.116 96.0583 281.464 95.6992C280.081 94.9373 280.407 96.729 279.972 97.1983C279.514 96.7189 279.612 96.4857 278.89 96.4424C278.156 96.3983 277.982 97.075 277.126 96.6535C275.947 96.0725 276.571 94.9153 274.898 94.888C274.926 94.6339 275.169 93.924 274.849 93.7259C274.419 94.283 274.752 94.9059 274.353 95.4421C274.153 95.7111 273.719 95.9256 273.402 96.0127C272.661 96.2159 272.555 96.6053 272.676 95.4907C272.126 96.479 270.441 96.0725 269.438 95.9731C267.809 95.8113 266.076 95.5034 264.514 94.9818C263.069 94.499 262.297 93.6699 261.105 92.9155C260.655 92.63 260.44 92.7391 259.794 92.562C259.156 92.3871 258.534 92.0482 258.835 91.268ZM262.274 73.7688C262.52 73.6208 262.697 75.8287 262.398 76.2412C261.852 75.3792 260.884 74.1148 262.274 73.7688ZM263.06 72.8881C263.851 72.1733 263.301 74.0195 263.156 74.3292C262.863 74.1417 262.57 73.9541 262.277 73.7665C262.651 73.5375 262.744 73.1732 263.06 72.8881ZM292.911 69.9127C300.221 71.4439 307.465 74.3061 313.328 79.0163C318.668 83.3066 322.437 89.3938 324.551 95.8688C326.744 102.59 326.007 110.046 320.789 115.19C318.039 117.899 314.409 119.534 310.949 121.129C309.291 121.893 307.584 122.53 305.92 123.277C304.725 123.813 303.265 124.671 301.901 124.522C302.597 123.791 303.607 123.776 304.449 123.329C305.466 122.789 306.297 121.752 307.175 121.012C308.045 120.276 309.977 117.961 311.315 118.521C311.129 117.288 312.537 116.715 313.172 115.901C313.843 115.041 313.891 114.035 315.128 113.753C313.799 112.716 314.206 110.759 314.495 109.347C314.865 107.541 315.036 105.883 315.181 104.046C315.444 100.733 315.655 96.5123 313.822 93.5996C313.226 92.6539 312.469 91.7848 311.938 90.8025C311.298 89.6187 311.439 88.5766 311.439 87.2789C310.269 88.0636 310.023 86.4636 309.528 85.6838C309.157 85.0987 308.67 84.7717 308.551 84.0356C308.463 83.4998 309.046 83.4094 308.727 82.8478C308.335 83.143 308.179 83.6003 307.981 84.0248C307.619 83.8805 308.045 83.3784 307.838 83.2151C307.832 83.2106 307.135 82.9083 307.17 82.952C306.721 82.3844 306.577 81.4425 306.357 80.7669C305.535 81.1824 305.689 81.1335 304.772 80.4392C304.611 80.317 303.804 79.7558 303.728 79.5723C303.373 78.7144 303.995 79.2226 303.821 78.6901C303.322 77.1608 300.52 77.45 300.298 75.1584C298.932 76.0241 298.411 74.7974 297.604 73.9249C296.776 73.0312 295.388 72.6874 295.462 71.2698C295.032 71.4166 294.602 71.5631 294.172 71.7092C294.396 70.401 292.449 70.4844 291.744 69.8207C292.135 69.8256 292.524 69.8562 292.911 69.9127ZM294.025 150.935C294.702 150.33 294.497 151.135 294.932 151.043C295.305 150.964 295.379 150.683 295.736 150.597C297.209 150.241 299.411 150.688 300.96 150.611C302.754 150.523 305.829 150.894 306.684 152.989C307.199 154.251 306.413 153.822 305.547 153.728C304.876 153.656 304.279 153.791 303.615 153.785C303.286 153.835 302.959 153.83 302.633 153.769C302.474 153.665 302.38 153.517 302.351 153.328C301.427 153.188 300.445 153.734 299.421 153.761C298.055 153.797 296.84 153.536 295.803 152.615C295.39 153.229 295.109 153.534 294.366 153.602C294.347 153.604 293.622 153.313 293.51 153.284C293.361 153.245 292.986 153.556 292.699 153.467C293.207 152.66 293.281 151.598 294.025 150.935ZM387.335 158.226C387.576 157.389 387.778 156.541 387.998 155.698C391.37 159.53 394.321 164.66 395.649 169.574C396.512 172.768 397.854 178.555 393.742 180.202C390.392 181.544 388.524 176.734 387.676 174.365C385.805 169.136 385.805 163.547 387.335 158.226ZM236.454 98.1795C236.497 98.1709 234.271 99.4634 235.004 98.4168C235.299 97.996 236.417 97.7001 236.912 97.7001L236.454 98.1795ZM234.312 98.7273C234.055 98.9436 233.794 99.1573 233.532 99.3681C233.28 98.9705 233.028 98.5729 232.776 98.1754C233.273 97.9661 235.382 97.8092 234.312 98.7273ZM232.743 138.913C232.277 138.598 231.908 138.765 231.768 139.294C231.768 138.768 232.042 137.546 232.464 137.403C232.737 137.311 231.558 135.919 231.89 135.555C232.732 136.036 232.228 136.498 232.474 137.12C232.586 137.4 232.92 137.666 232.994 137.881C233.118 138.247 233.621 139.505 232.743 138.913ZM230.461 135.781C229.984 135.903 230.819 136.689 230.818 137.036C230.818 137.299 230.502 137.501 230.371 137.86C230.089 138.639 230.575 139.165 229.774 139.76C229.774 138.053 228.627 133.53 230.832 132.699C229.756 131.853 230.64 130.877 231.483 131.889C232.293 132.862 231.777 135.445 230.461 135.781ZM229.312 129.045C228.879 127.511 227.574 126.975 226.083 127.065C226.14 126.28 226.736 125.148 227.167 126.563C227.344 126.145 227.466 125.599 227.87 125.322C228.55 127.45 231.941 128.626 229.83 130.932C229.657 130.303 229.49 129.673 229.312 129.045ZM225.372 127.18C217.52 127.748 206.497 129.374 200.214 123.367C196.118 119.45 196.336 113.35 199.647 108.998C201.536 106.515 204.115 104.766 206.706 103.1C207.705 102.457 208.552 102.033 209.649 101.663C209.827 101.644 209.994 101.684 210.15 101.782C210.212 101.518 210.361 101.322 210.599 101.194C211.023 100.968 211.626 100.887 211.871 100.417C211.61 101.299 211.476 102.208 211.38 103.121C211.169 102.876 210.958 102.63 210.746 102.384C210.57 104.047 208.834 103.04 207.797 103.248C208.48 104.191 208.968 104.534 209.027 105.78C208.519 104.843 207.455 104.227 206.467 103.925C207.004 105.51 207.383 106.451 206.843 108.189C206.19 107.817 206.146 106.923 205.354 106.709C205.145 107.746 205.108 108.896 204.84 109.902C202.812 108.978 203.01 111.465 203.824 112.696C204.257 113.35 204.47 114.108 204.856 114.736C205.804 116.278 205.084 113.973 206.137 114.082C205.901 115.708 205.819 115.87 207.01 117.06C208.174 118.221 208.777 119.832 210.021 120.923C210.381 120.463 209.815 119.982 209.765 119.542C210.923 119.736 211.465 120.895 212.578 119.869C213.064 120.813 213.589 121.853 214.751 122.047C213.983 120.589 216.227 121.577 216.803 121.784C217.239 121.941 218.021 122.066 218.19 122.127C219.138 122.468 218.488 121.855 219.063 122.975C219.908 122.721 220.227 122.021 221.238 122.612C222.059 123.093 222.061 123.917 222.249 124.76C222.445 124.209 222.643 123.657 222.859 123.113C223.08 123.205 224.005 124.222 223.904 124.226C226.07 124.12 225.993 125.462 225.372 127.18ZM214.348 99.6659C214.783 99.3614 215.314 99.7668 215.802 99.6577C216.478 99.5071 216.862 98.929 217.617 98.867C217.407 99.5373 217.013 99.4746 216.679 100.001C216.565 100.18 216.625 100.611 216.524 100.714C215.677 101.579 215.385 100.873 214.521 100.218C214.596 101.008 214.748 101.258 214.002 101.47C213.328 101.662 212.214 100.954 211.874 100.412C212.16 99.8385 213.828 100.031 214.348 99.6659ZM219.735 98.4313C220.468 98.5012 219.585 100.66 218.535 98.5658C218.93 98.4799 219.331 98.4351 219.735 98.4313ZM223.505 98.014C224.661 97.7786 228.518 96.6815 228.947 98.478C229.024 98.4332 229.311 97.4191 229.444 97.5428C229.978 98.0386 230.038 98.6959 229.997 99.3845C229.352 98.0424 229.581 99.2212 229.144 99.1293C229.03 99.105 228.855 99.318 228.566 99.2302C228.187 99.1147 227.915 98.3095 227.675 98.0368C227.277 98.6047 226.783 99.3359 225.985 99.2866C225.42 99.2519 224.509 97.7999 225.241 99.3894C224.812 99.2478 224.314 98.9272 223.836 98.9914C223.3 99.0636 223.021 99.5915 222.519 99.6767C221.406 99.865 221.238 98.7956 220.515 98.215C221.512 98.1571 222.521 98.2142 223.505 98.014ZM230.5 97.9968C230.582 97.6284 231.593 97.4796 231.851 97.5966C232.48 97.8817 232.247 98.258 232.132 98.8842C231.665 98.6637 231.199 98.4437 230.732 98.2232C231.429 99.3427 230.167 99.5052 230.5 97.9968ZM426.346 163.57C426.263 160.887 426.185 158.158 425.504 155.546C425.027 153.718 423.855 150.44 421.64 150.123C418.298 149.645 416.448 156.237 415.512 158.499C415.324 155.835 415.488 153 414.48 150.471C413.673 148.445 411.634 146.526 409.877 148.801C408.315 150.826 408.014 153.816 407.603 156.253C407.07 159.41 406.75 162.592 406.361 165.768C404.834 162.824 404.568 159.454 403.361 156.394C402.223 153.507 400.432 150.749 398.707 148.181C397.298 146.084 395.583 144.111 393.376 142.829C391.455 141.713 388.095 140.506 386.264 142.359C384.736 143.906 384.975 145.976 385.054 147.927C385.09 148.796 385.226 149.392 384.461 149.83C384.085 150.045 383.497 149.934 383.083 150.049C382.417 150.235 381.906 150.55 381.342 150.968C377.391 153.899 375.569 159.182 375.006 163.893C374.292 169.861 376.622 174.977 378.628 180.437C378.948 181.308 379.963 183.154 379.823 184.125C379.669 185.19 378.331 185.217 377.427 185.239C374.699 185.307 371.848 185.104 369.134 184.85C362.672 184.247 356.215 181.141 350.429 178.369C349.373 177.863 347.879 177.573 347.018 176.777C346.208 176.028 345.994 174.828 345.295 173.969C343.579 171.861 342.486 170.062 339.959 168.789C337.386 167.492 334.76 166.294 332.249 164.874C329.144 163.117 326.276 160.891 323.301 158.924C317.772 155.269 312.28 151.262 306.417 148.154C303.694 146.709 300.65 146.475 297.822 145.293C295.067 144.141 291.687 144.14 288.813 144.867C287.413 145.221 286.46 146.061 285.173 146.609C283.664 147.252 282.433 146.543 281.105 145.776C279.076 144.604 277.065 142.695 279.954 141.431C280.934 141.002 282.162 140.839 283.018 140.165C283.931 139.446 284.663 138.12 285.406 137.22C287.055 135.219 288.04 132.916 290.455 131.671C293.125 130.295 296.29 129.921 299.136 129.022C302.221 128.047 305.241 126.889 308.268 125.752C313.722 123.703 319.392 121.49 323.311 116.979C326.691 113.088 328.165 108.065 328.028 102.963C327.749 92.5332 322.152 81.9484 314.121 75.4274C304.274 67.4312 291.747 64.7648 279.308 64.9046C273.47 64.9704 266.503 65.733 261.632 69.2733C257.425 72.3313 256.725 77.6798 257.351 82.5077C257.605 84.4672 258.473 87.0529 257.089 88.7795C256.314 89.7454 254.923 89.9845 253.88 90.5869C252.568 91.3435 251.412 92.0688 249.926 92.469C243.616 94.1698 236.97 93.5776 230.519 93.4834C219.772 93.3265 208.756 96.2309 200.739 103.79C194.265 109.894 192.323 121.403 200.219 127.354C206.599 132.161 216.605 131.632 224.128 130.793C226.46 130.533 228.064 130.155 228.07 133.004C228.076 136.115 227.559 139.368 228.354 142.423C229.607 147.234 234.239 147.348 238.333 146.312C240.494 145.766 242.583 144.944 244.635 144.083C247.644 142.82 250.402 140.963 253.374 139.703C255.389 138.849 256.898 141.611 258.685 139.696C259.015 139.343 259.076 138.815 259.574 138.634C260.355 138.35 261.664 139.345 262.349 139.659C263.374 140.131 264.407 140.477 264.817 141.611C265.2 142.673 265.032 144.36 264.665 145.407C263.868 147.682 261.72 147.233 259.76 147.081C256.34 146.815 252.944 146.252 249.526 146.015C246.459 145.803 243.588 146.718 240.942 148.227C235.387 151.398 230.842 156.441 226.024 160.588C223.545 162.722 221.149 165.027 218.452 166.886C217.28 167.694 216.011 168.437 214.992 169.441C213.981 170.438 213.87 171.343 213.524 172.669C212.908 175.029 209.85 176.183 207.938 177.429C205.235 179.19 202.369 180.432 199.339 181.513C192.921 183.801 186.453 185.399 179.744 186.58C176.459 187.158 173.201 187.538 169.884 187.851C167.025 188.12 163.985 188.998 161.129 188.296C161.951 186.965 163.409 186.165 164.544 185.136C166.007 183.809 167.252 182.236 168.359 180.607C170.515 177.435 172.027 174.031 172.375 170.183C172.687 166.72 172.329 162.577 170.235 159.652C169.512 158.641 168.082 158.366 167.434 157.456C166.791 156.551 167.036 154.993 166.684 153.938C165.787 151.255 163.125 147.929 160.783 146.371C158.242 144.679 154.524 144.058 151.588 144.939C146.15 146.572 142.809 152.373 140.321 157.062C138.961 154.207 141.238 149.971 138.582 147.632C136.342 145.66 134.564 149.481 133.815 151.116C130.298 158.789 129.5 166.928 128.026 175.139C127.426 174.548 127.733 173.032 127.79 172.327C127.895 171.015 127.885 169.728 127.888 168.411C127.895 165.083 128.515 161.739 128.231 158.414C128.067 156.492 127.453 152.439 124.655 153.078C122.282 153.619 120.796 156.95 120.05 158.986C118.975 161.923 118.727 164.83 118.794 167.933C118.868 171.361 118.214 174.732 118.055 178.155C117.747 184.805 118.051 191.396 119.963 197.813C123.092 208.321 130.289 217.053 139.893 222.325C145.184 225.23 151.055 227.068 157.09 227.463C160.361 227.677 163.519 227.289 166.761 226.951C169.961 226.618 173.178 226.464 176.373 226.073C183.487 225.202 190.419 222.954 196.886 219.929C200.29 218.336 203.49 216.382 206.838 214.684C208.182 214.003 209.09 213.151 210.236 212.203C211.373 211.265 211.687 211.191 212.98 211.191C212.601 210.179 213.707 209.867 214.2 209.226C214.172 209.537 214.145 209.847 214.117 210.158C214.492 209.345 214.842 209.353 215.165 210.181C215.485 209.253 215.722 208.299 216.107 207.395C217.583 208.141 217.459 209.913 219.432 208.619C221.058 207.554 222.552 206.298 224.209 205.254C227.983 202.876 231.237 199.782 235.022 197.432C235.022 199.721 235.183 202.03 234.877 204.308C234.585 206.474 233.775 208.498 233.131 210.572C231.943 214.397 231.86 218.485 230.544 222.272C229.999 223.84 228.58 225.152 228.173 226.679C227.759 228.236 228.717 229.484 227.111 230.507C225.979 231.228 224.564 231.532 223.31 231.968C221.398 232.634 219.582 233.573 217.72 234.369C208.989 238.103 200.472 241.907 192.382 246.928C184.704 251.694 176.91 256.615 169.857 262.274C163.736 267.186 157.549 273.537 156.059 281.549C154.613 289.32 158.465 297.662 166.2 300.222C170.222 301.553 174.769 301.388 178.957 301.445C183.464 301.507 188.24 300.424 192.67 299.639C197.35 298.81 201.949 297.514 206.642 296.774C211.145 296.064 215.275 294.478 219.704 293.5C224.421 292.458 229.26 291.893 234.003 290.957C236.138 290.535 238.231 289.913 240.372 289.522C242.716 289.095 245.086 288.934 247.408 288.368C251.91 287.27 256.222 285.499 260.744 284.477C262.777 284.018 264.779 283.402 266.813 282.973C268.686 282.577 270.145 281.527 272.022 282.39C273.538 283.087 274.748 284.282 276.183 285.115C278.044 286.195 280.006 287.162 281.946 288.091C285.845 289.959 289.889 291.25 293.965 292.652C298.247 294.124 302.452 295.804 306.889 296.777C311.437 297.774 316.076 298.051 320.655 298.84C330.034 300.455 339.333 301.18 348.853 301.238C353.665 301.269 358.476 300.699 363.276 300.767C367.526 300.826 371.221 301.782 375.107 299.527C381.317 295.924 388.519 290.496 388.367 282.611C388.228 275.471 383.937 268.648 379.912 263.016C375.024 256.176 368.054 251.36 361.224 246.642C353.944 241.614 345.767 238.14 338.116 233.751C334.203 231.506 330.594 229.091 326.345 227.496C324.317 226.735 322.338 225.853 320.334 225.033C318.721 224.373 316.392 224.009 315.012 222.914C314.15 222.232 314.068 221.198 313.84 220.183C313.336 217.936 312.545 215.806 311.778 213.639C310.296 209.456 309.312 205.195 308.675 200.808C308.068 196.625 306.721 192.275 307.419 188.025C312.008 192.455 316.723 196.715 321.419 201.028C323.178 202.645 324.905 204.295 326.674 205.902C328.002 207.108 329.662 208.9 331.513 209.257C333.877 209.715 333.014 207.104 334.637 206.7C335.629 206.453 338.621 208.969 339.405 209.466C344.376 212.616 349.881 214.613 355.349 216.757C361.082 219.005 366.979 221.003 373.148 221.569C378.847 222.092 384.674 221.42 390.174 219.871C401.126 216.784 409.185 209.461 415.099 199.969C421.838 189.153 426.742 176.482 426.346 163.57Z" fill="black"/>
<path fill-rule="evenodd" clip-rule="evenodd" d="M258.962 139.989C258.96 139.993 258.943 140.029 258.943 140.029C258.964 140.014 258.97 140.001 258.962 139.989Z" fill="black"/>
<path fill-rule="evenodd" clip-rule="evenodd" d="M259.49 140.129C259.449 139.785 259.361 139.447 259.225 139.117C258.862 139.691 258.538 139.937 259.014 140.544C259.173 140.406 259.331 140.268 259.49 140.129Z" fill="black"/>
<path fill-rule="evenodd" clip-rule="evenodd" d="M284.745 222.13C285.15 221.699 284.441 221.537 284.172 221.531C284.198 221.993 283.969 223.101 284.602 223.315C284.45 222.897 284.498 222.502 284.745 222.13Z" fill="black"/>
<path fill-rule="evenodd" clip-rule="evenodd" d="M274.047 131.997C273.35 133.341 274.889 133.758 275.781 133.109C276.451 132.621 276.848 131.377 276.958 130.579C277.315 127.996 275.504 125.538 274.601 123.247C274.368 122.654 274.049 120.623 273.298 120.567C272.434 120.503 272.371 122.374 272.359 122.857C272.326 124.312 272.712 125.795 273.165 127.169C273.653 128.65 274.861 130.428 274.047 131.997Z" fill="black"/>
<path fill-rule="evenodd" clip-rule="evenodd" d="M277.362 126.609C280.041 128.99 282.183 125.024 281.996 122.679C281.95 122.097 281.557 119.954 280.452 120.734C279.898 121.126 280.371 122.399 280.106 122.958C278.825 125.668 277.591 121.465 276.728 121.134C275.678 120.732 275.573 122.109 275.574 122.845C275.577 124.306 276.273 125.642 277.362 126.609Z" fill="black"/>
<path fill-rule="evenodd" clip-rule="evenodd" d="M267.637 126.978C268.268 125.986 269.044 124.656 269.129 123.468C269.263 121.621 268.184 121.775 267.297 123.064C266.67 123.974 266.2 125.518 264.816 125.134C263.108 124.661 263.629 122.368 262.673 121.278C260.258 124.516 264.828 131.392 267.637 126.978Z" fill="black"/>
<path fill-rule="evenodd" clip-rule="evenodd" d="M271.257 136.888C272.256 137.104 274.86 137.024 273.958 135.498C272.82 133.574 269.035 136.409 271.257 136.888Z" fill="black"/>
<path fill-rule="evenodd" clip-rule="evenodd" d="M306.252 79.5361C306.435 78.9926 306.184 78.8939 305.748 78.4658C305.335 78.8462 305.864 79.2464 306.252 79.5361Z" fill="black"/>
<path fill-rule="evenodd" clip-rule="evenodd" d="M324.885 177.987C325.544 178.091 325.756 177.743 325.52 176.943C324.481 176.876 324.269 177.223 324.885 177.987Z" fill="black"/>
<path fill-rule="evenodd" clip-rule="evenodd" d="M288.898 94.0032C289.624 94.3349 289.346 95.0156 289.334 95.5908C289.708 95.1847 290.464 94.4421 290.156 93.8587C289.682 92.9591 288.442 93.7957 288.898 94.0032Z" fill="black"/>
<path fill-rule="evenodd" clip-rule="evenodd" d="M264.137 82.6816C264.026 82.4658 263.915 82.25 263.804 82.0342C263.353 82.3958 262.656 83.352 263.373 83.818C263.667 83.4618 263.922 83.0829 264.137 82.6816Z" fill="black"/>
<path fill-rule="evenodd" clip-rule="evenodd" d="M272.859 89.0283C273.763 89.7362 273.329 87.5632 273.302 87.3857C273.168 87.6406 272.402 88.6706 272.859 89.0283Z" fill="black"/>
<path fill-rule="evenodd" clip-rule="evenodd" d="M272.357 87.9247C272.288 87.7452 272.219 87.5657 272.15 87.3857C271.783 87.7245 271.334 88.4164 271.94 88.8128C272.106 88.5352 272.245 88.2393 272.357 87.9247Z" fill="black"/>
<path fill-rule="evenodd" clip-rule="evenodd" d="M278.101 95.3863C278.175 95.4544 278.249 95.5224 278.323 95.5908C278.621 94.9902 278.282 94.5389 277.719 94.5205C277.759 94.8578 277.886 95.1464 278.101 95.3863Z" fill="black"/>
<path fill-rule="evenodd" clip-rule="evenodd" d="M253.866 162.961C254.225 162.717 254.551 162.439 254.844 162.127C253.782 161.479 254.418 162.884 253.14 162.021C252.865 162.401 253.314 163.252 253.866 162.961Z" fill="black"/>
<path fill-rule="evenodd" clip-rule="evenodd" d="M298.486 221.888C298.89 221.269 298.962 221.287 298.411 220.817C297.951 221.582 297.999 221.385 298.486 221.888Z" fill="black"/>
<path fill-rule="evenodd" clip-rule="evenodd" d="M214.098 123.447C214.317 123.676 214.537 123.905 214.757 124.133C214.86 123.834 215.419 122.988 215.039 122.706C214.726 122.953 214.411 123.2 214.098 123.447Z" fill="black"/>
<path fill-rule="evenodd" clip-rule="evenodd" d="M221.916 125.71C221.565 125.652 220.726 125.396 220.531 125.722C221.045 126.142 222.203 125.758 221.916 125.71Z" fill="black"/>
</svg>
