<svg width="690" height="422" viewBox="0 0 690 422" fill="none" xmlns="http://www.w3.org/2000/svg">
<g clip-path="url(#clip0_1315_1908)">
<path d="M690 1H0V423H690V1Z" fill="#FDF074"/>
<g clip-path="url(#clip1_1315_1908)">
<path d="M631 37H59V387H631V37Z" fill="#FDF074"/>
<path fill-rule="evenodd" clip-rule="evenodd" d="M269.874 180.553C272.125 171.791 274.246 162.839 277.585 154.419C279.675 149.15 281.89 143.928 284.108 138.712C284.416 137.988 284.546 137.29 285.144 136.93C285.944 136.448 287.598 136.458 288.5 136.293C301.313 133.94 314.259 132.144 327.248 131.134C342.071 129.981 356.521 130.508 371.188 132.927C383.731 134.995 396.151 137.845 408.434 141.109C410.24 141.589 412.044 142.079 413.843 142.583C414.681 142.817 416.073 142.937 416.804 143.427C418.367 144.474 418.897 148.764 419.482 150.581C420.267 153.017 420.723 156.364 422.236 158.437C424.488 161.522 427.915 164.198 430.707 166.762C440.448 175.712 451.127 183.877 463.708 188.302C483.172 195.147 503.697 199.438 523.859 203.68C524.329 203.779 524.798 203.877 525.267 203.974C520.048 209.761 514.828 215.548 509.608 221.336C506.666 224.598 503.723 227.86 500.781 231.122C499.268 232.8 499.434 233.099 497.294 232.632C486.572 230.29 475.87 227.737 465.343 224.624C460.182 223.099 454.933 221.515 450.131 219.044C443.523 215.643 437.32 211.439 431.282 207.121C425.885 203.26 420.616 199.222 415.441 195.07C414.42 194.251 410.739 190.305 409.545 190.562C408.515 190.784 406.733 193.13 405.979 193.813C403.984 195.62 401.982 197.419 399.967 199.204C396.761 202.043 393.486 205.52 389.74 207.657C385.794 209.909 381.27 211.443 377.104 213.236C374.78 214.236 372.455 215.232 370.128 216.226C369.52 216.485 368.672 217.05 368.017 217.064C366.078 217.105 363.262 215.527 361.464 214.912C356.843 213.333 352.257 211.654 347.718 209.853C338.026 206.008 327.375 201.831 319.398 194.912C318.007 193.706 316.647 192.355 315.726 190.742C315.407 190.183 314.932 189.405 314.899 188.745C314.847 187.692 315.438 187.486 316.317 186.828C320.854 183.433 325.746 180.474 330.557 177.49C331.687 176.789 332.82 176.091 333.956 175.4L277.742 179.92C275.119 180.131 272.497 180.342 269.874 180.553Z" fill="#FF5678"/>
<path fill-rule="evenodd" clip-rule="evenodd" d="M353.581 73.3882C359.52 73.6594 365.608 73.9358 371.496 74.7727C377.364 75.6066 382.841 77.7396 388.145 80.3224C397.708 84.9791 407.483 90.6397 413.634 99.597C416.51 103.785 418.856 108.17 422.826 111.467C423.755 112.238 424.767 113.164 425.999 113.4C426.979 113.588 427.844 113.191 428.804 113.143C430.635 113.052 431.329 114.019 431.329 115.841C432.704 115.291 434.201 114.794 435.7 114.996C436.954 115.165 437.95 115.922 439.154 116.24C441.326 116.814 443.451 115.956 445.517 115.316C450.734 113.7 456.464 112.476 461.945 113.052C465.555 113.432 469.93 115 468.06 119.655C466.51 123.518 460.713 125.473 457.051 126.433C453.936 127.251 449.749 126.521 450.012 130.824C450.195 133.827 450.649 137.049 453.838 138.023C455.586 138.558 461.779 139.353 458.162 142.063C455.492 144.065 454.559 147.587 452.528 150.232C449.939 153.604 446.428 156.33 442.325 157.56C437.734 158.938 432.875 158.673 428.159 159.208C431.481 163.797 436.277 166.954 440.643 170.444C445.233 174.113 449.661 178.124 454.974 180.74C459.735 183.085 464.879 184.713 469.797 186.701C474.962 188.789 480.164 190.853 485.495 192.48C496.25 195.761 507.562 198.053 518.618 200.066C524.075 201.06 529.424 200.914 534.936 201.002C540.589 201.093 546.239 202.086 551.789 203.105C554.48 203.6 557.196 203.911 559.886 204.404C561.177 204.64 566.287 205.161 566.47 207.054C566.768 210.137 563.438 211.865 560.999 212.725C559.957 213.092 558.28 213.039 557.378 213.544C556.402 214.09 556.783 214.894 556.672 215.952C556.509 217.489 555.687 218.595 554.428 219.448C553.392 220.149 552.143 220.122 552.857 221.45C553.187 222.063 554.011 222.449 554.39 223.095C554.825 223.832 555.025 224.64 554.936 225.489C554.782 226.973 553.802 228.107 552.435 228.632C550.251 229.471 547.687 228.877 545.449 228.605C541.705 228.149 537.905 228.103 534.211 227.283C530.359 226.428 526.611 225.11 522.755 224.235C520.777 223.786 518.796 223.409 516.863 222.787C515.606 222.382 513.789 221.33 512.45 221.66C511.195 221.968 510.215 223.484 509.395 224.364C508.263 225.579 507.167 226.826 506.017 228.023C505.255 228.816 504.473 229.592 503.641 230.312C503.37 230.546 501.699 231.569 501.676 231.843C501.611 232.619 503.435 232.606 503.826 232.914C506.096 234.71 502.685 235.847 501.213 235.757C497.82 235.55 494.41 235.133 491.05 234.634C483.05 233.446 475.072 232.163 467.422 229.48C459.856 226.826 452.472 224.003 445.474 220.047C438.756 216.251 432.259 211.959 425.914 207.571C422.835 205.442 419.735 203.236 417.135 200.524C414.592 197.871 412.52 194.826 410.411 191.829C405.362 196.711 400.503 201.845 395.079 206.321C389.919 210.578 383.717 212.853 377.715 215.618C377.91 216.874 383.776 217.627 384.847 217.953C389.74 219.444 394.435 221.836 399.194 223.711C407.11 226.832 414.622 230.892 417.259 239.559C419.851 248.079 416.844 256.656 413.177 264.354C408.849 273.44 403.709 281.857 397.494 289.778C394.85 293.148 392.003 296.251 389.102 299.389C386.627 302.066 384.505 305.238 385.542 309.044C387.534 308.421 387.899 309.976 386.596 311.294C385.439 312.464 383.438 312.692 381.893 312.886C377.207 313.474 372.367 313.266 367.676 312.829C359.136 312.032 350.576 309.874 342.843 306.161C338.997 304.313 337.604 307.292 334.959 309.6C332.877 311.414 330.011 312.591 328.429 314.94C327.127 316.872 327.977 319.925 330.68 319.201C332.783 318.637 334.473 316.288 336.701 316.198C340.655 316.037 333.195 321.685 332.24 322.374C334.13 324.066 336.272 321.746 338.178 321.359C340.006 320.987 340.516 321.934 339.542 323.459C338.783 324.649 336.397 325.491 337.984 326.937C339.298 328.136 342.213 328.766 343.827 329.292C348.862 330.93 353.871 332.096 359.113 332.845C360.806 333.086 363.519 332.932 364.892 334.133C366.702 335.718 365.829 338.344 364.913 340.159C361.442 347.035 354.226 350.415 346.815 350.91C342.252 351.214 337.645 350.92 333.066 351.166C328.049 351.437 323.02 351.838 317.992 351.672C309.907 351.405 304.764 345.556 300.733 339.123C298.173 335.036 295.813 330.83 293.596 326.548C292.731 324.875 290.917 323.141 290.609 321.261C290.33 319.569 291.409 318.212 292.457 317.014C295.215 313.863 298.533 311.458 301.774 308.854C303.625 307.368 304.337 306.137 305.161 303.973C305.855 302.152 307.189 301.373 308.364 299.92C309.655 298.321 309.25 298.038 308.242 296.732C307.188 295.364 307.602 293.348 308.045 291.8C308.68 289.579 310.042 289.09 312.077 288.374C313.932 287.722 315.505 286.578 317.15 285.516C325.275 280.27 332.93 274.335 341.156 269.236C349.271 264.205 357.752 259.762 365.498 254.148C359.208 253.302 353.663 249.902 347.73 247.889C344.686 246.856 341.67 245.752 338.724 244.459C337.599 243.965 336.288 243.526 335.285 242.8C334.276 242.071 333.501 241.111 332.444 240.421C329.936 238.782 326.954 237.85 324.257 236.572C321.344 235.193 318.468 233.686 315.762 231.93C313.234 230.291 310.808 228.418 308.707 226.254C307.033 224.53 305.405 222.282 303.035 221.49C303.284 224.794 307.372 227.53 309.613 229.519C313.249 232.745 317.029 235.487 321.093 238.152C316.535 242.062 310.978 244.608 305.64 247.249C299.638 250.218 293.803 253.51 287.825 256.525C282.761 259.079 277.433 261.047 272.285 263.421C266.732 265.981 261.016 268.129 255.221 270.077C249.977 271.84 245.041 273.72 240.093 276.194C235.282 278.6 230.136 280.44 224.99 281.984C219.209 283.719 213.693 285.369 208.133 287.747C203.119 289.892 198.084 291.262 192.778 292.428C191.025 292.813 188.774 293.52 187.547 291.821C186.616 290.534 186.476 288.549 186.209 287.034C185.186 281.24 185.105 275.353 184.185 269.55C180.692 270.605 177.384 271.903 173.699 272.071C171.383 272.176 169.975 272.415 169.398 274.947C170.738 275.098 175.526 275.165 175.655 277.065C175.772 278.779 172.875 278.797 171.848 278.844C170.009 278.927 168.343 278.625 167.362 280.427C168.808 280.962 172.013 279.987 172.653 281.933C173.478 284.444 169.732 284.438 168.384 284.64C166.033 284.993 166.274 286.842 166.435 288.818C166.647 291.418 166.808 294.021 167.159 296.608C167.908 302.135 169.192 307.579 169.8 313.126C170.325 317.923 170.62 322.53 167.195 326.353C165.818 327.89 163.904 329.659 161.74 329.842C159.543 330.027 159.583 328.487 158.216 327.354C157.378 326.66 156.269 326.518 155.282 326.143C154.081 325.688 152.917 325.021 151.838 324.33C149.85 323.056 148.112 321.475 146.707 319.575C141.21 312.139 139.245 301.031 138.701 292.016C138.354 286.284 138.7 280.543 139.225 274.833C139.508 271.758 139.793 268.681 140.165 265.615C140.28 264.665 140.472 263.713 140.544 262.76C140.585 262.215 140.322 261.112 140.6 260.589C140.245 261.256 139.616 260.763 138.991 260.238C137.7 259.153 138.098 257.07 138.788 255.644C140.867 251.345 147.098 251.178 151.152 250.844C162.048 249.945 172.4 247.021 182.832 243.896C181.36 241.69 183.676 240.233 185.471 239.474C188.239 238.305 191.097 237.277 193.891 236.16C200.2 233.637 206.378 231.286 212.984 229.676C218.969 228.219 224.759 225.799 230.664 224.025C236.764 222.192 242.754 220.097 248.754 217.963C260.638 213.735 272.532 209.415 284.065 204.286C286.981 202.989 289.765 201.486 292.579 199.986C294.864 198.768 297.546 197.875 299.484 196.115C301.334 194.435 302.442 192.098 304.453 190.572C306.264 189.198 308.741 189.179 310.242 187.472C312.27 185.165 314.693 184.15 317.447 182.797C318.332 182.362 324.157 180.166 324.038 178.919C319.876 178.919 315.603 180.159 311.486 180.736C307.132 181.347 302.782 182.026 298.396 182.364C291.289 182.91 284.185 182.762 277.109 181.992C276.051 181.876 271.809 181.005 271.077 182.14C270.52 183.005 271.906 184.035 271.919 184.965C271.94 186.329 270.842 187.061 269.598 186.587C267.176 185.665 267.531 181.759 267.757 179.776C268.19 175.984 269.153 172.227 269.995 168.511C264.999 171.057 260.254 174.325 255.952 177.917C252.62 180.699 249.61 184.472 245.7 186.455C241.945 188.36 239.712 186.735 239.866 182.541C239.937 180.62 240.326 178.796 240.99 177.007C241.304 176.162 242.594 173.769 241.99 172.868C238.558 175.607 235.149 178.354 231.547 180.868C229 182.646 225.309 185.419 221.984 184.713C219.047 184.09 219.335 180.855 220.265 178.676C221.073 176.786 222.523 175.106 223.961 173.663C225.15 172.47 226.84 171.4 227.436 169.746C223.492 171.521 219.431 172.863 215.299 174.11C212.361 174.997 210.307 178.679 206.891 178.135C203.471 177.59 204.833 173.359 206.198 171.519C207.153 170.232 208.475 169.099 209.756 168.148C211.006 167.22 212.908 166.411 213.523 164.867C209.528 165.618 205.511 166.923 201.399 166.683C198.958 166.539 194.882 165.472 195.364 162.187C195.852 158.86 200.277 158.605 202.766 157.984C206.159 157.138 209.406 155.549 212.68 154.337C219.285 151.893 226.018 149.932 232.776 147.983L234.91 147.367C242.538 145.167 250.209 143.292 257.931 141.464C261.748 140.56 265.551 139.575 269.398 138.804C273.12 138.058 276.902 137.626 280.595 136.734C277.482 132.031 281.251 128.166 285.321 125.927C282.74 125.405 280.115 125.09 277.556 124.457C275.37 123.916 273.264 123.085 271.062 122.607C267.279 121.785 263.5 121.352 260.27 119.007C254.166 114.574 253.647 107.52 258.79 102.183C263.98 96.7956 271.599 94.2732 278.93 94.0227C287.136 93.7424 296.473 95.3348 304.152 98.2435C307.924 99.6724 311.852 101.489 315.085 103.923C317.285 105.578 320.763 108.75 323.715 108.75C320.179 104.469 315.84 100.042 315.202 94.2443C314.597 88.7554 317.084 82.9211 321.258 79.3708C329.596 72.2787 343.357 72.9208 353.581 73.3882ZM306.04 308.645C303.863 312.033 300.853 314.785 298.011 317.597C297.03 318.567 295.063 319.802 294.968 321.321C294.891 322.562 296.412 323.957 297.076 324.932C300.587 330.088 303.478 335.782 307.766 340.362C312.614 345.536 318.146 346.542 325.011 346.557C332.632 346.574 340.355 347.528 347.963 347.126C354.409 346.785 360.761 343.912 363.966 338.072C361.878 336.995 358.907 337.508 356.645 337.533C353.559 337.565 350.547 337.509 347.499 336.972C344.737 336.486 342.006 335.755 339.408 334.689C338.063 334.137 336.733 333.506 335.495 332.739C334.589 332.178 333.907 331.318 333.016 330.767C329.732 328.737 325.939 335.193 322.428 335.069C320.278 334.993 321.056 332.876 321.951 331.691C323.566 329.552 326.384 328.232 328.511 326.673C326.531 324.848 324.293 326.762 322.407 327.715C320.049 328.908 317.6 330.371 314.966 330.819C315.163 327.421 319.781 325.599 322.328 324.217C323.462 323.601 324.883 323.031 325.162 321.678C325.372 320.66 325.013 319.213 324.906 318.186C324.771 316.879 324.671 316.462 323.282 316.094C321.597 315.647 319.9 315.776 318.212 315.219C313.593 313.691 309.999 311.424 306.04 308.645ZM155.903 255.088C154.775 255.401 153.636 255.672 152.49 255.914C150.222 256.393 147.951 256.89 145.675 257.325C144.534 257.543 143.266 257.404 142.93 258.495C142.757 259.054 143.192 260.059 143.267 260.64C143.401 261.687 143.41 262.749 143.422 263.803C143.541 273.521 141.512 283.182 142.405 292.899C143.16 301.11 144.926 311.495 150.952 317.61C153.553 320.25 156.753 323.117 160.027 324.921C162.595 326.335 166.181 322.786 166.705 320.33C167.081 318.569 166.454 316.712 166.046 315.014C165.523 312.84 164.993 310.667 164.475 308.491C163.369 303.847 162.363 299.16 162.046 294.386C161.941 292.818 161.964 291.307 162.052 289.746C162.1 288.897 162.499 286.854 161.906 286.128C161.14 285.188 159.389 285.802 158.352 285.882C157.216 285.971 156.106 285.903 154.996 285.612C152.352 284.92 151.889 282.817 154.775 281.843C156.791 281.163 160.474 282.148 162.167 280.839C164.156 279.301 160.136 279.09 159.197 279.05C157.947 278.997 153.801 279.324 154.012 276.992C154.169 275.263 157.738 275.148 158.987 275.074C161.655 274.917 165.031 275.917 166.184 272.697C166.646 271.407 163.864 270.752 163.165 270.112C161.469 268.557 160.912 265.892 160.767 263.707C160.623 261.56 162.735 254.115 159.517 253.918C158.529 253.857 156.887 254.814 155.903 255.088ZM314.149 298.055C312.255 300.312 310.619 302.784 308.855 305.143C312.992 307.428 317.222 309.266 321.5 311.231C323.445 312.124 324.808 312.833 326.691 311.478C328.041 310.506 329.053 309.125 330.371 308.114C332.265 306.663 334.245 305.332 336.187 303.948C330.457 301.855 324.64 300.019 318.913 297.922C316.771 297.137 315.696 296.211 314.149 298.055ZM266.973 290.885C268.198 292.129 265.84 295.574 265.375 296.754C269.174 296.452 272.941 295.853 276.672 295.081C277.942 294.818 277.474 296.366 276.999 296.877C276.411 297.509 275.235 297.7 274.449 297.926C271.558 298.755 268.592 299.155 265.624 299.597C266.982 301.27 270.25 303.887 269.198 306.402C267.3 304.765 265.935 302.586 263.836 301.171C263.23 302.077 261.972 305.272 260.593 305.076C258.428 304.769 260.621 301.035 261.074 300.136C259.616 300.136 254.139 301.417 253.374 299.62C252.592 297.783 257.878 297.842 258.855 297.408L258.673 297.186L258.49 296.965C257.76 296.083 257.058 295.214 256.959 294.003C258.594 294.567 259.685 297.13 261.481 297.168C263.185 297.203 263.945 294.641 264.552 293.428C264.897 292.738 266.069 289.967 266.973 290.885ZM451.292 266.719C454.954 269.811 452.466 276.049 449.695 278.853C446.59 281.994 439.677 284.88 435.742 281.678C433.587 279.925 434.365 277.251 434.895 274.92C435.485 272.329 435.852 270.145 437.995 268.367C441.33 265.601 447.576 263.582 451.292 266.719ZM443.857 268.516C440.284 269.277 436.663 272.85 435.814 276.534C434.7 281.364 439.709 281.717 443.009 280.991C447.159 280.078 451.569 277.031 451.781 272.251C451.964 268.127 446.634 267.925 443.857 268.516ZM183.847 247.634C178.496 249.628 173.466 252.356 167.853 253.539C166.139 253.9 165.436 254.295 165.012 255.892C164.419 258.128 163.856 260.395 164.28 262.731C165.16 267.581 171.903 266.987 175.647 266.797C177.57 266.699 181.267 267.051 182.935 265.85C184.154 264.973 183.642 263.329 183.453 262.048C182.742 257.262 183.517 252.418 183.847 247.634ZM475.576 201.41C473.606 201.782 470.2 203.389 473.024 205.404C474.909 206.748 477.713 206.911 479.927 207.243C484.251 207.892 488.867 208.452 492.62 210.894C499.573 215.418 498.721 223.957 496.641 230.945C498.139 231.828 502.539 226.054 503.368 225.115C506.73 221.306 510.106 217.508 513.495 213.724C514.946 212.105 503.054 206.514 501.985 206.01C496.335 203.35 491.062 201.598 484.725 201.141C481.72 200.925 478.55 200.849 475.576 201.41ZM451.048 187.248C450.508 188.61 451.454 189.228 452.322 190.169C457.18 195.43 460.601 202.876 463.306 209.407C464.655 212.663 465.6 215.947 466.435 219.359C467.254 222.707 469.857 223.602 472.976 224.552C480.16 226.741 487.722 227.474 494.931 229.636C496.863 230.216 497.242 225.965 497.363 224.886C497.708 221.819 497.387 218.618 495.777 215.914C492.733 210.803 486.631 209.716 481.188 208.846C478.076 208.348 473.975 207.834 471.511 205.704C470.275 204.634 470.1 203.408 471.064 202.079C472.822 199.656 475.918 199.345 478.684 199.148C480.031 199.051 488.372 199.895 488.644 198.907C484.491 197.553 480.228 196.659 476.136 195.11C472.944 193.901 469.726 192.76 466.505 191.628L463.284 190.498C460.008 189.348 457.008 187.949 453.865 186.564C452.684 186.045 451.601 185.852 451.048 187.248ZM521.494 209.414C520.454 210.814 519.423 211.99 518.643 213.563C517.733 215.398 516.224 216.569 514.962 218.145C521.515 219.302 527.765 220.772 534.078 222.893C537.32 223.981 540.668 224.519 543.983 225.299C546.765 225.953 549.729 226.967 552.609 226.367C549.329 221.842 540.58 223.093 538.277 217.613C536.71 213.885 540.561 210.911 543.711 210.264C549.212 209.134 555.076 209.047 560.664 208.644C560.723 206.504 540.44 205.396 538.435 205.223C534.874 204.915 531.157 204.246 527.603 204.123C524.304 204.008 523.226 207.083 521.494 209.414ZM444.097 193.762C442.144 195.652 440.231 197.584 438.279 199.477C436.996 200.722 435.258 202.047 434.247 203.53C432.955 205.423 435.217 206.333 436.724 207.229C440.529 209.491 444.461 211.602 448.332 213.754C451.81 215.687 455.427 218.147 459.266 219.278C461.319 219.883 463.247 220.822 465.227 221.615C464.272 213.032 459.349 205.237 454.81 198.081C453.767 196.438 452.69 194.818 451.648 193.176C451.123 192.349 450.148 190.397 449.047 190.228C447.42 189.979 445.084 192.807 444.097 193.762ZM543.638 215.607C546.017 216.972 548.403 217.665 551.087 216.634C551.747 216.364 552.401 216.079 553.047 215.779C551.258 213.337 545.968 214.825 543.638 215.607ZM346.539 185.737C342.321 187.641 337.809 189.538 334.14 192.41C332.786 193.471 329.76 195.698 330.468 197.719C331.074 199.449 334.424 200.922 336.014 201.449C344.382 204.222 353.906 202.205 361.612 207.293C363.697 208.671 364.377 210.471 365.926 212.281C367.327 213.919 369.1 213.716 370.982 213.036C373.454 212.144 375.732 210.777 378.214 209.901C379.483 209.453 381.64 209.156 381.772 207.442C382.392 199.361 380.67 189.066 373.555 184.122C365.567 178.571 354.548 182.123 346.539 185.737ZM342.015 204.568C341.811 205.593 349.729 207.448 350.588 207.685C355.369 209.004 359.836 212.138 364.788 212.643C365.649 210.721 358.789 207.66 357.704 207.265C352.754 205.465 347.214 205.139 342.015 204.568ZM497.488 200.98C503.49 203.442 509.308 206.457 514.339 210.65C516.075 212.095 520.291 205.234 521.235 204.182C513.24 203.849 505.362 202.322 497.488 200.98ZM385.302 152.713C379.738 156.393 374.891 161.205 368.782 164.026C370.694 164.327 372.781 163.088 374.606 162.653C376.384 162.23 378.182 161.951 379.913 161.352C380.976 160.984 385.366 158.608 386.19 160.219C387.478 162.734 378.411 164.474 377.121 164.903C372.767 166.352 368.442 167.869 364.133 169.445C359.959 170.972 355.788 172.615 351.475 173.711C347.095 174.825 342.45 175.112 338.239 176.842C334.515 178.371 331.314 180.902 327.722 182.688C324.12 184.48 320.025 185.588 316.92 188.254C320.297 191.861 324.29 194.882 328.658 197.182C329.358 191.68 335.799 188.548 340.205 186.433C349.812 181.823 364.239 174.872 374.03 182.684C381.186 188.394 382.156 199.227 382.156 207.709C384.094 207.091 385.864 206.108 387.664 205.18C388.911 204.537 388.926 202.747 389.082 201.552C389.339 199.594 389.868 197.698 390.476 195.819C391.819 191.664 393.501 187.611 395.103 183.552C397.697 176.986 400.894 170.511 402.489 163.603C403.529 159.095 404.767 151.347 399.338 149.109C394.64 147.174 389.116 150.191 385.302 152.713ZM361.001 134.364C360.094 134.973 360.433 136.799 360.495 137.715C360.72 141.047 360.579 144.392 360.69 147.73C360.825 151.797 360.855 159.255 365.044 161.535C367.91 163.095 371.473 160.758 373.759 159.166C377.628 156.475 381.178 153.349 385.1 150.721C389.75 147.606 398.561 143.297 403.011 149.157C405.419 152.329 405.081 157.055 404.48 160.745C403.687 165.614 401.835 170.232 399.994 174.782C396.193 184.177 392.226 193.726 390.112 203.671C394.931 200.804 398.679 196.671 402.886 193.04C406.004 190.349 410.634 187.258 411.354 182.872C411.516 181.882 412.474 181.176 413.133 180.513C413.99 179.651 414.594 178.777 415.138 177.677C416.337 175.247 417.116 172.623 417.607 169.963C418.637 164.384 418.146 158.831 417.196 153.285C416.766 150.777 417.397 148.086 416.813 145.641C416.407 143.943 415.211 144.044 413.619 143.658C407.886 142.267 402.142 140.919 396.406 139.542C394.076 138.982 391.542 137.932 389.123 137.967C387.137 137.995 385.469 139.181 383.756 140.039C380.942 141.448 376.469 143.914 373.239 142.513C369.474 140.879 373.861 137.192 371.973 135.447C370.679 134.251 366.81 134.968 365.055 134.671C364.093 134.508 361.884 133.772 361.001 134.364ZM420.245 182.543C417.507 182.975 415.922 184.164 414.414 186.497C412.881 188.868 412.699 190.042 414.884 191.898C417.24 193.898 419.706 195.875 422.208 197.677C425.379 199.961 428.896 201.69 432.03 204.03C433.403 205.054 439.632 197.021 440.713 195.919C442.205 194.399 443.735 192.875 445.335 191.476C445.92 190.965 447.752 189.78 447.753 188.91C447.755 186.713 442.887 184.747 441.321 184.142C437.812 182.787 434.132 182.24 430.393 182.183C427.079 182.133 423.528 182.024 420.245 182.543ZM432.446 172.876C429.876 174.242 427.191 175.394 424.604 176.732C423.686 177.206 417.9 179.64 418.192 181.094C424.704 180.681 431.187 179.578 437.678 180.84C440.593 181.407 443.37 182.357 445.806 184.11C447.651 185.437 449.058 187.988 450.89 185.718C447.15 183.596 443.782 180.784 440.465 178.054C439.014 176.858 437.52 175.734 436.047 174.571C435.171 173.88 433.726 172.196 432.446 172.876ZM278.423 141.109C276.386 141.395 274.4 141.935 272.4 142.399C264.295 144.278 256.16 145.966 248.077 147.954C231.955 151.921 215.35 155.745 199.977 162.1C201.269 163.53 204.694 162.494 206.299 162.213C209.439 161.664 212.486 160.704 215.588 159.98C218.623 159.272 221.668 158.427 224.728 157.837C226.137 157.565 228.622 157.207 228.679 159.322C228.76 162.32 222.941 164.562 220.805 165.658C218.522 166.83 216.311 168.125 214.137 169.488C212.418 170.565 209.249 172.001 208.691 174.142C214.268 171.777 219.849 169.421 225.392 166.976C227.48 166.055 229.595 165.187 231.583 164.063C232.908 163.314 234.614 161.999 236.183 161.881C238.308 161.72 238.66 163.652 237.765 165.211C236.644 167.161 234.332 168.262 232.632 169.627C230.464 171.368 228.545 173.422 226.593 175.393C224.973 177.028 222.886 178.639 222.04 180.85C224.953 181.826 228.263 178.699 230.403 177.154C233.767 174.726 236.9 172.084 240.109 169.46C241.751 168.117 243.708 165.943 245.868 165.542C248.606 165.034 248.38 168.168 247.715 169.896C246.231 173.757 242.757 176.977 242.508 181.33C242.356 184.01 244.623 182.99 246.136 181.915C248.683 180.104 250.408 177.346 252.72 175.269C258.287 170.268 264.661 166.002 271.548 163.04C272.781 162.51 273.224 160.606 273.599 159.462C274.158 157.755 274.802 156.1 275.474 154.431C276.947 150.775 278.154 146.824 280.218 143.448C280.794 142.506 282.279 141.546 281.05 140.992C280.383 140.692 279.112 141.012 278.423 141.109ZM337.217 134.925C335.131 135.169 333.019 135.147 330.929 135.367C327.518 135.727 329.006 139.882 328.456 142.385C326.838 149.754 319.036 151.145 313.124 147.669C309.798 145.713 307.801 142.909 306.013 139.629C304.993 137.759 304.233 137.459 302.124 137.927C300.676 138.248 299.359 138.18 297.886 138.287C296.033 138.421 295.871 138.815 295.833 140.58C295.8 142.148 295.575 143.235 294.532 144.505C292.544 146.924 289.212 148.517 286.373 149.733C283.528 150.952 280.307 151.857 278.744 154.737C277.957 156.189 277.113 157.922 276.885 159.572C276.636 161.375 277.247 162.493 276.197 164.157C274.014 167.614 273.013 171.393 271.91 175.322C271.55 176.602 271.408 177.129 272.803 177.481C274.806 177.986 277.65 177.219 279.705 177.139C281.172 177.081 282.028 174.493 282.504 173.445C283.431 171.406 284.567 169.475 285.705 167.545C288.283 163.174 291.04 158.831 294.408 155.011C296.95 152.128 300.702 148.54 303.957 152.591C307.13 156.539 309.416 161.163 313.231 164.604C316.586 167.631 320.044 167.679 323.524 164.811C326.95 161.986 329.553 158.133 331.683 154.289C333.986 150.131 335.722 145.693 337.967 141.511C338.67 140.2 341.919 136.653 340.929 135.134C340.261 134.109 338.155 134.816 337.217 134.925ZM354.689 134.018C352.852 134.105 351.005 133.898 349.168 133.862C345.844 133.796 343.065 133.912 341.396 137.101C339.922 139.915 338.667 142.908 337.323 145.79C334.402 152.049 331.536 158.454 327.052 163.781C323.079 168.5 317.946 170.877 312.778 166.369C310.486 164.37 308.745 161.791 307.101 159.257C305.783 157.225 304.278 153.648 302.07 152.464C299.607 151.143 296.788 154.173 295.283 155.817C292.752 158.58 290.636 161.831 288.605 164.969C287.131 167.245 285.72 169.57 284.288 171.873C283.708 172.807 281.343 175.861 282.13 177.025C282.92 178.191 286.771 177.394 287.886 177.287C290.547 177.033 293.205 176.941 295.867 176.712C304.149 175.999 312.307 174.177 320.61 173.691C326.079 173.37 331.468 172.312 336.852 171.35C342.086 170.415 347.355 169.778 352.533 168.542C355.578 167.815 358.629 167.088 361.668 166.334C362.72 166.074 367.69 165.363 367.999 163.995C364.576 163.397 362.779 162.068 361.566 158.725C360.046 154.538 359.869 149.872 359.74 145.461C359.69 143.764 359.682 142.067 359.681 140.369L359.681 138.332C359.68 137.115 360.205 134.905 359.109 134.061C358.095 133.28 355.864 133.962 354.689 134.018ZM422.63 161.054C422.774 166.57 421.789 172.13 419.525 177.17C421.893 177.55 424.709 174.576 426.695 173.58C427.46 173.196 432.526 171.353 430.83 169.944C427.709 167.353 425.663 163.733 422.63 161.054ZM490.526 165.54C491.22 166.911 490.362 168.652 489.898 169.954C493.511 170.823 497.109 171.677 500.749 172.414C503.492 172.97 502.535 174.618 500.154 174.504C496.842 174.346 493.761 172.942 490.465 172.759C487.326 172.585 486.956 175.329 484.28 175.858C484.371 174.348 485.591 173.299 486.467 172.167C485.023 171.425 483.547 170.735 482.146 169.918C481.42 169.494 479.415 167.719 480.187 166.775C480.967 165.823 483.01 167.608 483.737 168.001C484.771 168.56 486.834 169.791 488.05 169.438C489.716 168.954 489.369 166.56 490.526 165.54ZM438.469 129.596C437.003 129.698 435.409 129.204 434.021 129.85C432.637 130.494 430.985 131.904 429.827 132.882C428.706 133.828 428.149 134.978 426.756 135.536C425.364 136.095 423.938 136.046 423.402 137.749C424.664 138.096 427.143 137.636 428.132 138.565C429.57 139.918 427.06 141.406 426.019 141.831C424.526 142.441 423.305 142.243 421.778 142.129C421.113 142.08 421.119 141.875 420.575 142.204C418.557 143.426 419.953 147.771 420.608 149.356C423.811 157.114 434.756 154.501 441.068 153.707C439.06 151.681 435.77 149.446 435.604 146.265C435.555 145.317 435.789 143.624 437.005 143.545C437.976 143.482 439.142 144.951 439.747 145.53C441.54 147.247 443.86 150.093 446.454 150.339C449.921 150.668 452.588 145.047 454.026 142.595C452.259 142.262 450.323 142.282 449.296 140.546C448.074 138.483 448.053 135.322 448.074 133C448.093 131.022 448.722 128.858 446.082 128.761C443.649 128.672 440.925 129.426 438.469 129.596ZM205.671 134.669C205.165 135.772 202.97 136.204 202.007 136.499C198.341 137.62 194.762 139.044 191.188 140.44C183.973 143.26 176.838 146.374 170.25 150.517C169.018 151.292 169.622 149.798 169.941 149.259C170.658 148.051 172.165 147.196 173.29 146.456C176.334 144.453 179.559 143.045 182.925 141.705C189.661 139.025 196.5 136.182 203.408 134.01C204.21 133.758 206.349 133.186 205.671 134.669ZM289.345 140.131C288.006 140.27 286.437 139.965 285.149 140.403C283.471 140.973 283.748 142.126 283.251 143.545C282.408 145.953 281.507 148.34 280.627 150.736C283.882 150.584 286.998 148.005 289.756 146.52C291.318 145.68 296.746 142.89 295.109 140.337C294.073 138.721 290.832 139.977 289.345 140.131ZM326.382 135.933C324.367 135.897 322.151 136.508 320.112 136.609C317.377 136.745 314.684 137.266 311.953 137.392C310.156 137.475 308.392 137.845 306.615 138.087C308.383 142.189 311.835 145.777 316.173 147.263C319.595 148.435 324.383 148.634 326.721 145.39C328.067 143.524 330.264 136.003 326.382 135.933ZM431.313 118.989C429.116 120.451 427.355 122.545 425.519 124.413C420.922 129.093 416.164 134.103 414.173 140.517C413.9 141.396 415.973 142.172 416.534 142.206C417.72 142.278 417.961 141.679 418.427 140.676C419.579 138.193 420.02 135.419 421.863 133.301C424.109 130.719 426.813 128.202 429.42 125.984C431.192 124.477 435.533 122.355 436.042 119.863C436.644 116.918 432.644 118.105 431.313 118.989ZM374.632 136.035C373.39 136.396 373.291 137.548 373.007 138.788C371.864 143.771 383.416 138.334 385.025 137.52C384.49 135.92 379.225 136.211 378.006 136.148C377.056 136.1 375.55 135.767 374.632 136.035ZM442.87 138.623C441.158 138.689 441.948 131.689 443.894 132.393C445.562 132.997 443.967 138.58 442.87 138.623ZM202.217 130.574C199.596 132.839 195.481 133.143 192.222 133.87C187.419 134.941 182.659 136.307 177.896 137.539C174.888 138.317 176.581 136.462 178.087 135.765C180.677 134.566 183.608 133.927 186.376 133.267C189.372 132.553 192.434 132.077 195.414 131.298C197.476 130.758 200.137 129.378 202.217 130.574ZM283.763 81.8902C286.676 82.4258 289.584 83.3585 292.138 84.8863C294.252 86.1511 294.168 88.1189 291.488 86.9771C278.987 81.6499 263.475 84.8769 251.268 89.5941C249.921 90.1142 250.021 88.9793 250.428 88.1044C250.988 86.8992 252.186 86.1995 253.336 85.64C256.791 83.9579 260.774 83.0068 264.531 82.308C270.791 81.1435 277.473 80.7343 283.763 81.8902ZM285.59 74.2385C287.178 74.6698 289.003 75.7398 289.975 77.097C291.112 78.6853 290.208 79.4971 288.63 78.563C286.869 77.5205 285.259 76.481 283.238 75.9304C282.171 75.6401 282.214 74.9702 282.981 74.3821C283.698 73.8315 284.812 74.0269 285.59 74.2385Z" fill="black"/>
<g style="mix-blend-mode:overlay">
<path fill-rule="evenodd" clip-rule="evenodd" d="M465.997 143.134L547.235 118.691L555.543 138.011L475.086 172.811L465.997 143.134Z" fill="white"/>
</g>
<g style="mix-blend-mode:overlay">
<path fill-rule="evenodd" clip-rule="evenodd" d="M497.176 96.168L577.991 70.3398L585.392 86.698L504.934 121.502L497.176 96.168Z" fill="white"/>
</g>
<g style="mix-blend-mode:overlay">
<path fill-rule="evenodd" clip-rule="evenodd" d="M95.2026 332.184L176.441 307.742L184.749 327.061L104.292 361.861L95.2026 332.184Z" fill="white"/>
</g>
<g style="mix-blend-mode:overlay">
<path fill-rule="evenodd" clip-rule="evenodd" d="M126.381 285.219L207.197 259.391L214.597 275.749L134.14 310.552L126.381 285.219Z" fill="white"/>
</g>
<g style="mix-blend-mode:overlay">
<path fill-rule="evenodd" clip-rule="evenodd" d="M482.054 91.8578L431.721 361.91L225.027 188.355L482.054 91.8578Z" fill="white"/>
</g>
</g>
</g>
<defs>
<clipPath id="clip0_1315_1908">
<rect width="690" height="422" fill="white"/>
</clipPath>
<clipPath id="clip1_1315_1908">
<rect width="572" height="350" fill="white" transform="translate(59 37)"/>
</clipPath>
</defs>
</svg>
